<svg id="Layer_1" data-name="Layer 1" xmlns="http://www.w3.org/2000/svg" viewBox="0 0 100 100"><defs><style>.cls-1{fill:#fff;}</style></defs><path class="cls-1" d="M13.83,18.11l6.54,19.61L1.88,47a3.38,3.38,0,0,0,0,6l18.49,9.24L13.83,81.89a3.38,3.38,0,0,0,4.28,4.28l19.61-6.54L47,98.13a3.38,3.38,0,0,0,6.05,0l9.24-18.49,19.63,6.53a3.38,3.38,0,0,0,4.28-4.28L79.62,62.28,98.13,53a3.38,3.38,0,0,0,0-6.05L79.64,37.74l6.54-19.62a3.38,3.38,0,0,0-4.28-4.28L62.29,20.39,53.05,1.9a3.38,3.38,0,0,0-6,0L37.76,20.39,18.15,13.84a3.38,3.38,0,0,0-4.32,4.27ZM32.32,32.32a25,25,0,1,1,0,35.36A25,25,0,0,1,32.32,32.32ZM47.66,33A14.7,14.7,0,0,1,35.51,59.3a.87.87,0,0,0-.95,1.34,18.41,18.41,0,0,0,2.19,2.63,18.75,18.75,0,1,0,11.33-31.9A.88.88,0,0,0,47.66,33Z"/></svg>