<?xml version="1.0" encoding="utf-8"?>
<!-- Generator: Adobe Illustrator 24.1.2, SVG Export Plug-In . SVG Version: 6.00 Build 0)  -->
<svg version="1.1" id="Layer_1" xmlns="http://www.w3.org/2000/svg" xmlns:xlink="http://www.w3.org/1999/xlink" x="0px" y="0px"
	 viewBox="0 0 50 50" style="enable-background:new 0 0 50 50;" xml:space="preserve">
<style type="text/css">
	.st0{fill:#33DED2;}
</style>
<path class="st0" d="M43.6,5.1H6.4c-3.4,0-6.2,3-6.2,6.6v26.6c0,3.7,2.8,6.6,6.2,6.6h37.2c3.4,0,6.2-3,6.2-6.6V11.7
	C49.8,8,47,5.1,43.6,5.1z M33.4,22.8l13.1-12.1c0.1,0.3,0.2,0.6,0.2,1v26.6c0,0.2-0.1,0.4-0.1,0.7L33.4,22.8z M43.6,8.4
	c0.2,0,0.4,0.1,0.6,0.1L25,26.1L5.8,8.5c0.2,0,0.4-0.1,0.6-0.1H43.6z M3.4,38.9c0-0.2-0.1-0.4-0.1-0.6V11.7c0-0.3,0.1-0.7,0.2-1
	l13.1,12L3.4,38.9z M6.4,41.6c-0.3,0-0.6-0.1-0.9-0.2L19,25l5,4.6c0.3,0.3,0.6,0.4,1,0.4s0.7-0.1,1-0.4l5-4.6l13.4,16.5
	c-0.3,0.1-0.6,0.2-0.9,0.2H6.4z"/>
</svg>
