<?xml version="1.0" encoding="utf-8"?>
<!-- Generator: Adobe Illustrator 24.1.2, SVG Export Plug-In . SVG Version: 6.00 Build 0)  -->
<svg version="1.1" id="Layer_1" xmlns="http://www.w3.org/2000/svg" xmlns:xlink="http://www.w3.org/1999/xlink" x="0px" y="0px"
	 viewBox="0 0 50 50" style="enable-background:new 0 0 50 50;" xml:space="preserve">
<style type="text/css">
	.st0{fill-rule:evenodd;clip-rule:evenodd;fill:#36C5F0;}
	.st1{fill-rule:evenodd;clip-rule:evenodd;fill:#2EB67D;}
	.st2{fill-rule:evenodd;clip-rule:evenodd;fill:#ECB22E;}
	.st3{fill-rule:evenodd;clip-rule:evenodd;fill:#E01E5A;}
</style>
<g>
	<path class="st0" d="M18.3,0c-2.8,0-5,2.2-5,5c0,2.8,2.2,5,5,5h5V5C23.3,2.2,21.1,0,18.3,0C18.3,0,18.3,0,18.3,0 M18.3,13.3H5
		c-2.8,0-5,2.2-5,5c0,2.8,2.2,5,5,5h13.3c2.8,0,5-2.2,5-5C23.3,15.6,21.1,13.3,18.3,13.3L18.3,13.3z"/>
	<path class="st1" d="M50,18.3c0-2.8-2.2-5-5-5c-2.8,0-5,2.2-5,5v5h5C47.7,23.3,50,21.1,50,18.3z M36.6,18.3V5c0-2.8-2.2-5-5-5
		c-2.8,0-5,2.2-5,5v13.3c0,2.8,2.2,5,5,5C34.4,23.3,36.6,21.1,36.6,18.3z"/>
	<path class="st2" d="M31.7,50c2.8,0,5-2.2,5-5c0-2.8-2.2-5-5-5h-5v5C26.7,47.8,28.9,50,31.7,50z M31.7,36.7H45c2.8,0,5-2.2,5-5
		c0-2.8-2.2-5-5-5H31.7c-2.8,0-5,2.2-5,5C26.7,34.4,28.9,36.7,31.7,36.7L31.7,36.7z"/>
	<path class="st3" d="M0,31.7c0,2.8,2.2,5,5,5c2.8,0,5-2.2,5-5v-5H5C2.3,26.7,0,28.9,0,31.7z M13.4,31.7V45c0,2.8,2.2,5,5,5
		c2.8,0,5-2.2,5-5V31.7c0-2.8-2.2-5-5-5C15.6,26.7,13.4,28.9,13.4,31.7C13.4,31.7,13.4,31.7,13.4,31.7"/>
</g>
</svg>
