<?xml version="1.0" encoding="utf-8"?>
<!-- Generator: Adobe Illustrator 24.1.2, SVG Export Plug-In . SVG Version: 6.00 Build 0)  -->
<svg version="1.1" id="Layer_1" xmlns="http://www.w3.org/2000/svg" xmlns:xlink="http://www.w3.org/1999/xlink" x="0px" y="0px"
	 viewBox="0 0 50 50" style="enable-background:new 0 0 50 50;" xml:space="preserve">
<style type="text/css">
	.st0{fill:#0077B7;}
</style>
<path class="st0" d="M45.5,0h-41C2,0,0,2,0,4.5v41C0,48,2,50,4.5,50h41c2.5,0,4.5-2,4.5-4.5v-41C50,2,48,0,45.5,0z M15.5,43.2
	c0,0.7-0.6,1.3-1.3,1.3H8.6c-0.7,0-1.3-0.6-1.3-1.3V19.7c0-0.7,0.6-1.3,1.3-1.3h5.6c0.7,0,1.3,0.6,1.3,1.3V43.2z M11.4,16.2
	c-2.9,0-5.3-2.4-5.3-5.3s2.4-5.3,5.3-5.3s5.3,2.4,5.3,5.3S14.3,16.2,11.4,16.2z M44.8,43.3c0,0.7-0.5,1.2-1.2,1.2h-6
	c-0.7,0-1.2-0.5-1.2-1.2v-11c0-1.6,0.5-7.2-4.3-7.2c-3.7,0-4.5,3.8-4.6,5.5v12.7c0,0.7-0.5,1.2-1.2,1.2h-5.8c-0.7,0-1.2-0.5-1.2-1.2
	V19.6c0-0.7,0.5-1.2,1.2-1.2h5.8c0.7,0,1.2,0.5,1.2,1.2v2c1.4-2.1,3.4-3.7,7.8-3.7c9.6,0,9.6,9,9.6,13.9L44.8,43.3L44.8,43.3z"/>
</svg>
