<?xml version="1.0" encoding="utf-8"?>
<!-- Generator: Adobe Illustrator 24.1.2, SVG Export Plug-In . SVG Version: 6.00 Build 0)  -->
<svg version="1.1" id="Layer_1" xmlns="http://www.w3.org/2000/svg" xmlns:xlink="http://www.w3.org/1999/xlink" x="0px" y="0px"
	 viewBox="0 0 50 50" style="enable-background:new 0 0 50 50;" xml:space="preserve">
<style type="text/css">
	.st0{fill-rule:evenodd;clip-rule:evenodd;fill:#181616;}
</style>
<path class="st0" d="M24.8,0.8C11.2,0.8,0.1,11.9,0.1,25.5C0.1,36.4,7.2,45.7,17,49c1.2,0.2,1.7-0.5,1.7-1.2c0-0.6,0-2.1,0-4.2
	c-6.9,1.5-8.3-3.3-8.3-3.3c-1.1-2.9-2.7-3.6-2.7-3.6c-2.2-1.5,0.2-1.5,0.2-1.5c2.5,0.2,3.8,2.5,3.8,2.5c2.2,3.8,5.8,2.7,7.2,2.1
	c0.2-1.6,0.9-2.7,1.6-3.3c-5.5-0.6-11.3-2.7-11.3-12.2c0-2.7,1-4.9,2.5-6.6c-0.3-0.6-1.1-3.1,0.2-6.5c0,0,2.1-0.7,6.8,2.5
	c2-0.5,4.1-0.8,6.2-0.8c2.1,0,4.2,0.3,6.2,0.8c4.7-3.2,6.8-2.5,6.8-2.5c1.3,3.4,0.5,5.9,0.2,6.5c1.6,1.7,2.5,3.9,2.5,6.6
	c0,9.5-5.8,11.6-11.3,12.2c0.9,0.8,1.7,2.3,1.7,4.6c0,3.3,0,6,0,6.8c0,0.7,0.4,1.4,1.7,1.2c9.8-3.3,16.9-12.5,16.9-23.4
	C49.6,11.9,38.5,0.8,24.8,0.8z"/>
</svg>
