<?xml version="1.0" encoding="utf-8"?>
<!-- Generator: Adobe Illustrator 24.2.0, SVG Export Plug-In . SVG Version: 6.00 Build 0)  -->
<svg version="1.1" xmlns="http://www.w3.org/2000/svg" xmlns:xlink="http://www.w3.org/1999/xlink" x="0px" y="0px"
	 viewBox="0 0 1000 600" style="enable-background:new 0 0 1000 600;" xml:space="preserve">
<style type="text/css">
	.st0{fill:#5C39BC;}
	.st1{opacity:0.05;enable-background:new    ;}
	.st2{fill:#33DED2;}
	.st3{opacity:0.1;enable-background:new    ;}
	.st4{fill:#FFD2D9;}
	.st5{fill:#D1D8DB;}
	.st6{fill:#824E4E;}
	.st7{opacity:0.05;}
	.st8{opacity:0.2;fill:#FFFFFF;enable-background:new    ;}
	.st9{opacity:0.05;fill:#00FF00;enable-background:new    ;}
	.st10{fill:#2D2D2D;}
	.st11{opacity:0.2;fill:#33DED2;enable-background:new    ;}
	.st12{opacity:0.2;}
	.st13{opacity:0.1;fill:#252223;enable-background:new    ;}
	.st14{opacity:0.3;fill:#33DED2;enable-background:new    ;}
	.st15{fill:url(#SVGID_1_);}
	.st16{fill:#535461;}
	.st17{fill:url(#SVGID_2_);}
	.st18{fill:#F9D5C6;}
	.st19{fill:#353535;}
	.st20{fill:#409CD6;}
	.st21{fill:#2F302F;}
	.st22{fill:none;stroke:#535461;stroke-miterlimit:10;}
	.st23{fill:none;stroke:#535461;stroke-width:2;stroke-miterlimit:10;}
	.st24{opacity:0.25;enable-background:new    ;}
	.st25{fill:#535151;}
	.st26{fill:#7C7E7F;}
	.st27{opacity:0.35;fill:url(#SVGID_3_);}
</style>
<g id="ce0caf1d-b686-4c5f-8a14-7ab48d3ff308">
	<path class="st0" d="M624.3,526.9c0,0,2.3,35.1-2.3,40.9c0,0,102.8,18.7,115.7,12.8s7-15.2,0-18.7s-42.1-16.4-46.8-40.9
		c0,0,15.2-7-33.9,2.3S624.3,526.9,624.3,526.9z"/>
	<path class="st1" d="M624.3,526.9c0,0,2.3,35.1-2.3,40.9c0,0,102.8,18.7,115.7,12.8s7-15.2,0-18.7s-42.1-16.4-46.8-40.9
		c0,0,15.2-7-33.9,2.3S624.3,526.9,624.3,526.9z"/>
	<path class="st2" d="M223.2,38.7l-0.4,0.2c-21.2,10-39.7,25-53.8,43.8c-8,10.5-17.8,20.5-27.1,22.2C121.2,108.5-30.9,266.7,5.6,414
		s249.5,153.3,249.5,153.3s45.3,7.7,71.3,23c12.3,7.3,27.1,8.7,40.6,3.9c31-11,81.8-27,104.7-22.1c34.1,7.3,326.1-114.4,326.1-114.4
		S676.2,340.9,497.3,343.4c0,0-282.3-197.1-272.6-278.6L223.2,38.7z"/>
	<path class="st3" d="M223.2,38.7l-0.4,0.2c-21.2,10-39.7,25-53.8,43.8c-8,10.5-17.8,20.5-27.1,22.2C121.2,108.5-30.9,266.7,5.6,414
		s249.5,153.3,249.5,153.3s45.3,7.7,71.3,23c12.3,7.3,27.1,8.7,40.6,3.9c31-11,81.8-27,104.7-22.1c34.1,7.3,326.1-114.4,326.1-114.4
		S676.2,340.9,497.3,343.4c0,0-282.3-197.1-272.6-278.6L223.2,38.7z"/>
	<path class="st2" d="M223.4,38.4l-29.2,28c0,0-22.2,43.2-42.1,46.8S-13.8,268.6,21.2,410s239.6,147.3,239.6,147.3
		s42.6,7.2,67.6,21.6c12.3,7.2,27.1,8.7,40.6,4c29.8-10.5,78-25.6,99.8-20.9C501.5,569,782,452.1,782,452.1S665.2,339.9,493.4,342.3
		c0,0-271.1-189.3-261.8-267.6L223.4,38.4z"/>
	
		<ellipse transform="matrix(0.7071 -0.7071 0.7071 0.7071 -172.4592 320.2059)" class="st3" cx="300.29" cy="368.28" rx="92.2" ry="167.8"/>
	<path class="st4" d="M223.4,186.8c0,0,12.9,21,4.7,62s21,40.9,21,40.9h58.4l19.9-51.4l-28,2.3c0,0-18.7-4.7-10.5-47.9L223.4,186.8z
		"/>
	<path class="st4" d="M398.7,137.7c-8.9,28.5-20.1,63.1-26.1,81.6l-4.3,13.1l-38.6-39.7c0,0,1.7-3.9,4.2-9.5
		c5.6-12.2,15.5-32.2,20.3-33.8c0,0-53.8-3.5-70.1,9.4s-11.7-35.1-11.7-35.1s31.6-2.3,43.2-9.3s74.8-14,74.8-14
		S411.6,96.8,398.7,137.7z"/>
	<path class="st3" d="M187.2,490.7c0,0,99.3-45.6,134.4-38.6"/>
	<path class="st3" d="M85.5,383.2c0,0,120.4-4.7,185.8,37.4"/>
	<path class="st3" d="M145.1,431.1c0,0,94.7-23.4,144.9-15.2"/>
	<path class="st4" d="M749.3,481.3l-8.2,59.6l-21-2.3c0,0-1.3-1.2-3.4-3.1c-5.7-5-17.5-14.8-28.7-20.1c-3.8-2-8-3.2-12.2-3.6
		l23.4-35.1c5.7,2.1,11.5,3.9,17.5,5.2c6.2,1.4,12.5,2.2,18.8,2.2C740.2,484.1,744.9,483.2,749.3,481.3z"/>
	<path class="st5" d="M690.9,523.4c-10.5,9.3-58.4-10.5-66.6,19.9l-7.5-28.8l-23.2-88.7l-3.2-12.2l-19.3-0.8l-221.6-9.5l-12.6-0.5
		l-6.6-0.3l8.8-4.4l58.4-29c0,0,21-1.5,50.1-5.5l0,0c44-6,106.3-17.8,141.5-38.9c58.4-35.1,80.6,83,80.6,83s8.9,30,15.7,59.5
		c3.2,14,6,28,7,38.6C693.5,514.8,693.2,521.4,690.9,523.4z"/>
	<path class="st1" d="M690.9,523.4c-10.5,9.3-58.4-10.5-66.6,19.9l-7.5-28.8l-23.2-88.7l-3.2-12.2l-19.9-1.2l-214.1-13.2l-13.2-0.8
		l-4.1-0.3l-5.3-0.3l63.7-28.6c0,0,21-1.5,50.1-5.5l0,0c44-6,106.3-17.8,141.5-38.9c58.4-35.1,80.6,83,80.6,83s8.9,30,15.7,59.5
		c3.2,14,6,28,7,38.6C693.5,514.8,693.2,521.4,690.9,523.4z"/>
	<path class="st3" d="M716.5,481.8l-20.5,24l-8.2,9.6c-3.8-2-8-3.2-12.2-3.6l23.3-35.1C704.7,478.8,710.6,480.5,716.5,481.8z"/>
	<path class="st5" d="M715.4,479l-22.9,26.8l-11,12.9v3.5c-13.5,3.1-55.5-5.8-64.8-7.8c-1.2-0.2-1.8-0.4-1.8-0.4
		c-26.9,1.2-126.2-57.3-126.2-57.3s-108.7,18.7-161.3,14c-29.4-2.6-37.6-13.3-39.1-22.1c-0.7-4.4-0.1-8.9,1.7-12.9l46.9-33l6.2-4.4
		l10-7c0,0,17.3-3.9,39.2-8.8l0,0c34.3-7.6,80-17.4,89.3-18.1c15.2-1.2,53.8,11.7,76,37.4c3.8,4,8.1,7.6,12.9,10.5l0.6,0.4
		c6.2,4.1,13.9,8.5,22.5,13c28.3,14.9,66,30.9,91.9,41.4C703.2,474.4,715.4,479,715.4,479z"/>
	<path class="st3" d="M749.3,481.3l-8.2,59.6l-21-2.3c0,0-1.3-1.2-3.4-3.1c4.7,0.1,12.3-1.2,14-10.9c0,0-8.1-28.3,4.7-40.5
		C740.2,484.1,744.9,483.2,749.3,481.3z"/>
	<path class="st0" d="M733,524.6c0,0-11.7-40.9,15.2-45.6l44.4,17.5L844,500c0,0,13.4,21.9-8.1,46.5c-11.9,13.4-28.8,21.5-46.7,22.2
		l-56.2,2.7l-17.5-36.2C715.5,535.1,730.6,538.6,733,524.6z"/>
	<path class="st3" d="M447.6,363.7c-5.8,1.7-30.2,9-55.2,18.9l0,0c-12.3,4.7-24.4,10.3-36,16.6c-2.4,1.4-4.7,2.7-6.9,4.1
		c-6.5,4.1-11.8,8.4-15.1,12.6c-14.4,18.7-35.6,28.7-46.1,32.8c-0.7-4.4-0.1-8.9,1.7-12.9l46.9-33l-6.6-0.3l8.8-4.4l-5.3-0.3
		l63.7-28.6C397.5,369.1,418.6,367.7,447.6,363.7z"/>
	<path class="st3" d="M372.6,219.3l-4.3,13.1l-38.6-39.7c0,0,1.7-3.9,4.2-9.5C338.9,193.6,362.1,211.6,372.6,219.3z"/>
	<path class="st0" d="M233.4,238.8c-1.4-4-2.4-8-3-12.2l-50.3,17.5c0,0-34.5,26.3-31,83.6c0,0,42.7-15.8,61.3,2.9l0.4,3.3
		c4,32.7,18.4,63.2,41.2,86.9c9.3,9.8,18.1,20.8,22.7,31.3c0,0,32.7-9.4,52.6-35.1S442,364.5,442,364.5s-50.3,1.2-57.3-16.4
		s-30.4-54.9-22.3-84.1s12.9-38.6,12.9-38.6s-47.9-33.9-44.4-44.4l-30.4,35l-14,4.7c1.1,2.7,1.7,5.6,1.6,8.5
		C288.9,261,244.1,268.7,233.4,238.8z"/>
	<path class="st2" d="M275.4,478.4c0,0,113.4-46.7,205.7-2.3l-22.2,46.7l-106.4,2.3L275.4,478.4z"/>
	<path class="st3" d="M287.1,208c0.4-4.4,0.9-8.7,1.8-13l-65.4-5.9c0,0,4.5,3.9,6.5,18.5c7.7,4.6,16.6,10.7,26.2,10.7
		C267.3,218.4,278.2,214.7,287.1,208z"/>
	<circle class="st4" cx="256.7" cy="165.2" r="51.4"/>
	<path class="st6" d="M218.4,173.1l7.3-2.2v-12.2l7-21c0,0,35.1-16.4,51.4-12.9c-0.9,4.1-1.7,8.1-2.6,12.2c2.1-0.4,16-3.5,18.4-12.4
		c3.4-12.3-18.3-25.3-20.5-26.7c-19.5-11.7-49.3-13.8-67.8,2.3c-9.4,8.2-24.5,22.2-12.9,60.8l3.5,9.4c3.7-3.4,8.6-4.2,12.1-2.2
		C216.3,169.4,217.7,171.1,218.4,173.1z"/>
	<g class="st7">
		<path d="M309.6,205.6l3.8-1.3l17.7-20.4c-0.3-1-0.4-2-0.1-3L309.6,205.6z"/>
		<path d="M285,243.3c9.3-4.1,16.4-13,16-25.7c0-0.7,0-1.3-0.1-2l-0.4,0.4l-14,4.7c1.1,2.7,1.7,5.6,1.6,8.6
			C288.4,234.1,287.3,239,285,243.3z"/>
		<path d="M421.3,363.5c-29.3,10.2-69,26.2-81,41.9c-0.3,0.4-0.6,0.8-0.9,1.2c32.1-22,102.6-42.1,102.6-42.1
			C435.1,364.5,428.2,364.2,421.3,363.5z"/>
		<path d="M287.7,440.4c-4.7-10.5-13.4-21.6-22.7-31.3c-22.8-23.8-37.2-54.3-41.2-86.9l-0.4-3.3C204.7,300.2,162,316,162,316
			c-2.2-36.3,10.8-60.2,20.7-72.8l-2.6,0.9c0,0-34.5,26.3-31,83.6c0,0,42.6-15.8,61.4,2.9l0.4,3.3c4,32.7,18.4,63.2,41.2,86.9
			c9.3,9.8,18.1,20.8,22.7,31.3c0,0,28.5-8.2,48.4-30.1C312.5,430.1,300.5,436.3,287.7,440.4z"/>
	</g>
	<path class="st4" d="M274.8,303.7c0,0-56.1,80.6-85.3,104s-37.4-10.5-37.4-10.5v-74.8l51.4-5.8l0.6,7.1l0.6,8.1l47.9-51.4
		c0,0,47.9-43.2,57.3-17.5S274.8,303.7,274.8,303.7z"/>
	<path class="st3" d="M204.1,323.6c-7,4.1-14.5,7.4-22.2,9.9c-11.1,3.4-23.7-0.2-29.8-2.3v-8.7l51.4-5.9L204.1,323.6z"/>
	<path class="st0" d="M151.5,314.8l-3.1,12.5c0,0,18.3,8.5,33.5,3.9s26.9-12.9,29.2-14s-9.4-14-9.4-14L151.5,314.8z"/>
	<path class="st3" d="M488.1,457.4c7.8-6,16.5-10.7,25.7-14c8.8-3,17.1-7.4,24.5-12.9"/>
	<path class="st8" d="M844,500l-1.9-0.1c2.8,7,6.8,24.3-9.7,43.1c-11.9,13.4-28.8,21.5-46.8,22.2l-54.4,2.5l1.7,3.6l56.2-2.7
		c17.9-0.7,34.8-8.7,46.7-22.2C857.4,522,844,500,844,500z"/>
	<path class="st9" d="M579,560.2h-0.2c0.2,2.8,0.4,8.5,0.5,14.7C579.3,569.4,579.1,564,579,560.2z"/>
	<path class="st9" d="M645.5,550.1c0.2,0.7,0.3,1.4,0.5,2.1C647.2,551.6,648.9,550.3,645.5,550.1z"/>
	<path class="st8" d="M737.6,577.2c-12,5.4-102.1-10.4-114.3-12.6c-0.2,1.2-0.7,2.3-1.4,3.3c0,0,102.8,18.7,115.7,12.8
		c6.6-3,8.3-6.9,7.4-10.5C744.3,572.6,742.1,575.1,737.6,577.2z"/>
	<path class="st9" d="M578.8,560.2c0-1.2-0.1-1.8-0.1-1.8S572.8,560.6,578.8,560.2z"/>
	<path class="st10" d="M195,142.5l34,1.8c-0.7,4.8-0.6,7.5-1.9,14l-29.5-1.5c-0.4-1.6-0.8-3.2-1.1-4.8l-0.6-2.4l-0.8-5.1L195,142.5z
		"/>
	<path class="st3" d="M289.4,140.6c12.6-7.6,22.9-18.7,29.7-31.8c0.8-1.5,1.5-3.3,1.1-4.9c-0.8-3.2-5-3.7-8-5.1
		c-5.6-2.6-7.9-9-11.6-13.9c-6.4-8.4-16.9-12.4-27.3-10.5c-5.3,1.1-10.3,3.7-15.6,4.5c-11.6,1.7-24.2-5.3-34.6,0
		c-4.8,2.4-8,7-10.8,11.6c-7.1,11.3-16,23.4-9.5,36.7c3.7,7.6,9.6,13.9,17.9,16.1s17.9,0.4,26.4-0.6c7-0.8,14.2-2.3,21.2-1.6
		C276.5,142,281.6,145.3,289.4,140.6z"/>
	<path class="st6" d="M289.4,138.3c12.6-7.6,22.9-18.7,29.7-31.8c0.8-1.5,1.5-3.3,1.1-4.9c-0.8-3.2-5-3.7-8-5.1
		c-5.6-2.6-7.9-9-11.6-13.9c-6.4-8.4-16.9-12.4-27.2-10.5c-5.3,1.1-10.3,3.7-15.6,4.5c-11.6,1.7-24.2-5.3-34.6,0
		c-4.8,2.4-8,7-10.8,11.6c-7.1,11.3-16,23.4-9.5,36.7c3.7,7.6,9.6,13.9,17.9,16.1s17.9,0.4,26.4-0.6c7-0.8,14.2-2.3,21.2-1.6
		C276.5,139.7,281.6,143,289.4,138.3z"/>
	<polygon class="st11" points="1000,273 491.6,363.9 491.6,91.3 1000,0.4 	"/>
	<polygon class="st11" points="894.7,31.9 988.7,15.7 990.1,57.8 893.6,73.9 	"/>
	<g class="st12">
		<path class="st13" d="M711.8,267.1c3.2-0.7,6.5-1,9.7-0.8c19.2,0.3,39.2,2.2,58-3.5c10-3,19-8,29.3-10.1
			c17.5-3.6,35.1,1.7,52.3-2.7c3.5-0.9,7.8-2.2,10.3-0.8c2.9,1.6,0.8,5.6,4.4,6.7c1.1,0.1,2.2,0.4,3.3,0.7c1.3,0.8,0.5,2.3-0.8,3.4
			c-7.8,6.3-23.7,2.1-33.5,7.3c-2.2,1.2-3.8,2.6-5.8,3.9c-3.2,1.7-6.6,2.9-10.2,3.7l-54.4,15.2c-13,3.6-26.2,7.3-39.7,8.9
			s-27.4,1-37.3-3.6c-2.1-1-4.1-2.2-4.9-3.8C688.7,283.7,698.3,270.7,711.8,267.1z"/>
		<polygon class="st14" points="663.8,159.4 709.3,195.4 754.8,231.4 680.1,245.5 605.4,259.6 634.6,209.5 		"/>
		<polygon class="st14" points="711.1,151.1 756.6,187.1 802.1,223 727.4,237.2 652.7,251.3 681.9,201.2 		"/>
		<polygon class="st2" points="781.5,76.3 693.7,243.5 860.2,211.1 921.8,199.5 		"/>
		<polygon class="st3" points="921.8,199.5 860.2,211.1 781.5,76.3 		"/>
		
			<linearGradient id="SVGID_1_" gradientUnits="userSpaceOnUse" x1="815.1097" y1="1027.4529" x2="815.1097" y2="894.2227" gradientTransform="matrix(0.98 -0.19 0.19 0.98 -213.3 -577.97)">
			<stop  offset="0" style="stop-color:#808080;stop-opacity:0.25"/>
			<stop  offset="0.54" style="stop-color:#808080;stop-opacity:0.12"/>
			<stop  offset="1" style="stop-color:#808080;stop-opacity:0.1"/>
		</linearGradient>
		<path class="st15" d="M827.8,153.8c-0.6-2.3-2.8-3.7-5.1-3.5c0,0,1.2-9.2-17.8-5.5c-1.2-2.4-4.1-3.4-6.5-2.2
			c-0.4,0.2-0.7,0.4-1,0.7l-0.8-4.3c0,0-10.4,5.9,0.6,14.4l1.3,7c0,0.2,0.1,0.4,0.2,0.5c0.1,0.1,0.1,0.3,0.1,0.4
			c0.5,2,4.2,18.3-4.2,23.8c-9,6-14.1-12.5-14.1-12.5c-5.8-24.2-17-24.1-19.6-23.8c-0.3,0-0.6,0.1-1,0.1c-1.2,0.1-5.1,1.4-6.6,15.4
			c-1.8,16.8-8.2,12.6-8.2,12.6c-14.4-7.8-24.5-1-24.5-1c-25,14.7-3.7,42.2,0.6,47.4c-1.7,8.3-5,23-8.2,23.6
			c-4.5,0.9-13,16.8,10,41.5l6.1-1.2c0,0-18.9-24.7-4-37c-0.3,0.9-0.7,1.8-1.2,2.6c-8.3,14.3,20,31.4,20,31.4l6.8-1.3L735,263.1
			c-6.3-8.2,5.4-14.9,5.4-14.9c13.8-11.5,6.7-25.4,6.7-25.4l32.1-6c-4,8.8-9.8,30.4,9.6,58.8l4.5-0.9l-3.7-34.5c0,0,1.2-7.4,9-18.6
			c3.1,14,9.8,38.2,19.8,48.4l6.6-1.2c0,0-8-23-8.2-31.6c-0.1-3.5-0.2-6.9-0.5-10.4l-1.6-18.1c5.4-3.4,8.2-9.9,6.9-16.2l-6-31.4
			c-0.4-1.8,0.8-3.5,2.6-3.9l0,0h0.2l7.8-1.1C827.3,155.9,828,154.9,827.8,153.8L827.8,153.8C827.9,154.1,827.8,153.9,827.8,153.8z"
			/>
		<path class="st16" d="M796.2,211.5c0,0,7.3,43.3,21.5,57.7l6.5-1.2c0,0-7.8-22.5-8.1-30.9c-0.1-3.4-0.2-6.8-0.5-10.2l-2.6-29.2
			L796.2,211.5z"/>
		<path class="st1" d="M796.2,211.5c0,0,7.3,43.3,21.5,57.7l6.5-1.2c0,0-7.8-22.5-8.1-30.9c-0.1-3.4-0.2-6.8-0.5-10.2l-2.6-29.2
			L796.2,211.5z"/>
		<path class="st16" d="M723.2,217.7c0,0-4.7,27.8-9.1,28.7s-12.8,16.5,9.8,40.8l6-1.2c0,0-20.8-27.2-1-38.3
			C728.9,247.7,732.3,224.5,723.2,217.7z"/>
		<path class="st1" d="M723.2,217.7c0,0-4.7,27.8-9.1,28.7s-12.8,16.5,9.8,40.8l6-1.2c0,0-20.8-27.2-1-38.3
			C728.9,247.7,732.3,224.5,723.2,217.7z"/>
		<path class="st16" d="M798,161.5l-1.3-6.9c-10.8-8.3-0.6-14.2-0.6-14.2l1.4,7.3c25.6-7.4,24.2,3.7,24.2,3.7c2.3-0.2,4.4,1.2,5,3.4
			c0.4,1-0.2,2.1-1.1,2.4l0,0c-0.1,0-0.2,0.1-0.4,0.1l-7.6,1c-1.8,0.2-3,1.9-2.8,3.6l0,0c0,0.1,0,0.1,0,0.2l5.9,30.8
			c0.9,4.5-0.3,9.1-3.1,12.6c-2.2,2.7-5.7,5.1-11.3,6l-58.7,11.1c0,0,7,13.7-6.6,25c0,0-11.4,6.5-5.3,14.6l15.4,19.4l-6.7,1.3
			c0,0-27.8-16.9-19.7-30.8c4.5-9.1,3.8-19.8-1.9-28.2c0,0-28.5-31.5-1.4-47.4c0,0,10-6.7,24.1,1c0,0,6.3,4.1,8-12.3
			c1.4-13.7,5.2-15.1,6.4-15.1c0.3,0,0.6,0,0.9-0.1c2.6-0.4,13.5-0.5,19.3,23.3c0,0,5,18.2,13.8,12.4c8.2-5.4,4.7-21.4,4.1-23.4
			c0-0.1-0.1-0.3-0.1-0.4l0,0C798,161.8,798,161.7,798,161.5z"/>
		<path class="st16" d="M781.5,212.7c0,0-18.1,25.1,7.1,61.9l4.5-0.8l-3.6-33.9c0,0,2.2-14.2,21.7-32.9L781.5,212.7z"/>
		<circle class="st16" cx="800" cy="148.3" r="4.8"/>
		
			<linearGradient id="SVGID_2_" gradientUnits="userSpaceOnUse" x1="802.461" y1="963.353" x2="802.461" y2="856.463" gradientTransform="matrix(0.98 -0.19 0.19 0.98 -213.3 -577.97)">
			<stop  offset="0" style="stop-color:#808080;stop-opacity:0.25"/>
			<stop  offset="0.54" style="stop-color:#808080;stop-opacity:0.12"/>
			<stop  offset="1" style="stop-color:#808080;stop-opacity:0.1"/>
		</linearGradient>
		<path class="st17" d="M780,179.5c5.5-8.4,2.2-8.9,0.1-11.1c-1.5-1.5-13.6-2.1-21.2-2.3c-0.2-0.6-0.4-1.6-0.7-2.8
			c0,0-0.6-2.2-0.9-3.7h0.5l-0.1-0.4l9.3-0.5c8-0.3,8.4-3.5,8.4-3.5c0.2-5.5-8.8-0.2-8.8-0.2c-1.8,0.9-6.5,0.2-10.2-0.5
			c-0.1-0.8-0.2-1.6-0.2-2.3c0-1.2,0-2.4-0.2-3.6c-0.1-1-0.5-2-1.2-2.8c-2.7-3.3-5.9-6.2-9.4-8.6c-0.2-2.1,0-4.1,0.6-6.1
			c2.9-1.5,4.5-4.7,3.9-7.9c-0.1-0.7-0.4-1.4-0.7-2c1.7-2.2,0.9-6-1.4-8.1c-0.3-0.2-0.5-0.4-0.8-0.6c-1.5-1-3.3-1.4-5.1-1.2
			c-2,0.3-3.9,1.1-5.5,2.3c-2,1.3-3.9,3-6.3,3.2c-1.7,0.2-3.5-0.4-5.1,0.1c-2.1,0.7-3.2,2.9-3.9,5s-1.3,4.3-3.2,5.6
			c-1.6,1.1-3.7,1.1-5.5,1.5c-2.7,0.6-4.9,2.4-5.9,4.9c-0.8,2.3,0.1,4.8,2.1,6.2c0.3,0.2,0.6,0.4,1,0.6c0.4,0.1,0.8,0.3,1.2,0.4
			c0.2,0.2,0.3,0.4,0.4,0.6c0,0.3-0.1,0.6-0.2,0.9c-0.4,1.3-0.3,2.7,0.3,3.9c0.2,0.4,0.6,0.8,1,1.1c0.1,0.1,0.3,0.2,0.4,0.3
			c1.4,0.6,3.1-0.8,4.4-0.1h0.1c0.5,0.6,1,1.2,1.4,1.9c0.3,0.4,0.7,0.7,1.2,1c1.2,0.8,2.6,1.1,4,0.9c1.8-0.3,3.5-1,5-2
			c2.1-1.2,4.3-2.8,4.5-5.1c0.1-1.4-0.6-2.8-0.5-4.2c0.1-0.7,0.4-1.3,0.8-1.8c-0.2,1.2-0.3,2.4-0.2,3.6c0,1,0.2,2,0.3,2.9
			c0.4,2.5,1.3,4.9,2.7,7.1c1.8,2.8,3.1,5.9,3.8,9.2c0.3,1.4,0.3,2.9,0.1,4.4c-0.8,4.2-0.7,6-0.5,6.7c0.1,1,0.5,1,0.5,1h0.1
			c0.1,1.4,0.7,2.8,1.8,3.7c10.6,4.4,32.1-1.8,32.1-1.8c-4.3,1.5-7.5,13.4-7.5,13.4c-0.5,2.6-1.5,5-3.2,7.1l0,0
			c-2.3-0.4-5.1,2.3-7.2,3.8l-0.2,0.1c-0.8,0.5-1,1.6-0.4,2.4l0,0c0,0.1,0.1,0.1,0.1,0.2l8.3,9.1c4.8,3.4,7.5,3.6,8.3,2.6
			c0.5-0.6,0.2-1.8-1-2.8c-2.8-2.6-2.4-11.2-2.3-11.9C772.3,192.3,776,185.8,780,179.5z"/>
		<path class="st18" d="M746.5,129.8c0,0-2.4,5.5-0.8,10.3l-9-4.8c0,0,2.9-0.8,2.3-7.6L746.5,129.8z"/>
		<path class="st19" d="M752.5,166.4c0,0,23.8,0.3,25.8,2.5s5.1,2.7,0,10.8s-10.8,19.8-10.8,19.8l-6-2.8c2.2-2.3,3.6-5.2,4.2-8.4
			c0,0,2.9-11.6,7-13.1c0,0-20.3,5.9-30.4,1.6c0,0-2.7-2-1.4-6.4S752.5,166.4,752.5,166.4z"/>
		<path class="st3" d="M739.3,135.5c0,0-5.9-1.5-5.5,7.6c0.2,3.3,1.1,6.5,2.8,9.4c1.9,3.3,4.7,9,3.9,13.7c-1.2,7.1,0,7.1,0,7.1
			l3-1.9c4.1-2.5,8.8-3.8,13.6-3.9h1.4c0,0-2.8-10.2-2.9-14.8c0-2.1,0-4.1-1.3-5.8C750.3,141.8,742.2,135.5,739.3,135.5z"/>
		<path class="st20" d="M739.3,135.1c0,0-5.9-1.5-5.5,7.6c0.2,3.3,1.1,6.5,2.8,9.3c1.9,3.3,4.7,9,3.9,13.7c-1.2,7.1,0,7.1,0,7.1
			l3-1.9c4.1-2.5,8.8-3.8,13.6-3.9h1.4c0,0-2.8-10.2-2.9-14.8c0-2.1,0-4.1-1.3-5.8C750.2,141.4,742.1,135.1,739.3,135.1z"/>
		<path class="st3" d="M737.1,142.4c0.8-2.2,3.3-3.4,5.5-2.6c0.6,0.2,1.1,0.6,1.5,1c0.9,1,1.6,2.1,2.2,3.3c2.8,6.4,5,10.4,5,10.4
			c1.8,0.3,3.6,0.7,5.3,1.2c0.3,2.2,0.6,4.4,0.6,4.4l-7.6,0.4l-10.4-12.3C739.2,148.3,736,145.6,737.1,142.4z"/>
		<path class="st18" d="M737,142c0.8-2.2,3.3-3.4,5.5-2.5c0.6,0.2,1.1,0.5,1.5,0.9c0.9,1,1.6,2.1,2.2,3.3c2.8,6.4,5,10.4,5,10.4
			s11.4,3.1,14.4,1.7c0,0,8.5-5.1,8.3,0.3c0,0-0.3,3.1-7.9,3.3l-16.4,0.8l-10.4-12.3C739.1,147.8,735.9,145.1,737,142z"/>
		<path class="st3" d="M738.3,130.8c0.2-1.1,0.7-0.6,0.6-2.5l7.5,2c-0.3,0.8-0.6,1.5-0.8,2.3c-0.8,0.3-1.5,0.4-2.3,0.4
			C741.7,133.4,739.7,131.6,738.3,130.8z"/>
		<circle class="st18" cx="742.3" cy="125.8" r="7.3"/>
		<path class="st3" d="M745.3,124.1c-1.3,0.1-2.7-0.3-3.8,0.3s-1.4,2.5-1.2,4c0.2,1.5,0.8,2.9,0.5,4.4c-0.5,1.9-2.3,3-4,4
			s-3.5,2.3-3.7,4.2c-0.2,1.4,0.5,2.7,0.5,4.1c-0.1,2.3-2.3,3.8-4.2,5c-1.4,0.9-3,1.6-4.7,1.9c-1.7,0.3-3.5-0.3-4.6-1.7
			c-0.5-0.7-0.8-1.7-1.7-2.1c-1.3-0.6-2.9,0.7-4.2,0.1c-0.4-0.2-0.8-0.6-1-1.1c-0.6-1.2-0.8-2.6-0.3-3.8c0.1-0.3,0.2-0.6,0.2-0.9
			c-0.1-0.7-1-1-1.7-1.3c-2.4-1.1-3.6-3.9-2.7-6.4c0.9-2.4,3-4.2,5.5-4.8c1.8-0.4,3.7-0.4,5.2-1.4c1.7-1.2,2.3-3.4,3-5.4
			s1.6-4.2,3.6-4.8c1.5-0.5,3.2,0.1,4.8-0.1c2.2-0.2,4-1.8,5.8-3.1c1.5-1.1,3.3-1.9,5.2-2.2c1.9-0.3,3.9,0.3,5.3,1.5
			C750.5,117.4,750.7,123.8,745.3,124.1z"/>
		<path class="st21" d="M745,123.9c-1.3,0.1-2.7-0.3-3.8,0.3s-1.4,2.5-1.2,4c0.2,1.5,0.8,2.9,0.5,4.4c-0.5,1.9-2.3,3-4,4
			s-3.5,2.3-3.7,4.2c-0.2,1.4,0.5,2.7,0.5,4.1c-0.1,2.3-2.3,3.8-4.2,4.9c-1.4,0.9-3,1.6-4.7,1.9c-1.7,0.3-3.5-0.3-4.6-1.7
			c-0.5-0.7-0.8-1.7-1.7-2.1c-1.3-0.6-2.9,0.7-4.2,0.1c-0.4-0.2-0.8-0.6-1-1.1c-0.6-1.2-0.7-2.6-0.3-3.8c0.1-0.3,0.2-0.6,0.2-0.9
			c-0.1-0.7-1-1-1.7-1.3c-2.4-1.1-3.6-3.9-2.7-6.4c0.9-2.4,3-4.2,5.6-4.7c1.8-0.4,3.7-0.4,5.2-1.4c1.7-1.2,2.3-3.4,3-5.4
			s1.6-4.2,3.6-4.8c1.5-0.5,3.2,0.1,4.8-0.1c2.2-0.2,4-1.8,5.8-3.1c1.5-1.1,3.3-1.9,5.2-2.2c1.9-0.3,3.9,0.3,5.3,1.5
			C750.3,117.3,750.5,123.6,745,123.9z"/>
		<path class="st3" d="M747.2,142.2c0,0-9.3,0.6-8.5,7.1s-3.3-7.4-3.3-7.4l3.6-3.9l5.2,0.6L747.2,142.2z"/>
		<path class="st20" d="M746.9,142.1c0,0-9.3,0.6-8.6,7.1s-3.2-7.4-3.2-7.4l3.6-3.9l5.2,0.6L746.9,142.1z"/>
		<path class="st20" d="M755.5,201.6l7.9,8.9c4.5,3.3,7.1,3.5,7.8,2.6c0.5-0.6,0.1-1.7-1-2.8c-2.8-2.7-2.3-11.7-2.3-11.7
			c-2.3,0.1-4.4-1.3-5.3-3.4c-2.2-0.4-4.8,2.2-6.8,3.7l-0.2,0.1c-0.8,0.6-0.9,1.6-0.4,2.4L755.5,201.6z"/>
		<path class="st3" d="M768,198.6c0,0-4.5,0.6-5.3-3.4C763.7,197.3,765.7,198.7,768,198.6z"/>
		<path class="st3" d="M755.5,201.6l7.9,8.9c4.5,3.3,7.1,3.5,7.8,2.6c-2.3-0.7-8.7-3.5-15.3-14.2l-0.2,0.1c-0.8,0.6-0.9,1.6-0.4,2.4
			l0,0C755.5,201.5,755.5,201.5,755.5,201.6z"/>
		<path class="st2" d="M626.6,271.2c0,0-20.8,18.6,26.7,32.2c0,0,6.2-19.5-7.1-32c-5.3-5-13.6-5.3-19.2-0.6L626.6,271.2z"/>
		<path class="st22" d="M626.8,270.8c0,0,23.1,11.6,26.5,32.6"/>
		<path class="st23" d="M651.9,303.6c0,0-12.1-23.6-6.8-43.7c2.3-8.4,1.8-17.4-1.5-25.4c-1.6-3.8-3.5-7.5-5.7-11"/>
		<path class="st2" d="M641.1,210.9c0.6,3.1-3.3,13-3.3,13s-7.2-7.9-7.8-10.9c-0.7-3.1,1.3-6.1,4.3-6.7c3.1-0.7,6.1,1.3,6.7,4.3
			C641.1,210.7,641.1,210.8,641.1,210.9L641.1,210.9z"/>
		<path class="st2" d="M653.5,226.1c-1.2,2.9-9.8,9.1-9.8,9.1s-1.8-10.5-0.6-13.4s4.6-4.2,7.5-3
			C653.3,220.1,654.7,223.3,653.5,226.1L653.5,226.1z"/>
		<path class="st2" d="M658.6,255.2c-2.5,1.9-13.1,2.9-13.1,2.9s3.8-10,6.2-11.9c2.5-1.9,6-1.4,7.9,1.1S661.1,253.4,658.6,255.2
			L658.6,255.2z"/>
		<path class="st2" d="M657.5,278.1c-2.1,2.3-12.4,5.1-12.4,5.1s2-10.5,4.1-12.8c2-2.4,5.6-2.6,8-0.6s2.6,5.6,0.6,8
			C657.7,277.9,657.6,278,657.5,278.1L657.5,278.1z"/>
		<path class="st2" d="M632.1,238.1c2.6,1.7,13.3,2,13.3,2s-4.4-9.7-7-11.4s-6.1-1-7.8,1.6C628.9,232.8,629.6,236.3,632.1,238.1
			L632.1,238.1L632.1,238.1z"/>
		<path class="st2" d="M631.2,264.9c3,0.9,13.3-2.1,13.3-2.1s-7.1-7.9-10.1-8.8c-3-0.9-6.1,0.9-7,3.9
			C626.5,260.8,628.2,264,631.2,264.9L631.2,264.9L631.2,264.9z"/>
		<path class="st2" d="M633.8,291c2.8,1.4,13.4,0.2,13.4,0.2s-5.7-9-8.5-10.4c-2.8-1.3-6.2-0.1-7.5,2.8
			C630,286.4,631.1,289.6,633.8,291z"/>
		<path class="st24" d="M641.1,210.9c0.6,3.1-3.3,13-3.3,13s-7.2-7.9-7.8-10.9c-0.7-3.1,1.3-6.1,4.3-6.7c3.1-0.7,6.1,1.3,6.7,4.3
			C641.1,210.7,641.1,210.8,641.1,210.9L641.1,210.9z"/>
		<path class="st24" d="M653.5,226.1c-1.2,2.9-9.8,9.1-9.8,9.1s-1.8-10.5-0.6-13.4s4.6-4.2,7.5-3
			C653.3,220.1,654.7,223.3,653.5,226.1L653.5,226.1z"/>
		<path class="st24" d="M658.6,255.2c-2.5,1.9-13.1,2.9-13.1,2.9s3.8-10,6.2-11.9c2.5-1.9,6-1.4,7.9,1.1S661.1,253.4,658.6,255.2
			L658.6,255.2z"/>
		<path class="st24" d="M657.5,278.1c-2.1,2.3-12.4,5.1-12.4,5.1s2-10.5,4.1-12.8c2-2.4,5.6-2.6,8-0.6s2.6,5.6,0.6,8
			C657.7,277.9,657.6,278,657.5,278.1L657.5,278.1z"/>
		<path class="st24" d="M632.1,238.1c2.6,1.7,13.3,2,13.3,2s-4.4-9.7-7-11.4s-6.1-1-7.8,1.6C628.9,232.8,629.6,236.3,632.1,238.1
			L632.1,238.1L632.1,238.1z"/>
		<path class="st24" d="M631.2,264.9c3,0.9,13.3-2.1,13.3-2.1s-7.1-7.9-10.1-8.8c-3-0.9-6.1,0.9-7,3.9
			C626.5,260.8,628.2,264,631.2,264.9L631.2,264.9L631.2,264.9z"/>
		<path class="st24" d="M633.8,291c2.8,1.4,13.4,0.2,13.4,0.2s-5.7-9-8.5-10.4c-2.8-1.3-6.2-0.1-7.5,2.8
			C630,286.4,631.1,289.6,633.8,291z"/>
		<path class="st23" d="M674.7,308.1c0,0-12.1-23.6-6.8-43.7c2.3-8.4,1.8-17.3-1.5-25.4c-1.6-3.8-3.5-7.5-5.7-11"/>
		<path class="st2" d="M664,215.3c0.6,3.1-3.3,13-3.3,13s-7.2-7.8-7.8-10.9c-0.6-3.1,1.4-6,4.5-6.6S663.4,212.3,664,215.3L664,215.3
			L664,215.3z"/>
		<path class="st2" d="M676.3,230.6c-1.2,2.9-9.8,9.1-9.8,9.1s-1.8-10.5-0.6-13.4s4.6-4.2,7.5-3
			C676.1,224.6,677.5,227.7,676.3,230.6L676.3,230.6z"/>
		<path class="st2" d="M681.4,259.7c-2.5,1.9-13.1,2.9-13.1,2.9s3.8-10,6.2-11.9c2.5-1.9,6-1.4,7.9,1.1S683.9,257.8,681.4,259.7
			L681.4,259.7L681.4,259.7z"/>
		<path class="st2" d="M680.3,282.6c-2.1,2.3-12.4,5.1-12.4,5.1s2-10.5,4.1-12.8s5.7-2.4,8-0.3S682.4,280.3,680.3,282.6L680.3,282.6
			L680.3,282.6z"/>
		<path class="st2" d="M655,242.5c2.6,1.7,13.3,2,13.3,2s-4.4-9.7-7-11.4s-6.1-1-7.8,1.6C651.7,237.3,652.4,240.8,655,242.5
			L655,242.5z"/>
		<path class="st2" d="M654,269.3c3,0.9,13.3-2.1,13.3-2.1s-7.1-7.9-10.1-8.8s-6.1,0.8-7,3.8s0.8,6.1,3.8,7
			C653.9,269.3,654,269.3,654,269.3L654,269.3L654,269.3z"/>
		<path class="st2" d="M656.7,295.5c2.8,1.4,13.4,0.2,13.4,0.2s-5.7-9-8.5-10.4s-6.2-0.2-7.5,2.6S653.8,294.1,656.7,295.5
			L656.7,295.5L656.7,295.5z"/>
		<path class="st13" d="M723,92.1l-2.1,0.4c0.8-0.2,1.3-0.9,1.2-1.7l0,0c-0.1-0.8-0.9-1.3-1.7-1.2l0,0l0,0l-16.7,3.1
			c-0.8,0.2-1.3,0.9-1.2,1.7c0.2,0.8,0.9,1.3,1.7,1.2l0,0l0,0l2-0.4c-0.8,0.2-1.3,0.9-1.2,1.7c0.2,0.8,0.9,1.3,1.7,1.2l0,0l-2.9,0.6
			c-0.8,0.1-1.4,0.8-1.3,1.6c0.1,0.8,0.8,1.4,1.6,1.3c0.1,0,0.1,0,0.2,0l0,0l16.7-3.2c0.8-0.2,1.3-0.9,1.2-1.7
			c-0.2-0.8-0.9-1.3-1.7-1.2l2.9-0.6c0.8-0.2,1.2-1,1-1.8C724.4,92.5,723.7,92,723,92.1L723,92.1z"/>
		<path class="st13" d="M692.8,120.7l-2,0.4c0.8-0.2,1.2-1,1-1.8c-0.2-0.7-0.9-1.2-1.6-1.1l-16.7,3.2c-0.8,0.1-1.3,0.9-1.2,1.7l0,0
			c0.2,0.8,0.9,1.3,1.7,1.2l2-0.4c-0.8,0.2-1.3,0.9-1.2,1.7c0.2,0.8,0.9,1.3,1.7,1.2l0,0l-2.9,0.6c-0.8,0.1-1.4,0.8-1.3,1.6
			c0.1,0.8,0.8,1.4,1.6,1.3c0.1,0,0.1,0,0.2,0L691,127c0.8-0.2,1.3-0.9,1.2-1.7c-0.2-0.8-0.9-1.3-1.7-1.2l0,0l2.9-0.6
			c0.8-0.1,1.4-0.8,1.3-1.6c-0.1-0.8-0.8-1.4-1.6-1.3C692.9,120.7,692.8,120.7,692.8,120.7L692.8,120.7L692.8,120.7z"/>
		<path class="st13" d="M863.2,84.2l-2.1,0.4c0.8-0.1,1.3-0.9,1.2-1.7c-0.1-0.8-0.9-1.3-1.7-1.2l0,0l-16.7,3.2
			c-0.8,0.2-1.3,0.9-1.2,1.7c0.2,0.8,0.9,1.3,1.7,1.2l0,0l2.1-0.4c-0.8,0.2-1.3,0.9-1.2,1.7c0.2,0.8,0.9,1.3,1.7,1.2l0,0l-2.9,0.5
			c-0.8,0.1-1.4,0.8-1.3,1.6c0.1,0.8,0.8,1.4,1.6,1.3c0.1,0,0.2,0,0.2,0l16.7-3.2c0.8-0.2,1.3-0.9,1.2-1.7c-0.2-0.8-0.9-1.3-1.7-1.2
			l2.9-0.6c0.8-0.2,1.2-1,1-1.8C864.5,84.5,863.9,84.1,863.2,84.2L863.2,84.2z"/>
		<circle class="st14" cx="640.7" cy="120.6" r="15.5"/>
		<path class="st1" d="M733.3,200.8c0,0,7.8,6.9,11.4,13s2.5,8.2,2.5,8.2"/>
	</g>
</g>
<g id="Layer_2">
	<g>
		<g>
			<path class="st25" d="M309.71,131.32c-0.15-0.03-0.3-0.06-0.46-0.09c0,0-0.01,0-0.01,0c0,0,0,0,0,0c0,0,0.01,0,0.01,0l0,0
				l-0.01,0c-10.19-12.97-30.17-20.36-51.05-18.85c-20.83,1.51-39.09,11.64-46.67,25.85l-0.01,0c-0.21,0.08-0.41,0.15-0.62,0.23
				c-2.02,0.76-3.25,2.57-3.06,4.5l0.44,4.57c0,0,0,0,0,0.01l0.55,5.7c0.03,0.28,0.09,0.56,0.18,0.83l-0.2,0.01
				c0.06,0.58,1.62,14.21,7.88,21.36c4.62,5.26,11.07,10.68,29.23,9.37c1.13-0.08,2.3-0.19,3.52-0.32c5.35-0.6,6.9-3.31,8.26-5.7
				c1.26-2.23,2.36-4.15,6.37-4.7c4.06-0.03,5.51,1.7,7.19,3.72c1.8,2.16,3.85,4.62,9.24,4.44c1.23-0.05,2.41-0.1,3.54-0.19
				c18.16-1.32,23.48-7.59,27.02-13.44c4.66-7.72,3.77-20.83,3.67-22.11c0.04-0.29,0.05-0.59,0.02-0.88l-0.56-5.75c0,0,0,0,0-0.01
				l-0.44-4.51C313.55,133.35,311.93,131.74,309.71,131.32z"/>
		</g>
		<path class="st26" d="M313.75,135.49l0.99,10.27c0.13,1.32-0.41,2.61-1.48,3.55c-0.86,0.76-1.99,1.21-3.19,1.3
			c-0.28,0.02-0.56,0.02-0.84,0c-43.6-3.15-80.28,3.68-94.02,6.76c-1.47,0.33-3.02,0.08-4.25-0.69c-1.23-0.77-2.01-1.97-2.14-3.29
			l-1-10.27c-0.19-1.93,1.04-3.74,3.07-4.5c42.53-16.01,86.4-9.52,98.83-7.14C311.95,131.9,313.56,133.51,313.75,135.49z"/>
		<path class="st26" d="M279,150.13c-0.7,0.01-1.39,0.03-2.09,0.05l-0.22,0.01l0.61,6.26c0.17,1.81-1.36,3.4-3.42,3.55l-22.01,1.59
			c-2.06,0.15-3.88-1.2-4.06-3l-0.61-6.32l-0.22,0.02c-0.7,0.08-1.39,0.16-2.07,0.24l-0.2,0.02l0.6,6.22
			c0.29,3.01,3.32,5.26,6.76,5.01l22.01-1.59c3.44-0.25,5.99-2.9,5.7-5.91l-0.59-6.14L279,150.13z"/>
		
			<ellipse transform="matrix(8.245373e-03 -1 1 8.245373e-03 115.1784 404.1094)" class="st10" cx="261.32" cy="143.99" rx="2.74" ry="3.13"/>
		<path class="st10" d="M230.62,147.1l-12.09,1.63c-2.56,0.34-4.95-1.19-5.35-3.43l0,0c-0.4-2.24,1.35-4.34,3.91-4.68l12.09-1.63
			c2.56-0.34,4.95,1.19,5.35,3.43v0C234.93,144.66,233.18,146.76,230.62,147.1z"/>
		<path class="st10" d="M289.14,142.86l12.23-0.14c2.59-0.03,4.65-1.89,4.62-4.16l0,0c-0.04-2.27-2.17-4.08-4.76-4.05L289,134.65
			c-2.59,0.03-4.65,1.89-4.62,4.16l0,0C284.42,141.07,286.55,142.89,289.14,142.86z"/>
		<g>
			<g>
				<path class="st10" d="M310.29,131.58c-10.6-13.11-30.97-20.56-52.27-19.01c-21.23,1.54-39.86,11.77-47.82,26.16
					C252.63,123.25,295.99,128.99,310.29,131.58z"/>
			</g>
		</g>
	</g>
	
		<radialGradient id="SVGID_3_" cx="238.7991" cy="174.2538" r="8.3548" gradientTransform="matrix(1.6307 -0.2551 0.8413 2.8018 -301.4063 -257.1849)" gradientUnits="userSpaceOnUse">
		<stop  offset="0" style="stop-color:#FFFFFF"/>
		<stop  offset="1" style="stop-color:#535151;stop-opacity:0.05"/>
	</radialGradient>
	<path class="st27" d="M248.22,168c3.88,12.93,0.93,24.36-6.59,25.54c-7.52,1.18-16.77-8.35-20.65-21.28
		c-3.88-12.93-0.93-24.36,6.59-25.54C235.09,145.55,244.34,155.07,248.22,168z"/>
</g>
</svg>
