<?xml version="1.0" encoding="utf-8"?>
<!-- Generator: Adobe Illustrator 24.1.3, SVG Export Plug-In . SVG Version: 6.00 Build 0)  -->
<svg version="1.1" id="_x35_5370fff-d7e2-4a7c-8080-55f1e259b78c"
	 xmlns="http://www.w3.org/2000/svg" xmlns:xlink="http://www.w3.org/1999/xlink" x="0px" y="0px" viewBox="0 0 1040.3 804.5"
	 style="enable-background:new 0 0 1040.3 804.5;" xml:space="preserve">
<style type="text/css">
	.st0{fill:#33DED2;}
	.st1{opacity:0.1;enable-background:new    ;}
	.st2{fill:url(#SVGID_1_);}
	.st3{fill:#D1D8DB;}
	.st4{fill:none;stroke:#5C39BC;stroke-width:2;stroke-miterlimit:10;}
	.st5{opacity:0.2;enable-background:new    ;}
	.st6{fill:none;stroke:#5C39BC;stroke-miterlimit:10;}
	.st7{opacity:0.2;fill:#F5F5F5;enable-background:new    ;}
	.st8{fill:#94A4AD;}
	.st9{fill:url(#SVGID_2_);}
	.st10{fill:#CE967A;}
	.st11{fill:#1B2238;}
	.st12{fill:#5C39BC;}
	.st13{fill:url(#SVGID_3_);}
	.st14{opacity:0.5;fill:#FFFFFF;enable-background:new    ;}
	.st15{fill:#67647E;}
	.st16{fill:#FFDABB;}
	.st17{fill:#2A314C;}
</style>
<path class="st0" d="M169.2,563.5h85.3c4.9,0,8.8,4,8.8,8.8v23.3c0,4.9-4,8.8-8.8,8.8h-85.3c-4.9,0-8.8-4-8.8-8.8v-23.3
	C160.3,567.5,164.3,563.5,169.2,563.5z"/>
<path class="st0" d="M272.2,563.5h85.3c4.9,0,8.8,4,8.8,8.8v23.3c0,4.9-4,8.8-8.8,8.8h-85.3c-4.9,0-8.8-4-8.8-8.8v-23.3
	C263.3,567.5,267.3,563.5,272.2,563.5z"/>
<path class="st1" d="M272.2,563.5h85.3c4.9,0,8.8,4,8.8,8.8v23.3c0,4.9-4,8.8-8.8,8.8h-85.3c-4.9,0-8.8-4-8.8-8.8v-23.3
	C263.3,567.5,267.3,563.5,272.2,563.5z"/>
<path class="st0" d="M375.2,563.5h85.3c4.9,0,8.8,4,8.8,8.8v23.3c0,4.9-4,8.8-8.8,8.8h-85.3c-4.9,0-8.8-4-8.8-8.8v-23.3
	C366.3,567.5,370.3,563.5,375.2,563.5z"/>
<path class="st0" d="M478.2,563.5h85.3c4.9,0,8.8,4,8.8,8.8v23.3c0,4.9-4,8.8-8.8,8.8h-85.3c-4.9,0-8.8-4-8.8-8.8v-23.3
	C469.3,567.5,473.3,563.5,478.2,563.5z"/>
<path class="st1" d="M478.2,563.5h85.3c4.9,0,8.8,4,8.8,8.8v23.3c0,4.9-4,8.8-8.8,8.8h-85.3c-4.9,0-8.8-4-8.8-8.8v-23.3
	C469.3,567.5,473.3,563.5,478.2,563.5z"/>
<path class="st0" d="M581.2,563.5h85.3c4.9,0,8.8,4,8.8,8.8v23.3c0,4.9-4,8.8-8.8,8.8h-85.3c-4.9,0-8.8-4-8.8-8.8v-23.3
	C572.3,567.5,576.3,563.5,581.2,563.5z"/>
<path class="st0" d="M684.2,563.5h85.3c4.9,0,8.8,4,8.8,8.8v23.3c0,4.9-4,8.8-8.8,8.8h-85.3c-4.9,0-8.8-4-8.8-8.8v-23.3
	C675.3,567.5,679.3,563.5,684.2,563.5z"/>
<path class="st1" d="M684.2,563.5h85.3c4.9,0,8.8,4,8.8,8.8v23.3c0,4.9-4,8.8-8.8,8.8h-85.3c-4.9,0-8.8-4-8.8-8.8v-23.3
	C675.3,567.5,679.3,563.5,684.2,563.5z"/>
<path class="st0" d="M769.5,563.5h-85.3c-4.9,0-8.8-4-8.8-8.8v-23.3c0-4.9,4-8.8,8.8-8.8h85.3c4.9,0,8.8,4,8.8,8.8v23.3
	C778.3,559.5,774.4,563.5,769.5,563.5z"/>
<path class="st0" d="M666.5,563.5h-85.3c-4.9,0-8.8-4-8.8-8.8v-23.3c0-4.9,4-8.8,8.8-8.8h85.3c4.9,0,8.8,4,8.8,8.8v23.3
	C675.3,559.5,671.4,563.5,666.5,563.5z"/>
<path class="st1" d="M666.5,563.5h-85.3c-4.9,0-8.8-4-8.8-8.8v-23.3c0-4.9,4-8.8,8.8-8.8h85.3c4.9,0,8.8,4,8.8,8.8v23.3
	C675.3,559.5,671.4,563.5,666.5,563.5z"/>
<path class="st0" d="M563.5,563.5h-85.3c-4.9,0-8.8-4-8.8-8.8v-23.3c0-4.9,4-8.8,8.8-8.8h85.3c4.9,0,8.8,4,8.8,8.8v23.3
	C572.3,559.5,568.4,563.5,563.5,563.5z"/>
<path class="st0" d="M460.5,563.5h-85.3c-4.9,0-8.8-4-8.8-8.8v-23.3c0-4.9,4-8.8,8.8-8.8h85.3c4.9,0,8.8,4,8.8,8.8v23.3
	C469.3,559.5,465.4,563.5,460.5,563.5z"/>
<path class="st1" d="M460.5,563.5h-85.3c-4.9,0-8.8-4-8.8-8.8v-23.3c0-4.9,4-8.8,8.8-8.8h85.3c4.9,0,8.8,4,8.8,8.8v23.3
	C469.3,559.5,465.4,563.5,460.5,563.5z"/>
<path class="st0" d="M357.5,563.5h-85.3c-4.9,0-8.8-4-8.8-8.8v-23.3c0-4.9,4-8.8,8.8-8.8h85.3c4.9,0,8.8,4,8.8,8.8v23.3
	C366.3,559.5,362.4,563.5,357.5,563.5z"/>
<path class="st0" d="M254.5,563.5h-85.3c-4.9,0-8.8-4-8.8-8.8v-23.3c0-4.9,4-8.8,8.8-8.8h85.3c4.9,0,8.8,4,8.8,8.8v23.3
	C263.3,559.5,259.4,563.5,254.5,563.5z"/>
<path class="st1" d="M254.5,563.5h-85.3c-4.9,0-8.8-4-8.8-8.8v-23.3c0-4.9,4-8.8,8.8-8.8h85.3c4.9,0,8.8,4,8.8,8.8v23.3
	C263.3,559.5,259.4,563.5,254.5,563.5z"/>
<path class="st0" d="M169.2,481.5h85.3c4.9,0,8.8,4,8.8,8.8v23.3c0,4.9-4,8.8-8.8,8.8h-85.3c-4.9,0-8.8-4-8.8-8.8v-23.3
	C160.3,485.5,164.3,481.5,169.2,481.5z"/>
<path class="st0" d="M272.2,481.5h85.3c4.9,0,8.8,4,8.8,8.8v23.3c0,4.9-4,8.8-8.8,8.8h-85.3c-4.9,0-8.8-4-8.8-8.8v-23.3
	C263.3,485.5,267.3,481.5,272.2,481.5z"/>
<path class="st1" d="M272.2,481.5h85.3c4.9,0,8.8,4,8.8,8.8v23.3c0,4.9-4,8.8-8.8,8.8h-85.3c-4.9,0-8.8-4-8.8-8.8v-23.3
	C263.3,485.5,267.3,481.5,272.2,481.5z"/>
<path class="st0" d="M375.2,481.5h85.3c4.9,0,8.8,4,8.8,8.8v23.3c0,4.9-4,8.8-8.8,8.8h-85.3c-4.9,0-8.8-4-8.8-8.8v-23.3
	C366.3,485.5,370.3,481.5,375.2,481.5z"/>
<path class="st0" d="M478.2,481.5h85.3c4.9,0,8.8,4,8.8,8.8v23.3c0,4.9-4,8.8-8.8,8.8h-85.3c-4.9,0-8.8-4-8.8-8.8v-23.3
	C469.3,485.5,473.3,481.5,478.2,481.5z"/>
<path class="st1" d="M478.2,481.5h85.3c4.9,0,8.8,4,8.8,8.8v23.3c0,4.9-4,8.8-8.8,8.8h-85.3c-4.9,0-8.8-4-8.8-8.8v-23.3
	C469.3,485.5,473.3,481.5,478.2,481.5z"/>
<path class="st0" d="M581.2,481.5h85.3c4.9,0,8.8,4,8.8,8.8v23.3c0,4.9-4,8.8-8.8,8.8h-85.3c-4.9,0-8.8-4-8.8-8.8v-23.3
	C572.3,485.5,576.3,481.5,581.2,481.5z"/>
<path class="st0" d="M684.2,481.5h85.3c4.9,0,8.8,4,8.8,8.8v23.3c0,4.9-4,8.8-8.8,8.8h-85.3c-4.9,0-8.8-4-8.8-8.8v-23.3
	C675.3,485.5,679.3,481.5,684.2,481.5z"/>
<path class="st1" d="M684.2,481.5h85.3c4.9,0,8.8,4,8.8,8.8v23.3c0,4.9-4,8.8-8.8,8.8h-85.3c-4.9,0-8.8-4-8.8-8.8v-23.3
	C675.3,485.5,679.3,481.5,684.2,481.5z"/>
<path class="st0" d="M769.5,481.5h-85.3c-4.9,0-8.8-4-8.8-8.8v-23.3c0-4.9,4-8.8,8.8-8.8h85.3c4.9,0,8.8,4,8.8,8.8v23.3
	C778.3,477.5,774.4,481.5,769.5,481.5z"/>
<path class="st0" d="M666.5,481.5h-85.3c-4.9,0-8.8-4-8.8-8.8v-23.3c0-4.9,4-8.8,8.8-8.8h85.3c4.9,0,8.8,4,8.8,8.8v23.3
	C675.3,477.5,671.4,481.5,666.5,481.5z"/>
<path class="st1" d="M666.5,481.5h-85.3c-4.9,0-8.8-4-8.8-8.8v-23.3c0-4.9,4-8.8,8.8-8.8h85.3c4.9,0,8.8,4,8.8,8.8v23.3
	C675.3,477.5,671.4,481.5,666.5,481.5z"/>
<path class="st0" d="M563.5,481.5h-85.3c-4.9,0-8.8-4-8.8-8.8v-23.3c0-4.9,4-8.8,8.8-8.8h85.3c4.9,0,8.8,4,8.8,8.8v23.3
	C572.3,477.5,568.4,481.5,563.5,481.5z"/>
<path class="st0" d="M460.5,481.5h-85.3c-4.9,0-8.8-4-8.8-8.8v-23.3c0-4.9,4-8.8,8.8-8.8h85.3c4.9,0,8.8,4,8.8,8.8v23.3
	C469.3,477.5,465.4,481.5,460.5,481.5z"/>
<path class="st1" d="M460.5,481.5h-85.3c-4.9,0-8.8-4-8.8-8.8v-23.3c0-4.9,4-8.8,8.8-8.8h85.3c4.9,0,8.8,4,8.8,8.8v23.3
	C469.3,477.5,465.4,481.5,460.5,481.5z"/>
<path class="st0" d="M357.5,481.5h-85.3c-4.9,0-8.8-4-8.8-8.8v-23.3c0-4.9,4-8.8,8.8-8.8h85.3c4.9,0,8.8,4,8.8,8.8v23.3
	C366.3,477.5,362.4,481.5,357.5,481.5z"/>
<path class="st0" d="M254.5,481.5h-85.3c-4.9,0-8.8-4-8.8-8.8v-23.3c0-4.9,4-8.8,8.8-8.8h85.3c4.9,0,8.8,4,8.8,8.8v23.3
	C263.3,477.5,259.4,481.5,254.5,481.5z"/>
<path class="st1" d="M254.5,481.5h-85.3c-4.9,0-8.8-4-8.8-8.8v-23.3c0-4.9,4-8.8,8.8-8.8h85.3c4.9,0,8.8,4,8.8,8.8v23.3
	C263.3,477.5,259.4,481.5,254.5,481.5z"/>
<path class="st0" d="M169.2,401.5h85.3c4.9,0,8.8,4,8.8,8.8v23.3c0,4.9-4,8.8-8.8,8.8h-85.3c-4.9,0-8.8-4-8.8-8.8v-23.3
	C160.3,405.5,164.3,401.5,169.2,401.5z"/>
<path class="st0" d="M272.2,401.5h85.3c4.9,0,8.8,4,8.8,8.8v23.3c0,4.9-4,8.8-8.8,8.8h-85.3c-4.9,0-8.8-4-8.8-8.8v-23.3
	C263.3,405.5,267.3,401.5,272.2,401.5z"/>
<path class="st1" d="M272.2,401.5h85.3c4.9,0,8.8,4,8.8,8.8v23.3c0,4.9-4,8.8-8.8,8.8h-85.3c-4.9,0-8.8-4-8.8-8.8v-23.3
	C263.3,405.5,267.3,401.5,272.2,401.5z"/>
<path class="st0" d="M375.2,401.5h85.3c4.9,0,8.8,4,8.8,8.8v23.3c0,4.9-4,8.8-8.8,8.8h-85.3c-4.9,0-8.8-4-8.8-8.8v-23.3
	C366.3,405.5,370.3,401.5,375.2,401.5z"/>
<path class="st0" d="M478.2,401.5h85.3c4.9,0,8.8,4,8.8,8.8v23.3c0,4.9-4,8.8-8.8,8.8h-85.3c-4.9,0-8.8-4-8.8-8.8v-23.3
	C469.3,405.5,473.3,401.5,478.2,401.5z"/>
<path class="st1" d="M478.2,401.5h85.3c4.9,0,8.8,4,8.8,8.8v23.3c0,4.9-4,8.8-8.8,8.8h-85.3c-4.9,0-8.8-4-8.8-8.8v-23.3
	C469.3,405.5,473.3,401.5,478.2,401.5z"/>
<path class="st0" d="M581.2,401.5h85.3c4.9,0,8.8,4,8.8,8.8v23.3c0,4.9-4,8.8-8.8,8.8h-85.3c-4.9,0-8.8-4-8.8-8.8v-23.3
	C572.3,405.5,576.3,401.5,581.2,401.5z"/>
<path class="st0" d="M684.2,401.5h85.3c4.9,0,8.8,4,8.8,8.8v23.3c0,4.9-4,8.8-8.8,8.8h-85.3c-4.9,0-8.8-4-8.8-8.8v-23.3
	C675.3,405.5,679.3,401.5,684.2,401.5z"/>
<path class="st1" d="M684.2,401.5h85.3c4.9,0,8.8,4,8.8,8.8v23.3c0,4.9-4,8.8-8.8,8.8h-85.3c-4.9,0-8.8-4-8.8-8.8v-23.3
	C675.3,405.5,679.3,401.5,684.2,401.5z"/>
<path class="st0" d="M769.5,401.5h-85.3c-4.9,0-8.8-4-8.8-8.8v-23.3c0-4.9,4-8.8,8.8-8.8h85.3c4.9,0,8.8,4,8.8,8.8v23.3
	C778.3,397.5,774.4,401.5,769.5,401.5z"/>
<path class="st0" d="M666.5,401.5h-85.3c-4.9,0-8.8-4-8.8-8.8v-23.3c0-4.9,4-8.8,8.8-8.8h85.3c4.9,0,8.8,4,8.8,8.8v23.3
	C675.3,397.5,671.4,401.5,666.5,401.5z"/>
<path class="st1" d="M666.5,401.5h-85.3c-4.9,0-8.8-4-8.8-8.8v-23.3c0-4.9,4-8.8,8.8-8.8h85.3c4.9,0,8.8,4,8.8,8.8v23.3
	C675.3,397.5,671.4,401.5,666.5,401.5z"/>
<path class="st0" d="M563.5,401.5h-85.3c-4.9,0-8.8-4-8.8-8.8v-23.3c0-4.9,4-8.8,8.8-8.8h85.3c4.9,0,8.8,4,8.8,8.8v23.3
	C572.3,397.5,568.4,401.5,563.5,401.5z"/>
<path class="st0" d="M460.5,401.5h-85.3c-4.9,0-8.8-4-8.8-8.8v-23.3c0-4.9,4-8.8,8.8-8.8h85.3c4.9,0,8.8,4,8.8,8.8v23.3
	C469.3,397.5,465.4,401.5,460.5,401.5z"/>
<path class="st1" d="M460.5,401.5h-85.3c-4.9,0-8.8-4-8.8-8.8v-23.3c0-4.9,4-8.8,8.8-8.8h85.3c4.9,0,8.8,4,8.8,8.8v23.3
	C469.3,397.5,465.4,401.5,460.5,401.5z"/>
<path class="st0" d="M357.5,401.5h-85.3c-4.9,0-8.8-4-8.8-8.8v-23.3c0-4.9,4-8.8,8.8-8.8h85.3c4.9,0,8.8,4,8.8,8.8v23.3
	C366.3,397.5,362.4,401.5,357.5,401.5z"/>
<path class="st0" d="M254.5,401.5h-85.3c-4.9,0-8.8-4-8.8-8.8v-23.3c0-4.9,4-8.8,8.8-8.8h85.3c4.9,0,8.8,4,8.8,8.8v23.3
	C263.3,397.5,259.4,401.5,254.5,401.5z"/>
<path class="st1" d="M254.5,401.5h-85.3c-4.9,0-8.8-4-8.8-8.8v-23.3c0-4.9,4-8.8,8.8-8.8h85.3c4.9,0,8.8,4,8.8,8.8v23.3
	C263.3,397.5,259.4,401.5,254.5,401.5z"/>
<path class="st0" d="M169.2,319.5h85.3c4.9,0,8.8,4,8.8,8.8v23.3c0,4.9-4,8.8-8.8,8.8h-85.3c-4.9,0-8.8-4-8.8-8.8v-23.3
	C160.3,323.5,164.3,319.5,169.2,319.5z"/>
<path class="st0" d="M272.2,319.5h85.3c4.9,0,8.8,4,8.8,8.8v23.3c0,4.9-4,8.8-8.8,8.8h-85.3c-4.9,0-8.8-4-8.8-8.8v-23.3
	C263.3,323.5,267.3,319.5,272.2,319.5z"/>
<path class="st1" d="M272.2,319.5h85.3c4.9,0,8.8,4,8.8,8.8v23.3c0,4.9-4,8.8-8.8,8.8h-85.3c-4.9,0-8.8-4-8.8-8.8v-23.3
	C263.3,323.5,267.3,319.5,272.2,319.5z"/>
<path class="st0" d="M375.2,319.5h85.3c4.9,0,8.8,4,8.8,8.8v23.3c0,4.9-4,8.8-8.8,8.8h-85.3c-4.9,0-8.8-4-8.8-8.8v-23.3
	C366.3,323.5,370.3,319.5,375.2,319.5z"/>
<path class="st0" d="M478.2,319.5h85.3c4.9,0,8.8,4,8.8,8.8v23.3c0,4.9-4,8.8-8.8,8.8h-85.3c-4.9,0-8.8-4-8.8-8.8v-23.3
	C469.3,323.5,473.3,319.5,478.2,319.5z"/>
<path class="st1" d="M478.2,319.5h85.3c4.9,0,8.8,4,8.8,8.8v23.3c0,4.9-4,8.8-8.8,8.8h-85.3c-4.9,0-8.8-4-8.8-8.8v-23.3
	C469.3,323.5,473.3,319.5,478.2,319.5z"/>
<path class="st0" d="M581.2,319.5h85.3c4.9,0,8.8,4,8.8,8.8v23.3c0,4.9-4,8.8-8.8,8.8h-85.3c-4.9,0-8.8-4-8.8-8.8v-23.3
	C572.3,323.5,576.3,319.5,581.2,319.5z"/>
<path class="st0" d="M684.2,319.5h85.3c4.9,0,8.8,4,8.8,8.8v23.3c0,4.9-4,8.8-8.8,8.8h-85.3c-4.9,0-8.8-4-8.8-8.8v-23.3
	C675.3,323.5,679.3,319.5,684.2,319.5z"/>
<path class="st1" d="M684.2,319.5h85.3c4.9,0,8.8,4,8.8,8.8v23.3c0,4.9-4,8.8-8.8,8.8h-85.3c-4.9,0-8.8-4-8.8-8.8v-23.3
	C675.3,323.5,679.3,319.5,684.2,319.5z"/>
<linearGradient id="SVGID_1_" gradientUnits="userSpaceOnUse" x1="722.82" y1="733.5905" x2="722.82" y2="777.7704" gradientTransform="matrix(1 0 0 -1 0 960.6808)">
	<stop  offset="0" style="stop-color:#808080;stop-opacity:0.25"/>
	<stop  offset="0.54" style="stop-color:#808080;stop-opacity:0.12"/>
	<stop  offset="1" style="stop-color:#808080;stop-opacity:0.1"/>
</linearGradient>
<path class="st2" d="M676.2,182.9h93.3c4.9,0,8.8,4,8.8,8.8v26.5c0,4.9-4,8.8-8.8,8.8h-93.3c-4.9,0-8.8-4-8.8-8.8v-26.5
	C667.3,186.9,671.3,182.9,676.2,182.9z"/>
<path class="st0" d="M765.5,225.5h-85.3c-4.9,0-8.8-4-8.8-8.8v-23.3c0-4.9,4-8.8,8.8-8.8h85.3c4.9,0,8.8,4,8.8,8.8v23.3
	C774.3,221.5,770.4,225.5,765.5,225.5z"/>
<path class="st0" d="M666.5,319.5h-85.3c-4.9,0-8.8-4-8.8-8.8v-23.3c0-4.9,4-8.8,8.8-8.8h85.3c4.9,0,8.8,4,8.8,8.8v23.3
	C675.3,315.5,671.4,319.5,666.5,319.5z"/>
<path class="st1" d="M666.5,319.5h-85.3c-4.9,0-8.8-4-8.8-8.8v-23.3c0-4.9,4-8.8,8.8-8.8h85.3c4.9,0,8.8,4,8.8,8.8v23.3
	C675.3,315.5,671.4,319.5,666.5,319.5z"/>
<path class="st0" d="M563.5,319.5h-85.3c-4.9,0-8.8-4-8.8-8.8v-23.3c0-4.9,4-8.8,8.8-8.8h85.3c4.9,0,8.8,4,8.8,8.8v23.3
	C572.3,315.5,568.4,319.5,563.5,319.5z"/>
<path class="st0" d="M460.5,319.5h-85.3c-4.9,0-8.8-4-8.8-8.8v-23.3c0-4.9,4-8.8,8.8-8.8h85.3c4.9,0,8.8,4,8.8,8.8v23.3
	C469.3,315.5,465.4,319.5,460.5,319.5z"/>
<path class="st1" d="M460.5,319.5h-85.3c-4.9,0-8.8-4-8.8-8.8v-23.3c0-4.9,4-8.8,8.8-8.8h85.3c4.9,0,8.8,4,8.8,8.8v23.3
	C469.3,315.5,465.4,319.5,460.5,319.5z"/>
<path class="st0" d="M357.5,319.5h-85.3c-4.9,0-8.8-4-8.8-8.8v-23.3c0-4.9,4-8.8,8.8-8.8h85.3c4.9,0,8.8,4,8.8,8.8v23.3
	C366.3,315.5,362.4,319.5,357.5,319.5z"/>
<path class="st0" d="M254.5,319.5h-85.3c-4.9,0-8.8-4-8.8-8.8v-23.3c0-4.9,4-8.8,8.8-8.8h85.3c4.9,0,8.8,4,8.8,8.8v23.3
	C263.3,315.5,259.4,319.5,254.5,319.5z"/>
<path class="st1" d="M254.5,319.5h-85.3c-4.9,0-8.8-4-8.8-8.8v-23.3c0-4.9,4-8.8,8.8-8.8h85.3c4.9,0,8.8,4,8.8,8.8v23.3
	C263.3,315.5,259.4,319.5,254.5,319.5z"/>
<ellipse class="st3" cx="499" cy="691" rx="499" ry="113.5"/>
<path class="st4" d="M113.9,640.1c0,0,9-30.4-1.7-52.8c-4.5-9.4-5.9-19.9-3.9-30.1c1-4.8,2.4-9.6,4.3-14.2"/>
<path class="st0" d="M106,528.8c0,3.7,6.8,14.5,6.8,14.5s6.8-10.8,6.8-14.5c0-3.7-3-6.8-6.8-6.8S106,525.1,106,528.8z"/>
<path class="st0" d="M94.9,549.5c2,3.1,13.6,8.5,13.6,8.5s-0.2-12.7-2.2-15.9c-2-3.1-6.2-4-9.3-1.9
	C93.8,542.2,92.9,546.4,94.9,549.5L94.9,549.5z"/>
<path class="st0" d="M95.4,584.8c3.3,1.7,16,0.5,16,0.5s-6.6-10.9-9.9-12.6c-3.4-1.6-7.4-0.2-9,3.2
	C90.9,579.1,92.1,583.1,95.4,584.8L95.4,584.8z"/>
<path class="st0" d="M101.7,611.4c3,2.2,15.7,3.2,15.7,3.2s-4.7-11.8-7.7-14.1c-3.1-2-7.3-1.2-9.3,1.9
	C98.5,605.3,99.1,609.2,101.7,611.4L101.7,611.4z"/>
<path class="st0" d="M122.6,558.7c-2.7,2.6-15.1,5.3-15.1,5.3s3.1-12.4,5.7-15c2.7-2.6,6.9-2.5,9.5,0.1
	C125.3,551.8,125.3,556.1,122.6,558.7L122.6,558.7z"/>
<path class="st0" d="M129.7,589.9c-3.3,1.7-16,0.5-16,0.5s6.6-10.9,9.9-12.6c3.4-1.5,7.4,0,8.9,3.4
	C134,584.4,132.7,588.2,129.7,589.9z"/>
<path class="st0" d="M132.4,621.2c-3,2.2-15.7,3.2-15.7,3.2s4.7-11.8,7.7-14.1c3.1-2,7.3-1.2,9.3,1.9
	C135.6,615.2,135,619,132.4,621.2L132.4,621.2z"/>
<path class="st0" d="M597,467.7c0,0,32.9,32.9,14.3,81.7c-18.6,48.8,31.8,130,31.8,130s-0.5-0.1-1.5-0.3
	c-67.6-12-101.1-89.2-63.6-146.6C592,511.2,603.5,486.2,597,467.7z"/>
<path class="st5" d="M597,467.7c0,0,32.9,32.9,14.3,81.7c-18.6,48.8,31.8,130,31.8,130s-0.5-0.1-1.5-0.3
	c-67.6-12-101.1-89.2-63.6-146.6C592,511.2,603.5,486.2,597,467.7z"/>
<path class="st6" d="M597,467.7c0,0,18.6,40.3,0,73.2c-18.6,32.9-3.2,125.2,46.2,138.4"/>
<path class="st0" d="M538.4,600.7c0,0,37.5-6,40.9,27.7c3.4,33.7,72.2,38.3,72.2,38.3l-1.3,0.9c-56.8,37.3-111,23.7-102.8-25.7
	C550.4,623.4,550.2,604.9,538.4,600.7z"/>
<path class="st7" d="M538.4,600.7c0,0,37.5-6,40.9,27.7c3.4,33.7,72.2,38.3,72.2,38.3l-1.3,0.9c-56.8,37.3-111,23.7-102.8-25.7
	C550.4,623.4,550.2,604.9,538.4,600.7z"/>
<path class="st6" d="M538.4,600.7c0,0,29.1,6.4,26.7,32.9s43.3,58.2,86.4,33.1"/>
<path class="st8" d="M823.9,678.2c0,0-55.7-11.1-70.6-26s-81.7-40.8-89.1-22.3c-7.4,18.6-100.3,81.7-37.1,92.9
	c63.2,11.1,148.5,14.8,167.1,7.4C812.8,722.7,823.9,678.2,823.9,678.2z"/>
<path class="st5" d="M627.2,715.8c63.1,11.1,148.5,14.8,167.1,7.4c14.1-5.7,24-32.8,27.8-45.5l1.9,0.4c0,0-11.1,44.6-29.7,52
	c-18.6,7.4-104,3.7-167.1-7.4c-18.2-3.2-23.4-10.8-21.5-20.3C607.2,708.6,613.6,713.4,627.2,715.8z"/>
<linearGradient id="SVGID_2_" gradientUnits="userSpaceOnUse" x1="885.6232" y1="77.0105" x2="885.6232" y2="679.9341" gradientTransform="matrix(1 0 0 -1 -79.84 835.2609)">
	<stop  offset="0" style="stop-color:#808080;stop-opacity:0.25"/>
	<stop  offset="0.54" style="stop-color:#808080;stop-opacity:0.12"/>
	<stop  offset="1" style="stop-color:#808080;stop-opacity:0.1"/>
</linearGradient>
<path class="st9" d="M936.6,183.5c-1-2.5-2.6-4.7-4.6-6.4c-15-13.6-39.1-9.5-57.7-17.8c-4.3-1.9-8.7-4.6-13.3-3.8
	c-6.5,1-12.5,8.4-18.2,5.1l0.4,1.2l-0.4-0.2l4.2,12.7c1.6,4.9,3.3,9.9,6.4,13.9c-15.2,13.2-16.7,36.2-3.5,51.4
	c3.4,3.9,7.6,7,12.3,9.2c0.2,0.4,0.4,0.9,0.6,1.3l0.5,0.2c1.2,2.8,2.1,5.8,2.7,8.8c-4.8,0.7-13.2,6-21.4,13.8l-16.5-0.6
	c-10.7-0.4-21-3.9-29.6-10.1l-49.4-35.4c-3.5,0.3-6.8,1.8-9.5,4.2c-6.1-6.4-11.3-13-10.9-17c0,0-22.9-42.9-31.3-21.5
	c-8.3,21.5,15.6,44,15.6,44l15.2,19.7c-0.6,3.5-1,6.9-1.1,10.4c18.8,21.5,84.4,40.9,84.4,40.9l10.2,0.5l0.1,0.5
	c-0.6,2.7-0.9,5.4-0.9,8.2c0,0.4,0,0.8,0,1.2s0,0.5,0,0.8c0.5,34.2,5.2,139,5.2,139c0.9-0.4,1.9-0.8,2.8-1.1l-0.7,9.3
	c0,0-43.8,6.1-76.1,18.4C720,496.7,718.9,511,718.9,511v126.3c-9.2,4.7-23.8,11-31.3,7.6c-8.1-3.6-12.6-0.6-13.4,2.6l0,0
	c-0.2,0.6-0.2,1.3,0,1.9l0,0c0.1,0.3,0.2,0.6,0.3,0.8v0.1c0.1,0.3,0.3,0.5,0.5,0.7c3.1,3.1,70.9,29.6,86.5,25.5
	c0.5-0.1,1-0.3,1.4-0.5c0.2-0.1,0.3-0.1,0.4-0.2c0.1-0.1,0.6-0.3,0.8-0.4c0.3-0.2,0.3-0.2,0.5-0.3s0.5-0.3,0.7-0.5
	c0.2-0.2,0.3-0.3,0.4-0.4s0.4-0.3,0.6-0.5s0.3-0.3,0.4-0.5s0.4-0.4,0.5-0.6s0.2-0.3,0.3-0.5c0.1-0.2,0.3-0.5,0.5-0.7
	s0.2-0.3,0.3-0.5c0.1-0.2,0.3-0.5,0.4-0.8c0.1-0.3,0.2-0.3,0.2-0.5c0.1-0.2,0.3-0.6,0.4-0.9s0.1-0.3,0.2-0.5c0.1-0.2,0.2-0.6,0.3-1
	c0-0.2,0.1-0.3,0.1-0.5c0.1-0.3,0.2-0.7,0.3-1c0-0.2,0.1-0.3,0.1-0.5c0.1-0.4,0.2-0.8,0.2-1.1c0-0.1,0-0.3,0.1-0.4
	c0.1-0.4,0.1-0.8,0.2-1.2V662c0.1-0.5,0.1-0.9,0.1-1.3v-0.3c0-0.5,0.1-1,0.1-1.5v-0.2c0-0.5,0-1,0-1.6v-0.1c0-6.1-0.7-12.2-2-18.1
	l0,0l3.9-107.5c20.5,0.3,41-0.4,61.4-2.3l2.2,51.3c0,0,0,33.7,11.5,49.1c9.8,13.1,21.2,71.2,24.2,87.6c-4.2,8-12.3,18-26.3,17.7
	c0,0-26.4-2.3-24.9,5l0,0c0,0.2,0.1,0.4,0.2,0.6l0,0c0.1,0.2,0.2,0.4,0.3,0.6l0,0c0.1,0.2,0.2,0.4,0.4,0.6l0.1,0.1
	c0.2,0.2,0.3,0.4,0.5,0.7v0c0.2,0.2,0.4,0.4,0.6,0.6l0.2,0.2c0.2,0.2,0.5,0.5,0.8,0.7c13.6,12.3,92.8,14.3,92.8,14.3V758
	c0-0.1,0-0.2,0-0.3l0,0c0-3.5-0.5-22.2-5.3-36.2h1.1c0,0-11.5-103.2-20.8-115.5c0,0-2.5-54.4,3.1-88.5l1-0.4
	c26.3-9.8,28.2-34,25.4-51.8c5,1.6,7.9,2.7,7.9,2.7s-0.1-0.8-0.3-2.1l0.3,0.1c0,0-0.5-3.3-1.3-8.3c-1.9-13.9-5.5-38.3-9.4-49.8
	c-0.6-2.5-1.2-4.7-1.8-6.3c-2.2-6.9-3.8-14-4.6-21.2c-1.1-9.3-1.6-18.8-1.6-28.2c0.1-12.6,1-25.1,2.9-37.6c1.6-10.9,3-23.2,2.9-31.9
	c0.1-3-0.1-6-0.6-9c-1.4-6.4-7.5-10.5-13.9-13.1c-0.4-0.2-0.8-0.3-1.3-0.5c0.2-2.4,0.4-5.2,0.6-8c1.5,1.1,3.5,1.5,5.3,1.1
	c2.8-0.6,4.7-2.9,6.5-5c9.2-11.4,18.7-23.2,22.3-37.3c1.4-6.3,2.1-12.7,2-19.2c0-0.4,0-0.7,0-1.1
	C937.5,188.3,937.3,185.8,936.6,183.5z"/>
<path class="st10" d="M852.5,238.8c0,0,14,21,11,31s33,4,33,4s1-39,8-48S852.5,238.8,852.5,238.8z"/>
<path class="st10" d="M760,252.3c0,0-29-24-28-33c0,0-22-42-30-21s15,43,15,43l28,37L760,252.3z"/>
<path class="st11" d="M730.5,628.8c0,0-27,17-38,12s-15,3-12,6s68,29,83,25s7.4-36.8,7.4-36.8L730.5,628.8z"/>
<path class="st11" d="M873.5,701.8c0,0-6.5,27.5-29,27c0,0-34-3-21,9s89,14,89,14s0-41-14-50S873.5,701.8,873.5,701.8z"/>
<path class="st12" d="M832.5,507.8l3,70c0,0,0,33,11,48s24,90,24,90h38c0,0-11-101-20-113c0,0-4-89,10-109L832.5,507.8z"/>
<path class="st1" d="M832.5,507.8l3,70c0,0,0,33,11,48s24,90,24,90h38c0,0-11-101-20-113c0,0-4-89,10-109L832.5,507.8z"/>
<path class="st12" d="M911.5,444.8c0,0,23,55-19,71s-118,14-118,14l-4,116c0,0-47,6-48-9v-127c0,0,1-14,32-26s73-18,73-18l2-26
	L911.5,444.8z"/>
<path class="st1" d="M874.7,263.7c8-0.9,16.1,0.3,23.5,3.3c6.1,2.6,12,6.6,13.4,12.9c1.6,7.4-0.2,23.9-2.2,37.9
	c-3.2,22-6,37.3-3.6,59.3c1,9.2,4.9,24.2,6.8,27.7c6,11,12,63,12,63s-66-25-99-10c0,0-4.5-102.5-5-136
	c-0.4-25.9,32.5-55.5,43.5-56.5C870.4,264.8,868.2,264.3,874.7,263.7z"/>
<path class="st8" d="M874.7,261.7c8-0.9,16.1,0.3,23.5,3.3c6.1,2.6,12,6.6,13.4,12.9c1.6,7.4-0.2,23.9-2.2,37.9
	c-3.2,22-6,39.3-3.6,61.3c0.8,7.1,4.7,19,6.8,25.7c4.5,13.5,12,63,12,63s-66-25-99-10c0,0,2.8-37.5,1.4-73
	c-1.1-29.2-6.3-56.8-6.4-63c-0.4-25.9,32.5-55.5,43.5-56.5C870.4,262.8,868.2,262.3,874.7,261.7z"/>
<path class="st1" d="M892.5,316.8l-71-4c0,0-4.5-34.8,5.7-34.5l70.3,2.5C897.5,280.8,912.5,298.8,892.5,316.8z"/>
<path class="st8" d="M892.5,314.8l-81-4c0,0-63-19-81-40c0,0,1-37,21-39l47.3,34.7c8.3,6.1,18.2,9.5,28.4,9.9l70.3,2.5
	C897.5,278.8,912.5,296.8,892.5,314.8z"/>
<path class="st1" d="M896,243.3c1.2-9.5,5.5-12.6,8.5-16.5c7-9-52,13-52,13c3.1,4.7,5.7,9.6,8,14.7c4.7,2.2,9.8,3.3,15,3.3
	C884.2,257.8,889.8,248.5,896,243.3z"/>
<circle class="st10" cx="875.5" cy="220.8" r="36"/>
<path class="st1" d="M852.8,195.6c-3.8-4.2-5.7-9.8-7.4-15.2l-4-12.4c5.4,3.2,11.2-4,17.4-5c4.4-0.7,8.7,1.9,12.8,3.8
	c17.8,8.1,41,4.1,55.3,17.4c2,1.7,3.5,3.8,4.4,6.3c0.7,2.3,0.9,4.6,0.8,7c0.1,6.3-0.5,12.6-1.9,18.8c-3.4,13.8-12.5,25.4-21.4,36.5
	c-1.7,2.1-3.6,4.4-6.2,4.9c-5.2,1.1-9.1-4.4-11.1-9.3c-2.6-6.5-4.6-13.2-5.8-20.1c-0.5-2.9-0.9-5.9-2.4-8.5
	c-3.1-5.5-10.7-10.7-15.4-14.9S857,200.3,852.8,195.6z"/>
<linearGradient id="SVGID_3_" gradientUnits="userSpaceOnUse" x1="849.9395" y1="157.3068" x2="926.1891" y2="233.5564">
	<stop  offset="0" style="stop-color:#33DED2"/>
	<stop  offset="4.394825e-03" style="stop-color:#33DDD1"/>
	<stop  offset="0.1991" style="stop-color:#2CA4A3"/>
	<stop  offset="0.3881" style="stop-color:#26767D"/>
	<stop  offset="0.5671" style="stop-color:#21515F"/>
	<stop  offset="0.7335" style="stop-color:#1E3749"/>
	<stop  offset="0.8827" style="stop-color:#1C283D"/>
	<stop  offset="1" style="stop-color:#1B2238"/>
</linearGradient>
<path class="st13" d="M852.8,194.6c-3.8-4.2-5.7-9.8-7.4-15.2l-4-12.4c5.4,3.2,11.2-4,17.4-5c4.4-0.7,8.7,1.9,12.8,3.8
	c17.8,8.1,41,4.1,55.3,17.4c2,1.7,3.5,3.8,4.4,6.3c0.7,2.3,0.9,4.6,0.8,7c0.1,6.3-0.5,12.6-1.9,18.8c-3.4,13.8-12.5,25.4-21.4,36.5
	c-1.7,2.1-3.6,4.4-6.2,4.9c-5.2,1.1-9.1-4.4-11.1-9.3c-2.6-6.5-4.6-13.2-5.8-20.1c-0.5-2.9-0.9-5.9-2.4-8.5
	c-3.1-5.5-10.7-10.7-15.4-14.9S857,199.3,852.8,194.6z"/>
<ellipse class="st10" cx="885" cy="224.8" rx="3" ry="6.5"/>
<path class="st1" d="M903,398.3c0,0-2,6-12,5s-39-3-39,0"/>
<path class="st14" d="M823.5,736.8c-1.8-1.7-2.7-3-2.9-4.2c-0.3,1.3,0.5,3,2.9,5.2c13,12,89,14,89,14s0-0.3,0-1
	C912,750.8,836.5,748.8,823.5,736.8z"/>
<path class="st14" d="M763.5,669.8c-15,4-80-22-83-25c-0.4-0.4-0.7-0.9-0.8-1.5c-0.4,1.2,0,2.5,0.8,3.5c3,3,68,29,83,25
	c7.7-2.1,9.4-11.7,9.3-20.6C772.7,659.5,770.6,667.9,763.5,669.8z"/>
<path class="st15" d="M502.1,659.1c0.8,0,1.5-0.7,1.5-1.5s-0.7-1.5-1.5-1.5s-1.5,0.7-1.5,1.5S501.3,659.1,502.1,659.1z"/>
<path class="st8" d="M56.3,642.5c0,0,37.3-1.2,48.6-9.2s57.4-17.6,60.2-4.7s56.1,63.9,13.9,64.3s-97.9-6.6-109.1-13.4
	S56.3,642.5,56.3,642.5z"/>
<path class="st5" d="M179.8,688.3c-42.1,0.3-97.9-6.6-109.1-13.4c-8.6-5.2-12-23.9-13.1-32.5h-1.3c0,0,2.4,30.1,13.6,36.9
	s67,13.8,109.1,13.5c12.2-0.1,16.4-4.4,16.1-10.8C193.5,685.8,188.8,688.3,179.8,688.3z"/>
<path class="st0" d="M1031.5,728.5h-85.3c-4.9,0-8.8-4-8.8-8.8v-23.3c0-4.9,4-8.8,8.8-8.8h85.3c4.9,0,8.8,4,8.8,8.8v23.3
	C1040.3,724.5,1036.4,728.5,1031.5,728.5z"/>
<path class="st1" d="M1031.5,728.5h-85.3c-4.9,0-8.8-4-8.8-8.8v-23.3c0-4.9,4-8.8,8.8-8.8h85.3c4.9,0,8.8,4,8.8,8.8v23.3
	C1040.3,724.5,1036.4,728.5,1031.5,728.5z"/>
<path class="st0" d="M946.2,648.5h85.3c4.9,0,8.8,4,8.8,8.8v23.3c0,4.9-4,8.8-8.8,8.8h-85.3c-4.9,0-8.8-4-8.8-8.8v-23.3
	C937.3,652.5,941.3,648.5,946.2,648.5z"/>
<path class="st0" d="M1031.5,648.5h-85.3c-4.9,0-8.8-4-8.8-8.8v-23.3c0-4.9,4-8.8,8.8-8.8h85.3c4.9,0,8.8,4,8.8,8.8v23.3
	C1040.3,644.5,1036.4,648.5,1031.5,648.5z"/>
<path class="st1" d="M1031.5,648.5h-85.3c-4.9,0-8.8-4-8.8-8.8v-23.3c0-4.9,4-8.8,8.8-8.8h85.3c4.9,0,8.8,4,8.8,8.8v23.3
	C1040.3,644.5,1036.4,648.5,1031.5,648.5z"/>
<path class="st0" d="M946.2,566.5h85.3c4.9,0,8.8,4,8.8,8.8v23.3c0,4.9-4,8.8-8.8,8.8h-85.3c-4.9,0-8.8-4-8.8-8.8v-23.3
	C937.3,570.5,941.3,566.5,946.2,566.5z"/>
<path class="st16" d="M360.7,300.9l29.1-12.8c0,0,20.7-22.9,13.7-31.3c-7-8.4-26.6,19.3-26.6,19.3l-11.7,9.8L360.7,300.9z"/>
<polygon class="st12" points="224.3,300.8 305,350.1 383.6,304.6 367.1,281.4 301.1,307.9 234.9,235.2 "/>
<polygon class="st5" points="224.3,300.8 305,350.1 383.6,304.6 367.1,281.4 301.1,307.9 234.9,235.2 "/>
<path class="st0" d="M375.2,234.3h85.3c4.9,0,8.8,4,8.8,8.8v23.3c0,4.9-4,8.8-8.8,8.8h-85.3c-4.9,0-8.8-4-8.8-8.8v-23.3
	C366.3,238.3,370.3,234.3,375.2,234.3z"/>
<path class="st16" d="M350.9,279.9l27.7-15.6c0,0,18.4-24.8,10.6-32.5s-24.6,21.8-24.6,21.8l-10.7,10.9L350.9,279.9z"/>
<path d="M218.3,208.5c19.5-0.3,35.1-16.4,34.8-35.9l0,0c6.4-23.7-7.7-48.2-31.5-54.5l0,0l0,0c-23.7-6.4-48.2,7.7-54.5,31.5l0,0
	c-1,2-1.8,4.2-2.4,6.4c-4.9,18.2,5.9,36.9,24.1,41.7l11.9,6.6C206.1,207.1,212.2,208.6,218.3,208.5z"/>
<polygon class="st17" points="242.1,409.2 224.8,546.8 220.6,660.4 253.4,660.3 272.9,544.6 283.6,426.7 "/>
<path class="st11" d="M222.8,653.8c-4.4,0-6.5,24-6.5,28.4s76.4,10.8,83-0.1c6.5-10.9-28.4-15.2-28.4-15.2L249,653.8L222.8,653.8z"
	/>
<path class="st17" d="M239.9,394l30.6,30.5l-23.9,131l-95.9,109.3l-28.4-24l78.5-100.5l2.1-80.8c-15.3-26.2-15.9-43-15.9-43
	L239.9,394z"/>
<path class="st11" d="M150.7,658.3l0,28.4c3.2,4.9,6.1,10,8.8,15.3c4.4,8.7-8.7,8.7-8.7,8.7c-28.4,6.6-39.4-43.6-43.7-54.5
	c-4.4-10.9,21.8-15.3,21.8-15.3L150.7,658.3z"/>
<ellipse transform="matrix(0.2605 -0.9655 0.9655 0.2605 -7.7766 346.6024)" class="st16" cx="222.4" cy="178.4" rx="32.8" ry="32.8"/>
<polygon class="st16" points="235.3,197.4 239.7,234.6 204.8,234.6 204.8,197.5 "/>
<path class="st12" d="M202.8,354.7c-12.5-49.9-16.5-96.3,2-133.2l33.1-2.6c0,0,15,11.8,31.9,26.6c13.9,12.1,4.4,48,4.4,48l2.7,27.2
	l1.3,12.7L288,431c-27.2-7-55.5-8.1-83.1-3.5l-21.7,3.6L202.8,354.7z"/>
<path class="st12" d="M215.1,293l71.1,34.4c8.6,4.2,18.9,3.3,26.7-2.3l55.8-49.1l-13.3-16.2l-63.1,32.8l-72.9-66L215.1,293z"/>
<ellipse transform="matrix(0.2605 -0.9655 0.9655 0.2605 13.8957 254.5616)" cx="173.1" cy="118.2" rx="21.1" ry="21.1"/>
<path d="M178.2,127.6c1.7,0.1,3.4,0,5.1-0.3c11.5-2.1,19.1-13,17.1-24.5c-2.1-11.5-13-19.1-24.5-17.1c1.4,0.1,2.8,0.3,4.1,0.7
	c11.3,3,17.9,14.6,14.9,25.9C192.8,120.2,186.3,126.2,178.2,127.6z"/>
<path d="M165.9,166.4l14.9,24.3l24,16.4c1.8-16.3,4.7-34.4,17.2-41.3c5.3-2.9,9.8-7.1,13-12.2l0,0l4.7,12.4l21.8,5.9
	c1.9-12.8-3.9-25.6-14.7-32.7l-21.7-14.1l-28.6,4.7L165.9,166.4z"/>
<polygon class="st5" points="276.9,320.7 278.2,333.4 221.3,273.1 "/>
<path class="st0" d="M1031.5,566.5h-85.3c-4.9,0-8.8-4-8.8-8.8v-23.3c0-4.9,4-8.8,8.8-8.8h85.3c4.9,0,8.8,4,8.8,8.8v23.3
	C1040.3,562.5,1036.4,566.5,1031.5,566.5z"/>
<path class="st1" d="M1031.5,566.5h-85.3c-4.9,0-8.8-4-8.8-8.8v-23.3c0-4.9,4-8.8,8.8-8.8h85.3c4.9,0,8.8,4,8.8,8.8v23.3
	C1040.3,562.5,1036.4,566.5,1031.5,566.5z"/>
</svg>
