<?xml version="1.0" encoding="utf-8"?>
<!-- Generator: Adobe Illustrator 24.1.3, SVG Export Plug-In . SVG Version: 6.00 Build 0)  -->
<svg version="1.1" id="a3fdf556-7513-4367-833c-43bb1dab678b"
	 xmlns="http://www.w3.org/2000/svg" xmlns:xlink="http://www.w3.org/1999/xlink" x="0px" y="0px" viewBox="0 0 1000 600"
	 style="enable-background:new 0 0 1000 600;" xml:space="preserve">
<style type="text/css">
	.st0{display:none;fill:#FFFFFF;}
	.st1{fill:#D1D8DB;}
	.st2{fill:none;stroke:#5C39BC;stroke-width:4;stroke-miterlimit:10;}
	.st3{fill:#33DED2;}
	.st4{opacity:0.1;enable-background:new    ;}
	.st5{fill:#89E5DC;}
	.st6{opacity:0.1;}
	.st7{opacity:0.2;}
	.st8{fill:#33DED2;stroke:#5C39BC;stroke-miterlimit:10;}
	.st9{opacity:0.1;stroke:#5C39BC;stroke-miterlimit:10;enable-background:new    ;}
	.st10{fill:#FFFFFF;}
	.st11{fill:#EDEDF4;}
	.st12{fill:url(#SVGID_1_);}
	.st13{fill:#A1616A;}
	.st14{fill:#667C8A;}
	.st15{fill:#2A314C;}
	.st16{fill:#EEEEEE;}
	.st17{fill:#67647E;}
	.st18{fill:#5C39BC;}
	.st19{fill:#2F2E41;}
	.st20{opacity:3.000000e-02;enable-background:new    ;}
</style>
<path class="st0" d="M905.6,27.2l-0.2,472.5c-33.2,0,0,0-33.5,0.2H747.2l-0.4-0.2c-18.6-7.6-39.4-7.6-58.1,0l-0.3,0.1h-125
	c-4.2-1.7-8.3-3.6-12.3-5.6c-21.1-10.6-46-10.6-67.1,0c-4,2-8.1,3.9-12.3,5.6h-125l-0.3-0.1c-18.6-7.6-39.4-7.6-58.1,0l-0.4,0.2
	H163.3c-21.3-8.7-40.6-21.6-56.7-38.1V27.2H905.6z"/>
<path class="st1" d="M892.9,100.6L787.3,76.7l-86,7.8l-177.6,16l-391.2,35.3l-1.4,0.1l131.5,420.7c19.4-1.2,38.7-2.4,58.1-3.6
	c9.3,3.1,18.6,6.1,27.9,9.2c106.5-8.7,213-17.3,319.5-26l218.1-63.8 M670,97.8l1.5-0.1l20.7,6.1l-11.1,1.1l-19.8,1.9l0,0l-19.6-6.3
	l23.3-2.1L670,97.8z M662,109.2l18.6,6l9.4,3l-7.2,0.9l-5.4,0.7l-14.2,1.7l-27.6-9.7l24.6-2.4l0,0L662,109.2z M684.6,107L684.6,107
	l14-1.4l27.9,8.2l-31.5,3.8l-9.1-2.9l-18.6-6L684.6,107z M746.6,100.9l27.8-2.7l25.7,6.6l-29.5,3.6l-14-3.8l-12.4-3.4L746.6,100.9z
	 M781.8,113.6L781.8,113.6l16.1,4.4l-2.9,0.4l-31.8,3.9l-25.4-7.4l33.6-4.1L781.8,113.6z M695.8,133.1l28.9-3.6l5.7,1.8l0,0l1.3,0.4
	l8.1,2.6l-29.3,3.9l-11.2-4l-0.8-0.3L695.8,133.1z M729.8,128.9l34-4.2l10.3,3l1.9,0.6l3,0.9l-34.1,4.6l-7.5-2.4l0,0l-1.3-0.4
	L729.8,128.9z M685.9,254.9l-65.1,10.8l-32.8-21l62-9.4L685.9,254.9z M646.5,233.4l-61.7,9.3l-27.3-17.5l57.2-8.4l1.2-0.2l24,13.1
	l0.1,0.1L646.5,233.4z M821,160.5l8.1,2.6l-15.2,2l-17.9,2.4l-1.9,0.3l-6.6-2.3l-7.6-2.7l-32.4-11.5l31.1-4.4l29.7,9.6l0,0
	L821,160.5z M700.9,157.9l4.1-0.6l38-5.4l32.1,11.4l7.6,2.7l6.8,2.4l-44.9,6l-8.8-3.3l-5.9-2.2l-25.7-9.7L700.9,157.9z M794.7,170.2
	l5.6,2l1.9,0.7l27.6,9.7l-45.7,6.7l-34.7-13.1L794.7,170.2z M740.1,175l-14.6,1.9h-0.3L649,187.2l-3.2,0.4l-35-17l25.6-3.6l59.8-8.4
	L740.1,175z M650.4,189.5l73.3-9.9l0,0l6.3-0.8l14.9-2l34.8,13.1l-16.8,2.5l-6.2,0.9l-76.2,11.2l-30-14.6l-0.9-0.4H650.4z
	 M713.9,223.2l-38.8,5.9l-24.8,3.7l-30.6-16.7l43.3-6.4l17.7-2.6L713.9,223.2z M676.6,231.4l41.3-6.2l37.6,18.3l-64.7,10.7l-1.1,0.2
	L654,234.9L676.6,231.4z M684.7,206.6l76.6-11.3l6.2-0.9l17-2.5l39.2,14.8l-12.3,1.9l-23.7,3.6l0,0l-70,10.6L684.7,206.6z
	 M789,191.2l45.9-6.7l13.2,4.7l27.5,9.7l-20.1,3l-27.2,4.1L789,191.2z M846.4,186.3l-7-2.5l5.1-0.8l31.7-4.7
	c8,4.4,16.1,8.8,24.1,13.3c-6.8,2.2-13.5,4.3-20.3,6.5L846.4,186.3z M843.2,180.8l-8.8,1.3l-29.9-10.6l-5.2-1.8l9.8-1.3l24.9-3.3
	h0.5l36.2,11.7L843.2,180.8z M742.5,149.5l-26.8-9.4l29.6-3.9l27.8,9L742.5,149.5z M737.9,150.2l-34.3,4.8l-5.3,0.7L696,156
	l-26.1-9.9l21.3-2.8l5.3-0.7l14.7-2L737.9,150.2z M691.6,156.8l-56.7,8l-28.2,4l-22.9-11.1l42.9-5.7l38.4-5.1L691.6,156.8z
	 M602.8,169.3l-32.2,4.6l-22.4,3.2l-21.4-11.7l35.4-4.7l17.7-2.4L602.8,169.3z M572.1,176.2l34.7-4.9l34.8,16.9l-57.1,7.6l-1.6,0.2
	l-31.2-17L572.1,176.2z M645.6,190.1l7.2,3.5l23.7,11.5l-15.1,2.3l-45.6,6.6l-29.2-16L645.6,190.1z M721.7,224.6l64.8-9.9l0,0
	l28.1-4.3l13.8-2.1l39.2,14.8l2.9,1.1l-2.1,0.3l-109.3,18.1L721.7,224.6z M865.9,220.3l-33-12.5l23.7-3.6l23.7-3.6
	c5.4,4.3,10.8,8.7,16.2,13c-7.2,3.4-14.4,6.7-21.7,10.1L865.9,220.3z M875.4,175.9l-36.1-11.7l40.8-5.4c5.6,2.8,11.2,5.7,16.8,8.5
	C889.7,170.2,882.5,173.1,875.4,175.9z M833.8,162.5l-1.7-0.5l-48.8-15.7l36.2-5.1l0.6,0.2l54,15.8L833.8,162.5z M777.9,144.4
	l-27.7-9l34.6-4.6l29,8.5L777.9,144.4z M693.8,134.6L693.8,134.6l12,4.2l-10.9,1.4l-5.3,0.7l-24.8,3.3l-15-5.7l13.4-1.6l0,0l4.9-0.6
	h0.2l17.3-2.1l5.4-0.6l0,0l2,0.7l0,0L693.8,134.6z M620.8,142.1l24.4-3l15.1,5.7l-34.9,4.7l-45.5,6.2l-13.8-6.7L620.8,142.1z
	 M575.8,156.1l-15.3,2l-37.7,4.9l-13.5-7.4l46-5.6l6.5-0.8L575.8,156.1z M518.9,163.7L471,170l-12.6-8l46.9-5.8L518.9,163.7z
	 M522.6,165.7l21.5,11.8l-50.4,7.1l-19.5-12.4L522.6,165.7z M547.7,179.4l31.2,17l-55,7.4L497,186.6L547.7,179.4z M582.6,198.5
	l5.5,2.9l0,0l24,13.1l-1.4,0.2l-56.6,8.3l-27-17.2L582.6,198.5z M580.9,243.2l-67.5,10.3l-24-18.2l64.2-9.5L580.9,243.2z
	 M584.1,245.2l32.8,21l-71.1,11.9l-29.6-22.5L584.1,245.2z M620.2,268.2l39.2,25l-75.6,13.6l-35.2-26.7L620.2,268.2z M623.8,267.6
	l65.4-10.8l42.8,23.4l-69.2,12.5L623.8,267.6z M693,256.1l66.2-10.8l45,21.8l-68.6,12.3L693,256.1z M763.2,244.6l106.7-17.7
	c0.9,2.5,1.8,5,2.6,7.5c7.5,3.4,15.1,6.8,22.6,10.3c-29,7.3-58.1,14.5-87.1,21.8L763.2,244.6z M879.6,156.4l-54.7-16l35.7-5
	c12.2,4.9,24.4,9.8,36.7,14.7C891.3,152.2,885.4,154.3,879.6,156.4z M819,138.7h-0.2l-28.8-8.4l22.2-2.9l12.9-1.6l29.4,8.1
	L819,138.7z M810.9,124.9l-11.9,1.6h-0.3l-14.5,2l-2.2-0.6l-2-0.6l-10.9-3.2l30.9-3.8l4-0.5l14.8,4.1L810.9,124.9z M757.9,123
	l-33.6,4.1l-23.7-7.7l31.9-3.9L757.9,123z M719.3,127.7l-28.6,3.5l-1.1-0.4l-7.2-2.5l-13.9-4.9l10.3-1.3l5.4-0.7l11.4-1.4
	L719.3,127.7z M684,131.1l1.9,0.7l-1.4,0.2l-39.6,4.8l-21.2-8l39.9-4.9L684,131.1z M640.3,137.4l-21.4,2.6l0,0l-56.7,6.9l-12.6-6.1
	l-5.1-2.4l3.2-0.4l50.9-6.2l0,0l20.5-2.5L640.3,137.4z M551.8,144.5l6.1,3L554,148l-48.2,5.9l-15.9-8.7l50.6-6.2L551.8,144.5z
	 M501.8,154.4l-46.5,5.7l-14-8.9l44.5-5.4L501.8,154.4z M451.5,160.5l-51.9,6.4l-12.1-9.2l50-6.1L451.5,160.5z M454.8,162.6
	l12.6,8.1l-53.5,7.1l-11.5-8.8L454.8,162.6z M470.6,172.7l19.5,12.5l-56.1,7.9l-17.4-13.2L470.6,172.7z M493.3,187.2l26.9,17.2
	l-60.6,8.1l-22.7-17.3L493.3,187.2z M523.4,206.5l26.9,17.3l-63.8,9.4l-24.3-18.5L523.4,206.5z M509.9,254l-68,10.3l-20.5-19
	l64.4-9.5L509.9,254z M512.6,256.2l29.7,22.6l-72.2,12l-25.9-24.2L512.6,256.2z M545,280.8l35.1,26.7L503,321.4l-30.6-28.6
	L545,280.8z M582.9,309.6l41,31.2L541.3,357l-35.8-33.4L582.9,309.6z M586.4,309l76-13.7l45.8,29.2l-80.7,15.7L586.4,309z
	 M665.8,294.7l69.6-12.5l50,27.4L711.5,324L665.8,294.7z M739.1,281.5l68.9-12.4l53,25.7l-71.9,14L739.1,281.5z M811.8,268.4
	c26.4-4.8,52.9-9.5,79.3-14.3c2.3,5.2,4.5,10.5,6.8,15.7c-11,8.1-22.1,16.2-33.1,24.3L811.8,268.4z M859.8,132.9l-29.3-8.1l31.3-4.2
	l30,7.7L859.8,132.9z M824.4,123.2l-14.7-4l31.2-3.8l14.5,3.7L824.4,123.2z M803.5,117.4l-26.6-7.3l29.8-3.6l27.7,7.1L803.5,117.4z
	 M765.1,109.1l-33.3,4.1l-27.6-8.1l34.2-3.3L765.1,109.1z M658.4,122.1l-39.7,4.8l-28.4-10.7l40.3-3.9L658.4,122.1z M614.2,127.5
	l-20.3,2.5l-47.6,5.8l-5.8,0.7L514,123.7l23-2.3l28.6-2.8l19.8-1.9L614.2,127.5z M536.3,137l-50.2,6.1l-26-14.2l49.5-4.9L536.3,137z
	 M482.1,143.6L438,149l-24.3-15.4l42.2-4.1L482.1,143.6z M434.2,149.4l-49.6,6l-22.4-17l47.5-4.7L434.2,149.4z M380.9,156l-48.8,6
	l-19.9-18.6l46.1-4.5L380.9,156z M383.7,158.1l12.1,9.2l-51.2,6.3l-10.1-9.5L383.7,158.1z M398.7,169.5l11.6,8.8l-53,7.1l-10.2-9.5
	L398.7,169.5z M413,180.4l17.4,13.2l-55.9,7.9l-15-14L413,180.4z M433.2,195.7l22.7,17.3l-60.4,8.1l-18.6-17.4L433.2,195.7z
	 M458.8,215.1l24.4,18.5l-64,9.4L398,223.2L458.8,215.1z M438.3,264.8L363.8,276l-16-20l70.1-10.3L438.3,264.8z M440.6,267l26,24.3
	l-80,13.1l-20.8-26.1L440.6,267z M468.9,293.4l30.7,28.6l-86.5,15.6l-24.7-30.8L468.9,293.4z M501.9,324.2l35.9,33.5l-93.9,18.2
	L415,339.8L501.9,324.2z M540,359.8l43.5,40.6l-102.3,22.2l-35.6-44.4L540,359.8z M543.5,359.2l83.3-16.2l49.2,37.4l-89.2,19.3
	L543.5,359.2z M630.2,342.3l81.1-15.8l54,34.5l-85.9,18.6L630.2,342.3z M714.8,325.8l74.3-14.4l58.3,31.9l-78.8,17.1L714.8,325.8z
	 M792.7,310.7l72.2-14c12.4,9.2,24.9,18.4,37.3,27.6c-17.1,6.1-34.2,12.2-51.4,18.3L792.7,310.7z M861.1,118.3l-14.3-3.7l25.8-3.2
	l14.3,3.4L861.1,118.3z M840.2,112.9l-27.7-7.1l24.1-3l29.1,7L840.2,112.9z M805.9,104.1l-25.4-6.6l24.4-2.4l24.9,6L805.9,104.1z
	 M773.8,95.9l-21.5-5.5l23.2-2.2l22.3,5.4L773.8,95.9z M767.7,96.5L741.3,99l0,0l-3.6,0.3l-21.1-5.8l7.7-0.7l21.5-2L767.7,96.5z
	 M732,100l-33.9,3.3l-20.7-6.1l33.2-3.2L732,100z M656.2,107.4l-25.8,2.5l-18.7-6.6l24.8-2.3L656.2,107.4z M625.3,110.4l-40,3.9
	l-18.3-6.9l39.5-3.6L625.3,110.4z M580.5,114.7l-19.6,1.9l-25.2,2.5l-25.7,2.5l-15.7-7.6l36-3.3l12.9-1.2l18.9-1.7L580.5,114.7z
	 M505.5,122l-49.1,4.9l-14.6-8l48.1-4.4L505.5,122z M452.2,127.2l-41.8,4.1l-13.1-8.4l40.3-3.7L452.2,127.2z M406.5,131.7l-47.1,4.7
	l-11.6-8.8l45.5-4.2L406.5,131.7z M355.6,136.6l-45.7,4.5l-9.9-9.2l44-4L355.6,136.6z M306.2,141.6l-46.5,4.6l-7.8-9.7l44.4-4.1
	L306.2,141.6z M308.6,143.8l19.9,18.6l-50.9,6.2l-16.1-20.3L308.6,143.8z M330.8,164.6L341,174l-53.5,6.6l-7.8-9.8L330.8,164.6z
	 M343.3,176.2l10.2,9.5l-56.1,7.5l-8.3-10.4L343.3,176.2z M355.8,188l15.1,14.1l-59.7,8.4l-12-15L355.8,188z M373.2,204.2l18.6,17.4
	l-64.8,8.7l-14-17.5L373.2,204.2z M394.1,223.7l21.5,19.9L346,253.9l-17.1-21.4L394.1,223.7z M360.2,276.6l-79.9,12.1l-11.5-21
	l75.3-11.1L360.2,276.6z M362,278.9l20.9,26.2l-85.8,14.2L281.6,291L362,278.9z M384.8,307.3l24.7,30.9l-93,16.8l-18.2-33.3
	L384.8,307.3z M411.3,340.5l29,36.2l-101.2,19.7l-21.3-38.9L411.3,340.5z M442.1,378.9l35.5,44.4l-110.7,24l-26.6-48.6L442.1,378.9z
	 M479.5,425.6l45.5,56.8l-122.3,30.4l-34.5-63.1L479.5,425.6z M482.9,424.9l102.8-22.3l54.8,51.2l-112.2,27.8L482.9,424.9z
	 M589.1,401.8l89.6-19.4L740,429l-96.1,23.9L589.1,401.8z M682.1,381.7l86.4-18.6l66.4,42.5l-91.6,22.7L682.1,381.7z M771.8,362.3
	l79-17.1c14.1,11.4,28.1,22.8,42.2,34.2c-18.3,8.4-36.6,16.9-54.8,25.3L771.8,362.3z M904.5,111.5c-3.9,0.9-7.9,1.7-11.8,2.6
	l-14.1-3.4l27.5-3.4l-2-2.1C904.2,107.3,904.4,109.4,904.5,111.5z M903.8,105.1l-32.1,3.9l-29.1-7l31-3.8L903.8,105.1z M866.5,96.7
	l-30.6,3.7l-24.7-5.9l31.8-3.1L866.5,96.7z M835.7,89.8l-31.5,3.1l-22.4-5.4l31.1-2.9L835.7,89.8z M788.2,79.1l17.3,3.9l-30.9,2.9
	l-16.7-4L788.2,79.1z M751.4,82.3l16.7,4l-22.9,2.1l-16.1-4.1L751.4,82.3z M706.7,86.4L706.7,86.4l16.4-1.5l16.1,4.1l-20,1.8l-9,0.8
	l-15.5-4.3L706.7,86.4z M688.7,88l15.5,4.3l-33.1,3l-15-4.4L688.7,88z M650.5,91.5l15,4.4l-29.3,2.7L622.1,94L650.5,91.5z
	 M616.7,94.5l14.1,4.5l-24.5,2.3l-13.2-4.7L616.7,94.5z M588,97.1l13.3,4.7l-39.2,3.6l-13-4.8L588,97.1z M525.3,102.8l1-0.1l18-1.6
	l12.7,4.8l-18.6,1.6l-9.5,0.9l-38.7,3.6l-10.6-5.1L525.3,102.8z M475,107.2l10.6,5.1l-47.7,4.4l-9.8-5.3L475,107.2z M424,111.8
	l9.8,5.3l-39.8,3.7l-8.6-5.5L424,111.8z M381.3,115.6l8.6,5.5l-45,4.2l-7.5-5.7L381.3,115.6z M333.6,120l7.5,5.7l-43.6,4l-6.3-5.9
	L333.6,120z M287.5,124.1l6.3,5.9l-43.8,4l-4.9-6.1L287.5,124.1z M194.8,132.4l46.3-4.2l4.9,6.1l-47.9,4.4L194.8,132.4z
	 M199.6,141.1l48.6-4.3l7.8,9.8l-50.6,4.9L199.6,141.1z M206.5,153.7l51.2-5l16.2,20.3l-55.2,6.8L206.5,153.7z M220.1,178.1
	l55.8-6.8l7.8,9.8l-58.2,7.1L220.1,178.1z M226.8,190.5l58.8-7.2l8.3,10.4l-60.9,8.1L226.8,190.5z M234.3,204.1l61.5-8.2l12,15
	l-64.8,9.2L234.3,204.1z M244.3,222.4l65.3-9.2l14,17.5l-69.7,9.3L244.3,222.4z M325.4,232.9l17.1,21.4l-74.8,11l-12.6-23
	L325.4,232.9z M136,137.8l55.4-4.9l3.5,6.4l-56.8,5.2L136,137.8z M138.8,146.8l57.2-5.3l5.6,10.3l-59.5,5.8L138.8,146.8z M142.9,160
	l60.1-5.9l12,22.2l-64.6,7.9L142.9,160z M151.2,186.5l65.1-8l5.5,10.1l-67.4,8.2L151.2,186.5z M155,199.3l67.9-8.3l6.2,11.4
	l-70.3,9.3L155,199.3z M159.7,214.1l70.8-9.4l8.7,16L165,231.1L159.7,214.1z M165.8,233.5l74.7-10.6l9.6,17.5L171.2,251L165.8,233.5
	z M172,253.5l79.3-10.6L264,266l-84.2,12.4L172,253.5z M180.6,280.8l84.7-12.5l11.5,21l-89.3,13.5L180.6,280.8z M188.2,305.2
	l89.9-13.6l15.3,28.2l-95.7,15.9L188.2,305.2z M198.7,338.3l96.2-15.9l18.2,33.3l-103.2,18.6L198.7,338.3z M210.7,376.7L314.5,358
	l21.3,39l-111.9,21.7L210.7,376.7z M224.4,421.2l112.4-21.8l26.6,48.7l-122.3,26.5L224.4,421.2z M404.1,544.5
	c-13.1,1.2-26.2,2.4-39.2,3.5c-33.4,0.6-66.9,1.2-100.3,1.8l136-33.8C401.7,525.5,402.9,535,404.1,544.5z M263.8,547.3L241.9,477
	l122.9-26.6l34.7,63.2L263.8,547.3z M467.7,540.9c-21.2-8.6-42.4-17.2-63.7-25.7l122.9-30.5l58.5,72.9
	C546.2,552,507,546.5,467.7,540.9z M588.5,556.6l-58.2-72.7L642.9,456l69.1,64.5L588.5,556.6z M715.1,519.5l-69-64.4l96.5-23.9
	l76.2,58L715.1,519.5z M822,488.3l-76.1-57.9l92-22.8c16.8,15.9,33.6,31.9,50.5,47.8C866.3,466.4,844.1,477.3,822,488.3z"/>
<path class="st2" d="M901.5,500.6c5.3-10.6-1.5-23.2-9.2-32.2c-7.6-9.1-16.9-18.4-17.1-30.3c-0.3-17.1,17.4-27.7,31.6-37.2
	c10.5-7.1,20.1-15.3,28.6-24.6c3.4-3.7,6.7-7.7,8.6-12.4c2.8-6.7,2.4-14.3,2-21.6c-1.4-24.3-3.4-48.5-6-72.6"/>
<path class="st3" d="M967.4,267.4c-0.7-9-6-17-14-21.3l-5.6,11.9l-0.3-14.2c-14.2-3.7-28.7,4.9-32.4,19.1
	c-3.7,14.2,4.9,28.7,19.1,32.4c14.2,3.7,28.7-4.9,32.4-19.1C967.3,273.4,967.6,270.4,967.4,267.4L967.4,267.4z"/>
<path class="st3" d="M926,448.6c-6.3,13.2-22.1,18.9-35.4,12.6c-13.2-6.3-18.9-22.1-12.6-35.4c6.3-13.2,22.1-18.9,35.4-12.6
	c6,2.8,10.7,7.8,13.2,13.9l-16.1,14l18.1-4.8C928.7,440.6,927.8,444.8,926,448.6z"/>
<path class="st3" d="M911.2,397.5c-14.6,1.2-27.4-9.7-28.6-24.3l0,0c-0.3-4.1,0.3-8.3,1.9-12.2c3-7.3,9.1-12.9,16.6-15.3l0.2,10.9
	l5.6-12.1h0.1c14.6-1.2,27.4,9.7,28.6,24.3C936.7,383.5,925.8,396.3,911.2,397.5L911.2,397.5z"/>
<path class="st3" d="M974.2,352.5c-14.6,1.2-27.4-9.7-28.6-24.3c-1.2-14.6,9.7-27.4,24.3-28.6c5-0.4,9.9,0.6,14.3,2.9l-4.3,13
	l9.3-9.6c5.3,4.6,8.6,11.1,9.1,18c0.2,2.5,0.1,4.9-0.4,7.3C995.7,342.9,986,351.5,974.2,352.5z"/>
<path class="st4" d="M964,274.6c-6.1,0.9-12,3-18.1,3.6s-12.9-0.7-17-5.3c-2.2-2.5-3.3-5.7-5.2-8.5c-1.8-2.6-4.1-4.6-6.9-6.1
	c-6.2,13.3-0.4,29.1,12.9,35.3c13.3,6.2,29.1,0.4,35.3-12.9c1-2.1,1.6-4.2,2.1-6.4C966,274.4,965,274.5,964,274.6z"/>
<path class="st4" d="M974.2,352.5c-14.6,1.2-27.4-9.7-28.6-24.3c-0.3-4.3,0.4-8.7,2.1-12.7c2.2,1.3,4,3.1,5.5,5.2
	c2,2.8,3.2,6,5.6,8.6c4.3,4.7,11.4,6.1,17.8,5.6s12.5-2.5,18.9-3.3c0.9-0.1,1.8-0.2,2.7-0.2C995.7,342.9,986,351.6,974.2,352.5z"/>
<path class="st4" d="M911.2,397.5c-14.6,1.2-27.4-9.7-28.6-24.3l0,0c-0.3-4.1,0.3-8.3,1.9-12.2c2.2,1.4,4.2,3.1,5.8,5.2
	c2.2,2.8,3.6,6.1,6,8.8c4.6,4.8,12.2,6.3,19,6c6.6-0.4,12.8-2.2,19.4-2.9C931.8,388.8,922.4,396.6,911.2,397.5z"/>
<path class="st4" d="M926,448.6c-6.4,13.2-22.3,18.7-35.5,12.2c-12-5.8-17.8-19.6-13.6-32.3c2.2,1.4,4.3,3,6,5
	c2.6,3,4.4,6.4,7.4,9.2c5.6,5.1,14.5,7,22.2,7C917.1,449.6,921.6,449.2,926,448.6z"/>
<ellipse class="st5" cx="496.7" cy="532.5" rx="483.6" ry="40.2"/>
<g class="st6">
	<path class="st3" d="M59.3,66.1c-1.4-5.7,0.2-11.7,4.3-16l5.9,6.2l-2.7-8.8c8-5.2,18.7-2.8,23.8,5.2c5.2,8,2.8,18.7-5.2,23.8
		c-8,5.2-18.7,2.8-23.8-5.2C60.5,69.7,59.7,68,59.3,66.1L59.3,66.1z"/>
	<path class="st4" d="M62.8,69.8c3.9-0.7,8-0.6,11.9-1.5c3.9-0.9,7.8-3,9.4-6.7c0.8-2,0.9-4.2,1.5-6.3c0.6-1.9,1.6-3.7,3-5.1
		c6.5,6.9,6.2,17.8-0.7,24.4c-6.9,6.5-17.8,6.2-24.4-0.7c-1-1.1-1.9-2.3-2.6-3.6C61.5,70.1,62.2,70,62.8,69.8z"/>
</g>
<g class="st6">
	<path class="st3" d="M922,31.8c4.5-3.2,10.3-3.9,15.4-1.8l-3.4,7.3l6.7-5.4c7.3,5.2,8.9,15.2,3.8,22.5c-5.2,7.3-15.2,8.9-22.5,3.8
		c-7.3-5.2-8.9-15.2-3.8-22.5C919.2,34.1,920.5,32.8,922,31.8L922,31.8z"/>
	<path class="st4" d="M919.9,36.2c2,3.2,3.3,6.7,5.4,9.8c2.1,3.1,5.4,5.7,9.1,5.8c2,0,4-0.7,6-0.9c1.9-0.2,3.8,0.1,5.5,0.8
		c-3.8,8.1-13.3,11.6-21.4,7.8c-8.1-3.8-11.6-13.3-7.8-21.4c0.6-1.2,1.3-2.4,2.2-3.5C919.3,35.1,919.6,35.6,919.9,36.2z"/>
</g>
<g class="st7">
	<path class="st2" d="M113.7,415.3c-6.3-10-0.7-23.2,6-32.9c6.7-9.7,15-19.9,14.1-31.8c-1.4-17-20-25.9-35-33.9
		c-11.1-6-21.4-13.3-30.8-21.7c-3.8-3.4-7.4-7-9.8-11.5c-3.4-6.4-3.8-14-4.1-21.3c-0.9-24.3-1.3-48.6-1-72.9"/>
	<path class="st8" d="M25.6,189.6c-0.1-9,4.3-17.5,11.8-22.5l6.7,11.4L43,164.2c13.8-5,29,2,34.1,15.8c5,13.8-2,29-15.8,34.1
		c-13.8,5-29-2-34.1-15.8C26.2,195.5,25.7,192.6,25.6,189.6L25.6,189.6z"/>
	<path class="st8" d="M84.2,365.9c7.5,12.6,23.8,16.7,36.4,9.2s16.7-23.8,9.2-36.4S106,322,93.4,329.5c-5.7,3.4-9.9,8.8-11.8,15.2
		L99,357.1L80.5,354C80.8,358.2,82.1,362.3,84.2,365.9z"/>
	<path class="st8" d="M94,313.6c14.7-0.2,26.3-12.3,26.1-27c-0.2-12.4-8.9-23-21-25.5l0.8,10.9l-6.7-11.4h-0.1
		c-14.7,0.1-26.5,12-26.5,26.6c0.1,14.7,12,26.5,26.6,26.5C93.6,313.6,93.8,313.6,94,313.6L94,313.6z"/>
	<path class="st8" d="M27,274.9c14.7-0.2,26.3-12.3,26.1-27c-0.2-14.7-12.3-26.3-27-26.1c-5,0.1-9.8,1.6-14,4.3l5.5,12.6L7.4,230
		c-4.9,5.1-7.5,11.8-7.4,18.8c0,2.5,0.4,4.9,1.1,7.3C4.6,267.5,15.1,275.2,27,274.9z"/>
	<path class="st9" d="M29.6,196.4c6.2,0.3,12.2,1.8,18.4,1.8s12.8-1.9,16.4-6.9c1.9-2.7,2.8-6,4.4-8.9c1.5-2.7,3.7-5,6.3-6.7
		c7.4,12.7,3.1,28.9-9.5,36.3c-12.7,7.4-28.9,3.1-36.3-9.5c-1.1-1.9-2-3.9-2.6-6.1C27.6,196.4,28.6,196.4,29.6,196.4z"/>
	<path class="st9" d="M27,274.9c14.7-0.2,26.4-12.3,26.1-27c-0.1-4.3-1.2-8.6-3.3-12.4c-2,1.6-3.7,3.5-5,5.7c-1.7,3-2.6,6.3-4.7,9.1
		c-3.8,5.1-10.8,7.1-17.2,7.3c-6.4,0.1-12.7-1.3-19.1-1.5c-0.9,0-1.8,0-2.7,0C4.6,267.5,15.1,275.1,27,274.9z"/>
	<path class="st9" d="M94,313.6c14.7-0.2,26.3-12.3,26.1-27c-0.1-4.2-1.1-8.2-3.1-11.9c-2.1,1.6-3.9,3.5-5.3,5.7
		c-1.9,3-2.9,6.5-5.2,9.3c-4.1,5.3-11.6,7.5-18.3,7.8c-6.6,0.3-13-0.9-19.5-1C72.8,307,82.9,313.8,94,313.6z"/>
	<path class="st9" d="M84.2,365.9c7.5,12.6,23.8,16.7,36.4,9.1c11.6-7,16.1-21.5,10.5-33.8c-2.1,1.6-3.9,3.4-5.5,5.6
		c-2.3,3.2-3.8,6.8-6.5,9.9c-5.1,5.7-13.7,8.4-21.4,9.1C93.2,366.1,88.7,366.1,84.2,365.9z"/>
</g>
<path class="st1" d="M906.8,8.7v20.4H106.6V8.7c0-3.9,3.1-7,7-7l0,0h786.2C903.6,1.7,906.8,4.8,906.8,8.7L906.8,8.7z"/>
<path class="st1" d="M211.3,29.1v471.7c0,0-42.7-0.2-104.7-1.1V29.1H211.3z"/>
<path class="st1" d="M906.8,29.1v472.5c-0.4,0.3-38.2-0.4-39.8,0.2h-65V29.1H906.8z"/>
<rect x="121" y="52.1" class="st10" width="75.9" height="9.5"/>
<rect x="121" y="73.9" class="st10" width="75.9" height="9.5"/>
<rect x="121" y="95.7" class="st10" width="75.9" height="9.5"/>
<rect x="121" y="117.6" class="st10" width="75.9" height="9.5"/>
<rect x="121" y="139.4" class="st10" width="75.9" height="9.5"/>
<rect x="121.2" y="203.8" class="st10" width="75.9" height="9.5"/>
<rect x="121.2" y="225.7" class="st10" width="75.9" height="9.5"/>
<rect x="121.2" y="247.5" class="st10" width="75.9" height="9.5"/>
<rect x="121.2" y="269.3" class="st10" width="75.9" height="9.5"/>
<rect x="121.2" y="291.1" class="st10" width="75.9" height="9.5"/>
<rect x="121.5" y="355.6" class="st10" width="75.9" height="9.5"/>
<rect x="121.5" y="377.4" class="st10" width="75.9" height="9.5"/>
<rect x="121.5" y="399.2" class="st10" width="75.9" height="9.5"/>
<rect x="121.5" y="421" class="st10" width="75.9" height="9.5"/>
<rect x="121.5" y="442.8" class="st10" width="75.9" height="9.5"/>
<rect x="807.7" y="33.2" class="st10" width="9.5" height="9.5"/>
<rect x="819.1" y="33.2" class="st10" width="9.5" height="9.5"/>
<rect x="830.5" y="33.2" class="st10" width="9.5" height="9.5"/>
<rect x="841.9" y="33.2" class="st10" width="9.5" height="9.5"/>
<rect x="853.3" y="33.2" class="st10" width="9.5" height="9.5"/>
<rect x="807.7" y="73" class="st10" width="9.5" height="9.5"/>
<rect x="819.1" y="73" class="st10" width="9.5" height="9.5"/>
<rect x="830.5" y="73" class="st10" width="9.5" height="9.5"/>
<rect x="841.9" y="73" class="st10" width="9.5" height="9.5"/>
<rect x="853.3" y="73" class="st10" width="9.5" height="9.5"/>
<rect x="807.7" y="112.8" class="st10" width="9.5" height="9.5"/>
<rect x="819.1" y="112.8" class="st10" width="9.5" height="9.5"/>
<rect x="830.5" y="112.8" class="st10" width="9.5" height="9.5"/>
<rect x="841.9" y="112.8" class="st10" width="9.5" height="9.5"/>
<rect x="853.3" y="112.8" class="st10" width="9.5" height="9.5"/>
<rect x="807.7" y="152.6" class="st10" width="9.5" height="9.5"/>
<rect x="819.1" y="152.6" class="st10" width="9.5" height="9.5"/>
<rect x="830.5" y="152.6" class="st10" width="9.5" height="9.5"/>
<rect x="841.9" y="152.6" class="st10" width="9.5" height="9.5"/>
<rect x="853.3" y="152.6" class="st10" width="9.5" height="9.5"/>
<rect x="807.7" y="192.5" class="st10" width="9.5" height="9.5"/>
<rect x="819.1" y="192.5" class="st10" width="9.5" height="9.5"/>
<rect x="830.5" y="192.5" class="st10" width="9.5" height="9.5"/>
<rect x="841.9" y="192.5" class="st10" width="9.5" height="9.5"/>
<rect x="853.3" y="192.5" class="st10" width="9.5" height="9.5"/>
<rect x="807.7" y="232.3" class="st10" width="9.5" height="9.5"/>
<rect x="819.1" y="232.3" class="st10" width="9.5" height="9.5"/>
<rect x="830.5" y="232.3" class="st10" width="9.5" height="9.5"/>
<rect x="841.9" y="232.3" class="st10" width="9.5" height="9.5"/>
<rect x="853.3" y="232.3" class="st10" width="9.5" height="9.5"/>
<rect x="807.7" y="272.1" class="st10" width="9.5" height="9.5"/>
<rect x="819.1" y="272.1" class="st10" width="9.5" height="9.5"/>
<rect x="830.5" y="272.1" class="st10" width="9.5" height="9.5"/>
<rect x="841.9" y="272.1" class="st10" width="9.5" height="9.5"/>
<rect x="853.3" y="272.1" class="st10" width="9.5" height="9.5"/>
<rect x="807.7" y="311.9" class="st10" width="9.5" height="9.5"/>
<rect x="819.1" y="311.9" class="st10" width="9.5" height="9.5"/>
<rect x="830.5" y="311.9" class="st10" width="9.5" height="9.5"/>
<rect x="841.9" y="311.9" class="st10" width="9.5" height="9.5"/>
<rect x="853.3" y="311.9" class="st10" width="9.5" height="9.5"/>
<rect x="807.7" y="351.8" class="st10" width="9.5" height="9.5"/>
<rect x="819.1" y="351.8" class="st10" width="9.5" height="9.5"/>
<rect x="830.5" y="351.8" class="st10" width="9.5" height="9.5"/>
<rect x="841.9" y="351.8" class="st10" width="9.5" height="9.5"/>
<rect x="853.3" y="351.8" class="st10" width="9.5" height="9.5"/>
<rect x="807.7" y="391.6" class="st10" width="9.5" height="9.5"/>
<rect x="819.1" y="391.6" class="st10" width="9.5" height="9.5"/>
<rect x="830.5" y="391.6" class="st10" width="9.5" height="9.5"/>
<rect x="841.9" y="391.6" class="st10" width="9.5" height="9.5"/>
<rect x="853.3" y="391.6" class="st10" width="9.5" height="9.5"/>
<rect x="807.7" y="431.4" class="st10" width="9.5" height="9.5"/>
<rect x="819.1" y="431.4" class="st10" width="9.5" height="9.5"/>
<rect x="830.5" y="431.4" class="st10" width="9.5" height="9.5"/>
<rect x="841.9" y="431.4" class="st10" width="9.5" height="9.5"/>
<rect x="853.3" y="431.4" class="st10" width="9.5" height="9.5"/>
<rect x="807.7" y="471.2" class="st10" width="9.5" height="9.5"/>
<rect x="819.1" y="471.2" class="st10" width="9.5" height="9.5"/>
<rect x="830.5" y="471.2" class="st10" width="9.5" height="9.5"/>
<rect x="841.9" y="471.2" class="st10" width="9.5" height="9.5"/>
<rect x="853.3" y="471.2" class="st10" width="9.5" height="9.5"/>
<path class="st11" d="M661.9,130.4v202.5l-216.5,48.9L368.6,284l-6.8-195.6l0,0C426,80,490.3,71.6,554.5,63.2
	C590.3,85.7,626.1,108,661.9,130.4z"/>
<polygon class="st4" points="661.9,131.8 661.9,332.9 447.7,381.3 445.4,381.8 368.6,284.1 361.9,88.5 441.9,161.8 "/>
<polygon class="st4" points="661.9,132.5 661.9,332.9 447.7,381.3 441.9,161.8 658.4,133.9 "/>
<polygon class="st3" points="543,112.6 532.3,94.1 521.7,75.6 511,94.1 500.3,112.6 518.5,112.6 518.5,197.9 524.8,197.9 
	524.8,112.6 "/>
<polygon class="st3" points="608,289.8 597.3,271.3 589.9,284.1 534.8,231.9 530.5,236.4 586.7,289.7 586.6,289.8 576,308.2 
	597.3,308.2 618.6,308.2 "/>
<polygon class="st3" points="633.3,190.6 613.3,183.2 616.6,202.5 544.7,215.3 545.8,221.5 617.7,208.7 620.6,225.3 636.9,211.6 
	653.3,197.9 "/>
<linearGradient id="SVGID_1_" gradientUnits="userSpaceOnUse" x1="1716.1432" y1="-260.1299" x2="1716.1432" y2="173.7493" gradientTransform="matrix(1 0 0 -1 -1518.79 283.37)">
	<stop  offset="0" style="stop-color:#808080;stop-opacity:0.25"/>
	<stop  offset="0.54" style="stop-color:#808080;stop-opacity:0.12"/>
	<stop  offset="1" style="stop-color:#808080;stop-opacity:0.1"/>
</linearGradient>
<path class="st12" d="M267.8,242.4c-1.6-10.7-11.3-35.5-11.3-35.5l0,0c-0.2-0.7-0.4-1.5-0.6-2.2c-6.9-23.6-16.4-25.7-16.4-25.7
	l-34.1-7.3c0.3,0.2,0.5,0.4,0.7,0.7c-0.2,0-0.4,0-0.5,0.1c-1.6-1.8-2.6-4.1-3-6.5c-0.1-0.4-0.1-0.7-0.2-1.1
	c9.5-9.2,9.7-24.4,0.4-33.9c-0.7-0.8-1.5-1.5-2.4-2.1c-0.4-0.3-0.7-0.5-1.1-0.8c1.6-1.7,1.7-4.1,0.5-6.5c-2.7-5.6-8.5-9.1-14.5-10.8
	c-4.6-1.3-9.6-1.7-14.1-0.3c-2.5,0.9-5,2.1-7.4,3.4c-4.5,2.3-9.5,4-12.9,7.8c-0.9,0.8-1.4,1.9-1.3,3.1c0.3,0.8,0.7,1.6,1.3,2.3
	c0.9,1.7,0.7,3.8,0.1,5.7c-0.7,1.8-1.6,3.6-2.1,5.5s-0.3,4.1,1.1,5.5c0.7,0.5,1.4,1,2.1,1.5c0.8,0.7,1.5,1.4,2,2.3l4,5.5
	c1.9,2.4,3.6,5,5,7.7c0.9,2,1.9,4,3.1,5.9c0.4,0.5,0.8,1,1.3,1.4l-0.4-0.2c1.2,1.2,2.8,1.8,4.5,1.7h0.2c0.3,0,0.6-0.1,0.8-0.3v0.7
	c0.1,2.6,0.1,5.4-0.1,8l-0.3-0.2c-1-0.5-2.1-0.4-2.9,0.3l-31.4,25.2c0,0-6.8,9.3-5.9,25.4l-5.5,24.2c0,0-6.9,20.5-1.6,35.1
	c5.3,14.6,8.4,23,8.4,23s2.1,16.6,5.3,18s4.6,2.1,4.6,2.1l0.6,4l0,0c0,0,0.2,0.4,0.6,1c2.3,4,10.9,18.2,15.9,16.7
	c0.6,3.9,0.9,7.8,0.8,11.7l4.9,33c0,0,3.4,9,3.2,13.7s4,11.4,4,11.4c-2.6,4.7-3.3,10.2-2.1,15.4c2,8.8,4.6,49.4,4.6,49.4l3.7,9.8
	l-0.1,11.4c-0.3,1.9-1.1,3.6-2.3,5.1c-2.4,2.6-2.2,5.6-7.9,9.1s-9.4,4.9-9.4,9.6c0,0.6-0.1,1.3-0.2,1.9c-0.5,3.4-1.6,5.3,9,6.3
	c7.5,0.6,15-1.9,20.6-6.9c0,0,1.8-3.3,10.4-4.6c0,0,2.9-0.2,3.1-2.7c0.1-0.9,0-2.6,0-4.5c-0.1-3.6-0.5-7.8-0.9-8
	c-0.5-0.2-1.6-3.9-1.9-5.2h2.4c0,0,2.2-16.6,0-27.4s-0.2-18.4-0.2-18.4l-0.4-28.4c0,0-3-3.1-0.6-8.7c2.3-5.5,0-32.9,0-32.9
	s0.9-9.8,3.3-12.1c2.4-2.3,0.1-14.4,0-15l4.3,14.5c0,0,1.9,28.9,5.9,34.1l1.2,13.1c0,0,8.2,12,6.6,18.5s1.7,29.9,1.7,29.9v24
	c0,0-3.7,9.6,1.5,13.1l2.2-0.1c-0.8,0.7-1.3,1.7-2.2,2.6c-1,1-1.6,4.9-1.9,8.2c-0.3,2.8-0.4,5.3-0.4,5.3c1.4,2.1,3.8,3.5,6.4,3.8
	c4.1,0.2,17.8,10.7,17.8,10.7s13.5,0,17-0.7h0.2c1.1-0.4,2.1-1.1,2.6-2.2c0.7-1.2,0.9-2.6,0.6-4c-0.4-2.1-2.1-4.3-5.7-6.2
	c-9.1-4.7-10.4-9.2-10.4-9.2L246,512h0.8c0,0-0.5-9.4,5.9-20l-0.4-46.6c0,0,2.6-16-1.9-24.7c0,0-0.4-9.2,2.7-12c3-2.8-4-31.4-4-31.4
	s-1.5-15.3-3.2-29.3l0,0c7.1,6.8,14.6-17.6,15.8-21.9h0.2c0,0,0-0.1-0.1-0.3l0.1-0.3l0,0c0,0-1.6-5.6-0.4-4.5s4-3.1,4-3.1
	s-0.4-23.3,4.6-35.1C275,271,267.8,242.4,267.8,242.4z M246.5,257.3L246.5,257.3c0.7,14.2-0.1,44.6-0.1,44.6s-0.9,3.9-2,8.5
	l-0.7-28.9l0,0l-0.7-27.2L246.5,257.3z M155.5,247.5c0,0,3.6,45,0,51.5c-1,1.8-1.9,5.1-2.6,8.9c-1.2-3.1-3.7-10.4-2.8-14.3
	c1.2-5-2.3-18.2-2.3-18.5s-0.3-7.3,2.2-12.7c2.5-5.4,0.8-7.7,0.8-7.7S152.9,245.7,155.5,247.5L155.5,247.5z"/>
<path class="st13" d="M164.2,348.7c-3.1,13.8-15.6-7-18.4-12l-0.6-1l1.4-6.3l7.1-2.9c1.1,0.6,2.2,1.3,3.2,2.1
	C160.8,331.5,166.6,338,164.2,348.7z"/>
<path class="st13" d="M260.9,326.2c0,0,0,0.1-0.1,0.3l-0.1,0.3c-1.2,4.3-8.5,28.5-15.5,21.8c-7.7-7.4-3.9-24.3-3.9-24.3l0,0
	l16.1-1.6l3.2,3.3l0,0L260.9,326.2z"/>
<path class="st14" d="M251.5,445.3l0.4,46.2c-6.3,10.5-5.8,19.8-5.8,19.8l-20.9,0.8c-5.1-3.4-1.5-13-1.5-13v-23.8
	c0,0-3.2-23.2-1.7-29.7s-6.5-18.4-6.5-18.4l-1.1-13c-3.9-5.2-5.8-33.9-5.8-33.9l-4.2-14.4c0.1,0.6,2.3,12.7,0,14.9
	c-2.3,2.2-3.2,12-3.2,12s2.3,27.2,0,32.7s0.6,8.6,0.6,8.6l0.4,28.2c0,0-2,7.6,0.2,18.3s0,27.2,0,27.2H180l0.1-11.5l-3.6-9.8
	c0,0-2.5-40.3-4.5-49c-1.2-5.2-0.4-10.6,2.1-15.3c0,0-4.2-6.6-3.9-11.3s-3.1-13.5-3.1-13.5l-4.8-32.8c0.1-6.3-0.7-12.6-2.4-18.7
	c-2.8-9.3-7-21.6-7-21.6l4.7,0.4l23.7,2.1c0,0,57.5-3.9,60.1-0.7c0.5,1,0.9,2.2,1.1,3.3c2.6,11.6,6,47.9,6,47.9s7,28.3,4,31.1
	s-2.6,11.9-2.6,11.9C254.1,429.4,251.5,445.3,251.5,445.3z"/>
<path class="st15" d="M202.9,525.6c-0.2,2.6-3,2.7-3,2.7c-8.4,1.3-10.2,4.6-10.2,4.6c-5.5,5-12.8,7.4-20.2,6.9
	c-10.3-0.9-9.3-2.8-8.8-6.3c0.1-0.6,0.2-1.3,0.2-1.9c0-4.7,3.6-6,9.2-9.5c5.6-3.5,5.4-6.5,7.8-9c2.3-2.6,2.6-7.6,2.6-7.6
	c2.6-4.6,9.3,0.7,9.3,0.7c0.3,1.6,10.3,1.4,10.3,1.4s1.3,5.3,2,5.6c0.5,0.2,0.8,4.4,0.9,7.9C202.9,523,203,524.7,202.9,525.6z"/>
<path class="st4" d="M202.9,525.6c-0.2,2.6-3,2.7-3,2.7c-8.4,1.3-10.2,4.6-10.2,4.6c-5.5,5-12.8,7.4-20.2,6.9
	c-10.3-0.9-9.3-2.8-8.8-6.3c4.6,1.1,13.5,2.7,18.6-0.1c7.2-3.9,12.3-6.6,12.3-6.6l11.3-5.7C202.9,523,203,524.7,202.9,525.6z"/>
<path class="st15" d="M266.3,539.4c-0.6,1-1.5,1.8-2.6,2.1h-0.2c-3.4,0.7-16.7,0.7-16.7,0.7s-13.4-10.3-17.4-10.6
	c-2.5-0.3-4.8-1.7-6.2-3.8c0,0,0.1-2.4,0.3-5.2c0.3-3.3,0.9-7.2,1.8-8.2c1.8-1.9,2.2-4.4,6.2-2.8c0,0,5.8-10.1,12.5-2.3l7,10.6
	c0,0,1.3,4.4,10.2,9.2c3.6,1.9,5.2,4.1,5.6,6.2C267.2,536.7,267,538.2,266.3,539.4z"/>
<path class="st4" d="M266.3,539.4c-0.8,0.7-1.7,1.4-2.6,2.1h-0.2c-3.4,0.7-16.7,0.7-16.7,0.7s-13.4-10.3-17.4-10.6
	c-2.5-0.3-4.8-1.7-6.2-3.8c0,0,0.1-2.4,0.3-5.2c4.1,1.2,10.4,3.4,12,5.8c2.6,3.6,10.4,8.5,10.4,8.5s14.5-1.4,21-1.6
	C267.2,536.8,267,538.2,266.3,539.4z"/>
<path class="st13" d="M209.7,177.1l-19.2,20.2c0,0-23.2-1.7-19.2-8.5c2.1-3.5,2.4-10.8,2.2-17.2c-0.2-6.1-0.8-11.4-0.8-11.4
	s32.6-16.2,30.1-1.1c-0.5,2.8-0.6,5.8-0.1,8.6C204.1,175.5,209.7,177.1,209.7,177.1z"/>
<path class="st4" d="M202.8,159.2c-0.5,2.8-0.6,5.8-0.1,8.6c-4.3,4.4-10.4,3.4-17.1,3.4c-4.4,0-9.2,0.1-12.7-2
	c-0.2-6.1-0.2-8.9-0.2-8.9S205.3,144.1,202.8,159.2z"/>
<path class="st13" d="M209.7,149.7c0,13.2-10.7,24-24,24c-13.2,0-24-10.7-24-24c0-13.2,10.7-24,24-24
	C198.9,125.8,209.7,136.5,209.7,149.7z"/>
<path class="st4" d="M242.3,329.7c-6,14.2-44.4,14.5-44.4,14.5v-15.5l-2.3-0.2c1,4.4-1.4,15.3-1.4,15.3c-30.3,4.3-37.8-13-37.8-13
	l1.1-5.9l23.7,2.1c0,0,57.5-3.9,60.1-0.7C241.8,327.4,242.1,328.6,242.3,329.7z"/>
<path class="st16" d="M197.9,342.4v-15.5l-2.3-0.2c1,4.4-1.4,15.3-1.4,15.3c-22.9,3.2-32.7-5.8-36.2-10.4c-0.6-0.8-1.2-1.7-1.6-2.6
	l9.3-52.2l2.2-76.8l3.3-13.5l0.8-6.5l0,0h0.1l2.4,1l14.1,6.1l16.1-12.1l0.2-0.2l0.8-0.6l1.3,1.1l3.3,2.6l10.6,68.4
	c0,0,18.4,52.6,21.8,73.9c0.1,0.8,0.2,1.6,0.3,2.4C245.3,342,197.9,342.4,197.9,342.4z"/>
<circle class="st17" cx="190.3" cy="188.7" r="1.4"/>
<circle class="st17" cx="190.9" cy="201.1" r="1.4"/>
<circle class="st17" cx="192.3" cy="221.3" r="1.4"/>
<circle class="st17" cx="194.5" cy="243" r="1.4"/>
<circle class="st17" cx="195.9" cy="263.4" r="1.4"/>
<circle class="st17" cx="197.3" cy="285.1" r="1.4"/>
<circle class="st17" cx="196.7" cy="306.6" r="1.4"/>
<path class="st4" d="M172.9,284.4c0,0-1.5,20-4.3,25.8s-4,22.1-4,22.1l-6.5-0.7c-0.6-0.8-1.2-1.7-1.6-2.6l9.3-52.2L168,200l3.3-13.5
	l0.8-6.5h0.1c0.7-0.4,1.6-0.4,2.3,0l0.3,0.2c-0.1,0.3-0.2,0.5-0.3,0.8c-2.5,7.9-3.5,22.6-3.5,22.6s3.6,26.8,4,39.2
	S172.9,284.4,172.9,284.4z"/>
<path class="st4" d="M156.9,328.5c-0.1,0.2-0.2,0.3-0.3,0.5c-2.5,4.3-8.9,7-10.9,7.7l-0.6-1l1.4-6.3l7.1-2.9
	C154.8,327,155.9,327.7,156.9,328.5z"/>
<path class="st18" d="M139.6,226.5l-5.9,3.5l-5.4,24c0,0-6.8,20.3-1.6,34.9c5.2,14.5,8.2,22.8,8.2,22.8s2.1,16.5,5.2,17.9
	c3.1,1.3,4.5,2.1,4.5,2.1l0.6,3.9c0,0,8.4-2.8,11.4-7.9s-2.2-17.6-2.2-17.6s-4.5-10.7-3.3-15.7c1.1-5-2.3-18-2.3-18.4
	s-0.3-7.3,2.2-12.6c2.5-5.3,0.8-7.6,0.8-7.6l-1.6-15.3L139.6,226.5z"/>
<path class="st4" d="M242.8,325.2c0,0-15.7,5.9-20.7,0.7s-4.5-29.5-4.5-29.5s-4.7-44.8-7.8-52.2c-3-7.4-1.5-60.5-1.5-60.5
	s-2-6.9-3.8-8.7c-0.1-0.1-0.2-0.2-0.4-0.3l0.6,0.1l2.1,0.5l3.3,2.6l10.6,68.4c0,0,18.4,52.6,21.8,73.9L242.8,325.2z"/>
<path class="st4" d="M260.9,326.8h-0.2c-2,0.3-19.4,2.4-19.5-1.3c0-0.4,0-0.8,0.1-1.3l16.1-1.6l3.2,3.3l0,0c0.1,0.2,0.1,0.4,0.2,0.5
	L260.9,326.8z"/>
<path class="st18" d="M244.1,202.5l11.5,6c0,0,9.5,24.7,11.1,35.3c0,0,7.1,28.4,2.2,40c-4.9,11.7-4.5,34.8-4.5,34.8s-2.8,4.3-4,3.1
	s0.4,4.5,0.4,4.5s-19.6,2.6-19.6-1.2c-0.1-3.8,4.5-22.2,4.5-22.2s1.2-43.7-0.5-50.6C243.4,245.3,244.1,202.5,244.1,202.5z"/>
<path class="st4" d="M210,249c0,0-6.4,15.8-8.5,16.8s0.4,5.2,0.4,5.2S213.6,254.6,210,249z"/>
<path class="st4" d="M206.1,193.7c0.1-0.3-7.7,7.6-9.8,8.8C194.3,203.7,204,202.4,206.1,193.7z"/>
<path class="st4" d="M184.5,247.8c0,0-11.8,7.7-10.3,10.7C175.8,261.5,184.5,247.8,184.5,247.8z"/>
<path class="st4" d="M206,359.5c0,0,10.1,6.5,25.8,8.1L206,359.5z"/>
<path class="st4" d="M181.8,375.1c0,0,9.3,11.7,13.6,12C199.7,387.4,181.8,375.1,181.8,375.1z"/>
<path class="st4" d="M194.9,421.1c-0.4,0.2-5.3,10.6-10.3,10.9C179.7,432.3,194.9,421.1,194.9,421.1z"/>
<path class="st4" d="M238.2,443.8c0,0,9.3-2.1,11.3,4.6C249.5,448.4,248.9,446.3,238.2,443.8z"/>
<path class="st4" d="M232,481.8c0,0,11.2-2.3,13.6,0.8S232,481.8,232,481.8z"/>
<path class="st4" d="M200.3,487.1c0,0.1-11.4,2.3-11,3.7c0.4,1.5,12.2,1.2,12.6-1c0.3-1.2-0.4-2.3-1.5-2.7
	C200.3,487.1,200.3,487.1,200.3,487.1z"/>
<path class="st4" d="M228.3,496.9c0,0,18.8-2.3,17.6,1.7S228.3,496.9,228.3,496.9z"/>
<path class="st4" d="M130,265.8c0.1,0.3,12.3,2,14,5.9c0,0-12-5.6-13.9-5.6"/>
<path class="st4" d="M147.3,297.9c0,0-10.2,3.2-9.5,8.1S136.8,303.7,147.3,297.9z"/>
<path class="st4" d="M142.5,322.6c0,0,3.7-5.1,7.2-4.2C153.3,319.4,142.5,322.6,142.5,322.6z"/>
<path class="st4" d="M200.6,131c-0.4,0.3-0.8,0.6-1.2,0.9c-2.9,1.7-3.7,4.3-5.2,7.4c-1.3,2.8-2.7,5.7-5.3,7.3
	c-3.4,2-7.8,1.3-11.4,3.1c-3.2,1.7-5,5.1-4.7,8.7c0.2,1.3,0.6,2.7,1,4c0.8,2.8,1.2,5.7,1.1,8.6c0,0.1,0,0.2,0,0.3
	c-11.8-5.9-16.6-20.3-10.7-32.2s20.3-16.6,32.2-10.7C197.9,129,199.3,129.9,200.6,131L200.6,131z"/>
<path class="st19" d="M200,123.8c-2.6-5.5-8.4-9-14.2-10.7c-4.5-1.3-9.4-1.7-13.8-0.3c-2.5,0.9-4.9,2.1-7.2,3.4
	c-4.4,2.2-9.3,4-12.7,7.7c-0.9,0.8-1.3,1.9-1.3,3.1c0.3,0.8,0.7,1.6,1.3,2.2c0.9,1.7,0.7,3.8,0.1,5.7c-0.6,1.9-1.6,3.5-2.1,5.4
	s-0.3,4.1,1.1,5.4c0.7,0.5,1.4,1,2.1,1.5c0.8,0.7,1.4,1.4,2,2.3l4,5.4c1.9,2.4,3.5,4.9,5,7.6c0.8,2,1.9,4,3.1,5.8
	c1.3,1.8,3.4,3.2,5.6,3c0.3,0,0.7-0.1,0.9-0.4c0.1-0.2,0.1-0.4,0.1-0.5c0.1-2.9-0.3-5.8-1.1-8.6c-0.4-1.3-0.8-2.6-1-4
	c-0.3-3.6,1.5-7,4.7-8.7c3.5-1.8,8-1,11.4-3.1c2.6-1.6,4.1-4.5,5.3-7.3c1.4-3,2.2-5.7,5.2-7.4C201.2,129.6,201.5,126.7,200,123.8z"
	/>
<path class="st4" d="M189.3,515.8c0,0,3.7,4.7,2.7,7.3S189.3,515.8,189.3,515.8z"/>
<path class="st4" d="M238.9,527.4c0,0,0.8-6.3,4.1-6.3c3.3-0.1,3.4-0.3,5.9,0.6c2.5,0.9,4.8,2.5,4.1,2.7s-4.3-3.6-7.9-1.6
	C242.8,524,240.7,525.6,238.9,527.4z"/>
<path class="st4" d="M178.4,195l10.2-7.2c0,0-15-8.9-16.8-7.6s-3,12.5-3,12.5L178.4,195z"/>
<path class="st16" d="M178.3,194.5l10.3-7.4c0,0-15-8.9-16.8-7.6c-1.8,1.3-3,13.1-3,13.1L178.3,194.5z"/>
<path class="st20" d="M178.3,194.5l10.3-7.4c0,0-15-8.9-16.8-7.6c-1.8,1.3-3,13.1-3,13.1L178.3,194.5z"/>
<path class="st18" d="M173.5,179.6l-0.3-0.2c-0.9-0.5-2-0.3-2.8,0.3l-30.8,25c0,0-6.7,9.3-5.8,25.3l18.1,25.7c0,0,2.1-8.7,4.6-7.1
	c0,0,3.5,44.6,0,51.1c-3.5,6.4-5.1,30.5-5.1,30.5l11.9,1.3c0,0,1.3-16.3,4-22.1c2.8-5.8,4.3-25.8,4.3-25.8s2.5-29,2.1-41.5
	s-4-39.2-4-39.2S170.7,187.3,173.5,179.6z"/>
<path class="st4" d="M204.1,190.5l-12.8-4.7c0,0,16.3-17.9,18.3-7.9L204.1,190.5z"/>
<path class="st16" d="M204.1,189.8l-12.8-4.7c0,0,16.3-17.9,18.3-8L204.1,189.8z"/>
<path class="st20" d="M204.1,189.8l-12.8-4.7c0,0,16.3-17.9,18.3-8L204.1,189.8z"/>
<path class="st4" d="M203.7,174.6c0.2,0,0.4,0,0.5,0.1L203.7,174.6z"/>
<path class="st18" d="M205,173.4l34,7.3c0,0,9.3,2.1,16.1,25.5c6.8,23.4-9.2,52.2-9.2,52.2l-3.5-3l1.8,68.5c0,0-15.7,5.9-20.7,0.7
	s-4.5-29.5-4.5-29.5s-4.7-44.8-7.8-52.2c-3-7.4-1.5-60.5-1.5-60.5S206.9,173,205,173.4z"/>
<path class="st4" d="M236,217.1c-0.5,0.4-1,21.2,1,37c1.3,9.6,3.2,19.1,5.9,28.4l-3.1-63.2C239.9,219.3,237.5,215.7,236,217.1z"/>
<path class="st4" d="M231.9,199.2c0.8,0.5,4.5,9.1,2.8,12.7C233,215.4,231.9,199.2,231.9,199.2z"/>
<path class="st4" d="M199.8,123.8c-1.7-3.3-4.3-6-7.5-7.8c2.4,1.7,4.3,4,5.6,6.6c1.5,2.9,1,5.8-1.8,7.5s-3.7,4.3-5.2,7.4
	c-1.3,2.8-2.7,5.7-5.3,7.3c-3.4,2-7.8,1.3-11.4,3.1c-3.2,1.7-5,5.1-4.7,8.7c0.2,1.3,0.6,2.7,1,4c0.8,2.8,1.2,5.7,1.1,8.6
	c0,0.2,0,0.4-0.1,0.5c-0.2,0.3-0.5,0.4-0.9,0.4c-0.9,0.1-1.8-0.1-2.6-0.5c1.2,1.2,2.8,1.8,4.4,1.7c0.5,0.1,0.9-0.3,0.9-0.7
	c0-0.1,0-0.1,0-0.2c0.1-2.9-0.3-5.8-1.1-8.6c-0.4-1.3-0.8-2.6-1-4c-0.3-3.6,1.5-7,4.7-8.7c3.5-1.8,8-1,11.4-3.1
	c2.6-1.6,4.1-4.5,5.3-7.3c1.4-3,2.2-5.7,5.2-7.4C201,129.6,201.3,126.7,199.8,123.8z"/>
</svg>
