<?xml version="1.0" encoding="utf-8"?>
<!-- Generator: Adobe Illustrator 24.1.2, SVG Export Plug-In . SVG Version: 6.00 Build 0)  -->
<svg version="1.1" id="_x38_69a981d-5394-490d-9104-6940aaebaf2b"
	 xmlns="http://www.w3.org/2000/svg" xmlns:xlink="http://www.w3.org/1999/xlink" x="0px" y="0px" viewBox="0 0 370 300"
	 style="enable-background:new 0 0 370 300;" xml:space="preserve">
<style type="text/css">
	.st0{opacity:0.1;fill:#33DED2;enable-background:new    ;}
	.st1{fill:#33DED2;}
	.st2{fill:url(#SVGID_1_);}
	.st3{fill:#4C4981;}
	.st4{opacity:0.1;enable-background:new    ;}
	.st5{fill:#774D56;}
	.st6{fill:#5B58A6;}
	.st7{fill:#FFFFFF;}
	.st8{fill:#444053;}
	.st9{fill:#2F2E41;}
	.st10{fill:#3D2A79;}
	.st11{fill:#9E7463;}
</style>
<ellipse class="st0" cx="147.9" cy="289.8" rx="36.8" ry="3.6"/>
<ellipse class="st0" cx="260.8" cy="296.4" rx="36.8" ry="3.6"/>
<path class="st0" d="M162.6,4.4c16.2-6,35.9-0.8,52.7,6.7c52.9,23.7,91.4,68.8,122,114.7c11.1,16.6,21.6,34,25.8,52.5
	c8.5,37.8-13.7,76.8-51.3,90.5c-12.8,4.7-26.9,6.6-40.9,7.6c-25,1.9-50.9,1.1-75.8-5.9c-17.7-5-34.5-13.1-50.5-22
	c-44.8-24.9-85.8-57.3-115.4-96.8C16.3,134.3,5.4,114.7,5,94.7c-0.3-20,12.7-40.1,34.2-43.5c8.9-1.4,18.2,0.1,27.4,1.6
	c13.5,2.2,27.1,4.6,40.5,3.6c13.8-1,31.7-6.4,34.2-19.5C143.9,22.7,146.4,10.4,162.6,4.4z"/>
<path class="st1" d="M86.6,279.5c0,0,17.3-1,15.3,11.1c0,0,0.4,2.2-1.5,3.1c0,0,0-0.9-1.8-0.6c-0.6,0.1-1.3,0.1-1.9,0.1
	c-0.9-0.1-1.6-0.4-2.3-1l0,0c0,0-4.9-2-6.7-10c0,0-1.4-1.7-1.4-2.2l2.9,1.3c0,0-1,2.1-0.2,3.9c0,0,0.1-3.8,0.6-3.7
	c0.1,0,1.5,0.7,1.5,0.7s-1.7,3.7-0.4,6.3c0,0-0.5-4.5,1-6.1l2,1.2c0,0-2,3.8-0.6,6.9c0,0-0.4-4.7,1.1-6.6l1.9,1.4
	c0,0-1.9,3.7-0.7,6.3c0,0,0.1-5.5,1.1-6c0,0,1.6,1.4,1.9,2c0,0-1.3,2.7-0.5,4.1c0,0,0.5-3.7,0.9-3.7c0,0,1.6,2.4,1.8,4.1
	c0,0-0.1-2.5-1.4-4.3c0,0,1.6,0.3,2.5,1.3c0,0-0.3-1.7-2.9-1.9c0,0-1.3-1.9-1.7-2c0,0,2.6-0.2,4.2,0.5c0,0-1.4-1.6-4.7-0.9l-1.8-1.5
	c0,0,3.4-0.5,4.9,0c0,0-1.7-1.4-5.4-0.4l-2-1.2c0,0,2.9-0.6,4.7-0.4c0,0-1.9-1-5.3,0.1l-1.4-0.6c0,0,2.2-0.4,2.8-0.5
	c0.6-0.1,0.7-0.3,0.7-0.3c-1.4-0.2-2.8-0.1-4.1,0.5C89.6,280.8,86.6,279.7,86.6,279.5z"/>
<ellipse class="st0" cx="98.5" cy="294.8" rx="12.3" ry="2.1"/>
<path class="st1" d="M68.9,254.2c0,0,9.8-0.6,8.6,6.2c0.1,0.7-0.2,1.4-0.9,1.8c0,0,0-0.5-1-0.3c-0.4,0.1-0.7,0.1-1.1,0
	c-0.5,0-0.9-0.2-1.3-0.5l0,0c0,0-2.7-1.1-3.8-5.6c0,0-0.8-1-0.8-1.2l1.6,0.7c0,0-0.6,1.2-0.1,2.2c0,0,0-2.2,0.4-2.1
	c0.1,0,0.9,0.4,0.9,0.4s-1,2.1-0.3,3.6c0,0-0.3-2.5,0.5-3.4l1.1,0.7c0,0-1.1,2.2-0.4,3.9c0,0-0.2-2.7,0.6-3.7l1,0.8
	c0,0-1.1,2.1-0.4,3.5c0,0,0.1-3.1,0.6-3.3c0,0,0.9,0.8,1.1,1.1c0,0-0.7,1.5-0.3,2.3c0,0,0.3-2.1,0.5-2.1c0,0,0.9,1.4,1,2.3
	c0-0.9-0.3-1.7-0.8-2.4c0.5,0.1,1,0.4,1.4,0.7c0,0-0.1-1-1.6-1.1c0,0-0.8-1-1-1.1c0,0,1.5-0.1,2.4,0.3c0,0-0.8-0.9-2.7-0.5l-1-0.9
	c0,0,1.9-0.3,2.8,0c0,0-0.9-0.8-3-0.2l-1.1-0.7c0.9-0.2,1.8-0.3,2.7-0.2c0,0-1-0.6-3,0l-0.8-0.4c0,0,1.2-0.3,1.6-0.3
	c0.4,0,0.4-0.1,0.4-0.1c-0.8-0.1-1.6,0-2.3,0.3C70.6,254.9,68.9,254.3,68.9,254.2z"/>
<ellipse class="st0" cx="75.6" cy="262.7" rx="6.9" ry="1.2"/>
<path class="st1" d="M309.3,274c0,0,11.8-0.7,10.4,7.5c0.1,0.9-0.3,1.7-1,2.1c0,0,0-0.6-1.2-0.4c-0.4,0.1-0.9,0.1-1.3,0.1
	c-0.6,0-1.1-0.3-1.6-0.6l0,0c0,0-3.3-1.4-4.6-6.8c0,0-1-1.2-0.9-1.5l2,0.9c0,0-0.7,1.4-0.1,2.6c0,0,0.1-2.6,0.4-2.5
	c0.1,0,1,0.5,1,0.5s-1.2,2.5-0.3,4.3c0,0-0.3-3.1,0.6-4.1l1.4,0.8c0,0-1.4,2.6-0.4,4.7c0,0-0.3-3.2,0.7-4.5l1.3,1
	c0,0-1.3,2.5-0.5,4.3c0,0,0.1-3.8,0.8-4.1c0,0,1.1,1,1.3,1.4c0,0-0.9,1.9-0.3,2.8c0,0,0.3-2.5,0.6-2.5c0,0,1.1,1.6,1.2,2.8
	c0-1-0.4-2.1-1-2.9c0.6,0.1,1.2,0.4,1.7,0.9c0,0-0.2-1.2-2-1.3c0,0-0.9-1.3-1.1-1.3c0,0,1.8-0.1,2.9,0.3c0,0-1-1.1-3.2-0.6l-1.3-1
	c0,0,2.3-0.3,3.3,0c0,0-1.1-1-3.7-0.3l-1.4-0.8c0,0,2-0.4,3.2-0.3c0,0-1.3-0.7-3.6,0.1l-1-0.4c0,0,1.5-0.3,1.9-0.3s0.5-0.2,0.5-0.2
	c-0.9-0.1-1.9,0-2.8,0.3C311.4,274.9,309.3,274.2,309.3,274z"/>
<ellipse class="st0" cx="317.4" cy="284.4" rx="8.4" ry="1.4"/>
<linearGradient id="SVGID_1_" gradientUnits="userSpaceOnUse" x1="353.0294" y1="550.1827" x2="353.0294" y2="718.1306" gradientTransform="matrix(1 0 0 -1 -98.04 848.39)">
	<stop  offset="0" style="stop-color:#808080;stop-opacity:0.25"/>
	<stop  offset="0.54" style="stop-color:#808080;stop-opacity:0.12"/>
	<stop  offset="1" style="stop-color:#808080;stop-opacity:0.1"/>
</linearGradient>
<path class="st2" d="M297.6,187c-0.2-1.3-0.4-2.5-0.4-3.8c0-1.5-2.1-2.9-2.1-2.9s-1.3-3-2.2-3.4c-0.9-0.5-3.5-4.3-3.5-4.3
	c0-0.8-0.3-1.5-0.8-2.1c-0.8-1-1.5-2.2-2.2-3.3l0,0c-0.4-0.4-0.2-0.8-0.7-3.3c0-0.1-0.1-0.3-0.1-0.4c0-0.1,0-0.1-0.1-0.2
	c1.1-1.2,1.5-2.9,1-4.4c-0.1-0.3-0.3-0.6-0.5-0.8c-0.6-0.5-1.6-0.3-2.2-0.8l0.6-2.9c0.1-0.7,0.3-1.6-0.4-2c-0.3-0.1-0.5-0.2-0.8-0.3
	c-1.1-0.4-1.7-1.5-2-2.6c-0.3-1-0.4-2.2-0.2-3.2c0.1-1,0.4-2,0.5-3.1c0.2-1.9-0.3-3.9-1.3-5.5c-0.4-0.7-1-1.3-1.7-1.6
	c-0.6-0.3-1.4-0.4-2-0.7c-1.3-0.9-1.3-2.9-2.3-4s-2.9-1.1-4.5-0.8c-1.5,0.4-3.1,1.1-4.7,0.9c-1-0.1-2-0.6-3-0.7c-0.3,0-0.6,0-0.9,0
	v0c-0.8,0.1-1.5,0.6-1.6,1.3c0,0.2-0.1,0.4,0,0.5c0,0.4,0.1,0.9,0.1,1.3c0,0.3-0.1,0.6-0.3,0.9c-0.2,0.2-0.5,0.3-0.7,0.6
	c-0.2,0.2-0.3,0.4-0.3,0.6c0,0.6,0.8,1.2,1.3,1.5h0c-0.1,0.1-0.3,0.3-0.4,0.5c-1.5,1.7-2.4,3.9-2.4,6.3c0,3.8,2.3,7.2,5.8,8.7
	l-0.1,0.3c-0.1,0.5-0.3,0.9-0.5,1.4c-0.8-0.3-1.6-0.1-2.3,0.3c-1,0.7-3,0.6-3.5,0.5c-0.5-0.1-6.1-0.8-6.6-0.6
	c-0.5,0.2-1.3-0.6-1.9,0.4s-0.9,1.6-1.4,1.9s-1.6,1.1-1.5,1.3c0.1,0.1-1.5,1.2-1.5,1.2s-1.4,1.4-2.2,1.6c-0.8,0.2-2.5,1.3-2.5,1.3
	l-2,1.5c0,0-1.5,0.2-1-0.8c0.5-1-0.8-2.3-0.8-2.3s-2.5-5.1-2.5-6.1s-2-5.5-2-5.5l-0.3,0l-0.1-0.4c-0.4-1.1-0.9-2.4-1.3-3.1
	c-0.7-1.4-1.1-1.6-1.1-1.6s-8.6-6.5-14.2-4.5c-5.6,2,10.2,7.9,11.7,8.5c0.5,0.2,0.9,0.9,1.1,1.7c-1.3,0.6-2.3,1.6-3,2.8
	c0,0,3.4,7.6,3.5,9.5c0.1,1.9,2.4,7.2,2.4,7.2s0.9,3.9,5.4,3.7c0,0,6.3,1.1,7.7,0s2.6-2.1,3.3-2.2c0.5-0.2,0.9-0.5,1.3-0.9
	c0,0-2.1,13.2-3.1,14.3c-1,1.1-10.1,16-6.8,18.6c2.6,2,5.3,3.8,8.1,5.4c0.3,0.1,1.1-1.3,2.3-2.2c0,0.3,0,0.5,0,0.8
	c0,5.3,0.7,13.3,1.7,15.1c1.4,2.6,0.9,7.7,0.9,7.7c0.8,0.4,1.6,0.5,2.4,0.6c0,0.2,0.1,0.4,0.1,0.5c0.8,3,2,7.6,2.7,8.8
	c1,1.9,1.7,7.7,1.7,7.7s0.6,5.7,0.4,6.6c-0.1,0.3,0.3,2.7,0.9,5.7l0,0c-0.4,4.1-1,12-1.1,14.9l0,0c0,0.1,0,0.1,0,0.1v0
	c0,0,0,0.1,0,0.1c0,0.1,0,0.1,0,0.2l0,0c0,0.2,0,0.4,0,0.5c0,0.3,0,0.5-0.1,0.8c-0.3,0.8-0.6,1.6-1,2.3c-0.2,0.4-0.3,0.7-0.4,1.1
	c-0.4,0.1-0.8,0.5-1,1.5c-0.4,1.7-1.1,6.5-1.1,6.5s-0.3,2.9-0.8,3.5s-1.1,4.8,2.7,5.3c3.8,0.5,5.4-2,5.4-2l-0.1-11.5v0
	c0.1-0.1,0.1-0.2,0.2-0.3v0c0-0.1,0.1-0.1,0.1-0.2l0-0.1l0.1-0.1v0c0.4-1.1,0.5-2.3,0.3-3.4v-0.1v-0.1c0,0,0-0.1,0-0.1V278
	c0,0,0,0,0-0.1c0-0.1,0-0.1,0-0.3c0-0.1,0,0,0,0l0-0.1v-0.1c0,0,0-0.1,0-0.1v0c0-0.2,0.1-0.4,0.1-0.5v0l0.1-0.2l0,0
	c0.1-0.2,0.1-0.4,0.2-0.5v0.1c0-0.1,0-0.1,0.1-0.2v0c0.1-0.2,0.1-0.4,0.2-0.5v0l0.1-0.1v0l0.1-0.3l0,0l1,3.2c0,0,0.6,2.4,0.3,3
	c-0.3,0.6,0.4,2.9,0.8,3l-0.4,3c-0.2,1.6-0.4,3.3-0.4,4.9c0,0.2-0.1,0.4-0.1,0.5c-0.3,1.5,0.4,3.9,0.4,3.9c3.5,4.2,7.7,0.3,7.7,0.3
	s0.5-2.2,0-2.6s-0.3-2-0.3-2s0.2-3.9,0.3-6.8c0-2.9-2.3-5.4-2.3-5.4l-0.1,0.1c-0.4-1.1-0.9-2.4-0.8-3c0.2-1-0.5-11.7-0.5-11.7
	c0.3-2.9,0.3-5.7,0.1-8.6l0,0c0.1-0.5,0.1-1,0.2-1.4c0.3-2.3,0.5-4.3,0.6-5.3l0,0v-0.1c0-0.3,0-0.5,0-0.6c0-0.4,0-0.8,0-1.2
	c0.1-1.2,0.3-2.6,0.3-2.6l0.9-5.7c0,0,0.7-2.8,1.7-4.3l0.1-0.2l0,0c0-0.1,0.1-0.1,0.1-0.2v0c0-0.1,0.1-0.1,0.1-0.3v0
	c0.1-0.3,0.3-0.6,0.5-1c0,0,0-0.1,0-0.1l0.1-0.3c0,0,0-0.1,0-0.1s0.1-0.2,0.1-0.3c0,0,0-0.1,0-0.1c0-0.1,0.1-0.2,0.1-0.3l0.1-0.2
	c0-0.1,0.1-0.2,0.1-0.3l0.1-0.2c0-0.1,0-0.1,0.1-0.2l0.1-0.3c0,0,0-0.1,0-0.1c0.3-0.6,0.5-1.3,0.7-1.8l0,0c0.1-0.2,0.1-0.4,0.2-0.5
	c2.3,0.1,3.8,0.3,3.8,0.3s0.7-5.1,0.5-8.5c-0.1-2.3,0.3-5.2,0.6-6.8c0-0.2,0.1-0.3,0.1-0.5l0.1,0c1.1,0.9,1.9-2,1.9-2
	s-0.3-2.7-0.7-6l0-0.3c0.6,0.1,1.3,0.3,1.9,0.3c0,0,0.4,0,0.9-0.1c1.4,0.8,2.8,1.4,4.3,1.9l2.4-4.4c0.4-0.9,1-1.8,1.5-2.6
	c0.7-0.9,3.3-3.7,3.2-4.2c-0.1-0.5,0.9-3.5,1.7-4.9C297.1,189.9,297.7,187.2,297.6,187z M287.7,190.3c-0.9,0.4-1.8,2.6-1.9,3.3
	s-1,3.5-2,3.9c-0.9,0.3-2.8,2-3,2.3c-0.3,0-0.6,0.1-1,0.1c-0.4-2.8-0.8-5.1-1-5.5c-0.7-1.3,0.8-5.5,0.8-5.5s0.1-4.3,1.1-5.3
	c0.9-1,0.7-3.5,0.7-3.5s0.2-1,0.3-1.5c0.1-0.5,1.3,0,1.3,0l0,0c0,0,2.4,1.3,2.8,3.3c0.4,2,3,5.4,3,5.4s-0.4,1.2,0,1.8
	S288.7,189.9,287.7,190.3z"/>
<path class="st3" d="M223.4,152.8c1.5-2.5,4.3-3.8,7.2-3.4v5.1h-3.1l-2.4-0.6L223.4,152.8z"/>
<path class="st4" d="M223.4,152.8c1.5-2.5,4.3-3.8,7.2-3.4v5.1h-3.1l-2.4-0.6L223.4,152.8z"/>
<path class="st5" d="M230.8,150.8l-3.8,2.7c0,0,0-0.5-0.1-1.3c-0.2-1.4-0.6-3.5-1.5-3.9c-1.4-0.6-17-6.5-11.5-8.5
	c5.5-2,14,4.5,14,4.5s0.4,0.1,1.1,1.6c0.4,0.8,0.9,2,1.2,3.1C230.5,150,230.8,150.8,230.8,150.8z"/>
<polygon class="st3" points="261.3,154.9 261.7,154.7 262.9,156.1 261.9,158.2 260.2,157.5 260.6,155.8 "/>
<path class="st6" d="M255.5,279.4c0,0-1.1-0.1-1.5,1.6c-0.4,1.7-1.1,6.5-1.1,6.5s-0.3,2.9-0.8,3.5s-1,4.8,2.7,5.3
	c3.7,0.5,5.3-2,5.3-2l-0.1-11.5L255.5,279.4z"/>
<path class="st6" d="M268.5,279.9c0,0,2.3,2.5,2.3,5.3c0,2.8-0.3,6.7-0.3,6.7s-0.2,1.6,0.3,2c0.5,0.4,0,2.6,0,2.6s-4.1,3.8-7.6-0.3
	c0,0-0.7-2.4-0.4-3.9c0.3-1.5,1.1-8.4,1.1-8.4L268.5,279.9z"/>
<path class="st5" d="M274.3,227.5c0,0-2.4,6.6-3.4,8.1c-1,1.5-1.7,4.3-1.7,4.3l-0.9,5.7c-0.2,1.3-0.3,2.5-0.3,3.8
	c0,1.3-2.3,19.8-2.3,19.8l-3.7,4.7c0,0-1.6,3.3-1.4,4.7c0.3,1.4-0.2,3.5-0.7,4.2c0,0-0.1,4.3-0.2,5.3s0.5,3.7,0,4.2
	s-6.9,0.3-7.1-0.5c-0.2-0.8,0.8-4.6,0.8-4.6l0.6-3.7c0,0,1.1-2,0.9-2.7c-0.3-0.7,0.5-2.2,0.5-2.3c0.1-0.1,1.2-2.3,1-3.1
	c-0.2-0.8,1.4-18.5,1.4-18.5l4.5-31.7L274.3,227.5z"/>
<path class="st4" d="M274.3,227.5c0,0-0.4,1-0.9,2.3c-0.8,2.1-1.9,4.9-2.5,5.8c-1,1.5-1.7,4.3-1.7,4.3l-0.9,5.7
	c-0.2,1.3-0.3,2.5-0.3,3.8c0,0.5-0.3,3.7-0.8,7.4c-0.6,5.6-1.5,12.4-1.5,12.4l-3.7,4.7c0,0-0.2,0.4-0.4,0.9
	c-0.5,1.1-1.1,2.8-0.9,3.7c0.3,1.4-0.2,3.5-0.7,4.2c0,0-0.1,4.3-0.2,5.3s0.5,3.7,0,4.2c-0.5,0.5-6.9,0.3-7.1-0.5
	c-0.2-0.8,0.8-4.6,0.8-4.6l0.6-3.7c0,0,1.1-2,0.9-2.7s0.5-2.2,0.5-2.3c0.1-0.1,1.2-2.3,1-3.1c-0.2-0.6,0.7-11,1.1-16
	c0.1-1.5,0.2-2.5,0.2-2.5l3.9-27.3l0.3-2.2l0.3-2.2L274.3,227.5z"/>
<path class="st5" d="M270.3,293.4c0,0.5-6.2,1.2-7.1,0.6c-0.9-0.5,0-7.1,0-7.1l0.4-3c-0.4,0-1.1-2.4-0.8-3s-0.3-3-0.3-3l-1-3.2
	l-0.6-2c-1-2.3-2.5-8.7-3.4-13.6c-0.6-3-1-5.4-0.9-5.7c0.2-0.8-0.4-6.5-0.4-6.5s-0.7-5.8-1.6-7.7c-0.6-1.2-1.9-5.8-2.7-8.7
	c-0.4-1.5-0.7-2.6-0.7-2.6s6.6-0.5,10.6-0.8c1.9-0.1,3.2-0.1,3,0c-0.2,0.1-0.2,1-0.2,2.1c0,3,0.4,8.3,0.9,9.7c0.6,2,1.2,7.9,1,8.5
	c-0.3,0.6-0.2,4.4-0.2,4.4c0.5,1.5,0.7,3.2,0.8,4.8c0.1,2.9,0.1,5.7-0.1,8.6c0,0,0.6,10.6,0.5,11.7s1.4,4.2,1.4,4.8s0.4,4.8,0.4,4.8
	S270.3,293,270.3,293.4z"/>
<path class="st5" d="M273.8,165.4l-0.8,0.8l-0.5,0.5l-2.9,3.1l-7.4,0.8l-3.9-1l-1-0.3c0,0,0-2,0.2-4.3c0.3-3,0.9-6.7,2.3-7.7
	c0.7-0.6,1.3-1.3,1.7-2.1c0.3-0.6,0.5-1.1,0.7-1.8c0-0.1,0-0.1,0.1-0.3c0.3-1.1,0.5-2.2,0.7-3.3c0,0,0.9-0.5,2.3-1.1
	c3.4-1.6,9.4-3.8,7.3,1.1c-0.3,0.7-0.6,1.5-0.8,2.2c0,0.1-0.1,0.2-0.1,0.3c-0.7,2.8-0.3,4.4,0.3,5.3l0,0c0.1,0.1,0.2,0.3,0.3,0.5
	c0.1,0.2,0.3,0.4,0.5,0.5l0.9,5.4l0.1,0.5L273.8,165.4z"/>
<path class="st4" d="M272.6,150.1C272.2,151.1,272.7,149.4,272.6,150.1c-1.6,1.1-5.2,4.3-7.3,4.3c-1.4,0-1.8-0.3-3-0.8
	c0.4-1.1,0.6-2.3,0.8-3.5C263,150.1,275.4,143.3,272.6,150.1z"/>
<path class="st5" d="M275.7,144.4c0,4.9-3.7,9-8.6,9.5c-0.3,0-0.6,0-1,0c-5.3,0-9.6-4.3-9.6-9.6c0-5.3,4.3-9.6,9.6-9.6
	C271.4,134.8,275.7,139.1,275.7,144.4L275.7,144.4z"/>
<path class="st4" d="M277.1,186.7l-1.4,3.5c0,0-1.1,0-2.8,0.1c-5.8,0.2-18.7,0.4-19.3-1.1c-0.1-0.4-0.2-0.8-0.2-1.2
	c-0.1-2.3,1-5.8,1-5.8s0.6-7,0.6-7.3c0-0.3-0.5-5.2-0.5-5.2l1-3.9l2.9-2.1c0,0,1.3,2,2.1,2.2c0.8,0.2,1.8,1.1,1.8,1.1
	s2.6,1.6,3.4,0.7c0.8-0.9,7.3-4.7,7.3-4.7l3.4,3.8L277.1,186.7z"/>
<path class="st7" d="M277.1,187.3l-1.4,3.5c0,0-1.1,0-2.8,0.1h-0.2c-0.8,0-1.6,0-2.5,0.1c-4.6,0.1-11,0.1-14.3-0.4
	c-1.3-0.2-2.1-0.4-2.2-0.8c-0.1-0.2-0.1-0.4-0.1-0.6c0-0.2,0-0.4,0-0.5c-0.1-2.3,1-5.8,1-5.8s0.6-7,0.6-7.3s-0.5-5.2-0.5-5.2l1-3.9
	l2-1.4l0.9-0.6c0.3,0.5,0.6,0.9,1,1.3c0.3,0.4,0.6,0.7,1.1,0.9c0.8,0.2,1.8,1.1,1.8,1.1s2.6,1.6,3.4,0.7c0.6-0.7,4.6-3.1,6.4-4.2
	c0.6-0.4,0.9-0.5,0.9-0.5l0.5,0.5l3,3.3L277.1,187.3z"/>
<path class="st4" d="M230.8,150.8l-3.8,2.7c0,0,0-0.5-0.1-1.3c1.9-0.8,3-2.5,3.4-3.1C230.5,150,230.8,150.8,230.8,150.8z"/>
<path class="st3" d="M244.2,159.9l-0.8-0.2c0,0-1.4,1.4-2.2,1.6c-0.8,0.2-2.4,1.3-2.4,1.3l-1.9,1.5c0,0-1.4,0.2-1-0.8
	c0.4-1-0.8-2.3-0.8-2.3s-2.4-5.1-2.4-6.1s-2-5.5-2-5.5s-2.5,4.9-7.2,3.4c0,0,3.4,7.6,3.5,9.5c0.1,1.9,2.3,7.1,2.3,7.1
	s0.8,3.9,5.3,3.7c0,0,6.2,1.1,7.6,0c1.4-1.1,2.6-2.1,3.2-2.2c0.6-0.1,1.2-0.9,1.2-0.9v-5.2L244.2,159.9z"/>
<path class="st4" d="M236.4,164.8c0,0,1.1,4.1,0.4,4.5L236.4,164.8z"/>
<path class="st4" d="M272.8,190.9c-5.8,0.2-18.7,0.4-19.3-1.1c-0.1-0.4-0.2-0.8-0.2-1.2l19.1,1L272.8,190.9z"/>
<path class="st4" d="M274.3,227.5c0,0-0.4,1-0.9,2.3c-2.4-0.1-5.6-0.3-8.7-0.3c-1.1,0-2.1,0-3.1,0c-2.1,0.1-3.9,0.3-5.1,0.6
	c-1.5,0.5-3,0.6-4.6,0.6c-0.4-1.5-0.7-2.6-0.7-2.6s6.6-0.5,10.6-0.8l0.3-2.2L274.3,227.5z"/>
<path class="st8" d="M279.4,211.4l-0.8,1.6c0,0-0.1,0.5-0.3,1.2c-0.3,1.6-0.7,4.5-0.5,6.8c0.2,3.4-0.5,8.5-0.5,8.5s-16.1-1.4-20.9,0
	c-4.7,1.4-7.1,0-7.1,0s0.6-5.1-0.8-7.7c-1-1.8-1.6-9.8-1.6-15.1c0-2.4,0.1-4.3,0.4-4.6c1-1.2,5.1-13,5.1-13l0.9,0l2.5,0.1l14.3,0.8
	l2.3,0.1l0.3,0.7L279.4,211.4z"/>
<path class="st3" d="M286.5,206.2l0.1,1.4c0,0-7.1-2.3-6.7-5.1c0.4-2.8,0-2.5,0-2.5l5.7,0.5L286.5,206.2z"/>
<path class="st4" d="M286.5,206.2l0.1,1.4c0,0-7.1-2.3-6.7-5.1c0.4-2.8,0-2.5,0-2.5l5.7,0.5L286.5,206.2z"/>
<path class="st4" d="M241.1,166c0.7,0.6,1.6,1,2.5,1.3c-0.3-0.1-0.5-0.2-0.7-0.4c-0.5-0.4-1-0.8-1.5-1.1c-0.4-0.3-0.9-0.8-1.4-0.9
	C240.3,165.2,240.7,165.6,241.1,166z"/>
<path class="st4" d="M241.2,167.8c0.2,0.3,0.4,0.5,0.5,0.9c0.2,0.9,0.2,1.8,0,2.7l-1.1-2.7c-0.2-0.5-0.4-0.9-0.6-1.4
	c-0.1-0.2-0.8-1-0.7-1.1C239.5,165.6,241,167.5,241.2,167.8z"/>
<path class="st4" d="M272.8,182.9c0.8-0.1,1.5-0.4,2.1-1c-1.2,0.1-2.3,0.6-3.4,0.9c-1.1,0.3-2.2,0.1-3.2-0.3
	C269.6,183.2,271.4,183.2,272.8,182.9z"/>
<path class="st4" d="M269.5,174.9c-0.2,0-0.4,0-0.6-0.1c-0.9-0.5-1.7-1-2.6-1.6c-0.8-0.5-1.8-1.1-2.5-1.8
	C265.5,173,267.1,174.3,269.5,174.9z"/>
<path class="st4" d="M272,184.2c0.5,0,0.9,0,1.4-0.1c0.5-0.1,0.9-0.4,1.1-0.8c-0.2,0-0.3,0-0.5,0.1c-1.4,0.6-2.9,0.8-4.4,0.5
	C270.3,184.2,271.2,184.2,272,184.2z"/>
<path class="st4" d="M263.6,204.6c-0.9,0.3-1.9,0.5-2.8,0.5c-0.8,0-1.5,0-2.2,0l-3.6-0.2l-1.8-0.1c-0.2,0-1.1,0-0.6-0.4
	c0.2-0.2,1.4-0.1,1.7-0.1c0.6,0,1.2,0,1.8,0c1.2,0,2.4,0,3.5,0.1C261,204.3,262.3,204.4,263.6,204.6z"/>
<path class="st4" d="M259.5,206.3c-0.6,0-1.4,0.3-2,0.4c-0.7,0.1-1.4,0.1-2.1,0.1c-1.4,0-2.8-0.3-4.1-0.8
	C254,206.1,256.8,206.2,259.5,206.3z"/>
<path class="st4" d="M251.8,208.2c0.3,0,0.5,0.1,0.8,0.2c1.5,0.4,3.1,0,4.7-0.3c-0.4,0.6-1.1,0.8-1.8,1c-1.1,0.3-2.3,0.3-3.4,0.1
	c-0.4-0.1-1.3-0.2-1.4-0.6C250.3,208.1,251.5,208.2,251.8,208.2z"/>
<path class="st4" d="M260.3,211c0.5,0.1,0.9,0.2,1.3,0.4c1.7,0.4,3.5-0.1,5.2-0.5c2-0.5,4.2-0.6,6.3-0.6c-0.4,0-1,0.3-1.4,0.4
	c-0.5,0.1-1,0.3-1.5,0.4c-1,0.3-1.9,0.4-2.9,0.6c-2,0.3-4,0.4-6,0.3c-0.9,0-2.5,0-3.3-0.4C258.7,211.1,259.5,210.9,260.3,211z"/>
<path class="st4" d="M260.9,157c0,0,0.1,4.1-0.6,5.9c-0.2,0.6-0.5,1.6-0.9,2.8c-0.4,1.3-0.8,2.8-1.1,3.9c-0.3,1.1-0.5,1.9-0.5,1.9
	s-1.5,12-1.9,17.8c0,0.1,0,0.2,0,0.3c0,0.3-0.1,0.6-0.1,1c-0.9,5.7-5.8,14.5-7.4,15.2c-0.5,0.3-1,0.6-1.4,1c0-2.4,0.1-4.3,0.4-4.6
	c1-1.2,5.1-13,5.1-13l0.9,0c0-0.2,0-0.4,0-0.5c-0.1-2.3,1-5.8,1-5.8s0.6-7,0.6-7.3c0-0.3-0.5-5.2-0.5-5.2l1-3.9l2-1.4
	c0.3-3,0.9-6.7,2.3-7.7c0.7-0.6,1.3-1.3,1.7-2.1c0.3,0-0.3-0.2-0.3-0.2L260.9,157z"/>
<path class="st3" d="M261.7,154.7c-0.8-0.3-1.5-0.1-2.2,0.3c-1,0.7-3,0.6-3.5,0.5c-0.5-0.1-6-0.8-6.5-0.6c-0.4,0.2-1.3-0.6-1.9,0.4
	c-0.6,1-0.8,1.6-1.4,1.9c-0.6,0.3-1.6,1.1-1.4,1.3c0.1,0.1-1.4,1.2-1.4,1.2l3.2,10.4c0,0-2.1,13.2-3.1,14.3s-10,15.9-6.7,18.5
	c2.5,2,5.2,3.8,8,5.4c0.4,0.2,1.6-2.2,3.4-2.9c1.8-0.8,7.2-10.6,7.5-16.2c0.3-5.6,1.9-18.1,1.9-18.1s1.9-6.8,2.5-8.7
	c0.6-1.8,0.6-5.9,0.6-5.9L261.7,154.7z"/>
<path class="st4" d="M279.4,211.4l-0.8,1.6c0,0-0.1,0.5-0.3,1.2c-0.1,0-0.3-0.1-0.4-0.2c-1.1-0.9-7.5-7.5-7.9-13.4
	c-0.2-4.3-0.1-8.1,0-9.8c0-0.5,0-0.8,0-0.9l0,0c0,0,5-6.1,4.4-8.2c-0.6-2.2-1.9-13.6-1.9-13.6l-0.2-1.5l-0.3-2.5l-0.8-6.2l0.8,0.2
	c0.1,0.2,0.3,0.4,0.5,0.5l0.9,5.4l3,3.3l0.5,19.9l-1.4,3.5c0,0-1.1,0-2.8,0.1h-0.2L279.4,211.4z"/>
<path class="st3" d="M282.2,178.7c0,0-1.2-0.5-1.3,0c-0.1,0.5-0.3,1.5-0.3,1.5s0.2,2.5-0.7,3.5c-0.9,1-1.1,5.3-1.1,5.3
	s-1.5,4.2-0.8,5.5c0.3,0.5,0.6,2.9,1,5.7c0.3,1.8,0.5,3.8,0.7,5.6c0.4,3.3,0.7,6,0.7,6s-0.8,2.9-1.9,2s-7.5-7.5-7.9-13.4
	c-0.2-4.1-0.1-7.7-0.1-9.5c0-0.8,0.1-1.2,0.1-1.2s5-6.1,4.4-8.2c-0.6-2.2-1.9-13.6-1.9-13.6l-0.2-1.8l-0.3-1.9l-0.1-0.4l-0.8-6.1
	l0,0c0.1,0,5.1,1.1,5.7,1.8c0.6,0.6,4.7,1.6,4.7,1.6c1.2,0.3,2.2,1.3,2.5,2.5c0,0.1,0.1,0.3,0.1,0.4c0.5,2.5,0.4,2.9,0.7,3.3
	C285.9,167.8,282.2,178.7,282.2,178.7z"/>
<path class="st4" d="M279.8,205.9c-1.8-0.4-4.4-1.2-4.4-3c0.1-1.7,2.1-2.3,3.7-2.5C279.3,202.1,279.6,204,279.8,205.9z"/>
<path class="st5" d="M285.4,204.9c-0.1,0.1-0.4,0.3-0.8,0.4c-1,0.2-1.9,0.4-2.9,0.5c0,0-6.1-0.5-6-3.3c0.1-2,2.8-2.5,4.4-2.6
	c0.4,0,0.7,0,1,0C281.1,199.9,285.6,204.3,285.4,204.9z"/>
<path class="st4" d="M285.4,204.9c-0.1,0.1-0.4,0.3-0.8,0.4c-1.6-2.1-3.8-4.8-4.9-5.1l0.3-0.3c0.4,0,0.7,0,1,0
	C281.1,199.9,285.6,204.3,285.4,204.9z"/>
<path class="st3" d="M283.8,167.1l1.8,0.3c0.6,1.1,1.4,2.2,2.2,3.3c0.5,0.6,0.8,1.3,0.8,2.1c0,0,2.6,3.9,3.5,4.3
	c0.9,0.4,2.1,3.4,2.1,3.4s2.1,1.4,2.1,2.9c0,1.3,0.2,2.5,0.4,3.8c0,0.2-0.3,2.9-1.2,4.3c-0.9,1.4-1.8,4.4-1.7,4.9s-2.4,3.3-3.2,4.2
	c-0.6,0.8-1.1,1.7-1.5,2.6l-2.3,4.4c0,0-4.9-7.2-6.7-7.6c0,0,2-1.9,3-2.3s2-3.2,2-3.9c0-0.7,0.9-2.9,1.8-3.2c0.9-0.4,1.4-0.8,1-1.4
	s0-1.8,0-1.8s-2.6-3.4-2.9-5.4c-0.4-2-2.7-3.3-2.7-3.3l-1.4-3.3L283.8,167.1z"/>
<path class="st4" d="M290.3,183.4c1-0.8,2.2-1.3,3.5-1.3c-0.8,0.1-1.7,0.3-2.3,0.9c-0.3,0.3-0.5,0.5-0.6,0.8
	c-0.2,0.3-1.9,2.4-2.2,2.1C288.3,185.5,290,183.7,290.3,183.4z"/>
<path class="st4" d="M286.4,181.4c0.5,0,1-0.4,1.3-0.9c0.2-0.5,0.4-1,0.4-1.5c0.1-0.9,0.3-1.8,0.5-2.7c0.1-0.4,0.1-0.8-0.1-1.1
	c-0.1-0.3-0.2-0.5-0.4-0.8c-0.3,0.4-0.4,1.2-0.5,1.7c-0.2,0.6-0.3,1.2-0.5,1.8C287,178.2,286.4,181.4,286.4,181.4z"/>
<path class="st4" d="M284.8,163.7c-0.2,0.2-0.4,0.4-0.6,0.6c-0.7,0.6-1.7,1-1.8,1.9c0,0.3,0,0.6-0.1,0.9c-0.2,0.4-0.8,0.4-1.3,0.3
	c-0.4,0-0.8-0.2-1-0.4c-0.5-0.4-0.5-1.1-0.9-1.6c-0.4-0.5-1.1-0.8-1.8-0.8c-0.7,0-1.3,0.1-2,0.1c-0.4,0-0.9,0-1.3-0.1
	c-0.1,0-0.3,0-0.4-0.1c-0.3-0.1-0.6-0.2-0.9-0.3c-0.1-0.1-0.3-0.1-0.4-0.2c-0.5-0.2-0.9-0.5-1.3-0.9c-0.6-0.6-1.2-1.4-1.1-2.3
	c0-0.5,0.3-1,0.4-1.6c0.3-1.5-0.8-3-1.9-4.1c-0.4-0.4-0.9-0.9-1.4-1.3c-0.7-0.6-1.3-1.4-1.6-2.3c-0.3-0.9-0.4-1.9-0.3-2.9
	c0.1-1,0.1-2,0.1-2.9c-0.3-3.5-3.3-6.2-6.3-7.6l-0.1-0.1c3.5-4,9.5-4.4,13.5-0.9s4.4,9.5,0.9,13.5c-0.5,0.5-1,1-1.5,1.4
	c0,0.1-0.1,0.2-0.1,0.3c-0.7,2.8-0.3,4.4,0.3,5.3l0,0c0.1,0,5.1,1.1,5.7,1.8c0.6,0.6,4.7,1.6,4.7,1.6
	C283.5,161.4,284.5,162.4,284.8,163.7z"/>
<path class="st8" d="M258.3,135.6c0.2-0.2,0.5-0.4,0.7-0.6c0.6-0.7,0-1.8,0.2-2.7c0.3-1,1.5-1.4,2.5-1.3c1,0.1,2,0.6,3,0.7
	c1.6,0.2,3.1-0.5,4.6-0.9c1.5-0.4,3.4-0.4,4.4,0.8c1.1,1.2,1,3.2,2.3,4c0.6,0.4,1.4,0.4,2,0.7c0.7,0.4,1.3,0.9,1.7,1.6
	c1,1.6,1.5,3.5,1.3,5.5c-0.1,1-0.4,2-0.5,3.1c-0.1,1.1,0,2.2,0.2,3.2c0.3,1.1,0.9,2.2,1.9,2.6c0.3,0.1,0.5,0.1,0.7,0.3
	c0.6,0.4,0.5,1.3,0.4,2l-0.6,2.9c0.6,0.5,1.6,0.3,2.2,0.8c0.3,0.2,0.4,0.5,0.5,0.8c0.6,1.7,0.1,3.5-1.3,4.7c-0.7,0.6-1.7,1-1.8,1.9
	c0,0.3,0,0.6-0.1,0.9c-0.2,0.4-0.8,0.4-1.3,0.3c-0.4,0-0.8-0.2-1-0.4c-0.5-0.4-0.5-1.1-0.9-1.6c-0.4-0.5-1.1-0.8-1.8-0.8
	c-0.7,0-1.3,0.1-2,0.2c-1.5,0.1-3.1-0.5-4.2-1.5c-0.6-0.6-1.2-1.4-1.1-2.3c0-0.5,0.3-1,0.4-1.6c0.3-1.5-0.8-3-1.9-4.1
	s-2.4-2.1-3-3.6c-0.7-1.8,0-3.9-0.2-5.8c-0.3-3.5-3.3-6.2-6.3-7.6C258.6,137.3,257.5,136.4,258.3,135.6z"/>
<path class="st4" d="M281.7,165.7c-0.5-0.4-0.5-1.1-0.9-1.6c-0.4-0.5-1.1-0.8-1.8-0.8c-0.7,0-1.3,0.1-2,0.2
	c-1.6,0.1-3.1-0.5-4.2-1.5c-0.6-0.6-1.2-1.4-1.1-2.3c0-0.5,0.3-1.1,0.4-1.6c0.3-1.5-0.8-3-1.9-4.1c-1.1-1.1-2.4-2.1-3-3.6
	c-0.7-1.8,0-3.9-0.2-5.8c-0.3-3.5-3.3-6.2-6.3-7.6c-0.7-0.4-1.8-1.2-1-2.1c0.2-0.2,0.5-0.4,0.7-0.6c0.6-0.7,0-1.8,0.2-2.7
	c0-0.2,0.1-0.4,0.2-0.5c-0.8,0.1-1.4,0.6-1.6,1.3c-0.2,0.9,0.4,2-0.2,2.7c-0.2,0.2-0.5,0.3-0.7,0.5c-0.8,0.9,0.4,1.8,1,2.1
	c3,1.5,6,4.1,6.3,7.6c0.2,1.9-0.5,4,0.2,5.8c0.5,1.5,1.9,2.5,3,3.6c1.1,1.1,2.2,2.6,1.9,4.1c-0.1,0.5-0.3,1-0.4,1.6
	c0,0.9,0.5,1.7,1.1,2.3c1.1,1,2.7,1.6,4.2,1.5c0.7,0,1.3-0.2,2-0.2c0.7,0,1.4,0.3,1.8,0.8c0.4,0.5,0.4,1.2,0.9,1.6
	c0.3,0.2,0.7,0.4,1,0.4c0.5,0.1,1,0.1,1.3-0.3c0.1-0.1,0.1-0.3,0.1-0.5C282.3,166,282,165.9,281.7,165.7z"/>
<path class="st1" d="M229.5,144.4h-24.8v-24.5h24.8L229.5,144.4z M229.1,107.5h-24.1c0-38,36.1-35.7,36.1-59.8
	c0-13.2-10.8-23.8-24.1-23.8c-13.2,0-24.1,11.4-24.1,24.2H169C169,21.6,190.4,0,217,0c0.1,0,0.1,0,0.2,0c26.6,0,48.1,21.2,48.1,47.8
	C265.2,77.8,229.1,81.2,229.1,107.5L229.1,107.5z"/>
<path class="st0" d="M89.5,119.6h-6.4v-6.3h6.4V119.6z M89.4,110.1h-6.2c0-9.8,9.3-9.2,9.3-15.4c0-3.4-2.8-6.2-6.2-6.2l0,0
	c-3.4,0.1-6.1,2.8-6.2,6.2h-6.2c0.1-6.8,5.7-12.3,12.5-12.3c6.7,0.1,12.1,5.4,12.3,12.2C98.6,102.4,89.4,103.3,89.4,110.1
	L89.4,110.1z"/>
<path class="st0" d="M154.3,181h-6.4v-6.3h6.4V181z M154.2,171.5H148c0-9.8,9.3-9.2,9.3-15.4c0-3.4-2.8-6.2-6.2-6.1l0,0
	c-3.4,0.1-6.2,2.8-6.2,6.2h-6.2c0.1-6.8,5.7-12.3,12.5-12.3c6.7,0.1,12.1,5.4,12.3,12.2C163.5,163.8,154.2,164.7,154.2,171.5z"/>
<path class="st0" d="M183.7,103.3h-4.6v-4.6h4.6V103.3z M183.7,96.4h-4.5c0-7.1,6.7-6.7,6.7-11.2c0-2.5-2-4.5-4.5-4.4l0,0
	c-2.5,0-4.4,2-4.5,4.5h-4.5c0-5,4-9,9-9c5,0,9,4,9,9C190.4,90.8,183.7,91.5,183.7,96.4z"/>
<path class="st0" d="M262.9,109.7h-2.6v-2.6h2.6V109.7z M262.8,105.8h-2.5c0-4,3.8-3.8,3.8-6.3c0-1.4-1.1-2.5-2.5-2.5h0
	c-1.4,0-2.5,1.1-2.5,2.5h-2.5c0.1-2.8,2.4-5,5.2-5c2.7,0.1,4.9,2.2,5,4.9C266.6,102.7,262.8,103,262.8,105.8z"/>
<path class="st0" d="M303,227.1h-2.6v-2.6h2.6V227.1z M302.9,223.2h-2.5c0-4,3.8-3.8,3.8-6.3c0-1.4-1.1-2.5-2.5-2.5
	c-1.4,0-2.5,1.1-2.5,2.5h-2.5c0.1-2.8,2.4-5,5.2-5c2.7,0.1,4.9,2.2,5,4.9C306.7,220.1,302.9,220.4,302.9,223.2L302.9,223.2z"/>
<circle class="st9" cx="143.7" cy="116.9" r="10.9"/>
<path class="st9" d="M125.1,193.1l2.5,49.3c0,0-0.4,35.3,2.1,35.8c2.5,0.4,7.2,3.4,8.4,1.3c1.3-2.1,7.6-66.9,7.6-66.9
	s1.7,67.4,6.7,67.8c5.1,0.4,10.9-2.1,11.8-1.7c0.8,0.4,0.4-84.2,0.4-84.2L125.1,193.1z"/>
<path class="st10" d="M132.7,277.7c0,0-2.9,0-3.8,1.3c-0.8,1.3-3.8,7.6-3.8,7.6s-5.5,5,0.4,5.4c5.9,0.4,8.9-0.8,8.9-1.6
	c0-0.8,0-2.9,1.3-3.4c1.3-0.4,2.5-2.5,2.5-3.4C138.2,282.8,136.9,277.3,132.7,277.7z"/>
<path class="st10" d="M155.4,278.1c0,0-2.1,8.4,0,8.9c2.1,0.4,3.4,1.3,3.8,2.5c0.4,1.3,4.6,2.7,8,2.3s5.1-2.7,3.8-4
	c-1.3-1.3-7.6-8.4-8-9.7C162.6,276.9,155.4,278.1,155.4,278.1z"/>
<path class="st11" d="M140.7,124.1c0,0-0.8,6.3-2.5,7.2c-1.7,0.9,0.8,5.5,0.8,5.5l7.6,1.3l6.7-5.5c0,0-1.3-8-1.3-8.4
	C152,123.6,140.7,124.1,140.7,124.1z"/>
<path class="st4" d="M140.7,124.1c0,0-0.8,6.3-2.5,7.2c-1.7,0.9,0.8,5.5,0.8,5.5l7.6,1.3l6.7-5.5c0,0-1.3-8-1.3-8.4
	C152,123.6,140.7,124.1,140.7,124.1z"/>
<circle class="st11" cx="145.3" cy="119.5" r="10.1"/>
<path class="st6" d="M145.1,136.5c0,0-4.2-7.2-6.3-6.7c-2.1,0.4-8.4,1.4-9.9,1.1c-0.9-0.2-5.9,18.9-5.9,18.9s2.1,38.1,2.1,44
	c0,6,12.6,1,14.3,5.6c1.7,4.6,25.5-0.6,25.3-3.1c-0.3-8,3.3-43.2,3.7-46.2c0.4-2.9-3.8-18.5-3.8-18.5s-9.9-2.7-11.6-1.9
	C151.4,130.5,150.6,133.1,145.1,136.5z"/>
<path class="st6" d="M130.2,132.1v-1.1c0,0-7.6-0.4-10.1-0.9c-2.5-0.4-8.2-11-8.2-11s1.7-2.5,3.7-5.7c1.3-1.9,4.1-6.4,4.1-6.4
	s-4.6-4.1-2.9-6.5c0,0-12.5,12.1-15.1,18.2c-2.7,6.7,21.9,31.7,21.9,31.7L130.2,132.1z"/>
<path class="st6" d="M163.5,131.3L163.5,131.3c0.3,0.1,0.6,0.2,1,0.4l12.4,7.8c0.9,0.6,5.1,3.2,6.1,2.7l4.6-5.4l1.5-3.9
	c0.5-0.3,3.3,0,4,0c1.6,0,4.7-0.1,4-2.2c0,0-0.8,14.3-5.5,18.1c-4.7,3.8-32.8,0.6-34.1,0.5c-1-0.1,1.3-10.6,2.5-15.8
	C160.3,131.9,161.9,130.9,163.5,131.3z"/>
<path class="st11" d="M114.7,104.2c-0.8-1.9,0.6-3.1,1.9-4c0.3-0.3,0.6-0.6,0.8-0.9c0.9-1.4,1.6-2.9,2.4-4.3
	c0.3-0.6,3.8-5.3,4.3-5.7c0.3-0.1,6.2-4.4,5.9-0.1c-3.8,6.3,1.9,7.8-5.2,12.9c-0.7,0.7-1.4,1.4-2.2,2.1c-0.8,0.7-1.6,1.4-2.7,1.7
	C118.4,106.3,115.4,105.8,114.7,104.2z"/>
<path class="st11" d="M194.7,135c2.2-0.7,2.2-2.8,2.3-4.3c0.1-3-0.2-2.2,0.3-3.3s1.1-2.4,1.3-3.7c0.1-1.3-0.4-2.8-1.6-3.2
	c-1-0.4-3-0.3-3.5-0.2c-0.5-0.3-0.3-0.6-0.2-1.3c0.2-0.9,0.1-0.4,0.2-1.3c0.4-0.5,1-0.5,1.3-1.3c0.5,0.1,2.3,0.5,2.2-0.5
	c-0.2-0.4-0.4-0.3-1-0.6c-0.9-0.5-1.5-0.6-1.8-0.5c-0.7,0.4-2.1,1.3-2.4,1.9c-2,3.2-1.6,6.9-1,12.4c0.2,1.5-2.8,4.7-1.7,5.7
	C190.1,135.9,193.2,135.5,194.7,135z"/>
<path class="st9" d="M132.4,117.9c0,0-3.2-8.2-0.1-11.3l0.9,2.4c0,0,5.8-7,8.5-7.4l-1.4,2.9c0,0,10.7-5.1,12.6-3l-3.7,1.9
	c0,0,4.8-0.4,6.1,2.1l-2.8,2.3l3.4,1.2c0.4,0.5-24.6-3.7-21.8,13L132.4,117.9z"/>
<path class="st6" d="M112.8,104.5l5.5-7.1c0,0,0.3,6.7,2.9,7.9l-5.8,6.2L112.8,104.5z"/>
<path class="st6" d="M196.6,135.5l1-6.8c0,0-4.4,3.4-6.3,2.6c-1.9-0.9-3.7,5.6-3.7,5.6L196.6,135.5z"/>
</svg>
