<?xml version="1.0" encoding="utf-8"?>
<!-- Generator: Adobe Illustrator 24.2.0, SVG Export Plug-In . SVG Version: 6.00 Build 0)  -->
<svg version="1.1" xmlns="http://www.w3.org/2000/svg" xmlns:xlink="http://www.w3.org/1999/xlink" x="0px" y="0px"
	 viewBox="0 0 1000 600" style="enable-background:new 0 0 1000 600;" xml:space="preserve">
<style type="text/css">
	.st0{fill:#B3BEC4;}
	.st1{fill:#5C39BC;}
	.st2{fill:url(#SVGID_1_);}
	.st3{fill:#E7EFFD;}
	.st4{opacity:0.3;enable-background:new    ;}
	.st5{opacity:0.4;enable-background:new    ;}
	.st6{fill:#5B58A6;}
	.st7{fill:url(#SVGID_2_);}
	.st8{fill:#33DED2;}
	.st9{opacity:0.1;enable-background:new    ;}
	.st10{fill:#FCD5D2;}
	.st11{fill:#F4D0CE;}
	.st12{fill:#667C8A;}
	.st13{fill:#2A314C;}
	.st14{fill:#3F3D56;}
	.st15{opacity:0.2;}
	.st16{fill:url(#SVGID_3_);}
	.st17{fill:#B2837D;}
	.st18{fill:#3A281C;}
	.st19{fill:#7C7E7F;}
	.st20{fill:#535151;}
</style>
<g id="_x30_8eab577-e723-4d12-b868-9f4caa103b0f">
	<path class="st0" d="M1000,421.4c-28.7,192.8,98.9,175.9-496.7,176.5c-597.8,0-471.2,13.5-502.7-207.7
		c-7.3-36.9,226.8,71.1,502.7,71.1S1001.4,383.7,1000,421.4z"/>
	<path class="st1" d="M1000,419.5c0,0.5,0,0.9,0,1.4c-0.6,14.8-9.9,29.5-26.7,39.9c-17.9,11-41.9,16.8-66.6,20.5
		c-3.9,0.6-7.7,1.1-11.6,1.6c-2,0.2-3.9,0.5-5.9,0.7c-54.9,6.4-111,7.6-166.7,8.8c-58.4,1.3-116.8,2.6-175.1,3.2l-11.6,0.1
		c-88.6,0.9-177.2,0.1-265.5-4.3c-27.4-1.4-55.1-3.2-82.3-6.3c-3.9-0.4-7.7-0.9-11.6-1.4c-36-4.6-71-11.7-102.9-23.1
		c-7.5-2.7-14.9-5.7-22-9.1c-20-9.5-36.9-21.4-45.2-36.1c-4.9-8.6-6.9-18.3-5.8-27.9c0.4-3.5,1-6.9,2-10.3
		c2.5-8.4,6.3-16.4,11.4-23.8c13-19.6,32.6-37.2,49.4-55.6c36-39.2,59.4-88.8,26.2-129c-9.5-11.5-23.3-21.7-31.1-33.7
		c-4.2-6.5-6.7-13.7-7.6-21.2c-0.4-3.4-0.6-6.9-0.5-10.3c0.4-8.1,1.5-16.1,3.4-23.9c5.4-24.6,15.5-51.2,46.7-66.6
		c21.3-10.5,48.4-13.8,76-13.1c3.9,0.1,7.7,0.2,11.6,0.5c10.6,0.6,21,1.8,31.2,3.2c62.6,8.9,120.3,27.5,178.5,44.3
		c44.4,12.8,90.4,24.7,138.1,30.4c3.9,0.5,7.7,0.9,11.6,1.3c11.2,1.1,22.5,1.8,33.8,2.1c56.6,1.4,122.6-9.5,160.1-37.8
		C777.6,16.6,845.7,14.4,895,30.8l0.7,0.2c3.7,1.3,7.3,2.6,10.8,4.1c36.4,15.2,60.8,41.4,64.2,68.7c0.4,3.4,0.5,6.8,0.3,10.2v0.1
		c-2.4,33.6-33.2,61.8-64.5,90.1c-3.9,3.5-7.8,7-11.6,10.5c-10.2,9.3-20,18.7-28.6,28.3c-3.9,4.4-7.5,9-10.7,13.7
		c-3,4.4-5.5,9-7.6,13.8c-2.2,5-3.6,10.2-4.2,15.5c-0.9,7.6,0.7,15.3,4.5,22.1l0.1,0.2c8.4,14.8,26.1,25.2,46.5,34.5
		c3.8,1.7,7.7,3.4,11.6,5c22.2,9.3,46.2,18,64.4,29.5c4.9,3,9.5,6.5,13.7,10.3c1.7,1.6,3.3,3.2,4.8,5c6.6,7.5,10.3,16.7,10.5,26.2
		C1000,419.1,1000,419.3,1000,419.5z"/>
	
		<linearGradient id="SVGID_1_" gradientUnits="userSpaceOnUse" x1="545.2131" y1="1283.8582" x2="545.2131" y2="787.7402" gradientTransform="matrix(1 0 0 1 -45.11 -787.83)">
		<stop  offset="0.2447" style="stop-color:#FFFFFF;stop-opacity:0.3"/>
		<stop  offset="0.5941" style="stop-color:#68608C;stop-opacity:0.6"/>
		<stop  offset="0.8615" style="stop-color:#070611;stop-opacity:0.8"/>
	</linearGradient>
	<path class="st2" d="M1000,419.5c0,0.5,0,0.9,0,1.4c-0.6,14.8-9.9,29.5-26.7,39.9c-17.9,11-41.9,16.8-66.6,20.5
		c-3.9,0.6-7.7,1.1-11.6,1.6c-2,0.2-3.9,0.5-5.9,0.7c-54.9,6.4-111,7.6-166.7,8.8c-58.4,1.3-116.8,2.6-175.1,3.2l-11.6,0.1
		c-88.6,0.9-177.2,0.1-265.5-4.3c-27.4-1.4-55.1-3.2-82.3-6.3c-3.9-0.4-7.7-0.9-11.6-1.4c-36-4.6-71-11.7-102.9-23.1
		c-7.5-2.7-14.9-5.7-22-9.1c-20-9.5-36.9-21.4-45.2-36.1c-4.9-8.6-6.9-18.3-5.8-27.9c0.4-3.5,1-6.9,2-10.3
		c2.5-8.4,6.3-16.4,11.4-23.8c13-19.6,32.6-37.2,49.4-55.6c36-39.2,59.4-88.8,26.2-129c-9.5-11.5-23.3-21.7-31.1-33.7
		c-4.2-6.5-6.7-13.7-7.6-21.2c-0.4-3.4-0.6-6.9-0.5-10.3c0.4-8.1,1.5-16.1,3.4-23.9c5.4-24.6,15.5-51.2,46.7-66.6
		c21.3-10.5,48.4-13.8,76-13.1c3.9,0.1,7.7,0.2,11.6,0.5c10.6,0.6,21,1.8,31.2,3.2c62.6,8.9,120.3,27.5,178.5,44.3
		c44.4,12.8,90.4,24.7,138.1,30.4c3.9,0.5,7.7,0.9,11.6,1.3c11.2,1.1,22.5,1.8,33.8,2.1c56.6,1.4,122.6-9.5,160.1-37.8
		C777.6,16.6,845.7,14.4,895,30.8l0.7,0.2c3.7,1.3,7.3,2.6,10.8,4.1c36.4,15.2,60.8,41.4,64.2,68.7c0.4,3.4,0.5,6.8,0.3,10.2v0.1
		c-2.4,33.6-33.2,61.8-64.5,90.1c-3.9,3.5-7.8,7-11.6,10.5c-10.2,9.3-20,18.7-28.6,28.3c-3.9,4.4-7.5,9-10.7,13.7
		c-3,4.4-5.5,9-7.6,13.8c-2.2,5-3.6,10.2-4.2,15.5c-0.9,7.6,0.7,15.3,4.5,22.1l0.1,0.2c8.4,14.8,26.1,25.2,46.5,34.5
		c3.8,1.7,7.7,3.4,11.6,5c22.2,9.3,46.2,18,64.4,29.5c4.9,3,9.5,6.5,13.7,10.3c1.7,1.6,3.3,3.2,4.8,5c6.6,7.5,10.3,16.7,10.5,26.2
		C1000,419.1,1000,419.3,1000,419.5z"/>
	<path class="st0" d="M906.6,35.1v169.1c-3.9,3.5-7.8,7-11.6,10.5V30.8L906.6,35.1z"/>
	<path class="st0" d="M971.2,114L971.2,114l-920.6,0.1c-0.4-3.4-0.6-6.9-0.5-10.3h920.8C971.3,107.2,971.4,110.6,971.2,114z"/>
	<ellipse class="st3" cx="223.4" cy="31.6" rx="3.4" ry="3"/>
	<ellipse class="st3" cx="109.2" cy="51.6" rx="3.4" ry="3"/>
	<ellipse class="st3" cx="455.9" cy="141.5" rx="1.5" ry="1.4"/>
	<ellipse class="st3" cx="146.9" cy="54.6" rx="1.5" ry="1.3"/>
	<ellipse class="st3" cx="145.5" cy="144.8" rx="1.5" ry="1.3"/>
	<ellipse class="st3" cx="814.6" cy="76.7" rx="1.5" ry="1.3"/>
	<ellipse class="st3" cx="323.3" cy="77.8" rx="1.5" ry="1.3"/>
	<ellipse class="st3" cx="743.1" cy="75.3" rx="1.5" ry="1.3"/>
	<ellipse class="st3" cx="925.7" cy="79.1" rx="1.5" ry="1.3"/>
	<path class="st1" d="M1000,419.5c0,0.5,0,0.9,0,1.4c-0.5,14.9-9.7,29.8-26.7,40.2c-17.9,11-41.9,16.8-66.6,20.5
		c-3.9,0.6-7.7,1.1-11.6,1.6c-2,0.2-3.9,0.5-5.9,0.7c-13.5,1.6-27.1,2.8-40.7,3.9c-18.3,1.4-36.7,2.3-55.1,3
		c-23.6,0.9-47.3,1.4-70.9,2c-46.2,1-92.5,2-138.8,2.7l-16.4,0.2l-20,0.2l-11.6,0.1c-73,0.7-145.9,0.3-218.6-2.3
		c-4.8-0.2-9.7-0.4-14.5-0.6c-10.8-0.4-21.6-0.9-32.4-1.5c-21.7-1.1-43.5-2.5-65.1-4.5c-5.7-0.5-11.4-1.1-17.1-1.8
		c-3.9-0.4-7.7-0.9-11.6-1.4c-4.3-0.5-8.6-1.1-12.8-1.7c-31.5-4.6-62-11.2-90.1-21.4c-7.5-2.7-14.9-5.7-22.1-9.1V310.8
		c4-4.1,8-8.3,11.8-12.4c4.6-5,9-10.2,13.1-15.5h87.2V235H317v105.2h250.2v-83.4h288.7c-2.9,4.3-5.5,8.7-7.6,13.4v0.4H848
		c-2.2,5-3.6,10.2-4.2,15.5c-0.9,7.6,0.7,15.3,4.5,22.1v0.3l0.1,0.2c8.4,14.8,26.1,25.2,46.5,34.5c3.8,1.7,7.7,3.4,11.6,5
		c22,9.2,45.7,17.8,63.8,29.2l0.5,0.3c4.8,2.9,9.2,6.3,13.3,9.9c0.1,0.1,0.3,0.2,0.4,0.3c1.7,1.6,3.3,3.2,4.8,5
		c6.6,7.4,10.3,16.5,10.5,25.9C1000,419.1,1000,419.3,1000,419.5z"/>
	<path class="st4" d="M1000,419.5c0,0.5,0,0.9,0,1.4c-0.5,14.9-9.7,29.8-26.7,40.2c-17.9,11-41.9,16.8-66.6,20.5
		c-3.9,0.6-7.7,1.1-11.6,1.6c-2,0.2-3.9,0.5-5.9,0.7c-13.5,1.6-27.1,2.8-40.7,3.9c-18.3,1.4-36.7,2.3-55.1,3
		c-23.6,0.9-47.3,1.4-70.9,2c-46.2,1-92.5,2-138.8,2.7l-16.4,0.2l-20,0.2l-11.6,0.1c-73,0.7-145.9,0.3-218.6-2.3
		c-4.8-0.2-9.7-0.4-14.5-0.6c-10.8-0.4-21.6-0.9-32.4-1.5c-21.7-1.1-43.5-2.5-65.1-4.5c-5.7-0.5-11.4-1.1-17.1-1.8
		c-3.9-0.4-7.7-0.9-11.6-1.4c-4.3-0.5-8.6-1.1-12.8-1.7c-31.5-4.6-62-11.2-90.1-21.4c-7.5-2.7-14.9-5.7-22.1-9.1V310.8
		c4-4.1,8-8.3,11.8-12.4c4.6-5,9-10.2,13.1-15.5h87.2V235H317v105.2h250.2v-83.4h288.7c-2.9,4.3-5.5,8.7-7.6,13.4v0.4H848
		c-2.2,5-3.6,10.2-4.2,15.5c-0.9,7.6,0.7,15.3,4.5,22.1v0.3l0.1,0.2c8.4,14.8,26.1,25.2,46.5,34.5c3.8,1.7,7.7,3.4,11.6,5
		c22,9.2,45.7,17.8,63.8,29.2l0.5,0.3c4.8,2.9,9.2,6.3,13.3,9.9c0.1,0.1,0.3,0.2,0.4,0.3c1.7,1.6,3.3,3.2,4.8,5
		c6.6,7.4,10.3,16.5,10.5,25.9C1000,419.1,1000,419.3,1000,419.5z"/>
	<rect x="79.9" y="302.3" class="st5" width="25.8" height="15.5"/>
	<rect x="121.1" y="302.3" class="st5" width="25.8" height="15.5"/>
	<rect x="594.6" y="270.5" class="st5" width="25.8" height="15.5"/>
	<rect x="664.2" y="270.5" class="st5" width="25.8" height="15.5"/>
	<rect x="738.9" y="270.5" class="st5" width="25.8" height="15.5"/>
	<rect x="594.6" y="317.8" class="st5" width="25.8" height="15.5"/>
	<rect x="664.2" y="317.8" class="st5" width="25.8" height="15.5"/>
	<rect x="738.9" y="317.8" class="st6" width="25.8" height="15.5"/>
	<rect x="594.6" y="365.1" class="st5" width="25.8" height="15.5"/>
	<rect x="664.2" y="365.1" class="st5" width="25.8" height="15.5"/>
	<rect x="738.9" y="365.1" class="st5" width="25.8" height="15.5"/>
	<rect x="594.6" y="412.5" class="st5" width="25.8" height="15.5"/>
	<rect x="664.2" y="412.5" class="st5" width="25.8" height="15.5"/>
	<rect x="738.9" y="412.5" class="st5" width="25.8" height="15.5"/>
	<rect x="594.6" y="459.8" class="st5" width="25.8" height="15.5"/>
	<rect x="664.2" y="459.8" class="st5" width="25.8" height="15.5"/>
	<rect x="738.9" y="459.8" class="st5" width="25.8" height="15.5"/>
	<path class="st5" d="M848.1,270.5c-2.2,5-3.6,10.2-4.2,15.5h-14.1v-15.5H848.1z"/>
	<rect x="829.7" y="317.8" class="st6" width="25.8" height="15.5"/>
	<rect x="829.7" y="365.1" class="st5" width="25.8" height="15.5"/>
	<rect x="829.7" y="412.5" class="st5" width="25.8" height="15.5"/>
	<rect x="829.7" y="459.8" class="st5" width="25.8" height="15.5"/>
	<rect x="222.9" y="252.4" class="st5" width="25.8" height="15.5"/>
	<rect x="222.9" y="287.1" class="st6" width="25.8" height="15.5"/>
	<rect x="222.9" y="321.9" class="st5" width="25.8" height="15.5"/>
	<rect x="222.9" y="356.6" class="st5" width="25.8" height="15.5"/>
	<rect x="222.9" y="391.3" class="st5" width="25.8" height="15.5"/>
	<rect x="222.9" y="426" class="st5" width="25.8" height="15.5"/>
	<rect x="222.9" y="460.7" class="st5" width="25.8" height="15.5"/>
	<rect x="79.9" y="342.8" class="st5" width="25.8" height="15.5"/>
	<rect x="121.1" y="342.8" class="st5" width="25.8" height="15.5"/>
	<rect x="79.9" y="383.3" class="st5" width="25.8" height="15.5"/>
	<rect x="121.1" y="383.3" class="st5" width="25.8" height="15.5"/>
	<rect x="79.9" y="423.7" class="st5" width="25.8" height="15.5"/>
	<rect x="121.1" y="423.7" class="st5" width="25.8" height="15.5"/>
	<rect x="368.5" y="358.2" class="st5" width="128.8" height="13.8"/>
	<rect x="368.5" y="402.4" class="st5" width="128.8" height="13.8"/>
	<rect x="368.5" y="446.6" class="st5" width="128.8" height="13.8"/>
	<path class="st0" d="M187.7,0.6v484.6c-3.9-0.4-7.7-0.9-11.6-1.4V0.1C180,0.1,183.9,0.3,187.7,0.6z"/>
	<path class="st0" d="M547.2,79.7v416l-11.6,0.1V78.4C539.4,78.9,543.3,79.3,547.2,79.7z"/>
	<path class="st0" d="M984.6,387.7H0.5c0.4-3.5,1-6.9,2-10.3H971C975.9,380.4,980.5,383.9,984.6,387.7z"/>
	<path class="st0" d="M895,342.8c3.8,1.7,7.7,3.4,11.6,5v133.5c-3.9,0.6-7.7,1.1-11.6,1.6V342.8z"/>
	<polygon class="st3" points="270.7,184.4 268.7,184.4 268.7,182.4 268.3,182.4 268.3,184.4 266.4,184.4 266.4,184.7 268.3,184.7 
		268.3,186.7 268.7,186.7 268.7,184.7 270.7,184.7 	"/>
	<polygon class="st3" points="680.9,143.4 678.9,143.4 678.9,141.4 678.6,141.4 678.6,143.4 676.6,143.4 676.6,143.7 678.6,143.7 
		678.6,145.7 678.9,145.7 678.9,143.7 680.9,143.7 	"/>
	<polygon class="st3" points="317.4,135.4 315.4,135.4 315.4,133.4 315.1,133.4 315.1,135.4 313.1,135.4 313.1,135.7 315.1,135.7 
		315.1,137.7 315.4,137.7 315.4,135.7 317.4,135.7 	"/>
	<circle class="st3" cx="357.4" cy="259.5" r="1.3"/>
	<circle class="st3" cx="609" cy="146.1" r="1.3"/>
	<circle class="st3" cx="738.8" cy="207.3" r="1.3"/>
	<circle class="st3" cx="527.5" cy="218.4" r="1.3"/>
	<g>
		
			<linearGradient id="SVGID_2_" gradientUnits="userSpaceOnUse" x1="778.6978" y1="1325.3258" x2="778.6978" y2="1000.5385" gradientTransform="matrix(1 0 0 1 -45.11 -787.83)">
			<stop  offset="0" style="stop-color:#808080;stop-opacity:0.25"/>
			<stop  offset="0.54" style="stop-color:#808080;stop-opacity:0.12"/>
			<stop  offset="1" style="stop-color:#808080;stop-opacity:0.1"/>
		</linearGradient>
		<path class="st7" d="M829.7,442c0,0-20,4.8-28,13.9c-2.6,3-6.5,5.2-10.7,6.7V449c4.6-7.6,9.2-16.2,9.2-16.2
			c0.3-0.4,1.8-6.3,1.8-6.3c3.8-2.9-0.3-13.2-0.3-13.2s2.4-6.5,1-7.7c-1.3-1.3-0.3-4.6,0.8-6c1-1.4,0.8-3.4,0.8-4.6
			s-1.7-3.1-4.4-4.2c-2.7-1,0.3-2.7,1.8-3.1c1.7-0.4,2.1-4.4,0.3-6.5s0.3-3.4,1.3-5.6c1-2.4-3.4-1.8-3.4-1.8v-21.2l0,0
			c0,0-1.3-6.9-2.5-19.1c-1.3-12.2-6-13.3-6-13.3c-2.6-0.8-5.1-1.8-7.5-2.9c-2.6-1.2-5.2-2.2-8-2.9c0,0-5.6,0-10.2-1.4
			s-6.9-1.4-6.9-1.4l-0.8-0.4c-5.6-2.9-10.1-7.6-12.7-13.3c-0.1-0.3-0.3-0.5-0.4-0.9c1.3-1.3,2.4-2.9,3.4-4.4l0,0c0,0.3,0,0.4,0,0.7
			c0,0.1,0,0.1,0,0.3c0,0.5,0,1,0,1.6l0,0l0,0c3.3-5.9,12.9-7.2,13.9-13.9c0-0.3,0-0.7,0-0.9l0,0c0-0.3,0-0.4,0-0.7
			c-0.1-1.8-0.8-3.7-0.9-5.6c0-0.5,0-1,0-1.6l0,0c0.4-5.2,4.3-9.7,6.1-14.8c0.5-1.3,0.8-2.7,0.9-4.2l0,0c0-0.4,0.1-0.9,0.1-1.3
			c0-0.1,0-0.3,0-0.3c0-0.3,0-0.5,0-0.9c-0.1-5.4-2.5-10.6-6.5-14.1c-3.3-2.9-7.7-4.7-10.1-8.4c-1-1.7-1.6-3.8-2.7-5.5
			c-2.2-3.1-6.3-4.4-10.1-5c-3.8-0.5-7.8-0.3-11.5-1.4c-2.6-0.8-5-2.4-7.6-3.1c-5.9-1.6-12,0.7-15.6,5.6c-1.4,2-2.4,4.4-4.2,6
			c-3.8,3.3-10.3,1.8-13.7,5.5c-1.8,2.1-2.1,4.8-1.8,7.6v0.1c0,0.3,0,0.4,0,0.7c0,0.1,0,0.3,0,0.3c0,0.1,0,0.3,0,0.4
			c0.1,1,0.3,2,0.4,3c0,0.1,0,0.3,0,0.4l0.1,0.9c0,0.3,0,0.4,0,0.7s0,0.5,0,0.8s0,0.4,0,0.7c0.4,7.7-1.3,15.4-4.8,22.4
			c-3.1,6.1-7.8,11.8-8.6,18.7c-0.1,1.2-0.1,2.2-0.1,3.4c0,0.1,0,0.3,0,0.4s0,0.4,0,0.7s0,0.5,0.1,0.7c0,0.1,0,0.3,0,0.4
			c0,0.3,0.1,0.7,0.1,0.9v0.3c0.8,4.7,2.7,9.3,3.7,14c0.4,1.7,0.7,3.5,0.8,5.4l0,0c0,0.5,0,1.2,0.1,1.7c0,0.8,0,1.6,0,2.4
			c-1.6,0.7-3.3,1-4.8,1.4c-2.9,0.4-11.5,8-10.8,9.8c0.7,2-3.8,15-3.9,15.4l0,0l-7.1,48.1c0,0-3.7,3.5-2.6,5.9
			c1.2,2.4-0.3,6.3-0.3,6.3s-6.3,2.7-4.8,4.4c1.4,1.7,0.8,4.8-0.3,6.9c-0.9,2.1-2.5,5.9,0,6.5c2.5,0.7,0.4,8.8,0.4,8.8
			s8.8-1,8.2,4.2c-0.3,1.7,6.1,6.1,8.8,8v25c-3.5-1-7.7-2.2-10.5-3.5c-5.5-2.5-35.9-7.3-42.6,7.1c-6.7,14.5,9.2,33.7,13.2,35.8
			c0,0,3.8,2.9,4.6,4.4c0.8,1.4,5.6,1.8,5.6,1.8s5,2.4,6.3,3.5c0.9,0.9,8.5,3.4,17.6,5.2l0,0c0,0-7.3,16.7,4.6,15.3
			c11.9-1.4,17.8-7.2,26.1-7.2c3.4,0,9.5-0.5,15.8-1c1.6,0.3,3.1,0.7,4.7,1c3.5,1,7.2,1.8,10.8,2.4c0,0,9.4,5,14.4,3.8
			c0.4-0.1,0.8-0.3,1.2-0.5h0.1c0.9-0.3,2-1.2,3-2.6c6.3,0.7,13.5,1.6,16.1,2.6c5.2,2,42.4-0.8,42.4-0.8s24.1,0.5,30.8,2.5
			c6.8,2,4.4-21-8.2-23.7c-3.4-0.7-6.8-1-10.3-1c0.9-0.9,1.7-1.8,2.4-2.9c4.6-0.4,7.6-0.7,7.6-0.7s12.2-5.9,19-9.4
			c4.4-2.4,8.4-5.5,11.6-9.2c0,0,6-3.8,8.5-5.2c2.5-1.4,3.8-6.3,3.8-6.3C877.9,436.2,829.7,442,829.7,442z M775.5,388.4
			c0-0.7,0-1.4,0-2.1C776.1,386.7,776,387.4,775.5,388.4L775.5,388.4z M775.6,403.1c0.5,0.7,1,1.3,1.3,1.7c1.3,1.7-1,2.6-0.9,5.5
			c0,0.7,0.1,1.6,0.1,2.5l0,0C776,408.8,775.7,405.2,775.6,403.1L775.6,403.1z"/>
	</g>
	<path class="st8" d="M667,468.8c0,0-11.6-2.7-17.1-5.2s-35.9-7.3-42.6,7.1c-6.7,14.4,9.2,33.6,13.2,35.7s42.6-26.5,42.6-26.5
		l30.5,12.8l5.9-20L667,468.8z"/>
	<path class="st8" d="M701.3,472.7h89.5c11.9,0,21.6,9.7,21.6,21.6v3.1c0,11.9-9.7,21.6-21.6,21.6h-89.5c-11.9,0-21.6-9.7-21.6-21.6
		v-3.1C679.9,482.3,689.4,472.7,701.3,472.7z"/>
	<path class="st9" d="M812.4,495.8c0,4.6-1.3,9-3.8,12.8c-0.9,1.3-1.8,2.5-2.9,3.5c-4.3,4.3-10.2,6.8-16.3,6.8H703
		c-12.7,0-23-10.3-23-23s10.3-23,23-23h86.4C802.1,472.7,812.4,483,812.4,495.8z"/>
	<path class="st10" d="M740.3,497.1c0,0-13.3,3.4-24.2,3.3c-10.8-0.1-61.6,20.9-61.6,20.9s-7.3,16.6,4.6,15.3
		c11.9-1.4,17.8-7.2,26.1-7.2c8.4,0,34.9-2.9,34.9-2.9l25.5-18.8L740.3,497.1z"/>
	<path class="st11" d="M748.5,340l-23.8,4.7l-1.6,0.3c0,0-18.8-5-19.5-5.5c-0.7-0.4-17.8-23.5-17.8-23.5s8.6,0.1,15.4-3.8
		c0.3-0.1,0.5-0.3,0.8-0.4c3-1.8,5.2-4.6,6.4-7.8c0.1-0.4,0.3-0.7,0.4-1c0.8-2.7,0.8-6.1-0.3-10.3c-2.4-9.7,3-12.4,10.2-12.2
		c10.3,0.4,24.3,6.8,24.3,6.8c0.1,3.3,0.9,6.5,2.2,9.5c0.1,0.3,0.3,0.5,0.4,0.9c2.6,5.8,7.1,10.5,12.7,13.3l0.8,0.4
		c0.8,0.4,1.6,0.7,2.4,1C779.6,319.1,748.5,340,748.5,340z"/>
	<path class="st9" d="M745.7,297.5c-9.3,10.6-24.8,13.2-37.1,6.4c1-3,1.2-6.7,0.1-11.4c-5.6-23.8,34.5-5.5,34.5-5.5
		C743.3,290.7,744.2,294.2,745.7,297.5z"/>
	<path class="st10" d="M753.2,276.3c0,5.6-1.6,11.1-4.6,15.9c-0.9,1.6-2.1,3-3.4,4.4c-5.2,5.8-12.5,9.3-20.4,9.7c-0.5,0-1.2,0-1.8,0
		c-16.6,0-30.1-13.5-30.1-30.1s13.5-30.1,30.1-30.1C739.8,246.3,753.2,259.7,753.2,276.3L753.2,276.3L753.2,276.3z"/>
	<path class="st9" d="M748.5,340l-23.8,4.7l-1.6,0.3c0,0-18.8-5-19.5-5.5c-0.7-0.4-17.8-23.5-17.8-23.5s8.6,0.1,15.4-3.8
		c0.3-0.1,0.5-0.3,0.8-0.4c2.2,2.4,9.3,8.9,20.4,8.9c1.4,0,2.9-0.1,4.3-0.3c3.4-0.5,6.8-0.8,10.1-1.2c6.4-0.7,16.3-2.6,21.6-8.4
		l0.8,0.4c0.8,0.4,1.6,0.7,2.4,1C779.6,319.1,748.5,340,748.5,340z"/>
	<path class="st12" d="M775.5,400.9c0.3,4.6,3.5,56.3,3.5,56.3H674.8l0.7-32.5l0.5-26l0.1-8.5l0.8-29.7l-3-2.6l-16.1-14.6l0,0
		c0.1-0.4,4.6-13.6,3.9-15.4c-0.7-1.8,8-9.4,10.8-9.8c1.7-0.4,3.3-0.9,4.8-1.4c5-1.7,11.5-4.3,12.2-3.9c1,0.5,11.2-0.4,11.6-0.4l0,0
		c0,0,7.6,9.8,21,9.7c1.4,0,2.9-0.1,4.2-0.4c3.4-0.5,6.8-0.8,10.1-1.2c6.8-0.7,17.4-2.9,22.4-9.3c0,0,2.4,0.1,6.9,1.4
		c4.6,1.4,10.2,1.4,10.2,1.4c2.7,0.8,5.4,1.7,8,2.9c2.5,1.2,5,2.1,7.5,2.9c0,0,4.8,1.3,6,13.3c1.3,12.2,2.5,19,2.5,19l-24.8,21.4
		C775.5,373.7,775.3,396.3,775.5,400.9z"/>
	<polygon class="st10" points="657.8,437 661.5,442.9 675.1,447.7 684.5,430.6 675.9,424.7 662,419.2 654,423.9 	"/>
	<path class="st8" d="M774.4,465.7c0,0,19.3-1.4,27.3-10.5c8-9,28-13.7,28-13.7s48.2-5.6,29.1,37c0,0-1.3,4.8-3.8,6.3
		c-2.5,1.4-8.5,5.2-8.5,5.2l-74.1-6.4L774.4,465.7z"/>
	<path class="st9" d="M812.4,495.8c0,4.6-1.3,9-3.8,12.8c-12.4,1-40,3.7-45.9,5.4c-7.1,2-21.4-1.4-23-1.8h-0.1c0,0-2.7-8.4-4.1-13.7
		c-0.5-2.5-0.9-4.3-0.5-4.4c1.3-0.4,12.7-3.5,12.5-1.7c-0.3,1.8,34.5-13.5,34.5-13.5l1,13.3C786.6,495.9,812.4,489.9,812.4,495.8z"
		/>
	<path class="st8" d="M848.1,484.6l-1.4,5.5c-3.4,3.7-7.3,6.8-11.6,9.2c-6.9,3.5-19,9.4-19,9.4s-44.4,3.8-52,5.9
		c-7.5,2.1-23.1-1.8-23.1-1.8s-5.9-17.8-4.6-18.2c1.3-0.4,12.7-3.5,12.5-1.7c-0.3,1.8,34.5-13.5,34.5-13.5L848.1,484.6z"/>
	<path class="st10" d="M724.3,531.4c0,0,21.8,1.6,27.1,3.5c5.2,2,42.4-0.8,42.4-0.8s24.1,0.5,30.8,2.5c6.8,2,4.4-21-8.2-23.7
		c-12.7-2.6-30.6,1.2-30.6,1.2s-20.1-2.6-22.6-2.9s-18.6,0.1-18.6,0.1L724.3,531.4z"/>
	<path class="st9" d="M638.5,473.7c0,0,28.9,2.6,36.9,7.3L638.5,473.7z"/>
	<path class="st9" d="M818.6,454.9c0,0-22.6,5.5-31.5,13.6L818.6,454.9z"/>
	<path class="st9" d="M640.2,467.2c0.5,0.1,13.3,1.8,12.9,3C652.8,471.5,640.2,467.2,640.2,467.2z"/>
	<path class="st9" d="M620,499.5l1.7,6.3c0,0,3.8,2.9,4.6,4.4c0.8,1.6,5.6,1.8,5.6,1.8s5,2.4,6.3,3.5c1.3,1.3,14.8,5.2,27.6,6.9
		c12.7,1.7,36.3,4.8,41.3,6.4c3.5,1,7.2,1.8,10.8,2.4c0,0,9.4,5,14.4,3.8c5-1.3,13.6-24.1,13.6-24.1s-32.9-7.7-34-10.2
		c-1-2.5-32.8-14.2-32.8-14.2l-18.8,0.4L620,499.5z"/>
	<path class="st8" d="M618.7,500l1.7,6.3c0,0,3.8,2.9,4.6,4.4c0.8,1.4,5.6,1.8,5.6,1.8s5,2.4,6.3,3.5c1.3,1.3,14.8,5.2,27.6,6.9
		c12.7,1.7,36.3,4.8,41.3,6.4c3.5,1,7.2,1.8,10.8,2.4c0,0,9.4,5,14.4,3.8c5-1.3,13.6-24.1,13.6-24.1s-32.9-7.7-34-10.2
		c-1-2.5-47.6-21.6-47.6-21.6l-14.6-3.4L618.7,500z"/>
	<path class="st12" d="M661.5,341.2l-3.7,2.1l-7.1,48c0,0-3.7,3.5-2.6,5.9c1.2,2.4-0.3,6.3-0.3,6.3s-6.3,2.7-4.8,4.4
		s0.8,4.8-0.3,6.9c-0.9,2.1-2.5,5.9,0,6.4c2.5,0.7,0.4,8.8,0.4,8.8s8.8-1,8.2,4.2c-0.3,2.1,9.9,8.8,9.9,8.8s-11.6-21,14.4-18.2
		l2.2-11.9c0,0,2.2-6.7,0-8.8c-2.2-2.1,0.5-12,0.5-12l0.5-43.1L661.5,341.2z"/>
	<path class="st9" d="M655.7,403.1c0.5,0.8,14.5,2.4,15.4,4.8C672.1,410.5,655.7,403.1,655.7,403.1z"/>
	<path class="st9" d="M651.3,415.2c0,0,2-6,6.4-4.8C662.3,411.2,651.3,415.2,651.3,415.2z"/>
	<path class="st9" d="M648.9,423.8c0,0,3.4-8,8-7.3C661.5,417.1,648.9,423.8,648.9,423.8z"/>
	<path class="st10" d="M801.7,423.7l-1.4,8.8c0,0-15,27.6-17.8,28c-2.7,0.4-17.5-18.3-17.5-18.3l-3.9-18.4l15.6-3l6.9-6.8
		C783.7,413.9,801.2,415.6,801.7,423.7z"/>
	<path class="st12" d="M794.7,348.4l5.6,3.9v21c0,0,4.4-0.4,3.4,1.8c-1,2.4-3.1,3.5-1.3,5.6s1.4,6-0.3,6.4s-4.6,2.1-1.8,3.1
		c2.7,1,4.4,2.9,4.4,4.2c0,1.3,0.3,3.1-0.8,4.6s-2.1,4.8-0.8,6s-1,7.7-1,7.7s3.9,10.2,0.3,13.2c0,0-1.7,5.9-1.8,6.3
		c0,0,2.6-20.3-23.7-11.8c0,0-0.5-7.7-0.7-10.6s2.2-3.7,0.9-5.4c-1.3-1.7-4.7-5.6-3.1-6.7c1.6-1,1-2.9,0.4-4.4
		c-0.7-1.4-2.9-1.4-0.8-3.3c2-1.8,3.1-3.4,2-4.3c-1.2-0.9-3.3-3.5-1.6-4.8c1.6-1.3,1.7-19.3,1.7-19.3S782.1,335.2,794.7,348.4z"/>
	<path class="st9" d="M792.1,384.2c0,0,8-2.2,8.2,0C800.6,386.4,792.1,384.2,792.1,384.2z"/>
	<path class="st9" d="M783,390.2c0,0,11-2.7,12.4-0.7C796.9,391.6,783,390.2,783,390.2z"/>
	<path class="st9" d="M780.6,396.1c0,0,16.5-2.4,17.5,1C799.2,400.4,780.6,396.1,780.6,396.1z"/>
	<path class="st9" d="M783,403.1c0.7,0.1,15.9,1.2,16.2,4.2C799.5,410.2,783,403.1,783,403.1z"/>
	<path class="st13" d="M666.4,412.5H785c3.4,0,6.1,2.7,6.1,6.1v62.1c0,3.4-2.7,6.1-6.1,6.1H666.4c-3.4,0-6.1-2.7-6.1-6.1v-62.1
		C660.3,415.3,663,412.5,666.4,412.5z"/>
	<circle class="st3" cx="725.7" cy="449.8" r="4.8"/>
	<path class="st9" d="M682.1,367.1c0,0,12.5,9.5,22.2,2.2C704.5,369.3,688,370.8,682.1,367.1z"/>
	<path class="st9" d="M745.7,369.7c0,0,12.5,9.5,22.2,2.2C767.9,371.9,751.5,373.5,745.7,369.7z"/>
	<path class="st9" d="M753.2,276.3c0,5.6-1.6,11.1-4.6,15.9c-0.3-8.4-2.2-16.7-6.8-23.8c-4.2-6.4-16.9-17.6-25.6-14.5
		c-1.8,0.7-3.3,2.2-3.8,4.1c-0.9,3.3,1.7,4.7,3.3,7.3c2.7,4.4,3.8,9.8,3,15c-0.1,0.7-0.3,1.4-0.4,2.1c-1.3,5.1-4.6,11-1.3,15.3
		c2.2,2.9,7.1,3.9,7.8,7.6c0,0.4,0.1,0.7,0,1c-0.1,2.5-2.2,4.6-3.1,7.1c-1,2.9-0.5,5.6,0.7,8.5c1.4,3.8,3.8,7.5,4.3,11.4
		s-0.7,7.6-2.1,11.2c-1.3,3.5-2.9,6.9-3.4,10.6c-1,6.9,1.6,14.9-2.9,20.4c-0.4,0.7-1.2,1.2-2,1.3c-2.7,0.3-2.4-4.7-4.6-6.4
		c0.3,2.9,0.5,6-0.5,8.8c-1,2.7-3.8,5.1-6.7,4.6l-1-6.5c-2,2-4.3,3.4-6.9,4.3c1-6.9,3.5-13.6,7.2-19.6c-7.3,3.5-11.6,11.2-15.4,18.4
		c-2.4,4.4-4.8,9.4-4.1,14.5c0.4,2.1,1.2,4.1,1.4,6c0.3,2-0.5,4.4-2.5,5.2c-1.7,0.7-3.7-0.1-4.8-1.4l-0.3-0.3
		c-0.1-0.1-0.3-0.3-0.4-0.5c-0.3-0.3-0.4-0.7-0.5-1c-0.5-1.2-0.9-2.5-1.2-3.8l-0.1-0.5c-2-8.5-3.7-17.4-2.2-26
		c0.5-3.1,1.4-6.3,1.3-9.5c-0.1-1.8-0.5-3.7-1-5.4c-1.7-4.8-5-9.2-6.8-14v-0.1c-1-2.5-1.4-5.8,0.4-7.7c0.9-1,2.4-1.6,3.5-2.4
		c3.7-2.4,5.2-6.8,5.9-11.1c0.3-2,0.4-3.9,0.4-5.9c5-1.7,11.5-4.3,12.2-3.9c1,0.5,11.2-0.4,11.6-0.4c3.1-1.8,5.9-4.4,7.2-8.4
		c0.1-0.4,0.3-0.7,0.4-1c-14.6-7.8-20-26.1-12.2-40.8c7.8-14.6,26.1-20,40.8-12.2C747.2,255.2,753.2,265.4,753.2,276.3L753.2,276.3z
		"/>
	<path class="st14" d="M718.5,281.2c-1.4,5.1-4.6,11-1.3,15.3c2.2,2.9,7.1,3.9,7.7,7.6c0.5,2.9-2.1,5.4-3.1,8.1
		c-2.5,6.5,3.9,12.9,5,20c1,7.6-4.4,14.4-5.5,22c-1,6.9,1.6,14.9-2.9,20.4c-0.4,0.7-1.2,1.2-2,1.3c-2.7,0.3-2.4-4.7-4.6-6.4
		c0.3,2.9,0.5,6-0.5,8.8c-1,2.7-3.8,5.1-6.7,4.6l-1-6.5c-2,2-4.3,3.4-6.9,4.3c1-6.9,3.5-13.6,7.2-19.6c-7.3,3.5-11.6,11.2-15.4,18.4
		c-2.4,4.4-4.8,9.4-4.1,14.5c0.4,2.1,1.2,4.1,1.4,6c0.1,2.1-0.5,4.4-2.5,5.2c-1.7,0.8-3.9-0.3-5.1-1.7c-1.2-1.6-1.7-3.4-2.1-5.4
		c-2-8.8-3.9-17.6-2.4-26.5c0.5-3.1,1.4-6.3,1.3-9.5c-0.3-7.1-5.5-12.8-8-19.3c-1-2.6-1.4-5.8,0.4-7.7c0.9-1,2.4-1.6,3.5-2.4
		c3.7-2.4,5.2-6.8,5.9-11.1c0.7-4.6,0.5-9.4-0.4-14c-1.4-6.8-4.8-13.6-4.1-20.5c0.8-6.8,5.5-12.5,8.6-18.7c4.1-8,5.6-17,4.4-25.8
		c-0.5-4.1-1.4-8.9,1.3-11.9c3.4-3.7,9.8-2.4,13.7-5.5c1.8-1.6,2.7-3.9,4.2-6c3.5-5,9.8-7.2,15.6-5.6c2.6,0.8,5,2.2,7.6,3.1
		c3.7,1.2,7.6,1,11.5,1.4c3.8,0.5,7.8,1.7,10.1,5c1.2,1.7,1.7,3.8,2.7,5.5c2.4,3.8,6.7,5.5,10.1,8.4c5.9,5.2,8,13.3,5.5,20.8
		c-2,5.5-6.5,10.5-6.1,16.3c0.1,2.4,1.2,4.8,0.9,7.2c-0.9,6.7-10.6,8-13.9,13.9c0.3-9.5-1.6-19.3-6.8-27.5
		c-4.2-6.4-16.9-17.6-25.6-14.5c-1.8,0.7-3.3,2.2-3.8,4.1c-0.9,3.3,1.7,4.7,3.3,7.3C719,269.3,719.9,275.4,718.5,281.2z"/>
	<g class="st15">
		<path d="M677.4,314.2c0.1-3-0.3-6-0.8-8.9c-1.3-5.9-3.8-11.5-4.1-17.4c-0.4,6.5,2.7,12.8,4.1,19.2
			C677.2,309.5,677.4,311.9,677.4,314.2z"/>
		<path d="M702.4,361.7c0.5-0.9,1-1.8,1.6-2.7c-7.3,3.5-11.6,11.2-15.4,18.4c-2.2,4.2-4.4,8.8-4.2,13.3c0.3-3.9,2.2-7.8,4.2-11.5
			C692.1,372.5,696,365.5,702.4,361.7z"/>
		<path d="M685.9,399.5c-0.3,1.6-1,3-2.5,3.7c-1.7,0.8-3.9-0.3-5.1-1.7c-1.2-1.6-1.7-3.4-2.1-5.4c-1.4-6.3-2.7-12.5-2.9-19
			c-0.1,6.9,1.3,14,2.9,20.8c0.4,1.8,0.9,3.8,2.1,5.4c1.2,1.6,3.3,2.5,5.1,1.7c2-0.8,2.6-3.1,2.5-5.2
			C685.9,399.6,685.9,399.6,685.9,399.5z"/>
		<path d="M719.1,274.9c-0.1,1.4-0.3,3-0.7,4.4c-1,3.8-3,8.1-2.6,11.6c0.3-3.1,1.8-6.7,2.6-9.8C719,279.2,719.2,277.1,719.1,274.9z"
			/>
		<path d="M686.2,247.1c0-2.2-0.1-4.4-0.4-6.7c-0.3-1.6-0.5-3.4-0.5-5.1c-0.1,2.2,0.3,4.7,0.5,6.9
			C686,243.9,686.2,245.5,686.2,247.1z"/>
		<path d="M724.9,304.2v-0.1c-0.4,2.2-2.2,4.2-3,6.4c-0.5,1.3-0.7,2.7-0.5,4.1c0.1-0.8,0.3-1.4,0.5-2.2
			C722.9,309.4,725.4,307.1,724.9,304.2z"/>
		<path d="M675.2,360c-0.3-7.1-5.5-12.8-8-19.3c-0.4-1-0.7-2.1-0.8-3.3c-0.1,1.7,0.1,3.5,0.8,5.1c2.5,6.4,7.6,12.2,8,19.1
			C675.2,361,675.3,360.5,675.2,360z"/>
		<path d="M741.9,265.5c-4.2-6.4-16.9-17.6-25.6-14.5c-1.8,0.7-3.3,2.2-3.8,4.1c-0.3,0.7-0.3,1.4,0,2.2c0-0.1,0-0.3,0-0.3
			c0.5-1.8,2-3.4,3.8-4.1c8.8-3.1,21.4,8.1,25.6,14.5c4.7,7.2,6.7,15.9,6.8,24.7C748.8,282.7,747,273.2,741.9,265.5z"/>
		<path d="M762.6,279.1c-0.9,6.7-10.5,8-13.9,13.7c0,0.7,0,1.3,0,2c3.3-5.9,12.9-7.2,13.9-13.9C762.6,280.3,762.6,279.6,762.6,279.1
			C762.6,279,762.6,279.1,762.6,279.1z"/>
		<path d="M767.9,255.6c-2,5.5-6.5,10.5-6.1,16.3c0,0.1,0,0.1,0,0.3c0.4-5.2,4.3-9.7,6.1-14.6c0.8-2.4,1.2-4.7,1-7.2
			C768.8,252.2,768.5,253.9,767.9,255.6z"/>
		<path d="M718.5,372.7c-0.4,0.7-1.2,1.2-2,1.3c-2.7,0.3-2.4-4.7-4.6-6.4c0,0.7,0.1,1.3,0.1,2c2.1,1.8,1.7,6.5,4.4,6.3
			c0.8-0.1,1.4-0.7,2-1.3c2.5-3.1,2.7-7.1,2.6-11.2C721.1,366.8,720.6,370.1,718.5,372.7z"/>
		<path d="M711.4,376.2c-1,2.7-3.8,5.1-6.7,4.6c-0.4-2.2-0.7-4.3-1-6.5c-1.8,1.8-4.2,3.3-6.7,4.2c-0.1,0.7-0.3,1.3-0.4,2
			c2.6-0.9,5-2.4,6.9-4.3c0.4,2.2,0.7,4.4,1,6.5c2.9,0.4,5.6-1.8,6.7-4.6c0.7-2,0.9-3.9,0.8-5.9
			C712.1,373.6,711.8,374.9,711.4,376.2z"/>
		<path d="M721.2,352.2c-0.3,1.7-0.3,3.5-0.3,5.4c0-1.2,0.1-2.4,0.3-3.4c1-7.2,6-13.7,5.6-20.9C726.4,339.6,722.3,345.6,721.2,352.2
			z"/>
	</g>
	
		<linearGradient id="SVGID_3_" gradientUnits="userSpaceOnUse" x1="671.4742" y1="562.2824" x2="738.6597" y2="746.8729" gradientTransform="matrix(1 0 0 -1 0 964)">
		<stop  offset="4.384025e-03" style="stop-color:#33DED2"/>
		<stop  offset="0.3834" style="stop-color:#5C39BC"/>
		<stop  offset="0.7631" style="stop-color:#2B211A;stop-opacity:0.7"/>
	</linearGradient>
	<path class="st16" d="M718.6,281.4c-1.4,5.1-4.6,11-1.3,15.3c2.2,2.9,7.1,3.9,7.7,7.6c0.5,2.9-2.1,5.4-3.1,8.1
		c-2.5,6.5,3.9,12.9,5,20c1,7.6-4.4,14.4-5.5,22c-1,6.9,1.6,14.9-2.9,20.4c-0.4,0.7-1.2,1.2-2,1.3c-2.7,0.3-2.4-4.7-4.6-6.4
		c0.3,2.9,0.5,6-0.5,8.8c-1,2.7-3.8,5.1-6.7,4.6l-1-6.5c-2,2-4.3,3.4-6.9,4.3c1-6.9,3.5-13.6,7.2-19.6c-7.3,3.5-11.6,11.2-15.4,18.4
		c-2.4,4.4-4.8,9.4-4.1,14.5c0.4,2.1,1.2,4.1,1.4,6c0.1,2.1-0.5,4.4-2.5,5.2c-1.7,0.8-3.9-0.3-5.1-1.7c-1.2-1.6-1.7-3.4-2.1-5.4
		c-2-8.8-3.9-17.6-2.4-26.5c0.5-3.1,1.4-6.3,1.3-9.5c-0.3-7.1-5.5-12.8-8-19.3c-1-2.6-1.4-5.8,0.4-7.7c0.9-1,2.4-1.6,3.5-2.4
		c3.7-2.4,5.2-6.8,5.9-11.1c0.7-4.6,0.5-9.4-0.4-14c-1.4-6.8-4.8-13.6-4.1-20.5c0.8-6.8,5.5-12.5,8.6-18.7c4.1-8,5.6-17,4.4-25.8
		c-0.5-4.1-1.4-8.9,1.3-11.9c3.4-3.7,9.8-2.4,13.7-5.5c1.8-1.6,2.7-3.9,4.2-6c3.5-5,9.8-7.2,15.6-5.6c2.6,0.8,5,2.2,7.6,3.1
		c3.7,1.2,7.6,1,11.5,1.4c3.8,0.5,7.8,1.7,10.1,5c1.2,1.7,1.7,3.8,2.7,5.5c2.4,3.8,6.7,5.5,10.1,8.4c5.9,5.2,8,13.3,5.5,20.8
		c-2,5.5-6.5,10.5-6.1,16.3c0.1,2.4,1.2,4.8,0.9,7.2c-0.9,6.7-10.6,8-13.9,13.9c0.3-9.5-1.6-19.3-6.8-27.5
		c-4.2-6.4-16.9-17.6-25.6-14.5c-1.8,0.7-3.3,2.2-3.8,4.1c-0.9,3.3,1.7,4.7,3.3,7.3C719.1,269.4,720,275.6,718.6,281.4z"/>
	<path class="st13" d="M139.8,548.9c0,0-10.5,37.1-1,38.7c9.5,1.6,56.3,1.1,67.7,2.8c11.4,1.6,35.2-1.1,35.2-8.4
		c0-7.2-24.8-12.1-24.8-12.1s-35.2-16.1-36.2-17C179.7,552.1,139.8,548.9,139.8,548.9z"/>
	<path class="st12" d="M148.5,330.2c0,0,2.9,27.5,2.9,29.8s-2.9,40.3,0,42s-1.9,12.9-1.9,17s-15.3,71-11.4,96.9
		c3.9,25.9-2.6,23.2,0.3,25.5c2.9,2.4-0.3,2.7-0.3,7.5s30.5,8.9,30.5,8.9l33.3-178.4l-17.2-53.3L148.5,330.2z"/>
	<path class="st9" d="M148.5,330.2c0,0,2.9,27.5,2.9,29.8s-2.9,40.3,0,42s-1.9,12.9-1.9,17s-15.3,71-11.4,96.9
		c3.9,25.9-2.6,23.2,0.3,25.5c2.9,2.4-0.3,2.7-0.3,7.5s30.5,8.9,30.5,8.9l33.3-178.4l-17.2-53.3L148.5,330.2z"/>
	<path class="st13" d="M171.1,559.6c0,0-9.3,29.2,0.3,30.7s56.3-2.3,67.7-0.8s35.2,1.5,35.2-5.7c-0.1-7.2-24.9-11.9-24.9-11.9
		S214,556.1,213,555.2C211.9,554.4,171.1,559.6,171.1,559.6z"/>
	<path class="st12" d="M134.5,303.2c0,0-9.4,24.3,4.9,35.3s31.6,33.7,31.7,35.4c0.1,1.7-12.8,163.9-8.2,174.1
		c4.6,10.1,4.3,16.7,3.5,18.3s10.4,9.7,21.8,8.7c11.4-1,27.9-9.6,29.2-16.2s-8.2-61.7-8.1-72.3c0.1-10.6,3.6-26.2,5.1-29.6
		c1.6-3.4,11.8-7.5,12.9-17.3c1.1-9.8,5.8-134.2,0.7-137.8C223.1,298,134.5,303.2,134.5,303.2z"/>
	
		<ellipse transform="matrix(0.3148 -0.9492 0.9492 0.3148 63.9978 267.649)" class="st17" cx="217.37" cy="89.5" rx="32.9" ry="34.7"/>
	<path class="st17" d="M192.3,105.5c0,0,6.6,29.8,1.9,33.1c-4.8,3.2,36.2,8.1,36.2,8.1s4.8-39.6,5.8-43.6
		C237.1,99,192.3,105.5,192.3,105.5z"/>
	<path class="st8" d="M236.2,144.2c0,0-11.4-28.2-58.2-20.2c0,0-8.5,2.4-5.8,4.9c2.9,2.4,5.8,2.4,1.9,4.9c-3.8,2.4-8.5,0-5.8,2.4
		c2.9,2.4-25.7,17-23.8,44.4c1.9,27.5-6.6,66.2,0,72.7c6.6,6.5-4.8,34.7-2.9,40.3c1.9,5.6-11.4,12.9-5.8,15.4
		c5.8,2.4,108.7,17,111.6,0c2.9-17,1-4.9,3.8-8.9c2.9-4,3.8-11.2,1.9-20.2c-1.9-8.9-6.6-30.7-4.8-38.7s0-75.9-5.8-83.9
		C237.1,149,236.2,144.2,236.2,144.2z"/>
	<path class="st17" d="M216.1,341.2c0,0-14.3,46.1,3.8,46.1c18.2,0,17.2-47.6,17.2-47.6L216.1,341.2z"/>
	<path class="st18" d="M231.8,94.4c-0.9,2.7-5.5,3-11.9,1.3l0,0c-2.7-0.8-5.4-1.6-8-2.8c-3.9-1.7-6.8,1.4-9,5.9
		c-3.7,7.5-5.7,18.9-8.2,20.1c-3.3,1.6-20.7-6.9-24.5-14.2c-0.6-1-0.9-2.3-0.7-3.4c0.4-3.5-0.2-7-2-10.2c-2.1-4.6-5.7-10.1-9-18
		c-6-14.2,4-11.9,9.6-19.2c5.6-7.2,11.4-8.4,13.2-14s25.6-2.8,43.6,4.3C243.2,51.3,232,72,232,72s0.3,3,0.4,7
		c0.3,4.9,0.3,9.7-0.1,14.7C231.9,93.9,231.9,94.2,231.8,94.4z"/>
	<path class="st9" d="M222.8,156.3c0,0-32.5-1.6-35.2,38.7c-2.9,40.3-1.9,78.3-1.9,79.1c0,0.7,13.3,77.5,25.7,77.5
		s21.9-1.6,24.8-5.6s-7.6-62.2-7.6-62.2s-4.8-61.3,2.9-80.8C239.1,183.7,240,158.8,222.8,156.3z"/>
	<path class="st8" d="M227.6,152.3c0,0-32.5-1.6-35.2,38.7c-2.9,40.3-1.9,78.3-1.9,79.1c0,0.8,13.3,77.5,25.7,77.5
		s21.9-1.6,24.8-5.6c2.9-4-7.6-62.2-7.6-62.2s-4.8-61.3,2.9-80.8C243.8,179.7,244.7,154.8,227.6,152.3z"/>
	<path class="st3" d="M512,213.1c0.5,0,0.9,0.4,0.9,0.9s-0.4,0.9-0.9,0.9s-0.9-0.4-0.9-0.9S511.5,213.1,512,213.1z"/>
	<ellipse class="st3" cx="885.4" cy="133.4" rx="3.4" ry="3"/>
</g>
<g id="Layer_2">
	<g>
		<g>
			<path class="st19" d="M250.1,59.88c0.98,4.33,1.74,8.69,1.82,9.18c0,0.03,0.01,0.05,0.01,0.05l0.14,0.85L167.8,95.6l0.8,2.63
				c0.63,2.07-0.54,4.26-2.61,4.89c-2.07,0.63-4.26-0.54-4.89-2.61l-3.77-12.38c-0.63-2.07,0.54-4.26,2.61-4.89
				c1.05-0.32,2.12-0.17,3.02,0.31l63.45-19.3c0.5-1.21,1.98-4.55,3.58-6.22c1.08-1.12,3.62-2.63,5.59-3.84
				c0.57-0.35,1.17-0.69,1.76-1.02c3.52-1.95,7.18-3.48,8.48-3.36C246.9,49.9,248.03,50.74,250.1,59.88z"/>
			<path class="st20" d="M239.67,52.28c-0.73,0.41-1.46,0.82-2.16,1.25c-2.42,1.47-4.6,3.05-5.93,4.42
				c-1.97,2.04-4.12,5.01-4.73,6.49l-7.58,2.3c-0.23-2.06-0.39-5.9-0.69-10.84c-0.77-12.99,0.55-14.24,2.08-14.44
				c2.05-0.27,7.24,2.69,11.24,5.22C233.81,47.89,237.59,50.36,239.67,52.28z"/>
		</g>
		<path class="st20" d="M239.76,73.59c0.01,0.04,0.03,0.07,0.04,0.11l10.24-3.12c-0.01-0.04-0.02-0.07-0.03-0.11l1.8-0.55l0.08-0.1
			c0,0,0.06-0.02,0.05-0.05c0.02,0.07,0.04,0.14,0.06,0.22l0.06-0.02l-0.14-0.85c0,0-0.01-0.02-0.01-0.05
			c3.34,12.41,1.88,13.29,1.32,13.62c-0.43,0.26-1.16,0.64-2.09,0.92c-1.06,0.32-2.38,0.51-3.83,0.26c-0.49-0.07-1-0.18-1.52-0.36
			c-3.2-1.12-5.86-4.26-7.91-9.34L239.76,73.59z"/>
	</g>
</g>
</svg>
