<?xml version="1.0" encoding="utf-8"?>
<!-- Generator: Adobe Illustrator 24.1.3, SVG Export Plug-In . SVG Version: 6.00 Build 0)  -->
<svg version="1.1" id="e4e5ac1e-f7c3-49db-bea6-73c2d2e1dfe0"
	 xmlns="http://www.w3.org/2000/svg" xmlns:xlink="http://www.w3.org/1999/xlink" x="0px" y="0px" viewBox="0 0 1000 600"
	 style="enable-background:new 0 0 1000 600;" xml:space="preserve">
<style type="text/css">
	.st0{fill:#D1D8DB;}
	.st1{fill:#FFFFFF;}
	.st2{fill:#33DED2;}
	.st3{fill:#667C8A;}
	.st4{fill:#5C39BC;}
	.st5{fill:#E6E6E6;}
	.st6{fill:#FFCEB3;}
	.st7{fill:#2F2E41;}
	.st8{fill:#B3BEC4;}
	.st9{fill:#2A314C;}
	.st10{opacity:0.1;enable-background:new    ;}
</style>
<rect x="100.9" y="11.9" class="st0" width="798.6" height="511.5"/>
<rect x="123.7" y="76" class="st1" width="752.9" height="417.1"/>
<rect x="100.5" y="11.4" class="st2" width="798.6" height="33.9"/>
<path class="st0" d="M663.6,115.1H418.5c-1.2-0.2-2-1.3-1.9-2.4c0.1-1,0.9-1.7,1.9-1.9h245.1c1.2,0.2,2,1.3,1.9,2.4
	C665.3,114.2,664.6,115,663.6,115.1z"/>
<path class="st3" d="M493.7,138.8H337.9c-1.2-0.2-2-1.3-1.9-2.4c0.1-1,0.9-1.7,1.9-1.9h155.9c1.2,0.2,2,1.3,1.9,2.4
	C495.5,137.9,494.7,138.7,493.7,138.8z"/>
<path class="st0" d="M663.6,139.2H507.7c-1.2-0.2-2-1.3-1.9-2.4c0.1-1,0.9-1.7,1.9-1.9h155.9c1.2,0.2,2,1.3,1.9,2.4
	C665.3,138.4,664.6,139.1,663.6,139.2z"/>
<path class="st0" d="M494.1,162.5H338.3c-1.2-0.2-2-1.3-1.9-2.4c0.1-1,0.9-1.7,1.9-1.9h155.9c1.2,0.2,2,1.3,1.9,2.4
	C495.9,161.6,495.1,162.4,494.1,162.5z"/>
<path class="st0" d="M494.5,186.3H338.6c-1.2-0.2-2-1.3-1.9-2.4c0.1-1,0.9-1.7,1.9-1.9h155.9c1.2,0.2,2,1.3,1.9,2.4
	C496.2,185.4,495.5,186.1,494.5,186.3z"/>
<path class="st0" d="M565.2,162.5h-44.6c-1.2-0.2-2-1.3-1.9-2.4c0.1-1,0.9-1.7,1.9-1.9h44.6c1.2,0.2,2,1.3,1.9,2.4
	C567,161.6,566.2,162.4,565.2,162.5L565.2,162.5z"/>
<path class="st3" d="M565.2,185.8h-44.6c-1.2-0.2-2-1.3-1.9-2.4c0.1-1,0.9-1.7,1.9-1.9h44.6c1.2,0.2,2,1.3,1.9,2.4
	C567,184.9,566.2,185.7,565.2,185.8L565.2,185.8z"/>
<path class="st0" d="M640.1,185.8h-44.6c-1.2-0.2-2-1.3-1.9-2.4c0.1-1,0.9-1.7,1.9-1.9h44.6c1.2,0.2,2,1.3,1.9,2.4
	C641.9,184.9,641.1,185.7,640.1,185.8z"/>
<path class="st4" d="M381.4,115.1h-44.6c-1.2-0.2-2-1.3-1.9-2.4c0.1-1,0.9-1.7,1.9-1.9h44.6c1.2,0.2,2,1.3,1.9,2.4
	C383.1,114.2,382.4,115,381.4,115.1z"/>
<path class="st0" d="M493.2,387.2H337.3c-1.2-0.2-2-1.3-1.9-2.4c0.1-1,0.9-1.7,1.9-1.9h155.9c1.2,0.2,2,1.3,1.9,2.4
	C494.9,386.3,494.1,387,493.2,387.2L493.2,387.2z"/>
<path class="st3" d="M492.4,434.6H336.6c-1.2-0.2-2-1.3-1.9-2.4c0.1-1,0.9-1.7,1.9-1.9h155.9c1.2,0.2,2,1.3,1.9,2.4
	C494.2,433.7,493.4,434.5,492.4,434.6z"/>
<path class="st0" d="M492.8,458.3H336.9c-1.2-0.2-2-1.3-1.9-2.4c0.1-1,0.9-1.7,1.9-1.9h155.9c1.2,0.2,2,1.3,1.9,2.4
	C494.5,457.4,493.8,458.2,492.8,458.3L492.8,458.3z"/>
<path class="st0" d="M559.4,435h-44.6c-1.2-0.2-2-1.3-1.9-2.4c0.1-1,0.9-1.7,1.9-1.9h44.6c1.2,0.2,2,1.3,1.9,2.4
	C561.1,434.1,560.3,434.9,559.4,435L559.4,435z"/>
<path class="st3" d="M559.4,458.3h-44.6c-1.2-0.2-2-1.3-1.9-2.4c0.1-1,0.9-1.7,1.9-1.9h44.6c1.2,0.2,2,1.3,1.9,2.4
	C561.1,457.4,560.3,458.2,559.4,458.3L559.4,458.3z"/>
<path class="st0" d="M634.3,435h-44.6c-1.2-0.2-2-1.3-1.9-2.4c0.1-1,0.9-1.7,1.9-1.9h44.6c1.2,0.2,2,1.3,1.9,2.4
	C636,434.1,635.3,434.9,634.3,435z"/>
<path class="st0" d="M663.8,410.9H418.6c-1.2-0.2-2-1.3-1.9-2.4c0.1-1,0.9-1.7,1.9-1.9h245.1c1.2,0.2,2,1.3,1.9,2.4
	C665.5,410,664.8,410.8,663.8,410.9z"/>
<path class="st4" d="M381.6,410.9H337c-1.2-0.2-2-1.3-1.9-2.4c0.1-1,0.9-1.7,1.9-1.9h44.6c1.2,0.2,2,1.3,1.9,2.4
	C383.3,410,382.6,410.8,381.6,410.9z"/>
<polygon class="st5" points="455.5,224.6 395,284.4 455.5,344.1 469.2,330.5 423.4,284.8 469.5,238.6 "/>
<polygon class="st5" points="544.8,224.6 605.3,284.4 544.8,344.1 531.2,330.5 577,284.8 530.8,238.6 "/>
<polygon class="st2" points="455.5,224.6 395,284.4 455.5,344.1 469.2,330.5 423.4,284.8 469.5,238.6 "/>
<polygon class="st2" points="544.8,224.6 605.3,284.4 544.8,344.1 531.2,330.5 577,284.8 530.8,238.6 "/>
<path class="st6" d="M190.8,275.2c0,0,17,26.9,10.9,34.3s45.5,7.6,45.5,7.6s-7.7-39.2-5.5-48.4L190.8,275.2z"/>
<circle class="st7" cx="217.9" cy="231.7" r="53.4"/>
<polygon class="st6" points="343.5,521 343.5,552.6 375.1,546 372.5,523.6 "/>
<path class="st6" d="M455.5,526.2l88.4,14.5l-22.4,32.9c0,0-61.9-21.1-77.8-21.1C427.8,552.5,455.5,526.2,455.5,526.2z"/>
<path class="st8" d="M255.1,463c0,0,65.8-76.4,87-72.5s30.2,27.7,30.2,27.7l11.8,117.4c0,0-42.2,3.9-42.2,0s-7.9-88.4-7.9-88.4
	s-61.9,137-95,46.2L255.1,463z"/>
<path class="st8" d="M148.5,514.4c0,0,1.3,69,40.8,73.1s83-29.5,83-29.5l71.2-34c0,0,84.4,44.6,109.5,32.8c0,0,26.3-27.7,9.3-35.6
	c-17-7.9-1.3,0-1.3,0l-101.4-52.8c0,0-19.8-5.2-54,9.3s-80.3,21.1-80.3,21.1L148.5,514.4z"/>
<circle class="st6" cx="214.3" cy="249.4" r="39.5"/>
<path class="st4" d="M271,360.1l-2.7,55.3c0,0,1.3,72.5-10.6,77.8c-6,2.7-18.1,8-29.1,13.9c-8.3,4.4-16.2,9-20.6,13.1
	c-1.1,0.9-2.2,2.2-3,3.5c-5.2,9.3-39.5,7.9-47.4,1.3s-2.7,7.9-9.3,10.6c-6.5,2.5-15.3-18.3-9.8-49.6c0.2-1.1,0.3-2,0.6-3.2
	c6-30.2-3.5-102.7-2-130.7c0.2-2.2,0.3-4.3,0.6-6.5c3.9-21.1,54.3-64,63.8-45.7c11.7,22.5,38.3,1.9,42.8-8.3
	c26.3-1.3,35.6,30.2,35.6,30.2L271,360.1z"/>
<path class="st4" d="M377.8,540.7c0,0-21.1,7.9-27.7,6.6c-6.6-1.3-13.2,3.9-13.2,11.8s-7.9,26.3,3.9,27.7s60.6-1.3,71.2,2.7
	c0,0,47.4,1.3,43.5-18.4s-23.8-18.4-23.8-18.4S377.8,550,377.8,540.7z"/>
<path class="st4" d="M532,544.8c0,0,2.7-7.9,6.6-7.9s35.6,5.2,39.5,3.9s50.1-3.9,42.2,18.4c-7.9,22.4-34.3,25-34.3,25
	s-47.4-5.2-54-3.9s-30.2,0-26.3-6.6C509.7,567.1,534.7,555.2,532,544.8z"/>
<path class="st9" d="M412,355.4l7.2,29.8c0.2,0.3,0,0.6,0,0.9l-32.8,102.6c-0.3,0.9-1.4,1.6-2.4,1.3c-0.6-0.2-1.3-0.8-1.3-1.6
	l-4.6-40c0-0.3,0-0.5,0.2-0.8l30.1-92.5c0.3-0.9,1.4-1.6,2.4-1.3C411.4,354.1,411.8,354.8,412,355.4z"/>
<polygon class="st1" points="409.3,357.9 416.1,383.4 387.1,476.9 380.3,448 "/>
<path class="st9" d="M263.6,497c1.1,3.3,115.8-1.1,116.9-2.2c0.9-1.4,1.7-2.8,2.5-4.4c1.1-2.2,2-4.4,2-4.4l-4.4-36.1L267,445.8
	c0,0-2.8,30.6-3.5,44.6C263.3,492.5,263.3,494.8,263.6,497z"/>
<polygon class="st10" points="366,454.7 368.2,485.8 318.1,485.8 318.1,454.7 "/>
<polygon class="st10" points="301.4,464.7 301.7,464.6 300.3,478 272.4,478 272.4,464.7 "/>
<path class="st10" d="M263.6,497c1.1,3.3,115.8-1.1,116.9-2.2c0.9-1.4,1.7-2.8,2.5-4.4H263.6C263.3,492.5,263.3,494.8,263.6,497z"/>
<circle class="st7" cx="226.8" cy="173.3" r="14.8"/>
<path class="st7" d="M222.3,189.5c0,0-15.1,25.2-50.6,34.8c-35.3,9.5-0.3,62.5-0.3,62.5s-12.8-19.4,5.7-39.7
	S225.2,212.7,222.3,189.5z"/>
<path class="st10" d="M228.6,507.1c-3.3,6.1-7.1,12.6-7.7,15.1c-0.5,1.7-5.2,0.8-12.9-2c-15.3-5.8-41.6-18.9-66.3-32.1
	c-1.1-0.6-2.2-1.3-3.2-2c0.2-1.1,0.3-2,0.6-3.2c6-30.2-3.5-102.7-2-130.7l11.2-3.8l22.4,21.1v89.6c0,0,58,31.7,61.9,34.3
	C234.8,494.7,232,500.8,228.6,507.1z"/>
<path class="st6" d="M277.6,435.3l35.6,18.4c0,0,21.1-22.4,34.3-5.2c13.2,17.2-38.3,22.4-38.3,22.4s-44.9-10.6-46.2-25
	S277.6,435.3,277.6,435.3z"/>
<path class="st6" d="M218.2,484.1l21.1,5.2c0,0,23.8-29,48.8-18.4s-31.7,31.7-31.7,31.7s-30.2,15.8-42.2,2.7
	C202.3,492.1,218.2,484.1,218.2,484.1z"/>
<path class="st4" d="M264.4,310c1.3,1.3,15.8,11.8,15.8,11.8s3.9,50.1-1.3,60.6c-5.2,10.6-9.3,10.6-5.2,15.8s9.3,1.3,3.9,10.6
	c-5.4,9.3-10.6,7.9-6.6,11.8c3.9,3.9,2.7,5.2,2.7,5.2l15.8,13.2c0,0-9.8,15.4-22.1,14.3c-12.3-1.1-22.8-60.5-22.8-60.5L264.4,310z"
	/>
<path class="st4" d="M148.5,341.7c-3.4,0.6-6.8,1.2-10.2,1.8c-4,9.3-33.1,80.7,3.9,132.1c19,26.3,58.7,52,78.8,40.2
	c9.4-5.6,20.4-23.2,11.8-29c-3.9-2.7-61.9-34.3-61.9-34.3v-89.6L148.5,341.7z"/>
<polygon class="st10" points="166.3,389.7 163.6,453.1 233.4,486 168.8,453.1 "/>
<rect x="56" y="588.1" class="st3" width="888" height="2.2"/>
</svg>
