<?xml version="1.0" encoding="utf-8"?>
<!-- Generator: Adobe Illustrator 24.2.0, SVG Export Plug-In . SVG Version: 6.00 Build 0)  -->
<svg version="1.1" id="a80b827c-b8c0-47ab-84ce-d2a47a152c7c"
	 xmlns="http://www.w3.org/2000/svg" xmlns:xlink="http://www.w3.org/1999/xlink" x="0px" y="0px" viewBox="0 0 800 670"
	 style="enable-background:new 0 0 800 670;" xml:space="preserve">
<style type="text/css">
	.st0{fill:#E6E6E6;}
	.st1{fill:#33DED2;}
	.st2{opacity:0.1;enable-background:new    ;}
	.st3{fill:#4A5B64;}
	.st4{fill:#1B2238;}
	.st5{fill:#2F2E41;}
	.st6{fill:#94A4AD;}
	.st7{fill:#EFD0B4;}
	.st8{fill:#5C39BC;}
	.st9{fill:#667C8A;}
	.st10{fill:#F2F2F2;}
	.st11{fill:#FFFFFF;}
	.st12{fill:#32CCBD;}
</style>
<path class="st0" d="M172,79.6c6.5,8.6,13.5,18.5,20.4,29.3l1-49.7l0.5,0.3c-7.4-5.4-15.4-9.7-24-12.8l0.5,0.3L172,79.6z"/>
<path class="st0" d="M169.3,46.6c-8.9-3-17.5-4-25.4-2.6c-0.4,0.1-0.8,0.2-1.2,0.2c2,2.1,13.7,14.8,28.1,33.9L169.3,46.6z"/>
<path class="st0" d="M221.3,163.2c1.1,2.5,2.1,5.1,3,7.6l18.2-53.8l0.5,0.5c-2.2-4-4.4-8-6.8-11.8l-14.7,57.8L221.3,163.2z"/>
<path class="st0" d="M210.6,140.5l9.5-56.4l0.5,0.4c-7.8-9.2-16.6-17.4-26.3-24.6l-1,50.6C199.8,120.7,205.6,130.7,210.6,140.5z"/>
<path class="st0" d="M113.9,100.6l-0.2-0.7c0.8,8.5,2.5,17,5,25.2l87.6,9c-4.6-8.4-9.3-16.3-13.9-23.5L113.9,100.6z"/>
<path class="st0" d="M119.1,126.4l-0.2-0.7c0.9,2.9,1.9,5.8,3,8.8l-0.2-0.7l88.6,7.9c-1.1-2.1-2.2-4.2-3.2-6.2L119.1,126.4z"/>
<path class="st0" d="M220.6,161.7l14.6-57.3l0.5,0.5c-4.4-6.9-9.2-13.5-14.5-19.8l-9.7,57.2C214.9,148.9,217.9,155.3,220.6,161.7z"
	/>
<path class="st0" d="M224.3,173.6l-86.2-8.3c4.7,6.3,9.8,12.3,15.3,17.9l-0.2-0.8l78.8,16.2C230,190.2,227.4,181.8,224.3,173.6z"/>
<path class="st0" d="M142,44.7l0.2-0.4C130.4,47,122,55,117.4,66.7l52.7,11.9C154.5,58,142.2,44.9,142,44.7z"/>
<path class="st0" d="M225.9,175c2.7,7.4,5,15,6.9,22.6l20.5-51.5l0.5,0.5c-1.3-7.2-3.5-14.1-6.6-20.8c-1.2-2.6-2.5-5.1-3.8-7.7
	L225,172.7C225.3,173.5,225.6,174.2,225.9,175z"/>
<path class="st0" d="M191.4,109.1c-6.8-10.6-13.7-20.4-20.1-28.9l-54-12.2l-0.2-0.7c-3.4,8.9-4.6,19.8-3.6,31.9L191.4,109.1z"/>
<path class="st0" d="M137.1,163.9l86.7,8.4v-0.1c-3.8-9.9-8.1-19.6-12.9-29.1l-88.8-7.9c1.5,4,3.2,8,5.1,12.1
	C130,153.1,133.3,158.7,137.1,163.9z"/>
<path class="st0" d="M346.7,180.7l0.2,0.6c-2.2-8.8-5.7-17.3-10.3-25.2l0.2,0.6l-19.6,26.1c-0.5,10.8-1.4,22.8-3,35.5L346.7,180.7z"
	/>
<path class="st0" d="M336.3,155.6c-4.9-8-10.9-14.3-17.9-18.2c-0.4-0.2-0.7-0.4-1.1-0.6c0.2,2.9,1.1,20.1,0,44L336.3,155.6z"/>
<path class="st0" d="M301.9,278.6c-0.8,2.6-1.6,5.2-2.5,7.7l48.3-29.8l0.1,0.7c0.9-4.5,1.7-9,2.3-13.5l-48.2,35.1L301.9,278.6z"/>
<path class="st0" d="M308.2,254.4l43.3-37.4l0.1,0.7c-0.1-12-1.6-24-4.6-35.7l-33,38.3C312.4,232.2,310.5,243.6,308.2,254.4z"/>
<path class="st0" d="M351.6,218.5l-43.9,37.9c-1.6,7.2-3.4,14.1-5.4,20.8l47.8-34.8l0.1,0.7C351.2,234.8,351.7,226.6,351.6,218.5z"
	/>
<path class="st0" d="M266.9,346.4c0-0.6,0.1-1.2,0.1-1.8c7.8-9.3,14.5-19.5,19.9-30.5l-26.5-33c-0.3-1.1-0.7-2.3-1.1-3.4l28.2,35.2
	c3.8-7.9,7.2-15.9,10.1-24.2l-55.8-56.1c0.2-0.4,0.4-0.9,0.5-1.4l55.7,56l0,0c3.4-10,6.3-20.3,8.6-30.6l-55.3-54.8
	c0.1-0.5,0.2-1,0.3-1.5l55.4,54.8c0.5-2.3,1-4.6,1.5-6.8L253.4,192c0.1-0.5,0.2-1.1,0.3-1.6l55.2,56.2c1.9-9.4,3.3-18.5,4.3-27
	l-54.1-57.7l0.3-0.7c-1.3,1.9-2.5,3.8-3.7,5.9c0-6.4-0.5-12.8-1.6-19.1l-20.7,52c1.7,7.2,2.9,14.4,3.6,21.8
	c-0.1,1.2-0.2,2.5-0.3,3.7l0.7,0.7c0,0.7,0.1,1.3,0.1,2l-0.9-0.9c0,0.7-0.1,1.5-0.1,2.2c-0.4-9.9-1.8-19.7-4-29.4L154.1,184
	c3.9,4,8.1,8,12.3,11.8c-8.2-2.6-16.7-4-25.3-4.3l0.6,0.1l11.6,30.5c8.8,6.2,18.5,13.4,28.4,21.6l-14.2-46.9
	c0.5,0.5,1.1,0.9,1.6,1.4l14.2,46.8c9.2,7.6,17.8,15.4,25.6,23.1l-6.5-44c0.5,0.3,0.9,0.6,1.4,0.9l6.6,44.5
	c5.2,5.2,10.1,10.4,14.6,15.7l-3.2-48.3c0.4,0.3,0.9,0.6,1.3,0.8l3.2,48.8l-0.3-0.1c1.8,2.1,3.5,4.2,5.2,6.2l0.6-49.6
	c0.5,0.3,0.9,0.5,1.3,0.8l-0.6,50.5c0.5,0.6,1,1.3,1.5,1.9c4.9,6.2,9.4,12.7,13.6,19.4l0.3-4.5c0.4,1.3,0.7,2.7,1.1,3.9l-0.2,2.6
	c0.6,1,1.2,2,1.8,3c0.5,1.5,0.9,3,1.3,4.5c-1.3-2.4-2.6-4.7-4-7.1l-79.4,8.9c41.7,22,93.5,32.4,96.8,33c-0.8-3.5-1.7-6.9-2.8-10.3
	c0.3-0.3,0.6-0.6,0.8-0.9c0.1,0.4,0.3,0.8,0.4,1.2c-0.1,0.2-0.3,0.3-0.4,0.5c0.2-0.1,0.3-0.2,0.5-0.2c0.8,2.4,1.4,4.8,2.1,7.1
	c0.2-1.9,0.6-4.9,0.8-8.6c14.3-7.2,51.3-28.1,70.1-60.9l-49.1,26.8C282.1,326,275.1,336.7,266.9,346.4z M250.6,268.9l0.1-1.9
	l1.2,1.6l-0.1,1.9L250.6,268.9z"/>
<path class="st0" d="M316.4,136.8l0.4-0.2c-10.8-5.5-22.4-4.6-33.4,1.4l33,42.8C317.6,155,316.4,137.1,316.4,136.8z"/>
<path class="st0" d="M297.9,290.7c-2.6,7.4-5.7,14.7-9.1,21.8l48.7-26.6l0.1,0.7c3.6-6.3,6.3-13.1,8.2-20.2c0.7-2.8,1.4-5.5,2-8.3
	l-48.9,30.2C298.4,289.1,298.2,289.9,297.9,290.7z"/>
<path class="st0" d="M316.4,182.8L282.6,139l0.3-0.6c-8.3,4.7-16.2,12.3-23.1,22.3l53.7,57.3C314.9,205.4,315.8,193.5,316.4,182.8z"
	/>
<path class="st0" d="M140.5,191.4c-9.4-0.1-17.9,1.6-24.9,5.3c-0.4,0.2-0.7,0.4-1.1,0.6c2.6,1.4,17.6,9.9,37.2,23.6L140.5,191.4z"/>
<path class="st0" d="M182.2,245.1l-77.7,14.8l-0.4-0.6c3.4,7.9,7.6,15.4,12.6,22.4l86.1-18.5C195.7,256.6,188.8,250.6,182.2,245.1z"
	/>
<path class="st0" d="M208.8,269.2c-1.7-1.7-3.3-3.3-5-4.9l-86.4,18.5l-0.4-0.6c1.7,2.5,3.6,4.9,5.5,7.4l-0.4-0.6L208.8,269.2z"/>
<path class="st0" d="M247.2,316.7c-4.6-7.5-9.6-14.6-15-21.5L147.5,314c6.4,4.6,13.1,8.7,20.1,12.3l-0.4-0.7L247.2,316.7z"/>
<path class="st0" d="M114,198.1l0.1-0.5c-10.4,6.2-15.9,16.5-16.7,29l53.9-5C130,206.8,114.2,198.2,114,198.1z"/>
<path class="st0" d="M152.8,222.8l-55.1,5.1l-0.4-0.6c-0.5,9.5,1.7,20.2,6.5,31.5l77.1-14.7C171.1,236,161.5,228.9,152.8,222.8z"/>
<path class="st0" d="M231.2,294c-6.6-8.3-13.7-16.2-21.2-23.7l-87,20c2.7,3.3,5.5,6.6,8.6,9.9c4.4,4.7,9.3,8.9,14.5,12.7L231.2,294
	L231.2,294z"/>
<path class="st1" d="M172,79.6c6.5,8.6,13.5,18.5,20.4,29.3l1-49.7l0.5,0.3c-7.4-5.4-15.4-9.7-24-12.8l0.5,0.3L172,79.6z"/>
<path class="st1" d="M169.3,46.6c-8.9-3-17.5-4-25.4-2.6c-0.4,0.1-0.8,0.2-1.2,0.2c2,2.1,13.7,14.8,28.1,33.9L169.3,46.6z"/>
<path class="st1" d="M221.3,163.2c1.1,2.5,2.1,5.1,3,7.6l18.2-53.8l0.5,0.5c-2.2-4-4.4-8-6.8-11.8l-14.7,57.8L221.3,163.2z"/>
<path class="st1" d="M210.6,140.5l9.5-56.4l0.5,0.4c-7.8-9.2-16.6-17.4-26.3-24.6l-1,50.6C199.8,120.7,205.6,130.7,210.6,140.5z"/>
<path class="st1" d="M113.9,100.6l-0.2-0.7c0.8,8.5,2.5,17,5,25.2l87.6,9c-4.6-8.4-9.3-16.3-13.9-23.5L113.9,100.6z"/>
<path class="st1" d="M119.1,126.4l-0.2-0.7c0.9,2.9,1.9,5.8,3,8.8l-0.2-0.7l88.6,7.9c-1.1-2.1-2.2-4.2-3.2-6.2L119.1,126.4z"/>
<path class="st1" d="M220.6,161.7l14.6-57.3l0.5,0.5c-4.4-6.9-9.2-13.5-14.5-19.8l-9.7,57.2C214.9,148.9,217.9,155.3,220.6,161.7z"
	/>
<path class="st1" d="M224.3,173.6l-86.2-8.3c4.7,6.3,9.8,12.3,15.3,17.9l-0.2-0.8l78.8,16.2C230,190.2,227.4,181.8,224.3,173.6z"/>
<path class="st1" d="M142,44.7l0.2-0.4C130.4,47,122,55,117.4,66.7l52.7,11.9C154.5,58,142.2,44.9,142,44.7z"/>
<path class="st1" d="M225.9,175c2.7,7.4,5,15,6.9,22.6l20.5-51.5l0.5,0.5c-1.3-7.2-3.5-14.1-6.6-20.8c-1.2-2.6-2.5-5.1-3.8-7.7
	L225,172.7C225.3,173.5,225.6,174.2,225.9,175z"/>
<path class="st1" d="M191.4,109.1c-6.8-10.6-13.7-20.4-20.1-28.9l-54-12.2l-0.2-0.7c-3.4,8.9-4.6,19.8-3.6,31.9L191.4,109.1z"/>
<path class="st1" d="M137.1,163.9l86.7,8.4v-0.1c-3.8-9.9-8.1-19.6-12.9-29.1l-88.8-7.9c1.5,4,3.2,8,5.1,12.1
	C130,153.1,133.3,158.7,137.1,163.9z"/>
<path class="st1" d="M346.7,180.7l0.2,0.6c-2.2-8.8-5.7-17.3-10.3-25.2l0.2,0.6l-19.6,26.1c-0.5,10.8-1.4,22.8-3,35.5L346.7,180.7z"
	/>
<path class="st1" d="M336.3,155.6c-4.9-8-10.9-14.3-17.9-18.2c-0.4-0.2-0.7-0.4-1.1-0.6c0.2,2.9,1.1,20.1,0,44L336.3,155.6z"/>
<path class="st1" d="M301.9,278.6c-0.8,2.6-1.6,5.2-2.5,7.7l48.3-29.8l0.1,0.7c0.9-4.5,1.7-9,2.3-13.5l-48.2,35.1L301.9,278.6z"/>
<path class="st1" d="M308.2,254.4l43.3-37.4l0.1,0.7c-0.1-12-1.6-24-4.6-35.7l-33,38.3C312.4,232.2,310.5,243.6,308.2,254.4z"/>
<path class="st1" d="M351.6,218.5l-43.9,37.9c-1.6,7.2-3.4,14.1-5.4,20.8l47.8-34.8l0.1,0.7C351.2,234.8,351.7,226.6,351.6,218.5z"
	/>
<path class="st1" d="M266.9,346.4c0-0.6,0.1-1.2,0.1-1.8c7.8-9.3,14.5-19.5,19.9-30.5l-26.5-33c-0.3-1.1-0.7-2.3-1.1-3.4l28.2,35.2
	c3.8-7.9,7.2-15.9,10.1-24.2l-55.8-56.1c0.2-0.4,0.4-0.9,0.5-1.4l55.7,56l0,0c3.4-10,6.3-20.3,8.6-30.6l-55.3-54.8
	c0.1-0.5,0.2-1,0.3-1.5l55.4,54.8c0.5-2.3,1-4.6,1.5-6.8L253.4,192c0.1-0.5,0.2-1.1,0.3-1.6l55.2,56.2c1.9-9.4,3.3-18.5,4.3-27
	l-54.1-57.7l0.3-0.7c-1.3,1.9-2.5,3.8-3.7,5.9c0-6.4-0.5-12.8-1.6-19.1l-20.7,52c1.7,7.2,2.9,14.4,3.6,21.8
	c-0.1,1.2-0.2,2.5-0.3,3.7l0.7,0.7c0,0.7,0.1,1.3,0.1,2l-0.9-0.9c0,0.7-0.1,1.5-0.1,2.2c-0.4-9.9-1.8-19.7-4-29.4L154.1,184
	c3.9,4,8.1,8,12.3,11.8c-8.2-2.6-16.7-4-25.3-4.3l0.6,0.1l11.6,30.5c8.8,6.2,18.5,13.4,28.4,21.6l-14.2-46.9
	c0.5,0.5,1.1,0.9,1.6,1.4l14.2,46.8c9.2,7.6,17.8,15.4,25.6,23.1l-6.5-44c0.5,0.3,0.9,0.6,1.4,0.9l6.6,44.5
	c5.2,5.2,10.1,10.4,14.6,15.7l-3.2-48.3c0.4,0.3,0.9,0.6,1.3,0.8l3.2,48.8l-0.3-0.1c1.8,2.1,3.5,4.2,5.2,6.2l0.6-49.6
	c0.5,0.3,0.9,0.5,1.3,0.8l-0.6,50.5c0.5,0.6,1,1.3,1.5,1.9c4.9,6.2,9.4,12.7,13.6,19.4l0.3-4.5c0.4,1.3,0.7,2.7,1.1,3.9l-0.2,2.6
	c0.6,1,1.2,2,1.8,3c0.5,1.5,0.9,3,1.3,4.5c-1.3-2.4-2.6-4.7-4-7.1l-79.4,8.9c41.7,22,93.5,32.4,96.8,33c-0.8-3.5-1.7-6.9-2.8-10.3
	c0.3-0.3,0.6-0.6,0.8-0.9c0.1,0.4,0.3,0.8,0.4,1.2c-0.1,0.2-0.3,0.3-0.4,0.5c0.2-0.1,0.3-0.2,0.5-0.2c0.8,2.4,1.4,4.8,2.1,7.1
	c0.2-1.9,0.6-4.9,0.8-8.6c14.3-7.2,51.3-28.1,70.1-60.9l-49.1,26.8C282.1,326,275.1,336.7,266.9,346.4z M250.6,268.9l0.1-1.9
	l1.2,1.6l-0.1,1.9L250.6,268.9z"/>
<path class="st1" d="M316.4,136.8l0.4-0.2c-10.8-5.5-22.4-4.6-33.4,1.4l33,42.8C317.6,155,316.4,137.1,316.4,136.8z"/>
<path class="st1" d="M297.9,290.7c-2.6,7.4-5.7,14.7-9.1,21.8l48.7-26.6l0.1,0.7c3.6-6.3,6.3-13.1,8.2-20.2c0.7-2.8,1.4-5.5,2-8.3
	l-48.9,30.2C298.4,289.1,298.2,289.9,297.9,290.7z"/>
<path class="st1" d="M316.4,182.8L282.6,139l0.3-0.6c-8.3,4.7-16.2,12.3-23.1,22.3l53.7,57.3C314.9,205.4,315.8,193.5,316.4,182.8z"
	/>
<path class="st1" d="M140.5,191.4c-9.4-0.1-17.9,1.6-24.9,5.3c-0.4,0.2-0.7,0.4-1.1,0.6c2.6,1.4,17.6,9.9,37.2,23.6L140.5,191.4z"/>
<path class="st1" d="M182.2,245.1l-77.7,14.8l-0.4-0.6c3.4,7.9,7.6,15.4,12.6,22.4l86.1-18.5C195.7,256.6,188.8,250.6,182.2,245.1z"
	/>
<path class="st1" d="M208.8,269.2c-1.7-1.7-3.3-3.3-5-4.9l-86.4,18.5l-0.4-0.6c1.7,2.5,3.6,4.9,5.5,7.4l-0.4-0.6L208.8,269.2z"/>
<path class="st1" d="M247.2,316.7c-4.6-7.5-9.6-14.6-15-21.5L147.5,314c6.4,4.6,13.1,8.7,20.1,12.3l-0.4-0.7L247.2,316.7z"/>
<path class="st1" d="M114,198.1l0.1-0.5c-10.4,6.2-15.9,16.5-16.7,29l53.9-5C130,206.8,114.2,198.2,114,198.1z"/>
<path class="st1" d="M152.8,222.8l-55.1,5.1l-0.4-0.6c-0.5,9.5,1.7,20.2,6.5,31.5l77.1-14.7C171.1,236,161.5,228.9,152.8,222.8z"/>
<path class="st1" d="M231.2,294c-6.6-8.3-13.7-16.2-21.2-23.7l-87,20c2.7,3.3,5.5,6.6,8.6,9.9c4.4,4.7,9.3,8.9,14.5,12.7L231.2,294
	L231.2,294z"/>
<path class="st2" d="M734.2,67.8c0,0-12.7,36.3-4.9,41.8s-26.5,51.1-26.5,51.1l-41.2-11.2l22.5-38.1c0,0,2.9-38.1,2.9-43.7
	S734.2,67.8,734.2,67.8z"/>
<path class="st3" d="M755.6,326.3c0,0,3.7,46.5,0,70.7s-9.3,91.1-9.3,91.1s0,126.5-20.5,128.3s-35.3,3.7-37.2-3.7s9.3-11.2,3.7-14.9
	s-7.4-16.7,0-31.6s0-165.5,0-165.5L657,495.6c0,0-3.7,78.1-7.4,89.3s3.7,31.6-9.3,33.5s-27.9-9.3-35.3-13s11.2-3.7,7.4-5.6
	s-14.9-7.4-11.2-9.3s7.4-91.1,7.4-91.1s10.2-190.6,23.2-198.1s21.4,5.4,21.4,5.4L755.6,326.3z"/>
<path class="st4" d="M722.1,610v14.9c0,0,16.7,40.4,0,40.4s-29.8,4.2-29.8-1.4v-50.2L722.1,610z"/>
<path class="st5" d="M612.4,609v14.9c0,0-16.7,40.4,0,40.4s29.8,4.2,29.8-1.4v-50.2L612.4,609z"/>
<path class="st6" d="M721.1,104.2c0,0-9.3,27.9-24.2,22.3l-14.9-5.6l-26,178.5c0,0,20.5,29.8,50.2,11.2S721.1,104.2,721.1,104.2z"/>
<path class="st6" d="M698.8,112.4l-4.2-8.8c-1.8-3.8-6.4-5.5-10.2-3.6c-13.9,6.7-44.1,21.7-49.8,27.4c-5.8,5.8-7.1,13.7-7.4,17
	c-0.1,0.9,0,1.9,0.3,2.8l12.1,40.1c0.2,0.8,12.4,31,5.2,60.7c-2.7,11.1-8.3,47-8.3,50.5c0,3.7-13,24.2-3.7,16.7s11.2-14.9,18.6-3.7
	c3.3,4.9,8.3,10.1,12.9,14.5c4.6,4.3,12.1,1.5,12.8-4.7l22.4-204.7C699.6,115.1,699.4,113.6,698.8,112.4z"/>
<path class="st7" d="M627.3,251.9l5.6,52.1c0,0,33.5,29.8,26,31.6s-11.2-5.6-11.2-5.6s-13,13-20.5,5.6s-26-78.1-26-78.1L627.3,251.9
	z"/>
<path class="st6" d="M709.1,112.4c0,0,15.1-14.8,20.6-13.9s12.9,13.9,12.9,13.9s33.9,10.7,36,26.6c2.7,20.1-18.3,77.6-18.3,77.6
	s-21.8,55.5,0.9,109.7c6.8,16.2-70.7,33.5-72.5,22.3s-5.6-122.7,0-139.5S709.1,112.4,709.1,112.4z"/>
<path class="st6" d="M644.8,140.3l-16.6-1.3c0,0-16.9,69.6-18.8,76.9c-1.9,7.3-7.2,42.3-5.9,42.5c1.3,0.1,28.7-5.3,28.3,0.3
	L644.8,140.3z"/>
<rect x="4.7" y="427.2" class="st8" width="55.6" height="1.7"/>
<circle class="st4" cx="32.1" cy="132.9" r="18"/>
<circle class="st1" cx="32.1" cy="202.2" r="18"/>
<ellipse class="st4" cx="32.1" cy="271.5" rx="18" ry="18"/>
<ellipse class="st4" cx="32.1" cy="340.8" rx="18" ry="18"/>
<ellipse class="st4" cx="32.1" cy="410.1" rx="18" ry="18"/>
<polygon class="st1" points="30.9,140.1 22.3,128.7 24.4,127.2 31.3,136.5 58.8,114 60.4,116 "/>
<polygon class="st9" points="132.8,198.8 75.7,199.6 132.8,225.1 132.8,635.2 700.6,635.2 700.6,198.8 "/>
<rect x="4.7" y="150" class="st8" width="55.6" height="1.7"/>
<rect x="4.7" y="219.3" class="st8" width="55.6" height="1.7"/>
<rect x="4.7" y="288.6" class="st8" width="55.6" height="1.7"/>
<rect x="4.7" y="357.9" class="st8" width="55.6" height="1.7"/>
<circle class="st10" cx="32.1" cy="202.2" r="8.6"/>
<rect x="488.7" y="580.5" class="st1" width="105.6" height="27.3"/>
<rect x="236.4" y="310.5" class="st11" width="358" height="120.3"/>
<polygon class="st10" points="235.7,310.8 237.1,310.1 595,430.4 593.7,431.1 "/>
<polygon class="st10" points="235.7,430.4 593.7,310.1 595,310.8 237.1,431.1 "/>
<rect x="235.7" y="444.6" class="st11" width="359.3" height="6"/>
<rect x="235.7" y="463.4" class="st11" width="359.3" height="6"/>
<rect x="235.7" y="482.2" class="st11" width="359.3" height="6"/>
<rect x="235.7" y="501" class="st11" width="359.3" height="6"/>
<rect x="235.7" y="519.9" class="st11" width="359.3" height="6"/>
<rect x="235.7" y="538.7" class="st11" width="303" height="6"/>
<path class="st7" d="M768.6,268.7l-26,11.2c0,0-50.2,7.4-50.2-13s50.2-9.3,50.2-9.3l16.7-5.4L768.6,268.7z"/>
<path class="st6" d="M757.5,129l21.2,10l14.8,94.2c0,0,5.1,26-3.4,27.9s-32.6,16.7-32.6,16.7s-3.4-27.9-10.3-27.9l17.1-14.9L754,170
	L757.5,129z"/>
<path class="st1" d="M755.3,131.9c-17.5,11.4-40.2,6.8-59.2-1.8c-8.3,9.1-51.1,2.8-64.2,0.8c-0.2,0-0.1-0.2,0-0.4l2.2-2.7
	c3.3-4.8,31.6-18.8,39.2-22.3c-0.5-2.6-1-2.9-1-8.4V46c0-20.8,17-38.2,37.8-37.8c20.1,0.4,36.4,16.8,36.4,37.1c0,52.2,0,65,0,68.2
	c5.2,3.5,19.3,2.4,19.5,9.5L755.3,131.9z"/>
<path class="st7" d="M717,34.8c-4.9-0.4-10.1-0.5-15.3,0c-12.4,1.1-21.9,11.5-21.9,23.9v9.9c0,16.3,13.2,29.6,29.6,29.6
	S739,85,739,68.6v-9.9C738.9,46.3,729.4,35.9,717,34.8L717,34.8z"/>
<path class="st12" d="M696.2,130.2c-1.6,1.7-1.7,1.8-4.4,2.7c-0.6-0.3-3.3-1.8-3.7-2.2c-5.7-5.1-15.4-15.3-18.7-23.2
	c1.8-0.9,1.9-1,4-2c5.6,11.1,14.8,21,20.7,23.7L696.2,130.2z"/>
<path class="st8" d="M717,34.5c11,1,19.7,9.2,21.5,19.6c-18.9-6.7-39.5-6.7-58.4,0c1.9-10.5,10.6-18.7,21.5-19.6
	C706.6,34.1,711.8,34.1,717,34.5L717,34.5z"/>
<rect x="238.4" y="248.4" class="st11" width="359.3" height="6"/>
<rect x="238.4" y="267.2" class="st11" width="359.3" height="6"/>
<rect x="238.4" y="286" class="st11" width="303" height="6"/>
<rect x="235.4" y="580.5" class="st1" width="105.6" height="27.3"/>
<rect x="614.7" y="247.4" class="st11" width="74.8" height="4.5"/>
<rect x="627.3" y="261.6" class="st11" width="62.2" height="4.5"/>
<rect x="614.7" y="275.7" class="st11" width="74.8" height="4.5"/>
<rect x="627.3" y="289.9" class="st11" width="62.2" height="4.5"/>
<rect x="627.3" y="304" class="st11" width="62.2" height="4.5"/>
<rect x="614.7" y="318.2" class="st11" width="74.8" height="4.5"/>
<rect x="627.3" y="332.3" class="st11" width="62.2" height="4.5"/>
<rect x="627.3" y="346.5" class="st11" width="62.2" height="4.5"/>
<rect x="627.3" y="360.6" class="st11" width="62.2" height="4.5"/>
<rect x="627.3" y="374.8" class="st11" width="62.2" height="4.5"/>
<rect x="614.7" y="388.9" class="st11" width="74.8" height="4.5"/>
<rect x="627.3" y="403.1" class="st11" width="62.2" height="4.5"/>
<rect x="142.8" y="247.4" class="st11" width="73.6" height="7.7"/>
<rect x="158.4" y="271.7" class="st11" width="58" height="7.7"/>
<rect x="158.4" y="296.1" class="st11" width="58" height="7.7"/>
<rect x="158.4" y="320.4" class="st11" width="58" height="7.7"/>
<rect x="142.8" y="344.7" class="st11" width="73.6" height="7.7"/>
<rect x="158.4" y="369.1" class="st11" width="58" height="7.7"/>
<rect x="158.4" y="393.4" class="st11" width="58" height="7.7"/>
<rect x="158.4" y="417.8" class="st11" width="58" height="7.7"/>
<rect x="142.8" y="442.1" class="st11" width="73.6" height="7.7"/>
<rect x="158.4" y="466.4" class="st11" width="58" height="7.7"/>
<rect x="158.4" y="490.8" class="st11" width="58" height="7.7"/>
<rect x="158.4" y="515.1" class="st11" width="58" height="7.7"/>
</svg>
