<?xml version="1.0" encoding="utf-8"?>
<!-- Generator: Adobe Illustrator 24.1.3, SVG Export Plug-In . SVG Version: 6.00 Build 0)  -->
<svg version="1.1" id="_2cf41747-0c0c-4d70-aad4-093c093adad4"
	 xmlns="http://www.w3.org/2000/svg" xmlns:xlink="http://www.w3.org/1999/xlink" x="0px" y="0px" viewBox="0 0 811.1 798.3"
	 style="enable-background:new 0 0 811.1 798.3;" xml:space="preserve">
<style type="text/css">
	.st0{fill:#33DED2;}
	.st1{fill:#5C39BC;}
	.st2{fill:#D5D6DB;}
	.st3{opacity:0.1;enable-background:new    ;}
	.st4{opacity:0.3;fill:#FFFFFF;enable-background:new    ;}
	.st5{opacity:0.45;fill:#FFFFFF;enable-background:new    ;}
	.st6{opacity:0.1;fill:#33DED2;enable-background:new    ;}
	.st7{fill:url(#SVGID_1_);}
	.st8{fill:#BE6F72;}
	.st9{fill:#3E373A;}
	.st10{fill:#2A314C;}
	.st11{opacity:2.000000e-02;enable-background:new    ;}
	.st12{fill:#C3C7D9;}
	.st13{fill:#4B4B5B;}
	.st14{opacity:0.1;}
	.st15{opacity:0.1;fill:none;stroke:#000000;stroke-miterlimit:10;enable-background:new    ;}
	.st16{enable-background:new    ;}
	.st17{fill:#3D2A79;}
	.st18{fill:#FFFFFF;}
</style>
<polygon class="st0" points="435.5,690.5 93.2,688.8 59.2,609.1 179.4,600.3 158.5,512.9 396.3,482 168.6,402.9 188.7,398.1 
	554.9,457.8 534.8,594.3 505.9,669.3 "/>
<path class="st0" d="M98.4,655.4c0,0,21-3.4,33.6,11.5c0,0-9.2,7.3-29.1-2.8L98.4,655.4z"/>
<path class="st0" d="M96.2,655.1c0,0-13.4,16.5-6.8,34.8c0,0,10.9-4.4,12.1-26.6L96.2,655.1z"/>
<path class="st0" d="M84.2,628c0,0,8.4-15.4,42,6.2c0,0-4.5,10.4-19.3,9.5S88.1,636.1,84.2,628z"/>
<path class="st0" d="M82,626.9c0,0-17.4-2-19.1,37.9c0,0,11,2.3,18.9-10.3S86.4,634.7,82,626.9z"/>
<path class="st0" d="M71.9,595c0,0,9.8-27.2,45.4-7.8c0,0-8.1,24.9-41.7,17.1L71.9,595z"/>
<path class="st0" d="M60.9,554.4c0,0,18.5-27.4,51.2-2c0,0-11.5,25.8-48.4,11.8L60.9,554.4z"/>
<path class="st0" d="M57,515.8c0,0,21.6-25.2,54,0c0,0-20.4,22.1-54,6.4V515.8z"/>
<path class="st0" d="M53.7,478.3c0,0,21.8-26.3,52.9-1.4c0,0-24.6,23.2-52.9,7.6L53.7,478.3z"/>
<path class="st0" d="M55.6,445c0,0,23-33.9,52.1-10.9c0,0-24.6,29.1-52.1,17.4V445z"/>
<path class="st0" d="M60.9,406c0,0,24.4-33.6,52.6-7.8c0,0-28.8,29.1-52.6,14V406z"/>
<path class="st0" d="M69.1,371.2c0,0,28.8-31.6,54-19c0,0-30,33.5-55.3,27.4L69.1,371.2z"/>
<path class="st0" d="M79.1,338.3c0,0,33.3-38.7,52.6-25.8c0,0-24.5,30-55,33L79.1,338.3z"/>
<path class="st0" d="M93.7,300c0,0,29.1-31.6,50.4-23.7c0,0-24.9,32.8-54.3,33.6L93.7,300z"/>
<path class="st0" d="M106.9,264.2c0,0,32.2-30.2,46.2-24.9c0,0-23.2,33.6-47.6,31.6L106.9,264.2z"/>
<path class="st0" d="M119.7,231.2c0,0,27.7-36.1,42.8-33.3c0,0-16.8,32.2-42.8,37V231.2z"/>
<path class="st0" d="M133.7,186.6c0,0,24.5-27.6,37.7-27.6c0,0-19.3,37-38.8,36.7L133.7,186.6z"/>
<path class="st0" d="M142,157l23.7-57.7c0,0,1.2,52.1-26.7,68.4L142,157z"/>
<path class="st0" d="M151.6,93.4c0,0,3.9-48.2,1.4-52.1c0,0,16.9,40-1.6,73.4L151.6,93.4z"/>
<path class="st0" d="M70.9,594.4c0,0-24.5-15.2-40.4,22c0,0,21.8,14.5,43.3-12.5L70.9,594.4z"/>
<path class="st0" d="M60.2,552.9c0,0-30.1-13.7-44.7,25.1c0,0,23.3,16,47.4-15.3L60.2,552.9z"/>
<path class="st0" d="M55.6,518.1c0,0-21.6-25.2-54,0c0,0,20.4,22.1,54,6.4V518.1z"/>
<path class="st0" d="M52.9,478.3c0,0-21.8-26.3-52.9-1.4c0,0,24.6,23.2,52.9,7.6V478.3z"/>
<path class="st0" d="M55.6,445.9c0,0-15.3-37.9-48.6-21.6c0,0,18,33.6,47.3,27.9L55.6,445.9z"/>
<path class="st0" d="M62.9,405.8c0,0-15.2-38.6-49-20.7c0,0,20.7,35.4,47.5,26.7L62.9,405.8z"/>
<path class="st0" d="M72.3,371.4c0,0-6-42.3-34-46.1c0,0,5.9,44.6,30.2,53.8L72.3,371.4z"/>
<path class="st0" d="M79.8,338.3c0,0-2.3-51-25.5-52.8c0,0,0.8,38.7,22.9,60L79.8,338.3z"/>
<path class="st0" d="M96.1,298.6c0,0-6.9-42.4-29-47.6c0,0,2.7,41.1,26.8,58L96.1,298.6z"/>
<path class="st0" d="M109.5,264.6c0,0-0.2-44.2-13.7-50.7c0,0-8.4,40,9.8,56.3L109.5,264.6z"/>
<path class="st0" d="M120.8,230.7c0,0-1.9-45.5-15.9-51.9c0,0-4.8,36,13.8,54.9L120.8,230.7z"/>
<path class="st0" d="M135.7,190.3c0,0-0.1-37-10.1-45.7c0,0-9.9,40.5,4.9,53.1L135.7,190.3z"/>
<path class="st0" d="M140.8,155.2l-9.7-61.6c0,0-13.2,50.5,10.2,72.7L140.8,155.2z"/>
<path class="st0" d="M142.7,94c0,0-24.9-41.4-24.4-46c0,0,2.7,43.4,34,65L142.7,94z"/>
<path class="st0" d="M145.6,81.7c0,0-23.5-58.8-34.2-63.6c0,0,33.6,17.1,36.1,61.9L145.6,81.7z"/>
<path class="st1" d="M132.6,196l-1.6-0.5c19.9-64.7,24.8-106,14-116.3l1.1-1.2C157.6,88.9,152.9,129.7,132.6,196z"/>
<path class="st1" d="M77.9,347.6l-2.4-0.9c2.1-5.9,4.4-12,6.8-17.9c20.7-51.6,38.4-99.7,49.7-136.6l2.1-1
	c-11.3,37-28.7,86.8-49.4,138.5C82.3,335.6,80,341.6,77.9,347.6z"/>
<path class="st1" d="M128,703.9c-0.3-0.3-32.5-36.6-54.9-98.4C60,569.3,52.6,531.2,51.4,492.7C49.9,444.5,60,390.8,77.3,342l1.9,2.2
	c-38.8,109.6-23.4,203.5-2.9,260c22.2,61.3,54,97.1,54.3,97.5L128,703.9z"/>
<path class="st2" d="M630.7,626.9c0,0-22.7,27.7-4.7,69.5l-181,78.5l-17.4,3.6l-8-35l5.3-44.2v-24.1L630.7,626.9z"/>
<polygon class="st0" points="59.2,609.1 309.7,563.4 641.6,616.3 435.5,690.5 "/>
<polygon class="st0" points="59.2,609.1 309.7,563.4 641.6,616.3 435.5,690.5 "/>
<path class="st0" d="M59.2,609c0,0-23.4,44.4,3.6,85.4l371.5,80.5c0,0-23.1-35.4,1.2-84.4L59.2,609z"/>
<path class="st3" d="M59.2,609c0,0-23.4,44.4,3.6,85.4l371.5,80.5c0,0-23.1-35.4,1.2-84.4L59.2,609z"/>
<path class="st3" d="M70.2,624.4c0,0-13.4,32.5,0,53.5"/>
<path class="st0" d="M434.2,774.9l207.4-88.5c0,0,11.6,2.5,4.1,11s-207.5,86-207.5,86l-375.5-89L434.2,774.9z"/>
<path class="st3" d="M434.2,774.9l207.4-88.5c0,0,11.6,2.5,4.1,11s-207.5,86-207.5,86l-375.5-89L434.2,774.9z"/>
<path class="st3" d="M417.2,699.4c0,0-20,24,0,60"/>
<rect x="422.1" y="714" transform="matrix(0.9486 -0.3165 0.3165 0.9486 -202.0097 185.299)" class="st3" width="94.6" height="1"/>
<rect x="420.7" y="716.5" transform="matrix(0.9347 -0.3554 0.3554 0.9347 -223.5955 216.7924)" class="st3" width="115.2" height="1"/>
<rect x="422.9" y="723.9" transform="matrix(0.9257 -0.3782 0.3782 0.9257 -237.5716 239.1215)" class="st3" width="134.2" height="1"/>
<rect x="419.7" y="723.2" transform="matrix(0.9113 -0.4117 0.4117 0.9113 -253.9167 268.6108)" class="st3" width="153.7" height="1"/>
<rect x="420.6" y="725.2" transform="matrix(0.9163 -0.4005 0.4005 0.9163 -248.3969 262.872)" class="st3" width="168.2" height="1"/>
<rect x="421.7" y="725.9" transform="matrix(0.918 -0.3965 0.3965 0.918 -245.2099 266.6314)" class="st3" width="201.2" height="1"/>
<polygon class="st4" points="152.2,613.9 328.2,576.9 435.5,597.4 291.2,643.9 "/>
<path class="st0" d="M641.6,616.3c0,0,9.1,3.7,3.8,9.3s-210,64.9-210,64.9L641.6,616.3z"/>
<path class="st2" d="M684.3,530.3c0,0-22.7,27.7-4.7,69.5l-181,78.5l-17.3,3.7l-8-35l5.4-44.2v-24.2L684.3,530.3z"/>
<polygon class="st1" points="112.8,512.4 363.3,466.7 695.2,519.6 489.1,593.8 "/>
<path class="st1" d="M112.7,512.4c0,0-23.4,44.4,3.6,85.4l371.5,80.5c0,0-23-35.4,1.2-84.5L112.7,512.4z"/>
<path class="st3" d="M112.7,512.4c0,0-23.4,44.4,3.6,85.4l371.5,80.5c0,0-23-35.4,1.2-84.5l-117.5-25.4L112.7,512.4z"/>
<path class="st3" d="M123.8,527.8c0,0-13.4,32.5,0,53.5"/>
<path class="st1" d="M487.8,678.3l207.4-88.5c0,0,11.6,2.5,4.1,11s-207.5,86-207.5,86l-375.5-89L487.8,678.3z"/>
<path class="st3" d="M487.8,678.3l207.4-88.5c0,0,11.6,2.5,4.1,11s-207.5,86-207.5,86l-375.5-89L487.8,678.3z"/>
<path class="st3" d="M470.8,602.8c0,0-20,24,0,60"/>
<rect x="475.7" y="617.3" transform="matrix(0.9486 -0.3165 0.3165 0.9486 -168.6537 197.302)" class="st3" width="94.6" height="1"/>
<rect x="474.4" y="619.8" transform="matrix(0.9347 -0.3554 0.3554 0.9347 -185.7265 229.5777)" class="st3" width="115.2" height="1"/>
<rect x="476.8" y="626.6" transform="matrix(0.9257 -0.3782 0.3782 0.9257 -196.7757 252.2872)" class="st3" width="134.2" height="1"/>
<rect x="473.4" y="626.5" transform="matrix(0.9113 -0.4117 0.4117 0.9113 -209.3452 282.1607)" class="st3" width="153.7" height="1"/>
<rect x="474.2" y="628.5" transform="matrix(0.9163 -0.4005 0.4005 0.9163 -205.1952 276.2351)" class="st3" width="168.1" height="1"/>
<rect x="475.4" y="629.1" transform="matrix(0.918 -0.3965 0.3965 0.918 -202.426 280.0026)" class="st3" width="201.2" height="1"/>
<polygon class="st5" points="205.8,517.3 381.8,480.3 489.1,500.8 344.8,547.3 "/>
<path class="st1" d="M695.2,519.6c0,0,9.1,3.7,3.8,9.3s-209.9,64.9-209.9,64.9L695.2,519.6z"/>
<path class="st2" d="M693.7,420.2c0,0-22.7,49.7-4.7,91.5l-181,56.5l-17.3,3.7l-8-35l5.3-44.2v-24.2L693.7,420.2z"/>
<polygon class="st0" points="122.2,402.4 372.7,356.7 704.7,409.6 498.5,483.8 "/>
<path class="st0" d="M122.2,402.3c0,0-23.5,44.4,3.5,85.4l371.5,80.5c0,0-23.1-35.4,1.2-84.4L122.2,402.3z"/>
<path class="st3" d="M122.2,402.3c0,0-23.5,44.4,3.5,85.4l371.5,80.5c0,0-23.1-35.4,1.2-84.4L122.2,402.3z"/>
<path class="st3" d="M133.3,417.7c0,0-13.4,32.5,0,53.5"/>
<path class="st0" d="M497.3,568.2l207.4-66.5c0,0,11.6,2.5,4.1,11s-207.5,64-207.5,64l-375.5-89L497.3,568.2z"/>
<path class="st3" d="M497.3,568.2l207.4-66.5c0,0,11.6,2.5,4.1,11s-207.5,64-207.5,64l-375.5-89L497.3,568.2z"/>
<path class="st3" d="M480.3,492.7c0,0-20,24,0,60"/>
<rect x="485.1" y="507.3" transform="matrix(0.9486 -0.3165 0.3165 0.9486 -133.357 194.6212)" class="st3" width="94.6" height="1"/>
<rect x="483.8" y="509.8" transform="matrix(0.9347 -0.3554 0.3554 0.9347 -146.021 225.7369)" class="st3" width="115.2" height="1"/>
<rect x="486.2" y="516.1" transform="matrix(0.9257 -0.3782 0.3782 0.9257 -154.2867 247.6388)" class="st3" width="134.2" height="1"/>
<rect x="482.8" y="516.5" transform="matrix(0.9113 -0.4117 0.4117 0.9113 -163.2277 276.2743)" class="st3" width="153.7" height="1"/>
<rect x="483.7" y="518.5" transform="matrix(0.9163 -0.4005 0.4005 0.9163 -160.3376 270.8599)" class="st3" width="168.2" height="1"/>
<rect x="484.8" y="519.1" transform="matrix(0.918 -0.3965 0.3965 0.918 -158.0423 274.7115)" class="st3" width="201.2" height="1"/>
<polygon class="st4" points="215.3,407.2 391.3,370.2 498.5,390.7 354.3,437.2 "/>
<path class="st0" d="M704.7,409.6c0,0,9.1,3.7,3.8,9.3s-209.9,64.9-209.9,64.9L704.7,409.6z"/>
<path class="st0" d="M264.7,106c0,0-38-2.3-33.6,24.4c0,0-0.9,4.7,3.4,6.9c0,0,0.1-2,3.9-1.3c1.4,0.2,2.8,0.3,4.1,0.2
	c1.9-0.1,3.6-0.9,5-2.1l0,0c0,0,10.7-4.4,14.9-21.9c0,0,3.1-3.8,3-4.8l-6.4,2.7c0,0,2.2,4.6,0.5,8.5c0,0-0.2-8.3-1.5-8.1
	c-0.3,0-3.3,1.6-3.3,1.6s3.8,8.1,0.9,13.9c0,0,1.1-9.9-2.1-13.3l-4.5,2.6c0,0,4.4,8.3,1.4,15.1c0,0,0.8-10.4-2.4-14.5l-4.1,3.2
	c0,0,4.1,8.2,1.6,13.8c0,0-0.3-12.1-2.5-13.1c0,0-3.6,3.2-4.1,4.5c0,0,2.8,6,1.1,9.1c0,0-1.1-8.1-2-8.1c0,0-3.6,5.4-3.9,9
	c0.2-3.4,1.2-6.7,3.1-9.5c-2.1,0.4-4,1.4-5.5,2.8c0,0,0.5-3.8,6.4-4.1c0,0,3-4.1,3.7-4.3c0,0-5.8-0.5-9.3,1.1c0,0,3.1-3.6,10.3-2
	l4-3.3c0,0-7.6-1-10.8,0.1c0,0,3.7-3.2,11.9-0.9l4.4-2.6c0,0-6.5-1.4-10.3-0.9c0,0,4.1-2.2,11.6,0.2l3.1-1.4c0,0-4.7-0.9-6.1-1.1
	s-1.5-0.5-1.5-0.5c3-0.5,6.1-0.1,8.9,1C258.1,108.8,264.8,106.4,264.7,106z"/>
<path class="st6" d="M328.7,270.7c0,0-16.6-34.3-37.6-17.4c0,0-4.5,1.5-4.3,6.3c0,0,1.8-0.9,3,2.8c0.5,1.3,1.1,2.5,1.8,3.7
	c1,1.6,2.5,2.8,4.3,3.4l0,0c0,0,9.1,7.2,26.4,2.3c0,0,4.8,0.8,5.6,0.3l-5.6-4.3c0,0-3,4.2-7.2,4.5c0,0,7.2-4.2,6.4-5.2
	c-0.2-0.2-3-2.1-3-2.1s-5.2,7.2-11.7,7.6c0,0,9.2-3.9,10.6-8.4l-4.5-2.7c0,0-5.1,7.9-12.5,8.6c0,0,9.5-4.4,11.5-9.1l-4.8-2
	c0,0-5.1,7.6-11.3,8.2c0,0,10.4-6.2,10.2-8.6c0,0-4.5-1.6-5.9-1.4c0,0-3.8,5.4-7.4,5.4c0,0,6.5-4.9,6.1-5.7c0,0-6.4-0.5-9.8,1
	c3-1.5,6.4-2.2,9.8-2c-1.3-1.6-3.1-2.8-5.1-3.4c0,0,3.6-1.4,6.7,3.5c0,0,5,0.6,5.6,1.2c0,0-2.4-5.3-5.4-7.6c0,0,4.6,0.9,6.7,8
	l4.9,1.9c0,0-2.8-7.1-5.4-9.4c0,0,4.6,1.7,6.5,10l4.4,2.6c0,0-1.9-6.3-4.3-9.4c0,0,3.9,2.5,5.5,10.2l2.8,2.1c0,0-1.5-4.6-2-5.9
	s-0.3-1.5-0.3-1.5c1.9,2.4,3.1,5.2,3.5,8.3C323,266.4,328.4,271,328.7,270.7z"/>
<path class="st6" d="M712.5,167.1c0,0-16.5-34.3-37.6-17.4c0,0-4.5,1.5-4.3,6.3c0,0,1.8-0.9,3,2.8c0.5,1.3,1.1,2.6,1.8,3.7
	c1,1.6,2.5,2.8,4.3,3.4l0,0c0,0,9.1,7.2,26.4,2.3c0,0,4.8,0.8,5.6,0.2l-5.5-4.3c0,0-3,4.2-7.2,4.6c0,0,7.2-4.2,6.4-5.2
	c-0.2-0.2-3-2.1-3-2.1s-5.2,7.2-11.7,7.6c0,0,9.2-3.9,10.6-8.3l-4.6-2.6c0,0-5.1,7.9-12.5,8.6c0,0,9.5-4.4,11.5-9.1l-4.8-2
	c0,0-5.2,7.6-11.3,8.2c0,0,10.4-6.2,10.2-8.6c0,0-4.5-1.6-5.9-1.4c0,0-3.8,5.4-7.4,5.4c0,0,6.5-4.9,6.1-5.7c0,0-6.4-0.5-9.8,1
	c3-1.5,6.4-2.2,9.8-2c-1.3-1.6-3.1-2.8-5.1-3.4c0,0,3.6-1.4,6.7,3.5c0,0,5,0.6,5.6,1.2c0,0-2.4-5.3-5.5-7.6c0,0,4.6,0.9,6.7,8
	l4.9,1.9c0,0-2.8-7.1-5.4-9.4c0,0,4.6,1.7,6.5,10l4.5,2.6c0,0-1.9-6.3-4.3-9.4c0,0,3.9,2.5,5.5,10.2l2.8,2.1c0,0-1.5-4.6-2-5.9
	s-0.3-1.5-0.3-1.5c1.9,2.4,3.1,5.2,3.5,8.3C706.8,162.8,712.2,167.4,712.5,167.1z"/>
<path class="st6" d="M765.4,336.9c0,0-16.6-34.3-37.7-17.4c0,0-4.5,1.5-4.3,6.3c0,0,1.8-0.9,3,2.8c0.5,1.3,1.1,2.6,1.8,3.7
	c1,1.6,2.5,2.8,4.3,3.4l0,0c0,0,9.1,7.2,26.4,2.3c0,0,4.8,0.8,5.6,0.2l-5.5-4.3c0,0-3,4.2-7.2,4.5c0,0,7.2-4.2,6.4-5.2
	c-0.2-0.2-3-2.1-3-2.1s-5.2,7.2-11.7,7.6c0,0,9.2-3.9,10.6-8.4l-4.5-2.7c0,0-5.1,7.9-12.5,8.6c0,0,9.5-4.4,11.5-9.1l-4.8-2
	c0,0-5.2,7.6-11.3,8.2c0,0,10.4-6.2,10.2-8.6c0,0-4.5-1.6-5.9-1.4c0,0-3.8,5.4-7.4,5.4c0,0,6.5-4.9,6.1-5.7c0,0-6.4-0.5-9.8,1
	c3.1-1.5,6.4-2.2,9.8-2c-1.3-1.6-3.1-2.8-5.1-3.4c0,0,3.6-1.4,6.7,3.5c0,0,5,0.6,5.6,1.2c0,0-2.4-5.3-5.4-7.6c0,0,4.6,0.9,6.7,8
	l4.8,1.9c0,0-2.8-7.1-5.4-9.4c0,0,4.6,1.7,6.5,10l4.5,2.5c0,0-1.9-6.3-4.3-9.4c0,0,3.9,2.5,5.5,10.2l2.8,2c0,0-1.5-4.6-2-5.9
	s-0.3-1.5-0.3-1.5c1.9,2.4,3.1,5.2,3.5,8.3C759.6,332.6,765.1,337.2,765.4,336.9z"/>
<ellipse class="st6" cx="201.9" cy="781.6" rx="23" ry="2.6"/>
<ellipse class="st6" cx="51.2" cy="737.9" rx="23" ry="2.6"/>
<ellipse class="st6" cx="714.2" cy="734.9" rx="23" ry="2.6"/>
<ellipse class="st6" cx="590.5" cy="793.7" rx="27.2" ry="4.7"/>
<path class="st0" d="M602.6,746.7c0,0-37.9,19.6-18.3,42.6c0,0,1.8,5,7.2,4.7c0,0-1.1-1.9,3-3.5c1.4-0.6,2.8-1.3,4.1-2.2
	c1.7-1.2,3-2.9,3.7-4.9l0,0c0,0,7.7-10.4,1.7-29.5c0,0,0.8-5.4,0.1-6.3l-4.6,6.3c0,0,4.8,3.2,5.3,7.9c0,0-5-7.9-6-7
	c-0.2,0.2-2.3,3.5-2.3,3.5s8.2,5.6,8.8,12.8c0,0-4.6-10.2-9.7-11.6l-2.9,5.1c0,0,9,5.5,10,13.7c0,0-5.2-10.5-10.6-12.6l-2.1,5.4
	c0,0,8.7,5.5,9.5,12.4c0,0-7.3-11.5-9.9-11.1c0,0-1.6,5.1-1.4,6.7c0,0,6.1,4.1,6.2,8.1c0,0-5.7-7.2-6.5-6.7c0,0-0.4,7.2,1.4,10.9
	c0,0-3-5.3-2.5-10.9c-1.8,1.6-3,3.6-3.6,5.8c0,0-1.6-4,3.7-7.6c0,0,0.5-5.6,1.1-6.3c0,0-5.8,2.8-8.3,6.3c0,0,0.9-5.2,8.8-7.8l2-5.5
	c0,0-7.9,3.3-10.3,6.3c0,0,1.8-5.2,10.9-7.6l2.7-5c0,0-7,2.4-10.4,5c0,0,2.7-4.4,11.3-6.5l2.2-3.2c0,0-5.1,1.8-6.5,2.5
	s-1.7,0.3-1.7,0.3c2.6-2.2,5.7-3.6,9.1-4.1C597.9,753.3,602.9,747.1,602.6,746.7z"/>
<linearGradient id="SVGID_1_" gradientUnits="userSpaceOnUse" x1="589.6289" y1="-225.0962" x2="589.6289" y2="-727.0355" gradientTransform="matrix(1 0 0 1 -88.58 726.58)">
	<stop  offset="0" style="stop-color:#808080;stop-opacity:0.25"/>
	<stop  offset="0.54" style="stop-color:#808080;stop-opacity:0.12"/>
	<stop  offset="1" style="stop-color:#808080;stop-opacity:0.1"/>
</linearGradient>
<path class="st7" d="M669.3,376.8c-6.5-17.8-42.5-19.4-58.2-14.9c-11.1,3.2-34.5,6.9-47,8.7l-0.8-0.8c1.6-0.5,1.7-1.7,1.5-3.4
	c-0.1-2.3-0.1-4.6,0.1-6.9c7.7,2.4,14.5-3.3,14.5-3.3l0,0c9-4,6.6-21.1,8.3-25.8c1.3-3.5,2.7-24.1,3.3-34.4h0.1l0.1-3.5
	c0.1-1.5,0.1-2.4,0.1-2.4s0.9-25.1,2.6-30.2c1.6-4.7,2.9-28.3,3.1-32v-0.4l-0.1-2.2c0.1-1.6,0.1-3.4,0.1-5.2c0-8.6-0.9-19.3-1-21.1
	v-0.9c0.1-3.6-0.4-21.9-15.9-28.8c-5.7-2.6-12.6-5.6-19.3-8.6c-1.7-14.9-5.7-29.6-5.3-44.6c0-2.3,0.2-4.5,0.4-6.7
	c0,0.7-0.1,1.3-0.1,2v4.4c0.6-18.7,7.7-37.5,7-55.8c-0.1,1.8-0.2,3.6-0.4,5.4c0.3-6.2-0.3-12.4-1.9-18.4c-0.6-2.1-1.4-4.3-3.1-5.7
	c-1.6-1.1-3.5-1.9-5.5-2.2c-4.7-1.2-9.5-2.1-14.4-2.7c-0.7-2.3-1.8-4.4-3.2-6.3c-10.1-13.9-25.2-27-42.9-30
	c-8.9-1.5-19.2-0.3-25.2,6.1c-0.6,0.6-1.3,1.2-1.8,1.8c-3.3,3.9-4.7,9-8,12.9c-0.2,0.3-0.5,0.5-0.7,0.8c-6.5,5.9-16.7,7.1-24,12.3
	c-1.3,0.9-2.5,2-3.6,3.1c-2.9,2.9-5.6,6.1-7.8,9.5c-3.3,4.6-6.6,9.4-7.7,14.9c-2.1,11,5.4,21.4,6.8,32.5
	c3.1,24.8-24.3,46.8-19.1,71.2c1.4,6,4.4,11.5,8.8,15.8c-10.7,9.7-19.8,19.1-19.8,19.1v0.6h-1.7l0.2,2h-0.2l0.9,10.9l-0.9,15.8v1.5
	h0.1c0.3,5.8,1.5,26.6,3,31c1.7,5.1,2.6,30.2,2.6,30.2s1.9,35.5,3.6,40.2s-0.7,21.8,8.3,25.8l0,0c2.6,2,5.8,3.3,9.1,3.8
	c-0.5,3.7-0.2,6.5,1.3,7.3c0.6,0.4,1.4,0.6,2.1,0.6c-0.6,0.9-1.2,1.9-1.6,2.9c-3.6-0.4-7.1-1.2-10.5-2.5c-9.7-4-41.9-13-51.2-6.7
	s-31.9,12.1-21.5,37.5s15.2,26.1,15.2,26.1c3.2,2.3,6,5.1,8.3,8.4c3.1,4.7,32.2,15.4,39.5,15.4c3.1,0,6.2,0.1,9.3,0.5
	c0,0-7.9,6.9-6.8,10.9s-2.4,36.2-2.4,36.2s8,8.1,11.4-2.5l0.1,0.2c0.6,0.9,4.1,4.8,10.6-0.2c2.7-2,5.5-3.8,8.5-5.4l31.5-4.5
	c3.3-0.2,6.6-0.2,9.9-0.1c5,0.4,9.9-2.5,13-4.8c6.5,2.5,13.9,5.2,17.4,6.2c7.1,2,39.6,10.7,47.2,8c1.6-0.6,3-1.6,4.1-2.9l7.3,0.2
	l-3.4,0.7c0,0,6.6,0.1,15.6,0.2l-0.4,0.2l11.3-0.1c16.5,0.1,35.1,0.2,37.5-0.4c3.8-0.9,23.7-0.3,29.5,0h1.6c0,0,21.8-4.4,12.8-26.5
	c-6.9-17-28.2-21.9-37.6-23.3c2.7-0.5,5-0.9,6.5-1.2c6.6-1,19.4-7,20.4-9s11.8-8,14.5-11.4S675.8,394.6,669.3,376.8z M488.6,426.5
	l-1.1,0.4l-0.7,0.2l-1.4,1.4c-1.1-0.7-2.3-1.5-3.5-2.3C484.1,426.3,486.3,426.4,488.6,426.5z"/>
<path class="st8" d="M552.4,321.1c0,0,15.3,40,24,36s6.3-21,8-25.7s3.5-40,3.5-40s0.8-25,2.5-30.1c1.5-4.6,2.8-28.1,3-31.8V229
	l-1.7-29l-9.3-2.3l-21.7,8l-3,17.1l-1.2,6.7l-0.5,2.9L552.4,321.1z"/>
<path class="st3" d="M557.4,314.4c0,0,14.6,12,19,13s7.1,10.4,7.1,10.4"/>
<path class="st8" d="M432.7,322.8c0,0-15.3,40-24,36s-6.3-21-8-25.7s-3.5-40-3.5-40s-0.8-25-2.5-30.1c-1.5-4.6-2.8-28.1-3-31.8v-0.5
	l1.7-29l9.3-2.3l21.7,8l3,17.1l1.2,6.7l0.5,2.9L432.7,322.8z"/>
<rect x="498.2" y="108.8" class="st9" width="34.2" height="53.2"/>
<rect x="498.2" y="108.8" class="st3" width="34.2" height="53.2"/>
<path class="st10" d="M426.7,362.7c0,0-11.7,12.8-7.3,15.2s32.3,46,32.3,46s92,11.3,109.4-5.7s17-47.4,17-47.4s-13.9,3-15.5,1.4
	s-9.9-9.5-9.9-9.5S434.7,355.5,426.7,362.7z"/>
<path class="st11" d="M426.7,362.7c0,0-11.7,12.8-7.3,15.2s32.3,46,32.3,46s92,11.3,109.4-5.7s17-47.4,17-47.4s-13.9,3-15.5,1.4
	s-9.9-9.5-9.9-9.5S434.7,355.5,426.7,362.7z"/>
<path class="st8" d="M592.3,200.5l-30,24l-9.1,0.7l-3.3,0.2l-55.9,4.1l-58-4.2l-8.6-0.6l-11-0.8l-23-22c0,0,16.3-17.4,30.5-29.2
	c5.6-4.6,10.9-8.4,14.8-9.9l0.7-0.2c2.4-0.9,4.6-2.5,6.3-4.4c11.3-11.6,21.7-40.3,21.7-40.3s49.7-25.7,43.7,8
	c-6,33.7,22.3,25.3,22.3,25.3l9.3,4.3l3.7,1.7l9.4,4.3l21.2,9.7C593.7,178.8,592.3,200.5,592.3,200.5z"/>
<circle class="st3" cx="491.7" cy="100.6" r="44.7"/>
<path class="st3" d="M592.4,232.3H391.7v-0.5l1.7-29c0,0,16.3-17.4,30.5-29.2l126-5l5.9-6.2l21.2,9.7c16.7,7.7,15.3,29.4,15.3,29.4
	S594.6,226.6,592.4,232.3z"/>
<path class="st1" d="M592.4,231.3H391.7v-0.5l1.7-29c0,0,16.3-17.4,30.5-29.2l126-5l5.9-6.2l21.2,9.7c16.7,7.7,15.3,29.4,15.3,29.4
	S594.6,225.6,592.4,231.3z"/>
<path class="st3" d="M459.5,150c0,0,31.7,40.3,73.8-0.8S538,241,538,241l-91,10.8L459.5,150z"/>
<path class="st1" d="M459.5,152c0,0,31.7,40.3,73.8-0.8S538,243,538,243l-91,10.8L459.5,152z"/>
<path class="st3" d="M546.4,159.1l3.3,51.1l3.6,17l2.7,13c0,0,7,100,5,105s1,9,1.4,11.7s-0.4,9.3-0.1,12.3s0,4.3-7.7,3.3
	s-18.3-2.9-18.3-2.9s-27,2-36.3-1.3s-27-3.3-27-3.3s-26.7,0.7-35.3-0.3s-13.3,10.7-19,7.3s6.7-35.7,10.7-45s-5.3-33-5.3-33l12-66.6
	l2.7-15.1v-47.4l0.7-0.2c2.4-0.9,4.6-2.5,6.3-4.4l3,47.7l94,3.3v-53.7"/>
<path class="st1" d="M546.4,157.1l3.3,51.1l3.6,17l2.7,13c0,0,7,100,5,105s1,9,1.4,11.7s-0.4,9.3-0.1,12.3s0,4.3-7.7,3.3
	s-18.3-2.9-18.3-2.9s-27,2-36.3-1.3s-27-3.3-27-3.3s-26.7,0.7-35.3-0.3s-13.3,10.7-19,7.3s6.7-35.7,10.7-45s-5.3-33-5.3-33l12-66.6
	l2.7-15.1v-47.4l0.7-0.2c2.4-0.9,4.6-2.5,6.3-4.4l3,47.7l94,3.3v-53.7"/>
<path class="st3" d="M557.2,50.5c-0.6-2.1-1.4-4.3-3-5.7c-1.6-1.1-3.4-1.9-5.3-2.2c-4.6-1.2-9.2-2.1-13.9-2.7
	c-0.7-2.2-1.7-4.3-3-6.2c-9.8-13.8-24.3-26.9-41.4-29.8c-8.9-1.5-19.3-0.2-25,6.9c-3.1,3.9-4.5,9-7.7,12.8
	c-6.1,7.4-17.1,8.3-24.8,14c-4.1,3-7.1,7.3-10,11.6c-3.1,4.6-6.4,9.3-7.4,14.8c-2,10.9,5.2,21.3,6.5,32.3
	c3,24.6-23.4,46.5-18.4,70.8c2.9,14.2,16,24.1,29.5,29.2c4.8,1.8,10.2,3.6,12.5,8.1c1,2,1.2,4.3,2.1,6.3c3.2,6.7,13.5,7,19.1,2.1
	c5.6-4.9,7.3-12.9,8-20.3c2.7-32.4-10.3-64.3-8.8-96.8c0.5-9.8,3.2-20.9,12-25.4c11.8-6,26.1,4,39.1,2.1c6.2,15,7.5,31.5,3.7,47.3
	c-2.1,8.6-5.7,17-5.9,25.9c-0.4,13.6,6.9,25.9,13.2,37.9c1.4,2.2,2.3,4.7,2.7,7.3c0.1,2.6-0.4,5.2-1.4,7.6
	c-3.6,9.6-9.7,18.5-10.4,28.8c-0.2,1.2,0.1,2.4,0.8,3.4c0.7,0.7,1.6,1.1,2.6,1.2c10.8,1.9,20.1-7.7,25.4-17.3
	c5.9-10.6,9.3-22.4,10-34.5c1.1-20.4-6.2-40.4-5.8-60.8C552.8,96.1,563.3,72.8,557.2,50.5z"/>
<path class="st9" d="M558.2,49.5c-0.6-2.1-1.4-4.3-3-5.7c-1.6-1.1-3.4-1.9-5.3-2.2c-4.6-1.2-9.2-2.1-13.9-2.7
	c-0.7-2.2-1.7-4.3-3-6.2c-9.8-13.8-24.3-26.9-41.4-29.8c-8.9-1.5-19.3-0.2-25,6.9c-3.1,3.9-4.5,9-7.7,12.8
	c-6.1,7.4-17.1,8.3-24.8,14c-4.1,3-7.1,7.3-10,11.6c-3.1,4.6-6.4,9.3-7.4,14.8c-2,10.9,5.2,21.3,6.5,32.3
	c3,24.6-23.4,46.5-18.4,70.8c2.9,14.2,16,24.1,29.5,29.2c4.8,1.8,10.2,3.6,12.5,8.1c1,2,1.2,4.3,2.1,6.3c3.2,6.7,13.5,7,19.1,2.1
	c5.6-4.9,7.3-12.9,8-20.3c2.7-32.4-10.3-64.3-8.8-96.8c0.5-9.8,3.2-20.9,12-25.4c11.8-6,26.1,4,39.1,2.1c6.2,15,7.5,31.5,3.7,47.3
	c-2.1,8.6-5.7,17-5.9,25.9c-0.4,13.6,6.9,25.9,13.2,37.9c1.4,2.2,2.3,4.7,2.7,7.3c0.1,2.6-0.4,5.2-1.4,7.6
	c-3.6,9.6-9.7,18.5-10.4,28.8c-0.2,1.2,0.1,2.4,0.8,3.4c0.7,0.7,1.6,1.1,2.6,1.2c10.8,1.9,20.1-7.7,25.4-17.3
	c5.9-10.6,9.3-22.4,10-34.5c1.1-20.4-6.2-40.4-5.8-60.8C553.8,95.1,564.3,71.8,558.2,49.5z"/>
<polygon class="st12" points="538.4,488.4 578,488.9 571.8,459.6 541.4,463.1 "/>
<path class="st10" d="M659,422.5c-2.7,3.3-13,9.3-14,11.3s-13.3,8-19.7,9s-26.3,5.3-30,7.7c-2.6,1.7-23.7,7-37.6,10
	c-3.8,0.9-7.6,1.6-11.4,2c-6,0.3-71.7-22-71.7-22l12.7-13l0.7-0.2c3.6-1.2,20.1-6.8,29.3-9.5c10.3-3,22.3-15.3,22.3-15.3
	s17.7-6,20-6.7s-6-23.3-6-23.3s38.3-5.3,53.3-9.8s49.7-2.8,56,14.8S661.7,419.2,659,422.5z"/>
<path class="st1" d="M484.3,478.8c0,0-7.7,8-15.3,7.3s-34.5,2-34.5,2c-4.9,1.9-9.4,4.6-13.5,7.8c-6.3,4.9-9.6,1-10.2,0.2l-0.1-0.2
	c-3.3,10.5-11,2.5-11,2.5s3.3-32,2.3-36s6.6-10.9,6.6-10.9l9-2.3l22.7-5.7l32.7,11.3L484.3,478.8z"/>
<path class="st3" d="M417.5,449.3l-6.8,46.8l-0.1-0.2c-3.3,10.5-11,2.5-11,2.5s3.3-32,2.3-36s6.6-10.9,6.6-10.9L417.5,449.3z"/>
<path class="st3" d="M464.7,316.2c0,0,17.7,6,33,0"/>
<path class="st3" d="M525,327.5c0,0,7.3,3.7,13,0"/>
<path class="st3" d="M525,336.2c0,0,12.3,1.6,14.7-1.7"/>
<path class="st3" d="M521,354.8c0,0,23.2-3,28.9-7"/>
<path class="st3" d="M450.3,347.8c0,0,13,7.3,22.7,7"/>
<path class="st3" d="M557.7,460.5c-3.8,0.9-7.6,1.5-11.4,2c-6,0.3-71.7-22-71.7-22l12.7-13l0.7-0.2c2,1.4,3.6,2.6,4.8,3.5
	c5.5,4.3,10.8-1.3,12.8-1.3s19.4,14.3,19.4,14.3s16,3.7,18.7,7s12,2.7,13.7,5C557.8,456.5,557.9,458.3,557.7,460.5z"/>
<path class="st10" d="M434.4,372.1c0,0-16.2,1.3-25.6-2.5c-9.4-3.7-40.6-12.2-49.5-5.6s-30.4,12.6-19.9,37.8
	c10.5,25.1,15.2,25.7,15.2,25.7c3.1,2.3,5.9,5,8.2,8.1c3.1,4.6,31.3,14.7,38.3,14.6s19.3-0.4,36.9,11.3
	c17.6,11.6,33.2,12.7,33.2,12.7s22.2,8.6,29.1,10.4s38.4,9.9,45.6,7.1c7.3-2.8,11.6-19.6,11.6-19.6s3-15.1,1.3-17.4
	s-11-1.4-13.8-4.7s-18.8-6.6-18.8-6.6s-17.5-14-19.5-13.9s-7.2,5.8-12.8,1.6c-11.1-7.9-22.8-15-34.9-21.3
	C446.2,403.2,434.4,372.1,434.4,372.1z"/>
<path class="st3" d="M402,383.5c5.8-1.2,11.9,0.4,16.4,4.3c8,6.7,34.9,20.1,34.9,20.1"/>
<path class="st3" d="M602,383.1c0,0-35.7,5.4-42.3,12.7"/>
<path class="st1" d="M645.3,487.5h-1.6c-5.6-0.1-24.8-0.3-28.4,0.6c-4.3,1.1-61.7,1.2-61.7,1.2l11.2-2.6c0,0-4.5-14.5-1.8-15.8
	c0,0-15.2-9.6-4-16.5s23.4-4.3,23.4-4.3l28.2-10.2l5.4-2c0,0,32,1,41.1,22.8C666.2,482.8,645.3,487.5,645.3,487.5z"/>
<path class="st3" d="M643,493.5h-1.6c9.3-7.7,30.4-31.1-32.2-48.1l5.5-1.9c0,0,32,1.7,40.7,23.7S643,493.5,643,493.5z"/>
<circle class="st13" cx="584.2" cy="465.8" r="1.8"/>
<circle class="st13" cx="574" cy="468.7" r="1.8"/>
<g class="st14">
	<path d="M524.5,98.9c0.4-11-1.6-22-5.7-32.1c-13,1.9-27.2-8.1-39.1-2.1c-8.8,4.4-11.5,15.6-12,25.4c-0.1,2.6-0.1,5.2-0.1,7.8
		c0-0.9,0-1.8,0.1-2.8c0.5-9.8,3.2-20.9,12-25.4c11.8-6,26.1,4,39.1,2.1C522.3,80.4,524.2,89.6,524.5,98.9z"/>
	<path d="M423.7,97.1c0.2-2.2,0.1-4.4-0.1-6.5c-1.1-8.8-5.9-17.2-6.7-25.8c-1.1,10.3,5.4,20.3,6.7,30.8
		C423.7,96,423.7,96.5,423.7,97.1z"/>
	<path d="M476.4,186.8c-0.6,7.4-2.4,15.4-8,20.3s-16,4.6-19.1-2.1c-1-2-1.1-4.3-2.1-6.3c-2.2-4.6-7.7-6.4-12.5-8.1
		c-13.5-5.1-26.6-15-29.5-29.2c-0.3-1.3-0.4-2.6-0.5-3.9c-0.2,3-0.1,6,0.5,8.9c2.9,14.2,16,24.1,29.5,29.2
		c4.8,1.8,10.2,3.6,12.5,8.1c1,2,1.2,4.3,2.1,6.3c3.1,6.7,13.5,7,19.1,2.1c5.6-4.9,7.3-12.9,8-20.3c0.3-3.9,0.4-7.8,0.3-11.7
		C476.7,182.4,476.6,184.6,476.4,186.8z"/>
	<path d="M553.6,113.6v4.3c0.6-18.6,7.4-37.3,6.7-55.5C559.8,79.2,554,96.5,553.6,113.6z"/>
	<path d="M532.2,188.8c0.2-1.2,0.3-2.4,0.2-3.6c-0.4-2.6-1.3-5.1-2.7-7.3c-5.8-11-12.4-22.3-13.2-34.5c0,0.5-0.1,1-0.1,1.6
		c-0.4,13.5,6.9,25.9,13.2,37.9C530.8,184.7,531.6,186.7,532.2,188.8z"/>
	<path d="M559.4,174.3c-0.7,12.1-4.2,23.9-10.1,34.5c-5.3,9.6-14.6,19.2-25.4,17.3c-1-0.1-1.9-0.5-2.6-1.2c-0.2-0.2-0.4-0.5-0.5-0.8
		c-0.1,0.8-0.2,1.6-0.3,2.4c-0.2,1.2,0.1,2.4,0.8,3.4c0.7,0.7,1.6,1.1,2.6,1.2c10.8,1.9,20.1-7.7,25.4-17.3
		c5.9-10.6,9.3-22.4,10.1-34.5c0.1-2.3,0.1-4.7,0.1-7C559.4,173,559.4,173.7,559.4,174.3z"/>
</g>
<path class="st15" d="M561,475.4c0,0,25.3,10.6,42-12.9"/>
<path class="st15" d="M566,493.9c0,0,20.7-13.4,47-0.4"/>
<path class="st15" d="M427.7,490.9c0,0,8.7-19.6,31.9-4.6"/>
<path class="st3" d="M399.5,201.3l17.7-16c0,0,68.6-4.5,71.5,18.8c0,0,24.3-27.7,75.5-21.5l21.7,17.2l-59.8,26.3l-58.2,20.2
	l-42.8-19.2L399.5,201.3z"/>
<path class="st2" d="M399.5,202.3l17.7-16c0,0,68.6-4.5,71.5,18.8c0,0,24.3-27.7,75.5-21.5l21.7,17.2l-59.8,26.3l-58.2,20.2
	l-42.8-19.2L399.5,202.3z"/>
<polygon class="st3" points="391.7,204.3 399.5,298 482.5,302.2 478.9,208.9 478.8,207.3 "/>
<polygon class="st0" points="391.7,202.3 399.5,296 482.5,300.2 478.9,206.9 478.8,205.3 "/>
<polygon class="st3" points="589.6,202.3 504,215.2 504,309.3 587.7,297.2 "/>
<polygon class="st0" points="589.6,200.3 504,213.2 504,307.3 587.7,295.2 "/>
<polygon class="st4" points="569.4,223.3 523.2,228.4 524.2,244.2 569.4,239.3 "/>
<path class="st8" d="M404,346.2l4.7,12.7c0,0,7,6,14.7,3s14.3-4.5,17.7-7.4s8-17.6,8-17.6s4.7-16,9.3-20s17-59.1,0-53.7
	s-30,55.4-30,55.4s-3,3.7-7.3,4s-13-0.7-14.7,3S399,338.8,404,346.2z"/>
<path class="st3" d="M504,215.2c-8.9,2-18.2-0.3-25.1-6.3l3.6,93.3c0,0,8.5,9.2,21.5,7.1V215.2z"/>
<path class="st0" d="M504,213.2c-8.9,2-18.2-0.3-25.1-6.3l3.6,93.3c0,0,8.5,9.2,21.5,7.1V213.2z"/>
<path class="st3" d="M504,213.2c-8.9,2-18.2-0.3-25.1-6.3l3.6,93.3c0,0,8.5,9.2,21.5,7.1V213.2z"/>
<path class="st3" d="M506,202.6c0,0,34.8-10.6,43.9-9.1"/>
<path class="st3" d="M467.1,198c0,0-33.8-8-39.4-5.7"/>
<path class="st3" d="M528,204c0,0,23.3-8.5,31.7-4.5"/>
<path class="st3" d="M516.2,418.2c3.6-2.7,7.5-5.1,11.5-7.1c6-2.9,17-10.4,17-10.4"/>
<path class="st3" d="M427.7,316.2c0,0-14.6,12-19,13s-7.1,10.4-7.1,10.4"/>
<path class="st8" d="M581,344.4l-4.7,12.7c0,0-7,6-14.7,3s-14.3-4.5-17.7-7.4s-8-17.6-8-17.6s-4.7-16-9.3-20s-17-59.1,0-53.7
	c17,5.4,30,55.4,30,55.4s3,3.7,7.3,4s13-0.7,14.7,3S586,337.1,581,344.4z"/>
<path class="st3" d="M572.9,321c0,0,9.5,6.1,9.5,13.5"/>
<circle class="st8" cx="491.8" cy="98.4" r="44.7"/>
<path class="st9" d="M463.8,86.4c5.4-0.8,10.2-4,15.3-5.8c11.6-4.1,24.4-1.3,36.2,2.4c4.5,1.4,9.1,3,13.8,3s9.7-1.9,12.1-6
	c2.2-3.7,1.8-8.6-0.1-12.5s-5-7.1-8.2-10.1c-10.4-9.8-23.3-19-37.6-18c-5.7,0.4-11.2,2.5-16.5,4.7c-6.6,2.9-13.1,6.1-19.4,9.8
	c-4.8,2.8-13.7,6.5-16.5,11.6C436.7,77,454,87.9,463.8,86.4z"/>
<path class="st3" d="M541.2,75.8c-2.4,4.1-7.4,6-12.1,6s-9.3-1.5-13.8-2.9c-11.7-3.7-24.5-6.5-36.1-2.4c-5.2,1.8-9.9,5-15.4,5.8
	c-7.9,1.2-20.6-5.6-22-14.4c-1.5,10.1,13.2,18.8,22,17.4c5.4-0.8,10.2-4,15.4-5.8c11.6-4.1,24.4-1.3,36.1,2.4
	c4.5,1.4,9.1,3,13.8,2.9s9.7-1.9,12.1-6c1.2-2.2,1.7-4.8,1.4-7.3C542.5,73,542,74.4,541.2,75.8z"/>
<g class="st16">
	<path class="st17" d="M203.4,440.8l11.1,2.4l10.1,48.6l-5.1-1.1l-2.6-12.5l-19.5-4.1l-3.8,11.1l-5.1-1.1L203.4,440.8z M216.1,473.4
		l-5.6-26.6l-3.4-0.7l-8.2,23.7L216.1,473.4z"/>
	<path class="st17" d="M229.7,492.2l0.5-4.3c3.2,1.1,8.4,2.9,10.8,3.4c5.4,1.1,8.3,0.5,8.5-4c0.2-3.5-1.5-4.7-8.5-7.2
		c-7.4-2.8-10.8-5-10.5-11.6c0.4-7.3,6.3-8.5,12.3-7.2c3.6,0.8,8.8,2.6,11.8,3.8l-0.3,4.3c-3.1-1.1-8.4-2.8-11.5-3.5
		c-4.1-0.9-7.2-0.4-7.4,3.5c-0.2,3.1,1.3,4.2,8.2,6.9c8.1,3.1,11.2,5.5,10.8,11.9c-0.4,7.8-5.4,9.3-13.3,7.7
		C238.1,495.3,232.8,493.4,229.7,492.2z"/>
	<path class="st17" d="M260.2,498.7l0.5-4.3c3.2,1.1,8.4,2.9,10.8,3.4c5.4,1.1,8.3,0.5,8.5-4c0.2-3.5-1.5-4.7-8.5-7.2
		c-7.4-2.8-10.8-5-10.5-11.6c0.4-7.3,6.3-8.5,12.3-7.2c3.6,0.8,8.8,2.6,11.8,3.8l-0.3,4.3c-3.1-1.1-8.4-2.8-11.5-3.5
		c-4.1-0.9-7.2-0.4-7.4,3.5c-0.2,3.1,1.3,4.2,8.2,6.9c8.2,3.1,11.2,5.5,10.8,11.9c-0.4,7.8-5.4,9.3-13.3,7.7
		C268.7,501.8,263.4,499.9,260.2,498.7z"/>
</g>
<g class="st16">
	<path class="st17" d="M291.5,489.4c0.6-12.6,6.3-16.3,14.6-14.6c8.7,1.9,13.1,7.5,12.5,18.4l-0.5,3.7l-21.7-4.6
		c-0.3,7.1,1.6,11.2,8.1,12.6c3.5,0.8,9,1.6,12.1,2l-0.1,4c-3.2-0.2-9-0.8-12.9-1.7C293.8,507.1,290.9,500.7,291.5,489.4z
		 M313.6,491.9c0.4-8.2-1.9-11.7-7.7-12.9c-5.6-1.2-8.9,1.3-9.3,9.3L313.6,491.9z"/>
</g>
<g class="st16">
	<path class="st17" d="M327.3,502l0.9-17.5l-4.6-1l0.2-4.3l4.6,1l0.5-10.2l4.9,1l-0.5,10.2l10.5,2.2l-0.2,4.3l-10.5-2.2l-0.8,16
		c-0.4,7.2,0,9.3,4.3,10.2c1.3,0.3,4.2,0.7,5.9,0.9l0.1,4.2c-1.9-0.1-5-0.3-6.7-0.7C329.1,514.7,326.8,511.6,327.3,502z"/>
	<path class="st17" d="M346.9,517.1l0.5-4.3c3.2,1.1,8.4,2.9,10.8,3.4c5.4,1.1,8.3,0.5,8.5-4c0.2-3.5-1.5-4.7-8.5-7.2
		c-7.4-2.8-10.8-5-10.5-11.6c0.4-7.3,6.3-8.5,12.3-7.2c3.6,0.8,8.8,2.6,11.8,3.8l-0.3,4.3c-3.1-1.1-8.4-2.8-11.5-3.5
		c-4.1-0.9-7.2-0.4-7.4,3.5c-0.2,3.1,1.3,4.2,8.2,6.9c8.1,3.1,11.2,5.5,10.8,11.9c-0.4,7.8-5.4,9.3-13.3,7.7
		C355.3,520.2,350,518.3,346.9,517.1z"/>
</g>
<g class="st16">
	<path class="st18" d="M175.4,544.5l5.1,1.1l-1,20.6l23.1,4.9l1-20.6l5.1,1.1l-2.3,46l-5.1-1.1l1-20.8l-23.1-4.9l-1,20.8l-5.1-1.1
		L175.4,544.5z"/>
</g>
<g class="st16">
	<path class="st18" d="M215.7,582.3c0.6-11.4,4.5-16.1,14.9-13.9c10.5,2.2,13.8,8.4,13.2,19.9c-0.6,12.1-3.8,17-15,14.7
		C217.8,600.6,215.1,594.4,215.7,582.3z M238.8,587.2c0.5-9.2-1.4-13-8.4-14.5s-9.2,1.4-9.6,10.6c-0.5,9.4,0.6,13.6,8.3,15.3
		C236.8,600.3,238.3,596.7,238.8,587.2z"/>
	<path class="st18" d="M253.8,559.4l4.9,1l-2.4,47.7l-4.9-1L253.8,559.4z"/>
</g>
<g class="st16">
	<path class="st18" d="M265.6,592.9c0.6-11.4,4.5-16.1,14.9-13.9c10.5,2.2,13.8,8.4,13.2,19.9c-0.6,12.1-3.8,17-15,14.7
		C267.7,611.2,265,605,265.6,592.9z M288.7,597.8c0.5-9.2-1.4-13-8.4-14.5s-9.2,1.4-9.6,10.6c-0.5,9.4,0.6,13.6,8.3,15.3
		C286.7,610.9,288.2,607.2,288.7,597.8z"/>
	<path class="st18" d="M303.7,571.7l5.1,1.1l-2.1,41.3l20,4.2l-0.2,4.6l-25.1-5.3L303.7,571.7z"/>
</g>
<g class="st16">
	<path class="st18" d="M331.1,607.4c0.6-12.6,6.3-16.3,14.6-14.6c8.7,1.9,13.1,7.5,12.5,18.4l-0.5,3.7l-21.7-4.6
		c-0.3,7.1,1.6,11.2,8.1,12.6c3.5,0.8,9,1.6,12.1,2l-0.1,4c-3.2-0.2-9-0.8-12.9-1.7C333.5,625.2,330.5,618.7,331.1,607.4z
		 M353.2,610c0.4-8.2-1.9-11.7-7.7-12.9c-5.6-1.2-8.9,1.3-9.3,9.3L353.2,610z"/>
	<path class="st18" d="M366.6,598l4.9,1l-0.1,2.3c2.3-0.8,6.7-1.6,10.3-0.8c9,1.9,10.8,6.9,10.2,18.7l-0.9,17.5l-4.9-1l0.9-17.4
		c0.4-8.8-0.3-12.2-6.4-13.5c-3.4-0.7-7.4-0.2-9.4,0.5l-1.3,27l-4.9-1L366.6,598z"/>
	<path class="st18" d="M399,637.8l0.5-4.3c3.2,1.1,8.4,2.9,10.8,3.4c5.4,1.1,8.3,0.5,8.5-4c0.2-3.5-1.5-4.7-8.5-7.2
		c-7.4-2.8-10.8-5-10.5-11.6c0.4-7.3,6.3-8.5,12.3-7.2c3.6,0.8,8.8,2.6,11.8,3.8l-0.3,4.3c-3.1-1.1-8.4-2.8-11.5-3.5
		c-4.1-0.9-7.2-0.4-7.4,3.5c-0.2,3.1,1.3,4.2,8.2,6.9c8.1,3.1,11.2,5.5,10.8,11.9c-0.4,7.8-5.4,9.3-13.3,7.7
		C407.4,640.9,402.1,639,399,637.8z"/>
</g>
<g class="st16">
	<path class="st17" d="M116.2,684.5l0.7-4.1c3.9,1.3,10.1,3.3,13.6,4c6.4,1.4,9.8-0.7,10.1-7.1c0.3-5.2-2.3-7.2-9.7-10.2
		c-9.4-4-13.9-7.3-13.5-16.1c0.4-8.9,6.4-11.1,15.3-9.2c3.9,0.8,10.2,2.9,13.7,4.2l-0.7,4.2c-3.9-1.3-10.1-3.3-12.9-3.9
		c-6.4-1.4-10,0.2-10.2,5.4c-0.3,6,2.8,7.6,10.7,11.1c9,4,12.9,7.2,12.5,15.2c-0.5,10.2-6.2,13-15.2,11.1
		C126.5,688.2,120,685.9,116.2,684.5z"/>
	<path class="st17" d="M152.4,675.7c0.6-12,4.7-15.8,14.5-13.8c2.2,0.5,6.3,2,8.9,2.9l-0.4,4.1c-2.2-0.7-5.9-1.9-7.7-2.3
		c-7.6-1.6-9.8,1.3-10.2,10.2c-0.5,9.8,0.8,13.7,9,15.5c1.8,0.4,5.5,0.8,7.8,1v4.2c-2.6-0.2-7-0.5-9.2-1
		C154.6,694.2,151.8,688.7,152.4,675.7z"/>
	<path class="st17" d="M183.3,666l4.9,1l-0.2,4.5c2.5-1.2,7.6-2.8,12.2-2.7l-0.3,5c-4.5,0-9.6,1.1-12.2,2l-1.2,24.4l-4.9-1
		L183.3,666z"/>
	<path class="st17" d="M206,670.9l4.9,1l-1.7,33.2l-4.9-1L206,670.9z M206.7,657.6l4.9,1l-0.3,5.8l-4.9-1L206.7,657.6z"/>
</g>
<g class="st16">
	<path class="st17" d="M220.4,673.9l4.9,1l-0.1,2.4c2.2-0.9,6.4-1.7,9.9-1c8.3,1.8,11.6,7.6,11.1,19.4c-0.7,13.1-5,16.8-15.2,14.6
		c-2.8-0.6-5.9-1.7-7.3-2.3l-0.7,14.8l-4.9-1L220.4,673.9z M241.2,694.7c0.5-9.1-2.1-13-6.9-14c-3.2-0.7-7.2,0-9.2,0.7l-1.1,22.4
		c1.4,0.5,4.4,1.6,7.1,2.2C238.1,707.5,240.7,704.3,241.2,694.7z"/>
</g>
<g class="st16">
	<path class="st17" d="M255.4,703.4l0.9-17.5l-4.6-1l0.2-4.3l4.6,1l0.5-10.2l4.9,1l-0.5,10.2l10.5,2.2l-0.2,4.3l-10.5-2.2l-0.8,15.9
		c-0.4,7.2,0,9.3,4.3,10.2c1.3,0.3,4.2,0.7,5.9,0.9l0.1,4.2c-1.9-0.1-5-0.3-6.7-0.7C257.2,716,254.9,712.9,255.4,703.4z"/>
	<path class="st17" d="M277.9,686.1l4.9,1l-1.7,33.2l-4.9-1L277.9,686.1z M278.6,672.8l4.9,1l-0.3,5.8l-4.9-1L278.6,672.8z"/>
	<path class="st17" d="M292.3,689.2l4.9,1l-0.1,2.3c2.3-0.8,6.7-1.6,10.3-0.8c9,1.9,10.8,6.9,10.2,18.7l-0.9,17.5l-4.9-1l0.9-17.4
		c0.4-8.8-0.3-12.2-6.4-13.5c-3.4-0.7-7.4-0.2-9.4,0.5l-1.3,27l-4.9-1L292.3,689.2z"/>
	<path class="st17" d="M324.3,735.2c0.2-3.8,2.1-5.3,5.6-7.1c-1.1-1-1.7-2.9-1.6-5c0-0.9,1.4-3.3,2.5-4.8c-2.7-1.8-5-5-4.7-11.1
		c0.4-8.2,5.6-10.3,12.9-8.7c2.4,0.5,5.3,1.6,6.8,2.3l9.7,1.8l-0.2,4.3l-6.2-1.4c1.1,1.5,1.9,3.6,1.8,7.1
		c-0.4,8.6-4.8,10.3-13.3,8.5c-0.7-0.1-2.5-0.7-3.2-0.9c-0.6,1.2-1.3,2.9-1.4,3.5c-0.1,2.7,0.4,3.2,7.8,4.7
		c9.4,2,12.7,4.6,12.3,12.5c-0.4,7.5-5.9,9.4-15.2,7.5C327.6,746,323.9,742.9,324.3,735.2z M348.1,739.9c0.3-5-1.9-6-7.8-7.3
		c-1.7-0.4-5.1-1.3-7.1-1.8c-2.9,1.5-3.8,2.5-4,5.1c-0.2,4.6,1.6,6.6,9,8.2C344.8,745.4,347.8,744.2,348.1,739.9z M346,711.4
		c0.3-5.2-1.7-7.7-7.2-8.9c-5.1-1.1-7.4,0.5-7.7,5.8c-0.3,5.2,1.8,7.7,6.9,8.8C343.6,718.2,345.7,716.6,346,711.4z"/>
</g>
</svg>
