<?xml version="1.0" encoding="utf-8"?>
<!-- Generator: Adobe Illustrator 24.1.3, SVG Export Plug-In . SVG Version: 6.00 Build 0)  -->
<svg version="1.1" id="a594ac37-6d44-4297-8862-1cbd9c01c0b7"
	 xmlns="http://www.w3.org/2000/svg" xmlns:xlink="http://www.w3.org/1999/xlink" x="0px" y="0px" viewBox="0 0 1500 855"
	 style="enable-background:new 0 0 1500 855;" xml:space="preserve">
<style type="text/css">
	.st0{fill:#EEEEEE;}
	.st1{opacity:0.1;enable-background:new    ;}
	.st2{fill:#94A4AD;}
	.st3{fill:#F2F2F2;}
	.st4{fill:#1B2238;}
	.st5{fill:#5C39BC;}
	.st6{fill:#33DED2;}
	.st7{fill:#FBBEBE;}
	.st8{fill:#D3B94C;}
	.st9{fill:#B3BEC4;}
	.st10{fill:#319387;}
	.st11{fill:#5B58A6;}
	.st12{fill:#3D2A79;}
	.st13{fill:#2A314C;}
	.st14{fill:#36334A;}
	.st15{fill:#303A54;}
	.st16{fill:#4A5B64;}
	.st17{fill:#513B3B;}
	.st18{fill:#1C1414;}
</style>
<path class="st0" d="M635.8,755.9C393.4,737.5,104.3,549.7,119,356.3S413.7-17.1,656.1,1.3s381.9,379.9,367.2,573.3
	C1008.6,767.9,878.2,774.4,635.8,755.9z"/>
<ellipse class="st0" cx="781.9" cy="732.4" rx="631.8" ry="55.4"/>
<ellipse class="st1" cx="781.9" cy="731.5" rx="538.1" ry="36.6"/>
<ellipse class="st0" cx="212.2" cy="836.5" rx="212.2" ry="18.5"/>
<ellipse class="st1" cx="212.2" cy="836.2" rx="180.7" ry="12.2"/>
<rect x="321.2" y="115" class="st2" width="939" height="590"/>
<path class="st3" d="M562.8,195.6H377.3c-1.2,0-2.3-1-2.3-2.2s1-2.3,2.2-2.3l0,0h185.5c1.2,0,2.2,1,2.2,2.3
	C565.1,194.6,564.1,195.6,562.8,195.6z"/>
<path class="st3" d="M765.9,220.4H474.1c-1.2,0-2.3-1-2.3-2.3s1-2.3,2.3-2.3l0,0h291.8c1.2,0,2.3,1,2.3,2.3S767.2,220.4,765.9,220.4
	z"/>
<path class="st3" d="M564.2,245.2H407c-1,0-1.9-1-1.9-2.3s0.8-2.3,1.9-2.3h157.2c1,0,1.9,1,1.9,2.3S565.3,245.2,564.2,245.2z"/>
<path class="st3" d="M765.9,245.6H580.4c-1.2,0-2.3-1-2.3-2.3s1-2.3,2.3-2.3h185.5c1.2,0,2.3,1,2.3,2.3S767.2,245.6,765.9,245.6z"/>
<path class="st3" d="M564.6,269.9H407.4c-1,0-1.9-1-1.9-2.3s0.8-2.3,1.9-2.3h157.2c1,0,1.9,1,1.9,2.3S565.7,269.9,564.6,269.9z"/>
<path class="st3" d="M565,294.7H407.7c-1,0-1.9-1-1.9-2.3s0.8-2.3,1.9-2.3H565c1,0,1.9,1,1.9,2.3S566.1,294.7,565,294.7z"/>
<path class="st4" d="M648.8,194.3h-53.1c-1.2,0-2.3-1-2.3-2.3s1-2.3,2.3-2.3l0,0h53.1c1.2,0,2.3,1,2.3,2.3S650.1,194.3,648.8,194.3z
	"/>
<path class="st5" d="M648.8,268.1h-53.1c-1.2,0-2.3-1-2.3-2.3s1-2.3,2.3-2.3l0,0h53.1c1.2,0,2.3,1,2.3,2.3S650.1,268.1,648.8,268.1z
	"/>
<path class="st4" d="M648.8,292.4h-53.1c-1.2,0-2.3-1-2.3-2.2s1-2.3,2.2-2.3l0,0h53.1c1.2,0,2.3,1,2.3,2.2S650.1,292.4,648.8,292.4
	C648.9,292.4,648.8,292.4,648.8,292.4z"/>
<path class="st5" d="M738,294.2h-53.1c-1.2,0-2.2-1-2.2-2.3c0-1.2,1-2.2,2.2-2.2H738c1.2,0,2.3,1,2.3,2.2S739.3,294.2,738,294.2
	L738,294.2z"/>
<path class="st6" d="M430,220.4h-53.1c-1.2,0-2.3-1-2.3-2.3s1-2.3,2.3-2.3l0,0H430c1.2,0,2.3,1,2.3,2.3S431.2,220.4,430,220.4z"/>
<path class="st3" d="M563.7,560.4H406.4c-1,0-1.9-1-1.9-2.3c0-1.2,0.8-2.3,1.9-2.3l0,0h157.2c1,0,1.9,1,1.9,2.3
	S564.7,560.4,563.7,560.4z"/>
<path class="st3" d="M562.9,609.9H405.6c-1,0-1.9-1-1.9-2.3c0-1.2,0.8-2.3,1.9-2.3l0,0h157.3c1,0,1.9,1,1.9,2.3
	C564.8,608.9,564,609.9,562.9,609.9z"/>
<path class="st3" d="M563.3,634.7H406c-1,0-1.9-1-1.9-2.3c0-1.2,0.8-2.3,1.9-2.3l0,0h157.2c1,0,1.9,1,1.9,2.3
	C565.2,633.6,564.4,634.7,563.3,634.7z"/>
<path class="st4" d="M641.9,610.3h-53.1c-1.2,0-2.3-1-2.3-2.3c0-1.2,1-2.3,2.3-2.3h53.1c1.2,0,2.3,1,2.3,2.3
	C644.1,609.3,643.1,610.3,641.9,610.3L641.9,610.3z"/>
<path class="st5" d="M641.9,634.7h-53.1c-1.2,0-2.3-1-2.3-2.3c0-1.2,1-2.3,2.3-2.3h53.1c1.2,0,2.3,1,2.3,2.3
	C644.1,633.6,643.1,634.7,641.9,634.7L641.9,634.7z"/>
<path class="st5" d="M731,610.3h-53.1c-1.2,0-2.3-1-2.3-2.3c0-1.2,1-2.3,2.3-2.3H731c1.2,0,2.3,1,2.3,2.3S732.3,610.3,731,610.3z"/>
<path class="st3" d="M766.1,585.1H474.4c-1.2,0-2.3-1-2.3-2.3c0-1.2,1-2.3,2.3-2.3h291.8c1.2,0,2.3,1,2.3,2.3
	C768.4,584.1,767.4,585.1,766.1,585.1z"/>
<path class="st6" d="M430.2,585.1h-53.1c-1.2,0-2.3-1-2.3-2.3c0-1.2,1-2.3,2.3-2.3l0,0h53.1c1.2,0,2.3,1,2.3,2.3
	S431.5,585.1,430.2,585.1z"/>
<path class="st3" d="M766.1,659.9H474.4c-1.2,0-2.3-1-2.3-2.3c0-1.2,1-2.3,2.3-2.3h291.8c1.2,0,2.3,1,2.3,2.3
	C768.4,658.9,767.4,659.9,766.1,659.9L766.1,659.9z"/>
<path class="st6" d="M430.2,659.9h-53.1c-1.2,0-2.3-1-2.3-2.3c0-1.2,1-2.3,2.3-2.3l0,0h53.1c1.2,0,2.3,1,2.3,2.3
	S431.5,659.9,430.2,659.9z"/>
<polygon class="st6" points="518.3,354.1 446.2,425.3 518.3,496.4 534.5,480.2 480,425.7 534.9,370.8 "/>
<polygon class="st6" points="624.5,354.1 696.6,425.3 624.5,496.4 608.3,480.2 662.8,425.7 607.9,370.8 "/>
<rect x="321.2" y="145" class="st1" width="939" height="3"/>
<path class="st6" d="M1500,560.5c0,63.8-37.9,86-84.7,86s-84.7-22.3-84.7-86s84.7-144.9,84.7-144.9S1500,496.7,1500,560.5z"/>
<polygon class="st5" points="1412.2,636.7 1413.1,583.4 1449.2,517.3 1413.2,575 1413.6,551 1438.5,503.2 1413.7,544.6 
	1413.7,544.6 1414.4,501.5 1441.1,463.5 1414.5,494.7 1415,415.6 1412.2,520.3 1412.5,516 1385.4,474.6 1412,524.3 1409.5,572.5 
	1409.4,571.2 1378.2,527.6 1409.3,575.7 1409,581.8 1409,581.9 1409,582.4 1402.6,704.7 1411.1,704.7 1412.2,641.5 1443.2,593.5 "/>
<path class="st6" d="M151.8,775.4c-1.7,2.4-3.7,4.7-5.8,6.7c-4,3.5-9.1,5.4-13.2,8.7c-1.7,1.4-3.3,3.3-3,5.4
	c0.2,1.6,1.4,2.8,2.5,3.9c12.4,12.5,23.1,26.9,37.8,36.5c6.2,4,12.9,7.1,20,9.2c3.4,1,7.1,1.7,10.2-0.7c1.4-1.1,2.4-2.7,2.7-4.5
	c0.4-2.7-0.6-5.2-2.5-6.8c-1.5-1.3-3.5-1.9-5.1-3c-1.9-1.5-3.5-3.4-4.7-5.5c-3.9-6-7.9-12.3-8.6-19.4c-0.5-4.8,0.6-9.6,1.1-14.3
	c0.5-4.8,0.3-9.9-2.3-14c-1.8-2.8-4.5-4.8-7.2-6.6s-9-7.2-12.5-6.6C157.5,765.1,153.9,772.6,151.8,775.4z"/>
<path class="st6" d="M215.1,808.5c0.1,1.6-0.2,3.2-0.7,4.7c-1.1,2.8-3.7,4.7-5,7.4c-1.9,3.7-1,8.2,0.2,12.1c0.8,2.5,1.8,5.1,3.9,6.6
	c1.8,1.1,3.8,1.8,6,1.9c18,2.5,36.4,1.1,54.6,1.6c3.3,0.1,6.8,0.2,9.7-1.4s4.7-5.7,2.7-8.4c-1.8-2.4-5.3-2.4-8.2-2.5
	c-7.8-0.4-15.1-3.4-20.9-8.6c-1.1-1-2.1-2.1-2.9-3.4c-0.6-1.1-1.1-2.3-1.5-3.5c-2.6-6.9-5.6-13.6-9.1-20.1c-1-1.8-2.1-3.7-3.9-4.7
	c-1.3-0.6-2.8-0.9-4.2-0.9c-4.5-0.3-16.3-1.8-19.8,1.7C212.6,794.3,215.1,804.4,215.1,808.5z"/>
<ellipse class="st7" cx="243" cy="376.7" rx="29" ry="29"/>
<path class="st7" d="M216.8,400.6c-1.7,4.6-4.6,8.9-8.9,11.4l40.1,8.2c-1.5-5.8-1.6-11.9-0.6-17.9c0.4-1.4,0.5-2.9,0.2-4.4
	c-0.8-2.9-4-4.3-7-5c-7.3-1.7-13.8-2.6-20.6-5.8C218,390.8,218.3,396.5,216.8,400.6z"/>
<path class="st0" d="M207.6,401.2c8.7-4,18.8-3.7,27.3,0.7c5.1,2.7,9.4,6.8,13.6,10.8c3.9,3.7,8,8,8.2,13.3c0.1,2.6-0.7,5.1-1.1,7.7
	c-1.5,10.9-3.7,16.6,2.2,24.8c3.2,5.3,7.1,17.7,7.1,23.9c0.2,23.4-2,40.5,2.1,62.6c1.2,5.4,0.3,9.8,1.4,15.2
	c1.4,7,0.5,13.8,1.3,20.9c0.8,7.7-0.4,18.4,2.2,25.7c-1.7,2.8-7.6-0.1-10.9-0.3s-5.7-3.5-8.6-5c-14.1-7.2-14.5-10-29.2-16.1
	c-9.7-4.1-20-6.6-29.4-11.3s-18.1-12.1-21-22.2c-1.2-4.4-1.3-9-1.4-13.5c-0.3-19.1-0.6-38.4,3.6-57.1c3.7-16.5,10.7-32.2,12.3-49
	c0.5-5.5,0.5-11.3,3.6-15.9C195.2,410,204.5,408.4,207.6,401.2z"/>
<path class="st8" d="M226.5,377.1c1.7-2.2,5-2.5,7.7-1.9s5.2,2.1,8,2.6c1.3,0.4,2.6,0.2,3.7-0.5c1-0.9,1.5-2.2,1.6-3.6
	c1-5.7,1.2-11.6,0.7-17.4c-0.1-0.8-0.1-1.6,0.2-2.4c0.7-1.6,2.8-2,4.5-2.6c5.8-1.9,9.5-7.6,9-13.6c0-1.4-0.6-2.8-1.7-3.7
	c-1.2-1-2.8-1-4.3-1c-7.8-0.1-15.6-0.1-23.4,0c-2.9,0-5.9,0.1-8.4,1.5c-1.8,1.1-3.2,2.8-4.9,4.1c-4.3,3.5-10.2,4.2-15.4,6
	c-2.6,0.7-4.9,2.1-6.8,4c-1.8,2-2.6,5-1.5,7.4c0.6,1,1.2,2,1.9,2.9c3.1,5,1,11.4,1.5,17.2c0.6,7.3,11.4,19.1,18.7,20.8
	C229.4,399.8,222.6,381.9,226.5,377.1z"/>
<path class="st9" d="M210.1,696.7c0.7,5.3,1.7,10.7,1.4,16c-0.4,7.5-3.1,14.7-3.6,22.2c-0.4,5.6,0.5,11.2-0.3,16.8
	c-0.5,3.6-1.7,7-2.4,10.5c-2.3,11.6,0.2,23.6,7,33.3c0.5,0.8,1.2,1.5,2,2c0.8,0.3,1.7,0.4,2.5,0.3c8.4-0.2,16.8-0.9,25.2-2.3
	c0.6,0,1.2-0.3,1.6-0.7c0.2-0.3,0.3-0.6,0.4-1c1.5-7.9-2-15.9-2.9-23.9c-1-8.6,1.1-17.2,3.1-25.6c0.9-4.1,2.1-8.2,3.5-12.2
	c1-2.7,2.2-5.3,3-8.1c1.2-4.3,2-8.7,2.2-13.2c0.6-7.1,0.9-14.1,0.9-21.2c0.2-6.7-0.4-13.4-1.7-20c-1.9-8.3-5.7-16.1-9.5-23.7
	c-2,0.5-4,1.4-5.6,2.7c-4.9,3.2-10,6-15.4,8.5c-3.6,1.7-10.5,2.8-12.8,6.3c-2.2,3.4-0.8,10.4-0.6,14.1
	C208.6,683.9,209.2,690.3,210.1,696.7z"/>
<path class="st1" d="M210.1,696.7c0.7,5.3,1.7,10.7,1.4,16c-0.4,7.5-3.1,14.7-3.6,22.2c-0.4,5.6,0.5,11.2-0.3,16.8
	c-0.5,3.6-1.7,7-2.4,10.5c-2.3,11.6,0.2,23.6,7,33.3c0.5,0.8,1.2,1.5,2,2c0.8,0.3,1.7,0.4,2.5,0.3c8.4-0.2,16.8-0.9,25.2-2.3
	c0.6,0,1.2-0.3,1.6-0.7c0.2-0.3,0.3-0.6,0.4-1c1.5-7.9-2-15.9-2.9-23.9c-1-8.6,1.1-17.2,3.1-25.6c0.9-4.1,2.1-8.2,3.5-12.2
	c1-2.7,2.2-5.3,3-8.1c1.2-4.3,2-8.7,2.2-13.2c0.6-7.1,0.9-14.1,0.9-21.2c0.2-6.7-0.4-13.4-1.7-20c-1.9-8.3-5.7-16.1-9.5-23.7
	c-2,0.5-4,1.4-5.6,2.7c-4.9,3.2-10,6-15.4,8.5c-3.6,1.7-10.5,2.8-12.8,6.3c-2.2,3.4-0.8,10.4-0.6,14.1
	C208.6,683.9,209.2,690.3,210.1,696.7z"/>
<path class="st9" d="M183.1,585.5c-8-0.8-14.2,6.9-11.8,14.5c1.6,5,4,9.8,6.3,14.5c12.1,24.4,20.5,50.4,28.9,76.3
	c0.6,1.9,1.3,4.1,0.6,6c-0.6,1.4-1.3,7.4-2.6,8.2c-2.3,7.3,0,3.9-4.6,11.3c-4.7,4.8-2.4,4.3-7.9,9.8c-5,3.1-9.6,6.6-14.3,10.2
	l-11.9,12.6c-1,0.6-4.5,5.8-5.2,6.7c-1.4,2.2-4.1,6.7-1.1,9.3c3.1,6.4,2.9,4.9,9.1,11.4c1.6,1.5,2.9,1.8,4.1,2.6
	c2.3,1.2,8,7.8,9.8,5.8s2.2-2.9,4.3-4.3c2.5-0.8,2.1-2.4,4.7-5.8c2.6-3.4,6.2-5.9,9.2-8.9c12.3-12,14.9-12.8,28.5-23.2
	c0.2-0.2,3.7-3.4,3.9-3.6c1.7-1.5,1.4-3,3.3-4.3c0.3-0.2,2.7-4.5,3.1-4.7c2.2-1.2,2.5-6,4.7-7.1c4.5-10.3,1.7-7.2,4.2-15
	s3.1-15.9,4.9-23.9c0.9-4.1,2.1-8.2,2.5-12.3c0.3-3.9,0.2-7.8-0.3-11.7l-4.9-60.7c-0.1-1.4-0.2-2.8-0.3-4.1
	c-0.5-6-5.6-10.5-11.6-10.3c-11.1,0.4-22.2,0.8-33.3,0.9C198,585.8,190.5,586.2,183.1,585.5z"/>
<path class="st0" d="M165.6,597.2c2,3.2,6.8,3.1,10.1,1.4s5.9-4.7,9.2-6.4c4.5-2.3,9.7-2.2,14.8-2.1c8,0.2,16,0.5,23.7,2.6
	c7.9,2.3,15.6,6.6,23.8,5.7c1.4-0.2,3-0.6,3.8-1.8c0.5-0.9,0.7-1.9,0.6-2.8l0.3-7.2c0.2-1.2,0-2.5-0.6-3.6c-0.7-0.9-1.6-1.7-2.7-2.1
	c-11.7-5.6-25-6.7-37.9-7.1c-6.6-0.2-13.2-0.3-19.8-0.3c-5.6,0-12.3-0.8-17.7,0.7C165.9,576.3,161.9,591.3,165.6,597.2z"/>
<path class="st6" d="M238.8,409.7c-15.3-0.1-29.1-10.2-44.4-10.5c-1.8-0.1-3.7,0.2-5.4,0.9c-2.1,1.1-3.5,3.1-5.1,4.9
	c-4.5,4.9-11.1,7.5-15.7,12.3c-4.4,4.5-6.8,11.1-5.1,17.2s8.2,10.6,14.3,9.2c2.4-7.9,7.5-14.8,14.3-19.5c3.6-2.3,7.3-4.2,11.2-5.9
	c6.9-3.1,14.5-6.3,21.7-4c2.6,1,5.1,2.4,7.4,4l12,8C242.6,420.9,241.4,414.8,238.8,409.7z"/>
<path class="st6" d="M175.6,438.4c-2,2.5,4.7,7.2,4.3,10.4c-0.3,2.1-2.1,3.8-2.8,5.8c-0.8,2.1-0.4,4.4-0.6,6.6
	c-0.3,1.6-0.7,3.2-1.3,4.7c-1.3,4.6-2.2,9.3-2.7,14l-2.7,20c-0.5,3-0.7,6-0.8,9.1c0.1,2.3,0,4.6-0.5,6.8c-0.6,2.2-0.3,1.8-0.8,5.5
	c-0.3,2.2-1.7,4.7-2.1,7.2c-0.3,6.7-1.8,6.7-2.4,14.2c0.5,0.7,0.9,1.4,1.2,2.3c0.2,1.1,0,2.3-0.5,3.3l-1,4.3c-0.7,1.8-2.1,4.9-0.7,8
	c-1.6,1.7-2.8,3.6-3.7,5.8c-0.8,2.2-0.4,4.6,1,6.5c0.7,0.6,1.2,1.3,1.7,2.1c0.3,1.1,0.2,2.2-0.2,3.2c-0.8,3.2-0.3,6.6,1.5,9.3
	c1.8,2.8,1.3,3.2,4.6,2.6c5.4-1.2,10.3-3.1,15.7-2.1c11.7,2.2,23.5,4.3,34.9,8c13,4.1,25.6,10.2,39.1,11.5c0.9,0.2,1.8,0,2.6-0.4
	c0.7-0.7,1.1-1.5,1.2-2.5c1.4-6.6,1-13.2,2.4-19.7c1.7-7.3,0.7-13.7,1.5-21.1c0.5-4.8,0.4-10.8,0.5-15.6l-2.3-37.5
	c-0.4-6.2-0.4-13.4-1-19.1l0.3-17.7c-3.5-11.3-11.7-21.4-14.6-32.9c-1.8-7.3-3.2-15.1-8.1-20.8c-7-8.1-19.1-9.4-29.8-8
	c-4.8,0.6-9.6,1.7-13.8,4.2c-4.8,2.9-8.3,7.4-11.8,11.8C181.4,431.8,178.5,434.8,175.6,438.4z"/>
<path class="st7" d="M200.4,550.8c0.9,3.8,2.7,7.3,3.8,11c1.9,6.2,1.7,12.9,3.6,19.1c0.8,2.6,1.9,5.1,2.5,7.8
	c1.3,6.2-0.6,12.6-3,18.5s-5.3,11.7-6.1,18c-0.5,4.4,0.2,9.5,3.7,12.3c3.6,3,8.7,2.8,13.3,2.4c1.7,0,3.3-0.4,4.8-1
	c3.5-1.7,5-5.9,5.9-9.7c2.8-12.8,2-26.1,1.2-39.2l-2.1-34.2c-0.4-6.6-0.8-13.3-2.9-19.6c-0.7-2.3-2-7-4.1-8.4
	c-2.1-1.5-8-1.5-10.6-1.6C198.3,525.5,198.5,542.4,200.4,550.8z"/>
<path class="st10" d="M212.8,425.4c-2.5-1.3-5.6-0.7-8,0.7c-2.3,1.6-4.3,3.5-6,5.8c-5.3,6.5-11,14-10.2,22.4
	c0.3,3.1,1.5,6.1,2.3,9.2c3.6,13.4-0.4,27.5,0.1,41.4c0.3,8,2,15.9,3.7,23.7c0.4,1.6,0.9,3.4,2.5,4c1.2,0.4,2.4-0.1,3.6-0.6
	c8.7-3.2,18.4-2,26,3.3c2.9-1.5,1.8-6.4,1.1-9.5c-1.9-9.5,0.7-19.2,3.8-28.3s6.9-18.2,7.4-27.9c0.6-10.9-3-21.6-6.6-31.9
	c-0.8-2.3-1.6-4.6-3.4-6.2c-1.5-1.2-3.3-2-5.2-2.4C220.2,427.9,216.4,427.3,212.8,425.4z"/>
<path class="st6" d="M213.8,424.4c-2.5-1.3-5.6-0.7-8,0.7c-2.3,1.6-4.3,3.5-6,5.8c-5.3,6.5-11,14-10.2,22.4c0.3,3.1,1.5,6.1,2.3,9.2
	c3.6,13.4-0.4,27.5,0.1,41.4c0.3,8,2,15.9,3.7,23.7c0.4,1.6,0.9,3.4,2.5,4c1.2,0.4,2.4-0.1,3.6-0.6c8.7-3.2,18.4-2,26,3.3
	c2.9-1.5,1.8-6.4,1.1-9.5c-1.9-9.5,0.7-19.2,3.8-28.3s6.9-18.2,7.4-27.9c0.6-10.9-3-21.6-6.6-31.9c-0.8-2.3-1.6-4.6-3.4-6.2
	c-1.5-1.2-3.3-2-5.2-2.4C221.2,426.9,217.4,426.3,213.8,424.4z"/>
<path class="st3" d="M1195.7,194.3H903.9c-1.2,0-2.3-1-2.3-2.3s1-2.3,2.3-2.3l0,0h291.8c1.2,0,2.3,1,2.3,2.3
	S1197,194.3,1195.7,194.3z"/>
<path class="st3" d="M994,219.1H833.6c-1,0-2-1-2-2.3s0.9-2.3,2-2.3H994c1,0,2,1,2,2.3S995.1,219.1,994,219.1z"/>
<path class="st3" d="M1195.7,219.5h-185.5c-1.2,0-2.3-1-2.3-2.3s1-2.3,2.3-2.3h185.5c1.2,0,2.3,1,2.3,2.3S1197,219.5,1195.7,219.5z"
	/>
<path class="st3" d="M994.4,243.8H834c-1,0-2-1-2-2.3s0.9-2.3,2-2.3h160.4c1,0,2,1,2,2.3S995.5,243.8,994.4,243.8z"/>
<path class="st3" d="M994.8,268.6H834.4c-1,0-2-1-2-2.3s0.9-2.3,2-2.3h160.4c1,0,2,1,2,2.3S995.9,268.6,994.8,268.6z"/>
<path class="st5" d="M1078.6,242h-53.1c-1.2,0-2.3-1-2.3-2.3s1-2.3,2.3-2.3l0,0h53.1c1.2,0,2.3,1,2.3,2.3S1079.9,242,1078.6,242z"/>
<path class="st4" d="M1078.6,266.3h-53.1c-1.2,0-2.3-1-2.3-2.2s1-2.3,2.2-2.3l0,0h53.1c1.2,0,2.3,1,2.3,2.2
	S1079.9,266.3,1078.6,266.3C1078.7,266.3,1078.6,266.3,1078.6,266.3z"/>
<path class="st5" d="M1167.8,268.1h-53.1c-1.2,0-2.2-1-2.2-2.3c0-1.2,1-2.2,2.2-2.2h53.1c1.2,0,2.3,1,2.3,2.2
	S1169.1,268.1,1167.8,268.1L1167.8,268.1z"/>
<path class="st6" d="M859.8,194.3h-53.1c-1.2,0-2.3-1-2.3-2.3s1-2.3,2.3-2.3l0,0h53.1c1.2,0,2.3,1,2.3,2.3S861,194.3,859.8,194.3z"
	/>
<path class="st3" d="M965.1,425.7H832.7c-0.9,0-1.6-1-1.6-2.3c0-1.2,0.7-2.3,1.6-2.3l0,0H965c0.9,0,1.6,1,1.6,2.3
	S965.9,425.7,965.1,425.7z"/>
<path class="st3" d="M992.7,350.5H832.2c-1,0-2-1-2-2.3c0-1.2,0.9-2.3,2-2.3l0,0h160.5c1,0,2,1,2,2.3
	C994.6,349.5,993.7,350.5,992.7,350.5z"/>
<path class="st3" d="M993,375.3H832.7c-1,0-2-1-2-2.3c0-1.2,0.9-2.3,2-2.3l0,0H993c1,0,2,1,2,2.3C995,374.2,994.2,375.3,993,375.3z"
	/>
<path class="st4" d="M1071.7,350.9h-53.1c-1.2,0-2.3-1-2.3-2.3c0-1.2,1-2.3,2.3-2.3h53.1c1.2,0,2.3,1,2.3,2.3
	C1073.9,349.9,1072.9,350.9,1071.7,350.9L1071.7,350.9z"/>
<path class="st5" d="M1071.7,375.3h-53.1c-1.2,0-2.3-1-2.3-2.3c0-1.2,1-2.3,2.3-2.3h53.1c1.2,0,2.3,1,2.3,2.3
	C1073.9,374.2,1072.9,375.3,1071.7,375.3L1071.7,375.3z"/>
<path class="st5" d="M1160.8,350.9h-53.1c-1.2,0-2.3-1-2.3-2.3c0-1.2,1-2.3,2.3-2.3h53.1c1.2,0,2.3,1,2.3,2.3
	S1162.1,350.9,1160.8,350.9z"/>
<path class="st3" d="M1195.9,325.7H904.2c-1.2,0-2.3-1-2.3-2.3c0-1.2,1-2.3,2.3-2.3H1196c1.2,0,2.3,1,2.3,2.3
	C1198.2,324.7,1197.2,325.7,1195.9,325.7z"/>
<path class="st6" d="M860,325.7h-53.1c-1.2,0-2.3-1-2.3-2.3c0-1.2,1-2.3,2.3-2.3l0,0H860c1.2,0,2.3,1,2.3,2.3S861.3,325.7,860,325.7
	z"/>
<path class="st3" d="M1195.9,400.5H904.2c-1.2,0-2.3-1-2.3-2.3c0-1.2,1-2.3,2.3-2.3H1196c1.2,0,2.3,1,2.3,2.3
	C1198.2,399.5,1197.2,400.5,1195.9,400.5L1195.9,400.5z"/>
<path class="st6" d="M860,400.5h-53.1c-1.2,0-2.3-1-2.3-2.3c0-1.2,1-2.3,2.3-2.3l0,0H860c1.2,0,2.3,1,2.3,2.3S861.3,400.5,860,400.5
	z"/>
<path class="st6" d="M860,450.9h-53.1c-1.2,0-2.3-1-2.3-2.3c0-1.2,1-2.3,2.3-2.3l0,0H860c1.2,0,2.3,1,2.3,2.3S861.3,450.9,860,450.9
	z"/>
<path class="st3" d="M1036,450.9H903.6c-0.9,0-1.6-1-1.6-2.3c0-1.2,0.7-2.3,1.6-2.3l0,0H1036c0.9,0,1.6,1,1.6,2.3
	S1036.9,450.9,1036,450.9z"/>
<path class="st3" d="M996,481.7H835.5c-1,0-2-1-2-2.3c0-1.2,0.9-2.3,2-2.3l0,0H996c1,0,2,1,2,2.3C997.9,480.7,997,481.7,996,481.7z"
	/>
<path class="st3" d="M996.3,506.5H835.9c-1,0-2-1-2-2.3c0-1.2,0.9-2.3,2-2.3l0,0h160.4c1,0,2,1,2,2.3
	C998.3,505.4,997.4,506.5,996.3,506.5z"/>
<path class="st4" d="M1075,482.1h-53.1c-1.2,0-2.3-1-2.3-2.3c0-1.2,1-2.3,2.3-2.3h53.1c1.2,0,2.3,1,2.3,2.3
	C1077.2,481.1,1076.2,482.1,1075,482.1L1075,482.1z"/>
<path class="st5" d="M1075,506.5h-53.1c-1.2,0-2.3-1-2.3-2.3c0-1.2,1-2.3,2.3-2.3h53.1c1.2,0,2.3,1,2.3,2.3
	C1077.2,505.4,1076.2,506.5,1075,506.5L1075,506.5z"/>
<path class="st11" d="M1164.1,482.1H1111c-1.2,0-2.3-1-2.3-2.3c0-1.2,1-2.3,2.3-2.3h53.1c1.2,0,2.3,1,2.3,2.3
	S1165.4,482.1,1164.1,482.1z"/>
<path class="st6" d="M889.3,531.3h-53.1c-1.2,0-2.3-1-2.3-2.3c0-1.2,1-2.3,2.3-2.3l0,0h53.1c1.2,0,2.3,1,2.3,2.3
	S890.6,531.3,889.3,531.3z"/>
<path class="st3" d="M1065.3,531.3H932.9c-0.9,0-1.6-1-1.6-2.3c0-1.2,0.7-2.3,1.6-2.3l0,0h132.4c0.9,0,1.6,1,1.6,2.3
	S1066.2,531.3,1065.3,531.3z"/>
<path class="st3" d="M1010.2,554.6H868.1c-0.9,0-1.8-1-1.8-2.3c0-1.2,0.8-2.3,1.8-2.3l0,0h142.1c0.9,0,1.8,1,1.8,2.3
	C1011.9,553.6,1011.1,554.6,1010.2,554.6z"/>
<path class="st12" d="M1087.3,554.6h-53.1c-1.2,0-2.3-1-2.3-2.3c0-1.2,1-2.3,2.3-2.3h53.1c1.2,0,2.3,1,2.3,2.3
	C1089.5,553.6,1088.5,554.6,1087.3,554.6L1087.3,554.6z"/>
<ellipse class="st4" cx="1165.3" cy="625" rx="59.3" ry="67.2"/>
<path class="st13" d="M1191.3,503.4l-89,2.7c0,0-91.3,85.7-26.2,109c0,0,92.7,4,111.9-11C1187.9,604.1,1211.9,509.5,1191.3,503.4z
	 M1187.2,528.8l-95.3,6.1c0,0,6.9-23.3,34.2-23.3c27.5,0,58.2-6.1,60.9,8.2C1189.9,534.2,1187.2,528.8,1187.2,528.8L1187.2,528.8z"
	/>
<path class="st4" d="M1282.4,557.5l-117.1-4.2l27.5-115.7c0,0,109.6-8.2,106.9,19.9C1296.9,485.6,1282.4,557.5,1282.4,557.5z"/>
<path class="st14" d="M1169.3,612.9c0,0-70.5,12.5-95.8-24.5s95.9-17.2,95.9-17.2l10.3,28.1L1169.3,612.9z"/>
<circle class="st4" cx="1148.1" cy="737.6" r="32.2"/>
<ellipse class="st13" cx="1151.3" cy="737.6" rx="20.2" ry="23.3"/>
<path class="st13" d="M1324.2,434.2c0,0-26.7-15.1-28.1,20.6l-22.6,165.8h9.6l26-177.4c0,0,13,2.1,15.1,2.1
	C1326.3,445.2,1324.2,434.2,1324.2,434.2z"/>
<path class="st4" d="M1350.8,452.5L1350.8,452.5c-1,3.4-4.5,5.4-7.9,4.5c-0.3-0.1-0.5-0.2-0.8-0.3l-31-13.2l5.6-12.4l30.5,13.9
	C1350.1,446.3,1351.7,449.5,1350.8,452.5z"/>
<path class="st13" d="M1162.6,608.9c0,0-49.3-5.5-63,41.8s-12.4,83.6-24,80.8c-11.6-2.7-36.3-12.4-36.3-12.4l2.1,14.4
	c0,0,43.2,21.9,50-1.4c6.9-23.3,10.9-108.9,50-106.9c39,2.1,45.9-2.1,45.9-2.1L1162.6,608.9z"/>
<path class="st13" d="M1068.7,586.3c0,0-38.4,4.8-53.5,32.9c-15.1,28.1-22.6,78.7-22.6,78.7h14.4c0,0,8.2-100.7,51.4-95.3
	L1068.7,586.3z"/>
<path class="st15" d="M1042.7,743.1l-60.9-37.6c0,0-3.4-13.7,35.7-19.1c0,0,73.8,25.8,66.7,35.5
	C1076.9,731.5,1053,746.5,1042.7,743.1z"/>
<path class="st16" d="M1155.9,526.6c1.9,2.1,36.4,34.9,36.4,34.9s-3.4,23-40.4,25.8l-61.6,4.7c0,0-11.6,42.8-25.5,56.4
	c-13.9,13.7-7.4,14.4-12.7,21.1c-5.2,6.7,2.1,8.4-5.8,9.1c-7.9,0.7-24.2-8.9-24.4-16.3c-0.2-7.3,4.4-11.6,6.5-13.5
	s7.2-19.8,10.4-23.6c3.1-3.8,14.9-49.4,14.9-49.4s11.7-22.1,28-23.8s34.5-9.7,34.5-9.7"/>
<path class="st1" d="M1155.9,526.6c1.9,2.1,36.4,34.9,36.4,34.9s-3.4,23-40.4,25.8l-61.6,4.7c0,0-11.6,42.8-25.5,56.4
	c-13.9,13.7-7.4,14.4-12.7,21.1c-5.2,6.7,2.1,8.4-5.8,9.1c-7.9,0.7-24.2-8.9-24.4-16.3c-0.2-7.3,4.4-11.6,6.5-13.5
	s7.2-19.8,10.4-23.6c3.1-3.8,14.9-49.4,14.9-49.4s11.7-22.1,28-23.8s34.5-9.7,34.5-9.7"/>
<path class="st17" d="M1096.1,416.9c0,0-13-35.2-21.9-24c-8.9,11.3,14.3,29.6,14.3,29.6L1096.1,416.9z"/>
<path class="st5" d="M1164.4,435.3l-7.3-3.2c0,0-12.6,9.6-14.4,12.1c-0.8,1,1.1-0.8-4.3,4.6c-4.2,4.2-19.9,9-21.8,10
	c-2,1.1-23.8-37.6-18.6-43.2c0,0-9.8,3.5-14.2,2.2c0,0,11.2,53.9,12.8,61.2c1.6,7.3,5.7,8.2,13,8.4c7.3,0.2,52.2-12.9,52.2-12.9
	L1164.4,435.3z"/>
<path class="st4" d="M1048.9,667.2c0,0-0.3,7.7,0.9,8.5c1.3,0.9,9.2,19.5-3,21.3c-12.1,1.7-18.8-0.5-21.8,0.4s-51.4-3.1-51.1-10.7
	s24.6-5.7,24.6-5.7s24.1-11.4,28.5-18.4C1031.6,655.7,1048.9,667.2,1048.9,667.2z"/>
<path class="st1" d="M1048.9,667.2c0,0-0.3,7.7,0.9,8.5c1.3,0.9,9.2,19.5-3,21.3c-12.1,1.7-18.8-0.5-21.8,0.4s-51.4-3.1-51.1-10.7
	s24.6-5.7,24.6-5.7s24.1-11.4,28.5-18.4C1031.6,655.7,1048.9,667.2,1048.9,667.2z"/>
<path class="st4" d="M1074,707.6c0,0-7.3,32.2-12.8,31.8c-5.4-0.3-43.6-18.9-48.3-22.6c-6-4.7-5.8-13.1,1.1-11.4s26.5,0.2,29.9-3.4
	l8.5-9.1L1074,707.6z"/>
<path class="st16" d="M1149.5,529c2,1.9,63.5,54,63.5,54s-1.7,23.1-38.4,28.7l-61.1,9.2c0,0-8.5,43.4-21.3,58.1
	c-12.8,14.7-6.5,14.9-11.2,22c-4.7,7,2.7,8.3-5.1,9.5c-7.8,1.2-24.7-7.1-25.5-14.4c-0.8-7.3,3.6-11.9,5.5-13.9s5.8-20.3,8.6-24.3
	c2.8-4,11.3-50.4,11.3-50.4s10.1-22.9,26.2-25.8c16.1-3,33.6-12.1,33.6-12.1"/>
<ellipse class="st17" cx="1206.2" cy="386.8" rx="29.2" ry="29.2"/>
<path class="st17" d="M1221.4,405.1c0,0-4.4,17.8,2.3,26.9c6.7,9.1-44.5,4.8-44.5,4.8s13.9-28.9,8.7-35.7
	C1182.8,394.5,1221.4,405.1,1221.4,405.1z"/>
<path class="st5" d="M1156,433.1c-6.2,6.6-4,43.9-4,43.9l3.9,33.2c0,0-4.7,6-3.2,8.4s4,4.8-0.8,5.9c-4.8,1.1-16.1,3-12.5,8.2
	c1.2,1.5,2.4,3,3.7,4.3c1.1,1.2,2.5,2.6,4,4.2c3.6,3.6,8.2,8.1,13.3,12.9c1.4,1.3,3,2.7,4.5,4c19.5,17.6,43.6,36.2,48.7,27.3
	c8.4-15,14.2-17.2,13.8-29.9c-0.4-12.8,10.4-45.5,10.4-45.5s12.6-55.9-5.1-72.5l-2.7-4.4c-2.6-4.3-7.7-6.2-12.5-5.1
	c-8.6,2.1-21.9,4.9-27.6,4.5c-8.9-0.8-6.9-4.4-6.9-4.4S1162.1,426.5,1156,433.1z"/>
<path class="st17" d="M1128.7,552.3c0,0-36.1,9-30.7,21.5c5.2,12.6,36.5-10.4,36.5-10.4L1128.7,552.3z"/>
<path class="st18" d="M1221.5,391.3c-0.9-0.7-0.5-2.1-0.1-3.1c2.2-5.7,1.1-12.7-3.5-16.6c-1.8-1.4-3.9-2.5-6.2-2.9
	c-3.1-0.8-6.4-1.1-9.7-0.7c-1.7,0.4-3.4,0.4-5.1,0.2c-1.1-0.3-6.1-0.8-7.3-1.1c-2.5-0.5-5.4,0.6-7.3-1c-1.8-1.6-1.1-4.5-0.3-6.8
	c2-5.1,8.7-10.5,13.6-12.8c3.7-1.8,8.2-1.6,12.2-0.7c4.8,1.1,9.3,2.7,13.7,4.7c6,2.7,12,5.6,16.3,10.5c4.4,4.8,6.8,11.9,4.5,18
	c-0.5,1.2-1.1,2.5-1.5,3.8c-1,3.1-0.5,6.6-1,9.9c-0.7,4.9-3.5,9.2-7.6,12c-3.2,2.1-7.5,3.5-8.9,7.1l-2.5-6.4
	c-0.9-1.6-0.6-3.6,0.8-4.9l4-5.4c0.8-0.9,1.4-2.1,1.5-3.3C1227.3,387.1,1223,392.5,1221.5,391.3z"/>
<path class="st1" d="M1170.5,525.9l-23.4,15.3c4.6,4.7,10.9,10.7,17.7,17c6.5-3.5,13.1-7.3,19-11c21.7-13.9,40.2-48.9,48.6-65.7
	c8.3-16.8,1.5-30,1.5-30c-5.5-2.4-11.4-4-17.3-4.9C1206,444.9,1170.5,525.9,1170.5,525.9z"/>
<path class="st1" d="M1167.5,521.1l-24.4,16c1.1,1.2,2.5,2.6,4,4.2c3.6,3.6,8.2,8.1,13.3,12.9c6.9-3.7,14.1-7.8,20.3-11.8
	c21.7-13.9,40.2-48.9,48.6-65.7c8.3-17-14.1-10.8-14.1-10.8s11.6-5.2,0.8-6.9C1205.3,457.1,1167.5,521.1,1167.5,521.1z"/>
<path class="st5" d="M1233,448.5c0,0,6.8,13-1.5,30s-26.9,51.8-48.6,65.7s-52.7,27.6-52.7,27.6s-3-16.1-7.9-17.9l47.1-30.8
	c0,0,35.3-81,46.2-79.5C1221.7,444.3,1227.5,446,1233,448.5z"/>
<polygon class="st13" points="1137.2,620.5 1137.2,700.7 1146.2,700.7 1146.2,619.1 "/>
<path class="st4" d="M1150.2,669.8c0,0,17.2,67.2,6.1,76.7c0,0-14.4-42.4-25.4-37l3.4-39.7H1150.2z"/>
<path class="st13" d="M1283.6,523.9l-83.6,2.5c0,0-73.9,72-12.9,93.9c0,0,75.3,12.2,93.2-2C1280.4,618.5,1302.9,529.7,1283.6,523.9z
	 M1279.8,547.7l-89.5,5.7c0,0,6.5-21.9,32.1-21.9c25.6,0,54.6-5.7,57.2,7.7C1282.4,552.9,1279.8,547.7,1279.8,547.7L1279.8,547.7z"
	/>
<ellipse class="st4" cx="1262.8" cy="668.4" rx="89.4" ry="101.4"/>
<ellipse class="st13" cx="1267" cy="668.4" rx="67.5" ry="75.4"/>
<path class="st4" d="M1284.5,667.4c0-1.3-0.1-2.6-0.4-3.9l50.4-25.2l-3.4-7.5l-50.9,24.8c-0.5-0.5-1.1-1-1.6-1.4l0,0l14.9-74
	l-13.1-0.3l-8.7,72.9l0.9,0.2c-0.7,0.1-1.3,0.3-2,0.7l-44.2-45.3l-6.2,8.7l45.3,41.7c-1.1,2.2-1.9,4.6-2,7l-63.8,26l-1.4,10.9
	l66.5-28c0.7,1.5,1.5,3,2.6,4.2l-20.5,69.7h7.5l17.2-66.8c0.8,0.2,1.5,0.3,2.4,0.3c1.5,0,3.1-0.4,4.4-1.3l35.7,47.2l10.9-7.5
	l-41.9-45.7C1284,672.5,1284.5,669.9,1284.5,667.4z"/>
<path class="st6" d="M1379.8,728.5c0,16.5-9.8,22.3-21.9,22.3c-0.3,0-0.6,0-0.8,0c-0.6,0-1.1,0-1.7-0.1
	c-10.9-0.8-19.4-6.8-19.4-22.2c0-15.9,20.3-36,21.9-37.5l0,0c0.1-0.1,0.1-0.1,0.1-0.1S1379.8,712,1379.8,728.5z"/>
<path class="st5" d="M1357,748.3l8-11.2l-8,12.4v1.3c-0.6,0-1.1,0-1.7-0.1l0.9-16.5v-0.1l0,0l0.1-1.6l-8.1-12.5l8.1,11.3v0.3
	l0.7-12.5l-6.9-12.9l7,10.7l0.7-25.9v-0.1v0.1l-0.1,20.4l6.9-8.1l-6.9,9.9l-0.2,11.2l6.4-10.7l-6.4,12.4l-0.1,6.2l9.3-14.9
	l-9.4,17.1L1357,748.3z"/>
</svg>
