<?xml version="1.0" encoding="utf-8"?>
<!-- Generator: Adobe Illustrator 24.1.3, SVG Export Plug-In . SVG Version: 6.00 Build 0)  -->
<svg version="1.1" id="e7d62c2c-c7a6-4c77-8f5c-a3fe0c7ac473"
	 xmlns="http://www.w3.org/2000/svg" xmlns:xlink="http://www.w3.org/1999/xlink" x="0px" y="0px" viewBox="0 0 1000 600"
	 style="enable-background:new 0 0 1000 600;" xml:space="preserve">
<style type="text/css">
	.st0{opacity:0.1;fill:#33DED2;enable-background:new    ;}
	.st1{fill:#B3BEC4;}
	.st2{fill:#D1D8DB;}
	.st3{opacity:0.5;fill:#667C8A;enable-background:new    ;}
	.st4{fill:none;stroke:#2A314C;stroke-width:2;stroke-miterlimit:10;}
	.st5{fill:#5C39BC;}
	.st6{opacity:0.25;enable-background:new    ;}
	.st7{opacity:0.1;enable-background:new    ;}
	.st8{fill:#FFFFFF;}
	.st9{fill:#5C39BC;enable-background:new    ;}
	.st10{fill:#33DED2;enable-background:new    ;}
	.st11{fill:url(#SVGID_1_);}
	.st12{fill:url(#SVGID_2_);}
	.st13{fill:url(#SVGID_3_);}
	.st14{opacity:0.1;}
	.st15{fill:url(#SVGID_4_);}
	.st16{fill:url(#SVGID_5_);}
	.st17{fill:url(#SVGID_6_);}
	.st18{fill:url(#SVGID_7_);}
	.st19{fill:url(#SVGID_8_);}
	.st20{fill:url(#SVGID_9_);}
	.st21{fill:url(#SVGID_10_);}
	.st22{fill:url(#SVGID_11_);}
	.st23{fill:url(#SVGID_12_);}
	.st24{fill:url(#SVGID_13_);}
	.st25{fill:url(#SVGID_14_);}
	.st26{fill:url(#SVGID_15_);}
	.st27{fill:url(#SVGID_16_);}
	.st28{fill:url(#SVGID_17_);}
	.st29{fill:url(#SVGID_18_);}
	.st30{fill:url(#SVGID_19_);}
	.st31{fill:url(#SVGID_20_);}
	.st32{fill:url(#SVGID_21_);}
	.st33{fill:url(#SVGID_22_);}
	.st34{fill:url(#SVGID_23_);}
	.st35{fill:url(#SVGID_24_);}
	.st36{fill:url(#SVGID_25_);}
	.st37{fill:url(#SVGID_26_);}
	.st38{fill:url(#SVGID_27_);}
	.st39{fill:url(#SVGID_28_);}
	.st40{fill:url(#SVGID_29_);}
	.st41{fill:url(#SVGID_30_);}
	.st42{fill:url(#SVGID_31_);}
	.st43{fill:url(#SVGID_32_);}
	.st44{fill:url(#SVGID_33_);}
	.st45{fill:url(#SVGID_34_);}
	.st46{fill:url(#SVGID_35_);}
	.st47{fill:#EFB7B9;}
	.st48{fill:#33DED2;}
	.st49{fill:#667C8A;}
	.st50{fill:#E3787D;}
	.st51{opacity:0.5;fill:#33DED2;enable-background:new    ;}
	.st52{opacity:0.8;fill:#33DED2;enable-background:new    ;}
	.st53{opacity:0.5;fill:#5C39BC;enable-background:new    ;}
	.st54{opacity:0.8;fill:#5C39BC;enable-background:new    ;}
	.st55{opacity:0.8;}
	.st56{opacity:0.5;}
</style>
<path class="st0" d="M580.8,89.8c-62-1.7-120.9-17.5-177.3-34.7S291.4,18.7,230.8,9.6c-38.9-5.9-83.4-6.7-114.7,9.7
	C86,35.1,76.2,62.5,71,87.8c-3.9,19.1-6.2,39.2,4.6,57c7.5,12.4,20.8,22.8,30,34.7c32.1,41.3,9.4,92.3-25.3,132.7
	c-16.2,18.9-35.2,37-47.8,57.1s-18.4,43.2-7.4,63.8c10.9,20.4,36.9,35.7,65,46.4c57.2,21.9,124.4,28.1,190.1,31.7
	c145.4,7.8,291.5,4.4,437.1,1c54-1.3,108.1-2.5,161.2-9.1c29.4-3.7,59.8-9.5,81.2-23.5c27.1-17.8,33.8-47.9,15.7-70.2
	c-30.5-37.4-114.8-46.7-136.2-86.8c-11.8-22.1,0.3-46.7,17.4-67.2c36.6-43.9,98-82.5,101.1-132.7c2.3-34.5-27.2-69-72.9-85.4
	c-47.8-17.1-114.1-15-149.3,13.4C699.3,80.1,635.4,91.3,580.8,89.8z"/>
<rect x="33.7" y="91.8" class="st1" width="227.9" height="227.9"/>
<rect x="738.4" y="91.8" class="st1" width="227.9" height="227.9"/>
<rect x="193.1" y="151.5" class="st2" width="253.9" height="253.9"/>
<rect x="551.7" y="151.5" class="st2" width="253.9" height="253.9"/>
<rect x="56.5" y="132.3" class="st3" width="84.8" height="9.4"/>
<rect x="779.4" y="132.3" class="st3" width="84.8" height="9.4"/>
<path class="st4" d="M645,527c0,0,21.3-37.8,53.5-48.8c13.5-4.5,25.2-13.2,33.3-24.9c3.8-5.6,7.1-11.5,9.8-17.7"/>
<path class="st5" d="M762.1,428.5c-3.6,3.5-20.8,7.2-20.8,7.2s4.2-16.9,7.9-20.5c3.6-3.6,9.5-3.5,13.1,0.2
	C765.8,419.2,765.7,425,762.1,428.5L762.1,428.5z"/>
<path class="st5" d="M752.4,459.2c-5,1-21.3-5.2-21.3-5.2s12.8-12,17.7-13c5.1-0.9,9.8,2.5,10.7,7.6
	C760.4,453.5,757.2,458.2,752.4,459.2L752.4,459.2z"/>
<path class="st5" d="M717.3,492.4c-4.9-1.7-15.8-15.2-15.8-15.2s17-4,21.9-2.3s7.3,6.9,5.8,11.7C727.3,491.5,722,494.1,717.3,492.4z
	"/>
<path class="st5" d="M685,511.6c-5.1-0.9-18.2-12.4-18.2-12.4s16.1-6.7,21.2-5.9c5.1,0.8,8.5,5.5,7.7,10.6s-5.5,8.5-10.6,7.7
	C685.1,511.6,685.1,511.6,685,511.6z"/>
<path class="st5" d="M716.8,440.8c0,5.1,9.3,20,9.3,20s9.3-14.8,9.3-19.9s-4.2-9.3-9.3-9.3S716.8,435.8,716.8,440.8L716.8,440.8z"/>
<path class="st5" d="M679.4,463.6c1.6,4.9,14.8,16.3,14.8,16.3s4.4-16.9,2.8-21.8s-6.7-7.6-11.6-6.1
	C680.6,453.6,677.9,458.8,679.4,463.6L679.4,463.6z"/>
<path class="st5" d="M629.4,435.1c0.6,4.5,10.5,16.4,10.5,16.4s6.4-14.1,5.8-18.6c-0.6-4.5-4.7-7.6-9.2-7
	C631.9,426.5,628.8,430.6,629.4,435.1L629.4,435.1z"/>
<path class="st6" d="M762.1,428.5c-3.6,3.5-20.8,7.2-20.8,7.2s4.2-16.9,7.9-20.5c3.6-3.6,9.5-3.5,13.1,0.2
	C765.8,419.2,765.7,425,762.1,428.5L762.1,428.5z"/>
<path class="st6" d="M752.4,459.2c-5,1-21.3-5.2-21.3-5.2s12.8-12,17.7-13c5.1-0.9,9.8,2.5,10.7,7.6
	C760.4,453.5,757.2,458.2,752.4,459.2L752.4,459.2z"/>
<path class="st6" d="M717.3,492.4c-4.9-1.7-15.8-15.2-15.8-15.2s17-4,21.9-2.3s7.3,6.9,5.8,11.7C727.3,491.5,722,494.1,717.3,492.4z
	"/>
<path class="st6" d="M685,511.6c-5.1-0.9-18.2-12.4-18.2-12.4s16.1-6.7,21.2-5.9c5.1,0.8,8.5,5.5,7.7,10.6s-5.5,8.5-10.6,7.7
	C685.1,511.6,685.1,511.6,685,511.6z"/>
<path class="st6" d="M716.8,440.8c0,5.1,9.3,20,9.3,20s9.3-14.8,9.3-19.9s-4.2-9.3-9.3-9.3S716.8,435.8,716.8,440.8L716.8,440.8z"/>
<path class="st6" d="M679.4,463.6c1.6,4.9,14.8,16.3,14.8,16.3s4.4-16.9,2.8-21.8s-6.7-7.6-11.6-6.1
	C680.6,453.6,677.9,458.8,679.4,463.6L679.4,463.6z"/>
<path class="st6" d="M629.4,435.1c0.6,4.5,10.5,16.4,10.5,16.4s6.4-14.1,5.8-18.6c-0.6-4.5-4.7-7.6-9.2-7
	C631.9,426.5,628.8,430.6,629.4,435.1L629.4,435.1z"/>
<path class="st4" d="M646.3,526.2c0,0,4.2-43.2,29.2-66.3c10.5-9.6,17.7-22.3,20.4-36.3c1.2-6.7,1.8-13.4,1.8-20.2"/>
<path class="st5" d="M713.4,388.9c-1.9,4.7-16,15-16,15s-3-17.2-1.1-21.9c1.9-4.7,7.3-7,12.1-5.1S715.2,384.2,713.4,388.9
	L713.4,388.9L713.4,388.9z"/>
<path class="st5" d="M716.9,420.9c-4.2,2.9-21.6,4-21.6,4s6.8-16.1,10.9-19.1c4.3-2.8,10-1.6,12.9,2.6
	C721.8,412.4,720.9,417.9,716.9,420.9z"/>
<path class="st5" d="M698.3,465.5c-5.1,0.5-20.7-7.6-20.7-7.6s14-10.5,19.1-10.8c5.1-0.6,9.6,3.2,10.2,8.2c0.6,5.1-3.2,9.6-8.2,10.2
	C698.5,465.5,698.4,465.5,698.3,465.5z"/>
<path class="st5" d="M676.5,496c-5,1.2-21.6-4-21.6-4s12.1-12.6,16.9-14c5-1.1,9.9,1.9,11.2,6.9C684.2,489.7,681.3,494.7,676.5,496
	L676.5,496z"/>
<path class="st5" d="M677,418.4c2,4.6,16.5,14.4,16.5,14.4s2.5-17.3,0.5-22c-2-4.6-7.6-6.8-12.2-4.7C677,408.2,675,413.8,677,418.4
	L677,418.4z"/>
<path class="st5" d="M652,454.5c3.4,3.8,20.1,8.9,20.1,8.9s-2.8-17.4-6.2-21.2c-3.4-3.8-9.3-4.2-13.1-0.9S648.7,450.7,652,454.5
	L652,454.5L652,454.5z"/>
<path class="st5" d="M617.4,436.9c2.4,3.9,16.2,10.8,16.2,10.8s0.1-15.5-2.3-19.3c-2.4-3.9-7.4-5.1-11.3-2.7
	C616.2,428,615,433,617.4,436.9L617.4,436.9z"/>
<rect x="225.9" y="205.8" class="st3" width="84.8" height="9.4"/>
<rect x="382" y="288.4" class="st7" width="50.6" height="9.4"/>
<rect x="398.5" y="316.8" class="st7" width="64.4" height="8.1"/>
<rect x="225.9" y="238.9" class="st3" width="84.8" height="9.4"/>
<rect x="607.1" y="205.8" class="st3" width="84.8" height="9.4"/>
<rect x="607.1" y="238.9" class="st3" width="84.8" height="9.4"/>
<rect x="338.5" y="232.2" class="st0" width="313.9" height="313.9"/>
<rect x="349.1" y="217.3" class="st8" width="313.9" height="313.9"/>
<rect x="382" y="252" class="st9" width="248.2" height="9.4"/>
<rect x="398.5" y="289.6" class="st3" width="135.9" height="8.1"/>
<rect x="398.5" y="344" class="st3" width="131.9" height="8.1"/>
<rect x="398.5" y="371.1" class="st3" width="179.8" height="8.1"/>
<path class="st10" d="M572.9,290.3l-0.9-1c0,0-0.1-0.1-0.2-0.1c-0.1,0-0.1,0-0.1,0.1l-6.4,6.5l-2.3-2.3c0,0-0.1-0.1-0.2-0.1
	c-0.1,0-0.1,0-0.1,0.1l-0.9,0.9c-0.1,0.1-0.1,0.2,0,0.3l0,0l3,3c0.2,0.2,0.4,0.3,0.6,0.3c0.2,0,0.5-0.1,0.6-0.3l0,0l7.1-7.1
	C573,290.5,573,290.4,572.9,290.3L572.9,290.3z"/>
<path class="st10" d="M567.3,284.1c5.3,0,9.5,4.3,9.5,9.5c0,5.3-4.3,9.5-9.5,9.5c-5.3,0-9.5-4.3-9.5-9.5c0-2.5,1-5,2.8-6.7
	C562.3,285.1,564.8,284.1,567.3,284.1 M567.3,282.7c-6.1,0-11,4.9-11,11s4.9,11,11,11s11-4.9,11-11l0,0
	C578.3,287.6,573.3,282.7,567.3,282.7L567.3,282.7z"/>
<path class="st10" d="M572.9,344.7l-0.9-1c0,0-0.1-0.1-0.2-0.1c-0.1,0-0.1,0-0.1,0.1l-6.4,6.5l-2.3-2.3c0,0-0.1-0.1-0.2-0.1
	c-0.1,0-0.1,0-0.1,0.1l-0.9,0.9c-0.1,0.1-0.1,0.2,0,0.3l0,0l3,3c0.2,0.2,0.4,0.3,0.6,0.3c0.2,0,0.4-0.1,0.6-0.3l0,0l7.1-7.1
	C573,344.9,573,344.8,572.9,344.7L572.9,344.7z"/>
<path class="st10" d="M567.3,338.5c5.3,0,9.5,4.3,9.5,9.5c0,5.3-4.3,9.5-9.5,9.5c-5.3,0-9.5-4.3-9.5-9.5c0-2.5,1-5,2.8-6.7
	C562.3,339.5,564.8,338.5,567.3,338.5 M567.3,337c-6.1,0-11,4.9-11,11s4.9,11,11,11s11-4.9,11-11l0,0
	C578.3,341.9,573.3,337,567.3,337L567.3,337z"/>
<ellipse class="st0" cx="492.2" cy="588.9" rx="64.4" ry="10.8"/>
<linearGradient id="SVGID_1_" gradientUnits="userSpaceOnUse" x1="554.8622" y1="-180.2178" x2="554.8622" y2="-100.0828" gradientTransform="matrix(0.894 0.448 0.3642 -0.7268 113.9475 -76.2802)">
	<stop  offset="0" style="stop-color:#808080;stop-opacity:0.25"/>
	<stop  offset="0.54" style="stop-color:#808080;stop-opacity:0.12"/>
	<stop  offset="1" style="stop-color:#808080;stop-opacity:0.1"/>
</linearGradient>
<path class="st11" d="M542.5,298c0,0,7.9,10.9,13.4,10s7.9-6.9,7.8-8.1c-0.1-1.1,1.4-15,1.4-15l0.2-21.4c0,0,6.2-25.2-4.2-23.4
	s-5.5,21.4-5.5,21.4s-0.2,12.3-1.4,14.2c-1.2,1.9-2,10.6-2,10.6L542.5,298z"/>
<linearGradient id="SVGID_2_" gradientUnits="userSpaceOnUse" x1="579.1279" y1="-244.3054" x2="579.1279" y2="-225.1713" gradientTransform="matrix(1 0 0 -1 -69 354.82)">
	<stop  offset="0" style="stop-color:#808080;stop-opacity:0.25"/>
	<stop  offset="0.54" style="stop-color:#808080;stop-opacity:0.12"/>
	<stop  offset="1" style="stop-color:#808080;stop-opacity:0.1"/>
</linearGradient>
<path class="st12" d="M521.7,584.9c-0.1,0.4-0.2,0.8-0.4,1.2c-1.1,3.8-3.2,3-9.4,9.2c-3.1,3.3-7.9,4.7-12.3,3.5
	c-0.7-0.2-1.2-0.8-1.1-1.6l0.7-10.2l0.4-4.9c0,0,9.8,2.7,14.8-0.7c0.1-0.1,0.4-0.2,0.5-0.4l0.1-0.1c1.7-1.4,4.3-1.2,5.6,0.6
	C521.7,582.4,521.9,583.7,521.7,584.9z"/>
<linearGradient id="SVGID_3_" gradientUnits="userSpaceOnUse" x1="548.3279" y1="-240.48" x2="548.3279" y2="-221.3378" gradientTransform="matrix(1 0 0 -1 -69 354.82)">
	<stop  offset="0" style="stop-color:#808080;stop-opacity:0.25"/>
	<stop  offset="0.54" style="stop-color:#808080;stop-opacity:0.12"/>
	<stop  offset="1" style="stop-color:#808080;stop-opacity:0.1"/>
</linearGradient>
<path class="st13" d="M490.9,581.1c-0.1,0.4-0.2,0.8-0.4,1.2c-1.1,3.8-3.2,3-9.4,9.2c-3.1,3.3-7.9,4.7-12.3,3.5
	c-0.7-0.1-1.2-0.8-1.1-1.6l0.7-10.2l0.4-4.9c0,0,9.8,2.7,14.8-0.7c0.1-0.1,0.4-0.2,0.5-0.4l0.1-0.1c1.7-1.4,4.2-1.2,5.6,0.6
	C490.9,578.6,491.1,579.9,490.9,581.1z"/>
<g class="st14">
	
		<linearGradient id="SVGID_4_" gradientUnits="userSpaceOnUse" x1="542.95" y1="-234.8937" x2="542.95" y2="-227.5256" gradientTransform="matrix(1 0 0 -1 -69 354.82)">
		<stop  offset="0" style="stop-color:#808080;stop-opacity:0.25"/>
		<stop  offset="0.54" style="stop-color:#808080;stop-opacity:0.12"/>
		<stop  offset="1" style="stop-color:#808080;stop-opacity:0.1"/>
	</linearGradient>
	<path class="st15" d="M480.7,582.5l0.4,5.3c-5.6,5.6-12.3-2.7-14.3-5.5C471.8,585,480.7,582.5,480.7,582.5z"/>
</g>
<g class="st14">
	
		<linearGradient id="SVGID_5_" gradientUnits="userSpaceOnUse" x1="575.9" y1="-234.2311" x2="575.9" y2="-226.5685" gradientTransform="matrix(1 0 0 -1 -69 354.82)">
		<stop  offset="0" style="stop-color:#808080;stop-opacity:0.25"/>
		<stop  offset="0.54" style="stop-color:#808080;stop-opacity:0.12"/>
		<stop  offset="1" style="stop-color:#808080;stop-opacity:0.1"/>
	</linearGradient>
	<path class="st16" d="M513.8,584.6l0.7-0.5c-5.1,7.8-12.8,4.2-15.2,2.7l0.4-4.9c0,0,9.8,2.7,14.8-0.7
		C514.2,583.3,513.8,584.6,513.8,584.6z"/>
</g>
<linearGradient id="SVGID_6_" gradientUnits="userSpaceOnUse" x1="563.8843" y1="-233.9591" x2="563.8843" y2="-40.3402" gradientTransform="matrix(1 0 0 -1 -69 354.82)">
	<stop  offset="0" style="stop-color:#808080;stop-opacity:0.25"/>
	<stop  offset="0.54" style="stop-color:#808080;stop-opacity:0.12"/>
	<stop  offset="1" style="stop-color:#808080;stop-opacity:0.1"/>
</linearGradient>
<path class="st17" d="M529.6,437.5c-3.9,9.8-7.9,42.7-8.4,46.5s-0.4,19.4-0.4,19.4l-1.1,38.3c-0.1,4.8-3.7,16.7-3.7,16.7
	s-1.2,10-0.6,13.4c0.6,3.3-1.6,12.1-1.6,12.1l0.7-0.5c-6.2,9.3-15.9,2.3-15.9,2.3s-2.4-11.2,0.1-14.1S498,560,498,560
	s1.2-45.2,1.6-47.3c0.4-2.2-1.4-8.5-3.2-13.7c-1.8-5.3,1-26.1,1.6-29.9s-0.2-21-1-24.6s0.7-18.4,0.7-18.4c-2.5-7.3-4.4-0.7-4.4-0.7
	l-2,19.2l-2,39.6c0,0,0.2,12-1.6,15.4c-1.9,3.5-3.5,12.3-3.5,12.3l1,44.6c0,0-0.1,9.3,0.5,12.9c0.6,3.6-1.3,12.8-1.3,12.8
	c-6.9,16.1-18-1.3-18-1.3s0.5-2.7,1.4-3.1c1-0.4-0.4-6.9-1.1-8.1c-0.7-1.2,0.1-9.1,0.1-9.1s-0.8-7.2-2.3-15.9
	c-1.3-8.7-1-42.3-0.1-44.3c0.8-2,1.6-11.7,1.6-11.7s-1-5.5,0.2-9.4s-3-20.4-3-22.4c0-1.9-1.6-13.3-2.5-14.5c-0.6-1.1-0.8-2.3-1-3.5
	c0,0-0.1-2.5-2.3-9.8c-1.6-5.4-0.6-16,0-21.3c0.2-2,0.4-3.2,0.4-3.2s70.9-11.4,73.8-8.8c0.7,0.6,1.1,2.7,1.3,5.6
	C533.9,410.8,532.6,430,529.6,437.5z"/>
<g class="st14">
	
		<linearGradient id="SVGID_7_" gradientUnits="userSpaceOnUse" x1="577.4107" y1="-138.0882" x2="577.4107" y2="-137.5736" gradientTransform="matrix(1 0 0 -1 -69 354.82)">
		<stop  offset="0" style="stop-color:#808080;stop-opacity:0.25"/>
		<stop  offset="0.54" style="stop-color:#808080;stop-opacity:0.12"/>
		<stop  offset="1" style="stop-color:#808080;stop-opacity:0.1"/>
	</linearGradient>
	<path class="st18" d="M502.7,492.6c0.4,0,8.1,0.7,11,0.1C516.7,492.1,502.7,492.6,502.7,492.6z"/>
</g>
<g class="st14">
	
		<linearGradient id="SVGID_8_" gradientUnits="userSpaceOnUse" x1="578.0077" y1="-143.5333" x2="578.0077" y2="-142.3506" gradientTransform="matrix(1 0 0 -1 -69 354.82)">
		<stop  offset="0" style="stop-color:#808080;stop-opacity:0.25"/>
		<stop  offset="0.54" style="stop-color:#808080;stop-opacity:0.12"/>
		<stop  offset="1" style="stop-color:#808080;stop-opacity:0.1"/>
	</linearGradient>
	<path class="st19" d="M503.3,497.1c0,0,10.9,1.9,11.4,1C515.2,497.1,503.3,497.1,503.3,497.1z"/>
</g>
<g class="st14">
	
		<linearGradient id="SVGID_9_" gradientUnits="userSpaceOnUse" x1="543.8614" y1="-142.3859" x2="543.8614" y2="-140.3905" gradientTransform="matrix(1 0 0 -1 -69 354.82)">
		<stop  offset="0" style="stop-color:#808080;stop-opacity:0.25"/>
		<stop  offset="0.54" style="stop-color:#808080;stop-opacity:0.12"/>
		<stop  offset="1" style="stop-color:#808080;stop-opacity:0.1"/>
	</linearGradient>
	<path class="st20" d="M470.3,495.2c0,0,5.6,0.2,8.6,1.7C482,498.2,470.3,495.2,470.3,495.2z"/>
</g>
<linearGradient id="SVGID_10_" gradientUnits="userSpaceOnUse" x1="525.9" y1="-48.28" x2="525.9" y2="-2.78" gradientTransform="matrix(1 0 0 -1 -69 354.82)">
	<stop  offset="0" style="stop-color:#808080;stop-opacity:0.25"/>
	<stop  offset="0.54" style="stop-color:#808080;stop-opacity:0.12"/>
	<stop  offset="1" style="stop-color:#808080;stop-opacity:0.1"/>
</linearGradient>
<path class="st21" d="M449.9,357.8c0,0,1,17.1,0.4,20.1c0,0,2,13.9,3.6,17.3c1.4,2.7,3.2,5.5,5.1,7.9l4.9-33.9l-1.1-11.6
	L449.9,357.8z"/>
<linearGradient id="SVGID_11_" gradientUnits="userSpaceOnUse" x1="501" y1="127.6822" x2="501" y2="165.4822" gradientTransform="matrix(1 0 0 -1 0 407.64)">
	<stop  offset="0" style="stop-color:#808080;stop-opacity:0.25"/>
	<stop  offset="0.54" style="stop-color:#808080;stop-opacity:0.12"/>
	<stop  offset="1" style="stop-color:#808080;stop-opacity:0.1"/>
</linearGradient>
<ellipse class="st22" cx="501" cy="261.1" rx="19" ry="18.9"/>
<linearGradient id="SVGID_12_" gradientUnits="userSpaceOnUse" x1="566.3458" y1="56.4874" x2="566.3458" y2="85.5665" gradientTransform="matrix(1 0 0 -1 -69 354.82)">
	<stop  offset="0" style="stop-color:#808080;stop-opacity:0.25"/>
	<stop  offset="0.54" style="stop-color:#808080;stop-opacity:0.12"/>
	<stop  offset="1" style="stop-color:#808080;stop-opacity:0.1"/>
</linearGradient>
<path class="st23" d="M491.1,269.9c0,0-6,11.5-11.8,17c-6,5.4,35.6,11.5,36.6,11.5s-7.4-24.5-6-27.5S491.1,269.9,491.1,269.9z"/>
<g class="st14">
	
		<linearGradient id="SVGID_13_" gradientUnits="userSpaceOnUse" x1="564.4" y1="-53.7249" x2="564.4" y2="-40.2404" gradientTransform="matrix(1 0 0 -1 -69 354.82)">
		<stop  offset="0" style="stop-color:#808080;stop-opacity:0.25"/>
		<stop  offset="0.54" style="stop-color:#808080;stop-opacity:0.12"/>
		<stop  offset="1" style="stop-color:#808080;stop-opacity:0.1"/>
	</linearGradient>
	<path class="st24" d="M533.2,401c-1,0.7-1.9,1.3-3.1,1.7c-7.5,3-15.8,7.1-21.4,5.4s-17.5,0-17.5,0s-23.9-1.9-28.7-0.8
		c-1.6,0.5-3.3,0.5-4.9,0.1c0.2-2,0.4-3.2,0.4-3.2s70.9-11.4,73.8-8.8C532.5,396,532.9,398.1,533.2,401z"/>
</g>
<linearGradient id="SVGID_14_" gradientUnits="userSpaceOnUse" x1="562.45" y1="-52.2789" x2="562.45" y2="71.52" gradientTransform="matrix(1 0 0 -1 -69 354.82)">
	<stop  offset="0" style="stop-color:#808080;stop-opacity:0.25"/>
	<stop  offset="0.54" style="stop-color:#808080;stop-opacity:0.12"/>
	<stop  offset="1" style="stop-color:#808080;stop-opacity:0.1"/>
</linearGradient>
<path class="st25" d="M538.3,390.2c0,0-0.7,8.1-8.2,11.1s-15.8,7.1-21.4,5.4s-17.5,0-17.5,0s-23.9-1.9-28.7-0.8
	c-4.8,1.2-7.2-0.4-5.7-2.5c1.4-2.2,1.3-9.2,1.3-12.1s-1.7-14.8-0.1-17c1.4-2.2,2.7-10.3,5.7-11.6c1-0.4,1.6-1.2,1.8-2
	c0.2-1,0.2-2,0-3c0,0-0.5-0.4-1.2-1.1c-1.8-1.6-4.7-4.4-3.7-5.4c1.3-1.3,0-9.8,0-9.8s-3.1-6.6-2-9c1.2-2.4-10-15.3-10-15.3
	s0-22.2,13.5-23.2c0,0,9.6,0.4,10.8-3.9c1.2-4.3,8.7-6.7,8.7-6.7l17.3,3.7c0,0,15.3,3.2,18.2,1.3s4.9,2.6,4.9,2.6s9.6,0.5,10.5,2.5
	c1,1.9-3.1,21-3.1,21s-6.9-0.6-6.5,6.7c0.5,7.4-2.6,16.6-2.6,16.6s-0.5,5.4-0.1,6.6c0.4,1.1-0.6,5.1-0.8,5.9v0.1
	c0,0-0.7,2.7,0.2,3.7c0.1,0.1,0.2,0.1,0.2,0.2c1.3,0.6,3.3,7.1,3.3,7.1c1.1,1.2,1.6,2.7,1.4,4.4c-0.1,2.6,0.8,8.8,5.1,12.4
	C534,381.8,538.3,390.2,538.3,390.2z"/>
<linearGradient id="SVGID_15_" gradientUnits="userSpaceOnUse" x1="523.9271" y1="-6.1092" x2="523.9271" y2="39.0184" gradientTransform="matrix(1 0 0 -1 -69 354.82)">
	<stop  offset="0" style="stop-color:#808080;stop-opacity:0.25"/>
	<stop  offset="0.54" style="stop-color:#808080;stop-opacity:0.12"/>
	<stop  offset="1" style="stop-color:#808080;stop-opacity:0.1"/>
</linearGradient>
<path class="st26" d="M464.8,352.4v0.7l-0.4,7.7c0,0-10.2,0.8-15.7-0.6s-3.2-7.4-3-8.7l0,0c0.1-1.2,1.7-10.8,1.7-12.3
	c0-1.6,0-7.9-0.2-10.9c-0.2-2.9,1.2-11.1,1.2-11.1l1.1-1.3l11.6,4.4L464.8,352.4z"/>
<g class="st14">
	
		<linearGradient id="SVGID_16_" gradientUnits="userSpaceOnUse" x1="523.9271" y1="-6.108" x2="523.9271" y2="3.4005" gradientTransform="matrix(1 0 0 -1 -69 354.82)">
		<stop  offset="0" style="stop-color:#808080;stop-opacity:0.25"/>
		<stop  offset="0.54" style="stop-color:#808080;stop-opacity:0.12"/>
		<stop  offset="1" style="stop-color:#808080;stop-opacity:0.1"/>
	</linearGradient>
	<path class="st27" d="M464.8,353.1l-0.4,7.7c0,0-10.2,0.8-15.7-0.6s-3.2-7.4-3-8.7L464.8,353.1z"/>
</g>
<g class="st14">
	
		<linearGradient id="SVGID_17_" gradientUnits="userSpaceOnUse" x1="560.9" y1="-5.837" x2="560.9" y2="4.591" gradientTransform="matrix(1 0 0 -1 -69 354.82)">
		<stop  offset="0" style="stop-color:#808080;stop-opacity:0.25"/>
		<stop  offset="0.54" style="stop-color:#808080;stop-opacity:0.12"/>
		<stop  offset="1" style="stop-color:#808080;stop-opacity:0.1"/>
	</linearGradient>
	<path class="st28" d="M465.5,360.6c0.2-1,0.2-2,0-3c0,0-0.5-0.4-1.2-1.1c8.7-1.2,43.3-5.9,55-6.5v0.1c0,0-0.7,2.7,0.2,3.7
		L465.5,360.6z"/>
</g>
<g class="st14">
	
		<linearGradient id="SVGID_18_" gradientUnits="userSpaceOnUse" x1="586.6863" y1="-28.0204" x2="586.6863" y2="-11.7639" gradientTransform="matrix(1 0 0 -1 -69 354.82)">
		<stop  offset="0" style="stop-color:#808080;stop-opacity:0.25"/>
		<stop  offset="0.54" style="stop-color:#808080;stop-opacity:0.12"/>
		<stop  offset="1" style="stop-color:#808080;stop-opacity:0.1"/>
	</linearGradient>
	<path class="st29" d="M520.5,366.6c0,0,2.2,12.1-5.9,16.3C514.6,382.9,519.2,376.9,520.5,366.6z"/>
</g>
<g class="st14">
	
		<linearGradient id="SVGID_19_" gradientUnits="userSpaceOnUse" x1="548.8426" y1="-28.9589" x2="548.8426" y2="-26.6459" gradientTransform="matrix(1 0 0 -1 -69 354.82)">
		<stop  offset="0" style="stop-color:#808080;stop-opacity:0.25"/>
		<stop  offset="0.54" style="stop-color:#808080;stop-opacity:0.12"/>
		<stop  offset="1" style="stop-color:#808080;stop-opacity:0.1"/>
	</linearGradient>
	<path class="st30" d="M468.1,383.1c0,0,19.2-3.2,23.1-0.7S468.1,383.1,468.1,383.1z"/>
</g>
<g class="st14">
	
		<linearGradient id="SVGID_20_" gradientUnits="userSpaceOnUse" x1="582.2869" y1="30.9369" x2="582.2869" y2="46.1042" gradientTransform="matrix(1 0 0 -1 -69 354.82)">
		<stop  offset="0" style="stop-color:#808080;stop-opacity:0.25"/>
		<stop  offset="0.54" style="stop-color:#808080;stop-opacity:0.12"/>
		<stop  offset="1" style="stop-color:#808080;stop-opacity:0.1"/>
	</linearGradient>
	<path class="st31" d="M513.8,308.8c0,0-3,12.1-0.7,14.8C515.4,326.3,513.8,308.8,513.8,308.8z"/>
</g>
<g class="st14">
	
		<linearGradient id="SVGID_21_" gradientUnits="userSpaceOnUse" x1="527.752" y1="45.8812" x2="527.752" y2="56.0057" gradientTransform="matrix(1 0 0 -1 -69 354.82)">
		<stop  offset="0" style="stop-color:#808080;stop-opacity:0.25"/>
		<stop  offset="0.54" style="stop-color:#808080;stop-opacity:0.12"/>
		<stop  offset="1" style="stop-color:#808080;stop-opacity:0.1"/>
	</linearGradient>
	<path class="st32" d="M458,298.8c0,0,2.7,4.5,1.1,9.2C457.4,312.6,458,298.8,458,298.8z"/>
</g>
<linearGradient id="SVGID_22_" gradientUnits="userSpaceOnUse" x1="522.6753" y1="10.6513" x2="522.6753" y2="16.6081" gradientTransform="matrix(1 0 0 -1 -69 354.82)">
	<stop  offset="0" style="stop-color:#808080;stop-opacity:0.25"/>
	<stop  offset="0.54" style="stop-color:#808080;stop-opacity:0.12"/>
	<stop  offset="1" style="stop-color:#808080;stop-opacity:0.1"/>
</linearGradient>
<path class="st33" d="M452.4,338.2c0,0,3.5,2,2.3,5.3C453.6,346.7,452.4,338.2,452.4,338.2z"/>
<g class="st14">
	
		<linearGradient id="SVGID_23_" gradientUnits="userSpaceOnUse" x1="522.8212" y1="21.1085" x2="522.8212" y2="25.9255" gradientTransform="matrix(1 0 0 -1 -69 354.82)">
		<stop  offset="0" style="stop-color:#808080;stop-opacity:0.25"/>
		<stop  offset="0.54" style="stop-color:#808080;stop-opacity:0.12"/>
		<stop  offset="1" style="stop-color:#808080;stop-opacity:0.1"/>
	</linearGradient>
	<path class="st34" d="M452,328.8c0,0,3.2,1.7,3.6,4.3C456.1,335.7,452,328.8,452,328.8z"/>
</g>
<g class="st14">
	
		<linearGradient id="SVGID_24_" gradientUnits="userSpaceOnUse" x1="580.85" y1="-72.2606" x2="580.85" y2="-69.1277" gradientTransform="matrix(1 0 0 -1 -69 354.82)">
		<stop  offset="0" style="stop-color:#808080;stop-opacity:0.25"/>
		<stop  offset="0.54" style="stop-color:#808080;stop-opacity:0.12"/>
		<stop  offset="1" style="stop-color:#808080;stop-opacity:0.1"/>
	</linearGradient>
	<path class="st35" d="M499.7,426.6c0,0,20.2,2,24.3-2.7C523.8,424,505.7,427.6,499.7,426.6z"/>
</g>
<g class="st14">
	
		<linearGradient id="SVGID_25_" gradientUnits="userSpaceOnUse" x1="546.75" y1="-73.2806" x2="546.75" y2="-70.6805" gradientTransform="matrix(1 0 0 -1 -69 354.82)">
		<stop  offset="0" style="stop-color:#808080;stop-opacity:0.25"/>
		<stop  offset="0.54" style="stop-color:#808080;stop-opacity:0.12"/>
		<stop  offset="1" style="stop-color:#808080;stop-opacity:0.1"/>
	</linearGradient>
	<path class="st36" d="M464.8,425.5c0,0,21.6,5,25.9,1.1C490.7,426.5,472.2,427.9,464.8,425.5z"/>
</g>
<g class="st14">
	
		<linearGradient id="SVGID_26_" gradientUnits="userSpaceOnUse" x1="577.2755" y1="-78.7522" x2="577.2755" y2="-78.4453" gradientTransform="matrix(1 0 0 -1 -69 354.82)">
		<stop  offset="0" style="stop-color:#808080;stop-opacity:0.25"/>
		<stop  offset="0.54" style="stop-color:#808080;stop-opacity:0.12"/>
		<stop  offset="1" style="stop-color:#808080;stop-opacity:0.1"/>
	</linearGradient>
	<path class="st37" d="M501.3,433.3c0,0,9.1,0,13.3,0.2C518.8,433.7,501.3,433.3,501.3,433.3z"/>
</g>
<g class="st14">
	
		<linearGradient id="SVGID_27_" gradientUnits="userSpaceOnUse" x1="540.6274" y1="-86.4796" x2="540.6274" y2="-82.2823" gradientTransform="matrix(1 0 0 -1 -69 354.82)">
		<stop  offset="0" style="stop-color:#808080;stop-opacity:0.25"/>
		<stop  offset="0.54" style="stop-color:#808080;stop-opacity:0.12"/>
		<stop  offset="1" style="stop-color:#808080;stop-opacity:0.1"/>
	</linearGradient>
	<path class="st38" d="M466.4,437.1c0,0,4.4,5,9.4,4.1C480.8,440.3,466.4,437.1,466.4,437.1z"/>
</g>
<linearGradient id="SVGID_28_" gradientUnits="userSpaceOnUse" x1="561.7706" y1="-7.8133" x2="561.7706" y2="127.8754" gradientTransform="matrix(1 0 0 -1 -69 354.82)">
	<stop  offset="0" style="stop-color:#808080;stop-opacity:0.25"/>
	<stop  offset="0.54" style="stop-color:#808080;stop-opacity:0.12"/>
	<stop  offset="1" style="stop-color:#808080;stop-opacity:0.1"/>
</linearGradient>
<path class="st39" d="M475.1,233c-1.4,2.2-1.4,4.7-1.8,7.1c-1,5.9-3.7,11.2-7.9,15.5c-3.9,4.2-9.3,7.9-10.4,13
	c-1,4.8,2.3,9.4,4.1,14.2c4.5,12.4-1.8,25.5-3.7,38.3c-0.5,3.6,0.1,8,4.5,9.2c1.3,0.4,3,0.4,4.2,1c1.7,0.8,2.2,2.4,2.5,3.9
	c1.1,5.3,1.4,10.6,1.1,16c-0.2,3-0.4,6.5,2.4,8.5c1.4,1,3.1,1.6,4.8,1.9c4.5,1.2,10.4,2.2,13.4-0.6c1.3-1.2,1.8-2.9,3.3-3.8
	c2.4-1.4,5.7-0.5,8.7-0.4c5.7,0.2,11.2-2.6,14.2-7.7c2.4-4.3,2.3-9.3,1.3-14s-2.5-9.3-2.6-14c-0.1-1.7,0.2-3.3,1.1-4.8
	c1.8-2.9,6.1-4.1,9.1-6.3c5.5-4.2,5.4-11,3.5-16.6c-1.9-5.7-5.6-11.1-6-17c-0.2-1.4,0.1-2.9,0.8-4.1c1-1.2,2-2.3,3.3-3.1
	c8-6.7,7.1-17.7,0.5-25.2C518.1,235.5,485,217.6,475.1,233z"/>
<g class="st14">
	
		<linearGradient id="SVGID_29_" gradientUnits="userSpaceOnUse" x1="526.4576" y1="66.9335" x2="526.4576" y2="88.7827" gradientTransform="matrix(1 0 0 -1 -69 354.82)">
		<stop  offset="0" style="stop-color:#808080;stop-opacity:0.25"/>
		<stop  offset="0.54" style="stop-color:#808080;stop-opacity:0.12"/>
		<stop  offset="1" style="stop-color:#808080;stop-opacity:0.1"/>
	</linearGradient>
	<path class="st40" d="M460,287.8c0.8-4.9,0.4-10-1.2-14.7c-1-2.4-2.2-4.8-3.1-7.2c-0.5,0.8-0.8,1.8-1,2.7c-1,4.8,2.3,9.4,4.1,14.2
		C459.3,284.5,459.8,286.2,460,287.8z"/>
	
		<linearGradient id="SVGID_30_" gradientUnits="userSpaceOnUse" x1="530.2513" y1="12.22" x2="530.2513" y2="37.3737" gradientTransform="matrix(1 0 0 -1 -69 354.82)">
		<stop  offset="0" style="stop-color:#808080;stop-opacity:0.25"/>
		<stop  offset="0.54" style="stop-color:#808080;stop-opacity:0.12"/>
		<stop  offset="1" style="stop-color:#808080;stop-opacity:0.1"/>
	</linearGradient>
	<path class="st41" d="M467.4,341.4c0.4-5.4,0-10.8-1.2-16c-0.4-1.4-0.8-3.1-2.5-3.9c-1.2-0.6-2.7-0.6-4.2-1
		c-1.7-0.4-3.1-1.6-3.8-3.1c-0.2,1.2-0.5,2.5-0.6,3.7c-0.5,3.6,0.1,8,4.5,9.2c1.3,0.4,3,0.4,4.2,1c1.7,0.8,2.2,2.4,2.5,3.9
		c0.5,2.4,0.8,4.9,1.1,7.4C467.3,342.2,467.4,341.9,467.4,341.4z"/>
	
		<linearGradient id="SVGID_31_" gradientUnits="userSpaceOnUse" x1="560.7419" y1="-8.0221" x2="560.7419" y2="18.9485" gradientTransform="matrix(1 0 0 -1 -69 354.82)">
		<stop  offset="0" style="stop-color:#808080;stop-opacity:0.25"/>
		<stop  offset="0.54" style="stop-color:#808080;stop-opacity:0.12"/>
		<stop  offset="1" style="stop-color:#808080;stop-opacity:0.1"/>
	</linearGradient>
	<path class="st42" d="M514.3,339.5c-3,4.9-8.5,7.9-14.2,7.7c-3-0.1-6.3-1.1-8.7,0.4c-1.6,1-2,2.6-3.3,3.8c-3,2.9-8.8,1.9-13.4,0.6
		c-1.7-0.4-3.3-1-4.8-1.9c-1.2-1-2-2.3-2.4-3.8c0,1.7,0,3.3-0.1,5c-0.2,3-0.4,6.5,2.4,8.5c1.4,1,3.1,1.6,4.8,1.9
		c4.5,1.2,10.4,2.2,13.4-0.6c1.3-1.2,1.8-2.9,3.3-3.8c2.4-1.4,5.7-0.5,8.7-0.4c5.7,0.2,11.2-2.6,14.2-7.7c2.4-4.2,2.3-8.8,1.4-13.4
		C515.5,337.2,515,338.4,514.3,339.5z"/>
	
		<linearGradient id="SVGID_32_" gradientUnits="userSpaceOnUse" x1="594.5692" y1="82.8419" x2="594.5692" y2="102.5647" gradientTransform="matrix(1 0 0 -1 -69 354.82)">
		<stop  offset="0" style="stop-color:#808080;stop-opacity:0.25"/>
		<stop  offset="0.54" style="stop-color:#808080;stop-opacity:0.12"/>
		<stop  offset="1" style="stop-color:#808080;stop-opacity:0.1"/>
	</linearGradient>
	<path class="st43" d="M524.8,259.5c-1.2,0.8-2.4,1.9-3.3,3.1c-0.7,1.2-1,2.7-0.8,4.1c0.1,1.8,0.5,3.6,1.1,5.3c1-1,1.9-1.9,3-2.6
		c5.4-4.5,6.7-11,5-17.1C528.9,255.1,527.1,257.6,524.8,259.5z"/>
	
		<linearGradient id="SVGID_33_" gradientUnits="userSpaceOnUse" x1="589.3264" y1="37.62" x2="589.3264" y2="59.72" gradientTransform="matrix(1 0 0 -1 -69 354.82)">
		<stop  offset="0" style="stop-color:#808080;stop-opacity:0.25"/>
		<stop  offset="0.54" style="stop-color:#808080;stop-opacity:0.12"/>
		<stop  offset="1" style="stop-color:#808080;stop-opacity:0.1"/>
	</linearGradient>
	<path class="st44" d="M523.1,300.4c-2.9,2.3-7.2,3.5-9.1,6.3c-0.8,1.4-1.2,3.1-1.1,4.8c0.1,1.9,0.4,3.8,0.7,5.7
		c0.1-0.2,0.2-0.5,0.4-0.6c1.8-2.7,6.1-4.1,9.1-6.3c5-3.8,5.4-9.8,3.9-15.2C526.4,297.2,525,299.1,523.1,300.4z"/>
</g>
<linearGradient id="SVGID_34_" gradientUnits="userSpaceOnUse" x1="612.9338" y1="40.3173" x2="612.9338" y2="61.4745" gradientTransform="matrix(1 0 0 -1 -69 354.82)">
	<stop  offset="0" style="stop-color:#808080;stop-opacity:0.25"/>
	<stop  offset="0.54" style="stop-color:#808080;stop-opacity:0.12"/>
	<stop  offset="1" style="stop-color:#808080;stop-opacity:0.1"/>
</linearGradient>
<path class="st45" d="M560.8,302.4c-3.3,8.5-7.8,11.8-7.8,11.8h-2.4l-21.4,0.2l-2.5-6.7l3.5-14.5l2.2,0.1c1.3,0.7,2.6,1.1,4.1,1.3
	c1.6,0,4.7-0.1,5.5,0.4c0.1,0,0.2,0.1,0.4,0c0.8-0.1,1.7-1.3,1.7-1.3S564.1,293.9,560.8,302.4z"/>
<g class="st14">
	
		<linearGradient id="SVGID_35_" gradientUnits="userSpaceOnUse" x1="620.8347" y1="40.5248" x2="620.8347" y2="60.9648" gradientTransform="matrix(1 0 0 -1 -69 354.82)">
		<stop  offset="0" style="stop-color:#808080;stop-opacity:0.25"/>
		<stop  offset="0.54" style="stop-color:#808080;stop-opacity:0.12"/>
		<stop  offset="1" style="stop-color:#808080;stop-opacity:0.1"/>
	</linearGradient>
	<path class="st46" d="M560.8,302.4c-3.3,8.5-7.8,11.8-7.8,11.8h-2.4c1.3-3.3,3.9-10.3,5-11.8c1.1-1.6-8-5.3-13.1-7.3
		c0.8-0.1,1.7-1.3,1.7-1.3S564.1,293.9,560.8,302.4z"/>
</g>
<path class="st47" d="M541,299.5c0,0,7.7,10.8,13.2,9.9s7.8-6.8,7.8-8.1c-0.1-1.2,1.5-14.9,1.5-14.9l0.2-21.3c0,0,6.3-25-4.1-23.1
	c-10.3,1.9-5.5,21.1-5.5,21.1s-0.2,12.2-1.4,14.1s-1.9,10.5-1.9,10.5L541,299.5z"/>
<path class="st48" d="M521.5,585c-0.1,0.4-0.2,0.7-0.4,1.2c-1.1,3.7-3.2,2.9-9.2,9.1c-3.1,3.3-7.8,4.7-12.1,3.5
	c-0.7-0.2-1.2-0.8-1.1-1.6l0.7-10l0.4-4.8c0,0,9.7,2.7,14.6-0.7c0.1-0.1,0.4-0.2,0.5-0.4l0.1-0.1c1.7-1.4,4.2-1.2,5.6,0.5
	C521.5,582.5,521.7,583.8,521.5,585z"/>
<path class="st48" d="M491.1,581.2c-0.1,0.4-0.2,0.7-0.2,1.2c-1.1,3.8-3.2,2.9-9.2,9.1c-3.1,3.3-7.8,4.7-12.1,3.5
	c-0.7-0.2-1.2-0.8-1.1-1.6l0.7-10l0.4-4.8c0,0,9.7,2.7,14.6-0.7c0.1-0.1,0.4-0.2,0.5-0.4l0.1-0.1c1.7-1.4,4.2-1.2,5.6,0.6
	C491,578.8,491.3,580,491.1,581.2z"/>
<path class="st7" d="M481.1,582.7l0.4,5.3c-5.5,5.5-12.2-2.7-14.1-5.4C472.4,585.1,481.1,582.7,481.1,582.7z"/>
<path class="st7" d="M513.7,584.8l0.7-0.5c-5,7.8-12.7,4.2-14.9,2.7l0.4-4.8c0,0,9.7,2.7,14.6-0.7
	C514,583.5,513.7,584.8,513.7,584.8z"/>
<path class="st49" d="M529.1,438.8c-3.9,9.7-7.8,42.3-8.2,46c-0.5,3.7-0.4,19.2-0.4,19.2l-1,37.9c-0.1,4.8-3.6,16.6-3.6,16.6
	s-1.2,9.9-0.6,13.3c0.6,3.3-1.6,12-1.6,12l0.7-0.5c-6.1,9.2-15.7,2.3-15.7,2.3s-2.3-11.2,0.1-14c2.4-2.7-0.8-11.5-0.8-11.5
	s1.2-44.8,1.6-47s-1.4-8.4-3.1-13.6c-1.7-5.3,1-25.9,1.6-29.6s-0.2-20.9-0.8-24.4c-0.6-3.5,0.7-18.3,0.7-18.3
	c-2.4-7.3-4.4-0.7-4.4-0.7l-1.9,19.1l-2.2,39.2c0,0,0.2,12-1.6,15.3c-1.8,3.5-3.3,12.1-3.3,12.1l0.8,44.2c0,0-0.1,9.2,0.5,12.8
	c0.6,3.5-1.3,12.7-1.3,12.7c-6.8,16-17.7-1.3-17.7-1.3s0.5-2.7,1.4-3c1-0.4-0.4-6.9-1.1-8s0.1-9.1,0.1-9.1s-1-7.2-2.2-15.8
	c-1.3-8.6-1-42-0.1-44c0.8-2,1.6-11.7,1.6-11.7s-1-5.5,0.2-9.3c1.2-3.9-2.9-20.3-2.9-22.1c0-1.8-1.6-13.1-2.4-14.3
	c-0.6-1.1-0.8-2.3-0.8-3.3c0,0-0.1-2.4-2.2-9.7c-1.6-5.4-0.6-15.8,0-21.2c0.2-1.9,0.4-3.2,0.4-3.2s69.8-11.4,72.6-8.7
	c0.6,0.6,1.1,2.7,1.3,5.6C533.4,412.3,532.1,431.3,529.1,438.8z"/>
<path class="st7" d="M502.8,493.4c0.4,0,8,0.6,10.9,0.1C516.4,493,502.8,493.4,502.8,493.4z"/>
<path class="st7" d="M503.3,498c0,0,10.6,1.9,11.2,1C515.1,498,503.3,498,503.3,498z"/>
<path class="st7" d="M470.8,496.1c0,0,5.5,0.2,8.5,1.7C482.2,499.2,470.8,496.1,470.8,496.1z"/>
<path class="st47" d="M450.8,359.7c0,0,1,17,0.4,20c0,0,1.9,13.7,3.6,17.2c1.4,2.7,3.1,5.4,5.1,7.9l4.8-33.6l-1.1-11.5H450.8z"/>
<circle class="st47" cx="501" cy="263.8" r="18.8"/>
<path class="st47" d="M491.3,272.5c0,0-5.9,11.5-11.7,16.7c-5.9,5.4,35,11.5,36,11.5s-7.3-24.3-5.9-27.3
	C511.3,270.6,491.3,272.5,491.3,272.5z"/>
<path class="st7" d="M532.7,402.7c-1,0.7-1.9,1.3-3,1.7c-7.4,2.9-15.5,6.9-21,5.4c-5.5-1.7-17.2,0-17.2,0s-23.4-1.9-28.2-0.8
	c-1.6,0.5-3.2,0.5-4.9,0.1c0.2-1.9,0.4-3.2,0.4-3.2s69.8-11.4,72.6-8.7C532,397.7,532.5,399.7,532.7,402.7z"/>
<path class="st48" d="M537.8,391.8c0,0-0.6,8.1-8.1,11s-15.5,6.9-21,5.4c-5.5-1.6-17.2,0-17.2,0s-23.4-1.9-28.2-0.8
	c-4.8,1.2-7.2-0.4-5.7-2.4c1.4-2.2,1.3-9.1,1.3-12c0-3-1.7-14.7-0.1-16.9c1.6-2.2,2.7-10.2,5.7-11.5c0.8-0.4,1.6-1.1,1.8-2
	c0.2-1,0.2-2,0-3c0,0-0.5-0.4-1.2-1c-1.7-1.6-4.7-4.4-3.7-5.3c1.3-1.3,0-9.7,0-9.7s-3.1-6.5-1.9-9s-9.9-15.2-9.9-15.2
	s0-22,13.3-23.1c0,0,9.4,0.4,10.5-3.9c1.2-4.2,8.6-6.7,8.6-6.7l17,3.7c0,0,15.1,3.2,17.8,1.3c2.7-1.9,4.8,2.6,4.8,2.6
	s9.4,0.5,10.4,2.4s-3.1,20.9-3.1,20.9s-6.8-0.6-6.3,6.7c0.5,7.3-2.6,16.5-2.6,16.5s-0.5,5.4-0.1,6.5s-0.6,5.1-0.8,5.7v0.1
	c0,0-0.7,2.7,0.2,3.7c0.1,0.1,0.1,0.1,0.2,0.2c1.3,0.6,3.2,6.9,3.2,6.9c1,1.2,1.6,2.7,1.4,4.4c-0.1,2.6,0.8,8.7,5,12.3
	C533.4,383.5,537.8,391.8,537.8,391.8z"/>
<path class="st48" d="M465.5,354.3v0.7l-0.2,7.5c0,0-9.9,0.8-15.3-0.6s-3.1-7.4-3-8.6l0,0c0.1-1.2,1.7-10.6,1.7-12.2s0-7.9-0.2-10.8
	s1.2-11,1.2-11l1.1-1.3l11.5,4.4L465.5,354.3z"/>
<path class="st7" d="M465.4,355l-0.2,7.5c0,0-9.9,0.8-15.3-0.6s-3.1-7.4-3-8.6L465.4,355z"/>
<path class="st7" d="M466.1,362.6c0.2-1,0.2-2,0-3c0,0-0.5-0.4-1.2-1c8.6-1.2,42.6-5.9,54-6.3v0.1c0,0-0.7,2.7,0.2,3.7L466.1,362.6z
	"/>
<path class="st7" d="M520.3,368.4c0,0,2.2,12-5.7,16.1C514.5,384.5,518.9,378.7,520.3,368.4z"/>
<path class="st7" d="M468.7,384.9c0,0,19-3.2,22.7-0.7C495.3,386.7,468.7,384.9,468.7,384.9z"/>
<path class="st7" d="M513.7,311c0,0-2.9,12-0.7,14.7C515.1,328.6,513.7,311,513.7,311z"/>
<path class="st7" d="M458.7,301.2c0,0,2.7,4.4,1.1,9.1C458.1,315,458.7,301.2,458.7,301.2z"/>
<path class="st48" d="M453.2,340.3c0,0,3.3,2,2.3,5.1S453.2,340.3,453.2,340.3z"/>
<path class="st7" d="M453,331.1c0,0,3.1,1.7,3.6,4.2C456.9,337.8,453,331.1,453,331.1z"/>
<path class="st7" d="M499.7,428.1c0,0,19.8,2,23.8-2.7C523.6,425.4,505.7,428.9,499.7,428.1z"/>
<path class="st7" d="M465.5,426.9c0,0,21.3,5,25.6,1.1C491,428.1,472.7,429.4,465.5,426.9z"/>
<path class="st7" d="M501.3,434.6c0,0,9,0,13,0.2C518.5,435.1,501.3,434.6,501.3,434.6z"/>
<path class="st7" d="M466.9,438.5c0,0,4.4,4.9,9.3,4.1C481.2,441.7,466.9,438.5,466.9,438.5z"/>
<path class="st50" d="M475.6,236c-1.3,2.2-1.4,4.5-1.8,6.9c-1,5.7-3.7,11.1-7.8,15.3c-3.8,4.2-9.2,7.9-10.3,12.9
	c-1,4.8,2.3,9.4,3.9,14.1c4.5,12.3-1.8,25.2-3.6,37.9c-0.5,3.5,0.1,8,4.4,9.2c1.3,0.4,2.9,0.4,4.1,1c1.7,0.7,2.2,2.4,2.4,3.8
	c1.1,5.3,1.4,10.5,1.1,15.9c-0.2,3-0.4,6.5,2.4,8.5c1.4,0.8,3,1.6,4.7,1.9c4.4,1.2,10.2,2.2,13.1-0.6c1.2-1.2,1.7-2.9,3.3-3.7
	c2.4-1.4,5.7-0.5,8.6-0.4c5.7,0.2,11.1-2.6,14-7.5c2.4-4.3,2.2-9.2,1.3-13.9s-2.4-9.2-2.5-13.9c-0.1-1.7,0.2-3.2,1.1-4.7
	c1.8-2.7,6-4.1,8.8-6.2c5.4-4.1,5.4-10.9,3.5-16.5s-5.5-11-5.9-16.9c-0.2-1.4,0.1-2.9,0.8-4.1c1-1.2,2.2-2.2,3.3-3
	c7.9-6.7,6.9-17.6,0.5-25C518,238.5,485.4,220.7,475.6,236z"/>
<g class="st14">
	<path d="M460.7,290.5c0.7-4.9,0.4-9.9-1.2-14.6c-0.8-2.4-2.2-4.7-3-7.1c-0.5,0.8-0.7,1.8-1,2.7c-1,4.8,2.3,9.4,3.9,14.1
		C460,287.1,460.5,288.8,460.7,290.5z"/>
	<path d="M467.9,343.5c0.4-5.4,0-10.6-1.1-15.9c-0.2-1.4-0.8-3.1-2.4-3.8c-1.2-0.6-2.7-0.6-4.1-1c-1.7-0.4-3.1-1.6-3.8-3.1
		c-0.2,1.2-0.5,2.5-0.6,3.7c-0.5,3.5,0.1,8,4.4,9.2c1.3,0.4,2.9,0.4,4.1,1c1.7,0.8,2.2,2.4,2.4,3.8c0.5,2.4,0.8,4.9,1.1,7.3
		C467.9,344.3,467.9,343.9,467.9,343.5z"/>
	<path d="M514.2,341.6c-3,4.9-8.4,7.8-14,7.5c-3-0.1-6.3-1.1-8.6,0.4c-1.6,1-2,2.6-3.3,3.7c-3,2.7-8.7,1.8-13.1,0.6
		c-1.7-0.4-3.2-1-4.7-1.9c-1.2-1-2-2.3-2.3-3.7c0,1.7,0,3.3-0.1,5c-0.2,3-0.4,6.5,2.4,8.5c1.4,0.8,3,1.6,4.7,1.9
		c4.4,1.2,10.2,2.2,13.1-0.6c1.2-1.2,1.8-2.9,3.3-3.8c2.4-1.4,5.7-0.5,8.6-0.4c5.7,0.2,11.1-2.6,14-7.5c2.3-4.2,2.2-8.8,1.4-13.3
		C515.2,339.2,514.8,340.4,514.2,341.6z"/>
	<path d="M524.4,262.3c-1.2,0.8-2.4,1.9-3.2,3.1c-0.7,1.2-1,2.6-0.8,4.1c0.1,1.8,0.5,3.5,1.1,5.3c1-1,1.9-1.8,3-2.6
		c5.3-4.5,6.6-10.9,4.9-17C528.4,258,526.7,260.4,524.4,262.3z"/>
	<path d="M522.9,302.9c-2.9,2.2-7.1,3.5-8.8,6.2c-0.8,1.4-1.2,3.1-1.1,4.8c0.1,1.9,0.4,3.8,0.7,5.6c0.1-0.2,0.2-0.5,0.4-0.6
		c1.8-2.7,6-4.1,8.8-6.2c4.9-3.7,5.4-9.7,3.8-15.1C526,299.7,524.7,301.5,522.9,302.9z"/>
</g>
<path class="st48" d="M559.9,304.8c-3.3,8.5-7.7,11.7-7.7,11.7h-2.4l-21,0.2l-2.4-6.7l3.3-14.3l2.2,0.1c1.3,0.7,2.6,1.1,4.1,1.3
	c1.6,0,4.5-0.1,5.4,0.4c0.1,0,0.2,0.1,0.4,0c0.8-0.1,1.7-1.3,1.7-1.3S563.2,296.5,559.9,304.8z"/>
<path class="st7" d="M559.9,304.8c-3.3,8.5-7.7,11.7-7.7,11.7h-2.4c1.2-3.3,3.8-10.2,4.9-11.7c1.1-1.6-7.8-5.3-13-7.2
	c0.8-0.1,1.7-1.3,1.7-1.3S563.2,296.5,559.9,304.8z"/>
<path class="st51" d="M165.8,26.8l-3.1-3.1c-0.2-0.2-0.3-0.2-0.5-0.2s-0.3,0-0.5,0.2L141,44.6l-7.5-7.5c-0.3-0.3-0.6-0.3-0.9,0l0,0
	l-3.1,3.1c-0.3,0.3-0.3,0.6,0,0.9l0,0l9.5,9.5c0.5,0.6,1.2,0.9,2,0.9s1.4-0.5,2-0.9l0,0l22.8-22.9C166.1,27.4,166.1,27.1,165.8,26.8
	L165.8,26.8z"/>
<path class="st51" d="M147.6,6.8c16.9,0,30.6,13.7,30.6,30.6S164.5,68,147.6,68S117,54.5,117,37.6c0-8.2,3.2-15.8,8.9-21.7
	C131.8,10,139.5,6.8,147.6,6.8 M147.6,2c-19.5,0-35.5,15.8-35.5,35.5S127.9,73,147.6,73c19.5,0,35.5-15.8,35.5-35.5l0,0
	C183.2,18,167.3,2,147.6,2L147.6,2z"/>
<path class="st52" d="M343,72.2l-3.8-3.8c-0.2-0.2-0.3-0.3-0.6-0.3c-0.2,0-0.5,0.2-0.6,0.3l-26.1,26.3l-9.5-9.5
	c-0.2-0.2-0.3-0.3-0.6-0.3c-0.2,0-0.5,0.2-0.6,0.3l-3.8,3.8c-0.3,0.3-0.3,0.8,0,1.2l0,0l12,12c0.6,0.8,1.5,1.1,2.5,1.2
	c0.9-0.2,1.8-0.5,2.5-1.2l0,0l28.8-28.9C343.3,73.1,343.3,72.6,343,72.2L343,72.2z"/>
<path class="st52" d="M320,47.1c21.4,0,38.6,17.2,38.6,38.6s-17.2,38.6-38.6,38.6s-38.6-17.2-38.6-38.6c0-10.3,4-20,11.4-27.4
	C300,51.3,309.9,47.1,320,47.1 M320,41.1c-24.6,0-44.6,20-44.6,44.6s20,44.6,44.6,44.6s44.6-20,44.6-44.6l0,0
	C364.8,61.1,344.8,41.1,320,41.1C320.2,41.1,320.2,41.1,320,41.1z"/>
<path class="st53" d="M852.4,6.8c16.9,0,30.6,13.7,30.6,30.6S869.3,68,852.4,68c-16.9,0-30.6-13.7-30.6-30.6
	c0-8.2,3.2-15.8,8.9-21.7C836.4,10,844.2,6.8,852.4,6.8 M852.4,2c-19.5,0-35.5,15.8-35.5,35.5S832.7,73,852.4,73
	c19.5,0,35.5-15.8,35.5-35.5l0,0C887.7,18,871.9,2,852.4,2L852.4,2z"/>
<path class="st54" d="M665.7,47.1c21.4,0,38.6,17.2,38.6,38.6s-17.2,38.6-38.6,38.6c-21.4,0-38.6-17.2-38.6-38.6
	c0-10.3,4-20.1,11.4-27.4C645.7,51.3,655.6,47.1,665.7,47.1 M665.7,41.1c-24.6,0-44.6,20-44.6,44.6s20,44.6,44.6,44.6
	s44.6-20,44.6-44.6l0,0C710.5,61.1,690.5,41.1,665.7,41.1L665.7,41.1L665.7,41.1z"/>
<path class="st5" d="M498,94.1c28.1,0,51.1,22.9,51.1,51.1s-22.9,51.1-51.1,51.1s-51.1-22.9-51.1-51.1c0-13.5,5.4-26.5,14.9-36
	C471.5,99.5,484.5,94.1,498,94.1 M498,86.1c-32.6,0-59.1,26.5-59.1,59.1s26.5,59.1,59.1,59.1s59.1-26.5,59.1-59.1l0,0
	C557.1,112.6,530.6,86.1,498,86.1L498,86.1z"/>
<path class="st5" d="M482.2,162.6l3.1-4.2c3.1,2.9,7.1,4.6,11.2,4.6c5.2,0,9.2-2.6,9.2-6.8c0-4.6-3.7-7.5-14.2-7.5V144
	c9.2,0,12.8-3.1,12.8-7.1c0-3.7-3.1-6-7.7-6c-3.5,0.2-7.1,1.5-9.7,4l-3.4-4c3.7-3.2,8.5-5.1,13.2-5.2c8,0,14,3.8,14,10.6
	c0,4.8-3.5,7.8-8.5,9.5v0.3c5.4,1.2,9.8,4.8,9.8,10.3c0,7.4-6.9,11.7-15.2,11.7C490,168.3,485.2,165.6,482.2,162.6z"/>
<g class="st55">
	<path class="st5" d="M669.4,79.4c0-2.3,0.2-5.1,0.3-7.4h-0.3c-1.2,2-2.8,4-4,5.8l-9.2,11.8h24.6v4.8h-31.1v-4L668.2,66h6.8v39.1
		h-5.7V79.4H669.4z"/>
</g>
<g class="st56">
	<path class="st5" d="M840.2,49.9l2.2-2.9c2,2,4.8,3.1,7.5,3.1c3.7,0,6.6-2.3,6.6-5.8c0-3.7-2.6-5.7-6.5-5.7c-2,0-3.8,0.6-5.5,1.5
		l-2.2-1.4l0.9-13.7h16.3v3.8H847l-0.6,7.5c1.5-0.6,3.2-1.1,4.8-1.1c5.4,0,9.7,2.8,9.7,8.8s-5.1,9.5-10.6,9.5
		C846.7,53.9,843,52.5,840.2,49.9z"/>
</g>
</svg>
