<?xml version="1.0" encoding="utf-8"?>
<!-- Generator: Adobe Illustrator 24.1.1, SVG Export Plug-In . SVG Version: 6.00 Build 0)  -->
<svg version="1.1" id="be32c85c-9388-4a2b-a4e5-271574a5b9b2"
	 xmlns="http://www.w3.org/2000/svg" xmlns:xlink="http://www.w3.org/1999/xlink" x="0px" y="0px" viewBox="0 0 1000 600"
	 style="enable-background:new 0 0 1000 600;" xml:space="preserve">
<style type="text/css">
	.st0{fill:#E6E6E6;}
	.st1{fill:#FFFFFF;}
	.st2{fill:#33DED2;}
	.st3{fill:#B9EFE8;}
	.st4{fill:#BEB3FF;}
	.st5{fill:#3F3D56;}
	.st6{fill:#3D2A79;}
	.st7{fill:none;stroke:#F2F2F2;stroke-width:2;stroke-miterlimit:10;}
	.st8{fill:#7F7F7F;}
	.st9{opacity:0.1;enable-background:new    ;}
	.st10{fill:#B77A62;}
	.st11{opacity:5.000000e-02;enable-background:new    ;}
	.st12{fill:#261500;}
	.st13{opacity:0.1;}
</style>
<ellipse class="st0" cx="181.3" cy="577.4" rx="112.3" ry="20.1"/>
<rect x="229.4" y="58.3" class="st0" width="770.6" height="431.8"/>
<rect x="251.4" y="112.5" class="st1" width="726.5" height="352.1"/>
<rect x="229.1" y="57.9" class="st2" width="770.6" height="28.6"/>
<rect x="277.9" y="149.6" class="st0" width="186.7" height="297"/>
<rect x="475.3" y="149.6" class="st3" width="281.7" height="208.8"/>
<rect x="475.2" y="366.8" class="st0" width="281.7" height="76.8"/>
<rect x="767.5" y="149.6" class="st4" width="186.7" height="297"/>
<polygon class="st5" points="652.1,181.3 650,180.8 695.1,25.3 897,25.3 897,27.4 696.7,27.4 "/>
<path class="st5" d="M918.3,48.8c-12.4,0-22.4-10-22.4-22.4S905.9,4,918.3,4s22.4,10,22.4,22.4l0,0
	C940.7,38.7,930.7,48.8,918.3,48.8z M918.3,6.1c-11.2,0-20.3,9.1-20.3,20.3s9.1,20.3,20.3,20.3s20.3-9.1,20.3-20.3l0,0
	C938.6,15.2,929.5,6.1,918.3,6.1z"/>
<circle class="st2" cx="918.3" cy="26.4" r="8.5"/>
<polygon class="st5" points="782,520.8 520.9,520.8 520.9,518.7 780.4,518.7 825,364.8 827,365.4 "/>
<path class="st5" d="M499.6,542.2c-12.4,0-22.4-10-22.4-22.4c0-12.4,10-22.4,22.4-22.4s22.4,10,22.4,22.4l0,0
	C522,532.1,512,542.2,499.6,542.2z M499.6,499.5c-11.2,0-20.3,9.1-20.3,20.3c0,11.2,9.1,20.3,20.3,20.3c11.2,0,20.3-9.1,20.3-20.3
	l0,0C519.9,508.6,510.8,499.5,499.6,499.5z"/>
<circle class="st6" cx="499.6" cy="519.8" r="8.5"/>
<path class="st7" d="M231.8,73.6"/>
<path class="st7" d="M228.1,74.2"/>
<path class="st8" d="M106,440.2c-8.7,21.8-1.4,58.1,2.1,74.2c2.2,11.7,3.5,23.5,3.9,35.4c9.3,2,18.9,2.2,28.2,0.6l-5.2-33.3
	c5.7-19.3,3.2-71.7,3.2-71.7s11.8-19.6,14.2-50.4c2.2-30.2,10.2-39.7,10.4-39.9l0,0c15,8.7,30.7,95.4,30.7,95.4
	c-2.5,20.8-2.1,52.8,3.6,70.4c3.4,11.2,4.5,22.9,3.2,34.4c2.5,1.9,5.6,2.7,8.6,2.1c9.2-1.1,20.5-8.5,20.5-8.5s0.7-93.6-1.7-97.4
	c-2.4-3.7,1.1-23.7,1.1-23.7l-2.7-32.8c0,0,3.1-55.3-2.5-65.3c-4.8-8.6-5.5-23.1-5.5-27c0-0.6,0-1,0-1l-8.7-11.6
	c0,0-89.4-10.8-96.4-4.4c-1.7,1.6-2.9,5.3-3.7,9.9c-2.5,14.4-1.5,38.3-1.5,38.3s1.9,17.8,5,35.8c1.9,10.8,1.4,22-1.5,32.7
	C111.9,415.6,110.2,428.3,106,440.2z"/>
<path class="st3" d="M105.2,582.1c3.7,5.5,27.4,4.2,31.5,2.9c2.5-0.9,2.5-5.5,2.1-10.3c-0.2-3-0.7-6.1-0.9-8.5
	c-0.4-5.8,2.7-17.4,2.7-17.4s-5.6,5.3-6.6-0.2c-0.5-2.2-2.2-4-4.4-4.6c-2.7-1-5.7-0.9-8.3,0.1c-4.2,1.6-11.3,5.1-10.4,10.4
	c1.4,7.5-5.3,17.7-5.3,17.7C103.1,575.1,103,579.2,105.2,582.1L105.2,582.1z"/>
<path class="st9" d="M105.2,582.1c3.7,5.5,27.4,4.2,31.5,2.9c2.5-0.9,2.5-5.5,2.1-10.3c-2.6,1.1-7,1.9-13.9,0.9
	c-1.6-0.2-3.4-0.4-5-0.4c-5.1,0-10.2-0.4-15.3-1C103.2,576.7,103.5,579.7,105.2,582.1z"/>
<path class="st9" d="M193.4,450.5c-2.5,20.8-2.1,52.8,3.6,70.4c3.4,11.2,4.5,22.9,3.2,34.4c2.5,1.9,5.6,2.7,8.6,2.1
	c-1.4-13.6-7-72.1-10.2-118.4c-2.4-32-12.7-62.9-30.1-89.9l-5.8,6C177.7,363.9,193.4,450.5,193.4,450.5z"/>
<path class="st10" d="M139,109.3l1.2,19.7l14.1,34.8l24.5-6.8c0,0,35.9-29.1,17-36.7c-2.3-0.8-4.3-2.2-6.1-3.9
	c-3-3.3-4.3-7.8-3.5-12.3c0.8-4.7,2.6-9.3,5.1-13.3l-38.5-18.6c0.9,5.6,1.1,11.4,0.6,17.1c-1.3,11.3-6.1,16.3-9.9,18.4
	C142.2,108.4,140.6,109,139,109.3z"/>
<path class="st9" d="M152.9,72.1c1,5.6,1.2,11.4,0.6,17c0.6,1.1,1.3,2,2,2.8c5.2,6.6,12.7,10.9,21,12.1c3.5,0.5,6.8,0.4,10.3-0.1
	c0.8-4.7,2.6-9.2,5.1-13.3L152.9,72.1z"/>
<path class="st10" d="M149,66.2c-2.6,17.9,10,34.4,27.8,37s34.4-10,37-27.8c2.6-17.9-10-34.4-27.8-37l0,0
	c-17.7-2.6-34.3,9.7-36.8,27.5C149,66,149,66.1,149,66.2z"/>
<path class="st9" d="M136,110.7l3.1,19.4l17.7,33.1l24.1-9.1c0,0,33.6-32.2,13.7-37.9c-2.4-0.6-4.6-1.7-6.6-3.2
	c3.2,10.1-12.8,30.3-12.8,30.3c-1.9,2.5-5.8,0.7-5.8,0.7c-9.6-1.9-26.2-30.6-28.8-35.3C139.2,109.6,137.7,110.4,136,110.7z"/>
<path class="st9" d="M109.1,296.1c5.6,1.5,36.8,9.9,48.7,8.7c13.2-1.4,38.8-1.5,38.8-1.5s16.2,1.6,21.3-0.5c0-0.6,0-1,0-1l-8.7-11.6
	c0,0-89.4-10.8-96.4-4.4C111.1,287.8,109.9,291.5,109.1,296.1z"/>
<path class="st2" d="M175.1,144.3c0,0,17.9-22.6,11.9-32.1l28,12.9c0,0,17.3-1.4,22.3,24.6c0.7,4.4,1,8.7,0.5,13.1
	c-0.5,6.8,0.9,13.6,3.9,19.6c6.5,14.4,3.4,46.6-11.2,49.2c-14.5,2.6-19.6,0.7-19.6,0.7s-0.6,58.7,7.3,65.8c8,7.1-21.5,4.2-21.5,4.2
	s-25.6,0.1-38.8,1.5c-13.2,1.4-49.6-9-49.6-9s6.6-24.4,9.2-40c2.6-15.7,8.6-48.9,8.6-48.9l-30.7-45.8c0,0-4.6-27,16.2-37.9
	s28.5-13.6,28.5-13.6s18.8,33.9,29.3,36.1C169.2,144.9,173.2,146.8,175.1,144.3z"/>
<path class="st9" d="M212.1,155.3c0,0-0.1,10.6-2.2,14.7c-2.1,4.1-10.2,26.9-10.2,26.9l16,0.7c0,0-8.2-9.7-7.3-14.2
	C209.3,178.9,212.1,155.3,212.1,155.3z"/>
<path class="st10" d="M161.2,232.8c0,0,35.8-7.1,39.4-14.3s13.4-23.3,13.4-23.3l-3.5-5.2l-17.9,12.7c0,0-21.3,15.4-31,16.5
	C152.1,220.4,161.2,232.8,161.2,232.8z"/>
<path class="st11" d="M161.2,232.8c0,0,35.8-7.1,39.4-14.3s13.4-23.3,13.4-23.3l-3.5-5.2l-17.9,12.7c0,0-21.3,15.4-31,16.5
	C152.1,220.4,161.2,232.8,161.2,232.8z"/>
<path class="st10" d="M132.4,189.8l-0.9,19.1l3.1,0.1c15.3,0.7,30.1,5.2,43,13.2l5.6,3.5l1.5,1l10.9-21.9l-9-8.7h-0.5
	c-2.2,0.1-12.2,0.5-16.3-1.1c-4.1-1.6-8.6-6-20.4-3.6c-5.8,1.2-10.9,7.5-16.4,5.2L132.4,189.8z"/>
<path class="st9" d="M103.1,153.5l-6.7,7L95.6,178c0,0,3,55.3,20,62.2c17,6.8,48.4-1.4,48.4-1.4s9-20.8,5.2-22.3
	c-3.7-1.5-32.6-10.4-32.6-10.4s1.9-32.3-4.1-42.1c0,0,5.5-30-8.8-31.2S103.1,153.5,103.1,153.5z"/>
<path class="st2" d="M102.1,153.5l-6.7,7L94.6,178c0,0,3,55.3,20,62.2c17,6.8,48.2-1.4,48.2-1.4s9-20.8,5.2-22.3
	c-3.6-1.5-32.6-10.4-32.6-10.4s1.9-32.3-4.1-42.1c0,0,5.5-30-8.8-31.2S102.1,153.5,102.1,153.5z"/>
<path class="st9" d="M155.9,81.3c0.1-2.1,0.5-4.2,1.6-6.1c1.1-1.9,3.3-2.8,5.5-2.2c2.7,1,3.3,4.7,5.8,5.9c2.3,0.8,4.9,0,6.2-2.2
	c1.2-2,1.9-4.3,2-6.8c0.4-2.6,0.8-5.3,1.1-7.9c0.4-2.6,0.9-6,3-8c2.6-2.5,8-3,11.5-2.4c2.3,0.3,4.3,1.5,5.8,3.4
	c1.4,2,3.8,3.1,6.2,3.2c2.3,0,4.2-1.3,5.2-3.3l0-0.1C201,39.2,181,33.6,165.2,42.3c-15.7,8.7-21.3,28.7-12.6,44.5
	c0.9,1.5,1.8,2.9,2.8,4.3C155.5,87.9,155.6,84.5,155.9,81.3z"/>
<path class="st12" d="M204.9,57.3c2.3,0,4.2-1.3,5.2-3.3c0.3-1,0.4-2.1,0.9-3c1.1-2.4,3.9-3.4,6-4.9c4.1-3.4,4.8-9.5,2.9-14.5
	c-1.5-4-4.9-7.6-9.3-7.5c-2.6,0.1-5.2,1.6-7.8,1.4c-2.5-0.5-4.8-1.7-6.8-3.3c-5.2-3.2-11.3-4.7-17.4-4c-1.9,0.1-3.7,0.6-5.2,1.8
	c-1.1,1-2.1,2.1-3.1,3.2c-3.6,3.4-8.9,3.4-13.7,3.6c-4.9,0.2-10.5,1.3-12.7,5.7c-1.4,2.9-0.8,6.3-0.8,9.4c0.1,0.6,0,1.4-0.4,2
	c-0.9,1.2-2.7,0.4-4,0.5c-2.8,0.2-4,3.5-4.3,6.2c-0.5,3.1-1.1,6.3-1.6,9.3c-0.8,2.9-0.1,6,1.8,8.3l8.7,14.1
	c3.9,6.2,7.8,13.5,5.9,20.5c2,1.3,4.9-0.3,6-2.4c0.8-2.3,1.1-4.8,0.7-7.2c-0.2-4.1-0.2-8.4,0.1-12.6c0.1-2.1,0.5-4.2,1.6-6.1
	c1.1-1.9,3.4-2.8,5.5-2.2c2.7,1,3.3,4.7,5.8,5.9c2.3,0.8,4.9,0,6.2-2.2c1.2-2,1.9-4.3,2-6.8l1.1-7.9c0.4-2.8,0.9-5.9,3-8
	c2.6-2.5,8-3,11.5-2.4c2.3,0.3,4.3,1.5,5.8,3.4C200.1,56.1,202.4,57.3,204.9,57.3z"/>
<path class="st9" d="M184.8,153.3L173,194C173,193.9,165,193.6,184.8,153.3z"/>
<path class="st9" d="M150.8,144.8c0,0,12.2,22.1,6,44.1l-2.5,0.1C154.3,189,159.3,178.9,150.8,144.8z"/>
<path class="st9" d="M137,266.2c0,0-15.9-6.1-17.7,6.2C119.4,272.4,122.9,264,137,266.2z"/>
<path class="st9" d="M186.8,197.2c0,0,2.2,22.5-4,31.3c9,3.6,18.4,5.3,28.1,5.1l3.6-35.2L186.8,197.2z"/>
<path class="st9" d="M183.3,225.9l1.5,1l10.9-21.9l-9-8.7h-0.5l0,0C186.5,197.2,188.1,216.6,183.3,225.9z"/>
<path class="st2" d="M186.9,196.2c0,0,2.2,22.5-4,31.3c9,3.6,18.4,5.3,28.1,5.1l12.8-34.7L186.9,196.2z"/>
<path class="st3" d="M196.6,572.4c0.5,3.2,3.1,5.8,6.5,6.1c8.7,1,29.8,3.6,35.2,6c6.8,3,33.3-0.2,34.6-3.5c0.4-1.2,0.1-2.7-0.6-3.9
	c-1-2-2.5-3.5-4.5-4.5c-0.6-0.4-1.4-0.6-2-0.7c-5.1-1.5-14.7-4.7-17.3-8.3c0,0-12.2-9.9-15.7-15.4c-1.4-2.2-3.7-3.6-6.3-3.6
	c-2.9,0-6,1.5-7,7.7c0,0-15,9.3-19.5,1.7c0,0-0.2,11.8-2.7,15.2l0,0C196.6,570.2,196.3,571.3,196.6,572.4z"/>
<path class="st9" d="M196.6,572.4c0.5,3.2,3.1,5.8,6.5,6.1c8.7,1,29.8,3.6,35.2,6c6.8,3,33.3-0.2,34.6-3.5c0.4-1.2,0.1-2.7-0.6-3.9
	c-1-2-2.5-3.5-4.5-4.5c-4.2,3-13.7,6.2-35.1,3.6c-20.3-2.5-30.5-5.2-35.3-7.1l0,0C196.6,570.2,196.3,571.3,196.6,572.4z"/>
<g class="st13">
	<path d="M143.3,42.2l0-0.1c-0.3-2.4-0.3-4.9,0.1-7.4c-0.1,2-0.1,4,0.1,6C143.4,41.1,143.4,41.7,143.3,42.2z"/>
	<path d="M157.5,74.4c-0.6,1.1-1.1,2.3-1.3,3.5c0-1.7,0.6-3.4,1.5-5c1.1-1.9,3.4-2.8,5.5-2.2c2.7,1,3.3,4.7,5.8,5.9
		c2.3,0.8,4.9,0,6.2-2.2c1.2-2,1.9-4.3,2-6.8c0.4-2.6,0.8-5.3,1.1-7.9c0.4-2.6,0.9-6,3-8c2.6-2.5,8-3,11.5-2.4
		c2.3,0.3,4.3,1.5,5.8,3.4c1.4,2,3.8,3.1,6.2,3.2c2.3,0,4.2-1.3,5.2-3.3c0.3-1,0.4-2.1,0.9-3c1.1-2.4,3.9-3.4,6-4.9
		c1.9-1.6,3.2-3.8,3.6-6.3c-0.2,3-1.6,5.8-3.9,7.8c-2,1.7-4.9,2.5-6,4.9c-0.5,1-0.6,2.1-0.9,3c-0.9,2-2.9,3.2-5.2,3.3
		c-2.5-0.1-4.7-1.3-6.2-3.2c-1.5-1.8-3.6-3.1-5.8-3.4c-3.4-0.6-8.9-0.1-11.5,2.4c-2.1,2.1-2.6,5.1-3,8s-0.8,5.3-1.1,7.9
		c-0.1,2.4-0.8,4.7-2,6.8c-1.3,2.1-3.9,3-6.2,2.2c-2.5-1.2-3.3-4.9-5.8-5.9C160.9,71.6,158.7,72.5,157.5,74.4z"/>
	<path d="M132.7,62.1c0.3,1.7,1.1,3.3,2.1,4.7l8.7,14.1c3.7,6,7.5,12.7,6.1,19.4c0.6-6.2-2.9-12.5-6.4-18l-8.7-14.1
		c-1.9-2.3-2.6-5.4-1.8-8.3C132.6,60.7,132.6,61.4,132.7,62.1z"/>
	<path d="M155.5,99c0.3-0.5,0.5-1.1,0.5-1.7c-0.1,1.1-0.3,2.1-0.8,3c-1.1,2.1-4,3.7-6,2.4c0.2-0.5,0.2-0.9,0.3-1.3
		C151.9,102.4,154.5,101.2,155.5,99z"/>
</g>
<path class="st9" d="M234.9,551c0,0-3.1,6.1-15.4,1.2"/>
<path class="st9" d="M135.1,551.1c0,0-11.1,11.8-23.9,2.9"/>
<path class="st9" d="M111.2,402.9c0,0,7.2,5,7.3,7.6s-3.7-2.1-3.7-2.1L111.2,402.9z"/>
<path class="st9" d="M106.6,438.2c2.5,2.2,5.6,3.6,9,4c5.5,0.5,4.7,7.7,1.2,5.3C113.2,444.7,109.8,441.6,106.6,438.2z"/>
<path class="st9" d="M105,442.7c0,0,2.7,17.5,5.8,14.4"/>
<g>
	<g>
		<path class="st3" d="M162.9,81.7c-0.9-0.6-1.2-1.7-0.6-2.7c0.6-0.9,1.7-1.2,2.7-0.6c0.1,0.1,0.2,0.1,0.3,0.3
			c-0.2-0.6-0.5-1.2-1.1-1.5c-1.2-0.7-2.8-0.4-3.6,0.8c-0.7,1.2-0.4,2.8,0.8,3.6c0.6,0.4,1.2,0.5,1.8,0.3
			C163.1,81.8,163,81.7,162.9,81.7z"/>
		<g>
			<path class="st3" d="M165.6,72.7c-0.4-0.9-1.3-1.6-1.7-1.9c-1.2-0.9-2.5-1.1-3.1-1.2c0.1,0.1,0.4,0.5,0.5,0.9
				c0.2,0.6,0.1,1.3,0.1,1.5c0.1,0,0.2,0,0.4,0c0.1,0,0.2,0,0.5,0c0,0,0.2,0,0.4,0.2c0.1,0,0.4,0.2,0.6,0.3c0.6,0.4,1,0.8,1.2,1.5
				c0.2,0.6-0.7,3.1-1.2,3.1l0.1,0.1c-0.1,0.2,1.1,0.5,1.2,0.2C165.6,75.6,166.3,74.3,165.6,72.7z"/>
			<path class="st3" d="M161,72c0.3-1.3-0.4-2-0.8-2.4c-2.4,0.1-4.4,0.3-6.6,3.7c-2.3,3.6-2.6,5.9-2.5,6.6c-0.1,0.9,1.2,1.7,2.2,2
				c1,0.2,2.3,0,2.6-1.4C157.2,76.7,157.9,73.1,161,72z"/>
		</g>
		<g>
			<path class="st3" d="M164.8,78.6c0.7,0.4,1,1.5,0.5,2.2c-0.4,0.7-1.5,1-2.2,0.5c-0.7-0.4-1-1.5-0.5-2.2
				C163,78.3,164.1,78.2,164.8,78.6z"/>
		</g>
		<g>
			<g>
				<path class="st3" d="M152.6,75.7c-0.5,0.1-1,0.3-1.3,0.9c-0.3,0.7-0.3,1.5,0.3,1.9C151.7,77.6,152.1,76.8,152.6,75.7z"/>
			</g>
			<g>
				<path class="st3" d="M154,73.2c0.6-0.9,1.2-1.8,2-2.4c-0.8-0.3-1.6,0.1-2.1,0.8C153.6,72.3,153.8,72.8,154,73.2z"/>
			</g>
		</g>
	</g>
</g>
</svg>
