<svg id="Layer_1" data-name="Layer 1" xmlns="http://www.w3.org/2000/svg" viewBox="0 0 310 375"><defs><style>.cls-1{fill:#33ded2;}</style></defs><circle class="cls-1" cx="175.44" cy="187.55" r="44"/><path class="cls-1" d="M246.35,250.76a59.79,59.79,0,0,0-32.4,9.48h0c-1.52,1.15-3.08,2.25-4.67,3.32a97.21,97.21,0,0,1-101.15,4.07,18.23,18.23,0,0,1-7.52-7.93,35.16,35.16,0,0,1-3.55-15.44V130.91a35.27,35.27,0,0,1,4-16.24,18.14,18.14,0,0,1,7.36-7.52,97.19,97.19,0,0,1,101.22,4.41q1.8,1.22,3.56,2.51c.33.25.66.49,1,.71A60,60,0,1,0,214,13.59h0q-2.28,1.73-4.67,3.32a96.66,96.66,0,0,1-53.9,16.33,96.69,96.69,0,0,1-54.13-16.47l-.44-.3c-1.08-.83-2.19-1.62-3.33-2.38h0c-.33-.25-.67-.48-1-.7A60,60,0,0,0,10.07,89.72c.14.29.27.58.39.88a253.33,253.33,0,0,1,19.16,97,253.53,253.53,0,0,1-18.41,95.15c-.19.47-.4.93-.62,1.38A60.09,60.09,0,0,0,102,357.76a20.83,20.83,0,0,1,1.7-1.21,97.23,97.23,0,0,1,105.88,1.66c1.2.82,2.39,1.65,3.56,2.52.33.24.66.48,1,.7a60,60,0,1,0,32.19-110.67Z"/></svg>