<svg version="1.1" id="_2cf41747-0c0c-4d70-aad4-093c093adad4" xmlns="http://www.w3.org/2000/svg" x="0" y="0" viewBox="0 0 811.1 798.3" xml:space="preserve"><style>.st0{fill:#33ded2}.st1{fill:#3d2a79}.st2{fill:#d5d6db}.st3{opacity:.1}.st3,.st4,.st6{enable-background:new}.st4{opacity:.3;fill:#fff}.st6{opacity:.1;fill:#33ded2}.st8{fill:#be6f72}.st9{fill:#3e373a}.st10{fill:#4b4b5b}.st12{fill:#5b58a6}.st16{font-family:&apos;Cairo-Regular&apos;}.st17{font-size:66.493px}.st18{fill:#fff}</style><path class="st0" d="M435.5 690.5l-342.3-1.7-34-79.7 120.2-8.8-20.9-87.4L396.3 482l-227.7-79.1 20.1-4.8 366.2 59.7-20.1 136.5-28.9 75z"/><path class="st0" d="M98.4 655.4s21-3.4 33.6 11.5c0 0-9.2 7.3-29.1-2.8l-4.5-8.7zm-2.2-.3s-13.4 16.5-6.8 34.8c0 0 10.9-4.4 12.1-26.6l-5.3-8.2zm-12-27.1s8.4-15.4 42 6.2c0 0-4.5 10.4-19.3 9.5s-18.8-7.6-22.7-15.7zm-2.2-1.1s-17.4-2-19.1 37.9c0 0 11 2.3 18.9-10.3s4.6-19.8.2-27.6zM71.9 595s9.8-27.2 45.4-7.8c0 0-8.1 24.9-41.7 17.1l-3.7-9.3zm-11-40.6s18.5-27.4 51.2-2c0 0-11.5 25.8-48.4 11.8l-2.8-9.8zM57 515.8s21.6-25.2 54 0c0 0-20.4 22.1-54 6.4v-6.4zm-3.3-37.5s21.8-26.3 52.9-1.4c0 0-24.6 23.2-52.9 7.6v-6.2zm1.9-33.3s23-33.9 52.1-10.9c0 0-24.6 29.1-52.1 17.4V445zm5.3-39s24.4-33.6 52.6-7.8c0 0-28.8 29.1-52.6 14V406zm8.2-34.8s28.8-31.6 54-19c0 0-30 33.5-55.3 27.4l1.3-8.4zm10-32.9s33.3-38.7 52.6-25.8c0 0-24.5 30-55 33l2.4-7.2zM93.7 300s29.1-31.6 50.4-23.7c0 0-24.9 32.8-54.3 33.6l3.9-9.9zm13.2-35.8s32.2-30.2 46.2-24.9c0 0-23.2 33.6-47.6 31.6l1.4-6.7zm12.8-33s27.7-36.1 42.8-33.3c0 0-16.8 32.2-42.8 37v-3.7zm14-44.6s24.5-27.6 37.7-27.6c0 0-19.3 37-38.8 36.7l1.1-9.1zM142 157l23.7-57.7s1.2 52.1-26.7 68.4l3-10.7zm9.6-63.6s3.9-48.2 1.4-52.1c0 0 16.9 40-1.6 73.4l.2-21.3zm-80.7 501s-24.5-15.2-40.4 22c0 0 21.8 14.5 43.3-12.5l-2.9-9.5zm-10.7-41.5S30.1 539.2 15.5 578c0 0 23.3 16 47.4-15.3l-2.7-9.8zm-4.6-34.8s-21.6-25.2-54 0c0 0 20.4 22.1 54 6.4v-6.4zm-2.7-39.8S31.1 452 0 476.9c0 0 24.6 23.2 52.9 7.6v-6.2zm2.7-32.4S40.3 408 7 424.3c0 0 18 33.6 47.3 27.9l1.3-6.3z"/><path class="st0" d="M62.9 405.8s-15.2-38.6-49-20.7c0 0 20.7 35.4 47.5 26.7l1.5-6zm9.4-34.4s-6-42.3-34-46.1c0 0 5.9 44.6 30.2 53.8l3.8-7.7zm7.5-33.1s-2.3-51-25.5-52.8c0 0 .8 38.7 22.9 60l2.6-7.2zm16.3-39.7s-6.9-42.4-29-47.6c0 0 2.7 41.1 26.8 58l2.2-10.4zm13.4-34s-.2-44.2-13.7-50.7c0 0-8.4 40 9.8 56.3l3.9-5.6zm11.3-33.9s-1.9-45.5-15.9-51.9c0 0-4.8 36 13.8 54.9l2.1-3zm14.9-40.4s-.1-37-10.1-45.7c0 0-9.9 40.5 4.9 53.1l5.2-7.4z"/><path class="st0" d="M140.8 155.2l-9.7-61.6s-13.2 50.5 10.2 72.7l-.5-11.1zm1.9-61.2s-24.9-41.4-24.4-46c0 0 2.7 43.4 34 65l-9.6-19zm2.9-12.3s-23.5-58.8-34.2-63.6c0 0 33.6 17.1 36.1 61.9l-1.9 1.7z"/><path class="st1" d="M132.6 196l-1.6-.5c19.9-64.7 24.8-106 14-116.3l1.1-1.2c11.5 10.9 6.8 51.7-13.5 118z"/><path class="st1" d="M77.9 347.6l-2.4-.9c2.1-5.9 4.4-12 6.8-17.9 20.7-51.6 38.4-99.7 49.7-136.6l2.1-1c-11.3 37-28.7 86.8-49.4 138.5-2.4 5.9-4.7 11.9-6.8 17.9z"/><path class="st1" d="M128 703.9c-.3-.3-32.5-36.6-54.9-98.4-13.1-36.2-20.5-74.3-21.7-112.8C49.9 444.5 60 390.8 77.3 342l1.9 2.2c-38.8 109.6-23.4 203.5-2.9 260 22.2 61.3 54 97.1 54.3 97.5l-2.6 2.2z"/><path class="st2" d="M630.7 626.9s-22.7 27.7-4.7 69.5l-181 78.5-17.4 3.6-8-35 5.3-44.2v-24.1l205.8-48.3z"/><path class="st0" d="M59.2 609.1l250.5-45.7 331.9 52.9-206.1 74.2z"/><path class="st0" d="M59.2 609.1l250.5-45.7 331.9 52.9-206.1 74.2z"/><path class="st0" d="M59.2 609s-23.4 44.4 3.6 85.4l371.5 80.5s-23.1-35.4 1.2-84.4L59.2 609z"/><path class="st3" d="M59.2 609s-23.4 44.4 3.6 85.4l371.5 80.5s-23.1-35.4 1.2-84.4L59.2 609zm11 15.4s-13.4 32.5 0 53.5"/><path class="st0" d="M434.2 774.9l207.4-88.5s11.6 2.5 4.1 11-207.5 86-207.5 86l-375.5-89 371.5 80.5z"/><path class="st3" d="M434.2 774.9l207.4-88.5s11.6 2.5 4.1 11-207.5 86-207.5 86l-375.5-89 371.5 80.5zm-17-75.5s-20 24 0 60"/><path transform="rotate(-18.45 469.338 714.417)" class="st3" d="M422.1 714h94.6v1h-94.6z"/><path transform="rotate(-20.82 478.383 717.072)" class="st3" d="M420.7 716.5h115.2v1H420.7z"/><path transform="rotate(-22.226 490 724.457)" class="st3" d="M422.9 723.9h134.2v1H422.9z"/><path transform="rotate(-24.314 496.534 723.65)" class="st3" d="M419.7 723.2h153.7v1H419.7z"/><path transform="rotate(-23.609 504.74 725.74)" class="st3" d="M420.6 725.2h168.2v1H420.6z"/><path transform="rotate(-23.36 522.363 726.367)" class="st3" d="M421.7 725.9h201.2v1H421.7z"/><path class="st4" d="M152.2 613.9l176-37 107.3 20.5-144.3 46.5z"/><path class="st0" d="M641.6 616.3s9.1 3.7 3.8 9.3-210 64.9-210 64.9l206.2-74.2z"/><path class="st2" d="M730 530.8s-22.7 27.7-4.7 69.5l-181 78.5-17.3 3.7-8-35 5.4-44.2v-24.2L730 530.8z"/><path class="st1" d="M158.5 512.9L409 467.2l331.9 52.9-206.1 74.2zm-.1 0s-23.4 44.4 3.6 85.4l371.5 80.5s-23-35.4 1.2-84.5l-376.3-81.4z"/><path class="st3" d="M158.4 512.9s-23.4 44.4 3.6 85.4l371.5 80.5s-23-35.4 1.2-84.5l-117.5-25.4-258.8-56zm11.1 15.4s-13.4 32.5 0 53.5"/><path class="st1" d="M533.5 678.8l207.4-88.5s11.6 2.5 4.1 11-207.5 86-207.5 86l-375.5-89 371.5 80.5z"/><path class="st3" d="M533.5 678.8l207.4-88.5s11.6 2.5 4.1 11-207.5 86-207.5 86l-375.5-89 371.5 80.5zm-17-75.5s-20 24 0 60"/><path transform="rotate(-18.45 568.62 618.253)" class="st3" d="M521.4 617.8H616v1h-94.6z"/><path transform="rotate(-20.82 577.707 620.897)" class="st3" d="M520.1 620.3h115.2v1H520.1z"/><path transform="rotate(-22.226 589.651 627.709)" class="st3" d="M522.5 627.1h134.2v1H522.5z"/><path transform="rotate(-24.314 595.847 627.48)" class="st3" d="M519.1 627h153.7v1H519.1z"/><path transform="rotate(-23.609 604.03 629.543)" class="st3" d="M519.9 629H688v1H519.9z"/><path transform="rotate(-23.36 621.671 630.158)" class="st3" d="M521.1 629.6h201.2v1H521.1z"/><path opacity=".45" fill="#fff" d="M251.5 517.8l176-37 107.3 20.5-144.3 46.5z"/><path class="st1" d="M740.9 520.1s9.1 3.7 3.8 9.3-209.9 64.9-209.9 64.9l206.1-74.2z"/><path class="st2" d="M739.4 420.7s-22.7 49.7-4.7 91.5l-181 56.5-17.3 3.7-8-35 5.3-44.2V469l205.7-48.3z"/><path class="st0" d="M167.9 402.9l250.5-45.7 332 52.9-206.2 74.2z"/><path class="st0" d="M167.9 402.8s-23.5 44.4 3.5 85.4l371.5 80.5s-23.1-35.4 1.2-84.4l-376.2-81.5z"/><path class="st3" d="M167.9 402.8s-23.5 44.4 3.5 85.4l371.5 80.5s-23.1-35.4 1.2-84.4l-376.2-81.5zm11.1 15.4s-13.4 32.5 0 53.5"/><path class="st0" d="M543 568.7l207.4-66.5s11.6 2.5 4.1 11-207.5 64-207.5 64l-375.5-89L543 568.7z"/><path class="st3" d="M543 568.7l207.4-66.5s11.6 2.5 4.1 11-207.5 64-207.5 64l-375.5-89L543 568.7zm-17-75.5s-20 24 0 60"/><path transform="rotate(-18.45 578.07 508.226)" class="st3" d="M530.8 507.8h94.6v1h-94.6z"/><path transform="rotate(-20.82 587.136 510.86)" class="st3" d="M529.5 510.3h115.2v1H529.5z"/><path transform="rotate(-22.226 598.999 517.165)" class="st3" d="M531.9 516.6h134.2v1H531.9z"/><path transform="rotate(-24.314 605.29 517.459)" class="st3" d="M528.5 517h153.7v1H528.5z"/><path transform="rotate(-23.609 613.466 519.518)" class="st3" d="M529.4 519h168.2v1H529.4z"/><path transform="rotate(-23.36 631.108 520.15)" class="st3" d="M530.5 519.6h201.2v1H530.5z"/><path class="st4" d="M261 407.7l176-37 107.2 20.5L400 437.7z"/><path class="st0" d="M750.4 410.1s9.1 3.7 3.8 9.3-209.9 64.9-209.9 64.9l206.1-74.2zm-440-303.6s-38-2.3-33.6 24.4c0 0-.9 4.7 3.4 6.9 0 0 .1-2 3.9-1.3 1.4.2 2.8.3 4.1.2 1.9-.1 3.6-.9 5-2.1 0 0 10.7-4.4 14.9-21.9 0 0 3.1-3.8 3-4.8l-6.4 2.7s2.2 4.6.5 8.5c0 0-.2-8.3-1.5-8.1-.3 0-3.3 1.6-3.3 1.6s3.8 8.1.9 13.9c0 0 1.1-9.9-2.1-13.3l-4.5 2.6s4.4 8.3 1.4 15.1c0 0 .8-10.4-2.4-14.5l-4.1 3.2s4.1 8.2 1.6 13.8c0 0-.3-12.1-2.5-13.1 0 0-3.6 3.2-4.1 4.5 0 0 2.8 6 1.1 9.1 0 0-1.1-8.1-2-8.1 0 0-3.6 5.4-3.9 9 .2-3.4 1.2-6.7 3.1-9.5-2.1.4-4 1.4-5.5 2.8 0 0 .5-3.8 6.4-4.1 0 0 3-4.1 3.7-4.3 0 0-5.8-.5-9.3 1.1 0 0 3.1-3.6 10.3-2l4-3.3s-7.6-1-10.8.1c0 0 3.7-3.2 11.9-.9l4.4-2.6s-6.5-1.4-10.3-.9c0 0 4.1-2.2 11.6.2l3.1-1.4s-4.7-.9-6.1-1.1-1.5-.5-1.5-.5c3-.5 6.1-.1 8.9 1 .1-.1 6.8-2.5 6.7-2.9z"/><path class="st6" d="M374.4 271.2s-16.6-34.3-37.6-17.4c0 0-4.5 1.5-4.3 6.3 0 0 1.8-.9 3 2.8.5 1.3 1.1 2.5 1.8 3.7 1 1.6 2.5 2.8 4.3 3.4 0 0 9.1 7.2 26.4 2.3 0 0 4.8.8 5.6.3l-5.6-4.3s-3 4.2-7.2 4.5c0 0 7.2-4.2 6.4-5.2-.2-.2-3-2.1-3-2.1s-5.2 7.2-11.7 7.6c0 0 9.2-3.9 10.6-8.4l-4.5-2.7s-5.1 7.9-12.5 8.6c0 0 9.5-4.4 11.5-9.1l-4.8-2s-5.1 7.6-11.3 8.2c0 0 10.4-6.2 10.2-8.6 0 0-4.5-1.6-5.9-1.4 0 0-3.8 5.4-7.4 5.4 0 0 6.5-4.9 6.1-5.7 0 0-6.4-.5-9.8 1 3-1.5 6.4-2.2 9.8-2-1.3-1.6-3.1-2.8-5.1-3.4 0 0 3.6-1.4 6.7 3.5 0 0 5 .6 5.6 1.2 0 0-2.4-5.3-5.4-7.6 0 0 4.6.9 6.7 8l4.9 1.9s-2.8-7.1-5.4-9.4c0 0 4.6 1.7 6.5 10l4.4 2.6s-1.9-6.3-4.3-9.4c0 0 3.9 2.5 5.5 10.2l2.8 2.1s-1.5-4.6-2-5.9-.3-1.5-.3-1.5c1.9 2.4 3.1 5.2 3.5 8.3.1-.1 5.5 4.5 5.8 4.2zm383.8-103.6s-16.5-34.3-37.6-17.4c0 0-4.5 1.5-4.3 6.3 0 0 1.8-.9 3 2.8.5 1.3 1.1 2.6 1.8 3.7 1 1.6 2.5 2.8 4.3 3.4 0 0 9.1 7.2 26.4 2.3 0 0 4.8.8 5.6.2l-5.5-4.3s-3 4.2-7.2 4.6c0 0 7.2-4.2 6.4-5.2-.2-.2-3-2.1-3-2.1s-5.2 7.2-11.7 7.6c0 0 9.2-3.9 10.6-8.3l-4.6-2.6s-5.1 7.9-12.5 8.6c0 0 9.5-4.4 11.5-9.1l-4.8-2s-5.2 7.6-11.3 8.2c0 0 10.4-6.2 10.2-8.6 0 0-4.5-1.6-5.9-1.4 0 0-3.8 5.4-7.4 5.4 0 0 6.5-4.9 6.1-5.7 0 0-6.4-.5-9.8 1 3-1.5 6.4-2.2 9.8-2-1.3-1.6-3.1-2.8-5.1-3.4 0 0 3.6-1.4 6.7 3.5 0 0 5 .6 5.6 1.2 0 0-2.4-5.3-5.5-7.6 0 0 4.6.9 6.7 8l4.9 1.9s-2.8-7.1-5.4-9.4c0 0 4.6 1.7 6.5 10l4.5 2.6s-1.9-6.3-4.3-9.4c0 0 3.9 2.5 5.5 10.2l2.8 2.1s-1.5-4.6-2-5.9-.3-1.5-.3-1.5c1.9 2.4 3.1 5.2 3.5 8.3.1-.3 5.5 4.3 5.8 4zm52.9 169.8s-16.6-34.3-37.7-17.4c0 0-4.5 1.5-4.3 6.3 0 0 1.8-.9 3 2.8.5 1.3 1.1 2.6 1.8 3.7 1 1.6 2.5 2.8 4.3 3.4 0 0 9.1 7.2 26.4 2.3 0 0 4.8.8 5.6.2l-5.5-4.3s-3 4.2-7.2 4.5c0 0 7.2-4.2 6.4-5.2-.2-.2-3-2.1-3-2.1s-5.2 7.2-11.7 7.6c0 0 9.2-3.9 10.6-8.4l-4.5-2.7s-5.1 7.9-12.5 8.6c0 0 9.5-4.4 11.5-9.1l-4.8-2s-5.2 7.6-11.3 8.2c0 0 10.4-6.2 10.2-8.6 0 0-4.5-1.6-5.9-1.4 0 0-3.8 5.4-7.4 5.4 0 0 6.5-4.9 6.1-5.7 0 0-6.4-.5-9.8 1 3.1-1.5 6.4-2.2 9.8-2-1.3-1.6-3.1-2.8-5.1-3.4 0 0 3.6-1.4 6.7 3.5 0 0 5 .6 5.6 1.2 0 0-2.4-5.3-5.4-7.6 0 0 4.6.9 6.7 8l4.8 1.9s-2.8-7.1-5.4-9.4c0 0 4.6 1.7 6.5 10l4.5 2.5s-1.9-6.3-4.3-9.4c0 0 3.9 2.5 5.5 10.2l2.8 2s-1.5-4.6-2-5.9-.3-1.5-.3-1.5c1.9 2.4 3.1 5.2 3.5 8.3 0 .2 5.5 4.8 5.8 4.5z"/><ellipse class="st6" cx="201.9" cy="781.6" rx="23" ry="2.6"/><ellipse class="st6" cx="51.2" cy="737.9" rx="23" ry="2.6"/><ellipse class="st6" cx="714.2" cy="734.9" rx="23" ry="2.6"/><ellipse class="st6" cx="590.5" cy="793.7" rx="27.2" ry="4.7"/><path class="st0" d="M602.6 746.7s-37.9 19.6-18.3 42.6c0 0 1.8 5 7.2 4.7 0 0-1.1-1.9 3-3.5 1.4-.6 2.8-1.3 4.1-2.2 1.7-1.2 3-2.9 3.7-4.9 0 0 7.7-10.4 1.7-29.5 0 0 .8-5.4.1-6.3l-4.6 6.3s4.8 3.2 5.3 7.9c0 0-5-7.9-6-7-.2.2-2.3 3.5-2.3 3.5s8.2 5.6 8.8 12.8c0 0-4.6-10.2-9.7-11.6l-2.9 5.1s9 5.5 10 13.7c0 0-5.2-10.5-10.6-12.6l-2.1 5.4s8.7 5.5 9.5 12.4c0 0-7.3-11.5-9.9-11.1 0 0-1.6 5.1-1.4 6.7 0 0 6.1 4.1 6.2 8.1 0 0-5.7-7.2-6.5-6.7 0 0-.4 7.2 1.4 10.9 0 0-3-5.3-2.5-10.9-1.8 1.6-3 3.6-3.6 5.8 0 0-1.6-4 3.7-7.6 0 0 .5-5.6 1.1-6.3 0 0-5.8 2.8-8.3 6.3 0 0 .9-5.2 8.8-7.8l2-5.5s-7.9 3.3-10.3 6.3c0 0 1.8-5.2 10.9-7.6l2.7-5s-7 2.4-10.4 5c0 0 2.7-4.4 11.3-6.5l2.2-3.2s-5.1 1.8-6.5 2.5-1.7.3-1.7.3c2.6-2.2 5.7-3.6 9.1-4.1.1.2 5.1-6 4.8-6.4z"/><linearGradient id="SVGID_1_" gradientUnits="userSpaceOnUse" x1="635.23" y1="523.31" x2="635.23" y2="21.427" gradientTransform="translate(-88.58 -21.42)"><stop offset="0" stop-color="gray" stop-opacity=".25"/><stop offset=".54" stop-color="gray" stop-opacity=".12"/><stop offset="1" stop-color="gray" stop-opacity=".1"/></linearGradient><path d="M715 377.3c-6.5-17.8-42.5-19.4-58.2-14.9-11.1 3.2-34.5 6.9-47 8.7l-.8-.8c1.6-.5 1.7-1.7 1.5-3.4-.1-2.3-.1-4.6.1-6.9 7.7 2.4 14.5-3.3 14.5-3.3 9-4 6.6-21.1 8.3-25.8 1.3-3.5 2.7-24.1 3.3-34.4h.1l.1-3.5c.1-1.5.1-2.4.1-2.4s.9-25.1 2.6-30.2c1.6-4.7 2.9-28.3 3.1-32v-.4l-.1-2.2c.1-1.6.1-3.4.1-5.2 0-8.6-.9-19.3-1-21.1v-.9c.1-3.6-.4-21.9-15.9-28.8-5.7-2.6-12.6-5.6-19.3-8.6-1.7-14.9-5.7-29.6-5.3-44.6 0-2.3.2-4.5.4-6.7 0 .7-.1 1.3-.1 2v4.4c.6-18.7 7.7-37.5 7-55.8-.1 1.8-.2 3.6-.4 5.4.3-6.2-.3-12.4-1.9-18.4-.6-2.1-1.4-4.3-3.1-5.7-1.6-1.1-3.5-1.9-5.5-2.2-4.7-1.2-9.5-2.1-14.4-2.7-.7-2.3-1.8-4.4-3.2-6.3-10.1-13.9-25.2-27-42.9-30-8.9-1.5-19.2-.3-25.2 6.1-.6.6-1.3 1.2-1.8 1.8-3.3 3.9-4.7 9-8 12.9-.2.3-.5.5-.7.8-6.5 5.9-16.7 7.1-24 12.3-1.3.9-2.5 2-3.6 3.1-2.9 2.9-5.6 6.1-7.8 9.5-3.3 4.6-6.6 9.4-7.7 14.9-2.1 11 5.4 21.4 6.8 32.5 3.1 24.8-24.3 46.8-19.1 71.2 1.4 6 4.4 11.5 8.8 15.8-10.7 9.7-19.8 19.1-19.8 19.1v.6h-1.7l.2 2h-.2l.9 10.9-.9 15.8v1.5h.1c.3 5.8 1.5 26.6 3 31 1.7 5.1 2.6 30.2 2.6 30.2s1.9 35.5 3.6 40.2-.7 21.8 8.3 25.8c2.6 2 5.8 3.3 9.1 3.8-.5 3.7-.2 6.5 1.3 7.3.6.4 1.4.6 2.1.6-.6.9-1.2 1.9-1.6 2.9-3.6-.4-7.1-1.2-10.5-2.5-9.7-4-41.9-13-51.2-6.7s-31.9 12.1-21.5 37.5 15.2 26.1 15.2 26.1c3.2 2.3 6 5.1 8.3 8.4 3.1 4.7 32.2 15.4 39.5 15.4 3.1 0 6.2.1 9.3.5 0 0-7.9 6.9-6.8 10.9s-2.4 36.2-2.4 36.2 8 8.1 11.4-2.5l.1.2c.6.9 4.1 4.8 10.6-.2 2.7-2 5.5-3.8 8.5-5.4l31.5-4.5c3.3-.2 6.6-.2 9.9-.1 5 .4 9.9-2.5 13-4.8 6.5 2.5 13.9 5.2 17.4 6.2 7.1 2 39.6 10.7 47.2 8 1.6-.6 3-1.6 4.1-2.9l7.3.2-3.4.7s6.6.1 15.6.2l-.4.2 11.3-.1c16.5.1 35.1.2 37.5-.4 3.8-.9 23.7-.3 29.5 0h1.6s21.8-4.4 12.8-26.5c-6.9-17-28.2-21.9-37.6-23.3 2.7-.5 5-.9 6.5-1.2 6.6-1 19.4-7 20.4-9s11.8-8 14.5-11.4 10.5-27.3 4-45.1zM534.3 427l-1.1.4-.7.2-1.4 1.4c-1.1-.7-2.3-1.5-3.5-2.3 2.2.1 4.4.2 6.7.3z" fill="url(#SVGID_1_)"/><path class="st8" d="M598.1 321.6s15.3 40 24 36 6.3-21 8-25.7 3.5-40 3.5-40 .8-25 2.5-30.1c1.5-4.6 2.8-28.1 3-31.8v-.5l-1.7-29-9.3-2.3-21.7 8-3 17.1-1.2 6.7-.5 2.9-3.6 88.7z"/><path class="st3" d="M603.1 314.9s14.6 12 19 13 7.1 10.4 7.1 10.4"/><path class="st8" d="M478.4 323.3s-15.3 40-24 36-6.3-21-8-25.7-3.5-40-3.5-40-.8-25-2.5-30.1c-1.5-4.6-2.8-28.1-3-31.8v-.5l1.7-29 9.3-2.3 21.7 8 3 17.1 1.2 6.7.5 2.9 3.6 88.7z"/><path class="st9" d="M543.9 109.3h34.2v53.2h-34.2z"/><path class="st3" d="M543.9 109.3h34.2v53.2h-34.2z"/><path class="st10" d="M472.4 363.2s-11.7 12.8-7.3 15.2 32.3 46 32.3 46 92 11.3 109.4-5.7 17-47.4 17-47.4-13.9 3-15.5 1.4-9.9-9.5-9.9-9.5-118-7.2-126 0z"/><path d="M472.4 363.2s-11.7 12.8-7.3 15.2 32.3 46 32.3 46 92 11.3 109.4-5.7 17-47.4 17-47.4-13.9 3-15.5 1.4-9.9-9.5-9.9-9.5-118-7.2-126 0z" opacity=".02"/><path class="st8" d="M638 201l-30 24-9.1.7-3.3.2-55.9 4.1-58-4.2-8.6-.6-11-.8-23-22s16.3-17.4 30.5-29.2c5.6-4.6 10.9-8.4 14.8-9.9l.7-.2c2.4-.9 4.6-2.5 6.3-4.4 11.3-11.6 21.7-40.3 21.7-40.3s49.7-25.7 43.7 8 22.3 25.3 22.3 25.3l9.3 4.3 3.7 1.7 9.4 4.3 21.2 9.7C639.4 179.3 638 201 638 201z"/><circle class="st3" cx="537.4" cy="101.1" r="44.7"/><path class="st3" d="M638.1 232.8H437.4v-.5l1.7-29s16.3-17.4 30.5-29.2l126-5 5.9-6.2 21.2 9.7C639.4 180.3 638 202 638 202s2.3 25.1.1 30.8z"/><path class="st12" d="M638.1 231.8H437.4v-.5l1.7-29s16.3-17.4 30.5-29.2l126-5 5.9-6.2 21.2 9.7C639.4 179.3 638 201 638 201s2.3 25.1.1 30.8z"/><path class="st3" d="M505.2 150.5s31.7 40.3 73.8-.8 4.7 91.8 4.7 91.8l-91 10.8 12.5-101.8z"/><path class="st12" d="M505.2 152.5s31.7 40.3 73.8-.8 4.7 91.8 4.7 91.8l-91 10.8 12.5-101.8z"/><path class="st3" d="M592.1 159.6l3.3 51.1 3.6 17 2.7 13s7 100 5 105 1 9 1.4 11.7-.4 9.3-.1 12.3 0 4.3-7.7 3.3-18.3-2.9-18.3-2.9-27 2-36.3-1.3-27-3.3-27-3.3-26.7.7-35.3-.3-13.3 10.7-19 7.3 6.7-35.7 10.7-45-5.3-33-5.3-33l12-66.6 2.7-15.1v-47.4l.7-.2c2.4-.9 4.6-2.5 6.3-4.4l3 47.7 94 3.3v-53.7"/><path class="st12" d="M592.1 157.6l3.3 51.1 3.6 17 2.7 13s7 100 5 105 1 9 1.4 11.7-.4 9.3-.1 12.3 0 4.3-7.7 3.3-18.3-2.9-18.3-2.9-27 2-36.3-1.3-27-3.3-27-3.3-26.7.7-35.3-.3-13.3 10.7-19 7.3 6.7-35.7 10.7-45-5.3-33-5.3-33l12-66.6 2.7-15.1v-47.4l.7-.2c2.4-.9 4.6-2.5 6.3-4.4l3 47.7 94 3.3v-53.7"/><path class="st3" d="M602.9 51c-.6-2.1-1.4-4.3-3-5.7-1.6-1.1-3.4-1.9-5.3-2.2-4.6-1.2-9.2-2.1-13.9-2.7-.7-2.2-1.7-4.3-3-6.2-9.8-13.8-24.3-26.9-41.4-29.8-8.9-1.5-19.3-.2-25 6.9-3.1 3.9-4.5 9-7.7 12.8-6.1 7.4-17.1 8.3-24.8 14-4.1 3-7.1 7.3-10 11.6-3.1 4.6-6.4 9.3-7.4 14.8-2 10.9 5.2 21.3 6.5 32.3 3 24.6-23.4 46.5-18.4 70.8 2.9 14.2 16 24.1 29.5 29.2 4.8 1.8 10.2 3.6 12.5 8.1 1 2 1.2 4.3 2.1 6.3 3.2 6.7 13.5 7 19.1 2.1 5.6-4.9 7.3-12.9 8-20.3 2.7-32.4-10.3-64.3-8.8-96.8.5-9.8 3.2-20.9 12-25.4 11.8-6 26.1 4 39.1 2.1 6.2 15 7.5 31.5 3.7 47.3-2.1 8.6-5.7 17-5.9 25.9-.4 13.6 6.9 25.9 13.2 37.9 1.4 2.2 2.3 4.7 2.7 7.3.1 2.6-.4 5.2-1.4 7.6-3.6 9.6-9.7 18.5-10.4 28.8-.2 1.2.1 2.4.8 3.4.7.7 1.6 1.1 2.6 1.2 10.8 1.9 20.1-7.7 25.4-17.3 5.9-10.6 9.3-22.4 10-34.5 1.1-20.4-6.2-40.4-5.8-60.8.6-23.1 11.1-46.4 5-68.7z"/><path class="st9" d="M603.9 50c-.6-2.1-1.4-4.3-3-5.7-1.6-1.1-3.4-1.9-5.3-2.2-4.6-1.2-9.2-2.1-13.9-2.7-.7-2.2-1.7-4.3-3-6.2-9.8-13.8-24.3-26.9-41.4-29.8-8.9-1.5-19.3-.2-25 6.9-3.1 3.9-4.5 9-7.7 12.8-6.1 7.4-17.1 8.3-24.8 14-4.1 3-7.1 7.3-10 11.6-3.1 4.6-6.4 9.3-7.4 14.8-2 10.9 5.2 21.3 6.5 32.3 3 24.6-23.4 46.5-18.4 70.8 2.9 14.2 16 24.1 29.5 29.2 4.8 1.8 10.2 3.6 12.5 8.1 1 2 1.2 4.3 2.1 6.3 3.2 6.7 13.5 7 19.1 2.1 5.6-4.9 7.3-12.9 8-20.3 2.7-32.4-10.3-64.3-8.8-96.8.5-9.8 3.2-20.9 12-25.4 11.8-6 26.1 4 39.1 2.1 6.2 15 7.5 31.5 3.7 47.3-2.1 8.6-5.7 17-5.9 25.9-.4 13.6 6.9 25.9 13.2 37.9 1.4 2.2 2.3 4.7 2.7 7.3.1 2.6-.4 5.2-1.4 7.6-3.6 9.6-9.7 18.5-10.4 28.8-.2 1.2.1 2.4.8 3.4.7.7 1.6 1.1 2.6 1.2 10.8 1.9 20.1-7.7 25.4-17.3 5.9-10.6 9.3-22.4 10-34.5 1.1-20.4-6.2-40.4-5.8-60.8.6-23.1 11.1-46.4 5-68.7z"/><path fill="#c3c7d9" d="M584.1 488.9l39.6.5-6.2-29.3-30.4 3.5z"/><path class="st10" d="M704.7 423c-2.7 3.3-13 9.3-14 11.3s-13.3 8-19.7 9-26.3 5.3-30 7.7c-2.6 1.7-23.7 7-37.6 10-3.8.9-7.6 1.6-11.4 2-6 .3-71.7-22-71.7-22l12.7-13 .7-.2c3.6-1.2 20.1-6.8 29.3-9.5 10.3-3 22.3-15.3 22.3-15.3s17.7-6 20-6.7-6-23.3-6-23.3 38.3-5.3 53.3-9.8 49.7-2.8 56 14.8-1.2 41.7-3.9 45z"/><path class="st1" d="M530 479.3s-7.7 8-15.3 7.3-34.5 2-34.5 2c-4.9 1.9-9.4 4.6-13.5 7.8-6.3 4.9-9.6 1-10.2.2l-.1-.2c-3.3 10.5-11 2.5-11 2.5s3.3-32 2.3-36 6.6-10.9 6.6-10.9l9-2.3L486 444l32.7 11.3 11.3 24z"/><path class="st3" d="M463.2 449.8l-6.8 46.8-.1-.2c-3.3 10.5-11 2.5-11 2.5s3.3-32 2.3-36 6.6-10.9 6.6-10.9l9-2.2zm47.2-133.1s17.7 6 33 0m27.3 11.3s7.3 3.7 13 0m-13 8.7s12.3 1.6 14.7-1.7m-18.7 20.3s23.2-3 28.9-7m-99.6 0s13 7.3 22.7 7M603.4 461c-3.8.9-7.6 1.5-11.4 2-6 .3-71.7-22-71.7-22l12.7-13 .7-.2c2 1.4 3.6 2.6 4.8 3.5 5.5 4.3 10.8-1.3 12.8-1.3s19.4 14.3 19.4 14.3 16 3.7 18.7 7 12 2.7 13.7 5c.4.7.5 2.5.3 4.7z"/><path class="st10" d="M480.1 372.6s-16.2 1.3-25.6-2.5c-9.4-3.7-40.6-12.2-49.5-5.6-8.9 6.6-30.4 12.6-19.9 37.8 10.5 25.1 15.2 25.7 15.2 25.7 3.1 2.3 5.9 5 8.2 8.1 3.1 4.6 31.3 14.7 38.3 14.6s19.3-.4 36.9 11.3c17.6 11.6 33.2 12.7 33.2 12.7s22.2 8.6 29.1 10.4 38.4 9.9 45.6 7.1c7.3-2.8 11.6-19.6 11.6-19.6s3-15.1 1.3-17.4c-1.7-2.3-11-1.4-13.8-4.7s-18.8-6.6-18.8-6.6-17.5-14-19.5-13.9-7.2 5.8-12.8 1.6c-11.1-7.9-22.8-15-34.9-21.3-12.8-6.6-24.6-37.7-24.6-37.7z"/><path class="st3" d="M447.7 384c5.8-1.2 11.9.4 16.4 4.3 8 6.7 34.9 20.1 34.9 20.1m148.7-24.8s-35.7 5.4-42.3 12.7"/><path class="st1" d="M691 488h-1.6c-5.6-.1-24.8-.3-28.4.6-4.3 1.1-61.7 1.2-61.7 1.2l11.2-2.6s-4.5-14.5-1.8-15.8c0 0-15.2-9.6-4-16.5s23.4-4.3 23.4-4.3l28.2-10.2 5.4-2s32 1 41.1 22.8C711.9 483.3 691 488 691 488z"/><path class="st3" d="M688.7 494h-1.6c9.3-7.7 30.4-31.1-32.2-48.1l5.5-1.9s32 1.7 40.7 23.7-12.4 26.3-12.4 26.3z"/><circle class="st10" cx="629.9" cy="466.3" r="1.8"/><circle class="st10" cx="619.7" cy="469.2" r="1.8"/><path d="M570.2 99.4c.4-11-1.6-22-5.7-32.1-13 1.9-27.2-8.1-39.1-2.1-8.8 4.4-11.5 15.6-12 25.4-.1 2.6-.1 5.2-.1 7.8 0-.9 0-1.8.1-2.8.5-9.8 3.2-20.9 12-25.4 11.8-6 26.1 4 39.1 2.1 3.5 8.6 5.4 17.8 5.7 27.1zm-100.8-1.8c.2-2.2.1-4.4-.1-6.5-1.1-8.8-5.9-17.2-6.7-25.8-1.1 10.3 5.4 20.3 6.7 30.8.1.4.1.9.1 1.5zm52.7 89.7c-.6 7.4-2.4 15.4-8 20.3s-16 4.6-19.1-2.1c-1-2-1.1-4.3-2.1-6.3-2.2-4.6-7.7-6.4-12.5-8.1-13.5-5.1-26.6-15-29.5-29.2-.3-1.3-.4-2.6-.5-3.9-.2 3-.1 6 .5 8.9 2.9 14.2 16 24.1 29.5 29.2 4.8 1.8 10.2 3.6 12.5 8.1 1 2 1.2 4.3 2.1 6.3 3.1 6.7 13.5 7 19.1 2.1 5.6-4.9 7.3-12.9 8-20.3.3-3.9.4-7.8.3-11.7 0 2.3-.1 4.5-.3 6.7zm77.2-73.2v4.3c.6-18.6 7.4-37.3 6.7-55.5-.5 16.8-6.3 34.1-6.7 51.2zm-21.4 75.2c.2-1.2.3-2.4.2-3.6-.4-2.6-1.3-5.1-2.7-7.3-5.8-11-12.4-22.3-13.2-34.5 0 .5-.1 1-.1 1.6-.4 13.5 6.9 25.9 13.2 37.9 1.2 1.8 2 3.8 2.6 5.9zm27.2-14.5c-.7 12.1-4.2 23.9-10.1 34.5-5.3 9.6-14.6 19.2-25.4 17.3-1-.1-1.9-.5-2.6-1.2-.2-.2-.4-.5-.5-.8l-.3 2.4c-.2 1.2.1 2.4.8 3.4.7.7 1.6 1.1 2.6 1.2 10.8 1.9 20.1-7.7 25.4-17.3 5.9-10.6 9.3-22.4 10.1-34.5.1-2.3.1-4.7.1-7-.1.7-.1 1.4-.1 2z" opacity=".1"/><path d="M606.7 475.9s25.3 10.6 42-12.9m-37 31.4s20.7-13.4 47-.4m-185.3-2.6s8.7-19.6 31.9-4.6" opacity=".1" fill="none" stroke="#000" stroke-miterlimit="10"/><path class="st3" d="M445.2 201.8l17.7-16s68.6-4.5 71.5 18.8c0 0 24.3-27.7 75.5-21.5l21.7 17.2-59.8 26.3-58.2 20.2-42.8-19.2-25.6-25.8z"/><path class="st2" d="M445.2 202.8l17.7-16s68.6-4.5 71.5 18.8c0 0 24.3-27.7 75.5-21.5l21.7 17.2-59.8 26.3-58.2 20.2-42.8-19.2-25.6-25.8z"/><path class="st3" d="M437.4 204.8l7.8 93.7 83 4.2-3.6-93.3-.1-1.6z"/><path class="st0" d="M437.4 202.8l7.8 93.7 83 4.2-3.6-93.3-.1-1.6z"/><path class="st3" d="M635.3 202.8l-85.6 12.9v94.1l83.7-12.1z"/><path class="st0" d="M635.3 200.8l-85.6 12.9v94.1l83.7-12.1z"/><path class="st4" d="M615.1 223.8l-46.2 5.1 1 15.8 45.2-4.9z"/><path class="st8" d="M449.7 346.7l4.7 12.7s7 6 14.7 3 14.3-4.5 17.7-7.4 8-17.6 8-17.6 4.7-16 9.3-20 17-59.1 0-53.7-30 55.4-30 55.4-3 3.7-7.3 4-13-.7-14.7 3-7.4 13.2-2.4 20.6z"/><path class="st3" d="M549.7 215.7c-8.9 2-18.2-.3-25.1-6.3l3.6 93.3s8.5 9.2 21.5 7.1v-94.1z"/><path class="st0" d="M549.7 213.7c-8.9 2-18.2-.3-25.1-6.3l3.6 93.3s8.5 9.2 21.5 7.1v-94.1z"/><path class="st3" d="M549.7 213.7c-8.9 2-18.2-.3-25.1-6.3l3.6 93.3s8.5 9.2 21.5 7.1v-94.1zm2-10.6s34.8-10.6 43.9-9.1m-82.8 4.5s-33.8-8-39.4-5.7m100.3 11.7s23.3-8.5 31.7-4.5m-43.5 218.7c3.6-2.7 7.5-5.1 11.5-7.1 6-2.9 17-10.4 17-10.4m-117-84.5s-14.6 12-19 13-7.1 10.4-7.1 10.4"/><path class="st8" d="M626.7 344.9l-4.7 12.7s-7 6-14.7 3-14.3-4.5-17.7-7.4-8-17.6-8-17.6-4.7-16-9.3-20-17-59.1 0-53.7 30 55.4 30 55.4 3 3.7 7.3 4 13-.7 14.7 3 7.4 13.3 2.4 20.6z"/><path class="st3" d="M618.6 321.5s9.5 6.1 9.5 13.5"/><circle class="st8" cx="537.5" cy="98.9" r="44.7"/><path class="st9" d="M509.5 86.9c5.4-.8 10.2-4 15.3-5.8 11.6-4.1 24.4-1.3 36.2 2.4 4.5 1.4 9.1 3 13.8 3s9.7-1.9 12.1-6c2.2-3.7 1.8-8.6-.1-12.5s-5-7.1-8.2-10.1c-10.4-9.8-23.3-19-37.6-18-5.7.4-11.2 2.5-16.5 4.7-6.6 2.9-13.1 6.1-19.4 9.8-4.8 2.8-13.7 6.5-16.5 11.6-6.2 11.5 11.1 22.4 20.9 20.9z"/><path class="st3" d="M586.9 76.3c-2.4 4.1-7.4 6-12.1 6s-9.3-1.5-13.8-2.9c-11.7-3.7-24.5-6.5-36.1-2.4-5.2 1.8-9.9 5-15.4 5.8-7.9 1.2-20.6-5.6-22-14.4-1.5 10.1 13.2 18.8 22 17.4 5.4-.8 10.2-4 15.4-5.8 11.6-4.1 24.4-1.3 36.1 2.4 4.5 1.4 9.1 3 13.8 2.9s9.7-1.9 12.1-6c1.2-2.2 1.7-4.8 1.4-7.3-.1 1.5-.6 2.9-1.4 4.3z"/><text transform="matrix(.9888 .2097 -.04994 .9988 232.73 484.29)" class="st1 st16 st17">Ass</text><text transform="matrix(.9888 .2097 -.04994 .9988 333.056 505.572)" class="st1 st16 st17">e</text><text transform="matrix(.9888 .2097 -.04994 .9988 366.063 512.573)" class="st1 st16 st17">ts</text><text transform="matrix(.9888 .2097 -.04994 .9988 213.19 589.8)" class="st18 st16 st17">H</text><text transform="matrix(.9888 .2097 -.04994 .9988 257.245 599.145)" class="st18 st16 st17">ol</text><text transform="matrix(.9888 .2097 -.04994 .9988 307.14 609.73)" class="st18 st16 st17">oL</text><text transform="matrix(.9888 .2097 -.04994 .9988 372.688 623.633)" class="st18 st16 st17">ens</text><text transform="matrix(.9888 .2097 -.04994 .9988 112.56 684.6)" class="st1 st16 st17">Scri</text><text transform="matrix(.9888 .2097 -.04994 .9988 214.004 706.119)" class="st1 st16 st17">p</text><text transform="matrix(.9888 .2097 -.04994 .9988 248.457 713.427)" class="st1 st16 st17">ting</text></svg>