<svg data-name="Layer 1" xmlns="http://www.w3.org/2000/svg" viewBox="0 0 100 100"><path d="M13.83 18.11l6.54 19.61L1.88 47a3.38 3.38 0 000 6l18.49 9.24-6.54 19.65a3.38 3.38 0 004.28 4.28l19.61-6.54L47 98.13a3.38 3.38 0 006.05 0l9.24-18.49 19.63 6.53a3.38 3.38 0 004.28-4.28l-6.58-19.61L98.13 53a3.38 3.38 0 000-6.05l-18.49-9.21 6.54-19.62a3.38 3.38 0 00-4.28-4.28l-19.61 6.55L53.05 1.9a3.38 3.38 0 00-6 0l-9.29 18.49-19.61-6.55a3.38 3.38 0 00-4.32 4.27zm18.49 14.21a25 25 0 110 35.36 25 25 0 010-35.36zm15.34.68a14.7 14.7 0 01-12.15 26.3.87.87 0 00-.95 1.34 18.41 18.41 0 002.19 2.63 18.75 18.75 0 1011.33-31.9.88.88 0 00-.42 1.63z" fill="#fff"/></svg>