<svg version="1.1" id="_x30_8eab577-e723-4d12-b868-9f4caa103b0f" xmlns="http://www.w3.org/2000/svg" x="0" y="0" viewBox="0 0 1000 600" xml:space="preserve"><style>.st0{fill:#5f5f66}.st1{fill:#3d2a79}.st3{fill:#e7effd}.st5{opacity:.4;enable-background:new}.st6{fill:#5b58a6}.st8{fill:#33ded2}.st9{opacity:.1;enable-background:new}.st10{fill:#fcd5d2}.st12{fill:#6c6ca3}.st13{fill:#3f3d56}.st16{fill:#757682}.st17{fill:#b2837d}</style><path class="st0" d="M1000 421.4c-28.7 192.8 98.9 175.9-496.7 176.5-597.8 0-471.2 13.5-502.7-207.7-7.3-36.9 226.8 71.1 502.7 71.1s498.1-77.6 496.7-39.9z"/><path class="st1" d="M1000 419.5v1.4c-.6 14.8-9.9 29.5-26.7 39.9-17.9 11-41.9 16.8-66.6 20.5-3.9.6-7.7 1.1-11.6 1.6-2 .2-3.9.5-5.9.7-54.9 6.4-111 7.6-166.7 8.8-58.4 1.3-116.8 2.6-175.1 3.2l-11.6.1c-88.6.9-177.2.1-265.5-4.3-27.4-1.4-55.1-3.2-82.3-6.3-3.9-.4-7.7-.9-11.6-1.4-36-4.6-71-11.7-102.9-23.1-7.5-2.7-14.9-5.7-22-9.1-20-9.5-36.9-21.4-45.2-36.1-4.9-8.6-6.9-18.3-5.8-27.9.4-3.5 1-6.9 2-10.3 2.5-8.4 6.3-16.4 11.4-23.8 13-19.6 32.6-37.2 49.4-55.6 36-39.2 59.4-88.8 26.2-129-9.5-11.5-23.3-21.7-31.1-33.7-4.2-6.5-6.7-13.7-7.6-21.2-.4-3.4-.6-6.9-.5-10.3.4-8.1 1.5-16.1 3.4-23.9 5.4-24.6 15.5-51.2 46.7-66.6C121.7 2.6 148.8-.7 176.4 0c3.9.1 7.7.2 11.6.5 10.6.6 21 1.8 31.2 3.2 62.6 8.9 120.3 27.5 178.5 44.3 44.4 12.8 90.4 24.7 138.1 30.4 3.9.5 7.7.9 11.6 1.3 11.2 1.1 22.5 1.8 33.8 2.1 56.6 1.4 122.6-9.5 160.1-37.8C777.6 16.6 845.7 14.4 895 30.8l.7.2c3.7 1.3 7.3 2.6 10.8 4.1 36.4 15.2 60.8 41.4 64.2 68.7.4 3.4.5 6.8.3 10.2v.1c-2.4 33.6-33.2 61.8-64.5 90.1-3.9 3.5-7.8 7-11.6 10.5-10.2 9.3-20 18.7-28.6 28.3-3.9 4.4-7.5 9-10.7 13.7-3 4.4-5.5 9-7.6 13.8-2.2 5-3.6 10.2-4.2 15.5-.9 7.6.7 15.3 4.5 22.1l.1.2c8.4 14.8 26.1 25.2 46.5 34.5 3.8 1.7 7.7 3.4 11.6 5 22.2 9.3 46.2 18 64.4 29.5 4.9 3 9.5 6.5 13.7 10.3 1.7 1.6 3.3 3.2 4.8 5 6.6 7.5 10.3 16.7 10.5 26.2.1.3.1.5.1.7z"/><linearGradient id="SVGID_1_" gradientUnits="userSpaceOnUse" x1="545.213" y1="803.858" x2="545.213" y2="307.74" gradientTransform="translate(-45.11 -307.83)"><stop offset=".245" stop-color="#fff" stop-opacity=".3"/><stop offset=".594" stop-color="#68608c" stop-opacity=".6"/><stop offset=".862" stop-color="#070611" stop-opacity=".8"/></linearGradient><path d="M1000 419.5v1.4c-.6 14.8-9.9 29.5-26.7 39.9-17.9 11-41.9 16.8-66.6 20.5-3.9.6-7.7 1.1-11.6 1.6-2 .2-3.9.5-5.9.7-54.9 6.4-111 7.6-166.7 8.8-58.4 1.3-116.8 2.6-175.1 3.2l-11.6.1c-88.6.9-177.2.1-265.5-4.3-27.4-1.4-55.1-3.2-82.3-6.3-3.9-.4-7.7-.9-11.6-1.4-36-4.6-71-11.7-102.9-23.1-7.5-2.7-14.9-5.7-22-9.1-20-9.5-36.9-21.4-45.2-36.1-4.9-8.6-6.9-18.3-5.8-27.9.4-3.5 1-6.9 2-10.3 2.5-8.4 6.3-16.4 11.4-23.8 13-19.6 32.6-37.2 49.4-55.6 36-39.2 59.4-88.8 26.2-129-9.5-11.5-23.3-21.7-31.1-33.7-4.2-6.5-6.7-13.7-7.6-21.2-.4-3.4-.6-6.9-.5-10.3.4-8.1 1.5-16.1 3.4-23.9 5.4-24.6 15.5-51.2 46.7-66.6C121.7 2.6 148.8-.7 176.4 0c3.9.1 7.7.2 11.6.5 10.6.6 21 1.8 31.2 3.2 62.6 8.9 120.3 27.5 178.5 44.3 44.4 12.8 90.4 24.7 138.1 30.4 3.9.5 7.7.9 11.6 1.3 11.2 1.1 22.5 1.8 33.8 2.1 56.6 1.4 122.6-9.5 160.1-37.8C777.6 16.6 845.7 14.4 895 30.8l.7.2c3.7 1.3 7.3 2.6 10.8 4.1 36.4 15.2 60.8 41.4 64.2 68.7.4 3.4.5 6.8.3 10.2v.1c-2.4 33.6-33.2 61.8-64.5 90.1-3.9 3.5-7.8 7-11.6 10.5-10.2 9.3-20 18.7-28.6 28.3-3.9 4.4-7.5 9-10.7 13.7-3 4.4-5.5 9-7.6 13.8-2.2 5-3.6 10.2-4.2 15.5-.9 7.6.7 15.3 4.5 22.1l.1.2c8.4 14.8 26.1 25.2 46.5 34.5 3.8 1.7 7.7 3.4 11.6 5 22.2 9.3 46.2 18 64.4 29.5 4.9 3 9.5 6.5 13.7 10.3 1.7 1.6 3.3 3.2 4.8 5 6.6 7.5 10.3 16.7 10.5 26.2.1.3.1.5.1.7z" fill="url(#SVGID_1_)"/><path class="st0" d="M906.6 35.1v169.1c-3.9 3.5-7.8 7-11.6 10.5V30.8l11.6 4.3z"/><path class="st0" d="M971.2 114l-920.6.1c-.4-3.4-.6-6.9-.5-10.3h920.8c.4 3.4.5 6.8.3 10.2z"/><ellipse class="st3" cx="223.4" cy="31.6" rx="3.4" ry="3"/><ellipse class="st3" cx="109.2" cy="51.6" rx="3.4" ry="3"/><ellipse class="st3" cx="455.9" cy="141.5" rx="1.5" ry="1.4"/><ellipse class="st3" cx="146.9" cy="54.6" rx="1.5" ry="1.3"/><ellipse class="st3" cx="145.5" cy="144.8" rx="1.5" ry="1.3"/><ellipse class="st3" cx="814.6" cy="76.7" rx="1.5" ry="1.3"/><ellipse class="st3" cx="323.3" cy="77.8" rx="1.5" ry="1.3"/><ellipse class="st3" cx="743.1" cy="75.3" rx="1.5" ry="1.3"/><ellipse class="st3" cx="925.7" cy="79.1" rx="1.5" ry="1.3"/><path class="st1" d="M1000 419.5v1.4c-.5 14.9-9.7 29.8-26.7 40.2-17.9 11-41.9 16.8-66.6 20.5-3.9.6-7.7 1.1-11.6 1.6-2 .2-3.9.5-5.9.7-13.5 1.6-27.1 2.8-40.7 3.9-18.3 1.4-36.7 2.3-55.1 3-23.6.9-47.3 1.4-70.9 2-46.2 1-92.5 2-138.8 2.7l-16.4.2-20 .2-11.6.1c-73 .7-145.9.3-218.6-2.3-4.8-.2-9.7-.4-14.5-.6-10.8-.4-21.6-.9-32.4-1.5-21.7-1.1-43.5-2.5-65.1-4.5-5.7-.5-11.4-1.1-17.1-1.8-3.9-.4-7.7-.9-11.6-1.4-4.3-.5-8.6-1.1-12.8-1.7-31.5-4.6-62-11.2-90.1-21.4-7.5-2.7-14.9-5.7-22.1-9.1V310.8c4-4.1 8-8.3 11.8-12.4 4.6-5 9-10.2 13.1-15.5h87.2V235H317v105.2h250.2v-83.4h288.7c-2.9 4.3-5.5 8.7-7.6 13.4v.4h-.3c-2.2 5-3.6 10.2-4.2 15.5-.9 7.6.7 15.3 4.5 22.1v.3l.1.2c8.4 14.8 26.1 25.2 46.5 34.5 3.8 1.7 7.7 3.4 11.6 5 22 9.2 45.7 17.8 63.8 29.2l.5.3c4.8 2.9 9.2 6.3 13.3 9.9.1.1.3.2.4.3 1.7 1.6 3.3 3.2 4.8 5 6.6 7.4 10.3 16.5 10.5 25.9.2.3.2.5.2.7z"/><path d="M1000 419.5v1.4c-.5 14.9-9.7 29.8-26.7 40.2-17.9 11-41.9 16.8-66.6 20.5-3.9.6-7.7 1.1-11.6 1.6-2 .2-3.9.5-5.9.7-13.5 1.6-27.1 2.8-40.7 3.9-18.3 1.4-36.7 2.3-55.1 3-23.6.9-47.3 1.4-70.9 2-46.2 1-92.5 2-138.8 2.7l-16.4.2-20 .2-11.6.1c-73 .7-145.9.3-218.6-2.3-4.8-.2-9.7-.4-14.5-.6-10.8-.4-21.6-.9-32.4-1.5-21.7-1.1-43.5-2.5-65.1-4.5-5.7-.5-11.4-1.1-17.1-1.8-3.9-.4-7.7-.9-11.6-1.4-4.3-.5-8.6-1.1-12.8-1.7-31.5-4.6-62-11.2-90.1-21.4-7.5-2.7-14.9-5.7-22.1-9.1V310.8c4-4.1 8-8.3 11.8-12.4 4.6-5 9-10.2 13.1-15.5h87.2V235H317v105.2h250.2v-83.4h288.7c-2.9 4.3-5.5 8.7-7.6 13.4v.4h-.3c-2.2 5-3.6 10.2-4.2 15.5-.9 7.6.7 15.3 4.5 22.1v.3l.1.2c8.4 14.8 26.1 25.2 46.5 34.5 3.8 1.7 7.7 3.4 11.6 5 22 9.2 45.7 17.8 63.8 29.2l.5.3c4.8 2.9 9.2 6.3 13.3 9.9.1.1.3.2.4.3 1.7 1.6 3.3 3.2 4.8 5 6.6 7.4 10.3 16.5 10.5 25.9.2.3.2.5.2.7z" opacity=".3"/><path class="st5" d="M79.9 302.3h25.8v15.5H79.9zm41.2 0h25.8v15.5h-25.8zm473.5-31.8h25.8V286h-25.8zm69.6 0H690V286h-25.8zm74.7 0h25.8V286h-25.8zm-144.3 47.3h25.8v15.5h-25.8zm69.6 0H690v15.5h-25.8z"/><path class="st6" d="M738.9 317.8h25.8v15.5h-25.8z"/><path class="st5" d="M594.6 365.1h25.8v15.5h-25.8zm69.6 0H690v15.5h-25.8zm74.7 0h25.8v15.5h-25.8zm-144.3 47.4h25.8V428h-25.8zm69.6 0H690V428h-25.8zm74.7 0h25.8V428h-25.8zm-144.3 47.3h25.8v15.5h-25.8zm69.6 0H690v15.5h-25.8zm74.7 0h25.8v15.5h-25.8zm109.2-189.3c-2.2 5-3.6 10.2-4.2 15.5h-14.1v-15.5h18.3z"/><path class="st6" d="M829.7 317.8h25.8v15.5h-25.8z"/><path class="st5" d="M829.7 365.1h25.8v15.5h-25.8zm0 47.4h25.8V428h-25.8zm0 47.3h25.8v15.5h-25.8zM222.9 252.4h25.8v15.5h-25.8z"/><path class="st6" d="M222.9 287.1h25.8v15.5h-25.8z"/><path class="st5" d="M222.9 321.9h25.8v15.5h-25.8zm0 34.7h25.8v15.5h-25.8zm0 34.7h25.8v15.5h-25.8zm0 34.7h25.8v15.5h-25.8zm0 34.7h25.8v15.5h-25.8zm-143-117.9h25.8v15.5H79.9zm41.2 0h25.8v15.5h-25.8zm-41.2 40.5h25.8v15.5H79.9zm41.2 0h25.8v15.5h-25.8zm-41.2 40.4h25.8v15.5H79.9zm41.2 0h25.8v15.5h-25.8zm247.4-65.5h128.8V372H368.5zm0 44.2h128.8v13.8H368.5zm0 44.2h128.8v13.8H368.5z"/><path class="st0" d="M187.7.6v484.6c-3.9-.4-7.7-.9-11.6-1.4V.1c3.9 0 7.8.2 11.6.5zm359.5 79.1v416l-11.6.1V78.4c3.8.5 7.7.9 11.6 1.3z"/><path class="st0" d="M984.6 387.7H.5c.4-3.5 1-6.9 2-10.3H971c4.9 3 9.5 6.5 13.6 10.3z"/><path class="st0" d="M895 342.8c3.8 1.7 7.7 3.4 11.6 5v133.5c-3.9.6-7.7 1.1-11.6 1.6V342.8z"/><path class="st3" d="M270.7 184.4h-2v-2h-.4v2h-1.9v.3h1.9v2h.4v-2h2zm410.2-41h-2v-2h-.3v2h-2v.3h2v2h.3v-2h2zm-363.5-8h-2v-2h-.3v2h-2v.3h2v2h.3v-2h2z"/><circle class="st3" cx="357.4" cy="259.5" r="1.3"/><circle class="st3" cx="609" cy="146.1" r="1.3"/><circle class="st3" cx="738.8" cy="207.3" r="1.3"/><circle class="st3" cx="527.5" cy="218.4" r="1.3"/><linearGradient id="SVGID_2_" gradientUnits="userSpaceOnUse" x1="778.698" y1="845.326" x2="778.698" y2="520.538" gradientTransform="translate(-45.11 -307.83)"><stop offset="0" stop-color="gray" stop-opacity=".25"/><stop offset=".54" stop-color="gray" stop-opacity=".12"/><stop offset="1" stop-color="gray" stop-opacity=".1"/></linearGradient><path d="M829.7 442s-20 4.8-28 13.9c-2.6 3-6.5 5.2-10.7 6.7V449c4.6-7.6 9.2-16.2 9.2-16.2.3-.4 1.8-6.3 1.8-6.3 3.8-2.9-.3-13.2-.3-13.2s2.4-6.5 1-7.7c-1.3-1.3-.3-4.6.8-6 1-1.4.8-3.4.8-4.6s-1.7-3.1-4.4-4.2c-2.7-1 .3-2.7 1.8-3.1 1.7-.4 2.1-4.4.3-6.5s.3-3.4 1.3-5.6c1-2.4-3.4-1.8-3.4-1.8v-21.2s-1.3-6.9-2.5-19.1c-1.3-12.2-6-13.3-6-13.3-2.6-.8-5.1-1.8-7.5-2.9-2.6-1.2-5.2-2.2-8-2.9 0 0-5.6 0-10.2-1.4s-6.9-1.4-6.9-1.4l-.8-.4c-5.6-2.9-10.1-7.6-12.7-13.3-.1-.3-.3-.5-.4-.9 1.3-1.3 2.4-2.9 3.4-4.4v2.6c3.3-5.9 12.9-7.2 13.9-13.9v-1.6c-.1-1.8-.8-3.7-.9-5.6v-1.6c.4-5.2 4.3-9.7 6.1-14.8.5-1.3.8-2.7.9-4.2 0-.4.1-.9.1-1.3V251c-.1-5.4-2.5-10.6-6.5-14.1-3.3-2.9-7.7-4.7-10.1-8.4-1-1.7-1.6-3.8-2.7-5.5-2.2-3.1-6.3-4.4-10.1-5-3.8-.5-7.8-.3-11.5-1.4-2.6-.8-5-2.4-7.6-3.1-5.9-1.6-12 .7-15.6 5.6-1.4 2-2.4 4.4-4.2 6-3.8 3.3-10.3 1.8-13.7 5.5-1.8 2.1-2.1 4.8-1.8 7.6v1.5c.1 1 .3 2 .4 3v.4l.1.9v2.2c.4 7.7-1.3 15.4-4.8 22.4-3.1 6.1-7.8 11.8-8.6 18.7-.1 1.2-.1 2.2-.1 3.4v1.1c0 .3 0 .5.1.7v.4c0 .3.1.7.1.9v.3c.8 4.7 2.7 9.3 3.7 14 .4 1.7.7 3.5.8 5.4 0 .5 0 1.2.1 1.7v2.4c-1.6.7-3.3 1-4.8 1.4-2.9.4-11.5 8-10.8 9.8.7 2-3.8 15-3.9 15.4l-7.1 48.1s-3.7 3.5-2.6 5.9c1.2 2.4-.3 6.3-.3 6.3s-6.3 2.7-4.8 4.4c1.4 1.7.8 4.8-.3 6.9-.9 2.1-2.5 5.9 0 6.5 2.5.7.4 8.8.4 8.8s8.8-1 8.2 4.2c-.3 1.7 6.1 6.1 8.8 8v25c-3.5-1-7.7-2.2-10.5-3.5-5.5-2.5-35.9-7.3-42.6 7.1-6.7 14.5 9.2 33.7 13.2 35.8 0 0 3.8 2.9 4.6 4.4.8 1.4 5.6 1.8 5.6 1.8s5 2.4 6.3 3.5c.9.9 8.5 3.4 17.6 5.2 0 0-7.3 16.7 4.6 15.3 11.9-1.4 17.8-7.2 26.1-7.2 3.4 0 9.5-.5 15.8-1 1.6.3 3.1.7 4.7 1 3.5 1 7.2 1.8 10.8 2.4 0 0 9.4 5 14.4 3.8.4-.1.8-.3 1.2-.5h.1c.9-.3 2-1.2 3-2.6 6.3.7 13.5 1.6 16.1 2.6 5.2 2 42.4-.8 42.4-.8s24.1.5 30.8 2.5c6.8 2 4.4-21-8.2-23.7-3.4-.7-6.8-1-10.3-1 .9-.9 1.7-1.8 2.4-2.9 4.6-.4 7.6-.7 7.6-.7s12.2-5.9 19-9.4c4.4-2.4 8.4-5.5 11.6-9.2 0 0 6-3.8 8.5-5.2 2.5-1.4 3.8-6.3 3.8-6.3 20.1-43.5-28.1-37.7-28.1-37.7zm-54.2-53.6v-2.1c.6.4.5 1.1 0 2.1zm.1 14.7c.5.7 1 1.3 1.3 1.7 1.3 1.7-1 2.6-.9 5.5 0 .7.1 1.6.1 2.5-.1-4-.4-7.6-.5-9.7z" fill="url(#SVGID_2_)"/><path class="st8" d="M667 468.8s-11.6-2.7-17.1-5.2-35.9-7.3-42.6 7.1c-6.7 14.4 9.2 33.6 13.2 35.7s42.6-26.5 42.6-26.5l30.5 12.8 5.9-20-32.5-3.9z"/><path class="st8" d="M701.3 472.7h89.5c11.9 0 21.6 9.7 21.6 21.6v3.1c0 11.9-9.7 21.6-21.6 21.6h-89.5c-11.9 0-21.6-9.7-21.6-21.6v-3.1c.2-12 9.7-21.6 21.6-21.6z"/><path class="st9" d="M812.4 495.8c0 4.6-1.3 9-3.8 12.8-.9 1.3-1.8 2.5-2.9 3.5-4.3 4.3-10.2 6.8-16.3 6.8H703c-12.7 0-23-10.3-23-23s10.3-23 23-23h86.4c12.7-.2 23 10.1 23 22.9z"/><path class="st10" d="M740.3 497.1s-13.3 3.4-24.2 3.3c-10.8-.1-61.6 20.9-61.6 20.9s-7.3 16.6 4.6 15.3c11.9-1.4 17.8-7.2 26.1-7.2 8.4 0 34.9-2.9 34.9-2.9l25.5-18.8-5.3-10.6z"/><path d="M748.5 340l-23.8 4.7-1.6.3s-18.8-5-19.5-5.5c-.7-.4-17.8-23.5-17.8-23.5s8.6.1 15.4-3.8c.3-.1.5-.3.8-.4 3-1.8 5.2-4.6 6.4-7.8.1-.4.3-.7.4-1 .8-2.7.8-6.1-.3-10.3-2.4-9.7 3-12.4 10.2-12.2 10.3.4 24.3 6.8 24.3 6.8.1 3.3.9 6.5 2.2 9.5.1.3.3.5.4.9 2.6 5.8 7.1 10.5 12.7 13.3l.8.4c.8.4 1.6.7 2.4 1 18.1 6.7-13 27.6-13 27.6z" fill="#f4d0ce"/><path class="st9" d="M745.7 297.5c-9.3 10.6-24.8 13.2-37.1 6.4 1-3 1.2-6.7.1-11.4-5.6-23.8 34.5-5.5 34.5-5.5.1 3.7 1 7.2 2.5 10.5z"/><path class="st10" d="M753.2 276.3c0 5.6-1.6 11.1-4.6 15.9-.9 1.6-2.1 3-3.4 4.4-5.2 5.8-12.5 9.3-20.4 9.7H723c-16.6 0-30.1-13.5-30.1-30.1s13.5-30.1 30.1-30.1c16.8.2 30.2 13.6 30.2 30.2z"/><path class="st9" d="M748.5 340l-23.8 4.7-1.6.3s-18.8-5-19.5-5.5c-.7-.4-17.8-23.5-17.8-23.5s8.6.1 15.4-3.8c.3-.1.5-.3.8-.4 2.2 2.4 9.3 8.9 20.4 8.9 1.4 0 2.9-.1 4.3-.3 3.4-.5 6.8-.8 10.1-1.2 6.4-.7 16.3-2.6 21.6-8.4l.8.4c.8.4 1.6.7 2.4 1 18 6.9-13.1 27.8-13.1 27.8z"/><path class="st12" d="M775.5 400.9c.3 4.6 3.5 56.3 3.5 56.3H674.8l.7-32.5.5-26 .1-8.5.8-29.7-3-2.6-16.1-14.6c.1-.4 4.6-13.6 3.9-15.4-.7-1.8 8-9.4 10.8-9.8 1.7-.4 3.3-.9 4.8-1.4 5-1.7 11.5-4.3 12.2-3.9 1 .5 11.2-.4 11.6-.4 0 0 7.6 9.8 21 9.7 1.4 0 2.9-.1 4.2-.4 3.4-.5 6.8-.8 10.1-1.2 6.8-.7 17.4-2.9 22.4-9.3 0 0 2.4.1 6.9 1.4 4.6 1.4 10.2 1.4 10.2 1.4 2.7.8 5.4 1.7 8 2.9 2.5 1.2 5 2.1 7.5 2.9 0 0 4.8 1.3 6 13.3 1.3 12.2 2.5 19 2.5 19l-24.8 21.4c.4.2.2 22.8.4 27.4z"/><path class="st10" d="M657.8 437l3.7 5.9 13.6 4.8 9.4-17.1-8.6-5.9-13.9-5.5-8 4.7z"/><path class="st8" d="M774.4 465.7s19.3-1.4 27.3-10.5c8-9 28-13.7 28-13.7s48.2-5.6 29.1 37c0 0-1.3 4.8-3.8 6.3-2.5 1.4-8.5 5.2-8.5 5.2l-74.1-6.4 2-17.9z"/><path class="st9" d="M812.4 495.8c0 4.6-1.3 9-3.8 12.8-12.4 1-40 3.7-45.9 5.4-7.1 2-21.4-1.4-23-1.8h-.1s-2.7-8.4-4.1-13.7c-.5-2.5-.9-4.3-.5-4.4 1.3-.4 12.7-3.5 12.5-1.7-.3 1.8 34.5-13.5 34.5-13.5l1 13.3c3.6 3.7 29.4-2.3 29.4 3.6z"/><path class="st8" d="M848.1 484.6l-1.4 5.5c-3.4 3.7-7.3 6.8-11.6 9.2-6.9 3.5-19 9.4-19 9.4s-44.4 3.8-52 5.9c-7.5 2.1-23.1-1.8-23.1-1.8s-5.9-17.8-4.6-18.2c1.3-.4 12.7-3.5 12.5-1.7-.3 1.8 34.5-13.5 34.5-13.5l64.7 5.2z"/><path class="st10" d="M724.3 531.4s21.8 1.6 27.1 3.5c5.2 2 42.4-.8 42.4-.8s24.1.5 30.8 2.5c6.8 2 4.4-21-8.2-23.7-12.7-2.6-30.6 1.2-30.6 1.2s-20.1-2.6-22.6-2.9-18.6.1-18.6.1l-20.3 20.1z"/><path class="st9" d="M638.5 473.7s28.9 2.6 36.9 7.3l-36.9-7.3zm180.1-18.8s-22.6 5.5-31.5 13.6l31.5-13.6zm-178.4 12.3c.5.1 13.3 1.8 12.9 3-.3 1.3-12.9-3-12.9-3zM620 499.5l1.7 6.3s3.8 2.9 4.6 4.4c.8 1.6 5.6 1.8 5.6 1.8s5 2.4 6.3 3.5c1.3 1.3 14.8 5.2 27.6 6.9 12.7 1.7 36.3 4.8 41.3 6.4 3.5 1 7.2 1.8 10.8 2.4 0 0 9.4 5 14.4 3.8 5-1.3 13.6-24.1 13.6-24.1s-32.9-7.7-34-10.2c-1-2.5-32.8-14.2-32.8-14.2l-18.8.4-40.3 12.6z"/><path class="st8" d="M618.7 500l1.7 6.3s3.8 2.9 4.6 4.4c.8 1.4 5.6 1.8 5.6 1.8s5 2.4 6.3 3.5c1.3 1.3 14.8 5.2 27.6 6.9 12.7 1.7 36.3 4.8 41.3 6.4 3.5 1 7.2 1.8 10.8 2.4 0 0 9.4 5 14.4 3.8 5-1.3 13.6-24.1 13.6-24.1s-32.9-7.7-34-10.2c-1-2.5-47.6-21.6-47.6-21.6l-14.6-3.4-29.7 23.8z"/><path class="st12" d="M661.5 341.2l-3.7 2.1-7.1 48s-3.7 3.5-2.6 5.9c1.2 2.4-.3 6.3-.3 6.3s-6.3 2.7-4.8 4.4.8 4.8-.3 6.9c-.9 2.1-2.5 5.9 0 6.4 2.5.7.4 8.8.4 8.8s8.8-1 8.2 4.2c-.3 2.1 9.9 8.8 9.9 8.8s-11.6-21 14.4-18.2l2.2-11.9s2.2-6.7 0-8.8c-2.2-2.1.5-12 .5-12l.5-43.1-17.3-7.8z"/><path class="st9" d="M655.7 403.1c.5.8 14.5 2.4 15.4 4.8 1 2.6-15.4-4.8-15.4-4.8zm-4.4 12.1s2-6 6.4-4.8c4.6.8-6.4 4.8-6.4 4.8zm-2.4 8.6s3.4-8 8-7.3c4.6.6-8 7.3-8 7.3z"/><path class="st10" d="M801.7 423.7l-1.4 8.8s-15 27.6-17.8 28c-2.7.4-17.5-18.3-17.5-18.3l-3.9-18.4 15.6-3 6.9-6.8c.1-.1 17.6 1.6 18.1 9.7z"/><path class="st12" d="M794.7 348.4l5.6 3.9v21s4.4-.4 3.4 1.8c-1 2.4-3.1 3.5-1.3 5.6s1.4 6-.3 6.4-4.6 2.1-1.8 3.1c2.7 1 4.4 2.9 4.4 4.2 0 1.3.3 3.1-.8 4.6s-2.1 4.8-.8 6-1 7.7-1 7.7 3.9 10.2.3 13.2c0 0-1.7 5.9-1.8 6.3 0 0 2.6-20.3-23.7-11.8 0 0-.5-7.7-.7-10.6s2.2-3.7.9-5.4c-1.3-1.7-4.7-5.6-3.1-6.7 1.6-1 1-2.9.4-4.4-.7-1.4-2.9-1.4-.8-3.3 2-1.8 3.1-3.4 2-4.3-1.2-.9-3.3-3.5-1.6-4.8 1.6-1.3 1.7-19.3 1.7-19.3s6.4-26.4 19-13.2z"/><path class="st9" d="M792.1 384.2s8-2.2 8.2 0c.3 2.2-8.2 0-8.2 0zm-9.1 6s11-2.7 12.4-.7c1.5 2.1-12.4.7-12.4.7zm-2.4 5.9s16.5-2.4 17.5 1c1.1 3.3-17.5-1-17.5-1zm2.4 7c.7.1 15.9 1.2 16.2 4.2.3 2.9-16.2-4.2-16.2-4.2z"/><path class="st13" d="M666.4 412.5H785c3.4 0 6.1 2.7 6.1 6.1v62.1c0 3.4-2.7 6.1-6.1 6.1H666.4c-3.4 0-6.1-2.7-6.1-6.1v-62.1c0-3.3 2.7-6.1 6.1-6.1z"/><circle class="st3" cx="725.7" cy="449.8" r="4.8"/><path class="st9" d="M682.1 367.1s12.5 9.5 22.2 2.2c.2 0-16.3 1.5-22.2-2.2zm63.6 2.6s12.5 9.5 22.2 2.2c0 0-16.4 1.6-22.2-2.2z"/><path class="st9" d="M753.2 276.3c0 5.6-1.6 11.1-4.6 15.9-.3-8.4-2.2-16.7-6.8-23.8-4.2-6.4-16.9-17.6-25.6-14.5-1.8.7-3.3 2.2-3.8 4.1-.9 3.3 1.7 4.7 3.3 7.3 2.7 4.4 3.8 9.8 3 15-.1.7-.3 1.4-.4 2.1-1.3 5.1-4.6 11-1.3 15.3 2.2 2.9 7.1 3.9 7.8 7.6 0 .4.1.7 0 1-.1 2.5-2.2 4.6-3.1 7.1-1 2.9-.5 5.6.7 8.5 1.4 3.8 3.8 7.5 4.3 11.4s-.7 7.6-2.1 11.2c-1.3 3.5-2.9 6.9-3.4 10.6-1 6.9 1.6 14.9-2.9 20.4-.4.7-1.2 1.2-2 1.3-2.7.3-2.4-4.7-4.6-6.4.3 2.9.5 6-.5 8.8-1 2.7-3.8 5.1-6.7 4.6l-1-6.5c-2 2-4.3 3.4-6.9 4.3 1-6.9 3.5-13.6 7.2-19.6-7.3 3.5-11.6 11.2-15.4 18.4-2.4 4.4-4.8 9.4-4.1 14.5.4 2.1 1.2 4.1 1.4 6 .3 2-.5 4.4-2.5 5.2-1.7.7-3.7-.1-4.8-1.4l-.3-.3c-.1-.1-.3-.3-.4-.5-.3-.3-.4-.7-.5-1-.5-1.2-.9-2.5-1.2-3.8l-.1-.5c-2-8.5-3.7-17.4-2.2-26 .5-3.1 1.4-6.3 1.3-9.5-.1-1.8-.5-3.7-1-5.4-1.7-4.8-5-9.2-6.8-14v-.1c-1-2.5-1.4-5.8.4-7.7.9-1 2.4-1.6 3.5-2.4 3.7-2.4 5.2-6.8 5.9-11.1.3-2 .4-3.9.4-5.9 5-1.7 11.5-4.3 12.2-3.9 1 .5 11.2-.4 11.6-.4 3.1-1.8 5.9-4.4 7.2-8.4.1-.4.3-.7.4-1-14.6-7.8-20-26.1-12.2-40.8 7.8-14.6 26.1-20 40.8-12.2 9.8 5.4 15.8 15.6 15.8 26.5z"/><path class="st13" d="M718.5 281.2c-1.4 5.1-4.6 11-1.3 15.3 2.2 2.9 7.1 3.9 7.7 7.6.5 2.9-2.1 5.4-3.1 8.1-2.5 6.5 3.9 12.9 5 20 1 7.6-4.4 14.4-5.5 22-1 6.9 1.6 14.9-2.9 20.4-.4.7-1.2 1.2-2 1.3-2.7.3-2.4-4.7-4.6-6.4.3 2.9.5 6-.5 8.8-1 2.7-3.8 5.1-6.7 4.6l-1-6.5c-2 2-4.3 3.4-6.9 4.3 1-6.9 3.5-13.6 7.2-19.6-7.3 3.5-11.6 11.2-15.4 18.4-2.4 4.4-4.8 9.4-4.1 14.5.4 2.1 1.2 4.1 1.4 6 .1 2.1-.5 4.4-2.5 5.2-1.7.8-3.9-.3-5.1-1.7-1.2-1.6-1.7-3.4-2.1-5.4-2-8.8-3.9-17.6-2.4-26.5.5-3.1 1.4-6.3 1.3-9.5-.3-7.1-5.5-12.8-8-19.3-1-2.6-1.4-5.8.4-7.7.9-1 2.4-1.6 3.5-2.4 3.7-2.4 5.2-6.8 5.9-11.1.7-4.6.5-9.4-.4-14-1.4-6.8-4.8-13.6-4.1-20.5.8-6.8 5.5-12.5 8.6-18.7 4.1-8 5.6-17 4.4-25.8-.5-4.1-1.4-8.9 1.3-11.9 3.4-3.7 9.8-2.4 13.7-5.5 1.8-1.6 2.7-3.9 4.2-6 3.5-5 9.8-7.2 15.6-5.6 2.6.8 5 2.2 7.6 3.1 3.7 1.2 7.6 1 11.5 1.4 3.8.5 7.8 1.7 10.1 5 1.2 1.7 1.7 3.8 2.7 5.5 2.4 3.8 6.7 5.5 10.1 8.4 5.9 5.2 8 13.3 5.5 20.8-2 5.5-6.5 10.5-6.1 16.3.1 2.4 1.2 4.8.9 7.2-.9 6.7-10.6 8-13.9 13.9.3-9.5-1.6-19.3-6.8-27.5-4.2-6.4-16.9-17.6-25.6-14.5-1.8.7-3.3 2.2-3.8 4.1-.9 3.3 1.7 4.7 3.3 7.3 3.4 4.7 4.3 10.8 2.9 16.6z"/><path d="M677.4 314.2c.1-3-.3-6-.8-8.9-1.3-5.9-3.8-11.5-4.1-17.4-.4 6.5 2.7 12.8 4.1 19.2.6 2.4.8 4.8.8 7.1zm25 47.5c.5-.9 1-1.8 1.6-2.7-7.3 3.5-11.6 11.2-15.4 18.4-2.2 4.2-4.4 8.8-4.2 13.3.3-3.9 2.2-7.8 4.2-11.5 3.5-6.7 7.4-13.7 13.8-17.5zm-16.5 37.8c-.3 1.6-1 3-2.5 3.7-1.7.8-3.9-.3-5.1-1.7-1.2-1.6-1.7-3.4-2.1-5.4-1.4-6.3-2.7-12.5-2.9-19-.1 6.9 1.3 14 2.9 20.8.4 1.8.9 3.8 2.1 5.4 1.2 1.6 3.3 2.5 5.1 1.7 2-.8 2.6-3.1 2.5-5.2v-.3zm33.2-124.6c-.1 1.4-.3 3-.7 4.4-1 3.8-3 8.1-2.6 11.6.3-3.1 1.8-6.7 2.6-9.8.6-1.9.8-4 .7-6.2zm-32.9-27.8c0-2.2-.1-4.4-.4-6.7-.3-1.6-.5-3.4-.5-5.1-.1 2.2.3 4.7.5 6.9.2 1.7.4 3.3.4 4.9zm38.7 57.1v-.1c-.4 2.2-2.2 4.2-3 6.4-.5 1.3-.7 2.7-.5 4.1.1-.8.3-1.4.5-2.2 1-3 3.5-5.3 3-8.2zM675.2 360c-.3-7.1-5.5-12.8-8-19.3-.4-1-.7-2.1-.8-3.3-.1 1.7.1 3.5.8 5.1 2.5 6.4 7.6 12.2 8 19.1 0-.6.1-1.1 0-1.6zm66.7-94.5c-4.2-6.4-16.9-17.6-25.6-14.5-1.8.7-3.3 2.2-3.8 4.1-.3.7-.3 1.4 0 2.2v-.3c.5-1.8 2-3.4 3.8-4.1 8.8-3.1 21.4 8.1 25.6 14.5 4.7 7.2 6.7 15.9 6.8 24.7.1-9.4-1.7-18.9-6.8-26.6zm20.7 13.6c-.9 6.7-10.5 8-13.9 13.7v2c3.3-5.9 12.9-7.2 13.9-13.9v-1.8c0-.1 0 0 0 0zm5.3-23.5c-2 5.5-6.5 10.5-6.1 16.3v.3c.4-5.2 4.3-9.7 6.1-14.6.8-2.4 1.2-4.7 1-7.2-.1 1.8-.4 3.5-1 5.2zm-49.4 117.1c-.4.7-1.2 1.2-2 1.3-2.7.3-2.4-4.7-4.6-6.4 0 .7.1 1.3.1 2 2.1 1.8 1.7 6.5 4.4 6.3.8-.1 1.4-.7 2-1.3 2.5-3.1 2.7-7.1 2.6-11.2.1 3.4-.4 6.7-2.5 9.3zm-7.1 3.5c-1 2.7-3.8 5.1-6.7 4.6-.4-2.2-.7-4.3-1-6.5-1.8 1.8-4.2 3.3-6.7 4.2-.1.7-.3 1.3-.4 2 2.6-.9 5-2.4 6.9-4.3.4 2.2.7 4.4 1 6.5 2.9.4 5.6-1.8 6.7-4.6.7-2 .9-3.9.8-5.9.1 1.4-.2 2.7-.6 4zm9.8-24c-.3 1.7-.3 3.5-.3 5.4 0-1.2.1-2.4.3-3.4 1-7.2 6-13.7 5.6-20.9-.4 6.3-4.5 12.3-5.6 18.9z" opacity=".2"/><linearGradient id="SVGID_3_" gradientUnits="userSpaceOnUse" x1="671.474" y1="10.282" x2="738.66" y2="194.873" gradientTransform="matrix(1 0 0 -1 0 412)"><stop offset=".004" stop-color="#33ded2"/><stop offset=".383" stop-color="#5b58a6"/><stop offset=".763" stop-color="#2b211a" stop-opacity=".7"/></linearGradient><path d="M718.6 281.4c-1.4 5.1-4.6 11-1.3 15.3 2.2 2.9 7.1 3.9 7.7 7.6.5 2.9-2.1 5.4-3.1 8.1-2.5 6.5 3.9 12.9 5 20 1 7.6-4.4 14.4-5.5 22-1 6.9 1.6 14.9-2.9 20.4-.4.7-1.2 1.2-2 1.3-2.7.3-2.4-4.7-4.6-6.4.3 2.9.5 6-.5 8.8-1 2.7-3.8 5.1-6.7 4.6l-1-6.5c-2 2-4.3 3.4-6.9 4.3 1-6.9 3.5-13.6 7.2-19.6-7.3 3.5-11.6 11.2-15.4 18.4-2.4 4.4-4.8 9.4-4.1 14.5.4 2.1 1.2 4.1 1.4 6 .1 2.1-.5 4.4-2.5 5.2-1.7.8-3.9-.3-5.1-1.7-1.2-1.6-1.7-3.4-2.1-5.4-2-8.8-3.9-17.6-2.4-26.5.5-3.1 1.4-6.3 1.3-9.5-.3-7.1-5.5-12.8-8-19.3-1-2.6-1.4-5.8.4-7.7.9-1 2.4-1.6 3.5-2.4 3.7-2.4 5.2-6.8 5.9-11.1.7-4.6.5-9.4-.4-14-1.4-6.8-4.8-13.6-4.1-20.5.8-6.8 5.5-12.5 8.6-18.7 4.1-8 5.6-17 4.4-25.8-.5-4.1-1.4-8.9 1.3-11.9 3.4-3.7 9.8-2.4 13.7-5.5 1.8-1.6 2.7-3.9 4.2-6 3.5-5 9.8-7.2 15.6-5.6 2.6.8 5 2.2 7.6 3.1 3.7 1.2 7.6 1 11.5 1.4 3.8.5 7.8 1.7 10.1 5 1.2 1.7 1.7 3.8 2.7 5.5 2.4 3.8 6.7 5.5 10.1 8.4 5.9 5.2 8 13.3 5.5 20.8-2 5.5-6.5 10.5-6.1 16.3.1 2.4 1.2 4.8.9 7.2-.9 6.7-10.6 8-13.9 13.9.3-9.5-1.6-19.3-6.8-27.5-4.2-6.4-16.9-17.6-25.6-14.5-1.8.7-3.3 2.2-3.8 4.1-.9 3.3 1.7 4.7 3.3 7.3 3.4 4.6 4.3 10.8 2.9 16.6z" fill="url(#SVGID_3_)"/><path class="st8" d="M139.8 548.9s-10.5 37.1-1 38.7c9.5 1.6 56.3 1.1 67.7 2.8 11.4 1.6 35.2-1.1 35.2-8.4 0-7.2-24.8-12.1-24.8-12.1s-35.2-16.1-36.2-17c-1-.8-40.9-4-40.9-4z"/><path class="st16" d="M148.5 330.2s2.9 27.5 2.9 29.8-2.9 40.3 0 42-1.9 12.9-1.9 17-15.3 71-11.4 96.9c3.9 25.9-2.6 23.2.3 25.5 2.9 2.4-.3 2.7-.3 7.5s30.5 8.9 30.5 8.9l33.3-178.4-17.2-53.3-36.2 4.1z"/><path class="st9" d="M148.5 330.2s2.9 27.5 2.9 29.8-2.9 40.3 0 42-1.9 12.9-1.9 17-15.3 71-11.4 96.9c3.9 25.9-2.6 23.2.3 25.5 2.9 2.4-.3 2.7-.3 7.5s30.5 8.9 30.5 8.9l33.3-178.4-17.2-53.3-36.2 4.1z"/><path class="st8" d="M171.1 559.6s-9.3 29.2.3 30.7 56.3-2.3 67.7-.8 35.2 1.5 35.2-5.7c-.1-7.2-24.9-11.9-24.9-11.9S214 556.1 213 555.2c-1.1-.8-41.9 4.4-41.9 4.4z"/><path class="st16" d="M134.5 303.2s-9.4 24.3 4.9 35.3 31.6 33.7 31.7 35.4c.1 1.7-12.8 163.9-8.2 174.1 4.6 10.1 4.3 16.7 3.5 18.3s10.4 9.7 21.8 8.7 27.9-9.6 29.2-16.2-8.2-61.7-8.1-72.3c.1-10.6 3.6-26.2 5.1-29.6 1.6-3.4 11.8-7.5 12.9-17.3 1.1-9.8 5.8-134.2.7-137.8-4.9-3.8-93.5 1.4-93.5 1.4z"/><ellipse transform="rotate(-71.652 217.405 89.525)" class="st17" cx="217.4" cy="89.5" rx="32.9" ry="34.7"/><path class="st17" d="M192.3 105.5s6.6 29.8 1.9 33.1c-4.8 3.2 36.2 8.1 36.2 8.1s4.8-39.6 5.8-43.6c.9-4.1-43.9 2.4-43.9 2.4z"/><path class="st8" d="M236.2 144.2S224.8 116 178 124c0 0-8.5 2.4-5.8 4.9 2.9 2.4 5.8 2.4 1.9 4.9-3.8 2.4-8.5 0-5.8 2.4 2.9 2.4-25.7 17-23.8 44.4 1.9 27.5-6.6 66.2 0 72.7s-4.8 34.7-2.9 40.3c1.9 5.6-11.4 12.9-5.8 15.4 5.8 2.4 108.7 17 111.6 0 2.9-17 1-4.9 3.8-8.9 2.9-4 3.8-11.2 1.9-20.2-1.9-8.9-6.6-30.7-4.8-38.7s0-75.9-5.8-83.9c-5.4-8.3-6.3-13.1-6.3-13.1z"/><path class="st17" d="M216.1 341.2s-14.3 46.1 3.8 46.1c18.2 0 17.2-47.6 17.2-47.6l-21 1.5z"/><path d="M231.8 94.4c-.9 2.7-5.5 3-11.9 1.3-2.7-.8-5.4-1.6-8-2.8-3.9-1.7-6.8 1.4-9 5.9-3.7 7.5-5.7 18.9-8.2 20.1-3.3 1.6-20.7-6.9-24.5-14.2-.6-1-.9-2.3-.7-3.4.4-3.5-.2-7-2-10.2-2.1-4.6-5.7-10.1-9-18-6-14.2 4-11.9 9.6-19.2 5.6-7.2 11.4-8.4 13.2-14s25.6-2.8 43.6 4.3C243.2 51.3 232 72 232 72s.3 3 .4 7c.3 4.9.3 9.7-.1 14.7-.4.2-.4.5-.5.7z" fill="#3a281c"/><path fill="#494949" d="M270.1 66.4l2.7-8.2-26.7-6.9-8 12.5 4.3 11.2 21-4.7z"/><path class="st9" d="M270.1 66.4l2.7-8.2-26.7-6.9-8 12.5 4.3 11.2 21-4.7z"/><path d="M279.8 89l-18.9-1.2-20.8 4.4-8.1 1.5-12.1 2.1-17 3.1-32.7 5.9c-.6-1-.9-2.3-.7-3.4.4-3.5-.2-7-2-10.2L232.2 79l5.1-1 35.5-19.8 7 30.8z" fill="#515151"/><path class="st9" d="M222.8 156.3s-32.5-1.6-35.2 38.7c-2.9 40.3-1.9 78.3-1.9 79.1 0 .7 13.3 77.5 25.7 77.5s21.9-1.6 24.8-5.6-7.6-62.2-7.6-62.2-4.8-61.3 2.9-80.8c7.6-19.3 8.5-44.2-8.7-46.7z"/><path class="st8" d="M227.6 152.3s-32.5-1.6-35.2 38.7c-2.9 40.3-1.9 78.3-1.9 79.1 0 .8 13.3 77.5 25.7 77.5s21.9-1.6 24.8-5.6c2.9-4-7.6-62.2-7.6-62.2s-4.8-61.3 2.9-80.8c7.5-19.3 8.4-44.2-8.7-46.7z"/><path class="st3" d="M512 213.1c.5 0 .9.4.9.9s-.4.9-.9.9-.9-.4-.9-.9.4-.9.9-.9z"/><ellipse class="st3" cx="885.4" cy="133.4" rx="3.4" ry="3"/></svg>