<svg xmlns="http://www.w3.org/2000/svg" viewBox="0 0 50 50"><path d="M45.5 0h-41C2 0 0 2 0 4.5v41C0 48 2 50 4.5 50h41c2.5 0 4.5-2 4.5-4.5v-41C50 2 48 0 45.5 0zm-30 43.2c0 .7-.6 1.3-1.3 1.3H8.6c-.7 0-1.3-.6-1.3-1.3V19.7c0-.7.6-1.3 1.3-1.3h5.6c.7 0 1.3.6 1.3 1.3v23.5zm-4.1-27c-2.9 0-5.3-2.4-5.3-5.3s2.4-5.3 5.3-5.3 5.3 2.4 5.3 5.3-2.4 5.3-5.3 5.3zm33.4 27.1c0 .7-.5 1.2-1.2 1.2h-6c-.7 0-1.2-.5-1.2-1.2v-11c0-1.6.5-7.2-4.3-7.2-3.7 0-4.5 3.8-4.6 5.5v12.7c0 .7-.5 1.2-1.2 1.2h-5.8c-.7 0-1.2-.5-1.2-1.2V19.6c0-.7.5-1.2 1.2-1.2h5.8c.7 0 1.2.5 1.2 1.2v2c1.4-2.1 3.4-3.7 7.8-3.7 9.6 0 9.6 9 9.6 13.9l-.1 11.5z" fill="#0077b7"/></svg>