<svg version="1.1" id="_2cf41747-0c0c-4d70-aad4-093c093adad4" xmlns="http://www.w3.org/2000/svg" x="0" y="0" viewBox="0 0 811.1 798.3" xml:space="preserve"><style>.st0{fill:#33ded2}.st1{fill:#5c39bc}.st2{fill:#d5d6db}.st3{opacity:.1}.st3,.st4,.st6{enable-background:new}.st4{opacity:.3;fill:#fff}.st6{opacity:.1;fill:#33ded2}.st8{fill:#be6f72}.st9{fill:#3e373a}.st10{fill:#2a314c}.st13{fill:#4b4b5b}.st16{enable-background:new}.st17{fill:#3d2a79}.st18{fill:#fff}</style><path class="st0" d="M435.5 690.5l-342.3-1.7-34-79.7 120.2-8.8-20.9-87.4L396.3 482l-227.7-79.1 20.1-4.8 366.2 59.7-20.1 136.5-28.9 75z"/><path class="st0" d="M98.4 655.4s21-3.4 33.6 11.5c0 0-9.2 7.3-29.1-2.8l-4.5-8.7zm-2.2-.3s-13.4 16.5-6.8 34.8c0 0 10.9-4.4 12.1-26.6l-5.3-8.2zm-12-27.1s8.4-15.4 42 6.2c0 0-4.5 10.4-19.3 9.5s-18.8-7.6-22.7-15.7zm-2.2-1.1s-17.4-2-19.1 37.9c0 0 11 2.3 18.9-10.3s4.6-19.8.2-27.6zM71.9 595s9.8-27.2 45.4-7.8c0 0-8.1 24.9-41.7 17.1l-3.7-9.3zm-11-40.6s18.5-27.4 51.2-2c0 0-11.5 25.8-48.4 11.8l-2.8-9.8zM57 515.8s21.6-25.2 54 0c0 0-20.4 22.1-54 6.4v-6.4zm-3.3-37.5s21.8-26.3 52.9-1.4c0 0-24.6 23.2-52.9 7.6v-6.2zm1.9-33.3s23-33.9 52.1-10.9c0 0-24.6 29.1-52.1 17.4V445zm5.3-39s24.4-33.6 52.6-7.8c0 0-28.8 29.1-52.6 14V406zm8.2-34.8s28.8-31.6 54-19c0 0-30 33.5-55.3 27.4l1.3-8.4zm10-32.9s33.3-38.7 52.6-25.8c0 0-24.5 30-55 33l2.4-7.2zM93.7 300s29.1-31.6 50.4-23.7c0 0-24.9 32.8-54.3 33.6l3.9-9.9zm13.2-35.8s32.2-30.2 46.2-24.9c0 0-23.2 33.6-47.6 31.6l1.4-6.7zm12.8-33s27.7-36.1 42.8-33.3c0 0-16.8 32.2-42.8 37v-3.7zm14-44.6s24.5-27.6 37.7-27.6c0 0-19.3 37-38.8 36.7l1.1-9.1zM142 157l23.7-57.7s1.2 52.1-26.7 68.4l3-10.7zm9.6-63.6s3.9-48.2 1.4-52.1c0 0 16.9 40-1.6 73.4l.2-21.3zm-80.7 501s-24.5-15.2-40.4 22c0 0 21.8 14.5 43.3-12.5l-2.9-9.5zm-10.7-41.5S30.1 539.2 15.5 578c0 0 23.3 16 47.4-15.3l-2.7-9.8zm-4.6-34.8s-21.6-25.2-54 0c0 0 20.4 22.1 54 6.4v-6.4zm-2.7-39.8S31.1 452 0 476.9c0 0 24.6 23.2 52.9 7.6v-6.2zm2.7-32.4S40.3 408 7 424.3c0 0 18 33.6 47.3 27.9l1.3-6.3z"/><path class="st0" d="M62.9 405.8s-15.2-38.6-49-20.7c0 0 20.7 35.4 47.5 26.7l1.5-6zm9.4-34.4s-6-42.3-34-46.1c0 0 5.9 44.6 30.2 53.8l3.8-7.7zm7.5-33.1s-2.3-51-25.5-52.8c0 0 .8 38.7 22.9 60l2.6-7.2zm16.3-39.7s-6.9-42.4-29-47.6c0 0 2.7 41.1 26.8 58l2.2-10.4zm13.4-34s-.2-44.2-13.7-50.7c0 0-8.4 40 9.8 56.3l3.9-5.6zm11.3-33.9s-1.9-45.5-15.9-51.9c0 0-4.8 36 13.8 54.9l2.1-3zm14.9-40.4s-.1-37-10.1-45.7c0 0-9.9 40.5 4.9 53.1l5.2-7.4z"/><path class="st0" d="M140.8 155.2l-9.7-61.6s-13.2 50.5 10.2 72.7l-.5-11.1zm1.9-61.2s-24.9-41.4-24.4-46c0 0 2.7 43.4 34 65l-9.6-19zm2.9-12.3s-23.5-58.8-34.2-63.6c0 0 33.6 17.1 36.1 61.9l-1.9 1.7z"/><path class="st1" d="M132.6 196l-1.6-.5c19.9-64.7 24.8-106 14-116.3l1.1-1.2c11.5 10.9 6.8 51.7-13.5 118z"/><path class="st1" d="M77.9 347.6l-2.4-.9c2.1-5.9 4.4-12 6.8-17.9 20.7-51.6 38.4-99.7 49.7-136.6l2.1-1c-11.3 37-28.7 86.8-49.4 138.5-2.4 5.9-4.7 11.9-6.8 17.9z"/><path class="st1" d="M128 703.9c-.3-.3-32.5-36.6-54.9-98.4-13.1-36.2-20.5-74.3-21.7-112.8C49.9 444.5 60 390.8 77.3 342l1.9 2.2c-38.8 109.6-23.4 203.5-2.9 260 22.2 61.3 54 97.1 54.3 97.5l-2.6 2.2z"/><path class="st2" d="M630.7 626.9s-22.7 27.7-4.7 69.5l-181 78.5-17.4 3.6-8-35 5.3-44.2v-24.1l205.8-48.3z"/><path class="st0" d="M59.2 609.1l250.5-45.7 331.9 52.9-206.1 74.2z"/><path class="st0" d="M59.2 609.1l250.5-45.7 331.9 52.9-206.1 74.2z"/><path class="st0" d="M59.2 609s-23.4 44.4 3.6 85.4l371.5 80.5s-23.1-35.4 1.2-84.4L59.2 609z"/><path class="st3" d="M59.2 609s-23.4 44.4 3.6 85.4l371.5 80.5s-23.1-35.4 1.2-84.4L59.2 609zm11 15.4s-13.4 32.5 0 53.5"/><path class="st0" d="M434.2 774.9l207.4-88.5s11.6 2.5 4.1 11-207.5 86-207.5 86l-375.5-89 371.5 80.5z"/><path class="st3" d="M434.2 774.9l207.4-88.5s11.6 2.5 4.1 11-207.5 86-207.5 86l-375.5-89 371.5 80.5zm-17-75.5s-20 24 0 60"/><path transform="rotate(-18.45 469.428 714.497)" class="st3" d="M422.1 714h94.6v1h-94.6z"/><path transform="rotate(-20.82 478.254 717.01)" class="st3" d="M420.7 716.5h115.2v1H420.7z"/><path transform="rotate(-22.226 489.945 724.417)" class="st3" d="M422.9 723.9h134.2v1H422.9z"/><path transform="rotate(-24.314 496.518 723.726)" class="st3" d="M419.7 723.2h153.7v1H419.7z"/><path transform="rotate(-23.609 504.698 725.693)" class="st3" d="M420.6 725.2h168.2v1H420.6z"/><path transform="rotate(-23.36 522.293 726.41)" class="st3" d="M421.7 725.9h201.2v1H421.7z"/><path class="st4" d="M152.2 613.9l176-37 107.3 20.5-144.3 46.5z"/><path class="st0" d="M641.6 616.3s9.1 3.7 3.8 9.3-210 64.9-210 64.9l206.2-74.2z"/><path class="st2" d="M684.3 530.3s-22.7 27.7-4.7 69.5l-181 78.5-17.3 3.7-8-35 5.4-44.2v-24.2l205.6-48.3z"/><path class="st1" d="M112.8 512.4l250.5-45.7 331.9 52.9-206.1 74.2zm-.1 0s-23.4 44.4 3.6 85.4l371.5 80.5s-23-35.4 1.2-84.5l-376.3-81.4z"/><path class="st3" d="M112.7 512.4s-23.4 44.4 3.6 85.4l371.5 80.5s-23-35.4 1.2-84.5l-117.5-25.4-258.8-56zm11.1 15.4s-13.4 32.5 0 53.5"/><path class="st1" d="M487.8 678.3l207.4-88.5s11.6 2.5 4.1 11-207.5 86-207.5 86l-375.5-89 371.5 80.5z"/><path class="st3" d="M487.8 678.3l207.4-88.5s11.6 2.5 4.1 11-207.5 86-207.5 86l-375.5-89 371.5 80.5zm-17-75.5s-20 24 0 60"/><path transform="rotate(-18.45 523.053 617.816)" class="st3" d="M475.7 617.3h94.6v1h-94.6z"/><path transform="rotate(-20.82 531.992 620.33)" class="st3" d="M474.4 619.8h115.2v1H474.4z"/><path transform="rotate(-22.226 543.867 627.142)" class="st3" d="M476.8 626.6H611v1H476.8z"/><path transform="rotate(-24.314 550.26 627.042)" class="st3" d="M473.4 626.5h153.7v1H473.4z"/><path transform="rotate(-23.609 558.268 629.02)" class="st3" d="M474.2 628.5h168.1v1H474.2z"/><path transform="rotate(-23.36 576.026 629.614)" class="st3" d="M475.4 629.1h201.2v1H475.4z"/><path opacity=".45" fill="#fff" d="M205.8 517.3l176-37 107.3 20.5-144.3 46.5z"/><path class="st1" d="M695.2 519.6s9.1 3.7 3.8 9.3-209.9 64.9-209.9 64.9l206.1-74.2z"/><path class="st2" d="M693.7 420.2s-22.7 49.7-4.7 91.5l-181 56.5-17.3 3.7-8-35 5.3-44.2v-24.2l205.7-48.3z"/><path class="st0" d="M122.2 402.4l250.5-45.7 332 52.9-206.2 74.2z"/><path class="st0" d="M122.2 402.3s-23.5 44.4 3.5 85.4l371.5 80.5s-23.1-35.4 1.2-84.4l-376.2-81.5z"/><path class="st3" d="M122.2 402.3s-23.5 44.4 3.5 85.4l371.5 80.5s-23.1-35.4 1.2-84.4l-376.2-81.5zm11.1 15.4s-13.4 32.5 0 53.5"/><path class="st0" d="M497.3 568.2l207.4-66.5s11.6 2.5 4.1 11-207.5 64-207.5 64l-375.5-89 371.5 80.5z"/><path class="st3" d="M497.3 568.2l207.4-66.5s11.6 2.5 4.1 11-207.5 64-207.5 64l-375.5-89 371.5 80.5zm-17-75.5s-20 24 0 60"/><path transform="rotate(-18.45 532.446 507.82)" class="st3" d="M485.1 507.3h94.6v1h-94.6z"/><path transform="rotate(-20.82 541.395 510.338)" class="st3" d="M483.8 509.8H599v1H483.8z"/><path transform="rotate(-22.226 553.284 516.646)" class="st3" d="M486.2 516.1h134.2v1H486.2z"/><path transform="rotate(-24.314 559.66 517.05)" class="st3" d="M482.8 516.5h153.7v1H482.8z"/><path transform="rotate(-23.609 567.836 519.015)" class="st3" d="M483.7 518.5h168.2v1H483.7z"/><path transform="rotate(-23.36 585.421 519.617)" class="st3" d="M484.8 519.1H686v1H484.8z"/><path class="st4" d="M215.3 407.2l176-37 107.2 20.5-144.2 46.5z"/><path class="st0" d="M704.7 409.6s9.1 3.7 3.8 9.3-209.9 64.9-209.9 64.9l206.1-74.2zM264.7 106s-38-2.3-33.6 24.4c0 0-.9 4.7 3.4 6.9 0 0 .1-2 3.9-1.3 1.4.2 2.8.3 4.1.2 1.9-.1 3.6-.9 5-2.1 0 0 10.7-4.4 14.9-21.9 0 0 3.1-3.8 3-4.8l-6.4 2.7s2.2 4.6.5 8.5c0 0-.2-8.3-1.5-8.1-.3 0-3.3 1.6-3.3 1.6s3.8 8.1.9 13.9c0 0 1.1-9.9-2.1-13.3l-4.5 2.6s4.4 8.3 1.4 15.1c0 0 .8-10.4-2.4-14.5l-4.1 3.2s4.1 8.2 1.6 13.8c0 0-.3-12.1-2.5-13.1 0 0-3.6 3.2-4.1 4.5 0 0 2.8 6 1.1 9.1 0 0-1.1-8.1-2-8.1 0 0-3.6 5.4-3.9 9 .2-3.4 1.2-6.7 3.1-9.5-2.1.4-4 1.4-5.5 2.8 0 0 .5-3.8 6.4-4.1 0 0 3-4.1 3.7-4.3 0 0-5.8-.5-9.3 1.1 0 0 3.1-3.6 10.3-2l4-3.3s-7.6-1-10.8.1c0 0 3.7-3.2 11.9-.9l4.4-2.6s-6.5-1.4-10.3-.9c0 0 4.1-2.2 11.6.2l3.1-1.4s-4.7-.9-6.1-1.1-1.5-.5-1.5-.5c3-.5 6.1-.1 8.9 1 .1-.1 6.8-2.5 6.7-2.9z"/><path class="st6" d="M328.7 270.7s-16.6-34.3-37.6-17.4c0 0-4.5 1.5-4.3 6.3 0 0 1.8-.9 3 2.8.5 1.3 1.1 2.5 1.8 3.7 1 1.6 2.5 2.8 4.3 3.4 0 0 9.1 7.2 26.4 2.3 0 0 4.8.8 5.6.3l-5.6-4.3s-3 4.2-7.2 4.5c0 0 7.2-4.2 6.4-5.2-.2-.2-3-2.1-3-2.1s-5.2 7.2-11.7 7.6c0 0 9.2-3.9 10.6-8.4l-4.5-2.7s-5.1 7.9-12.5 8.6c0 0 9.5-4.4 11.5-9.1l-4.8-2s-5.1 7.6-11.3 8.2c0 0 10.4-6.2 10.2-8.6 0 0-4.5-1.6-5.9-1.4 0 0-3.8 5.4-7.4 5.4 0 0 6.5-4.9 6.1-5.7 0 0-6.4-.5-9.8 1 3-1.5 6.4-2.2 9.8-2-1.3-1.6-3.1-2.8-5.1-3.4 0 0 3.6-1.4 6.7 3.5 0 0 5 .6 5.6 1.2 0 0-2.4-5.3-5.4-7.6 0 0 4.6.9 6.7 8l4.9 1.9s-2.8-7.1-5.4-9.4c0 0 4.6 1.7 6.5 10l4.4 2.6s-1.9-6.3-4.3-9.4c0 0 3.9 2.5 5.5 10.2l2.8 2.1s-1.5-4.6-2-5.9-.3-1.5-.3-1.5c1.9 2.4 3.1 5.2 3.5 8.3.1-.1 5.5 4.5 5.8 4.2zm383.8-103.6s-16.5-34.3-37.6-17.4c0 0-4.5 1.5-4.3 6.3 0 0 1.8-.9 3 2.8.5 1.3 1.1 2.6 1.8 3.7 1 1.6 2.5 2.8 4.3 3.4 0 0 9.1 7.2 26.4 2.3 0 0 4.8.8 5.6.2l-5.5-4.3s-3 4.2-7.2 4.6c0 0 7.2-4.2 6.4-5.2-.2-.2-3-2.1-3-2.1s-5.2 7.2-11.7 7.6c0 0 9.2-3.9 10.6-8.3l-4.6-2.6s-5.1 7.9-12.5 8.6c0 0 9.5-4.4 11.5-9.1l-4.8-2s-5.2 7.6-11.3 8.2c0 0 10.4-6.2 10.2-8.6 0 0-4.5-1.6-5.9-1.4 0 0-3.8 5.4-7.4 5.4 0 0 6.5-4.9 6.1-5.7 0 0-6.4-.5-9.8 1 3-1.5 6.4-2.2 9.8-2-1.3-1.6-3.1-2.8-5.1-3.4 0 0 3.6-1.4 6.7 3.5 0 0 5 .6 5.6 1.2 0 0-2.4-5.3-5.5-7.6 0 0 4.6.9 6.7 8l4.9 1.9s-2.8-7.1-5.4-9.4c0 0 4.6 1.7 6.5 10l4.5 2.6s-1.9-6.3-4.3-9.4c0 0 3.9 2.5 5.5 10.2l2.8 2.1s-1.5-4.6-2-5.9-.3-1.5-.3-1.5c1.9 2.4 3.1 5.2 3.5 8.3.1-.3 5.5 4.3 5.8 4zm52.9 169.8s-16.6-34.3-37.7-17.4c0 0-4.5 1.5-4.3 6.3 0 0 1.8-.9 3 2.8.5 1.3 1.1 2.6 1.8 3.7 1 1.6 2.5 2.8 4.3 3.4 0 0 9.1 7.2 26.4 2.3 0 0 4.8.8 5.6.2l-5.5-4.3s-3 4.2-7.2 4.5c0 0 7.2-4.2 6.4-5.2-.2-.2-3-2.1-3-2.1s-5.2 7.2-11.7 7.6c0 0 9.2-3.9 10.6-8.4l-4.5-2.7s-5.1 7.9-12.5 8.6c0 0 9.5-4.4 11.5-9.1l-4.8-2s-5.2 7.6-11.3 8.2c0 0 10.4-6.2 10.2-8.6 0 0-4.5-1.6-5.9-1.4 0 0-3.8 5.4-7.4 5.4 0 0 6.5-4.9 6.1-5.7 0 0-6.4-.5-9.8 1 3.1-1.5 6.4-2.2 9.8-2-1.3-1.6-3.1-2.8-5.1-3.4 0 0 3.6-1.4 6.7 3.5 0 0 5 .6 5.6 1.2 0 0-2.4-5.3-5.4-7.6 0 0 4.6.9 6.7 8l4.8 1.9s-2.8-7.1-5.4-9.4c0 0 4.6 1.7 6.5 10l4.5 2.5s-1.9-6.3-4.3-9.4c0 0 3.9 2.5 5.5 10.2l2.8 2s-1.5-4.6-2-5.9-.3-1.5-.3-1.5c1.9 2.4 3.1 5.2 3.5 8.3 0 .2 5.5 4.8 5.8 4.5z"/><ellipse class="st6" cx="201.9" cy="781.6" rx="23" ry="2.6"/><ellipse class="st6" cx="51.2" cy="737.9" rx="23" ry="2.6"/><ellipse class="st6" cx="714.2" cy="734.9" rx="23" ry="2.6"/><ellipse class="st6" cx="590.5" cy="793.7" rx="27.2" ry="4.7"/><path class="st0" d="M602.6 746.7s-37.9 19.6-18.3 42.6c0 0 1.8 5 7.2 4.7 0 0-1.1-1.9 3-3.5 1.4-.6 2.8-1.3 4.1-2.2 1.7-1.2 3-2.9 3.7-4.9 0 0 7.7-10.4 1.7-29.5 0 0 .8-5.4.1-6.3l-4.6 6.3s4.8 3.2 5.3 7.9c0 0-5-7.9-6-7-.2.2-2.3 3.5-2.3 3.5s8.2 5.6 8.8 12.8c0 0-4.6-10.2-9.7-11.6l-2.9 5.1s9 5.5 10 13.7c0 0-5.2-10.5-10.6-12.6l-2.1 5.4s8.7 5.5 9.5 12.4c0 0-7.3-11.5-9.9-11.1 0 0-1.6 5.1-1.4 6.7 0 0 6.1 4.1 6.2 8.1 0 0-5.7-7.2-6.5-6.7 0 0-.4 7.2 1.4 10.9 0 0-3-5.3-2.5-10.9-1.8 1.6-3 3.6-3.6 5.8 0 0-1.6-4 3.7-7.6 0 0 .5-5.6 1.1-6.3 0 0-5.8 2.8-8.3 6.3 0 0 .9-5.2 8.8-7.8l2-5.5s-7.9 3.3-10.3 6.3c0 0 1.8-5.2 10.9-7.6l2.7-5s-7 2.4-10.4 5c0 0 2.7-4.4 11.3-6.5l2.2-3.2s-5.1 1.8-6.5 2.5-1.7.3-1.7.3c2.6-2.2 5.7-3.6 9.1-4.1.1.2 5.1-6 4.8-6.4z"/><linearGradient id="SVGID_1_" gradientUnits="userSpaceOnUse" x1="589.629" y1="-225.096" x2="589.629" y2="-727.035" gradientTransform="translate(-88.58 726.58)"><stop offset="0" stop-color="gray" stop-opacity=".25"/><stop offset=".54" stop-color="gray" stop-opacity=".12"/><stop offset="1" stop-color="gray" stop-opacity=".1"/></linearGradient><path d="M669.3 376.8c-6.5-17.8-42.5-19.4-58.2-14.9-11.1 3.2-34.5 6.9-47 8.7l-.8-.8c1.6-.5 1.7-1.7 1.5-3.4-.1-2.3-.1-4.6.1-6.9 7.7 2.4 14.5-3.3 14.5-3.3 9-4 6.6-21.1 8.3-25.8 1.3-3.5 2.7-24.1 3.3-34.4h.1l.1-3.5c.1-1.5.1-2.4.1-2.4s.9-25.1 2.6-30.2c1.6-4.7 2.9-28.3 3.1-32v-.4l-.1-2.2c.1-1.6.1-3.4.1-5.2 0-8.6-.9-19.3-1-21.1v-.9c.1-3.6-.4-21.9-15.9-28.8-5.7-2.6-12.6-5.6-19.3-8.6-1.7-14.9-5.7-29.6-5.3-44.6 0-2.3.2-4.5.4-6.7 0 .7-.1 1.3-.1 2v4.4c.6-18.7 7.7-37.5 7-55.8-.1 1.8-.2 3.6-.4 5.4.3-6.2-.3-12.4-1.9-18.4-.6-2.1-1.4-4.3-3.1-5.7-1.6-1.1-3.5-1.9-5.5-2.2-4.7-1.2-9.5-2.1-14.4-2.7-.7-2.3-1.8-4.4-3.2-6.3-10.1-13.9-25.2-27-42.9-30-8.9-1.5-19.2-.3-25.2 6.1-.6.6-1.3 1.2-1.8 1.8-3.3 3.9-4.7 9-8 12.9-.2.3-.5.5-.7.8-6.5 5.9-16.7 7.1-24 12.3-1.3.9-2.5 2-3.6 3.1-2.9 2.9-5.6 6.1-7.8 9.5-3.3 4.6-6.6 9.4-7.7 14.9-2.1 11 5.4 21.4 6.8 32.5 3.1 24.8-24.3 46.8-19.1 71.2 1.4 6 4.4 11.5 8.8 15.8-10.7 9.7-19.8 19.1-19.8 19.1v.6h-1.7l.2 2h-.2l.9 10.9-.9 15.8v1.5h.1c.3 5.8 1.5 26.6 3 31 1.7 5.1 2.6 30.2 2.6 30.2s1.9 35.5 3.6 40.2-.7 21.8 8.3 25.8c2.6 2 5.8 3.3 9.1 3.8-.5 3.7-.2 6.5 1.3 7.3.6.4 1.4.6 2.1.6-.6.9-1.2 1.9-1.6 2.9-3.6-.4-7.1-1.2-10.5-2.5-9.7-4-41.9-13-51.2-6.7s-31.9 12.1-21.5 37.5 15.2 26.1 15.2 26.1c3.2 2.3 6 5.1 8.3 8.4 3.1 4.7 32.2 15.4 39.5 15.4 3.1 0 6.2.1 9.3.5 0 0-7.9 6.9-6.8 10.9s-2.4 36.2-2.4 36.2 8 8.1 11.4-2.5l.1.2c.6.9 4.1 4.8 10.6-.2 2.7-2 5.5-3.8 8.5-5.4l31.5-4.5c3.3-.2 6.6-.2 9.9-.1 5 .4 9.9-2.5 13-4.8 6.5 2.5 13.9 5.2 17.4 6.2 7.1 2 39.6 10.7 47.2 8 1.6-.6 3-1.6 4.1-2.9l7.3.2-3.4.7s6.6.1 15.6.2l-.4.2 11.3-.1c16.5.1 35.1.2 37.5-.4 3.8-.9 23.7-.3 29.5 0h1.6s21.8-4.4 12.8-26.5c-6.9-17-28.2-21.9-37.6-23.3 2.7-.5 5-.9 6.5-1.2 6.6-1 19.4-7 20.4-9s11.8-8 14.5-11.4 10.5-27.3 4-45.1zm-180.7 49.7l-1.1.4-.7.2-1.4 1.4c-1.1-.7-2.3-1.5-3.5-2.3 2.2.1 4.4.2 6.7.3z" fill="url(#SVGID_1_)"/><path class="st8" d="M552.4 321.1s15.3 40 24 36 6.3-21 8-25.7 3.5-40 3.5-40 .8-25 2.5-30.1c1.5-4.6 2.8-28.1 3-31.8v-.5l-1.7-29-9.3-2.3-21.7 8-3 17.1-1.2 6.7-.5 2.9-3.6 88.7z"/><path class="st3" d="M557.4 314.4s14.6 12 19 13 7.1 10.4 7.1 10.4"/><path class="st8" d="M432.7 322.8s-15.3 40-24 36-6.3-21-8-25.7-3.5-40-3.5-40-.8-25-2.5-30.1c-1.5-4.6-2.8-28.1-3-31.8v-.5l1.7-29 9.3-2.3 21.7 8 3 17.1 1.2 6.7.5 2.9 3.6 88.7z"/><path class="st9" d="M498.2 108.8h34.2V162h-34.2z"/><path class="st3" d="M498.2 108.8h34.2V162h-34.2z"/><path class="st10" d="M426.7 362.7s-11.7 12.8-7.3 15.2 32.3 46 32.3 46 92 11.3 109.4-5.7 17-47.4 17-47.4-13.9 3-15.5 1.4-9.9-9.5-9.9-9.5-118-7.2-126 0z"/><path d="M426.7 362.7s-11.7 12.8-7.3 15.2 32.3 46 32.3 46 92 11.3 109.4-5.7 17-47.4 17-47.4-13.9 3-15.5 1.4-9.9-9.5-9.9-9.5-118-7.2-126 0z" opacity=".02"/><path class="st8" d="M592.3 200.5l-30 24-9.1.7-3.3.2-55.9 4.1-58-4.2-8.6-.6-11-.8-23-22s16.3-17.4 30.5-29.2c5.6-4.6 10.9-8.4 14.8-9.9l.7-.2c2.4-.9 4.6-2.5 6.3-4.4 11.3-11.6 21.7-40.3 21.7-40.3s49.7-25.7 43.7 8 22.3 25.3 22.3 25.3l9.3 4.3 3.7 1.7 9.4 4.3 21.2 9.7c16.7 7.6 15.3 29.3 15.3 29.3z"/><circle class="st3" cx="491.7" cy="100.6" r="44.7"/><path class="st3" d="M592.4 232.3H391.7v-.5l1.7-29s16.3-17.4 30.5-29.2l126-5 5.9-6.2 21.2 9.7c16.7 7.7 15.3 29.4 15.3 29.4s2.3 25.1.1 30.8z"/><path class="st1" d="M592.4 231.3H391.7v-.5l1.7-29s16.3-17.4 30.5-29.2l126-5 5.9-6.2 21.2 9.7c16.7 7.7 15.3 29.4 15.3 29.4s2.3 25.1.1 30.8z"/><path class="st3" d="M459.5 150s31.7 40.3 73.8-.8S538 241 538 241l-91 10.8L459.5 150z"/><path class="st1" d="M459.5 152s31.7 40.3 73.8-.8S538 243 538 243l-91 10.8L459.5 152z"/><path class="st3" d="M546.4 159.1l3.3 51.1 3.6 17 2.7 13s7 100 5 105 1 9 1.4 11.7-.4 9.3-.1 12.3 0 4.3-7.7 3.3-18.3-2.9-18.3-2.9-27 2-36.3-1.3-27-3.3-27-3.3-26.7.7-35.3-.3-13.3 10.7-19 7.3 6.7-35.7 10.7-45-5.3-33-5.3-33l12-66.6 2.7-15.1v-47.4l.7-.2c2.4-.9 4.6-2.5 6.3-4.4l3 47.7 94 3.3v-53.7"/><path class="st1" d="M546.4 157.1l3.3 51.1 3.6 17 2.7 13s7 100 5 105 1 9 1.4 11.7-.4 9.3-.1 12.3 0 4.3-7.7 3.3-18.3-2.9-18.3-2.9-27 2-36.3-1.3-27-3.3-27-3.3-26.7.7-35.3-.3-13.3 10.7-19 7.3 6.7-35.7 10.7-45-5.3-33-5.3-33l12-66.6 2.7-15.1v-47.4l.7-.2c2.4-.9 4.6-2.5 6.3-4.4l3 47.7 94 3.3v-53.7"/><path class="st3" d="M557.2 50.5c-.6-2.1-1.4-4.3-3-5.7-1.6-1.1-3.4-1.9-5.3-2.2-4.6-1.2-9.2-2.1-13.9-2.7-.7-2.2-1.7-4.3-3-6.2-9.8-13.8-24.3-26.9-41.4-29.8-8.9-1.5-19.3-.2-25 6.9-3.1 3.9-4.5 9-7.7 12.8-6.1 7.4-17.1 8.3-24.8 14-4.1 3-7.1 7.3-10 11.6-3.1 4.6-6.4 9.3-7.4 14.8-2 10.9 5.2 21.3 6.5 32.3 3 24.6-23.4 46.5-18.4 70.8 2.9 14.2 16 24.1 29.5 29.2 4.8 1.8 10.2 3.6 12.5 8.1 1 2 1.2 4.3 2.1 6.3 3.2 6.7 13.5 7 19.1 2.1 5.6-4.9 7.3-12.9 8-20.3 2.7-32.4-10.3-64.3-8.8-96.8.5-9.8 3.2-20.9 12-25.4 11.8-6 26.1 4 39.1 2.1 6.2 15 7.5 31.5 3.7 47.3-2.1 8.6-5.7 17-5.9 25.9-.4 13.6 6.9 25.9 13.2 37.9 1.4 2.2 2.3 4.7 2.7 7.3.1 2.6-.4 5.2-1.4 7.6-3.6 9.6-9.7 18.5-10.4 28.8-.2 1.2.1 2.4.8 3.4.7.7 1.6 1.1 2.6 1.2 10.8 1.9 20.1-7.7 25.4-17.3 5.9-10.6 9.3-22.4 10-34.5 1.1-20.4-6.2-40.4-5.8-60.8.6-23.1 11.1-46.4 5-68.7z"/><path class="st9" d="M558.2 49.5c-.6-2.1-1.4-4.3-3-5.7-1.6-1.1-3.4-1.9-5.3-2.2-4.6-1.2-9.2-2.1-13.9-2.7-.7-2.2-1.7-4.3-3-6.2-9.8-13.8-24.3-26.9-41.4-29.8-8.9-1.5-19.3-.2-25 6.9-3.1 3.9-4.5 9-7.7 12.8-6.1 7.4-17.1 8.3-24.8 14-4.1 3-7.1 7.3-10 11.6-3.1 4.6-6.4 9.3-7.4 14.8-2 10.9 5.2 21.3 6.5 32.3 3 24.6-23.4 46.5-18.4 70.8 2.9 14.2 16 24.1 29.5 29.2 4.8 1.8 10.2 3.6 12.5 8.1 1 2 1.2 4.3 2.1 6.3 3.2 6.7 13.5 7 19.1 2.1 5.6-4.9 7.3-12.9 8-20.3 2.7-32.4-10.3-64.3-8.8-96.8.5-9.8 3.2-20.9 12-25.4 11.8-6 26.1 4 39.1 2.1 6.2 15 7.5 31.5 3.7 47.3-2.1 8.6-5.7 17-5.9 25.9-.4 13.6 6.9 25.9 13.2 37.9 1.4 2.2 2.3 4.7 2.7 7.3.1 2.6-.4 5.2-1.4 7.6-3.6 9.6-9.7 18.5-10.4 28.8-.2 1.2.1 2.4.8 3.4.7.7 1.6 1.1 2.6 1.2 10.8 1.9 20.1-7.7 25.4-17.3 5.9-10.6 9.3-22.4 10-34.5 1.1-20.4-6.2-40.4-5.8-60.8.6-23.1 11.1-46.4 5-68.7z"/><path fill="#c3c7d9" d="M538.4 488.4l39.6.5-6.2-29.3-30.4 3.5z"/><path class="st10" d="M659 422.5c-2.7 3.3-13 9.3-14 11.3s-13.3 8-19.7 9-26.3 5.3-30 7.7c-2.6 1.7-23.7 7-37.6 10-3.8.9-7.6 1.6-11.4 2-6 .3-71.7-22-71.7-22l12.7-13 .7-.2c3.6-1.2 20.1-6.8 29.3-9.5 10.3-3 22.3-15.3 22.3-15.3s17.7-6 20-6.7-6-23.3-6-23.3 38.3-5.3 53.3-9.8 49.7-2.8 56 14.8-1.2 41.7-3.9 45z"/><path class="st1" d="M484.3 478.8s-7.7 8-15.3 7.3-34.5 2-34.5 2c-4.9 1.9-9.4 4.6-13.5 7.8-6.3 4.9-9.6 1-10.2.2l-.1-.2c-3.3 10.5-11 2.5-11 2.5s3.3-32 2.3-36 6.6-10.9 6.6-10.9l9-2.3 22.7-5.7 32.7 11.3 11.3 24z"/><path class="st3" d="M417.5 449.3l-6.8 46.8-.1-.2c-3.3 10.5-11 2.5-11 2.5s3.3-32 2.3-36 6.6-10.9 6.6-10.9l9-2.2zm47.2-133.1s17.7 6 33 0m27.3 11.3s7.3 3.7 13 0m-13 8.7s12.3 1.6 14.7-1.7M521 354.8s23.2-3 28.9-7m-99.6 0s13 7.3 22.7 7m84.7 105.7c-3.8.9-7.6 1.5-11.4 2-6 .3-71.7-22-71.7-22l12.7-13 .7-.2c2 1.4 3.6 2.6 4.8 3.5 5.5 4.3 10.8-1.3 12.8-1.3s19.4 14.3 19.4 14.3 16 3.7 18.7 7 12 2.7 13.7 5c.4.7.5 2.5.3 4.7z"/><path class="st10" d="M434.4 372.1s-16.2 1.3-25.6-2.5c-9.4-3.7-40.6-12.2-49.5-5.6s-30.4 12.6-19.9 37.8c10.5 25.1 15.2 25.7 15.2 25.7 3.1 2.3 5.9 5 8.2 8.1 3.1 4.6 31.3 14.7 38.3 14.6s19.3-.4 36.9 11.3c17.6 11.6 33.2 12.7 33.2 12.7s22.2 8.6 29.1 10.4 38.4 9.9 45.6 7.1c7.3-2.8 11.6-19.6 11.6-19.6s3-15.1 1.3-17.4-11-1.4-13.8-4.7-18.8-6.6-18.8-6.6-17.5-14-19.5-13.9-7.2 5.8-12.8 1.6c-11.1-7.9-22.8-15-34.9-21.3-12.8-6.6-24.6-37.7-24.6-37.7z"/><path class="st3" d="M402 383.5c5.8-1.2 11.9.4 16.4 4.3 8 6.7 34.9 20.1 34.9 20.1M602 383.1s-35.7 5.4-42.3 12.7"/><path class="st1" d="M645.3 487.5h-1.6c-5.6-.1-24.8-.3-28.4.6-4.3 1.1-61.7 1.2-61.7 1.2l11.2-2.6s-4.5-14.5-1.8-15.8c0 0-15.2-9.6-4-16.5s23.4-4.3 23.4-4.3l28.2-10.2 5.4-2s32 1 41.1 22.8c9.1 22.1-11.8 26.8-11.8 26.8z"/><path class="st3" d="M643 493.5h-1.6c9.3-7.7 30.4-31.1-32.2-48.1l5.5-1.9s32 1.7 40.7 23.7-12.4 26.3-12.4 26.3z"/><circle class="st13" cx="584.2" cy="465.8" r="1.8"/><circle class="st13" cx="574" cy="468.7" r="1.8"/><path d="M524.5 98.9c.4-11-1.6-22-5.7-32.1-13 1.9-27.2-8.1-39.1-2.1-8.8 4.4-11.5 15.6-12 25.4-.1 2.6-.1 5.2-.1 7.8 0-.9 0-1.8.1-2.8.5-9.8 3.2-20.9 12-25.4 11.8-6 26.1 4 39.1 2.1 3.5 8.6 5.4 17.8 5.7 27.1zm-100.8-1.8c.2-2.2.1-4.4-.1-6.5-1.1-8.8-5.9-17.2-6.7-25.8-1.1 10.3 5.4 20.3 6.7 30.8.1.4.1.9.1 1.5zm52.7 89.7c-.6 7.4-2.4 15.4-8 20.3s-16 4.6-19.1-2.1c-1-2-1.1-4.3-2.1-6.3-2.2-4.6-7.7-6.4-12.5-8.1-13.5-5.1-26.6-15-29.5-29.2-.3-1.3-.4-2.6-.5-3.9-.2 3-.1 6 .5 8.9 2.9 14.2 16 24.1 29.5 29.2 4.8 1.8 10.2 3.6 12.5 8.1 1 2 1.2 4.3 2.1 6.3 3.1 6.7 13.5 7 19.1 2.1 5.6-4.9 7.3-12.9 8-20.3.3-3.9.4-7.8.3-11.7 0 2.3-.1 4.5-.3 6.7zm77.2-73.2v4.3c.6-18.6 7.4-37.3 6.7-55.5-.5 16.8-6.3 34.1-6.7 51.2zm-21.4 75.2c.2-1.2.3-2.4.2-3.6-.4-2.6-1.3-5.1-2.7-7.3-5.8-11-12.4-22.3-13.2-34.5 0 .5-.1 1-.1 1.6-.4 13.5 6.9 25.9 13.2 37.9 1.2 1.8 2 3.8 2.6 5.9zm27.2-14.5c-.7 12.1-4.2 23.9-10.1 34.5-5.3 9.6-14.6 19.2-25.4 17.3-1-.1-1.9-.5-2.6-1.2-.2-.2-.4-.5-.5-.8l-.3 2.4c-.2 1.2.1 2.4.8 3.4.7.7 1.6 1.1 2.6 1.2 10.8 1.9 20.1-7.7 25.4-17.3 5.9-10.6 9.3-22.4 10.1-34.5.1-2.3.1-4.7.1-7-.1.7-.1 1.4-.1 2z" opacity=".1"/><path d="M561 475.4s25.3 10.6 42-12.9m-37 31.4s20.7-13.4 47-.4m-185.3-2.6s8.7-19.6 31.9-4.6" opacity=".1" fill="none" stroke="#000" stroke-miterlimit="10"/><path class="st3" d="M399.5 201.3l17.7-16s68.6-4.5 71.5 18.8c0 0 24.3-27.7 75.5-21.5l21.7 17.2-59.8 26.3-58.2 20.2-42.8-19.2-25.6-25.8z"/><path class="st2" d="M399.5 202.3l17.7-16s68.6-4.5 71.5 18.8c0 0 24.3-27.7 75.5-21.5l21.7 17.2-59.8 26.3-58.2 20.2-42.8-19.2-25.6-25.8z"/><path class="st3" d="M391.7 204.3l7.8 93.7 83 4.2-3.6-93.3-.1-1.6z"/><path class="st0" d="M391.7 202.3l7.8 93.7 83 4.2-3.6-93.3-.1-1.6z"/><path class="st3" d="M589.6 202.3L504 215.2v94.1l83.7-12.1z"/><path class="st0" d="M589.6 200.3L504 213.2v94.1l83.7-12.1z"/><path class="st4" d="M569.4 223.3l-46.2 5.1 1 15.8 45.2-4.9z"/><path class="st8" d="M404 346.2l4.7 12.7s7 6 14.7 3 14.3-4.5 17.7-7.4 8-17.6 8-17.6 4.7-16 9.3-20 17-59.1 0-53.7-30 55.4-30 55.4-3 3.7-7.3 4-13-.7-14.7 3-7.4 13.2-2.4 20.6z"/><path class="st3" d="M504 215.2c-8.9 2-18.2-.3-25.1-6.3l3.6 93.3s8.5 9.2 21.5 7.1v-94.1z"/><path class="st0" d="M504 213.2c-8.9 2-18.2-.3-25.1-6.3l3.6 93.3s8.5 9.2 21.5 7.1v-94.1z"/><path class="st3" d="M504 213.2c-8.9 2-18.2-.3-25.1-6.3l3.6 93.3s8.5 9.2 21.5 7.1v-94.1zm2-10.6s34.8-10.6 43.9-9.1m-82.8 4.5s-33.8-8-39.4-5.7M528 204s23.3-8.5 31.7-4.5m-43.5 218.7c3.6-2.7 7.5-5.1 11.5-7.1 6-2.9 17-10.4 17-10.4m-117-84.5s-14.6 12-19 13-7.1 10.4-7.1 10.4"/><path class="st8" d="M581 344.4l-4.7 12.7s-7 6-14.7 3-14.3-4.5-17.7-7.4-8-17.6-8-17.6-4.7-16-9.3-20-17-59.1 0-53.7c17 5.4 30 55.4 30 55.4s3 3.7 7.3 4 13-.7 14.7 3 7.4 13.3 2.4 20.6z"/><path class="st3" d="M572.9 321s9.5 6.1 9.5 13.5"/><circle class="st8" cx="491.8" cy="98.4" r="44.7"/><path class="st9" d="M463.8 86.4c5.4-.8 10.2-4 15.3-5.8 11.6-4.1 24.4-1.3 36.2 2.4 4.5 1.4 9.1 3 13.8 3s9.7-1.9 12.1-6c2.2-3.7 1.8-8.6-.1-12.5s-5-7.1-8.2-10.1c-10.4-9.8-23.3-19-37.6-18-5.7.4-11.2 2.5-16.5 4.7-6.6 2.9-13.1 6.1-19.4 9.8-4.8 2.8-13.7 6.5-16.5 11.6-6.2 11.5 11.1 22.4 20.9 20.9z"/><path class="st3" d="M541.2 75.8c-2.4 4.1-7.4 6-12.1 6s-9.3-1.5-13.8-2.9c-11.7-3.7-24.5-6.5-36.1-2.4-5.2 1.8-9.9 5-15.4 5.8-7.9 1.2-20.6-5.6-22-14.4-1.5 10.1 13.2 18.8 22 17.4 5.4-.8 10.2-4 15.4-5.8 11.6-4.1 24.4-1.3 36.1 2.4 4.5 1.4 9.1 3 13.8 2.9s9.7-1.9 12.1-6c1.2-2.2 1.7-4.8 1.4-7.3-.1 1.5-.6 2.9-1.4 4.3z"/><g class="st16"><path class="st17" d="M203.4 440.8l11.1 2.4 10.1 48.6-5.1-1.1-2.6-12.5-19.5-4.1-3.8 11.1-5.1-1.1 14.9-43.3zm12.7 32.6l-5.6-26.6-3.4-.7-8.2 23.7 17.2 3.6zm13.6 18.8l.5-4.3c3.2 1.1 8.4 2.9 10.8 3.4 5.4 1.1 8.3.5 8.5-4 .2-3.5-1.5-4.7-8.5-7.2-7.4-2.8-10.8-5-10.5-11.6.4-7.3 6.3-8.5 12.3-7.2 3.6.8 8.8 2.6 11.8 3.8l-.3 4.3c-3.1-1.1-8.4-2.8-11.5-3.5-4.1-.9-7.2-.4-7.4 3.5-.2 3.1 1.3 4.2 8.2 6.9 8.1 3.1 11.2 5.5 10.8 11.9-.4 7.8-5.4 9.3-13.3 7.7-3-.6-8.3-2.5-11.4-3.7zm30.5 6.5l.5-4.3c3.2 1.1 8.4 2.9 10.8 3.4 5.4 1.1 8.3.5 8.5-4 .2-3.5-1.5-4.7-8.5-7.2-7.4-2.8-10.8-5-10.5-11.6.4-7.3 6.3-8.5 12.3-7.2 3.6.8 8.8 2.6 11.8 3.8l-.3 4.3c-3.1-1.1-8.4-2.8-11.5-3.5-4.1-.9-7.2-.4-7.4 3.5-.2 3.1 1.3 4.2 8.2 6.9 8.2 3.1 11.2 5.5 10.8 11.9-.4 7.8-5.4 9.3-13.3 7.7-2.9-.6-8.2-2.5-11.4-3.7z"/></g><g class="st16"><path class="st17" d="M291.5 489.4c.6-12.6 6.3-16.3 14.6-14.6 8.7 1.9 13.1 7.5 12.5 18.4l-.5 3.7-21.7-4.6c-.3 7.1 1.6 11.2 8.1 12.6 3.5.8 9 1.6 12.1 2l-.1 4c-3.2-.2-9-.8-12.9-1.7-9.8-2.1-12.7-8.5-12.1-19.8zm22.1 2.5c.4-8.2-1.9-11.7-7.7-12.9-5.6-1.2-8.9 1.3-9.3 9.3l17 3.6z"/></g><g class="st16"><path class="st17" d="M327.3 502l.9-17.5-4.6-1 .2-4.3 4.6 1 .5-10.2 4.9 1-.5 10.2 10.5 2.2-.2 4.3-10.5-2.2-.8 16c-.4 7.2 0 9.3 4.3 10.2 1.3.3 4.2.7 5.9.9l.1 4.2c-1.9-.1-5-.3-6.7-.7-6.8-1.4-9.1-4.5-8.6-14.1zm19.6 15.1l.5-4.3c3.2 1.1 8.4 2.9 10.8 3.4 5.4 1.1 8.3.5 8.5-4 .2-3.5-1.5-4.7-8.5-7.2-7.4-2.8-10.8-5-10.5-11.6.4-7.3 6.3-8.5 12.3-7.2 3.6.8 8.8 2.6 11.8 3.8l-.3 4.3c-3.1-1.1-8.4-2.8-11.5-3.5-4.1-.9-7.2-.4-7.4 3.5-.2 3.1 1.3 4.2 8.2 6.9 8.1 3.1 11.2 5.5 10.8 11.9-.4 7.8-5.4 9.3-13.3 7.7-3-.6-8.3-2.5-11.4-3.7z"/></g><g class="st16"><path class="st18" d="M175.4 544.5l5.1 1.1-1 20.6 23.1 4.9 1-20.6 5.1 1.1-2.3 46-5.1-1.1 1-20.8-23.1-4.9-1 20.8-5.1-1.1 2.3-46z"/></g><g class="st16"><path class="st18" d="M215.7 582.3c.6-11.4 4.5-16.1 14.9-13.9 10.5 2.2 13.8 8.4 13.2 19.9-.6 12.1-3.8 17-15 14.7-11-2.4-13.7-8.6-13.1-20.7zm23.1 4.9c.5-9.2-1.4-13-8.4-14.5s-9.2 1.4-9.6 10.6c-.5 9.4.6 13.6 8.3 15.3 7.7 1.7 9.2-1.9 9.7-11.4zm15-27.8l4.9 1-2.4 47.7-4.9-1 2.4-47.7z"/></g><g class="st16"><path class="st18" d="M265.6 592.9c.6-11.4 4.5-16.1 14.9-13.9 10.5 2.2 13.8 8.4 13.2 19.9-.6 12.1-3.8 17-15 14.7-11-2.4-13.7-8.6-13.1-20.7zm23.1 4.9c.5-9.2-1.4-13-8.4-14.5s-9.2 1.4-9.6 10.6c-.5 9.4.6 13.6 8.3 15.3 7.7 1.7 9.2-2 9.7-11.4zm15-26.1l5.1 1.1-2.1 41.3 20 4.2-.2 4.6-25.1-5.3 2.3-45.9z"/></g><g class="st16"><path class="st18" d="M331.1 607.4c.6-12.6 6.3-16.3 14.6-14.6 8.7 1.9 13.1 7.5 12.5 18.4l-.5 3.7-21.7-4.6c-.3 7.1 1.6 11.2 8.1 12.6 3.5.8 9 1.6 12.1 2l-.1 4c-3.2-.2-9-.8-12.9-1.7-9.7-2-12.7-8.5-12.1-19.8zm22.1 2.6c.4-8.2-1.9-11.7-7.7-12.9-5.6-1.2-8.9 1.3-9.3 9.3l17 3.6zm13.4-12l4.9 1-.1 2.3c2.3-.8 6.7-1.6 10.3-.8 9 1.9 10.8 6.9 10.2 18.7l-.9 17.5-4.9-1 .9-17.4c.4-8.8-.3-12.2-6.4-13.5-3.4-.7-7.4-.2-9.4.5l-1.3 27-4.9-1 1.6-33.3zm32.4 39.8l.5-4.3c3.2 1.1 8.4 2.9 10.8 3.4 5.4 1.1 8.3.5 8.5-4 .2-3.5-1.5-4.7-8.5-7.2-7.4-2.8-10.8-5-10.5-11.6.4-7.3 6.3-8.5 12.3-7.2 3.6.8 8.8 2.6 11.8 3.8l-.3 4.3c-3.1-1.1-8.4-2.8-11.5-3.5-4.1-.9-7.2-.4-7.4 3.5-.2 3.1 1.3 4.2 8.2 6.9 8.1 3.1 11.2 5.5 10.8 11.9-.4 7.8-5.4 9.3-13.3 7.7-3-.6-8.3-2.5-11.4-3.7z"/></g><g class="st16"><path class="st17" d="M116.2 684.5l.7-4.1c3.9 1.3 10.1 3.3 13.6 4 6.4 1.4 9.8-.7 10.1-7.1.3-5.2-2.3-7.2-9.7-10.2-9.4-4-13.9-7.3-13.5-16.1.4-8.9 6.4-11.1 15.3-9.2 3.9.8 10.2 2.9 13.7 4.2l-.7 4.2c-3.9-1.3-10.1-3.3-12.9-3.9-6.4-1.4-10 .2-10.2 5.4-.3 6 2.8 7.6 10.7 11.1 9 4 12.9 7.2 12.5 15.2-.5 10.2-6.2 13-15.2 11.1-4.1-.9-10.6-3.2-14.4-4.6zm36.2-8.8c.6-12 4.7-15.8 14.5-13.8 2.2.5 6.3 2 8.9 2.9l-.4 4.1c-2.2-.7-5.9-1.9-7.7-2.3-7.6-1.6-9.8 1.3-10.2 10.2-.5 9.8.8 13.7 9 15.5 1.8.4 5.5.8 7.8 1v4.2c-2.6-.2-7-.5-9.2-1-10.5-2.3-13.3-7.8-12.7-20.8zm30.9-9.7l4.9 1-.2 4.5c2.5-1.2 7.6-2.8 12.2-2.7l-.3 5c-4.5 0-9.6 1.1-12.2 2l-1.2 24.4-4.9-1 1.7-33.2zm22.7 4.9l4.9 1-1.7 33.2-4.9-1 1.7-33.2zm.7-13.3l4.9 1-.3 5.8-4.9-1 .3-5.8z"/></g><g class="st16"><path class="st17" d="M220.4 673.9l4.9 1-.1 2.4c2.2-.9 6.4-1.7 9.9-1 8.3 1.8 11.6 7.6 11.1 19.4-.7 13.1-5 16.8-15.2 14.6-2.8-.6-5.9-1.7-7.3-2.3l-.7 14.8-4.9-1 2.3-47.9zm20.8 20.8c.5-9.1-2.1-13-6.9-14-3.2-.7-7.2 0-9.2.7l-1.1 22.4c1.4.5 4.4 1.6 7.1 2.2 7 1.5 9.6-1.7 10.1-11.3z"/></g><g class="st16"><path class="st17" d="M255.4 703.4l.9-17.5-4.6-1 .2-4.3 4.6 1 .5-10.2 4.9 1-.5 10.2 10.5 2.2-.2 4.3-10.5-2.2-.8 15.9c-.4 7.2 0 9.3 4.3 10.2 1.3.3 4.2.7 5.9.9l.1 4.2c-1.9-.1-5-.3-6.7-.7-6.8-1.4-9.1-4.5-8.6-14zm22.5-17.3l4.9 1-1.7 33.2-4.9-1 1.7-33.2zm.7-13.3l4.9 1-.3 5.8-4.9-1 .3-5.8zm13.7 16.4l4.9 1-.1 2.3c2.3-.8 6.7-1.6 10.3-.8 9 1.9 10.8 6.9 10.2 18.7l-.9 17.5-4.9-1 .9-17.4c.4-8.8-.3-12.2-6.4-13.5-3.4-.7-7.4-.2-9.4.5l-1.3 27-4.9-1 1.6-33.3zm32 46c.2-3.8 2.1-5.3 5.6-7.1-1.1-1-1.7-2.9-1.6-5 0-.9 1.4-3.3 2.5-4.8-2.7-1.8-5-5-4.7-11.1.4-8.2 5.6-10.3 12.9-8.7 2.4.5 5.3 1.6 6.8 2.3l9.7 1.8-.2 4.3-6.2-1.4c1.1 1.5 1.9 3.6 1.8 7.1-.4 8.6-4.8 10.3-13.3 8.5-.7-.1-2.5-.7-3.2-.9-.6 1.2-1.3 2.9-1.4 3.5-.1 2.7.4 3.2 7.8 4.7 9.4 2 12.7 4.6 12.3 12.5-.4 7.5-5.9 9.4-15.2 7.5-10.3-2.4-14-5.5-13.6-13.2zm23.8 4.7c.3-5-1.9-6-7.8-7.3-1.7-.4-5.1-1.3-7.1-1.8-2.9 1.5-3.8 2.5-4 5.1-.2 4.6 1.6 6.6 9 8.2 6.6 1.3 9.6.1 9.9-4.2zm-2.1-28.5c.3-5.2-1.7-7.7-7.2-8.9-5.1-1.1-7.4.5-7.7 5.8-.3 5.2 1.8 7.7 6.9 8.8 5.6 1.1 7.7-.5 8-5.7z"/></g></svg>