<svg version="1.1" id="_x38_69a981d-5394-490d-9104-6940aaebaf2b" xmlns="http://www.w3.org/2000/svg" x="0" y="0" viewBox="0 0 370 300" xml:space="preserve"><style>.st0{opacity:.1;enable-background:new}.st0,.st1{fill:#33ded2}.st3{fill:#4c4981}.st4{opacity:.1;enable-background:new}.st5{fill:#774d56}.st6{fill:#5b58a6}.st8{fill:#444053}.st9{fill:#2f2e41}.st11{fill:#9e7463}</style><ellipse class="st0" cx="147.9" cy="289.8" rx="36.8" ry="3.6"/><ellipse class="st0" cx="260.8" cy="296.4" rx="36.8" ry="3.6"/><path class="st0" d="M162.6 4.4c16.2-6 35.9-.8 52.7 6.7 52.9 23.7 91.4 68.8 122 114.7 11.1 16.6 21.6 34 25.8 52.5 8.5 37.8-13.7 76.8-51.3 90.5-12.8 4.7-26.9 6.6-40.9 7.6-25 1.9-50.9 1.1-75.8-5.9-17.7-5-34.5-13.1-50.5-22-44.8-24.9-85.8-57.3-115.4-96.8-12.9-17.4-23.8-37-24.2-57-.3-20 12.7-40.1 34.2-43.5 8.9-1.4 18.2.1 27.4 1.6 13.5 2.2 27.1 4.6 40.5 3.6 13.8-1 31.7-6.4 34.2-19.5 2.6-14.2 5.1-26.5 21.3-32.5z"/><path class="st1" d="M86.6 279.5s17.3-1 15.3 11.1c0 0 .4 2.2-1.5 3.1 0 0 0-.9-1.8-.6-.6.1-1.3.1-1.9.1-.9-.1-1.6-.4-2.3-1 0 0-4.9-2-6.7-10 0 0-1.4-1.7-1.4-2.2l2.9 1.3s-1 2.1-.2 3.9c0 0 .1-3.8.6-3.7.1 0 1.5.7 1.5.7s-1.7 3.7-.4 6.3c0 0-.5-4.5 1-6.1l2 1.2s-2 3.8-.6 6.9c0 0-.4-4.7 1.1-6.6l1.9 1.4s-1.9 3.7-.7 6.3c0 0 .1-5.5 1.1-6 0 0 1.6 1.4 1.9 2 0 0-1.3 2.7-.5 4.1 0 0 .5-3.7.9-3.7 0 0 1.6 2.4 1.8 4.1 0 0-.1-2.5-1.4-4.3 0 0 1.6.3 2.5 1.3 0 0-.3-1.7-2.9-1.9 0 0-1.3-1.9-1.7-2 0 0 2.6-.2 4.2.5 0 0-1.4-1.6-4.7-.9l-1.8-1.5s3.4-.5 4.9 0c0 0-1.7-1.4-5.4-.4l-2-1.2s2.9-.6 4.7-.4c0 0-1.9-1-5.3.1l-1.4-.6s2.2-.4 2.8-.5c.6-.1.7-.3.7-.3-1.4-.2-2.8-.1-4.1.5-.1.3-3.1-.8-3.1-1z"/><ellipse class="st0" cx="98.5" cy="294.8" rx="12.3" ry="2.1"/><path class="st1" d="M68.9 254.2s9.8-.6 8.6 6.2c.1.7-.2 1.4-.9 1.8 0 0 0-.5-1-.3-.4.1-.7.1-1.1 0-.5 0-.9-.2-1.3-.5 0 0-2.7-1.1-3.8-5.6 0 0-.8-1-.8-1.2l1.6.7s-.6 1.2-.1 2.2c0 0 0-2.2.4-2.1.1 0 .9.4.9.4s-1 2.1-.3 3.6c0 0-.3-2.5.5-3.4l1.1.7s-1.1 2.2-.4 3.9c0 0-.2-2.7.6-3.7l1 .8s-1.1 2.1-.4 3.5c0 0 .1-3.1.6-3.3 0 0 .9.8 1.1 1.1 0 0-.7 1.5-.3 2.3 0 0 .3-2.1.5-2.1 0 0 .9 1.4 1 2.3 0-.9-.3-1.7-.8-2.4.5.1 1 .4 1.4.7 0 0-.1-1-1.6-1.1 0 0-.8-1-1-1.1 0 0 1.5-.1 2.4.3 0 0-.8-.9-2.7-.5l-1-.9s1.9-.3 2.8 0c0 0-.9-.8-3-.2l-1.1-.7c.9-.2 1.8-.3 2.7-.2 0 0-1-.6-3 0l-.8-.4s1.2-.3 1.6-.3c.4 0 .4-.1.4-.1-.8-.1-1.6 0-2.3.3.2 0-1.5-.6-1.5-.7z"/><ellipse class="st0" cx="75.6" cy="262.7" rx="6.9" ry="1.2"/><path class="st1" d="M309.3 274s11.8-.7 10.4 7.5c.1.9-.3 1.7-1 2.1 0 0 0-.6-1.2-.4-.4.1-.9.1-1.3.1-.6 0-1.1-.3-1.6-.6 0 0-3.3-1.4-4.6-6.8 0 0-1-1.2-.9-1.5l2 .9s-.7 1.4-.1 2.6c0 0 .1-2.6.4-2.5.1 0 1 .5 1 .5s-1.2 2.5-.3 4.3c0 0-.3-3.1.6-4.1l1.4.8s-1.4 2.6-.4 4.7c0 0-.3-3.2.7-4.5l1.3 1s-1.3 2.5-.5 4.3c0 0 .1-3.8.8-4.1 0 0 1.1 1 1.3 1.4 0 0-.9 1.9-.3 2.8 0 0 .3-2.5.6-2.5 0 0 1.1 1.6 1.2 2.8 0-1-.4-2.1-1-2.9.6.1 1.2.4 1.7.9 0 0-.2-1.2-2-1.3 0 0-.9-1.3-1.1-1.3 0 0 1.8-.1 2.9.3 0 0-1-1.1-3.2-.6l-1.3-1s2.3-.3 3.3 0c0 0-1.1-1-3.7-.3l-1.4-.8s2-.4 3.2-.3c0 0-1.3-.7-3.6.1l-1-.4s1.5-.3 1.9-.3.5-.2.5-.2c-.9-.1-1.9 0-2.8.3.2-.1-1.9-.8-1.9-1z"/><ellipse class="st0" cx="317.4" cy="284.4" rx="8.4" ry="1.4"/><linearGradient id="SVGID_1_" gradientUnits="userSpaceOnUse" x1="353.029" y1="550.183" x2="353.029" y2="718.131" gradientTransform="matrix(1 0 0 -1 -98.04 848.39)"><stop offset="0" stop-color="gray" stop-opacity=".25"/><stop offset=".54" stop-color="gray" stop-opacity=".12"/><stop offset="1" stop-color="gray" stop-opacity=".1"/></linearGradient><path d="M297.6 187c-.2-1.3-.4-2.5-.4-3.8 0-1.5-2.1-2.9-2.1-2.9s-1.3-3-2.2-3.4c-.9-.5-3.5-4.3-3.5-4.3 0-.8-.3-1.5-.8-2.1-.8-1-1.5-2.2-2.2-3.3-.4-.4-.2-.8-.7-3.3 0-.1-.1-.3-.1-.4 0-.1 0-.1-.1-.2 1.1-1.2 1.5-2.9 1-4.4-.1-.3-.3-.6-.5-.8-.6-.5-1.6-.3-2.2-.8l.6-2.9c.1-.7.3-1.6-.4-2-.3-.1-.5-.2-.8-.3-1.1-.4-1.7-1.5-2-2.6-.3-1-.4-2.2-.2-3.2.1-1 .4-2 .5-3.1.2-1.9-.3-3.9-1.3-5.5-.4-.7-1-1.3-1.7-1.6-.6-.3-1.4-.4-2-.7-1.3-.9-1.3-2.9-2.3-4s-2.9-1.1-4.5-.8c-1.5.4-3.1 1.1-4.7.9-1-.1-2-.6-3-.7h-.9c-.8.1-1.5.6-1.6 1.3 0 .2-.1.4 0 .5 0 .4.1.9.1 1.3 0 .3-.1.6-.3.9-.2.2-.5.3-.7.6-.2.2-.3.4-.3.6 0 .6.8 1.2 1.3 1.5-.1.1-.3.3-.4.5-1.5 1.7-2.4 3.9-2.4 6.3 0 3.8 2.3 7.2 5.8 8.7l-.1.3c-.1.5-.3.9-.5 1.4-.8-.3-1.6-.1-2.3.3-1 .7-3 .6-3.5.5-.5-.1-6.1-.8-6.6-.6-.5.2-1.3-.6-1.9.4s-.9 1.6-1.4 1.9-1.6 1.1-1.5 1.3c.1.1-1.5 1.2-1.5 1.2s-1.4 1.4-2.2 1.6c-.8.2-2.5 1.3-2.5 1.3l-2 1.5s-1.5.2-1-.8-.8-2.3-.8-2.3-2.5-5.1-2.5-6.1-2-5.5-2-5.5h-.3l-.1-.4c-.4-1.1-.9-2.4-1.3-3.1-.7-1.4-1.1-1.6-1.1-1.6s-8.6-6.5-14.2-4.5 10.2 7.9 11.7 8.5c.5.2.9.9 1.1 1.7-1.3.6-2.3 1.6-3 2.8 0 0 3.4 7.6 3.5 9.5.1 1.9 2.4 7.2 2.4 7.2s.9 3.9 5.4 3.7c0 0 6.3 1.1 7.7 0s2.6-2.1 3.3-2.2c.5-.2.9-.5 1.3-.9 0 0-2.1 13.2-3.1 14.3-1 1.1-10.1 16-6.8 18.6 2.6 2 5.3 3.8 8.1 5.4.3.1 1.1-1.3 2.3-2.2v.8c0 5.3.7 13.3 1.7 15.1 1.4 2.6.9 7.7.9 7.7.8.4 1.6.5 2.4.6 0 .2.1.4.1.5.8 3 2 7.6 2.7 8.8 1 1.9 1.7 7.7 1.7 7.7s.6 5.7.4 6.6c-.1.3.3 2.7.9 5.7-.4 4.1-1 12-1.1 14.9v.9c0 .3 0 .5-.1.8-.3.8-.6 1.6-1 2.3-.2.4-.3.7-.4 1.1-.4.1-.8.5-1 1.5-.4 1.7-1.1 6.5-1.1 6.5s-.3 2.9-.8 3.5-1.1 4.8 2.7 5.3c3.8.5 5.4-2 5.4-2l-.1-11.5c.1-.1.1-.2.2-.3 0-.1.1-.1.1-.2v-.1l.1-.1c.4-1.1.5-2.3.3-3.4v-1.3c0-.1 0 0 0 0v-.3c0-.2.1-.4.1-.5l.1-.2c.1-.2.1-.4.2-.5v.1c0-.1 0-.1.1-.2.1-.2.1-.4.2-.5l.1-.1.1-.3 1 3.2s.6 2.4.3 3c-.3.6.4 2.9.8 3l-.4 3c-.2 1.6-.4 3.3-.4 4.9 0 .2-.1.4-.1.5-.3 1.5.4 3.9.4 3.9 3.5 4.2 7.7.3 7.7.3s.5-2.2 0-2.6-.3-2-.3-2 .2-3.9.3-6.8c0-2.9-2.3-5.4-2.3-5.4l-.1.1c-.4-1.1-.9-2.4-.8-3 .2-1-.5-11.7-.5-11.7.3-2.9.3-5.7.1-8.6.1-.5.1-1 .2-1.4.3-2.3.5-4.3.6-5.3v-1.9c.1-1.2.3-2.6.3-2.6l.9-5.7s.7-2.8 1.7-4.3l.1-.2c0-.1.1-.1.1-.2s.1-.1.1-.3c.1-.3.3-.6.5-1v-.1l.1-.3v-.1s.1-.2.1-.3v-.1c0-.1.1-.2.1-.3l.1-.2c0-.1.1-.2.1-.3l.1-.2c0-.1 0-.1.1-.2l.1-.3v-.1c.3-.6.5-1.3.7-1.8.1-.2.1-.4.2-.5 2.3.1 3.8.3 3.8.3s.7-5.1.5-8.5c-.1-2.3.3-5.2.6-6.8 0-.2.1-.3.1-.5h.1c1.1.9 1.9-2 1.9-2s-.3-2.7-.7-6v-.3c.6.1 1.3.3 1.9.3 0 0 .4 0 .9-.1 1.4.8 2.8 1.4 4.3 1.9l2.4-4.4c.4-.9 1-1.8 1.5-2.6.7-.9 3.3-3.7 3.2-4.2-.1-.5.9-3.5 1.7-4.9.9-1.5 1.5-4.2 1.4-4.4zm-9.9 3.3c-.9.4-1.8 2.6-1.9 3.3s-1 3.5-2 3.9c-.9.3-2.8 2-3 2.3-.3 0-.6.1-1 .1-.4-2.8-.8-5.1-1-5.5-.7-1.3.8-5.5.8-5.5s.1-4.3 1.1-5.3c.9-1 .7-3.5.7-3.5l.3-1.5c.1-.5 1.3 0 1.3 0s2.4 1.3 2.8 3.3c.4 2 3 5.4 3 5.4s-.4 1.2 0 1.8-.1.8-1.1 1.2z" fill="url(#SVGID_1_)"/><path class="st3" d="M223.4 152.8c1.5-2.5 4.3-3.8 7.2-3.4v5.1h-3.1l-2.4-.6-1.7-1.1z"/><path class="st4" d="M223.4 152.8c1.5-2.5 4.3-3.8 7.2-3.4v5.1h-3.1l-2.4-.6-1.7-1.1z"/><path class="st5" d="M230.8 150.8l-3.8 2.7s0-.5-.1-1.3c-.2-1.4-.6-3.5-1.5-3.9-1.4-.6-17-6.5-11.5-8.5s14 4.5 14 4.5.4.1 1.1 1.6c.4.8.9 2 1.2 3.1.3 1 .6 1.8.6 1.8z"/><path class="st3" d="M261.3 154.9l.4-.2 1.2 1.4-1 2.1-1.7-.7.4-1.7z"/><path class="st6" d="M255.5 279.4s-1.1-.1-1.5 1.6c-.4 1.7-1.1 6.5-1.1 6.5s-.3 2.9-.8 3.5-1 4.8 2.7 5.3 5.3-2 5.3-2l-.1-11.5-4.5-3.4zm13 .5s2.3 2.5 2.3 5.3-.3 6.7-.3 6.7-.2 1.6.3 2c.5.4 0 2.6 0 2.6s-4.1 3.8-7.6-.3c0 0-.7-2.4-.4-3.9.3-1.5 1.1-8.4 1.1-8.4l4.6-4z"/><path class="st5" d="M274.3 227.5s-2.4 6.6-3.4 8.1-1.7 4.3-1.7 4.3l-.9 5.7c-.2 1.3-.3 2.5-.3 3.8 0 1.3-2.3 19.8-2.3 19.8l-3.7 4.7s-1.6 3.3-1.4 4.7c.3 1.4-.2 3.5-.7 4.2 0 0-.1 4.3-.2 5.3s.5 3.7 0 4.2-6.9.3-7.1-.5c-.2-.8.8-4.6.8-4.6l.6-3.7s1.1-2 .9-2.7c-.3-.7.5-2.2.5-2.3.1-.1 1.2-2.3 1-3.1-.2-.8 1.4-18.5 1.4-18.5l4.5-31.7 12 2.3z"/><path class="st4" d="M274.3 227.5s-.4 1-.9 2.3c-.8 2.1-1.9 4.9-2.5 5.8-1 1.5-1.7 4.3-1.7 4.3l-.9 5.7c-.2 1.3-.3 2.5-.3 3.8 0 .5-.3 3.7-.8 7.4-.6 5.6-1.5 12.4-1.5 12.4l-3.7 4.7s-.2.4-.4.9c-.5 1.1-1.1 2.8-.9 3.7.3 1.4-.2 3.5-.7 4.2 0 0-.1 4.3-.2 5.3s.5 3.7 0 4.2-6.9.3-7.1-.5c-.2-.8.8-4.6.8-4.6l.6-3.7s1.1-2 .9-2.7.5-2.2.5-2.3c.1-.1 1.2-2.3 1-3.1-.2-.6.7-11 1.1-16 .1-1.5.2-2.5.2-2.5l3.9-27.3.3-2.2.3-2.2 12 2.4z"/><path class="st5" d="M270.3 293.4c0 .5-6.2 1.2-7.1.6-.9-.5 0-7.1 0-7.1l.4-3c-.4 0-1.1-2.4-.8-3s-.3-3-.3-3l-1-3.2-.6-2c-1-2.3-2.5-8.7-3.4-13.6-.6-3-1-5.4-.9-5.7.2-.8-.4-6.5-.4-6.5s-.7-5.8-1.6-7.7c-.6-1.2-1.9-5.8-2.7-8.7-.4-1.5-.7-2.6-.7-2.6s6.6-.5 10.6-.8c1.9-.1 3.2-.1 3 0-.2.1-.2 1-.2 2.1 0 3 .4 8.3.9 9.7.6 2 1.2 7.9 1 8.5-.3.6-.2 4.4-.2 4.4.5 1.5.7 3.2.8 4.8.1 2.9.1 5.7-.1 8.6 0 0 .6 10.6.5 11.7s1.4 4.2 1.4 4.8.4 4.8.4 4.8 1 6.5 1 6.9zm3.5-128l-.8.8-.5.5-2.9 3.1-7.4.8-3.9-1-1-.3s0-2 .2-4.3c.3-3 .9-6.7 2.3-7.7.7-.6 1.3-1.3 1.7-2.1.3-.6.5-1.1.7-1.8 0-.1 0-.1.1-.3.3-1.1.5-2.2.7-3.3 0 0 .9-.5 2.3-1.1 3.4-1.6 9.4-3.8 7.3 1.1-.3.7-.6 1.5-.8 2.2 0 .1-.1.2-.1.3-.7 2.8-.3 4.4.3 5.3.1.1.2.3.3.5.1.2.3.4.5.5l.9 5.4.1.5v.9z"/><path class="st4" d="M272.6 150.1c-.4 1 .1-.7 0 0-1.6 1.1-5.2 4.3-7.3 4.3-1.4 0-1.8-.3-3-.8.4-1.1.6-2.3.8-3.5-.1 0 12.3-6.8 9.5 0z"/><path class="st5" d="M275.7 144.4c0 4.9-3.7 9-8.6 9.5h-1c-5.3 0-9.6-4.3-9.6-9.6s4.3-9.6 9.6-9.6c5.3.1 9.6 4.4 9.6 9.7z"/><path class="st4" d="M277.1 186.7l-1.4 3.5s-1.1 0-2.8.1c-5.8.2-18.7.4-19.3-1.1-.1-.4-.2-.8-.2-1.2-.1-2.3 1-5.8 1-5.8s.6-7 .6-7.3c0-.3-.5-5.2-.5-5.2l1-3.9 2.9-2.1s1.3 2 2.1 2.2c.8.2 1.8 1.1 1.8 1.1s2.6 1.6 3.4.7c.8-.9 7.3-4.7 7.3-4.7l3.4 3.8.7 19.9z"/><path d="M277.1 187.3l-1.4 3.5s-1.1 0-2.8.1h-.2c-.8 0-1.6 0-2.5.1-4.6.1-11 .1-14.3-.4-1.3-.2-2.1-.4-2.2-.8-.1-.2-.1-.4-.1-.6v-.5c-.1-2.3 1-5.8 1-5.8s.6-7 .6-7.3-.5-5.2-.5-5.2l1-3.9 2-1.4.9-.6c.3.5.6.9 1 1.3.3.4.6.7 1.1.9.8.2 1.8 1.1 1.8 1.1s2.6 1.6 3.4.7c.6-.7 4.6-3.1 6.4-4.2.6-.4.9-.5.9-.5l.5.5 3 3.3.4 19.7z" fill="#fff"/><path class="st4" d="M230.8 150.8l-3.8 2.7s0-.5-.1-1.3c1.9-.8 3-2.5 3.4-3.1.2.9.5 1.7.5 1.7z"/><path class="st3" d="M244.2 159.9l-.8-.2s-1.4 1.4-2.2 1.6c-.8.2-2.4 1.3-2.4 1.3l-1.9 1.5s-1.4.2-1-.8c.4-1-.8-2.3-.8-2.3s-2.4-5.1-2.4-6.1-2-5.5-2-5.5-2.5 4.9-7.2 3.4c0 0 3.4 7.6 3.5 9.5.1 1.9 2.3 7.1 2.3 7.1s.8 3.9 5.3 3.7c0 0 6.2 1.1 7.6 0 1.4-1.1 2.6-2.1 3.2-2.2.6-.1 1.2-.9 1.2-.9v-5.2l-2.4-4.9z"/><path class="st4" d="M236.4 164.8s1.1 4.1.4 4.5l-.4-4.5zm36.4 26.1c-5.8.2-18.7.4-19.3-1.1-.1-.4-.2-.8-.2-1.2l19.1 1 .4 1.3zm1.5 36.6s-.4 1-.9 2.3c-2.4-.1-5.6-.3-8.7-.3h-3.1c-2.1.1-3.9.3-5.1.6-1.5.5-3 .6-4.6.6-.4-1.5-.7-2.6-.7-2.6s6.6-.5 10.6-.8l.3-2.2 12.2 2.4z"/><path class="st8" d="M279.4 211.4l-.8 1.6s-.1.5-.3 1.2c-.3 1.6-.7 4.5-.5 6.8.2 3.4-.5 8.5-.5 8.5s-16.1-1.4-20.9 0c-4.7 1.4-7.1 0-7.1 0s.6-5.1-.8-7.7c-1-1.8-1.6-9.8-1.6-15.1 0-2.4.1-4.3.4-4.6 1-1.2 5.1-13 5.1-13h.9l2.5.1 14.3.8 2.3.1.3.7 6.7 20.6z"/><path class="st3" d="M286.5 206.2l.1 1.4s-7.1-2.3-6.7-5.1c.4-2.8 0-2.5 0-2.5l5.7.5.9 5.7z"/><path class="st4" d="M286.5 206.2l.1 1.4s-7.1-2.3-6.7-5.1c.4-2.8 0-2.5 0-2.5l5.7.5.9 5.7zM241.1 166c.7.6 1.6 1 2.5 1.3-.3-.1-.5-.2-.7-.4-.5-.4-1-.8-1.5-1.1-.4-.3-.9-.8-1.4-.9l1.1 1.1zm.1 1.8c.2.3.4.5.5.9.2.9.2 1.8 0 2.7l-1.1-2.7c-.2-.5-.4-.9-.6-1.4-.1-.2-.8-1-.7-1.1.2-.6 1.7 1.3 1.9 1.6zm31.6 15.1c.8-.1 1.5-.4 2.1-1-1.2.1-2.3.6-3.4.9-1.1.3-2.2.1-3.2-.3 1.3.7 3.1.7 4.5.4zm-3.3-8c-.2 0-.4 0-.6-.1-.9-.5-1.7-1-2.6-1.6-.8-.5-1.8-1.1-2.5-1.8 1.7 1.6 3.3 2.9 5.7 3.5zm2.5 9.3c.5 0 .9 0 1.4-.1.5-.1.9-.4 1.1-.8-.2 0-.3 0-.5.1-1.4.6-2.9.8-4.4.5.7.3 1.6.3 2.4.3zm-8.4 20.4c-.9.3-1.9.5-2.8.5h-2.2l-3.6-.2-1.8-.1c-.2 0-1.1 0-.6-.4.2-.2 1.4-.1 1.7-.1h1.8c1.2 0 2.4 0 3.5.1 1.4-.1 2.7 0 4 .2zm-4.1 1.7c-.6 0-1.4.3-2 .4-.7.1-1.4.1-2.1.1-1.4 0-2.8-.3-4.1-.8 2.7.1 5.5.2 8.2.3zm-7.7 1.9c.3 0 .5.1.8.2 1.5.4 3.1 0 4.7-.3-.4.6-1.1.8-1.8 1-1.1.3-2.3.3-3.4.1-.4-.1-1.3-.2-1.4-.6-.4-.5.8-.4 1.1-.4zm8.5 2.8c.5.1.9.2 1.3.4 1.7.4 3.5-.1 5.2-.5 2-.5 4.2-.6 6.3-.6-.4 0-1 .3-1.4.4-.5.1-1 .3-1.5.4-1 .3-1.9.4-2.9.6-2 .3-4 .4-6 .3-.9 0-2.5 0-3.3-.4.7-.5 1.5-.7 2.3-.6zm.6-54s.1 4.1-.6 5.9c-.2.6-.5 1.6-.9 2.8-.4 1.3-.8 2.8-1.1 3.9-.3 1.1-.5 1.9-.5 1.9s-1.5 12-1.9 17.8v.3c0 .3-.1.6-.1 1-.9 5.7-5.8 14.5-7.4 15.2-.5.3-1 .6-1.4 1 0-2.4.1-4.3.4-4.6 1-1.2 5.1-13 5.1-13h.9v-.5c-.1-2.3 1-5.8 1-5.8s.6-7 .6-7.3c0-.3-.5-5.2-.5-5.2l1-3.9 2-1.4c.3-3 .9-6.7 2.3-7.7.7-.6 1.3-1.3 1.7-2.1.3 0-.3-.2-.3-.2l-.3 1.9z"/><path class="st3" d="M261.7 154.7c-.8-.3-1.5-.1-2.2.3-1 .7-3 .6-3.5.5-.5-.1-6-.8-6.5-.6-.4.2-1.3-.6-1.9.4-.6 1-.8 1.6-1.4 1.9-.6.3-1.6 1.1-1.4 1.3.1.1-1.4 1.2-1.4 1.2l3.2 10.4s-2.1 13.2-3.1 14.3-10 15.9-6.7 18.5c2.5 2 5.2 3.8 8 5.4.4.2 1.6-2.2 3.4-2.9 1.8-.8 7.2-10.6 7.5-16.2.3-5.6 1.9-18.1 1.9-18.1s1.9-6.8 2.5-8.7c.6-1.8.6-5.9.6-5.9l1-1.8z"/><path class="st4" d="M279.4 211.4l-.8 1.6s-.1.5-.3 1.2c-.1 0-.3-.1-.4-.2-1.1-.9-7.5-7.5-7.9-13.4-.2-4.3-.1-8.1 0-9.8v-.9s5-6.1 4.4-8.2c-.6-2.2-1.9-13.6-1.9-13.6l-.2-1.5-.3-2.5-.8-6.2.8.2c.1.2.3.4.5.5l.9 5.4 3 3.3.5 19.9-1.4 3.5s-1.1 0-2.8.1h-.2l6.9 20.6z"/><path class="st3" d="M282.2 178.7s-1.2-.5-1.3 0l-.3 1.5s.2 2.5-.7 3.5c-.9 1-1.1 5.3-1.1 5.3s-1.5 4.2-.8 5.5c.3.5.6 2.9 1 5.7.3 1.8.5 3.8.7 5.6.4 3.3.7 6 .7 6s-.8 2.9-1.9 2-7.5-7.5-7.9-13.4c-.2-4.1-.1-7.7-.1-9.5 0-.8.1-1.2.1-1.2s5-6.1 4.4-8.2c-.6-2.2-1.9-13.6-1.9-13.6l-.2-1.8-.3-1.9-.1-.4-.8-6.1c.1 0 5.1 1.1 5.7 1.8.6.6 4.7 1.6 4.7 1.6 1.2.3 2.2 1.3 2.5 2.5 0 .1.1.3.1.4.5 2.5.4 2.9.7 3.3.5.5-3.2 11.4-3.2 11.4z"/><path class="st4" d="M279.8 205.9c-1.8-.4-4.4-1.2-4.4-3 .1-1.7 2.1-2.3 3.7-2.5.2 1.7.5 3.6.7 5.5z"/><path class="st5" d="M285.4 204.9c-.1.1-.4.3-.8.4-1 .2-1.9.4-2.9.5 0 0-6.1-.5-6-3.3.1-2 2.8-2.5 4.4-2.6h1s4.5 4.4 4.3 5z"/><path class="st4" d="M285.4 204.9c-.1.1-.4.3-.8.4-1.6-2.1-3.8-4.8-4.9-5.1l.3-.3h1c.1 0 4.6 4.4 4.4 5z"/><path class="st3" d="M283.8 167.1l1.8.3c.6 1.1 1.4 2.2 2.2 3.3.5.6.8 1.3.8 2.1 0 0 2.6 3.9 3.5 4.3.9.4 2.1 3.4 2.1 3.4s2.1 1.4 2.1 2.9c0 1.3.2 2.5.4 3.8 0 .2-.3 2.9-1.2 4.3-.9 1.4-1.8 4.4-1.7 4.9s-2.4 3.3-3.2 4.2c-.6.8-1.1 1.7-1.5 2.6l-2.3 4.4s-4.9-7.2-6.7-7.6c0 0 2-1.9 3-2.3s2-3.2 2-3.9c0-.7.9-2.9 1.8-3.2.9-.4 1.4-.8 1-1.4s0-1.8 0-1.8-2.6-3.4-2.9-5.4c-.4-2-2.7-3.3-2.7-3.3l-1.4-3.3 2.9-8.3z"/><path class="st4" d="M290.3 183.4c1-.8 2.2-1.3 3.5-1.3-.8.1-1.7.3-2.3.9-.3.3-.5.5-.6.8-.2.3-1.9 2.4-2.2 2.1-.4-.4 1.3-2.2 1.6-2.5zm-3.9-2c.5 0 1-.4 1.3-.9.2-.5.4-1 .4-1.5.1-.9.3-1.8.5-2.7.1-.4.1-.8-.1-1.1-.1-.3-.2-.5-.4-.8-.3.4-.4 1.2-.5 1.7-.2.6-.3 1.2-.5 1.8-.1.3-.7 3.5-.7 3.5zm-1.6-17.7l-.6.6c-.7.6-1.7 1-1.8 1.9 0 .3 0 .6-.1.9-.2.4-.8.4-1.3.3-.4 0-.8-.2-1-.4-.5-.4-.5-1.1-.9-1.6s-1.1-.8-1.8-.8-1.3.1-2 .1c-.4 0-.9 0-1.3-.1-.1 0-.3 0-.4-.1l-.9-.3c-.1-.1-.3-.1-.4-.2-.5-.2-.9-.5-1.3-.9-.6-.6-1.2-1.4-1.1-2.3 0-.5.3-1 .4-1.6.3-1.5-.8-3-1.9-4.1-.4-.4-.9-.9-1.4-1.3-.7-.6-1.3-1.4-1.6-2.3-.3-.9-.4-1.9-.3-2.9.1-1 .1-2 .1-2.9-.3-3.5-3.3-6.2-6.3-7.6l-.1-.1c3.5-4 9.5-4.4 13.5-.9s4.4 9.5.9 13.5c-.5.5-1 1-1.5 1.4 0 .1-.1.2-.1.3-.7 2.8-.3 4.4.3 5.3.1 0 5.1 1.1 5.7 1.8.6.6 4.7 1.6 4.7 1.6 1.2.4 2.2 1.4 2.5 2.7z"/><path class="st8" d="M258.3 135.6c.2-.2.5-.4.7-.6.6-.7 0-1.8.2-2.7.3-1 1.5-1.4 2.5-1.3 1 .1 2 .6 3 .7 1.6.2 3.1-.5 4.6-.9 1.5-.4 3.4-.4 4.4.8 1.1 1.2 1 3.2 2.3 4 .6.4 1.4.4 2 .7.7.4 1.3.9 1.7 1.6 1 1.6 1.5 3.5 1.3 5.5-.1 1-.4 2-.5 3.1-.1 1.1 0 2.2.2 3.2.3 1.1.9 2.2 1.9 2.6.3.1.5.1.7.3.6.4.5 1.3.4 2l-.6 2.9c.6.5 1.6.3 2.2.8.3.2.4.5.5.8.6 1.7.1 3.5-1.3 4.7-.7.6-1.7 1-1.8 1.9 0 .3 0 .6-.1.9-.2.4-.8.4-1.3.3-.4 0-.8-.2-1-.4-.5-.4-.5-1.1-.9-1.6s-1.1-.8-1.8-.8-1.3.1-2 .2c-1.5.1-3.1-.5-4.2-1.5-.6-.6-1.2-1.4-1.1-2.3 0-.5.3-1 .4-1.6.3-1.5-.8-3-1.9-4.1s-2.4-2.1-3-3.6c-.7-1.8 0-3.9-.2-5.8-.3-3.5-3.3-6.2-6.3-7.6-.7-.5-1.8-1.4-1-2.2z"/><path class="st4" d="M281.7 165.7c-.5-.4-.5-1.1-.9-1.6s-1.1-.8-1.8-.8-1.3.1-2 .2c-1.6.1-3.1-.5-4.2-1.5-.6-.6-1.2-1.4-1.1-2.3 0-.5.3-1.1.4-1.6.3-1.5-.8-3-1.9-4.1-1.1-1.1-2.4-2.1-3-3.6-.7-1.8 0-3.9-.2-5.8-.3-3.5-3.3-6.2-6.3-7.6-.7-.4-1.8-1.2-1-2.1.2-.2.5-.4.7-.6.6-.7 0-1.8.2-2.7 0-.2.1-.4.2-.5-.8.1-1.4.6-1.6 1.3-.2.9.4 2-.2 2.7-.2.2-.5.3-.7.5-.8.9.4 1.8 1 2.1 3 1.5 6 4.1 6.3 7.6.2 1.9-.5 4 .2 5.8.5 1.5 1.9 2.5 3 3.6s2.2 2.6 1.9 4.1c-.1.5-.3 1-.4 1.6 0 .9.5 1.7 1.1 2.3 1.1 1 2.7 1.6 4.2 1.5.7 0 1.3-.2 2-.2s1.4.3 1.8.8c.4.5.4 1.2.9 1.6.3.2.7.4 1 .4.5.1 1 .1 1.3-.3.1-.1.1-.3.1-.5-.4 0-.7-.1-1-.3z"/><path class="st1" d="M229.5 144.4h-24.8v-24.5h24.8v24.5zm-.4-36.9H205c0-38 36.1-35.7 36.1-59.8 0-13.2-10.8-23.8-24.1-23.8-13.2 0-24.1 11.4-24.1 24.2H169C169 21.6 190.4 0 217 0h.2c26.6 0 48.1 21.2 48.1 47.8-.1 30-36.2 33.4-36.2 59.7z"/><path class="st0" d="M89.5 119.6h-6.4v-6.3h6.4v6.3zm-.1-9.5h-6.2c0-9.8 9.3-9.2 9.3-15.4 0-3.4-2.8-6.2-6.2-6.2-3.4.1-6.1 2.8-6.2 6.2h-6.2c.1-6.8 5.7-12.3 12.5-12.3 6.7.1 12.1 5.4 12.3 12.2-.1 7.8-9.3 8.7-9.3 15.5zm64.9 70.9h-6.4v-6.3h6.4v6.3zm-.1-9.5H148c0-9.8 9.3-9.2 9.3-15.4 0-3.4-2.8-6.2-6.2-6.1-3.4.1-6.2 2.8-6.2 6.2h-6.2c.1-6.8 5.7-12.3 12.5-12.3 6.7.1 12.1 5.4 12.3 12.2 0 7.7-9.3 8.6-9.3 15.4zm29.5-68.2h-4.6v-4.6h4.6v4.6zm0-6.9h-4.5c0-7.1 6.7-6.7 6.7-11.2 0-2.5-2-4.5-4.5-4.4-2.5 0-4.4 2-4.5 4.5h-4.5c0-5 4-9 9-9s9 4 9 9c0 5.5-6.7 6.2-6.7 11.1zm79.2 13.3h-2.6v-2.6h2.6v2.6zm-.1-3.9h-2.5c0-4 3.8-3.8 3.8-6.3 0-1.4-1.1-2.5-2.5-2.5s-2.5 1.1-2.5 2.5h-2.5c.1-2.8 2.4-5 5.2-5 2.7.1 4.9 2.2 5 4.9-.2 3.3-4 3.6-4 6.4zM303 227.1h-2.6v-2.6h2.6v2.6zm-.1-3.9h-2.5c0-4 3.8-3.8 3.8-6.3 0-1.4-1.1-2.5-2.5-2.5s-2.5 1.1-2.5 2.5h-2.5c.1-2.8 2.4-5 5.2-5 2.7.1 4.9 2.2 5 4.9-.2 3.3-4 3.6-4 6.4z"/><circle class="st9" cx="143.7" cy="116.9" r="10.9"/><path class="st9" d="M125.1 193.1l2.5 49.3s-.4 35.3 2.1 35.8c2.5.4 7.2 3.4 8.4 1.3 1.3-2.1 7.6-66.9 7.6-66.9s1.7 67.4 6.7 67.8c5.1.4 10.9-2.1 11.8-1.7.8.4.4-84.2.4-84.2l-39.5-1.4z"/><path d="M132.7 277.7s-2.9 0-3.8 1.3c-.8 1.3-3.8 7.6-3.8 7.6s-5.5 5 .4 5.4c5.9.4 8.9-.8 8.9-1.6s0-2.9 1.3-3.4c1.3-.4 2.5-2.5 2.5-3.4 0-.8-1.3-6.3-5.5-5.9zm22.7.4s-2.1 8.4 0 8.9c2.1.4 3.4 1.3 3.8 2.5.4 1.3 4.6 2.7 8 2.3s5.1-2.7 3.8-4c-1.3-1.3-7.6-8.4-8-9.7-.4-1.2-7.6 0-7.6 0z" fill="#3d2a79"/><path class="st11" d="M140.7 124.1s-.8 6.3-2.5 7.2c-1.7.9.8 5.5.8 5.5l7.6 1.3 6.7-5.5s-1.3-8-1.3-8.4c0-.6-11.3-.1-11.3-.1z"/><path class="st4" d="M140.7 124.1s-.8 6.3-2.5 7.2c-1.7.9.8 5.5.8 5.5l7.6 1.3 6.7-5.5s-1.3-8-1.3-8.4c0-.6-11.3-.1-11.3-.1z"/><circle class="st11" cx="145.3" cy="119.5" r="10.1"/><path class="st6" d="M145.1 136.5s-4.2-7.2-6.3-6.7c-2.1.4-8.4 1.4-9.9 1.1-.9-.2-5.9 18.9-5.9 18.9s2.1 38.1 2.1 44c0 6 12.6 1 14.3 5.6 1.7 4.6 25.5-.6 25.3-3.1-.3-8 3.3-43.2 3.7-46.2.4-2.9-3.8-18.5-3.8-18.5s-9.9-2.7-11.6-1.9c-1.6.8-2.4 3.4-7.9 6.8z"/><path class="st6" d="M130.2 132.1V131s-7.6-.4-10.1-.9c-2.5-.4-8.2-11-8.2-11s1.7-2.5 3.7-5.7c1.3-1.9 4.1-6.4 4.1-6.4s-4.6-4.1-2.9-6.5c0 0-12.5 12.1-15.1 18.2-2.7 6.7 21.9 31.7 21.9 31.7l6.6-18.3zm33.3-.8c.3.1.6.2 1 .4l12.4 7.8c.9.6 5.1 3.2 6.1 2.7l4.6-5.4 1.5-3.9c.5-.3 3.3 0 4 0 1.6 0 4.7-.1 4-2.2 0 0-.8 14.3-5.5 18.1-4.7 3.8-32.8.6-34.1.5-1-.1 1.3-10.6 2.5-15.8.3-1.6 1.9-2.6 3.5-2.2z"/><path class="st11" d="M114.7 104.2c-.8-1.9.6-3.1 1.9-4 .3-.3.6-.6.8-.9.9-1.4 1.6-2.9 2.4-4.3.3-.6 3.8-5.3 4.3-5.7.3-.1 6.2-4.4 5.9-.1-3.8 6.3 1.9 7.8-5.2 12.9-.7.7-1.4 1.4-2.2 2.1-.8.7-1.6 1.4-2.7 1.7-1.5.4-4.5-.1-5.2-1.7zm80 30.8c2.2-.7 2.2-2.8 2.3-4.3.1-3-.2-2.2.3-3.3s1.1-2.4 1.3-3.7c.1-1.3-.4-2.8-1.6-3.2-1-.4-3-.3-3.5-.2-.5-.3-.3-.6-.2-1.3.2-.9.1-.4.2-1.3.4-.5 1-.5 1.3-1.3.5.1 2.3.5 2.2-.5-.2-.4-.4-.3-1-.6-.9-.5-1.5-.6-1.8-.5-.7.4-2.1 1.3-2.4 1.9-2 3.2-1.6 6.9-1 12.4.2 1.5-2.8 4.7-1.7 5.7 1 1.1 4.1.7 5.6.2z"/><path class="st9" d="M132.4 117.9s-3.2-8.2-.1-11.3l.9 2.4s5.8-7 8.5-7.4l-1.4 2.9s10.7-5.1 12.6-3l-3.7 1.9s4.8-.4 6.1 2.1l-2.8 2.3 3.4 1.2c.4.5-24.6-3.7-21.8 13l-1.7-4.1z"/><path class="st6" d="M112.8 104.5l5.5-7.1s.3 6.7 2.9 7.9l-5.8 6.2-2.6-7zm83.8 31l1-6.8s-4.4 3.4-6.3 2.6c-1.9-.9-3.7 5.6-3.7 5.6l9-1.4z"/></svg>