<svg xmlns="http://www.w3.org/2000/svg" viewBox="0 0 50 50"><linearGradient id="a" gradientUnits="userSpaceOnUse" x1="25" y1="-454.146" x2="25" y2="-503.612" gradientTransform="translate(0 504)"><stop offset="0" stop-color="#e09b3d"/><stop offset=".3" stop-color="#c74c4d"/><stop offset=".6" stop-color="#c21975"/><stop offset="1" stop-color="#7024c4"/></linearGradient><path d="M35.1 0H14.9C6.7 0 0 6.7 0 14.9v20.2C0 43.3 6.7 50 14.9 50h20.2C43.3 50 50 43.3 50 35.1V14.9C50 6.7 43.3 0 35.1 0zM45 35.1c0 5.4-4.4 9.9-9.9 9.9H14.9C9.4 45 5 40.6 5 35.1V14.9C5 9.4 9.4 5 14.9 5h20.2c5.4 0 9.9 4.4 9.9 9.9v20.2z" fill="url(#a)"/><linearGradient id="b" gradientUnits="userSpaceOnUse" x1="25" y1="-454.146" x2="25" y2="-503.612" gradientTransform="translate(0 504)"><stop offset="0" stop-color="#e09b3d"/><stop offset=".3" stop-color="#c74c4d"/><stop offset=".6" stop-color="#c21975"/><stop offset="1" stop-color="#7024c4"/></linearGradient><path d="M25 12.1c-7.1 0-12.9 5.8-12.9 12.9S17.9 37.9 25 37.9 37.9 32.1 37.9 25 32.1 12.1 25 12.1zm0 20.8c-4.4 0-7.9-3.5-7.9-7.9s3.5-7.9 7.9-7.9 7.9 3.5 7.9 7.9-3.5 7.9-7.9 7.9z" fill="url(#b)"/><linearGradient id="c" gradientUnits="userSpaceOnUse" x1="37.957" y1="-454.146" x2="37.957" y2="-503.612" gradientTransform="translate(0 504)"><stop offset="0" stop-color="#e09b3d"/><stop offset=".3" stop-color="#c74c4d"/><stop offset=".6" stop-color="#c21975"/><stop offset="1" stop-color="#7024c4"/></linearGradient><circle cx="38" cy="12.2" r="3.1" fill="url(#c)"/></svg>