<svg xmlns="http://www.w3.org/2000/svg" viewBox="0 0 50 50"><path d="M50 9.5c-1.9.8-3.8 1.4-5.9 1.6 2.1-1.3 3.7-3.3 4.5-5.7-2 1.2-4.2 2-6.5 2.5-1.9-2-4.6-3.2-7.5-3.2-5.7 0-10.2 4.6-10.2 10.3 0 .8.1 1.6.2 2.3-8.5-.4-16.1-4.5-21.1-10.7-.9 1.5-1.4 3.3-1.4 5.2 0 3.6 1.8 6.7 4.6 8.5C5 20.2 3.4 19.7 2 19v.1c0 5 3.6 9.1 8.2 10.1-.8.2-1.7.3-2.7.3-.7 0-1.3 0-1.9-.2 1.3 4.1 5.1 7 9.6 7.1-3.5 2.7-7.9 4.4-12.7 4.4-.8 0-1.6 0-2.5-.1 4.5 2.9 9.9 4.6 15.7 4.6 18.9 0 29.2-15.6 29.2-29.2v-1.3c2-1.4 3.7-3.2 5.1-5.3z" fill="#03a9f4"/></svg>