<svg xmlns="http://www.w3.org/2000/svg" viewBox="0 0 50 50"><g fill-rule="evenodd" clip-rule="evenodd"><path d="M18.3 0c-2.8 0-5 2.2-5 5s2.2 5 5 5h5V5c0-2.8-2.2-5-5-5m0 13.3H5c-2.8 0-5 2.2-5 5s2.2 5 5 5h13.3c2.8 0 5-2.2 5-5 0-2.7-2.2-5-5-5z" fill="#36c5f0"/><path d="M50 18.3c0-2.8-2.2-5-5-5s-5 2.2-5 5v5h5c2.7 0 5-2.2 5-5zm-13.4 0V5c0-2.8-2.2-5-5-5s-5 2.2-5 5v13.3c0 2.8 2.2 5 5 5s5-2.2 5-5z" fill="#2eb67d"/><path d="M31.7 50c2.8 0 5-2.2 5-5s-2.2-5-5-5h-5v5c0 2.8 2.2 5 5 5zm0-13.3H45c2.8 0 5-2.2 5-5s-2.2-5-5-5H31.7c-2.8 0-5 2.2-5 5 0 2.7 2.2 5 5 5z" fill="#ecb22e"/><path d="M0 31.7c0 2.8 2.2 5 5 5s5-2.2 5-5v-5H5c-2.7 0-5 2.2-5 5zm13.4 0V45c0 2.8 2.2 5 5 5s5-2.2 5-5V31.7c0-2.8-2.2-5-5-5s-5 2.2-5 5" fill="#e01e5a"/></g></svg>