<svg xmlns="http://www.w3.org/2000/svg" viewBox="0 0 50 50"><path d="M24.8.8C11.2.8.1 11.9.1 25.5.1 36.4 7.2 45.7 17 49c1.2.2 1.7-.5 1.7-1.2v-4.2c-6.9 1.5-8.3-3.3-8.3-3.3-1.1-2.9-2.7-3.6-2.7-3.6-2.2-1.5.2-1.5.2-1.5 2.5.2 3.8 2.5 3.8 2.5 2.2 3.8 5.8 2.7 7.2 2.1.2-1.6.9-2.7 1.6-3.3-5.5-.6-11.3-2.7-11.3-12.2 0-2.7 1-4.9 2.5-6.6-.3-.6-1.1-3.1.2-6.5 0 0 2.1-.7 6.8 2.5 2-.5 4.1-.8 6.2-.8 2.1 0 4.2.3 6.2.8 4.7-3.2 6.8-2.5 6.8-2.5 1.3 3.4.5 5.9.2 6.5 1.6 1.7 2.5 3.9 2.5 6.6 0 9.5-5.8 11.6-11.3 12.2.9.8 1.7 2.3 1.7 4.6v6.8c0 .7.4 1.4 1.7 1.2 9.8-3.3 16.9-12.5 16.9-23.4C49.6 11.9 38.5.8 24.8.8z" fill-rule="evenodd" clip-rule="evenodd" fill="#181616"/></svg>