<svg xmlns="http://www.w3.org/2000/svg" viewBox="0 0 1000 600"><style>.st0{fill:#5c39bc}.st1{opacity:.05;enable-background:new}.st2{fill:#33ded2}.st3{opacity:.1;enable-background:new}.st4{fill:#ffd2d9}.st5{fill:#d1d8db}.st6{fill:#824e4e}.st8,.st9{opacity:.2;fill:#fff;enable-background:new}.st9{opacity:.05;fill:#0f0}.st10{fill:#2d2d2d}.st11{opacity:.2;fill:#33ded2}.st11,.st13,.st14{enable-background:new}.st13{opacity:.1;fill:#252223}.st14{opacity:.3;fill:#33ded2}.st16{fill:#535461}.st18{fill:#f9d5c6}.st20{fill:#409cd6}.st23{fill:none;stroke:#535461;stroke-width:2;stroke-miterlimit:10}.st26{fill:#7c7e7f}</style><g id="ce0caf1d-b686-4c5f-8a14-7ab48d3ff308"><path class="st0" d="M624.3 526.9s2.3 35.1-2.3 40.9c0 0 102.8 18.7 115.7 12.8s7-15.2 0-18.7-42.1-16.4-46.8-40.9c0 0 15.2-7-33.9 2.3s-32.7 3.6-32.7 3.6z"/><path class="st1" d="M624.3 526.9s2.3 35.1-2.3 40.9c0 0 102.8 18.7 115.7 12.8s7-15.2 0-18.7-42.1-16.4-46.8-40.9c0 0 15.2-7-33.9 2.3s-32.7 3.6-32.7 3.6z"/><path class="st2" d="M223.2 38.7l-.4.2c-21.2 10-39.7 25-53.8 43.8-8 10.5-17.8 20.5-27.1 22.2C121.2 108.5-30.9 266.7 5.6 414s249.5 153.3 249.5 153.3 45.3 7.7 71.3 23c12.3 7.3 27.1 8.7 40.6 3.9 31-11 81.8-27 104.7-22.1 34.1 7.3 326.1-114.4 326.1-114.4S676.2 340.9 497.3 343.4c0 0-282.3-197.1-272.6-278.6l-1.5-26.1z"/><path class="st3" d="M223.2 38.7l-.4.2c-21.2 10-39.7 25-53.8 43.8-8 10.5-17.8 20.5-27.1 22.2C121.2 108.5-30.9 266.7 5.6 414s249.5 153.3 249.5 153.3 45.3 7.7 71.3 23c12.3 7.3 27.1 8.7 40.6 3.9 31-11 81.8-27 104.7-22.1 34.1 7.3 326.1-114.4 326.1-114.4S676.2 340.9 497.3 343.4c0 0-282.3-197.1-272.6-278.6l-1.5-26.1z"/><path class="st2" d="M223.4 38.4l-29.2 28s-22.2 43.2-42.1 46.8S-13.8 268.6 21.2 410s239.6 147.3 239.6 147.3 42.6 7.2 67.6 21.6c12.3 7.2 27.1 8.7 40.6 4 29.8-10.5 78-25.6 99.8-20.9C501.5 569 782 452.1 782 452.1S665.2 339.9 493.4 342.3c0 0-271.1-189.3-261.8-267.6l-8.2-36.3z"/><ellipse transform="rotate(-45.001 300.29 368.285)" class="st3" cx="300.29" cy="368.28" rx="92.2" ry="167.8"/><path class="st4" d="M223.4 186.8s12.9 21 4.7 62 21 40.9 21 40.9h58.4l19.9-51.4-28 2.3s-18.7-4.7-10.5-47.9l-65.5-5.9zm175.3-49.1c-8.9 28.5-20.1 63.1-26.1 81.6l-4.3 13.1-38.6-39.7s1.7-3.9 4.2-9.5c5.6-12.2 15.5-32.2 20.3-33.8 0 0-53.8-3.5-70.1 9.4s-11.7-35.1-11.7-35.1 31.6-2.3 43.2-9.3 74.8-14 74.8-14 21.2-3.6 8.3 37.3z"/><path class="st3" d="M187.2 490.7s99.3-45.6 134.4-38.6M85.5 383.2s120.4-4.7 185.8 37.4m-126.2 10.5s94.7-23.4 144.9-15.2"/><path class="st4" d="M749.3 481.3l-8.2 59.6-21-2.3s-1.3-1.2-3.4-3.1c-5.7-5-17.5-14.8-28.7-20.1-3.8-2-8-3.2-12.2-3.6l23.4-35.1c5.7 2.1 11.5 3.9 17.5 5.2 6.2 1.4 12.5 2.2 18.8 2.2 4.7 0 9.4-.9 13.8-2.8z"/><path class="st5" d="M690.9 523.4c-10.5 9.3-58.4-10.5-66.6 19.9l-7.5-28.8-23.2-88.7-3.2-12.2-19.3-.8-221.6-9.5-12.6-.5-6.6-.3 8.8-4.4 58.4-29s21-1.5 50.1-5.5c44-6 106.3-17.8 141.5-38.9 58.4-35.1 80.6 83 80.6 83s8.9 30 15.7 59.5c3.2 14 6 28 7 38.6 1.1 9 .8 15.6-1.5 17.6z"/><path class="st1" d="M690.9 523.4c-10.5 9.3-58.4-10.5-66.6 19.9l-7.5-28.8-23.2-88.7-3.2-12.2-19.9-1.2-214.1-13.2-13.2-.8-4.1-.3-5.3-.3 63.7-28.6s21-1.5 50.1-5.5c44-6 106.3-17.8 141.5-38.9 58.4-35.1 80.6 83 80.6 83s8.9 30 15.7 59.5c3.2 14 6 28 7 38.6 1.1 8.9.8 15.5-1.5 17.5z"/><path class="st3" d="M716.5 481.8l-20.5 24-8.2 9.6c-3.8-2-8-3.2-12.2-3.6l23.3-35.1c5.8 2.1 11.7 3.8 17.6 5.1z"/><path class="st5" d="M715.4 479l-22.9 26.8-11 12.9v3.5c-13.5 3.1-55.5-5.8-64.8-7.8-1.2-.2-1.8-.4-1.8-.4-26.9 1.2-126.2-57.3-126.2-57.3s-108.7 18.7-161.3 14c-29.4-2.6-37.6-13.3-39.1-22.1-.7-4.4-.1-8.9 1.7-12.9l46.9-33 6.2-4.4 10-7s17.3-3.9 39.2-8.8c34.3-7.6 80-17.4 89.3-18.1 15.2-1.2 53.8 11.7 76 37.4 3.8 4 8.1 7.6 12.9 10.5l.6.4c6.2 4.1 13.9 8.5 22.5 13 28.3 14.9 66 30.9 91.9 41.4 17.7 7.3 29.9 11.9 29.9 11.9z"/><path class="st3" d="M749.3 481.3l-8.2 59.6-21-2.3s-1.3-1.2-3.4-3.1c4.7.1 12.3-1.2 14-10.9 0 0-8.1-28.3 4.7-40.5 4.8 0 9.5-.9 13.9-2.8z"/><path class="st0" d="M733 524.6s-11.7-40.9 15.2-45.6l44.4 17.5L844 500s13.4 21.9-8.1 46.5c-11.9 13.4-28.8 21.5-46.7 22.2l-56.2 2.7-17.5-36.2c0-.1 15.1 3.4 17.5-10.6z"/><path class="st3" d="M447.6 363.7c-5.8 1.7-30.2 9-55.2 18.9-12.3 4.7-24.4 10.3-36 16.6-2.4 1.4-4.7 2.7-6.9 4.1-6.5 4.1-11.8 8.4-15.1 12.6-14.4 18.7-35.6 28.7-46.1 32.8-.7-4.4-.1-8.9 1.7-12.9l46.9-33-6.6-.3 8.8-4.4-5.3-.3 63.7-28.6c0-.1 21.1-1.5 50.1-5.5zm-75-144.4l-4.3 13.1-38.6-39.7s1.7-3.9 4.2-9.5c5 10.4 28.2 28.4 38.7 36.1z"/><path class="st0" d="M233.4 238.8c-1.4-4-2.4-8-3-12.2l-50.3 17.5s-34.5 26.3-31 83.6c0 0 42.7-15.8 61.3 2.9l.4 3.3c4 32.7 18.4 63.2 41.2 86.9 9.3 9.8 18.1 20.8 22.7 31.3 0 0 32.7-9.4 52.6-35.1S442 364.5 442 364.5s-50.3 1.2-57.3-16.4-30.4-54.9-22.3-84.1 12.9-38.6 12.9-38.6-47.9-33.9-44.4-44.4l-30.4 35-14 4.7c1.1 2.7 1.7 5.6 1.6 8.5.8 31.8-44 39.5-54.7 9.6z"/><path class="st2" d="M275.4 478.4s113.4-46.7 205.7-2.3l-22.2 46.7-106.4 2.3-77.1-46.7z"/><path class="st3" d="M287.1 208c.4-4.4.9-8.7 1.8-13l-65.4-5.9s4.5 3.9 6.5 18.5c7.7 4.6 16.6 10.7 26.2 10.7 11.1.1 22-3.6 30.9-10.3z"/><circle class="st4" cx="256.7" cy="165.2" r="51.4"/><path class="st6" d="M218.4 173.1l7.3-2.2v-12.2l7-21s35.1-16.4 51.4-12.9c-.9 4.1-1.7 8.1-2.6 12.2 2.1-.4 16-3.5 18.4-12.4 3.4-12.3-18.3-25.3-20.5-26.7-19.5-11.7-49.3-13.8-67.8 2.3-9.4 8.2-24.5 22.2-12.9 60.8l3.5 9.4c3.7-3.4 8.6-4.2 12.1-2.2 2 1.2 3.4 2.9 4.1 4.9z"/><path d="M309.6 205.6l3.8-1.3 17.7-20.4c-.3-1-.4-2-.1-3l-21.4 24.7zM285 243.3c9.3-4.1 16.4-13 16-25.7 0-.7 0-1.3-.1-2l-.4.4-14 4.7c1.1 2.7 1.7 5.6 1.6 8.6.3 4.8-.8 9.7-3.1 14zm136.3 120.2c-29.3 10.2-69 26.2-81 41.9l-.9 1.2c32.1-22 102.6-42.1 102.6-42.1-6.9 0-13.8-.3-20.7-1zm-133.6 76.9c-4.7-10.5-13.4-21.6-22.7-31.3-22.8-23.8-37.2-54.3-41.2-86.9l-.4-3.3C204.7 300.2 162 316 162 316c-2.2-36.3 10.8-60.2 20.7-72.8l-2.6.9s-34.5 26.3-31 83.6c0 0 42.6-15.8 61.4 2.9l.4 3.3c4 32.7 18.4 63.2 41.2 86.9 9.3 9.8 18.1 20.8 22.7 31.3 0 0 28.5-8.2 48.4-30.1-10.7 8.1-22.7 14.3-35.5 18.4z" opacity=".05"/><path class="st4" d="M274.8 303.7s-56.1 80.6-85.3 104-37.4-10.5-37.4-10.5v-74.8l51.4-5.8.6 7.1.6 8.1 47.9-51.4s47.9-43.2 57.3-17.5-35.1 40.8-35.1 40.8z"/><path class="st3" d="M204.1 323.6c-7 4.1-14.5 7.4-22.2 9.9-11.1 3.4-23.7-.2-29.8-2.3v-8.7l51.4-5.9.6 7z"/><path class="st0" d="M151.5 314.8l-3.1 12.5s18.3 8.5 33.5 3.9 26.9-12.9 29.2-14-9.4-14-9.4-14l-50.2 11.6z"/><path class="st3" d="M488.1 457.4c7.8-6 16.5-10.7 25.7-14 8.8-3 17.1-7.4 24.5-12.9"/><path class="st8" d="M844 500l-1.9-.1c2.8 7 6.8 24.3-9.7 43.1-11.9 13.4-28.8 21.5-46.8 22.2l-54.4 2.5 1.7 3.6 56.2-2.7c17.9-.7 34.8-8.7 46.7-22.2C857.4 522 844 500 844 500z"/><path class="st9" d="M579 560.2h-.2c.2 2.8.4 8.5.5 14.7 0-5.5-.2-10.9-.3-14.7zm66.5-10.1c.2.7.3 1.4.5 2.1 1.2-.6 2.9-1.9-.5-2.1z"/><path class="st8" d="M737.6 577.2c-12 5.4-102.1-10.4-114.3-12.6-.2 1.2-.7 2.3-1.4 3.3 0 0 102.8 18.7 115.7 12.8 6.6-3 8.3-6.9 7.4-10.5-.7 2.4-2.9 4.9-7.4 7z"/><path class="st9" d="M578.8 560.2c0-1.2-.1-1.8-.1-1.8s-5.9 2.2.1 1.8z"/><path class="st10" d="M195 142.5l34 1.8c-.7 4.8-.6 7.5-1.9 14l-29.5-1.5c-.4-1.6-.8-3.2-1.1-4.8l-.6-2.4-.8-5.1-.1-2z"/><path class="st3" d="M289.4 140.6c12.6-7.6 22.9-18.7 29.7-31.8.8-1.5 1.5-3.3 1.1-4.9-.8-3.2-5-3.7-8-5.1-5.6-2.6-7.9-9-11.6-13.9-6.4-8.4-16.9-12.4-27.3-10.5-5.3 1.1-10.3 3.7-15.6 4.5-11.6 1.7-24.2-5.3-34.6 0-4.8 2.4-8 7-10.8 11.6-7.1 11.3-16 23.4-9.5 36.7 3.7 7.6 9.6 13.9 17.9 16.1s17.9.4 26.4-.6c7-.8 14.2-2.3 21.2-1.6 8.2.9 13.3 4.2 21.1-.5z"/><path class="st6" d="M289.4 138.3c12.6-7.6 22.9-18.7 29.7-31.8.8-1.5 1.5-3.3 1.1-4.9-.8-3.2-5-3.7-8-5.1-5.6-2.6-7.9-9-11.6-13.9-6.4-8.4-16.9-12.4-27.2-10.5-5.3 1.1-10.3 3.7-15.6 4.5-11.6 1.7-24.2-5.3-34.6 0-4.8 2.4-8 7-10.8 11.6-7.1 11.3-16 23.4-9.5 36.7 3.7 7.6 9.6 13.9 17.9 16.1s17.9.4 26.4-.6c7-.8 14.2-2.3 21.2-1.6 8.1.9 13.2 4.2 21-.5z"/><path class="st11" d="M1000 273l-508.4 90.9V91.3L1000 .4z"/><path class="st11" d="M894.7 31.9l94-16.2 1.4 42.1-96.5 16.1z"/><g opacity=".2"><path class="st13" d="M711.8 267.1c3.2-.7 6.5-1 9.7-.8 19.2.3 39.2 2.2 58-3.5 10-3 19-8 29.3-10.1 17.5-3.6 35.1 1.7 52.3-2.7 3.5-.9 7.8-2.2 10.3-.8 2.9 1.6.8 5.6 4.4 6.7 1.1.1 2.2.4 3.3.7 1.3.8.5 2.3-.8 3.4-7.8 6.3-23.7 2.1-33.5 7.3-2.2 1.2-3.8 2.6-5.8 3.9-3.2 1.7-6.6 2.9-10.2 3.7l-54.4 15.2c-13 3.6-26.2 7.3-39.7 8.9s-27.4 1-37.3-3.6c-2.1-1-4.1-2.2-4.9-3.8-3.8-7.9 5.8-20.9 19.3-24.5z"/><path class="st14" d="M663.8 159.4l45.5 36 45.5 36-74.7 14.1-74.7 14.1 29.2-50.1z"/><path class="st14" d="M711.1 151.1l45.5 36 45.5 35.9-74.7 14.2-74.7 14.1 29.2-50.1z"/><path class="st2" d="M781.5 76.3l-87.8 167.2 166.5-32.4 61.6-11.6z"/><path class="st3" d="M921.8 199.5l-61.6 11.6-78.7-134.8z"/><linearGradient id="SVGID_1_" gradientUnits="userSpaceOnUse" x1="815.11" y1="1027.453" x2="815.11" y2="894.223" gradientTransform="rotate(-11.5 -3125.488 793.633)"><stop offset="0" stop-color="gray" stop-opacity=".25"/><stop offset=".54" stop-color="gray" stop-opacity=".12"/><stop offset="1" stop-color="gray" stop-opacity=".1"/></linearGradient><path d="M827.8 153.8c-.6-2.3-2.8-3.7-5.1-3.5 0 0 1.2-9.2-17.8-5.5-1.2-2.4-4.1-3.4-6.5-2.2-.4.2-.7.4-1 .7l-.8-4.3s-10.4 5.9.6 14.4l1.3 7c0 .2.1.4.2.5.1.1.1.3.1.4.5 2 4.2 18.3-4.2 23.8-9 6-14.1-12.5-14.1-12.5-5.8-24.2-17-24.1-19.6-23.8-.3 0-.6.1-1 .1-1.2.1-5.1 1.4-6.6 15.4-1.8 16.8-8.2 12.6-8.2 12.6-14.4-7.8-24.5-1-24.5-1-25 14.7-3.7 42.2.6 47.4-1.7 8.3-5 23-8.2 23.6-4.5.9-13 16.8 10 41.5l6.1-1.2s-18.9-24.7-4-37c-.3.9-.7 1.8-1.2 2.6-8.3 14.3 20 31.4 20 31.4l6.8-1.3-15.7-19.8c-6.3-8.2 5.4-14.9 5.4-14.9 13.8-11.5 6.7-25.4 6.7-25.4l32.1-6c-4 8.8-9.8 30.4 9.6 58.8l4.5-.9-3.7-34.5s1.2-7.4 9-18.6c3.1 14 9.8 38.2 19.8 48.4l6.6-1.2s-8-23-8.2-31.6c-.1-3.5-.2-6.9-.5-10.4l-1.6-18.1c5.4-3.4 8.2-9.9 6.9-16.2l-6-31.4c-.4-1.8.8-3.5 2.6-3.9h.2l7.8-1.1c1.1-.2 1.8-1.2 1.6-2.3.1.3 0 .1 0 0z" fill="url(#SVGID_1_)"/><path class="st16" d="M796.2 211.5s7.3 43.3 21.5 57.7l6.5-1.2s-7.8-22.5-8.1-30.9c-.1-3.4-.2-6.8-.5-10.2l-2.6-29.2-16.8 13.8z"/><path class="st1" d="M796.2 211.5s7.3 43.3 21.5 57.7l6.5-1.2s-7.8-22.5-8.1-30.9c-.1-3.4-.2-6.8-.5-10.2l-2.6-29.2-16.8 13.8z"/><path class="st16" d="M723.2 217.7s-4.7 27.8-9.1 28.7-12.8 16.5 9.8 40.8l6-1.2s-20.8-27.2-1-38.3c0 0 3.4-23.2-5.7-30z"/><path class="st1" d="M723.2 217.7s-4.7 27.8-9.1 28.7-12.8 16.5 9.8 40.8l6-1.2s-20.8-27.2-1-38.3c0 0 3.4-23.2-5.7-30z"/><path class="st16" d="M798 161.5l-1.3-6.9c-10.8-8.3-.6-14.2-.6-14.2l1.4 7.3c25.6-7.4 24.2 3.7 24.2 3.7 2.3-.2 4.4 1.2 5 3.4.4 1-.2 2.1-1.1 2.4-.1 0-.2.1-.4.1l-7.6 1c-1.8.2-3 1.9-2.8 3.6v.2l5.9 30.8c.9 4.5-.3 9.1-3.1 12.6-2.2 2.7-5.7 5.1-11.3 6l-58.7 11.1s7 13.7-6.6 25c0 0-11.4 6.5-5.3 14.6l15.4 19.4-6.7 1.3s-27.8-16.9-19.7-30.8c4.5-9.1 3.8-19.8-1.9-28.2 0 0-28.5-31.5-1.4-47.4 0 0 10-6.7 24.1 1 0 0 6.3 4.1 8-12.3 1.4-13.7 5.2-15.1 6.4-15.1.3 0 .6 0 .9-.1 2.6-.4 13.5-.5 19.3 23.3 0 0 5 18.2 13.8 12.4 8.2-5.4 4.7-21.4 4.1-23.4 0-.1-.1-.3-.1-.4.1-.1.1-.2.1-.4z"/><path class="st16" d="M781.5 212.7s-18.1 25.1 7.1 61.9l4.5-.8-3.6-33.9s2.2-14.2 21.7-32.9l-29.7 5.7z"/><circle class="st16" cx="800" cy="148.3" r="4.8"/><linearGradient id="SVGID_2_" gradientUnits="userSpaceOnUse" x1="802.461" y1="963.353" x2="802.461" y2="856.463" gradientTransform="rotate(-11.5 -3125.488 793.633)"><stop offset="0" stop-color="gray" stop-opacity=".25"/><stop offset=".54" stop-color="gray" stop-opacity=".12"/><stop offset="1" stop-color="gray" stop-opacity=".1"/></linearGradient><path d="M780 179.5c5.5-8.4 2.2-8.9.1-11.1-1.5-1.5-13.6-2.1-21.2-2.3-.2-.6-.4-1.6-.7-2.8 0 0-.6-2.2-.9-3.7h.5l-.1-.4 9.3-.5c8-.3 8.4-3.5 8.4-3.5.2-5.5-8.8-.2-8.8-.2-1.8.9-6.5.2-10.2-.5-.1-.8-.2-1.6-.2-2.3 0-1.2 0-2.4-.2-3.6-.1-1-.5-2-1.2-2.8-2.7-3.3-5.9-6.2-9.4-8.6-.2-2.1 0-4.1.6-6.1 2.9-1.5 4.5-4.7 3.9-7.9-.1-.7-.4-1.4-.7-2 1.7-2.2.9-6-1.4-8.1-.3-.2-.5-.4-.8-.6-1.5-1-3.3-1.4-5.1-1.2-2 .3-3.9 1.1-5.5 2.3-2 1.3-3.9 3-6.3 3.2-1.7.2-3.5-.4-5.1.1-2.1.7-3.2 2.9-3.9 5s-1.3 4.3-3.2 5.6c-1.6 1.1-3.7 1.1-5.5 1.5-2.7.6-4.9 2.4-5.9 4.9-.8 2.3.1 4.8 2.1 6.2.3.2.6.4 1 .6.4.1.8.3 1.2.4.2.2.3.4.4.6 0 .3-.1.6-.2.9-.4 1.3-.3 2.7.3 3.9.2.4.6.8 1 1.1.1.1.3.2.4.3 1.4.6 3.1-.8 4.4-.1h.1c.5.6 1 1.2 1.4 1.9.3.4.7.7 1.2 1 1.2.8 2.6 1.1 4 .9 1.8-.3 3.5-1 5-2 2.1-1.2 4.3-2.8 4.5-5.1.1-1.4-.6-2.8-.5-4.2.1-.7.4-1.3.8-1.8-.2 1.2-.3 2.4-.2 3.6 0 1 .2 2 .3 2.9.4 2.5 1.3 4.9 2.7 7.1 1.8 2.8 3.1 5.9 3.8 9.2.3 1.4.3 2.9.1 4.4-.8 4.2-.7 6-.5 6.7.1 1 .5 1 .5 1h.1c.1 1.4.7 2.8 1.8 3.7 10.6 4.4 32.1-1.8 32.1-1.8-4.3 1.5-7.5 13.4-7.5 13.4-.5 2.6-1.5 5-3.2 7.1-2.3-.4-5.1 2.3-7.2 3.8l-.2.1c-.8.5-1 1.6-.4 2.4 0 .1.1.1.1.2l8.3 9.1c4.8 3.4 7.5 3.6 8.3 2.6.5-.6.2-1.8-1-2.8-2.8-2.6-2.4-11.2-2.3-11.9 3.1-7 6.8-13.5 10.8-19.8z" fill="url(#SVGID_2_)"/><path class="st18" d="M746.5 129.8s-2.4 5.5-.8 10.3l-9-4.8s2.9-.8 2.3-7.6l7.5 2.1z"/><path d="M752.5 166.4s23.8.3 25.8 2.5 5.1 2.7 0 10.8-10.8 19.8-10.8 19.8l-6-2.8c2.2-2.3 3.6-5.2 4.2-8.4 0 0 2.9-11.6 7-13.1 0 0-20.3 5.9-30.4 1.6 0 0-2.7-2-1.4-6.4s11.6-4 11.6-4z" fill="#353535"/><path class="st3" d="M739.3 135.5s-5.9-1.5-5.5 7.6c.2 3.3 1.1 6.5 2.8 9.4 1.9 3.3 4.7 9 3.9 13.7-1.2 7.1 0 7.1 0 7.1l3-1.9c4.1-2.5 8.8-3.8 13.6-3.9h1.4s-2.8-10.2-2.9-14.8c0-2.1 0-4.1-1.3-5.8-4-5.1-12.1-11.4-15-11.4z"/><path class="st20" d="M739.3 135.1s-5.9-1.5-5.5 7.6c.2 3.3 1.1 6.5 2.8 9.3 1.9 3.3 4.7 9 3.9 13.7-1.2 7.1 0 7.1 0 7.1l3-1.9c4.1-2.5 8.8-3.8 13.6-3.9h1.4s-2.8-10.2-2.9-14.8c0-2.1 0-4.1-1.3-5.8-4.1-5-12.2-11.3-15-11.3z"/><path class="st3" d="M737.1 142.4c.8-2.2 3.3-3.4 5.5-2.6.6.2 1.1.6 1.5 1 .9 1 1.6 2.1 2.2 3.3 2.8 6.4 5 10.4 5 10.4 1.8.3 3.6.7 5.3 1.2l.6 4.4-7.6.4-10.4-12.3c0 .1-3.2-2.6-2.1-5.8z"/><path class="st18" d="M737 142c.8-2.2 3.3-3.4 5.5-2.5.6.2 1.1.5 1.5.9.9 1 1.6 2.1 2.2 3.3 2.8 6.4 5 10.4 5 10.4s11.4 3.1 14.4 1.7c0 0 8.5-5.1 8.3.3 0 0-.3 3.1-7.9 3.3l-16.4.8-10.4-12.3c-.1-.1-3.3-2.8-2.2-5.9z"/><path class="st3" d="M738.3 130.8c.2-1.1.7-.6.6-2.5l7.5 2c-.3.8-.6 1.5-.8 2.3-.8.3-1.5.4-2.3.4-1.6.4-3.6-1.4-5-2.2z"/><circle class="st18" cx="742.3" cy="125.8" r="7.3"/><path class="st3" d="M745.3 124.1c-1.3.1-2.7-.3-3.8.3s-1.4 2.5-1.2 4c.2 1.5.8 2.9.5 4.4-.5 1.9-2.3 3-4 4s-3.5 2.3-3.7 4.2c-.2 1.4.5 2.7.5 4.1-.1 2.3-2.3 3.8-4.2 5-1.4.9-3 1.6-4.7 1.9-1.7.3-3.5-.3-4.6-1.7-.5-.7-.8-1.7-1.7-2.1-1.3-.6-2.9.7-4.2.1-.4-.2-.8-.6-1-1.1-.6-1.2-.8-2.6-.3-3.8.1-.3.2-.6.2-.9-.1-.7-1-1-1.7-1.3-2.4-1.1-3.6-3.9-2.7-6.4.9-2.4 3-4.2 5.5-4.8 1.8-.4 3.7-.4 5.2-1.4 1.7-1.2 2.3-3.4 3-5.4s1.6-4.2 3.6-4.8c1.5-.5 3.2.1 4.8-.1 2.2-.2 4-1.8 5.8-3.1 1.5-1.1 3.3-1.9 5.2-2.2 1.9-.3 3.9.3 5.3 1.5 3.4 2.9 3.6 9.3-1.8 9.6z"/><path d="M745 123.9c-1.3.1-2.7-.3-3.8.3s-1.4 2.5-1.2 4c.2 1.5.8 2.9.5 4.4-.5 1.9-2.3 3-4 4s-3.5 2.3-3.7 4.2c-.2 1.4.5 2.7.5 4.1-.1 2.3-2.3 3.8-4.2 4.9-1.4.9-3 1.6-4.7 1.9-1.7.3-3.5-.3-4.6-1.7-.5-.7-.8-1.7-1.7-2.1-1.3-.6-2.9.7-4.2.1-.4-.2-.8-.6-1-1.1-.6-1.2-.7-2.6-.3-3.8.1-.3.2-.6.2-.9-.1-.7-1-1-1.7-1.3-2.4-1.1-3.6-3.9-2.7-6.4.9-2.4 3-4.2 5.6-4.7 1.8-.4 3.7-.4 5.2-1.4 1.7-1.2 2.3-3.4 3-5.4s1.6-4.2 3.6-4.8c1.5-.5 3.2.1 4.8-.1 2.2-.2 4-1.8 5.8-3.1 1.5-1.1 3.3-1.9 5.2-2.2 1.9-.3 3.9.3 5.3 1.5 3.4 3 3.6 9.3-1.9 9.6z" fill="#2f302f"/><path class="st3" d="M747.2 142.2s-9.3.6-8.5 7.1-3.3-7.4-3.3-7.4l3.6-3.9 5.2.6 3 3.6z"/><path class="st20" d="M746.9 142.1s-9.3.6-8.6 7.1-3.2-7.4-3.2-7.4l3.6-3.9 5.2.6 3 3.6zm8.6 59.5l7.9 8.9c4.5 3.3 7.1 3.5 7.8 2.6.5-.6.1-1.7-1-2.8-2.8-2.7-2.3-11.7-2.3-11.7-2.3.1-4.4-1.3-5.3-3.4-2.2-.4-4.8 2.2-6.8 3.7l-.2.1c-.8.6-.9 1.6-.4 2.4l.3.2z"/><path class="st3" d="M768 198.6s-4.5.6-5.3-3.4c1 2.1 3 3.5 5.3 3.4zm-12.5 3l7.9 8.9c4.5 3.3 7.1 3.5 7.8 2.6-2.3-.7-8.7-3.5-15.3-14.2l-.2.1c-.8.6-.9 1.6-.4 2.4.2.1.2.1.2.2z"/><path class="st2" d="M626.6 271.2s-20.8 18.6 26.7 32.2c0 0 6.2-19.5-7.1-32-5.3-5-13.6-5.3-19.2-.6l-.4.4z"/><path d="M626.8 270.8s23.1 11.6 26.5 32.6" fill="none" stroke="#535461" stroke-miterlimit="10"/><path class="st23" d="M651.9 303.6s-12.1-23.6-6.8-43.7c2.3-8.4 1.8-17.4-1.5-25.4-1.6-3.8-3.5-7.5-5.7-11"/><path class="st2" d="M641.1 210.9c.6 3.1-3.3 13-3.3 13s-7.2-7.9-7.8-10.9c-.7-3.1 1.3-6.1 4.3-6.7 3.1-.7 6.1 1.3 6.7 4.3.1.1.1.2.1.3zm12.4 15.2c-1.2 2.9-9.8 9.1-9.8 9.1s-1.8-10.5-.6-13.4 4.6-4.2 7.5-3c2.7 1.3 4.1 4.5 2.9 7.3zm5.1 29.1c-2.5 1.9-13.1 2.9-13.1 2.9s3.8-10 6.2-11.9c2.5-1.9 6-1.4 7.9 1.1s1.5 6.1-1 7.9zm-1.1 22.9c-2.1 2.3-12.4 5.1-12.4 5.1s2-10.5 4.1-12.8c2-2.4 5.6-2.6 8-.6s2.6 5.6.6 8l-.3.3zm-25.4-40c2.6 1.7 13.3 2 13.3 2s-4.4-9.7-7-11.4-6.1-1-7.8 1.6c-1.7 2.5-1 6 1.5 7.8zm-.9 26.8c3 .9 13.3-2.1 13.3-2.1s-7.1-7.9-10.1-8.8c-3-.9-6.1.9-7 3.9-.9 2.9.8 6.1 3.8 7zm2.6 26.1c2.8 1.4 13.4.2 13.4.2s-5.7-9-8.5-10.4c-2.8-1.3-6.2-.1-7.5 2.8-1.2 2.8-.1 6 2.6 7.4z"/><path d="M641.1 210.9c.6 3.1-3.3 13-3.3 13s-7.2-7.9-7.8-10.9c-.7-3.1 1.3-6.1 4.3-6.7 3.1-.7 6.1 1.3 6.7 4.3.1.1.1.2.1.3zm12.4 15.2c-1.2 2.9-9.8 9.1-9.8 9.1s-1.8-10.5-.6-13.4 4.6-4.2 7.5-3c2.7 1.3 4.1 4.5 2.9 7.3zm5.1 29.1c-2.5 1.9-13.1 2.9-13.1 2.9s3.8-10 6.2-11.9c2.5-1.9 6-1.4 7.9 1.1s1.5 6.1-1 7.9zm-1.1 22.9c-2.1 2.3-12.4 5.1-12.4 5.1s2-10.5 4.1-12.8c2-2.4 5.6-2.6 8-.6s2.6 5.6.6 8l-.3.3zm-25.4-40c2.6 1.7 13.3 2 13.3 2s-4.4-9.7-7-11.4-6.1-1-7.8 1.6c-1.7 2.5-1 6 1.5 7.8zm-.9 26.8c3 .9 13.3-2.1 13.3-2.1s-7.1-7.9-10.1-8.8c-3-.9-6.1.9-7 3.9-.9 2.9.8 6.1 3.8 7zm2.6 26.1c2.8 1.4 13.4.2 13.4.2s-5.7-9-8.5-10.4c-2.8-1.3-6.2-.1-7.5 2.8-1.2 2.8-.1 6 2.6 7.4z" opacity=".25"/><path class="st23" d="M674.7 308.1s-12.1-23.6-6.8-43.7c2.3-8.4 1.8-17.3-1.5-25.4-1.6-3.8-3.5-7.5-5.7-11"/><path class="st2" d="M664 215.3c.6 3.1-3.3 13-3.3 13s-7.2-7.8-7.8-10.9c-.6-3.1 1.4-6 4.5-6.6s6 1.5 6.6 4.5zm12.3 15.3c-1.2 2.9-9.8 9.1-9.8 9.1s-1.8-10.5-.6-13.4 4.6-4.2 7.5-3c2.7 1.3 4.1 4.4 2.9 7.3zm5.1 29.1c-2.5 1.9-13.1 2.9-13.1 2.9s3.8-10 6.2-11.9c2.5-1.9 6-1.4 7.9 1.1s1.5 6-1 7.9zm-1.1 22.9c-2.1 2.3-12.4 5.1-12.4 5.1s2-10.5 4.1-12.8 5.7-2.4 8-.3 2.4 5.7.3 8zM655 242.5c2.6 1.7 13.3 2 13.3 2s-4.4-9.7-7-11.4-6.1-1-7.8 1.6c-1.8 2.6-1.1 6.1 1.5 7.8zm-1 26.8c3 .9 13.3-2.1 13.3-2.1s-7.1-7.9-10.1-8.8-6.1.8-7 3.8.8 6.1 3.8 7c-.1.1 0 .1 0 .1zm2.7 26.2c2.8 1.4 13.4.2 13.4.2s-5.7-9-8.5-10.4-6.2-.2-7.5 2.6-.3 6.2 2.6 7.6z"/><path class="st13" d="M723 92.1l-2.1.4c.8-.2 1.3-.9 1.2-1.7-.1-.8-.9-1.3-1.7-1.2l-16.7 3.1c-.8.2-1.3.9-1.2 1.7.2.8.9 1.3 1.7 1.2l2-.4c-.8.2-1.3.9-1.2 1.7.2.8.9 1.3 1.7 1.2l-2.9.6c-.8.1-1.4.8-1.3 1.6.1.8.8 1.4 1.6 1.3h.2l16.7-3.2c.8-.2 1.3-.9 1.2-1.7-.2-.8-.9-1.3-1.7-1.2l2.9-.6c.8-.2 1.2-1 1-1.8 0-.6-.7-1.1-1.4-1zm-30.2 28.6l-2 .4c.8-.2 1.2-1 1-1.8-.2-.7-.9-1.2-1.6-1.1l-16.7 3.2c-.8.1-1.3.9-1.2 1.7.2.8.9 1.3 1.7 1.2l2-.4c-.8.2-1.3.9-1.2 1.7.2.8.9 1.3 1.7 1.2l-2.9.6c-.8.1-1.4.8-1.3 1.6.1.8.8 1.4 1.6 1.3h.2L691 127c.8-.2 1.3-.9 1.2-1.7-.2-.8-.9-1.3-1.7-1.2l2.9-.6c.8-.1 1.4-.8 1.3-1.6-.1-.8-.8-1.4-1.6-1.3-.2.1-.3.1-.3.1zm170.4-36.5l-2.1.4c.8-.1 1.3-.9 1.2-1.7-.1-.8-.9-1.3-1.7-1.2l-16.7 3.2c-.8.2-1.3.9-1.2 1.7.2.8.9 1.3 1.7 1.2l2.1-.4c-.8.2-1.3.9-1.2 1.7.2.8.9 1.3 1.7 1.2l-2.9.5c-.8.1-1.4.8-1.3 1.6.1.8.8 1.4 1.6 1.3h.2l16.7-3.2c.8-.2 1.3-.9 1.2-1.7-.2-.8-.9-1.3-1.7-1.2l2.9-.6c.8-.2 1.2-1 1-1.8-.2-.7-.8-1.1-1.5-1z"/><circle class="st14" cx="640.7" cy="120.6" r="15.5"/><path class="st1" d="M733.3 200.8s7.8 6.9 11.4 13 2.5 8.2 2.5 8.2"/></g></g><g id="Layer_2"><path d="M309.71 131.32c-.15-.03-.3-.06-.46-.09h-.01.01-.01c-10.19-12.97-30.17-20.36-51.05-18.85-20.83 1.51-39.09 11.64-46.67 25.85h-.01c-.21.08-.41.15-.62.23-2.02.76-3.25 2.57-3.06 4.5l.44 4.57v.01l.55 5.7c.03.28.09.56.18.83l-.2.01c.06.58 1.62 14.21 7.88 21.36 4.62 5.26 11.07 10.68 29.23 9.37 1.13-.08 2.3-.19 3.52-.32 5.35-.6 6.9-3.31 8.26-5.7 1.26-2.23 2.36-4.15 6.37-4.7 4.06-.03 5.51 1.7 7.19 3.72 1.8 2.16 3.85 4.62 9.24 4.44 1.23-.05 2.41-.1 3.54-.19 18.16-1.32 23.48-7.59 27.02-13.44 4.66-7.72 3.77-20.83 3.67-22.11.04-.29.05-.59.02-.88l-.56-5.75v-.01l-.44-4.51c-.19-2.01-1.81-3.62-4.03-4.04z" fill="#535151"/><path class="st26" d="M313.75 135.49l.99 10.27c.13 1.32-.41 2.61-1.48 3.55-.86.76-1.99 1.21-3.19 1.3-.28.02-.56.02-.84 0-43.6-3.15-80.28 3.68-94.02 6.76-1.47.33-3.02.08-4.25-.69-1.23-.77-2.01-1.97-2.14-3.29l-1-10.27c-.19-1.93 1.04-3.74 3.07-4.5 42.53-16.01 86.4-9.52 98.83-7.14 2.23.42 3.84 2.03 4.03 4.01z"/><path class="st26" d="M279 150.13c-.7.01-1.39.03-2.09.05l-.22.01.61 6.26c.17 1.81-1.36 3.4-3.42 3.55l-22.01 1.59c-2.06.15-3.88-1.2-4.06-3l-.61-6.32-.22.02c-.7.08-1.39.16-2.07.24l-.2.02.6 6.22c.29 3.01 3.32 5.26 6.76 5.01l22.01-1.59c3.44-.25 5.99-2.9 5.7-5.91l-.59-6.14-.19-.01z"/><ellipse transform="matrix(.00825 -1 1 .00825 115.178 404.11)" class="st10" cx="261.32" cy="143.99" rx="2.74" ry="3.13"/><path class="st10" d="M230.62 147.1l-12.09 1.63c-2.56.34-4.95-1.19-5.35-3.43-.4-2.24 1.35-4.34 3.91-4.68l12.09-1.63c2.56-.34 4.95 1.19 5.35 3.43.4 2.24-1.35 4.34-3.91 4.68zm58.52-4.24l12.23-.14c2.59-.03 4.65-1.89 4.62-4.16-.04-2.27-2.17-4.08-4.76-4.05l-12.23.14c-2.59.03-4.65 1.89-4.62 4.16.04 2.26 2.17 4.08 4.76 4.05zm21.15-11.28c-10.6-13.11-30.97-20.56-52.27-19.01-21.23 1.54-39.86 11.77-47.82 26.16 42.43-15.48 85.79-9.74 100.09-7.15z"/><radialGradient id="SVGID_3_" cx="238.799" cy="174.254" r="8.355" gradientTransform="matrix(1.6307 -.2551 .8413 2.8018 -301.406 -257.185)" gradientUnits="userSpaceOnUse"><stop offset="0" stop-color="#fff"/><stop offset="1" stop-color="#535151" stop-opacity=".05"/></radialGradient><path d="M248.22 168c3.88 12.93.93 24.36-6.59 25.54-7.52 1.18-16.77-8.35-20.65-21.28-3.88-12.93-.93-24.36 6.59-25.54 7.52-1.17 16.77 8.35 20.65 21.28z" opacity=".35" fill="url(#SVGID_3_)"/></g></svg>