<svg id="ce0caf1d-b686-4c5f-8a14-7ab48d3ff308" xmlns="http://www.w3.org/2000/svg" xmlns:xlink="http://www.w3.org/1999/xlink" viewBox="0 0 1000 600"><defs><linearGradient id="linear-gradient" x1="820.22" y1="203.53" x2="820.22" y2="336.78" gradientTransform="scale(1 -1) rotate(11 3291.3 -247.848)" gradientUnits="userSpaceOnUse"><stop offset="0" stop-color="gray" stop-opacity=".25"/><stop offset=".54" stop-color="gray" stop-opacity=".12"/><stop offset="1" stop-color="gray" stop-opacity=".1"/></linearGradient><linearGradient id="linear-gradient-2" x1="807.2" y1="267.63" x2="807.2" y2="374.52" xlink:href="#linear-gradient"/><style>.cls-1{fill:#dc9ba3}.cls-11,.cls-2{opacity:.05}.cls-10,.cls-11,.cls-14,.cls-16,.cls-17,.cls-2,.cls-4{isolation:isolate}.cls-14,.cls-17,.cls-3{fill:#33ded2}.cls-16,.cls-4{opacity:.1}.cls-5{fill:#ffd2d9}.cls-6{fill:#e5d3ca}.cls-7{fill:#3d2a79}.cls-8{fill:#824e4e}.cls-10{fill:#fff}.cls-10,.cls-14{opacity:.2}.cls-11{fill:#0f0}.cls-16{fill:#252223}.cls-17{opacity:.3}.cls-19{fill:#535461}.cls-21{fill:#f9d5c6}.cls-23{fill:#409cd6}.cls-26{fill:none;stroke:#535461;stroke-miterlimit:10;stroke-width:2px}</style></defs><path class="cls-1" d="M624.28 526.91s2.34 35.06-2.34 40.91c0 0 102.85 18.7 115.7 12.85s7-15.19 0-18.7-42.07-16.36-46.75-40.9c0 0 15.2-7-33.89 2.34s-32.72 3.5-32.72 3.5z"/><path class="cls-2" d="M624.28 526.91s2.34 35.06-2.34 40.91c0 0 102.85 18.7 115.7 12.85s7-15.19 0-18.7-42.07-16.36-46.75-40.9c0 0 15.2-7-33.89 2.34s-32.72 3.5-32.72 3.5z"/><path class="cls-3" d="M223.2 38.68l-.45.21A144.27 144.27 0 00169 82.68c-8 10.52-17.76 20.55-27.08 22.21C121.23 108.53-30.88 266.73 5.63 414s249.51 153.27 249.51 153.27 45.3 7.68 71.29 23a48.06 48.06 0 0040.57 3.94c30.95-11 81.81-27 104.74-22.07 34.06 7.31 326.06-114.38 326.06-114.38S676.16 340.89 497.29 343.38c0 0-282.3-197.12-272.56-278.65z"/><path class="cls-4" d="M223.2 38.68l-.45.21A144.27 144.27 0 00169 82.68c-8 10.52-17.76 20.55-27.08 22.21C121.23 108.53-30.88 266.73 5.63 414s249.51 153.27 249.51 153.27 45.3 7.68 71.29 23a48.06 48.06 0 0040.57 3.94c30.95-11 81.81-27 104.74-22.07 34.06 7.31 326.06-114.38 326.06-114.38S676.16 340.89 497.29 343.38c0 0-282.3-197.12-272.56-278.65z"/><path class="cls-3" d="M223.42 38.4L194.2 66.45s-22.2 43.24-42.07 46.75S-13.83 268.63 21.24 410s239.58 147.3 239.58 147.3 42.56 7.21 67.61 21.64a48.62 48.62 0 0040.56 4C398.78 572.39 447 557.3 468.83 562 501.55 569 782 452.12 782 452.12s-116.83-112.2-288.63-109.86c0 0-271.13-189.33-261.78-267.63z"/><ellipse class="cls-4" cx="300.28" cy="368.32" rx="92.16" ry="167.78" transform="rotate(-45 300.283 368.319)"/><path class="cls-5" d="M223.42 186.82s12.85 21 4.67 62 21 40.9 21 40.9h58.43l19.87-51.42-28.05 2.33s-18.7-4.67-10.51-47.91zm175.3-49.08c-8.94 28.46-20.15 63.11-26.13 81.6l-4.25 13.06-38.57-39.73s1.69-3.94 4.23-9.46c5.64-12.22 15.47-32.17 20.31-33.78 0 0-53.76-3.51-70.12 9.35s-11.69-35.06-11.69-35.06 31.56-2.34 43.24-9.35 74.8-14 74.8-14 21.04-3.53 8.18 37.37z"/><path class="cls-4" d="M187.19 490.68s99.34-45.58 134.4-38.56M85.51 383.16s120.38-4.67 185.82 37.4m-126.21 10.52s94.66-23.37 144.88-15.19"/><path class="cls-5" d="M749.33 481.33l-8.18 59.61-21-2.34s-1.27-1.17-3.44-3.13c-5.66-5-17.46-14.77-28.74-20.1a35.24 35.24 0 00-12.23-3.65l23.37-35.06a129.39 129.39 0 0017.45 5.17 85 85 0 0018.8 2.22 34.41 34.41 0 0013.97-2.72z"/><path class="cls-6" d="M690.89 523.41c-10.51 9.35-58.43-10.52-66.61 19.86l-7.53-28.82-23.17-88.69-3.19-12.21-19.31-.83-221.56-9.45-12.58-.52-6.61-.28 8.78-4.35 58.43-29s21-1.47 50.08-5.45c44-6 106.35-17.83 141.55-38.94 58.44-35.07 80.64 83 80.64 83s8.88 30 15.66 59.46c3.23 14 6 28.05 7 38.64 1.01 9 .7 15.56-1.58 17.58z"/><path class="cls-2" d="M690.89 523.41c-10.51 9.35-58.43-10.52-66.61 19.86l-7.53-28.82-23.17-88.69-3.19-12.21-19.87-1.17-214.1-13.22-13.22-.81-4.07-.25-5.27-.33 63.69-28.63s21-1.47 50.08-5.46c44-6 106.35-17.82 141.55-38.94 58.44-35.06 80.64 83 80.64 83s8.88 29.95 15.66 59.46c3.23 14 6 28.05 7 38.64 1 8.99.69 15.55-1.59 17.57z"/><path class="cls-4" d="M716.52 481.83l-20.45 24-8.18 9.56a35.19 35.19 0 00-12.22-3.65L699 476.66a129.8 129.8 0 0017.52 5.17z"/><path class="cls-6" d="M715.44 479l-22.88 26.81-11 12.92v3.51c-13.48 3.11-55.52-5.75-64.79-7.79-1.17-.24-1.82-.39-1.82-.39-26.88 1.17-126.22-57.27-126.22-57.27s-108.69 18.7-161.28 14c-29.37-2.62-37.59-13.25-39.14-22.13a23 23 0 011.69-12.9l46.91-33 6.23-4.38 9.95-7s17.28-3.92 39.24-8.77c34.31-7.56 80-17.39 89.28-18.1 15.19-1.17 53.76 11.69 76 37.4a66.31 66.31 0 0012.86 10.52l.61.39c6.24 4.14 13.93 8.55 22.5 13.05 28.29 14.9 66 30.9 91.94 41.4 17.7 7.1 29.92 11.73 29.92 11.73z"/><path class="cls-4" d="M749.33 481.33l-8.18 59.61-21-2.34s-1.27-1.17-3.44-3.13c4.68.1 12.35-1.24 14-10.89 0 0-8.1-28.34 4.67-40.53a34.28 34.28 0 0013.95-2.72z"/><path class="cls-1" d="M733 524.58s-11.72-40.91 15.16-45.58l44.41 17.53L844 500s13.43 21.93-8.1 46.47a66.11 66.11 0 01-46.74 22.21L733 571.33l-17.53-36.22s15.16 3.49 17.53-10.53z"/><path class="cls-4" d="M447.63 363.68c-5.84 1.72-30.24 9-55.21 18.89a308.68 308.68 0 00-36 16.58c-2.42 1.36-4.67 2.73-6.89 4.1-6.55 4.15-11.82 8.41-15.08 12.63-14.42 18.7-35.61 28.7-46.15 32.8a23 23 0 011.74-12.94l46.87-33-6.61-.28 8.78-4.35-5.27-.32 63.69-28.64s21.1-1.46 50.13-5.47zm-75.04-144.34l-4.25 13.06-38.57-39.73s1.69-3.94 4.23-9.46c4.87 10.35 28.15 28.38 38.59 36.13z"/><path class="cls-7" d="M233.45 238.75a68.1 68.1 0 01-3-12.19l-50.25 17.53s-34.48 26.3-31 83.56c0 0 42.65-15.78 61.35 2.92l.39 3.3a151.94 151.94 0 0041.19 86.93c9.35 9.75 18.06 20.76 22.7 31.32 0 0 32.72-9.35 52.59-35.06S442 364.47 442 364.47s-50.25 1.16-57.26-16.37-30.43-54.92-22.25-84.1 12.86-38.57 12.86-38.57-47.92-33.93-44.41-44.43l-30.39 35-14 4.68a22.5 22.5 0 011.65 8.54c.72 31.78-44.11 39.46-54.75 9.53z"/><path class="cls-3" d="M275.43 478.41s113.36-46.74 205.68-2.33l-22.2 46.74-106.35 2.34z"/><path class="cls-4" d="M287.09 208a118.92 118.92 0 011.78-13l-65.45-5.85s4.53 3.92 6.51 18.53c7.68 4.55 16.64 10.69 26.21 10.69A51.15 51.15 0 00287.09 208z"/><circle class="cls-5" cx="256.73" cy="165.2" r="51.42"/><path class="cls-8" d="M218.43 173.13l7.33-2.18v-12.17l7-21s35.06-16.36 51.42-12.86q-1.29 6.09-2.57 12.17c2.12-.45 16-3.53 18.39-12.4 3.37-12.34-18.26-25.3-20.49-26.65-19.52-11.7-49.34-13.8-67.79 2.34-9.35 8.18-24.54 22.21-12.85 60.77l3.5 9.35c3.67-3.35 8.58-4.17 12.09-2.19a9.21 9.21 0 013.97 4.82z"/><path d="M309.57 205.64l3.84-1.27L331.1 184a5 5 0 01-.12-3zM285 243.33c9.27-4.09 16.37-13 16-25.71a10.38 10.38 0 00-.12-2l-.37.42-14 4.67a22.17 22.17 0 011.65 8.55 27.84 27.84 0 01-3.16 14.07zm136.3 120.18c-29.29 10.19-68.95 26.23-81 41.86-.29.39-.6.75-.9 1.17 32.09-22 102.57-42.07 102.57-42.07a182.71 182.71 0 01-20.67-.96zm-133.6 76.92c-4.68-10.52-13.41-21.56-22.7-31.32a152 152 0 01-41.2-86.93l-.38-3.29c-18.7-18.7-61.36-2.93-61.36-2.93-2.22-36.32 10.84-60.17 20.68-72.77l-2.56.9s-34.48 26.3-31 83.56c0 0 42.65-15.78 61.35 2.92l.39 3.3a151.94 151.94 0 0041.19 86.93c9.35 9.75 18.06 20.76 22.7 31.32 0 0 28.48-8.18 48.43-30.11a120.78 120.78 0 01-35.54 18.42z" opacity=".05"/><path class="cls-5" d="M274.84 303.69s-56.1 80.64-85.31 104-37.4-10.52-37.4-10.52v-74.8l51.42-5.84.55 7.09.62 8.1 47.92-51.42s47.91-43.24 57.26-17.53-35.06 40.92-35.06 40.92z"/><path class="cls-4" d="M204.1 323.64a111.53 111.53 0 01-22.2 9.86c-11.05 3.4-23.71-.18-29.81-2.34v-8.73l51.43-5.85z"/><path class="cls-7" d="M151.54 314.8l-3.07 12.51s18.27 8.52 33.46 3.85 26.88-12.86 29.22-14-9.35-14-9.35-14z"/><path class="cls-4" d="M488.13 457.38a94.81 94.81 0 0125.71-14 91.87 91.87 0 0024.54-12.85"/><path class="cls-10" d="M844 500l-1.91-.13c2.78 7 6.8 24.3-9.69 43.13a66.1 66.1 0 01-46.75 22.2l-54.43 2.55 1.74 3.59 56.21-2.66a66.11 66.11 0 0046.73-22.18C857.42 522 844 500 844 500z"/><path class="cls-11" d="M579 560.22h-.18c.16 2.76.43 8.45.47 14.7.03-5.49-.15-10.92-.29-14.7zm66.55-10.1c.16.71.35 1.41.55 2.1 1.14-.66 2.79-1.9-.55-2.1z"/><path class="cls-10" d="M737.64 577.17c-12 5.44-102.06-10.42-114.31-12.61a9.14 9.14 0 01-1.39 3.26s102.85 18.7 115.7 12.85c6.62-3 8.28-6.94 7.38-10.52-.68 2.49-2.88 4.97-7.38 7.02z"/><path class="cls-11" d="M578.8 560.23c0-1.17-.1-1.76-.1-1.76s-5.95 2.12.1 1.76z"/><path class="cls-4" d="M231.11 139.49h64.73c1.72 0 5.44.11 8.06 2.66a9.56 9.56 0 012.54 4.85 92.34 92.34 0 011.05 24.15q-.12 1.32-.27 2.61a13.12 13.12 0 01-1.6 1.84 15.7 15.7 0 01-7.88 3.73 25.41 25.41 0 01-7.86.42 36.61 36.61 0 01-10.07-2.25c-8-3-8.26-5.91-12.24-5.73-3.16.14-3.1 2-10 5.22-3.41 1.57-6.47 3-10.52 3.36a23.9 23.9 0 01-11-1.64 18.06 18.06 0 01-5.44-3.51 16.26 16.26 0 01-4-5.55c-.89-2.16-.4-2.74-.32-9.89v-15.5c.05-.32.08-2.01 4.82-4.77z"/><path d="M195 142.5l34 1.8c-.72 4.8-.58 7.53-1.86 14l-29.51-1.46c-.38-1.58-.76-3.18-1.13-4.78l-.57-2.42-.75-5.13z"/><path d="M240.05 138.32c15.49-.31 16.33-1.67 29.46-1 8.47.46 12.19 1.62 23.48 1 1.14-.06 6.73-.27 10.91 3.83a13.17 13.17 0 013.08 4.78c.17 1.74 1.65 17.07.5 23.67a8.24 8.24 0 01-1.44 3.6c-1.57 2.13-4 3-6.35 3.52a36.66 36.66 0 01-16.63-.41c-8.55-2.54-9.69-6.24-15.26-5.91a7.42 7.42 0 00-1.77.29 13.43 13.43 0 00-4 2.2s-.25.18-4.86 2.65c-9.61 5.15-17.84 2.74-17.84 2.74a21.73 21.73 0 01-7.25-4.08 24.63 24.63 0 01-7.13-12.11 26.71 26.71 0 01-.75-5 50.08 50.08 0 01.7-10.74s.78-5.27 2.14-5.49a8.48 8.48 0 011.16-.07h.6c.62-.26 1.48-.61 2.51-1a20.62 20.62 0 018.74-2.47z" fill="#2d2d2d"/><path d="M242.51 153.23c19.48.55 39-.64 58.46.07 1.27 0 4.51.14 6.12 2.32.73 1 .79 1.92.82 5.14.09 9.81-.33 11.52-1.57 13.15a10.33 10.33 0 01-2.44 2.24c-2.15 1.43-4.26 1.72-7.16 2.08a27.09 27.09 0 01-4.87.25 28.77 28.77 0 01-9.75-2.29 30 30 0 01-5.67-3.12 17.59 17.59 0 00-4.95-2.6 8 8 0 00-2.36-.27 7.7 7.7 0 00-1.82.23 16.63 16.63 0 00-4.7 2.29 77.83 77.83 0 01-6.46 4.49 23.44 23.44 0 01-6.38 2.29 26.57 26.57 0 01-6.73.38 13.13 13.13 0 01-3.42-.44 12.34 12.34 0 01-3.63-1.84 13.86 13.86 0 01-2.82-2.55c-1.61-2.12-1-4.14-.64-11.64.25-5.57 0-6.29.84-7.46 2.13-2.95 7.09-2.78 9.13-2.72z" fill="#bca0a5"/><path class="cls-4" d="M289.4 140.64a79.61 79.61 0 0029.66-31.81c.79-1.53 1.53-3.25 1.1-4.91-.83-3.18-5-3.74-8-5.11-5.57-2.56-7.92-9-11.58-13.94a27.89 27.89 0 00-27.27-10.52c-5.32 1.08-10.26 3.72-15.63 4.51-11.6 1.7-24.24-5.33-34.65 0-4.75 2.44-8 7-10.79 11.57-7.09 11.35-16 23.38-9.54 36.69 3.71 7.6 9.62 13.92 17.93 16.14s17.93.37 26.38-.55c7-.75 14.23-2.34 21.23-1.6 8.23.89 13.34 4.23 21.16-.47z"/><path class="cls-8" d="M289.4 138.3a79.61 79.61 0 0029.66-31.81c.79-1.53 1.53-3.25 1.1-4.91-.83-3.18-5-3.74-8-5.11-5.57-2.56-7.92-9-11.58-13.94A27.89 27.89 0 00273.34 72c-5.32 1.08-10.26 3.72-15.63 4.51-11.6 1.7-24.24-5.33-34.65 0-4.75 2.45-8 7-10.79 11.57-7.09 11.35-16 23.38-9.54 36.69 3.71 7.61 9.62 13.92 17.93 16.14s17.93.37 26.38-.55c7-.75 14.23-2.34 21.23-1.6 8.2.9 13.31 4.24 21.13-.46z"/><path class="cls-14" d="M1000 273.02l-508.37 90.86V91.28L1000 .42v272.6z"/><path class="cls-14" d="M894.68 31.87l94.02-16.21 1.37 42.13-96.51 16.14 1.12-42.06z"/><g opacity=".2"><path class="cls-16" d="M711.8 267.09a35.34 35.34 0 019.73-.81c19.22.34 39.17 2.22 58-3.5 10-3 19-8 29.34-10.13 17.53-3.62 35.06 1.66 52.29-2.74 3.51-.9 7.8-2.16 10.29-.81 2.89 1.57.84 5.64 4.36 6.67a16 16 0 013.27.74c1.29.75.48 2.34-.81 3.36-7.81 6.34-23.72 2.12-33.51 7.26-2.18 1.16-3.81 2.64-5.85 3.85a43.9 43.9 0 01-10.15 3.74l-54.38 15.19c-13 3.64-26.22 7.32-39.68 8.92s-27.43.95-37.29-3.62c-2.12-1-4.08-2.19-4.89-3.82-3.8-7.72 5.74-20.7 19.28-24.3z"/><path class="cls-17" d="M663.83 159.43l45.49 35.97 45.5 35.96-74.72 14.13-74.73 14.12 29.23-50.09 29.23-50.09z"/><path class="cls-17" d="M711.13 151.11l45.5 35.96 45.5 35.97-74.73 14.12-74.72 14.13 29.23-50.09 29.22-50.09z"/><path class="cls-3" d="M781.5 76.28l-87.8 167.26 166.51-32.41 61.54-11.63L781.5 76.28z"/><path class="cls-4" d="M921.75 199.5l-61.54 11.63L781.5 76.28 921.75 199.5z"/><path d="M827.79 153.82a4.76 4.76 0 00-5.07-3.5s1.17-9.19-17.76-5.49a4.83 4.83 0 00-6.46-2.2 4.71 4.71 0 00-1 .68l-.81-4.26s-10.38 5.95.62 14.43l1.32 7a2.4 2.4 0 00.16.52 1.9 1.9 0 01.14.4c.51 2 4.2 18.25-4.19 23.79-9 6-14.13-12.53-14.13-12.53-5.84-24.22-17-24.13-19.61-23.75-.32 0-.64.07-1 .1-1.24.07-5.09 1.45-6.56 15.41-1.76 16.76-8.18 12.58-8.18 12.58-14.39-7.84-24.54-1-24.54-1-25 14.67-3.74 42.21.64 47.43-1.65 8.31-5 23-8.18 23.56-4.53.86-13 16.77 10 41.53l6.11-1.17s-18.9-24.68-4-37a17.69 17.69 0 01-1.17 2.63c-8.33 14.25 20 31.42 20 31.42l6.8-1.29-15.7-19.78c-6.25-8.19 5.39-14.87 5.39-14.87 13.78-11.52 6.69-25.43 6.69-25.43l32.12-6.03c-4 8.79-9.82 30.39 9.61 58.83l4.53-.85-3.7-34.5s1.17-7.42 9-18.62c3.14 14 9.77 38.23 19.8 48.36l6.57-1.23s-8-23-8.18-31.56c-.08-3.51-.24-6.95-.55-10.41l-1.64-18.09a15.51 15.51 0 006.9-16.19l-6-31.39a3.29 3.29 0 012.62-3.87h.18l7.75-1.06a1.93 1.93 0 001.57-2.24 1.89 1.89 0 00-.09-.36z" fill="url(#linear-gradient)"/><path class="cls-19" d="M796.24 211.51s7.27 43.31 21.49 57.66l6.45-1.17s-7.85-22.54-8.06-30.94c-.08-3.42-.22-6.83-.54-10.23l-2.64-29.22z"/><path class="cls-2" d="M796.24 211.51s7.27 43.31 21.49 57.66l6.45-1.17s-7.85-22.54-8.06-30.94c-.08-3.42-.22-6.83-.54-10.23l-2.64-29.22z"/><path class="cls-19" d="M723.21 217.71s-4.68 27.83-9.09 28.67-12.79 16.47 9.78 40.77l6-1.17s-20.8-27.16-1-38.28c-.02.04 3.42-23.2-5.69-29.99z"/><path class="cls-2" d="M723.21 217.71s-4.68 27.83-9.09 28.67-12.79 16.47 9.78 40.77l6-1.17s-20.8-27.16-1-38.28c-.02.04 3.42-23.2-5.69-29.99z"/><path class="cls-19" d="M798 161.49l-1.3-6.85c-10.79-8.32-.61-14.17-.61-14.17l1.39 7.34c25.56-7.36 24.2 3.72 24.2 3.72a4.68 4.68 0 015 3.4 1.89 1.89 0 01-1.16 2.43 1.64 1.64 0 01-.38.1l-7.61 1a3.23 3.23 0 00-2.78 3.65 1.1 1.1 0 000 .18l5.93 30.82a15.44 15.44 0 01-3.11 12.63c-2.2 2.7-5.71 5.13-11.32 6l-58.72 11.1s7 13.66-6.57 25c0 0-11.43 6.53-5.3 14.59l15.41 19.43-6.67 1.26s-27.83-16.85-19.65-30.84a28 28 0 00-1.88-28.22s-28.51-31.46-1.36-47.42c0 0 10-6.73 24.13 1 0 0 6.3 4.1 8-12.34 1.43-13.71 5.21-15.07 6.43-15.14a3.33 3.33 0 00.94-.09c2.6-.37 13.55-.47 19.26 23.32 0 0 5 18.16 13.85 12.35 8.24-5.44 4.68-21.35 4.13-23.38 0-.13-.09-.26-.14-.38a1.69 1.69 0 01-.11-.49z"/><path class="cls-19" d="M781.46 212.69s-18.07 25.07 7.11 61.94l4.46-.84-3.64-33.89s2.15-14.23 21.66-32.89z"/><circle class="cls-19" cx="800.01" cy="148.32" r="4.76"/><path d="M780 179.46c5.5-8.35 2.22-8.9.1-11.1-1.45-1.5-13.63-2.07-21.22-2.28-.16-.58-.42-1.57-.72-2.76 0 0-.61-2.19-.89-3.74h.48l-.07-.45 9.35-.51c8-.32 8.37-3.5 8.37-3.5.19-5.46-8.83-.22-8.83-.22-1.78.87-6.53.22-10.23-.51a20.13 20.13 0 01-.18-2.33 17.44 17.44 0 00-.23-3.61 5.87 5.87 0 00-1.17-2.83 47.5 47.5 0 00-9.42-8.6 16.11 16.11 0 01.56-6.14 7.45 7.45 0 003.93-7.94 7.17 7.17 0 00-.73-2c1.67-2.22.89-6-1.42-8.1a6.68 6.68 0 00-.8-.6 7.38 7.38 0 00-5.11-1.17 13.31 13.31 0 00-5.53 2.27c-2 1.31-3.9 3-6.26 3.23-1.7.18-3.5-.4-5.1.13-2.12.67-3.21 2.93-3.88 5s-1.34 4.34-3.17 5.58c-1.6 1.08-3.67 1.07-5.55 1.52a8.18 8.18 0 00-5.9 4.95 5.38 5.38 0 002.12 6.18 4.3 4.3 0 001 .55 8.3 8.3 0 011.17.45 1 1 0 01.38.65 2 2 0 01-.2.92 5 5 0 00.34 3.94 2.58 2.58 0 001 1.05 2 2 0 00.39.25c1.37.59 3.06-.75 4.42-.14h.1a9.68 9.68 0 011.36 1.88 3.83 3.83 0 001.17 1 5.67 5.67 0 004 .86 14.08 14.08 0 005-2c2.07-1.17 4.32-2.79 4.49-5.1.09-1.42-.64-2.79-.47-4.19a3.94 3.94 0 01.78-1.83 14.46 14.46 0 00-.24 3.6 19.1 19.1 0 00.35 2.91 20.72 20.72 0 002.66 7.09 30.77 30.77 0 013.85 9.2 12.46 12.46 0 01.07 4.35c-.75 4.18-.67 6-.46 6.74.13 1 .47 1 .47 1h.08a5.25 5.25 0 001.83 3.7c10.57 4.38 32.09-1.82 32.09-1.82-4.35 1.53-7.46 13.44-7.46 13.44a16.62 16.62 0 01-3.15 7.13c-2.34-.35-5.1 2.27-7.18 3.8l-.18.12a1.71 1.71 0 00-.44 2.38 1.33 1.33 0 00.14.19l8.28 9.07c4.76 3.37 7.51 3.59 8.28 2.64.5-.63.17-1.76-1-2.84-2.83-2.63-2.42-11.16-2.34-11.89A182.38 182.38 0 01780 179.46z" fill="url(#linear-gradient-2)"/><path class="cls-21" d="M746.55 129.8s-2.41 5.53-.82 10.29l-9-4.76s2.86-.77 2.26-7.56z"/><path d="M752.55 166.44s23.79.34 25.81 2.49 5.12 2.73 0 10.84-10.78 19.77-10.78 19.77l-6.05-2.77a16 16 0 004.17-8.39s2.88-11.61 7-13.07c0 0-20.3 5.92-30.38 1.59 0 0-2.69-2-1.44-6.4s11.67-4.06 11.67-4.06z" fill="#353535"/><path class="cls-4" d="M739.35 135.54s-5.94-1.46-5.51 7.65a20.48 20.48 0 002.83 9.35c1.93 3.29 4.68 9 3.87 13.67-1.17 7.13 0 7.14 0 7.14l3-1.85a26.26 26.26 0 0113.59-3.85h1.41s-2.85-10.24-2.91-14.78c0-2.15 0-4.14-1.29-5.84-4.02-5.23-12.15-11.5-14.99-11.49z"/><path class="cls-23" d="M739.27 135.12s-5.94-1.46-5.51 7.65a20.29 20.29 0 002.83 9.34c1.93 3.3 4.67 9 3.87 13.68-1.17 7.13 0 7.14 0 7.14l3-1.85a26.26 26.26 0 0113.59-3.85h1.41s-2.85-10.24-2.91-14.78c0-2.15 0-4.14-1.29-5.84-4.02-5.26-12.15-11.49-14.99-11.49z"/><path class="cls-4" d="M737.06 142.41a4.28 4.28 0 015.48-2.55 4.33 4.33 0 011.53 1 10.49 10.49 0 012.15 3.31c2.82 6.39 4.95 10.36 4.95 10.36a33.76 33.76 0 015.35 1.24c.26 2.18.62 4.45.62 4.45l-7.59.37-10.39-12.31s-3.16-2.64-2.1-5.87z"/><path class="cls-21" d="M737 142a4.29 4.29 0 017-1.59 10.9 10.9 0 012.15 3.32c2.81 6.38 5 10.35 5 10.35s11.42 3.15 14.36 1.66c0 0 8.49-5.06 8.35.27 0 0-.34 3.06-7.89 3.33l-16.43.81-10.39-12.32s-3.24-2.69-2.15-5.83z"/><path class="cls-4" d="M738.33 130.77c.22-1.06.73-.65.56-2.52l7.53 2a17.31 17.31 0 00-.77 2.34 7.8 7.8 0 01-2.34.43c-1.66.36-3.57-1.46-4.98-2.25z"/><circle class="cls-21" cx="742.33" cy="125.82" r="7.25"/><path class="cls-4" d="M745.3 124.09c-1.29.07-2.69-.34-3.78.34s-1.4 2.53-1.17 4 .84 2.91.51 4.35c-.46 1.88-2.34 3-4 4s-3.5 2.34-3.68 4.23c-.15 1.37.55 2.72.47 4.09-.14 2.26-2.26 3.81-4.22 5a13.08 13.08 0 01-4.68 1.93 4.89 4.89 0 01-4.61-1.68c-.53-.73-.84-1.7-1.66-2.07-1.29-.61-2.89.7-4.17.11a2.29 2.29 0 01-1-1.08 4.94 4.94 0 01-.34-3.84 2.12 2.12 0 00.17-.9c-.1-.73-1-1-1.7-1.25a5.27 5.27 0 01-2.74-6.39 7.66 7.66 0 015.55-4.79c1.78-.45 3.74-.42 5.24-1.45 1.73-1.17 2.34-3.42 3-5.44s1.63-4.2 3.63-4.85c1.54-.5 3.22.08 4.83-.09 2.23-.23 4-1.85 5.84-3.11A12.35 12.35 0 01742 113a6.59 6.59 0 015.32 1.52c3.2 2.92 3.4 9.28-2.02 9.57z"/><path d="M745 123.91c-1.29.07-2.69-.33-3.78.34s-1.4 2.54-1.17 4 .85 2.91.51 4.35c-.46 1.88-2.34 3-4 4s-3.5 2.34-3.68 4.23c-.15 1.37.55 2.71.47 4.09-.14 2.25-2.26 3.81-4.22 4.95a12.93 12.93 0 01-4.67 1.93 4.89 4.89 0 01-4.61-1.66c-.53-.72-.84-1.69-1.66-2.07-1.28-.6-2.89.71-4.17.12a2.32 2.32 0 01-1-1.09 5 5 0 01-.34-3.83 2 2 0 00.18-.9c-.11-.73-1-1-1.71-1.25a5.26 5.26 0 01-2.73-6.39A7.63 7.63 0 01714 130c1.77-.45 3.74-.42 5.23-1.45 1.73-1.17 2.34-3.43 3-5.44s1.64-4.2 3.63-4.85c1.55-.5 3.22.07 4.83-.09 2.23-.23 4-1.85 5.84-3.11a12.1 12.1 0 015.23-2.18 6.62 6.62 0 015.33 1.51c3.16 2.87 3.36 9.22-2.09 9.52z" fill="#2f302f"/><path class="cls-4" d="M747.15 142.24s-9.35.61-8.55 7.14-3.25-7.44-3.25-7.44L739 138l5.18.63z"/><path class="cls-23" d="M746.91 142.05s-9.35.61-8.56 7.14-3.24-7.44-3.24-7.44l3.63-3.92 5.19.63zm8.62 59.51l7.88 8.9c4.54 3.31 7.13 3.5 7.85 2.63.47-.61.14-1.71-1-2.77-2.81-2.69-2.33-11.69-2.33-11.69a5.49 5.49 0 01-5.25-3.39c-2.23-.35-4.8 2.18-6.77 3.66l-.16.11a1.72 1.72 0 00-.38 2.39z"/><path class="cls-4" d="M768 198.65s-4.49.62-5.25-3.39a5.64 5.64 0 005.25 3.39zm-12.47 2.91l7.88 8.9c4.54 3.31 7.13 3.5 7.85 2.63-2.26-.71-8.68-3.51-15.29-14.16l-.17.12a1.7 1.7 0 00-.37 2.38 1.47 1.47 0 00.1.13z"/><path class="cls-3" d="M626.58 271.17s-20.84 18.63 26.65 32.24c0 0 6.19-19.54-7.1-32a14.49 14.49 0 00-19.23-.56z"/><path d="M626.78 270.82s23.06 11.56 26.45 32.59" fill="none" stroke="#535461" stroke-miterlimit="10"/><path class="cls-26" d="M651.92 303.61s-12.1-23.63-6.83-43.7a40.22 40.22 0 00-1.49-25.45 67.64 67.64 0 00-5.72-11"/><path class="cls-3" d="M641.13 210.88c.59 3.06-3.29 13-3.29 13S630.6 216 630 213a5.65 5.65 0 1111.1-2.1zm12.39 15.25c-1.17 2.88-9.83 9.13-9.83 9.13s-1.81-10.52-.63-13.41a5.68 5.68 0 0110.52 4.28zm5.08 29.1c-2.47 1.89-13.1 2.92-13.1 2.92s3.75-10 6.22-11.89a5.65 5.65 0 016.87 9zm-1.11 22.88c-2.11 2.34-12.41 5.08-12.41 5.08s2-10.51 4.13-12.76a5.65 5.65 0 118.28 7.68zm-25.35-40.06c2.61 1.72 13.27 2 13.27 2s-4.43-9.7-7-11.43a5.65 5.65 0 10-6.23 9.43zm-.95 26.8c3 .86 13.25-2.07 13.25-2.07s-7.13-7.94-10.13-8.8a5.64 5.64 0 10-3.12 10.85zm2.6 26.15c2.81 1.36 13.42.21 13.42.21s-5.69-9-8.5-10.38a5.65 5.65 0 00-4.92 10.17z"/><path d="M641.13 210.88c.59 3.06-3.29 13-3.29 13S630.6 216 630 213a5.65 5.65 0 1111.1-2.1zm12.39 15.25c-1.17 2.88-9.83 9.13-9.83 9.13s-1.81-10.52-.63-13.41a5.68 5.68 0 0110.52 4.28zm5.08 29.1c-2.47 1.89-13.1 2.92-13.1 2.92s3.75-10 6.22-11.89a5.65 5.65 0 016.87 9zm-1.11 22.88c-2.11 2.34-12.41 5.08-12.41 5.08s2-10.51 4.13-12.76a5.65 5.65 0 118.28 7.68zm-25.35-40.06c2.61 1.72 13.27 2 13.27 2s-4.43-9.7-7-11.43a5.65 5.65 0 10-6.23 9.43zm-.95 26.8c3 .86 13.25-2.07 13.25-2.07s-7.13-7.94-10.13-8.8a5.64 5.64 0 10-3.12 10.85zm2.6 26.15c2.81 1.36 13.42.21 13.42.21s-5.69-9-8.5-10.38a5.65 5.65 0 00-4.92 10.17z" style="isolation:isolate" opacity=".25"/><path class="cls-26" d="M674.7 308.09s-12.1-23.63-6.83-43.7a40.17 40.17 0 00-1.48-25.39 67.73 67.73 0 00-5.72-11"/><path class="cls-3" d="M664 215.34c.58 3.06-3.3 13-3.3 13s-7.23-7.84-7.81-10.91a5.65 5.65 0 0111.11-2.1zm12.34 15.25c-1.17 2.89-9.83 9.13-9.83 9.13s-1.81-10.52-.63-13.41a5.68 5.68 0 0110.52 4.28zm5.09 29.1c-2.48 1.9-13.1 2.92-13.1 2.92s3.75-10 6.21-11.88a5.65 5.65 0 016.88 9zm-1.11 22.89c-2.12 2.33-12.41 5.08-12.41 5.08s2-10.52 4.12-12.76a5.65 5.65 0 118.29 7.68zM655 242.51c2.6 1.72 13.26 2 13.26 2s-4.43-9.7-7-11.43a5.65 5.65 0 10-6.23 9.43zm-1 26.79c3 .86 13.25-2.07 13.25-2.07s-7.13-7.93-10.13-8.8a5.65 5.65 0 10-3.12 10.86zm2.65 26.15c2.81 1.36 13.42.21 13.42.21s-5.69-9-8.5-10.37a5.65 5.65 0 00-4.92 10.18z"/><path class="cls-16" d="M723 92.11l-2.06.39a1.46 1.46 0 001.16-1.71 1.45 1.45 0 00-1.71-1.16l-16.65 3.14a1.46 1.46 0 10.55 2.87l2.05-.38a1.46 1.46 0 00.55 2.87l-2.87.55a1.47 1.47 0 10.55 2.88l16.65-3.15a1.46 1.46 0 10-.55-2.87l2.88-.55a1.47 1.47 0 00-.55-2.88zm-30.18 28.6l-2.05.39a1.47 1.47 0 00-.55-2.88l-16.69 3.15a1.46 1.46 0 00-1.17 1.71 1.47 1.47 0 001.72 1.16l2-.38a1.46 1.46 0 00.55 2.87l-2.87.55a1.47 1.47 0 10.55 2.88l16.7-3.15a1.46 1.46 0 10-.55-2.87l2.87-.55a1.47 1.47 0 10-.55-2.88zm170.36-36.53l-2.06.38a1.46 1.46 0 10-.54-2.87l-16.65 3.18a1.46 1.46 0 00.55 2.87l2.06-.38a1.46 1.46 0 00.55 2.87l-2.93.48a1.47 1.47 0 10.54 2.88l16.66-3.15a1.46 1.46 0 10-.55-2.87l2.87-.55a1.47 1.47 0 00-.54-2.88z"/><circle class="cls-17" cx="640.73" cy="120.57" r="15.51" transform="rotate(-10.7 640.735 120.596)"/><path class="cls-2" d="M733.27 200.79s7.8 6.88 11.43 13 2.48 8.18 2.48 8.18"/></g></svg>