<svg version="1.1" id="a594ac37-6d44-4297-8862-1cbd9c01c0b7" xmlns="http://www.w3.org/2000/svg" x="0" y="0" viewBox="0 0 1500 855" xml:space="preserve"><style>.st0{fill:#eee}.st1{opacity:.1;enable-background:new}.st3{fill:#f2f2f2}.st4{fill:#1b2238}.st5{fill:#5c39bc}.st6{fill:#33ded2}.st7{fill:#fbbebe}.st9{fill:#b3bec4}.st13{fill:#2a314c}.st16{fill:#4a5b64}.st17{fill:#513b3b}</style><path class="st0" d="M635.8 755.9C393.4 737.5 104.3 549.7 119 356.3S413.7-17.1 656.1 1.3s381.9 379.9 367.2 573.3c-14.7 193.3-145.1 199.8-387.5 181.3z"/><ellipse class="st0" cx="781.9" cy="732.4" rx="631.8" ry="55.4"/><ellipse class="st1" cx="781.9" cy="731.5" rx="538.1" ry="36.6"/><ellipse class="st0" cx="212.2" cy="836.5" rx="212.2" ry="18.5"/><ellipse class="st1" cx="212.2" cy="836.2" rx="180.7" ry="12.2"/><path fill="#94a4ad" d="M321.2 115h939v590h-939z"/><path class="st3" d="M562.8 195.6H377.3c-1.2 0-2.3-1-2.3-2.2s1-2.3 2.2-2.3h185.5c1.2 0 2.2 1 2.2 2.3.2 1.2-.8 2.2-2.1 2.2zm203.1 24.8H474.1c-1.2 0-2.3-1-2.3-2.3s1-2.3 2.3-2.3h291.8c1.2 0 2.3 1 2.3 2.3s-1 2.3-2.3 2.3zm-201.7 24.8H407c-1 0-1.9-1-1.9-2.3s.8-2.3 1.9-2.3h157.2c1 0 1.9 1 1.9 2.3s-.8 2.3-1.9 2.3zm201.7.4H580.4c-1.2 0-2.3-1-2.3-2.3s1-2.3 2.3-2.3h185.5c1.2 0 2.3 1 2.3 2.3s-1 2.3-2.3 2.3zm-201.3 24.3H407.4c-1 0-1.9-1-1.9-2.3s.8-2.3 1.9-2.3h157.2c1 0 1.9 1 1.9 2.3s-.8 2.3-1.9 2.3zm.4 24.8H407.7c-1 0-1.9-1-1.9-2.3s.8-2.3 1.9-2.3H565c1 0 1.9 1 1.9 2.3s-.8 2.3-1.9 2.3z"/><path class="st4" d="M648.8 194.3h-53.1c-1.2 0-2.3-1-2.3-2.3s1-2.3 2.3-2.3h53.1c1.2 0 2.3 1 2.3 2.3s-1 2.3-2.3 2.3z"/><path class="st5" d="M648.8 268.1h-53.1c-1.2 0-2.3-1-2.3-2.3s1-2.3 2.3-2.3h53.1c1.2 0 2.3 1 2.3 2.3s-1 2.3-2.3 2.3z"/><path class="st4" d="M648.8 292.4h-53.1c-1.2 0-2.3-1-2.3-2.2s1-2.3 2.2-2.3h53.1c1.2 0 2.3 1 2.3 2.2s-.9 2.3-2.2 2.3c.1 0 0 0 0 0z"/><path class="st5" d="M738 294.2h-53.1c-1.2 0-2.2-1-2.2-2.3 0-1.2 1-2.2 2.2-2.2H738c1.2 0 2.3 1 2.3 2.2s-1 2.3-2.3 2.3z"/><path class="st6" d="M430 220.4h-53.1c-1.2 0-2.3-1-2.3-2.3s1-2.3 2.3-2.3H430c1.2 0 2.3 1 2.3 2.3s-1.1 2.3-2.3 2.3z"/><path class="st3" d="M563.7 560.4H406.4c-1 0-1.9-1-1.9-2.3 0-1.2.8-2.3 1.9-2.3h157.2c1 0 1.9 1 1.9 2.3s-.8 2.3-1.8 2.3zm-.8 49.5H405.6c-1 0-1.9-1-1.9-2.3 0-1.2.8-2.3 1.9-2.3h157.3c1 0 1.9 1 1.9 2.3 0 1.3-.8 2.3-1.9 2.3zm.4 24.8H406c-1 0-1.9-1-1.9-2.3 0-1.2.8-2.3 1.9-2.3h157.2c1 0 1.9 1 1.9 2.3.1 1.2-.7 2.3-1.8 2.3z"/><path class="st4" d="M641.9 610.3h-53.1c-1.2 0-2.3-1-2.3-2.3 0-1.2 1-2.3 2.3-2.3h53.1c1.2 0 2.3 1 2.3 2.3-.1 1.3-1.1 2.3-2.3 2.3z"/><path class="st5" d="M641.9 634.7h-53.1c-1.2 0-2.3-1-2.3-2.3 0-1.2 1-2.3 2.3-2.3h53.1c1.2 0 2.3 1 2.3 2.3-.1 1.2-1.1 2.3-2.3 2.3zm89.1-24.4h-53.1c-1.2 0-2.3-1-2.3-2.3 0-1.2 1-2.3 2.3-2.3H731c1.2 0 2.3 1 2.3 2.3s-1 2.3-2.3 2.3z"/><path class="st3" d="M766.1 585.1H474.4c-1.2 0-2.3-1-2.3-2.3 0-1.2 1-2.3 2.3-2.3h291.8c1.2 0 2.3 1 2.3 2.3-.1 1.3-1.1 2.3-2.4 2.3z"/><path class="st6" d="M430.2 585.1h-53.1c-1.2 0-2.3-1-2.3-2.3 0-1.2 1-2.3 2.3-2.3h53.1c1.2 0 2.3 1 2.3 2.3s-1 2.3-2.3 2.3z"/><path class="st3" d="M766.1 659.9H474.4c-1.2 0-2.3-1-2.3-2.3 0-1.2 1-2.3 2.3-2.3h291.8c1.2 0 2.3 1 2.3 2.3-.1 1.3-1.1 2.3-2.4 2.3z"/><path class="st6" d="M430.2 659.9h-53.1c-1.2 0-2.3-1-2.3-2.3 0-1.2 1-2.3 2.3-2.3h53.1c1.2 0 2.3 1 2.3 2.3s-1 2.3-2.3 2.3zm88.1-305.8l-72.1 71.2 72.1 71.1 16.2-16.2-54.5-54.5 54.9-54.9zm106.2 0l72.1 71.2-72.1 71.1-16.2-16.2 54.5-54.5-54.9-54.9z"/><path class="st1" d="M321.2 145h939v3h-939z"/><path class="st6" d="M1500 560.5c0 63.8-37.9 86-84.7 86s-84.7-22.3-84.7-86 84.7-144.9 84.7-144.9 84.7 81.1 84.7 144.9z"/><path class="st5" d="M1412.2 636.7l.9-53.3 36.1-66.1-36 57.7.4-24 24.9-47.8-24.8 41.4.7-43.1 26.7-38-26.6 31.2.5-79.1-2.8 104.7.3-4.3-27.1-41.4 26.6 49.7-2.5 48.2-.1-1.3-31.2-43.6 31.1 48.1-.3 6.1v.6l-6.4 122.3h8.5l1.1-63.2 31-48z"/><path class="st6" d="M151.8 775.4a46.5 46.5 0 01-5.8 6.7c-4 3.5-9.1 5.4-13.2 8.7-1.7 1.4-3.3 3.3-3 5.4.2 1.6 1.4 2.8 2.5 3.9 12.4 12.5 23.1 26.9 37.8 36.5 6.2 4 12.9 7.1 20 9.2 3.4 1 7.1 1.7 10.2-.7 1.4-1.1 2.4-2.7 2.7-4.5.4-2.7-.6-5.2-2.5-6.8-1.5-1.3-3.5-1.9-5.1-3-1.9-1.5-3.5-3.4-4.7-5.5-3.9-6-7.9-12.3-8.6-19.4-.5-4.8.6-9.6 1.1-14.3.5-4.8.3-9.9-2.3-14-1.8-2.8-4.5-4.8-7.2-6.6s-9-7.2-12.5-6.6c-3.7.7-7.3 8.2-9.4 11zm63.3 33.1c.1 1.6-.2 3.2-.7 4.7-1.1 2.8-3.7 4.7-5 7.4-1.9 3.7-1 8.2.2 12.1.8 2.5 1.8 5.1 3.9 6.6 1.8 1.1 3.8 1.8 6 1.9 18 2.5 36.4 1.1 54.6 1.6 3.3.1 6.8.2 9.7-1.4s4.7-5.7 2.7-8.4c-1.8-2.4-5.3-2.4-8.2-2.5-7.8-.4-15.1-3.4-20.9-8.6-1.1-1-2.1-2.1-2.9-3.4-.6-1.1-1.1-2.3-1.5-3.5-2.6-6.9-5.6-13.6-9.1-20.1-1-1.8-2.1-3.7-3.9-4.7-1.3-.6-2.8-.9-4.2-.9-4.5-.3-16.3-1.8-19.8 1.7-3.4 3.3-.9 13.4-.9 17.5z"/><circle class="st7" cx="243" cy="376.7" r="29"/><path class="st7" d="M216.8 400.6c-1.7 4.6-4.6 8.9-8.9 11.4l40.1 8.2c-1.5-5.8-1.6-11.9-.6-17.9.4-1.4.5-2.9.2-4.4-.8-2.9-4-4.3-7-5-7.3-1.7-13.8-2.6-20.6-5.8-2 3.7-1.7 9.4-3.2 13.5z"/><path class="st0" d="M207.6 401.2c8.7-4 18.8-3.7 27.3.7 5.1 2.7 9.4 6.8 13.6 10.8 3.9 3.7 8 8 8.2 13.3.1 2.6-.7 5.1-1.1 7.7-1.5 10.9-3.7 16.6 2.2 24.8 3.2 5.3 7.1 17.7 7.1 23.9.2 23.4-2 40.5 2.1 62.6 1.2 5.4.3 9.8 1.4 15.2 1.4 7 .5 13.8 1.3 20.9.8 7.7-.4 18.4 2.2 25.7-1.7 2.8-7.6-.1-10.9-.3s-5.7-3.5-8.6-5c-14.1-7.2-14.5-10-29.2-16.1-9.7-4.1-20-6.6-29.4-11.3s-18.1-12.1-21-22.2c-1.2-4.4-1.3-9-1.4-13.5-.3-19.1-.6-38.4 3.6-57.1 3.7-16.5 10.7-32.2 12.3-49 .5-5.5.5-11.3 3.6-15.9 4.3-6.4 13.6-8 16.7-15.2z"/><path d="M226.5 377.1c1.7-2.2 5-2.5 7.7-1.9s5.2 2.1 8 2.6c1.3.4 2.6.2 3.7-.5 1-.9 1.5-2.2 1.6-3.6 1-5.7 1.2-11.6.7-17.4-.1-.8-.1-1.6.2-2.4.7-1.6 2.8-2 4.5-2.6 5.8-1.9 9.5-7.6 9-13.6 0-1.4-.6-2.8-1.7-3.7-1.2-1-2.8-1-4.3-1-7.8-.1-15.6-.1-23.4 0-2.9 0-5.9.1-8.4 1.5-1.8 1.1-3.2 2.8-4.9 4.1-4.3 3.5-10.2 4.2-15.4 6-2.6.7-4.9 2.1-6.8 4-1.8 2-2.6 5-1.5 7.4.6 1 1.2 2 1.9 2.9 3.1 5 1 11.4 1.5 17.2.6 7.3 11.4 19.1 18.7 20.8 11.8 2.9 5-15 8.9-19.8z" fill="#d3b94c"/><path class="st9" d="M210.1 696.7c.7 5.3 1.7 10.7 1.4 16-.4 7.5-3.1 14.7-3.6 22.2-.4 5.6.5 11.2-.3 16.8-.5 3.6-1.7 7-2.4 10.5-2.3 11.6.2 23.6 7 33.3.5.8 1.2 1.5 2 2 .8.3 1.7.4 2.5.3 8.4-.2 16.8-.9 25.2-2.3.6 0 1.2-.3 1.6-.7.2-.3.3-.6.4-1 1.5-7.9-2-15.9-2.9-23.9-1-8.6 1.1-17.2 3.1-25.6.9-4.1 2.1-8.2 3.5-12.2 1-2.7 2.2-5.3 3-8.1 1.2-4.3 2-8.7 2.2-13.2.6-7.1.9-14.1.9-21.2.2-6.7-.4-13.4-1.7-20-1.9-8.3-5.7-16.1-9.5-23.7-2 .5-4 1.4-5.6 2.7-4.9 3.2-10 6-15.4 8.5-3.6 1.7-10.5 2.8-12.8 6.3-2.2 3.4-.8 10.4-.6 14.1.5 6.4 1.1 12.8 2 19.2z"/><path class="st1" d="M210.1 696.7c.7 5.3 1.7 10.7 1.4 16-.4 7.5-3.1 14.7-3.6 22.2-.4 5.6.5 11.2-.3 16.8-.5 3.6-1.7 7-2.4 10.5-2.3 11.6.2 23.6 7 33.3.5.8 1.2 1.5 2 2 .8.3 1.7.4 2.5.3 8.4-.2 16.8-.9 25.2-2.3.6 0 1.2-.3 1.6-.7.2-.3.3-.6.4-1 1.5-7.9-2-15.9-2.9-23.9-1-8.6 1.1-17.2 3.1-25.6.9-4.1 2.1-8.2 3.5-12.2 1-2.7 2.2-5.3 3-8.1 1.2-4.3 2-8.7 2.2-13.2.6-7.1.9-14.1.9-21.2.2-6.7-.4-13.4-1.7-20-1.9-8.3-5.7-16.1-9.5-23.7-2 .5-4 1.4-5.6 2.7-4.9 3.2-10 6-15.4 8.5-3.6 1.7-10.5 2.8-12.8 6.3-2.2 3.4-.8 10.4-.6 14.1.5 6.4 1.1 12.8 2 19.2z"/><path class="st9" d="M183.1 585.5c-8-.8-14.2 6.9-11.8 14.5 1.6 5 4 9.8 6.3 14.5 12.1 24.4 20.5 50.4 28.9 76.3.6 1.9 1.3 4.1.6 6-.6 1.4-1.3 7.4-2.6 8.2-2.3 7.3 0 3.9-4.6 11.3-4.7 4.8-2.4 4.3-7.9 9.8-5 3.1-9.6 6.6-14.3 10.2l-11.9 12.6c-1 .6-4.5 5.8-5.2 6.7-1.4 2.2-4.1 6.7-1.1 9.3 3.1 6.4 2.9 4.9 9.1 11.4 1.6 1.5 2.9 1.8 4.1 2.6 2.3 1.2 8 7.8 9.8 5.8s2.2-2.9 4.3-4.3c2.5-.8 2.1-2.4 4.7-5.8s6.2-5.9 9.2-8.9c12.3-12 14.9-12.8 28.5-23.2.2-.2 3.7-3.4 3.9-3.6 1.7-1.5 1.4-3 3.3-4.3.3-.2 2.7-4.5 3.1-4.7 2.2-1.2 2.5-6 4.7-7.1 4.5-10.3 1.7-7.2 4.2-15s3.1-15.9 4.9-23.9c.9-4.1 2.1-8.2 2.5-12.3.3-3.9.2-7.8-.3-11.7l-4.9-60.7c-.1-1.4-.2-2.8-.3-4.1-.5-6-5.6-10.5-11.6-10.3-11.1.4-22.2.8-33.3.9-7.4.1-14.9.5-22.3-.2z"/><path class="st0" d="M165.6 597.2c2 3.2 6.8 3.1 10.1 1.4s5.9-4.7 9.2-6.4c4.5-2.3 9.7-2.2 14.8-2.1 8 .2 16 .5 23.7 2.6 7.9 2.3 15.6 6.6 23.8 5.7 1.4-.2 3-.6 3.8-1.8.5-.9.7-1.9.6-2.8l.3-7.2c.2-1.2 0-2.5-.6-3.6-.7-.9-1.6-1.7-2.7-2.1-11.7-5.6-25-6.7-37.9-7.1-6.6-.2-13.2-.3-19.8-.3-5.6 0-12.3-.8-17.7.7-7.3 2.1-11.3 17.1-7.6 23z"/><path class="st6" d="M238.8 409.7c-15.3-.1-29.1-10.2-44.4-10.5-1.8-.1-3.7.2-5.4.9-2.1 1.1-3.5 3.1-5.1 4.9-4.5 4.9-11.1 7.5-15.7 12.3-4.4 4.5-6.8 11.1-5.1 17.2s8.2 10.6 14.3 9.2c2.4-7.9 7.5-14.8 14.3-19.5 3.6-2.3 7.3-4.2 11.2-5.9 6.9-3.1 14.5-6.3 21.7-4 2.6 1 5.1 2.4 7.4 4l12 8c-1.4-5.4-2.6-11.5-5.2-16.6z"/><path class="st6" d="M175.6 438.4c-2 2.5 4.7 7.2 4.3 10.4-.3 2.1-2.1 3.8-2.8 5.8-.8 2.1-.4 4.4-.6 6.6-.3 1.6-.7 3.2-1.3 4.7-1.3 4.6-2.2 9.3-2.7 14l-2.7 20c-.5 3-.7 6-.8 9.1.1 2.3 0 4.6-.5 6.8-.6 2.2-.3 1.8-.8 5.5-.3 2.2-1.7 4.7-2.1 7.2-.3 6.7-1.8 6.7-2.4 14.2.5.7.9 1.4 1.2 2.3.2 1.1 0 2.3-.5 3.3l-1 4.3c-.7 1.8-2.1 4.9-.7 8-1.6 1.7-2.8 3.6-3.7 5.8-.8 2.2-.4 4.6 1 6.5.7.6 1.2 1.3 1.7 2.1.3 1.1.2 2.2-.2 3.2-.8 3.2-.3 6.6 1.5 9.3 1.8 2.8 1.3 3.2 4.6 2.6 5.4-1.2 10.3-3.1 15.7-2.1 11.7 2.2 23.5 4.3 34.9 8 13 4.1 25.6 10.2 39.1 11.5.9.2 1.8 0 2.6-.4.7-.7 1.1-1.5 1.2-2.5 1.4-6.6 1-13.2 2.4-19.7 1.7-7.3.7-13.7 1.5-21.1.5-4.8.4-10.8.5-15.6l-2.3-37.5c-.4-6.2-.4-13.4-1-19.1l.3-17.7c-3.5-11.3-11.7-21.4-14.6-32.9-1.8-7.3-3.2-15.1-8.1-20.8-7-8.1-19.1-9.4-29.8-8-4.8.6-9.6 1.7-13.8 4.2-4.8 2.9-8.3 7.4-11.8 11.8-2.5 3.6-5.4 6.6-8.3 10.2z"/><path class="st7" d="M200.4 550.8c.9 3.8 2.7 7.3 3.8 11 1.9 6.2 1.7 12.9 3.6 19.1.8 2.6 1.9 5.1 2.5 7.8 1.3 6.2-.6 12.6-3 18.5s-5.3 11.7-6.1 18c-.5 4.4.2 9.5 3.7 12.3 3.6 3 8.7 2.8 13.3 2.4 1.7 0 3.3-.4 4.8-1 3.5-1.7 5-5.9 5.9-9.7 2.8-12.8 2-26.1 1.2-39.2l-2.1-34.2c-.4-6.6-.8-13.3-2.9-19.6-.7-2.3-2-7-4.1-8.4-2.1-1.5-8-1.5-10.6-1.6-12.1-.7-11.9 16.2-10 24.6z"/><path d="M212.8 425.4c-2.5-1.3-5.6-.7-8 .7-2.3 1.6-4.3 3.5-6 5.8-5.3 6.5-11 14-10.2 22.4.3 3.1 1.5 6.1 2.3 9.2 3.6 13.4-.4 27.5.1 41.4.3 8 2 15.9 3.7 23.7.4 1.6.9 3.4 2.5 4 1.2.4 2.4-.1 3.6-.6 8.7-3.2 18.4-2 26 3.3 2.9-1.5 1.8-6.4 1.1-9.5-1.9-9.5.7-19.2 3.8-28.3s6.9-18.2 7.4-27.9c.6-10.9-3-21.6-6.6-31.9-.8-2.3-1.6-4.6-3.4-6.2-1.5-1.2-3.3-2-5.2-2.4-3.7-1.2-7.5-1.8-11.1-3.7z" fill="#319387"/><path class="st6" d="M213.8 424.4c-2.5-1.3-5.6-.7-8 .7-2.3 1.6-4.3 3.5-6 5.8-5.3 6.5-11 14-10.2 22.4.3 3.1 1.5 6.1 2.3 9.2 3.6 13.4-.4 27.5.1 41.4.3 8 2 15.9 3.7 23.7.4 1.6.9 3.4 2.5 4 1.2.4 2.4-.1 3.6-.6 8.7-3.2 18.4-2 26 3.3 2.9-1.5 1.8-6.4 1.1-9.5-1.9-9.5.7-19.2 3.8-28.3s6.9-18.2 7.4-27.9c.6-10.9-3-21.6-6.6-31.9-.8-2.3-1.6-4.6-3.4-6.2-1.5-1.2-3.3-2-5.2-2.4-3.7-1.2-7.5-1.8-11.1-3.7z"/><path class="st3" d="M1195.7 194.3H903.9c-1.2 0-2.3-1-2.3-2.3s1-2.3 2.3-2.3h291.8c1.2 0 2.3 1 2.3 2.3s-1 2.3-2.3 2.3zM994 219.1H833.6c-1 0-2-1-2-2.3s.9-2.3 2-2.3H994c1 0 2 1 2 2.3s-.9 2.3-2 2.3zm201.7.4h-185.5c-1.2 0-2.3-1-2.3-2.3s1-2.3 2.3-2.3h185.5c1.2 0 2.3 1 2.3 2.3s-1 2.3-2.3 2.3zm-201.3 24.3H834c-1 0-2-1-2-2.3s.9-2.3 2-2.3h160.4c1 0 2 1 2 2.3s-.9 2.3-2 2.3zm.4 24.8H834.4c-1 0-2-1-2-2.3s.9-2.3 2-2.3h160.4c1 0 2 1 2 2.3s-.9 2.3-2 2.3z"/><path class="st5" d="M1078.6 242h-53.1c-1.2 0-2.3-1-2.3-2.3s1-2.3 2.3-2.3h53.1c1.2 0 2.3 1 2.3 2.3s-1 2.3-2.3 2.3z"/><path class="st4" d="M1078.6 266.3h-53.1c-1.2 0-2.3-1-2.3-2.2s1-2.3 2.2-2.3h53.1c1.2 0 2.3 1 2.3 2.2s-.9 2.3-2.2 2.3c.1 0 0 0 0 0z"/><path class="st5" d="M1167.8 268.1h-53.1c-1.2 0-2.2-1-2.2-2.3 0-1.2 1-2.2 2.2-2.2h53.1c1.2 0 2.3 1 2.3 2.2s-1 2.3-2.3 2.3z"/><path class="st6" d="M859.8 194.3h-53.1c-1.2 0-2.3-1-2.3-2.3s1-2.3 2.3-2.3h53.1c1.2 0 2.3 1 2.3 2.3s-1.1 2.3-2.3 2.3z"/><path class="st3" d="M965.1 425.7H832.7c-.9 0-1.6-1-1.6-2.3 0-1.2.7-2.3 1.6-2.3H965c.9 0 1.6 1 1.6 2.3s-.7 2.3-1.5 2.3zm27.6-75.2H832.2c-1 0-2-1-2-2.3 0-1.2.9-2.3 2-2.3h160.5c1 0 2 1 2 2.3-.1 1.3-1 2.3-2 2.3zm.3 24.8H832.7c-1 0-2-1-2-2.3 0-1.2.9-2.3 2-2.3H993c1 0 2 1 2 2.3 0 1.2-.8 2.3-2 2.3z"/><path class="st4" d="M1071.7 350.9h-53.1c-1.2 0-2.3-1-2.3-2.3 0-1.2 1-2.3 2.3-2.3h53.1c1.2 0 2.3 1 2.3 2.3-.1 1.3-1.1 2.3-2.3 2.3z"/><path class="st5" d="M1071.7 375.3h-53.1c-1.2 0-2.3-1-2.3-2.3 0-1.2 1-2.3 2.3-2.3h53.1c1.2 0 2.3 1 2.3 2.3-.1 1.2-1.1 2.3-2.3 2.3zm89.1-24.4h-53.1c-1.2 0-2.3-1-2.3-2.3 0-1.2 1-2.3 2.3-2.3h53.1c1.2 0 2.3 1 2.3 2.3s-1 2.3-2.3 2.3z"/><path class="st3" d="M1195.9 325.7H904.2c-1.2 0-2.3-1-2.3-2.3 0-1.2 1-2.3 2.3-2.3H1196c1.2 0 2.3 1 2.3 2.3-.1 1.3-1.1 2.3-2.4 2.3z"/><path class="st6" d="M860 325.7h-53.1c-1.2 0-2.3-1-2.3-2.3 0-1.2 1-2.3 2.3-2.3H860c1.2 0 2.3 1 2.3 2.3s-1 2.3-2.3 2.3z"/><path class="st3" d="M1195.9 400.5H904.2c-1.2 0-2.3-1-2.3-2.3 0-1.2 1-2.3 2.3-2.3H1196c1.2 0 2.3 1 2.3 2.3-.1 1.3-1.1 2.3-2.4 2.3z"/><path class="st6" d="M860 400.5h-53.1c-1.2 0-2.3-1-2.3-2.3 0-1.2 1-2.3 2.3-2.3H860c1.2 0 2.3 1 2.3 2.3s-1 2.3-2.3 2.3zm0 50.4h-53.1c-1.2 0-2.3-1-2.3-2.3 0-1.2 1-2.3 2.3-2.3H860c1.2 0 2.3 1 2.3 2.3s-1 2.3-2.3 2.3z"/><path class="st3" d="M1036 450.9H903.6c-.9 0-1.6-1-1.6-2.3 0-1.2.7-2.3 1.6-2.3H1036c.9 0 1.6 1 1.6 2.3s-.7 2.3-1.6 2.3zm-40 30.8H835.5c-1 0-2-1-2-2.3 0-1.2.9-2.3 2-2.3H996c1 0 2 1 2 2.3-.1 1.3-1 2.3-2 2.3zm.3 24.8H835.9c-1 0-2-1-2-2.3 0-1.2.9-2.3 2-2.3h160.4c1 0 2 1 2 2.3 0 1.2-.9 2.3-2 2.3z"/><path class="st4" d="M1075 482.1h-53.1c-1.2 0-2.3-1-2.3-2.3 0-1.2 1-2.3 2.3-2.3h53.1c1.2 0 2.3 1 2.3 2.3-.1 1.3-1.1 2.3-2.3 2.3z"/><path class="st5" d="M1075 506.5h-53.1c-1.2 0-2.3-1-2.3-2.3 0-1.2 1-2.3 2.3-2.3h53.1c1.2 0 2.3 1 2.3 2.3-.1 1.2-1.1 2.3-2.3 2.3z"/><path d="M1164.1 482.1H1111c-1.2 0-2.3-1-2.3-2.3 0-1.2 1-2.3 2.3-2.3h53.1c1.2 0 2.3 1 2.3 2.3s-1 2.3-2.3 2.3z" fill="#5b58a6"/><path class="st6" d="M889.3 531.3h-53.1c-1.2 0-2.3-1-2.3-2.3 0-1.2 1-2.3 2.3-2.3h53.1c1.2 0 2.3 1 2.3 2.3s-1 2.3-2.3 2.3z"/><path class="st3" d="M1065.3 531.3H932.9c-.9 0-1.6-1-1.6-2.3 0-1.2.7-2.3 1.6-2.3h132.4c.9 0 1.6 1 1.6 2.3s-.7 2.3-1.6 2.3zm-55.1 23.3H868.1c-.9 0-1.8-1-1.8-2.3 0-1.2.8-2.3 1.8-2.3h142.1c.9 0 1.8 1 1.8 2.3-.1 1.3-.9 2.3-1.8 2.3z"/><path d="M1087.3 554.6h-53.1c-1.2 0-2.3-1-2.3-2.3 0-1.2 1-2.3 2.3-2.3h53.1c1.2 0 2.3 1 2.3 2.3-.1 1.3-1.1 2.3-2.3 2.3z" fill="#3d2a79"/><ellipse class="st4" cx="1165.3" cy="625" rx="59.3" ry="67.2"/><path class="st13" d="M1191.3 503.4l-89 2.7s-91.3 85.7-26.2 109c0 0 92.7 4 111.9-11-.1 0 23.9-94.6 3.3-100.7zm-4.1 25.4l-95.3 6.1s6.9-23.3 34.2-23.3c27.5 0 58.2-6.1 60.9 8.2 2.9 14.4.2 9 .2 9z"/><path class="st4" d="M1282.4 557.5l-117.1-4.2 27.5-115.7s109.6-8.2 106.9 19.9c-2.8 28.1-17.3 100-17.3 100z"/><path d="M1169.3 612.9s-70.5 12.5-95.8-24.5 95.9-17.2 95.9-17.2l10.3 28.1-10.4 13.6z" fill="#36334a"/><circle class="st4" cx="1148.1" cy="737.6" r="32.2"/><ellipse class="st13" cx="1151.3" cy="737.6" rx="20.2" ry="23.3"/><path class="st13" d="M1324.2 434.2s-26.7-15.1-28.1 20.6l-22.6 165.8h9.6l26-177.4s13 2.1 15.1 2.1c2.1-.1 0-11.1 0-11.1z"/><path class="st4" d="M1350.8 452.5c-1 3.4-4.5 5.4-7.9 4.5-.3-.1-.5-.2-.8-.3l-31-13.2 5.6-12.4 30.5 13.9c2.9 1.3 4.5 4.5 3.6 7.5z"/><path class="st13" d="M1162.6 608.9s-49.3-5.5-63 41.8-12.4 83.6-24 80.8c-11.6-2.7-36.3-12.4-36.3-12.4l2.1 14.4s43.2 21.9 50-1.4c6.9-23.3 10.9-108.9 50-106.9 39 2.1 45.9-2.1 45.9-2.1l-24.7-14.2zm-93.9-22.6s-38.4 4.8-53.5 32.9c-15.1 28.1-22.6 78.7-22.6 78.7h14.4s8.2-100.7 51.4-95.3l10.3-16.3z"/><path d="M1042.7 743.1l-60.9-37.6s-3.4-13.7 35.7-19.1c0 0 73.8 25.8 66.7 35.5-7.3 9.6-31.2 24.6-41.5 21.2z" fill="#303a54"/><path class="st16" d="M1155.9 526.6c1.9 2.1 36.4 34.9 36.4 34.9s-3.4 23-40.4 25.8l-61.6 4.7s-11.6 42.8-25.5 56.4c-13.9 13.7-7.4 14.4-12.7 21.1-5.2 6.7 2.1 8.4-5.8 9.1-7.9.7-24.2-8.9-24.4-16.3-.2-7.3 4.4-11.6 6.5-13.5s7.2-19.8 10.4-23.6c3.1-3.8 14.9-49.4 14.9-49.4s11.7-22.1 28-23.8 34.5-9.7 34.5-9.7"/><path class="st1" d="M1155.9 526.6c1.9 2.1 36.4 34.9 36.4 34.9s-3.4 23-40.4 25.8l-61.6 4.7s-11.6 42.8-25.5 56.4c-13.9 13.7-7.4 14.4-12.7 21.1-5.2 6.7 2.1 8.4-5.8 9.1-7.9.7-24.2-8.9-24.4-16.3-.2-7.3 4.4-11.6 6.5-13.5s7.2-19.8 10.4-23.6c3.1-3.8 14.9-49.4 14.9-49.4s11.7-22.1 28-23.8 34.5-9.7 34.5-9.7"/><path class="st17" d="M1096.1 416.9s-13-35.2-21.9-24c-8.9 11.3 14.3 29.6 14.3 29.6l7.6-5.6z"/><path class="st5" d="M1164.4 435.3l-7.3-3.2s-12.6 9.6-14.4 12.1c-.8 1 1.1-.8-4.3 4.6-4.2 4.2-19.9 9-21.8 10-2 1.1-23.8-37.6-18.6-43.2 0 0-9.8 3.5-14.2 2.2 0 0 11.2 53.9 12.8 61.2 1.6 7.3 5.7 8.2 13 8.4 7.3.2 52.2-12.9 52.2-12.9l2.6-39.2z"/><path class="st4" d="M1048.9 667.2s-.3 7.7.9 8.5c1.3.9 9.2 19.5-3 21.3-12.1 1.7-18.8-.5-21.8.4s-51.4-3.1-51.1-10.7 24.6-5.7 24.6-5.7 24.1-11.4 28.5-18.4c4.6-6.9 21.9 4.6 21.9 4.6z"/><path class="st1" d="M1048.9 667.2s-.3 7.7.9 8.5c1.3.9 9.2 19.5-3 21.3-12.1 1.7-18.8-.5-21.8.4s-51.4-3.1-51.1-10.7 24.6-5.7 24.6-5.7 24.1-11.4 28.5-18.4c4.6-6.9 21.9 4.6 21.9 4.6z"/><path class="st4" d="M1074 707.6s-7.3 32.2-12.8 31.8c-5.4-.3-43.6-18.9-48.3-22.6-6-4.7-5.8-13.1 1.1-11.4s26.5.2 29.9-3.4l8.5-9.1 21.6 14.7z"/><path class="st16" d="M1149.5 529c2 1.9 63.5 54 63.5 54s-1.7 23.1-38.4 28.7l-61.1 9.2s-8.5 43.4-21.3 58.1c-12.8 14.7-6.5 14.9-11.2 22-4.7 7 2.7 8.3-5.1 9.5-7.8 1.2-24.7-7.1-25.5-14.4-.8-7.3 3.6-11.9 5.5-13.9s5.8-20.3 8.6-24.3 11.3-50.4 11.3-50.4 10.1-22.9 26.2-25.8c16.1-3 33.6-12.1 33.6-12.1"/><circle class="st17" cx="1206.2" cy="386.8" r="29.2"/><path class="st17" d="M1221.4 405.1s-4.4 17.8 2.3 26.9c6.7 9.1-44.5 4.8-44.5 4.8s13.9-28.9 8.7-35.7c-5.1-6.6 33.5 4 33.5 4z"/><path class="st5" d="M1156 433.1c-6.2 6.6-4 43.9-4 43.9l3.9 33.2s-4.7 6-3.2 8.4 4 4.8-.8 5.9c-4.8 1.1-16.1 3-12.5 8.2 1.2 1.5 2.4 3 3.7 4.3 1.1 1.2 2.5 2.6 4 4.2 3.6 3.6 8.2 8.1 13.3 12.9 1.4 1.3 3 2.7 4.5 4 19.5 17.6 43.6 36.2 48.7 27.3 8.4-15 14.2-17.2 13.8-29.9-.4-12.8 10.4-45.5 10.4-45.5s12.6-55.9-5.1-72.5l-2.7-4.4c-2.6-4.3-7.7-6.2-12.5-5.1-8.6 2.1-21.9 4.9-27.6 4.5-8.9-.8-6.9-4.4-6.9-4.4s-20.9-1.6-27 5z"/><path class="st17" d="M1128.7 552.3s-36.1 9-30.7 21.5c5.2 12.6 36.5-10.4 36.5-10.4l-5.8-11.1z"/><path d="M1221.5 391.3c-.9-.7-.5-2.1-.1-3.1 2.2-5.7 1.1-12.7-3.5-16.6-1.8-1.4-3.9-2.5-6.2-2.9-3.1-.8-6.4-1.1-9.7-.7-1.7.4-3.4.4-5.1.2-1.1-.3-6.1-.8-7.3-1.1-2.5-.5-5.4.6-7.3-1-1.8-1.6-1.1-4.5-.3-6.8 2-5.1 8.7-10.5 13.6-12.8 3.7-1.8 8.2-1.6 12.2-.7 4.8 1.1 9.3 2.7 13.7 4.7 6 2.7 12 5.6 16.3 10.5 4.4 4.8 6.8 11.9 4.5 18-.5 1.2-1.1 2.5-1.5 3.8-1 3.1-.5 6.6-1 9.9-.7 4.9-3.5 9.2-7.6 12-3.2 2.1-7.5 3.5-8.9 7.1l-2.5-6.4c-.9-1.6-.6-3.6.8-4.9l4-5.4c.8-.9 1.4-2.1 1.5-3.3.2-4.7-4.1.7-5.6-.5z" fill="#1c1414"/><path class="st1" d="M1170.5 525.9l-23.4 15.3c4.6 4.7 10.9 10.7 17.7 17 6.5-3.5 13.1-7.3 19-11 21.7-13.9 40.2-48.9 48.6-65.7 8.3-16.8 1.5-30 1.5-30-5.5-2.4-11.4-4-17.3-4.9-10.6-1.7-46.1 79.3-46.1 79.3z"/><path class="st1" d="M1167.5 521.1l-24.4 16c1.1 1.2 2.5 2.6 4 4.2 3.6 3.6 8.2 8.1 13.3 12.9 6.9-3.7 14.1-7.8 20.3-11.8 21.7-13.9 40.2-48.9 48.6-65.7 8.3-17-14.1-10.8-14.1-10.8s11.6-5.2.8-6.9c-10.7-1.9-48.5 62.1-48.5 62.1z"/><path class="st5" d="M1233 448.5s6.8 13-1.5 30-26.9 51.8-48.6 65.7-52.7 27.6-52.7 27.6-3-16.1-7.9-17.9l47.1-30.8s35.3-81 46.2-79.5c6.1.7 11.9 2.4 17.4 4.9z"/><path class="st13" d="M1137.2 620.5v80.2h9v-81.6z"/><path class="st4" d="M1150.2 669.8s17.2 67.2 6.1 76.7c0 0-14.4-42.4-25.4-37l3.4-39.7h15.9z"/><path class="st13" d="M1283.6 523.9l-83.6 2.5s-73.9 72-12.9 93.9c0 0 75.3 12.2 93.2-2 .1.2 22.6-88.6 3.3-94.4zm-3.8 23.8l-89.5 5.7s6.5-21.9 32.1-21.9 54.6-5.7 57.2 7.7c2.8 13.7.2 8.5.2 8.5z"/><ellipse class="st4" cx="1262.8" cy="668.4" rx="89.4" ry="101.4"/><ellipse class="st13" cx="1267" cy="668.4" rx="67.5" ry="75.4"/><path class="st4" d="M1284.5 667.4c0-1.3-.1-2.6-.4-3.9l50.4-25.2-3.4-7.5-50.9 24.8c-.5-.5-1.1-1-1.6-1.4l14.9-74-13.1-.3-8.7 72.9.9.2c-.7.1-1.3.3-2 .7l-44.2-45.3-6.2 8.7 45.3 41.7c-1.1 2.2-1.9 4.6-2 7l-63.8 26-1.4 10.9 66.5-28c.7 1.5 1.5 3 2.6 4.2l-20.5 69.7h7.5l17.2-66.8c.8.2 1.5.3 2.4.3 1.5 0 3.1-.4 4.4-1.3l35.7 47.2 10.9-7.5-41.9-45.7c.9-2.3 1.4-4.9 1.4-7.4z"/><path class="st6" d="M1379.8 728.5c0 16.5-9.8 22.3-21.9 22.3h-.8c-.6 0-1.1 0-1.7-.1-10.9-.8-19.4-6.8-19.4-22.2 0-15.9 20.3-36 21.9-37.5l.1-.1s21.8 21.1 21.8 37.6z"/><path class="st5" d="M1357 748.3l8-11.2-8 12.4v1.3c-.6 0-1.1 0-1.7-.1l.9-16.5v-.1l.1-1.6-8.1-12.5 8.1 11.3v.3l.7-12.5-6.9-12.9 7 10.7.7-25.9v-.1.1l-.1 20.4 6.9-8.1-6.9 9.9-.2 11.2 6.4-10.7-6.4 12.4-.1 6.2 9.3-14.9-9.4 17.1-.3 13.8z"/></svg>