<svg id="_2cf41747-0c0c-4d70-aad4-093c093adad4" data-name="2cf41747-0c0c-4d70-aad4-093c093adad4" xmlns="http://www.w3.org/2000/svg" viewBox="0 0 811.09 798.33"><defs><linearGradient id="linear-gradient" x1="635.23" y1="268.69" x2="635.23" y2="770.57" gradientTransform="matrix(1 0 0 -1 -88.58 770.58)" gradientUnits="userSpaceOnUse"><stop offset="0" stop-color="gray" stop-opacity=".25"/><stop offset=".54" stop-color="gray" stop-opacity=".12"/><stop offset="1" stop-color="gray" stop-opacity=".1"/></linearGradient><style>.cls-1,.cls-7{fill:#33ded2}.cls-16,.cls-2{fill:#3d2a79}.cls-3{fill:#d5d6db}.cls-4,.cls-7{opacity:.1}.cls-4,.cls-5,.cls-7{isolation:isolate}.cls-5{fill:#fff;opacity:.3}.cls-9{fill:#be6f72}.cls-10{fill:#3e373a}.cls-11{fill:#4b4b5b}.cls-16{font-size:66.41px;font-family:Cairo-Regular,Cairo}.cls-19{letter-spacing:0}</style></defs><path class="cls-1" d="M435.45 690.5l-342.28-1.67-34.01-79.77 120.26-8.73-20.96-87.46 237.86-30.83-227.77-79.18 20.12-4.78 366.25 59.75-20.17 136.49-28.83 75.01-70.47 21.17z"/><path class="cls-1" d="M98.42 655.42s21-3.36 33.6 11.48c0 0-9.24 7.28-29.12-2.8zm-2.2-.33s-13.4 16.49-6.8 34.85c0 0 10.92-4.37 12.11-26.63zM84.18 628s8.4-15.41 42 6.16c0 0-4.48 10.36-19.32 9.52S88.1 636.1 84.18 628zM82 626.87s-17.43-2-19.12 37.9c0 0 11 2.29 18.9-10.33s4.64-19.7.22-27.57zM71.86 595s9.8-27.16 45.36-7.84c0 0-8.12 24.92-41.72 17.08zm-10.92-40.56s18.48-27.44 51.24-2c0 0-11.48 25.76-48.44 11.76zM57 515.8s21.56-25.21 54 0c0 0-20.44 22.12-54 6.44zm-3.34-37.53s21.84-26.32 52.92-1.4c0 0-24.64 23.24-52.92 7.56zM55.62 445s23-33.88 52.08-10.92c0 0-24.64 29.12-52.08 17.36zm5.32-39s24.36-33.6 52.64-7.84c0 0-28.84 29.12-52.64 14zm8.12-34.76s28.84-31.58 54-19c0 0-30 33.54-55.26 27.38zm10.08-32.98s33.28-38.68 52.64-25.76c0 0-24.52 30-55 33zM93.69 300s29.13-31.58 50.41-23.74c0 0-24.92 32.76-54.32 33.6zm13.17-35.77s32.2-30.24 46.2-24.92c0 0-23.24 33.6-47.6 31.64zm12.88-33.04s27.72-36.13 42.85-33.33c0 0-16.81 32.21-42.85 37zm13.98-44.55S158.22 159 171.46 159c0 0-19.34 37-38.75 36.66zM142 157l23.67-57.7s1.18 52.14-26.68 68.38zm9.61-63.63s3.92-48.17 1.4-52.09c0 0 16.92 40.05-1.56 73.37zM70.94 594.4s-24.54-15.21-40.43 22c0 0 21.84 14.5 43.32-12.51zm-10.79-41.51s-30.1-13.73-44.7 25.11c0 0 23.25 16 47.44-15.3zm-4.53-34.78s-21.56-25.21-54 0c0 0 20.44 22.12 54 6.44zm-2.7-39.84S31.08 452 0 476.87c0 0 24.64 23.24 52.92 7.56z"/><path class="cls-1" d="M55.62 445.91S40.3 408 7 424.28c0 0 18 33.65 47.26 27.93zm7.25-40.07s-15.23-38.61-49-20.71c0 0 20.68 35.39 47.5 26.67zm9.44-34.41s-6-42.33-34-46.12c0 0 5.94 44.64 30.23 53.75zm7.54-33.09s-2.34-51-25.49-52.78c0 0 .78 38.71 22.88 60zm16.24-39.76s-6.9-42.41-29-47.59c0 0 2.74 41.07 26.81 58zm13.39-34s-.23-44.18-13.73-50.67c0 0-8.37 40 9.82 56.31zm11.29-33.89s-1.89-45.49-15.87-51.9c0 0-4.78 36 13.78 54.88zm14.9-40.42s-.08-37-10.06-45.68c0 0-9.92 40.53 4.85 53.12z"/><path class="cls-1" d="M140.83 155.16l-9.71-61.58s-13.19 50.46 10.17 72.7zM142.72 94s-24.92-41.4-24.41-46c0 0 2.65 43.39 34 65zm2.92-12.28s-23.52-58.8-34.16-63.56c0 0 33.6 17.08 36.12 61.88z"/><path class="cls-2" d="M132.59 196l-1.61-.49c19.85-64.73 24.8-106 14-116.35l1.1-1.16c11.51 10.88 6.84 51.7-13.49 118z"/><path class="cls-2" d="M77.93 347.58l-2.38-.85c2.11-5.93 4.38-12 6.76-17.88C103 277.21 120.67 229.17 132 192.29l2.07-1c-11.33 37-28.66 86.83-49.4 138.54-2.39 5.82-4.67 11.81-6.74 17.75z"/><path class="cls-2" d="M128 703.86c-.32-.35-32.49-36.58-54.92-98.43a364.18 364.18 0 01-21.66-112.78C49.88 444.52 60 390.78 77.28 342l1.88 2.2c-38.84 109.57-23.41 203.46-2.94 260 22.19 61.29 54 97.12 54.31 97.48z"/><path class="cls-3" d="M630.73 626.94s-22.67 27.67-4.67 69.5l-181 78.5-17.37 3.64-8-35 5.31-44.17v-24.14z"/><path class="cls-1" d="M59.16 609.06l250.52-45.67 331.95 52.88-206.18 74.23-376.29-81.44z"/><path class="cls-1" d="M59.16 609.06l250.52-45.67 331.95 52.88-206.18 74.23-376.29-81.44z"/><path class="cls-1" d="M59.16 609.05s-23.43 44.39 3.57 85.39l371.5 80.5s-23.06-35.36 1.19-84.44z"/><path class="cls-4" d="M59.16 609.05s-23.43 44.39 3.57 85.39l371.5 80.5s-23.06-35.36 1.19-84.44zm11.07 15.39s-13.39 32.48 0 53.5"/><path class="cls-1" d="M434.23 774.94l207.4-88.5s11.6 2.5 4.1 11-207.5 86-207.5 86l-375.5-89z"/><path class="cls-4" d="M434.23 774.94l207.4-88.5s11.6 2.5 4.1 11-207.5 86-207.5 86l-375.5-89zm-17-75.5s-20 24 0 60"/><path class="cls-4" transform="rotate(-18.45 469.374 714.478)" d="M422.08 713.97h94.57v1h-94.57z"/><path class="cls-4" transform="rotate(-20.82 478.349 717)" d="M420.74 716.5h115.23v1H420.74z"/><path class="cls-4" transform="matrix(.93 -.38 .38 .93 -237.09 238.23)" d="M420.13 721.17h133.56v1H420.13z"/><path class="cls-4" transform="rotate(-24.31 496.61 723.69)" d="M419.75 723.18h153.74v1H419.75z"/><path class="cls-4" transform="rotate(-23.61 504.713 725.722)" d="M420.64 725.23h168.15v1H420.64z"/><path class="cls-4" transform="rotate(-23.36 522.365 726.361)" d="M421.75 725.85h201.22v1H421.75z"/><path class="cls-5" d="M152.23 613.94l176-37 107.22 20.5-144.22 46.5-139-30z"/><path class="cls-1" d="M641.63 616.27s9.1 3.67 3.76 9.34-210 64.89-210 64.89z"/><path class="cls-3" d="M730 530.76s-22.66 27.66-4.66 69.5l-181 78.5-17.34 3.66-8-35 5.43-44.16v-24.17z"/><path class="cls-2" d="M158.46 512.87l250.51-45.66 331.96 52.88-206.18 74.23-376.29-81.45z"/><path class="cls-2" d="M158.42 512.87S135 557.26 162 598.26l371.5 80.5s-23.05-35.39 1.23-84.45z"/><path class="cls-4" d="M158.42 512.87S135 557.26 162 598.26l371.5 80.5s-23.05-35.39 1.23-84.45l-117.5-25.43zm11.1 15.39s-13.38 32.47 0 53.5"/><path class="cls-2" d="M533.52 678.76l207.41-88.5s11.59 2.5 4.09 11-207.5 86-207.5 86l-375.5-89z"/><path class="cls-4" d="M533.52 678.76l207.41-88.5s11.59 2.5 4.09 11-207.5 86-207.5 86l-375.5-89zm-17-75.5s-20 24 0 60"/><path class="cls-4" transform="rotate(-18.45 568.665 618.305)" d="M521.37 617.8h94.57v1h-94.57z"/><path class="cls-4" transform="rotate(-20.82 577.665 620.821)" d="M520.05 620.33h115.23v1H520.05z"/><path class="cls-4" transform="rotate(-22.2 584.609 623.38)" d="M519.43 624.98h133.56v1H519.43z"/><path class="cls-4" transform="rotate(-24.31 595.937 627.49)" d="M519.06 626.99H672.8v1H519.06z"/><path class="cls-4" transform="rotate(-23.61 604.017 629.525)" d="M519.93 629.03h168.15v1H519.93z"/><path class="cls-4" transform="rotate(-23.36 621.65 630.141)" d="M521.05 629.65h201.22v1H521.05z"/><path style="isolation:isolate" opacity=".45" fill="#fff" d="M251.53 517.76l176-37 107.22 20.5-144.22 46.5-139-30z"/><path class="cls-2" d="M740.93 520.09s9.09 3.67 3.76 9.33-209.94 64.89-209.94 64.89z"/><path class="cls-3" d="M739.42 420.73s-22.67 49.67-4.67 91.5l-181 56.5-17.33 3.67-8-35 5.35-44.17v-24.17z"/><path class="cls-1" d="M167.89 402.85l250.52-45.67 331.96 52.88-206.19 74.23-376.29-81.44z"/><path class="cls-1" d="M167.89 402.84s-23.47 44.39 3.53 85.39l371.5 80.5s-23.06-35.39 1.22-84.44z"/><path class="cls-4" d="M167.89 402.84s-23.47 44.39 3.53 85.39l371.5 80.5s-23.06-35.39 1.22-84.44zM179 418.23s-13.39 32.48 0 53.5"/><path class="cls-1" d="M543 568.73l207.4-66.5s11.6 2.5 4.1 11-207.5 64-207.5 64l-375.5-89z"/><path class="cls-4" d="M543 568.73l207.4-66.5s11.6 2.5 4.1 11-207.5 64-207.5 64l-375.5-89zm-17-75.5s-20 24 0 60"/><path class="cls-4" transform="rotate(-18.45 578.1 508.265)" d="M530.82 507.77h94.57v1h-94.57z"/><path class="cls-4" transform="rotate(-20.82 587.101 510.804)" d="M529.48 510.3h115.23v1H529.48z"/><path class="cls-4" transform="rotate(-22.2 593.97 513.693)" d="M528.86 514.96h133.56v1H528.86z"/><path class="cls-4" transform="rotate(-24.31 605.375 517.468)" d="M528.5 516.96h153.74v1H528.5z"/><path class="cls-4" transform="rotate(-23.61 613.452 519.515)" d="M529.37 519.01h168.15v1H529.37z"/><path class="cls-4" transform="rotate(-23.36 631.098 520.142)" d="M530.49 519.64h201.22v1H530.49z"/><path class="cls-5" d="M260.96 407.73l176-37 107.22 20.5-144.22 46.5-139-30z"/><path class="cls-1" d="M750.36 410.06s9.1 3.67 3.76 9.34-209.94 64.89-209.94 64.89zM310.42 106.5s-38-2.29-33.56 24.37c0 0-.89 4.71 3.38 6.85 0 0 .07-2 3.9-1.31a17.41 17.41 0 004.14.2 8.65 8.65 0 005.05-2.08s10.69-4.42 14.85-21.9c0 0 3.08-3.81 3-4.79l-6.44 2.74s2.19 4.63.47 8.48c0 0-.21-8.31-1.45-8.12-.25 0-3.33 1.61-3.33 1.61s3.77 8.07.92 13.93c0 0 1.08-9.94-2.1-13.35l-4.52 2.64s4.41 8.33 1.42 15.13c0 0 .77-10.43-2.37-14.49l-4.1 3.2s4.15 8.21 1.62 13.85c0 0-.33-12.14-2.5-13.06 0 0-3.59 3.16-4.13 4.46 0 0 2.84 6 1.07 9.11 0 0-1.07-8.09-2-8.13 0 0-3.57 5.36-3.94 9a19.44 19.44 0 013.07-9.54 10.67 10.67 0 00-5.46 2.83s.55-3.79 6.35-4.12c0 0 2.95-4.07 3.74-4.31 0 0-5.77-.49-9.26 1.06 0 0 3.08-3.57 10.31-2l4-3.3s-7.58-1-10.8.11c0 0 3.71-3.16 11.89-.86l4.41-2.63s-6.47-1.39-10.32-.89c0 0 4.06-2.19 11.61.18l3.14-1.41s-4.73-.93-6.12-1.08-1.46-.53-1.46-.53a16.51 16.51 0 018.9 1s6.75-2.43 6.62-2.85z"/><path class="cls-7" d="M374.42 271.2s-16.56-34.33-37.64-17.41c0 0-4.55 1.52-4.33 6.29 0 0 1.75-.91 3 2.77a17.74 17.74 0 001.84 3.7 8.63 8.63 0 004.29 3.4s9.07 7.18 26.36 2.28c0 0 4.83.83 5.62.25l-5.56-4.27s-3 4.17-7.18 4.54c0 0 7.16-4.23 6.39-5.21-.16-.2-3-2.13-3-2.13s-5.21 7.23-11.71 7.6c0 0 9.2-3.9 10.62-8.35l-4.5-2.66s-5.13 7.92-12.52 8.62c0 0 9.48-4.41 11.49-9.13l-4.78-2s-5.15 7.62-11.31 8.17c0 0 10.44-6.21 10.18-8.56 0 0-4.51-1.58-5.91-1.43 0 0-3.82 5.39-7.42 5.39 0 0 6.53-4.89 6.13-5.68 0 0-6.42-.5-9.8 1a19.54 19.54 0 019.83-2 10.77 10.77 0 00-5.14-3.39s3.58-1.36 6.69 3.53c0 0 5 .59 5.59 1.16 0 0-2.39-5.26-5.44-7.55 0 0 4.62.93 6.73 8l4.85 1.92s-2.79-7.12-5.36-9.37c0 0 4.56 1.69 6.55 10l4.44 2.56s-1.93-6.33-4.25-9.44c0 0 3.89 2.48 5.5 10.22l2.77 2.06s-1.5-4.59-2-5.87-.25-1.54-.25-1.54a16.39 16.39 0 013.48 8.25s5.39 4.58 5.75 4.28zM758.2 167.58s-16.55-34.33-37.64-17.41c0 0-4.54 1.52-4.33 6.29 0 0 1.76-.9 3 2.77a17.61 17.61 0 001.85 3.71 8.53 8.53 0 004.28 3.39s9.08 7.18 26.36 2.29c0 0 4.83.82 5.63.24l-5.49-4.28s-3 4.18-7.17 4.55c0 0 7.15-4.24 6.38-5.22-.16-.2-3-2.13-3-2.13s-5.2 7.23-11.71 7.6c0 0 9.21-3.9 10.63-8.34l-4.57-2.64s-5.12 7.91-12.52 8.62c0 0 9.48-4.42 11.5-9.14l-4.79-2s-5.15 7.63-11.3 8.17c0 0 10.43-6.21 10.17-8.55 0 0-4.5-1.59-5.9-1.43 0 0-3.82 5.38-7.43 5.38 0 0 6.54-4.89 6.14-5.68 0 0-6.42-.5-9.81 1a19.54 19.54 0 019.83-2 10.67 10.67 0 00-5.13-3.39s3.58-1.36 6.69 3.53c0 0 5 .6 5.59 1.17 0 0-2.39-5.27-5.45-7.56 0 0 4.62.94 6.73 8l4.86 1.92s-2.79-7.13-5.36-9.38c0 0 4.56 1.69 6.54 10l4.45 2.56s-1.94-6.32-4.26-9.44c0 0 3.9 2.48 5.5 10.22l2.77 2.06s-1.49-4.59-2-5.87-.25-1.53-.25-1.53a16.41 16.41 0 013.47 8.25s5.43 4.59 5.74 4.27zm52.89 169.81s-16.55-34.34-37.67-17.39c0 0-4.54 1.52-4.33 6.29 0 0 1.76-.9 3 2.77a17.11 17.11 0 001.84 3.71 8.53 8.53 0 004.28 3.39s9.08 7.19 26.37 2.29c0 0 4.82.83 5.62.24l-5.52-4.27s-3 4.18-7.18 4.55c0 0 7.15-4.24 6.38-5.22-.16-.2-3-2.13-3-2.13s-5.2 7.23-11.71 7.61c0 0 9.21-3.91 10.63-8.35l-4.51-2.66s-5.12 7.92-12.52 8.62c0 0 9.48-4.42 11.5-9.14l-4.79-2s-5.15 7.62-11.3 8.17c0 0 10.44-6.21 10.18-8.56 0 0-4.51-1.59-5.91-1.43 0 0-3.82 5.38-7.43 5.38 0 0 6.54-4.89 6.14-5.68 0 0-6.42-.5-9.81 1a19.58 19.58 0 019.84-2 10.65 10.65 0 00-5.14-3.39s3.58-1.37 6.69 3.53c0 0 5 .59 5.59 1.16 0 0-2.39-5.26-5.44-7.56 0 0 4.62.94 6.73 8l4.85 1.92s-2.79-7.13-5.36-9.37c0 0 4.56 1.68 6.54 10l4.45 2.55s-1.94-6.32-4.26-9.44c0 0 3.9 2.48 5.51 10.23l2.77 2s-1.5-4.59-2-5.87-.25-1.53-.25-1.53a16.37 16.37 0 013.47 8.25s5.44 4.63 5.75 4.33z"/><ellipse class="cls-7" cx="201.95" cy="781.59" rx="22.99" ry="2.57"/><ellipse class="cls-7" cx="51.24" cy="737.91" rx="22.99" ry="2.57"/><ellipse class="cls-7" cx="714.22" cy="734.94" rx="22.99" ry="2.57"/><ellipse class="cls-7" cx="590.46" cy="793.66" rx="27.19" ry="4.67"/><path class="cls-1" d="M602.59 746.72s-37.86 19.56-18.3 42.6c0 0 1.84 5 7.16 4.65 0 0-1.06-1.94 3-3.49a19.79 19.79 0 004.09-2.17 9.65 9.65 0 003.66-4.89s7.74-10.36 1.74-29.53c0 0 .78-5.42.1-6.3l-4.6 6.31s4.75 3.19 5.3 7.88c0 0-5-7.87-6-7-.22.18-2.28 3.45-2.28 3.45s8.24 5.59 8.85 12.85c0 0-4.64-10.17-9.65-11.62l-2.87 5.12s9 5.48 10 13.72c0 0-5.23-10.45-10.57-12.56l-2.11 5.41s8.68 5.52 9.48 12.38c0 0-7.26-11.47-9.87-11.11 0 0-1.64 5.08-1.42 6.65 0 0 6.13 4.1 6.24 8.13 0 0-5.66-7.15-6.53-6.68 0 0-.36 7.19 1.38 10.93 0 0-3-5.34-2.51-10.93a12 12 0 00-3.63 5.84s-1.63-4 3.74-7.59c0 0 .51-5.59 1.13-6.28 0 0-5.81 2.84-8.28 6.32 0 0 .91-5.19 8.79-7.77l2-5.48s-7.88 3.34-10.31 6.28c0 0 1.75-5.15 10.93-7.62l2.72-5s-7 2.36-10.42 5c0 0 2.65-4.43 11.26-6.47l2.19-3.15s-5.08 1.81-6.5 2.46-1.7.33-1.7.33a18.36 18.36 0 019.11-4.14s5.03-6.19 4.68-6.53z"/><path d="M715 377.29c-6.54-17.77-42.54-19.44-58.16-14.91-11.1 3.23-34.5 6.87-47 8.7l-.81-.77c1.62-.48 1.66-1.66 1.46-3.41a53.25 53.25 0 01.1-6.92c7.66 2.38 14.48-3.25 14.48-3.25 9-4 6.58-21.12 8.3-25.8 1.29-3.5 2.68-24.12 3.3-34.4h.13l.07-3.45c.09-1.49.13-2.36.13-2.36s.88-25.14 2.6-30.23c1.6-4.68 2.9-28.26 3.1-32V228l-.13-2.18c.09-1.59.13-3.36.12-5.22 0-8.55-.89-19.32-1-21.06v-.91c.07-3.65-.39-21.93-15.94-28.84-5.73-2.56-12.62-5.61-19.29-8.58-1.72-14.85-5.65-29.62-5.31-44.58 0-2.25.2-4.5.42-6.74 0 .65-.07 1.31-.08 2v4.36c.59-18.71 7.66-37.52 7-55.83-.06 1.79-.19 3.59-.36 5.39a57.92 57.92 0 00-1.92-18.39c-.6-2.11-1.41-4.29-3.14-5.7a12.87 12.87 0 00-5.48-2.17 109.8 109.8 0 00-14.39-2.68 22.22 22.22 0 00-3.24-6.29c-10.14-13.92-25.16-27-42.92-30-8.91-1.5-19.16-.25-25.22 6.12A18.9 18.9 0 00510 8.5c-3.26 3.89-4.66 9-8 12.88-.22.26-.47.5-.71.75-6.54 5.85-16.73 7.07-24 12.32a28.86 28.86 0 00-3.59 3.13 60.68 60.68 0 00-7.84 9.53c-3.27 4.6-6.63 9.39-7.67 14.88-2.09 11 5.4 21.43 6.79 32.5 3.1 24.77-24.31 46.75-19.12 71.19a32.57 32.57 0 008.82 15.83c-10.69 9.68-19.79 19.07-19.79 19.07v.56h-1.69l.17 2h-.17l.93 10.85-.93 15.8v1.49h.06c.31 5.79 1.54 26.61 3 31 1.72 5.09 2.59 30.23 2.59 30.23s1.9 35.53 3.64 40.23-.73 21.77 8.3 25.8a19 19 0 009.07 3.76c-.46 3.74-.17 6.45 1.32 7.3a4.44 4.44 0 002.1.6 22.31 22.31 0 00-1.63 2.85 42 42 0 01-10.48-2.47c-9.7-4-41.89-13-51.24-6.67s-31.85 12.09-21.46 37.55 15.23 26.12 15.23 26.12a37 37 0 018.31 8.35c3.12 4.69 32.19 15.42 39.46 15.42a71.46 71.46 0 019.25.46s-7.89 6.92-6.84 10.94-2.4 36.2-2.4 36.2 8 8.06 11.42-2.51l.12.16c.64.87 4.1 4.8 10.61-.16a59.5 59.5 0 018.46-5.36l31.52-4.46a87.84 87.84 0 019.87-.07c5 .41 9.91-2.55 13-4.84 6.53 2.48 13.87 5.19 17.36 6.18 7.08 2 39.62 10.73 47.23 8a10.58 10.58 0 004.1-2.92l7.26.23-3.4.68s6.62.11 15.62.23l-.38.22 11.29-.1c16.52.15 35.08.2 37.52-.35 3.82-.85 23.67-.25 29.52 0h1.63S716 489.53 707 467.4c-6.92-17-28.19-21.94-37.63-23.3 2.66-.53 5-.94 6.47-1.18 6.59-1 19.39-7 20.43-9.05s11.77-8 14.54-11.39 10.72-27.42 4.19-45.19zM534.31 427l-1.07.35-.72.24-1.38 1.41c-1.1-.74-2.28-1.52-3.51-2.32 2.17.1 4.37.23 6.68.32zm95.31 28.18z" fill="url(#linear-gradient)"/><path class="cls-9" d="M598.07 321.58s15.3 40 24 36 6.34-21 8-25.66 3.5-40 3.5-40 .84-25 2.5-30.06c1.54-4.65 2.79-28.1 3-31.79v-.49l-1.65-29-9.34-2.33-21.66 8-3 17.13-1.17 6.69-.5 2.85z"/><path class="cls-4" d="M603.11 314.88s14.6 11.95 19 13 7.1 10.37 7.1 10.37"/><path class="cls-9" d="M478.42 323.33s-15.3 40-24 36-6.34-21-8-25.66-3.5-40-3.5-40-.84-25-2.5-30.06c-1.54-4.65-2.79-28.1-3-31.79v-.49l1.66-29 9.34-2.33 21.66 8 3 17.13 1.17 6.69.5 2.85z"/><path class="cls-10" d="M543.9 109.27h34.15v53.23H543.9z"/><path class="cls-4" d="M543.9 109.27h34.15v53.23H543.9z"/><path class="cls-11" d="M472.42 363.17s-11.67 12.83-7.34 15.16 32.34 46 32.34 46 92 11.33 109.35-5.67 17-47.37 17-47.37-13.94 3-15.46 1.37-9.87-9.49-9.87-9.49-118.02-7.17-126.02 0z"/><path d="M472.42 363.17s-11.67 12.83-7.34 15.16 32.34 46 32.34 46 92 11.33 109.35-5.67 17-47.37 17-47.37-13.94 3-15.46 1.37-9.87-9.49-9.87-9.49-118.02-7.17-126.02 0z" style="isolation:isolate" opacity=".02"/><path class="cls-9" d="M638 201l-30 24-9.07.66-3.33.24-55.89 4.1-58-4.24-8.63-.63-11-.8-23-22s16.28-17.44 30.54-29.21c5.62-4.65 10.93-8.41 14.8-9.89l.66-.23a16.43 16.43 0 006.34-4.42c11.26-11.61 21.67-40.26 21.67-40.26s49.67-25.66 43.67 8 22.33 25.34 22.33 25.34l9.34 4.26 3.69 1.69 9.41 4.31 21.23 9.74C639.42 179.33 638 201 638 201z"/><circle class="cls-4" cx="537.38" cy="101.06" r="44.67"/><path class="cls-4" d="M638.11 232.82H437.42v-.49l1.66-29s16.28-17.44 30.54-29.21l126-5 5.86-6.18 21.23 9.74C639.38 180.34 638 202 638 202s2.32 25.12.11 30.82z"/><path class="cls-2" d="M638.11 231.82H437.42v-.49l1.66-29s16.28-17.44 30.54-29.21l126-5 5.86-6.18 21.23 9.74C639.38 179.34 638 201 638 201s2.32 25.12.11 30.82z"/><path class="cls-4" d="M505.21 150.5s31.66 40.34 73.83-.83 4.67 91.83 4.67 91.83l-91 10.8z"/><path class="cls-2" d="M505.21 152.5s31.66 40.34 73.83-.83 4.67 91.83 4.67 91.83l-91 10.8z"/><path class="cls-4" d="M592.07 159.58l3.35 51.09 3.59 17 2.74 13s7 100 5 105 1 9 1.42 11.66-.42 9.34-.09 12.34 0 4.33-7.66 3.26-18.34-2.93-18.34-2.93-27 2-36.33-1.33-27-3.34-27-3.34-26.67.67-35.33-.33-13.34 10.67-19 7.33 6.66-35.66 10.66-45-5.33-33-5.33-33l12-66.57 2.67-15.09v-47.44l.66-.23a16.43 16.43 0 006.34-4.42l3 47.74 94 3.34v-53.73"/><path class="cls-2" d="M592.07 157.58l3.35 51.09 3.59 17 2.74 13s7 100 5 105 1 9 1.42 11.66-.42 9.34-.09 12.34 0 4.33-7.66 3.26-18.34-2.93-18.34-2.93-27 2-36.33-1.33-27-3.34-27-3.34-26.67.67-35.33-.33-13.34 10.67-19 7.33 6.66-35.66 10.66-45-5.33-33-5.33-33l12-66.57 2.67-15.09v-47.44l.66-.23a16.43 16.43 0 006.34-4.42l3 47.74 94 3.34v-53.73"/><path class="cls-4" d="M602.88 51c-.57-2.09-1.36-4.26-3-5.66a12.39 12.39 0 00-5.28-2.16 103.93 103.93 0 00-13.88-2.66 22.27 22.27 0 00-3-6.23c-9.8-13.84-24.3-26.89-41.36-29.84-8.93-1.55-19.28-.16-25 6.88-3.14 3.87-4.49 9-7.66 12.8-6.11 7.38-17.14 8.29-24.84 14-4.11 3-7.09 7.35-10 11.57-3.15 4.57-6.39 9.33-7.39 14.79-2 10.91 5.21 21.31 6.54 32.32 3 24.63-23.4 46.48-18.41 70.78 2.91 14.17 16 24.15 29.54 29.21 4.77 1.79 10.22 3.57 12.45 8.15 1 2 1.17 4.31 2.11 6.33 3.16 6.74 13.55 7 19.13 2.09s7.34-12.85 8-20.26c2.68-32.36-10.28-64.33-8.77-96.77.45-9.81 3.21-20.94 12-25.38 11.83-6 26.06 4 39.08 2.09a77.53 77.53 0 013.74 47.31c-2.07 8.63-5.65 17-5.91 25.9-.39 13.55 6.92 25.93 13.24 37.91a20.13 20.13 0 012.67 7.31 17.63 17.63 0 01-1.43 7.65c-3.57 9.61-9.73 18.53-10.43 28.76a4.62 4.62 0 00.75 3.42 4.23 4.23 0 002.58 1.16c10.8 1.85 20.14-7.72 25.41-17.33a81.15 81.15 0 0010-34.52c1.09-20.36-6.21-40.39-5.76-60.77.54-23.21 11-46.54 4.88-68.85z"/><path class="cls-10" d="M603.88 50c-.57-2.09-1.36-4.26-3-5.66a12.39 12.39 0 00-5.28-2.16 103.93 103.93 0 00-13.88-2.66 22.27 22.27 0 00-3-6.23c-9.8-13.84-24.3-26.89-41.36-29.84-8.93-1.55-19.28-.16-25 6.88-3.14 3.87-4.49 9-7.66 12.8-6.11 7.38-17.14 8.29-24.84 14-4.11 3-7.09 7.35-10 11.57-3.15 4.57-6.39 9.33-7.39 14.79-2 10.91 5.21 21.31 6.54 32.32 3 24.63-23.4 46.48-18.41 70.78 2.91 14.17 16 24.15 29.54 29.21 4.77 1.79 10.22 3.57 12.45 8.15 1 2 1.17 4.31 2.11 6.33 3.16 6.74 13.55 7 19.13 2.09s7.34-12.85 8-20.26c2.68-32.36-10.28-64.33-8.77-96.77.45-9.81 3.21-20.94 12-25.38 11.83-6 26.06 4 39.08 2.09a77.53 77.53 0 013.74 47.31c-2.07 8.63-5.65 17-5.91 25.9-.39 13.55 6.92 25.93 13.24 37.91a20.13 20.13 0 012.67 7.31 17.63 17.63 0 01-1.43 7.65c-3.57 9.61-9.73 18.53-10.43 28.76a4.62 4.62 0 00.75 3.42 4.23 4.23 0 002.58 1.16c10.8 1.85 20.14-7.72 25.41-17.33a81.15 81.15 0 0010-34.52c1.09-20.36-6.21-40.39-5.76-60.77.54-23.21 11-46.54 4.88-68.85z"/><path fill="#c3c7d9" d="M581.79 492.73l39.67 1.27-5.69-29.42-30.39 2.89-3.59 25.26z"/><path class="cls-11" d="M704.71 423c-2.67 3.33-13 9.33-14 11.33s-13.33 8-19.67 9-26.33 5.34-30 7.67c-2.63 1.68-23.74 7-37.61 9.95A107.42 107.42 0 01592 463c-6 .33-71.66-22-71.66-22L533 428l.7-.24c3.58-1.21 20.12-6.8 29.3-9.46 10.34-3 22.34-15.33 22.34-15.33s17.66-6 20-6.67-6-23.33-6-23.33 38.33-5.32 53.33-9.83 49.67-2.84 56 14.83-1.25 41.7-3.96 45.03z"/><path class="cls-2" d="M530 479.33s-7.66 8-15.33 7.34-34.49 2-34.49 2a54 54 0 00-13.51 7.83c-6.27 4.94-9.6 1-10.22.16l-.11-.16c-3.34 10.51-11 2.5-11 2.5s3.33-32 2.31-36 6.59-10.87 6.59-10.87l9-2.29 22.8-5.84 32.67 11.33z"/><path class="cls-4" d="M463.24 449.84l-6.75 46.82-.11-.16c-3.34 10.51-11 2.5-11 2.5s3.33-32 2.31-36 6.59-10.87 6.59-10.87zm47.18-133.18s17.66 6 33 0M570.71 328s7.33 3.66 13 0m-13 8.68s12.29 1.65 14.67-1.68m-18.67 20.33s23.16-3 28.91-7m-99.62 0s13 7.33 22.67 7M603.42 461a107.42 107.42 0 01-11.42 2c-6 .33-71.66-22-71.66-22L533 428l.7-.24c2 1.41 3.64 2.62 4.81 3.54 5.51 4.34 10.83-1.33 12.83-1.33s19.36 14.33 19.36 14.33 16 3.67 18.67 7 12 2.67 13.66 5c.5.7.56 2.49.39 4.7z"/><path class="cls-11" d="M480.22 374.33s-16.18.93-25.51-3-40.33-13-49.33-6.63-30.67 12-20.67 37.34 14.67 26 14.67 26a36 36 0 018 8.3c3 4.67 31 15.33 38 15.33s19.33 0 36.66 12S515 477 515 477s22 9 28.85 11 38.15 10.66 45.49 8 12-19.34 12-19.34 3.33-15 1.66-17.33-11-1.67-13.66-5-18.67-7-18.67-7S553.42 433 551.42 433s-7.32 5.66-12.83 1.33a293.3 293.3 0 00-34.51-22c-12.66-6.67-23.86-38-23.86-38z"/><path class="cls-4" d="M447.69 384a19.12 19.12 0 0116.39 4.33c8 6.67 34.92 20.06 34.92 20.06m148.71-24.81S612 389 605.38 396.31"/><path class="cls-2" d="M688.71 494h-1.57c-5.64-.2-24.75-.8-28.43 0-4.33 1-61.67 0-61.67 0l11.21-2.33s-4.16-14.58-1.52-15.79c0 0-15-9.88-3.69-16.55s23.5-3.86 23.5-3.86l28.39-9.62 5.45-1.85s32 1.67 40.66 23.67S688.71 494 688.71 494z"/><path class="cls-4" d="M688.71 494h-1.57c9.31-7.68 30.37-31.06-32.21-48.1l5.45-1.85s32 1.67 40.66 23.67S688.71 494 688.71 494z"/><circle class="cls-11" cx="629.88" cy="466.33" r="1.75"/><circle class="cls-11" cx="619.71" cy="469.22" r="1.75"/><path d="M570.16 99.41a77.56 77.56 0 00-5.74-32.14c-13 1.94-27.24-8.09-39.08-2.09-8.76 4.44-11.51 15.57-12 25.38-.12 2.59-.14 5.18-.09 7.77 0-.92 0-1.85.09-2.77.46-9.81 3.21-20.94 12-25.38 11.84-6 26.06 4 39.08 2.09a77.38 77.38 0 015.74 27.14zm-100.74-1.83a33.24 33.24 0 00-.13-6.54c-1.06-8.8-5.87-17.21-6.74-25.79C461.43 75.6 468 85.54 469.29 96a6.25 6.25 0 01.13 1.58zm52.69 89.74c-.62 7.42-2.37 15.35-8 20.27s-16 4.65-19.13-2.09c-1-2-1.15-4.33-2.12-6.33-2.22-4.58-7.68-6.36-12.45-8.15-13.55-5.07-26.62-15-29.53-29.21a30.2 30.2 0 01-.53-3.9 31.28 31.28 0 00.53 8.9c2.91 14.17 16 24.14 29.53 29.21 4.77 1.79 10.23 3.57 12.45 8.15 1 2 1.17 4.31 2.12 6.33 3.15 6.74 13.54 7 19.13 2.09s7.33-12.85 8-20.27a115 115 0 00.31-11.74c0 2.27-.13 4.51-.31 6.74zm77.24-73.25v4.33c.56-18.6 7.38-37.3 6.71-55.51-.52 16.84-6.33 34.11-6.71 51.18zm-21.46 75.24a12.87 12.87 0 00.23-3.61 20 20 0 00-2.67-7.31c-5.78-11-12.37-22.26-13.15-34.47 0 .52-.07 1-.08 1.56-.4 13.54 6.91 25.93 13.23 37.91a24.48 24.48 0 012.44 5.92zm27.21-14.47a81.34 81.34 0 01-10.1 34.52c-5.28 9.61-14.61 19.18-25.42 17.33a4.24 4.24 0 01-2.58-1.17 2.58 2.58 0 01-.47-.78c-.12.78-.22 1.57-.28 2.37a4.58 4.58 0 00.75 3.41 4.24 4.24 0 002.58 1.17c10.81 1.85 20.14-7.72 25.42-17.33a81.34 81.34 0 0010.09-34.52c.12-2.34.13-4.67.06-7-.01.67-.01 1.33-.05 2z" opacity=".1"/><path d="M606.73 475.88s25.27 10.62 42-12.88m-37.02 31.44s20.67-13.44 47-.44m-185.36-2.61s8.68-19.58 31.86-4.65" style="isolation:isolate" fill="none" stroke="#000" stroke-miterlimit="10" opacity=".1"/><path class="cls-4" d="M445.21 201.83l17.7-16s68.63-4.5 71.47 18.83c0 0 24.33-27.66 75.5-21.5l21.65 17.24-59.84 26.26-58.15 20.17-42.83-19.17z"/><path class="cls-3" d="M445.21 202.83l17.7-16s68.63-4.5 71.47 18.83c0 0 24.33-27.66 75.5-21.5l21.65 17.24-59.84 26.26-58.15 20.17-42.83-19.17z"/><path class="cls-4" d="M437.38 204.83l7.83 93.67 83 4.17-3.6-93.27-.07-1.57-87.16-3z"/><path class="cls-1" d="M437.38 202.83l7.83 93.67 83 4.17-3.6-93.27-.07-1.57-87.16-3z"/><path class="cls-4" d="M635.33 202.83l-85.62 12.84v94.09l83.67-12.09 1.95-94.84z"/><path class="cls-1" d="M635.33 200.83l-85.62 12.84v94.09l83.67-12.09 1.95-94.84z"/><path class="cls-5" d="M615.14 223.79l-46.25 5.14 1.01 15.76 45.21-4.94.03-15.96z"/><path class="cls-9" d="M449.71 346.66l4.71 12.67s7 6 14.66 3 14.34-4.49 17.67-7.41 8-17.59 8-17.59 4.67-16 9.33-20 17-59.11 0-53.72-30 55.39-30 55.39-3 3.66-7.33 4-13-.67-14.67 3-7.37 13.33-2.37 20.66z"/><path class="cls-4" d="M549.71 215.66a28.81 28.81 0 01-25.11-6.26l3.61 93.26s8.5 9.2 21.5 7.1z"/><path class="cls-1" d="M549.71 213.66a28.81 28.81 0 01-25.11-6.26l3.61 93.26s8.5 9.2 21.5 7.1z"/><path class="cls-4" d="M549.71 213.66a28.81 28.81 0 01-25.11-6.26l3.61 93.26s8.5 9.2 21.5 7.1zm2-10.51s34.83-10.65 43.91-9.15m-82.87 4.5s-33.76-8-39.4-5.73m100.32 11.71s23.33-8.54 31.71-4.48m-43.44 218.71a76.32 76.32 0 0111.48-7.13c6-2.89 17-10.39 17-10.39m-117.07-84.53s-14.61 11.95-19 13-7.1 10.37-7.1 10.37"/><path class="cls-9" d="M626.74 344.88l-4.66 12.7s-7 6-14.67 3-14.33-4.49-17.67-7.41-8-17.59-8-17.59-4.66-16-9.33-20-17-59.11 0-53.72 30 55.39 30 55.39 3 3.66 7.33 4 13-.67 14.67 3 7.33 13.33 2.33 20.63z"/><path class="cls-4" d="M618.57 321.52s9.55 6.14 9.51 13.48"/><circle class="cls-9" cx="537.54" cy="98.87" r="44.67"/><path class="cls-10" d="M509.49 86.88c5.42-.85 10.17-4 15.35-5.81 11.59-4.07 24.41-1.28 36.16 2.39 4.5 1.41 9.07 3 13.79 3s9.73-1.93 12.14-6c2.22-3.74 1.79-8.6-.08-12.53s-5-7.09-8.16-10.07c-10.4-9.82-23.3-19-37.57-18-5.74.41-11.23 2.46-16.51 4.73a182 182 0 00-19.38 9.76c-4.81 2.79-13.72 6.52-16.49 11.62-6.32 11.49 10.95 22.45 20.75 20.91z"/><path class="cls-4" d="M586.91 76.26c-2.41 4.07-7.42 6-12.14 6s-9.29-1.53-13.8-2.94c-11.73-3.67-24.54-6.47-36.14-2.39-5.17 1.81-9.93 5-15.35 5.8-7.9 1.24-20.62-5.64-22-14.39-1.55 10.11 13.2 18.77 22 17.39 5.42-.85 10.18-4 15.35-5.8 11.6-4.08 24.41-1.28 36.14 2.39 4.51 1.41 9.07 3 13.8 2.94s9.73-1.92 12.14-6a11.72 11.72 0 001.4-7.31 10.78 10.78 0 01-1.4 4.31z"/><text class="cls-16" transform="matrix(.99 .21 -.05 1 232.73 484.29)">Ass<tspan x="101.34" y="0" letter-spacing="0">e</tspan><tspan x="134.68" y="0">ts</tspan></text><text transform="matrix(.99 .21 -.05 1 213.19 589.8)" letter-spacing="0" font-size="66.41" font-family="Cairo-Regular,Cairo" fill="#fff">H<tspan class="cls-19" x="44.5" y="0">ol</tspan><tspan x="94.9" y="0">oL</tspan><tspan class="cls-19" x="161.11" y="0">ens</tspan></text><text class="cls-16" transform="matrix(.99 .21 -.05 1 112.56 684.6)">Scri<tspan x="102.47" y="0" letter-spacing="0">p</tspan><tspan x="137.27" y="0">ting</tspan></text></svg>