<svg version="1.1" id="e4e5ac1e-f7c3-49db-bea6-73c2d2e1dfe0" xmlns="http://www.w3.org/2000/svg" x="0" y="0" viewBox="0 0 1000 600" xml:space="preserve"><style>.st0{fill:#d1d8db}.st1{fill:#fff}.st2{fill:#33ded2}.st3{fill:#667c8a}.st4{fill:#5c39bc}.st6{fill:#ffceb3}.st7{fill:#2f2e41}.st8{fill:#b3bec4}.st9{fill:#2a314c}.st10{opacity:.1;enable-background:new}</style><path class="st0" d="M100.9 11.9h798.6v511.5H100.9z"/><path class="st1" d="M123.7 76h752.9v417.1H123.7z"/><path class="st2" d="M100.5 11.4h798.6v33.9H100.5z"/><path class="st0" d="M663.6 115.1H418.5c-1.2-.2-2-1.3-1.9-2.4.1-1 .9-1.7 1.9-1.9h245.1c1.2.2 2 1.3 1.9 2.4-.2 1-.9 1.8-1.9 1.9z"/><path class="st3" d="M493.7 138.8H337.9c-1.2-.2-2-1.3-1.9-2.4.1-1 .9-1.7 1.9-1.9h155.9c1.2.2 2 1.3 1.9 2.4-.2 1-1 1.8-2 1.9z"/><path class="st0" d="M663.6 139.2H507.7c-1.2-.2-2-1.3-1.9-2.4.1-1 .9-1.7 1.9-1.9h155.9c1.2.2 2 1.3 1.9 2.4-.2 1.1-.9 1.8-1.9 1.9zm-169.5 23.3H338.3c-1.2-.2-2-1.3-1.9-2.4.1-1 .9-1.7 1.9-1.9h155.9c1.2.2 2 1.3 1.9 2.4-.2 1-1 1.8-2 1.9zm.4 23.8H338.6c-1.2-.2-2-1.3-1.9-2.4.1-1 .9-1.7 1.9-1.9h155.9c1.2.2 2 1.3 1.9 2.4-.2 1-.9 1.7-1.9 1.9zm70.7-23.8h-44.6c-1.2-.2-2-1.3-1.9-2.4.1-1 .9-1.7 1.9-1.9h44.6c1.2.2 2 1.3 1.9 2.4-.1 1-.9 1.8-1.9 1.9z"/><path class="st3" d="M565.2 185.8h-44.6c-1.2-.2-2-1.3-1.9-2.4.1-1 .9-1.7 1.9-1.9h44.6c1.2.2 2 1.3 1.9 2.4-.1 1-.9 1.8-1.9 1.9z"/><path class="st0" d="M640.1 185.8h-44.6c-1.2-.2-2-1.3-1.9-2.4.1-1 .9-1.7 1.9-1.9h44.6c1.2.2 2 1.3 1.9 2.4-.1 1-.9 1.8-1.9 1.9z"/><path class="st4" d="M381.4 115.1h-44.6c-1.2-.2-2-1.3-1.9-2.4.1-1 .9-1.7 1.9-1.9h44.6c1.2.2 2 1.3 1.9 2.4-.2 1-.9 1.8-1.9 1.9z"/><path class="st0" d="M493.2 387.2H337.3c-1.2-.2-2-1.3-1.9-2.4.1-1 .9-1.7 1.9-1.9h155.9c1.2.2 2 1.3 1.9 2.4-.2 1-1 1.7-1.9 1.9z"/><path class="st3" d="M492.4 434.6H336.6c-1.2-.2-2-1.3-1.9-2.4.1-1 .9-1.7 1.9-1.9h155.9c1.2.2 2 1.3 1.9 2.4-.2 1-1 1.8-2 1.9z"/><path class="st0" d="M492.8 458.3H336.9c-1.2-.2-2-1.3-1.9-2.4.1-1 .9-1.7 1.9-1.9h155.9c1.2.2 2 1.3 1.9 2.4-.2 1-.9 1.8-1.9 1.9zm66.6-23.3h-44.6c-1.2-.2-2-1.3-1.9-2.4.1-1 .9-1.7 1.9-1.9h44.6c1.2.2 2 1.3 1.9 2.4-.2 1-1 1.8-1.9 1.9z"/><path class="st3" d="M559.4 458.3h-44.6c-1.2-.2-2-1.3-1.9-2.4.1-1 .9-1.7 1.9-1.9h44.6c1.2.2 2 1.3 1.9 2.4-.2 1-1 1.8-1.9 1.9z"/><path class="st0" d="M634.3 435h-44.6c-1.2-.2-2-1.3-1.9-2.4.1-1 .9-1.7 1.9-1.9h44.6c1.2.2 2 1.3 1.9 2.4-.2 1-.9 1.8-1.9 1.9zm29.5-24.1H418.6c-1.2-.2-2-1.3-1.9-2.4.1-1 .9-1.7 1.9-1.9h245.1c1.2.2 2 1.3 1.9 2.4-.1 1-.8 1.8-1.8 1.9z"/><path class="st4" d="M381.6 410.9H337c-1.2-.2-2-1.3-1.9-2.4.1-1 .9-1.7 1.9-1.9h44.6c1.2.2 2 1.3 1.9 2.4-.2 1-.9 1.8-1.9 1.9z"/><path d="M455.5 224.6L395 284.4l60.5 59.7 13.7-13.6-45.8-45.7 46.1-46.2zm89.3 0l60.5 59.8-60.5 59.7-13.6-13.6 45.8-45.7-46.2-46.2z" fill="#e6e6e6"/><path class="st2" d="M455.5 224.6L395 284.4l60.5 59.7 13.7-13.6-45.8-45.7 46.1-46.2zm89.3 0l60.5 59.8-60.5 59.7-13.6-13.6 45.8-45.7-46.2-46.2z"/><path class="st6" d="M190.8 275.2s17 26.9 10.9 34.3 45.5 7.6 45.5 7.6-7.7-39.2-5.5-48.4l-50.9 6.5z"/><circle class="st7" cx="217.9" cy="231.7" r="53.4"/><path class="st6" d="M343.5 521v31.6l31.6-6.6-2.6-22.4zm112 5.2l88.4 14.5-22.4 32.9s-61.9-21.1-77.8-21.1c-15.9 0 11.8-26.3 11.8-26.3z"/><path class="st8" d="M255.1 463s65.8-76.4 87-72.5 30.2 27.7 30.2 27.7l11.8 117.4s-42.2 3.9-42.2 0-7.9-88.4-7.9-88.4-61.9 137-95 46.2l16.1-30.4z"/><path class="st8" d="M148.5 514.4s1.3 69 40.8 73.1 83-29.5 83-29.5l71.2-34s84.4 44.6 109.5 32.8c0 0 26.3-27.7 9.3-35.6-17-7.9-1.3 0-1.3 0l-101.4-52.8s-19.8-5.2-54 9.3-80.3 21.1-80.3 21.1l-76.8 15.6z"/><circle class="st6" cx="214.3" cy="249.4" r="39.5"/><path class="st4" d="M271 360.1l-2.7 55.3s1.3 72.5-10.6 77.8c-6 2.7-18.1 8-29.1 13.9-8.3 4.4-16.2 9-20.6 13.1-1.1.9-2.2 2.2-3 3.5-5.2 9.3-39.5 7.9-47.4 1.3s-2.7 7.9-9.3 10.6c-6.5 2.5-15.3-18.3-9.8-49.6.2-1.1.3-2 .6-3.2 6-30.2-3.5-102.7-2-130.7.2-2.2.3-4.3.6-6.5 3.9-21.1 54.3-64 63.8-45.7 11.7 22.5 38.3 1.9 42.8-8.3 26.3-1.3 35.6 30.2 35.6 30.2l-8.9 38.3zm106.8 180.6s-21.1 7.9-27.7 6.6c-6.6-1.3-13.2 3.9-13.2 11.8s-7.9 26.3 3.9 27.7 60.6-1.3 71.2 2.7c0 0 47.4 1.3 43.5-18.4s-23.8-18.4-23.8-18.4-53.9-2.7-53.9-12zm154.2 4.1s2.7-7.9 6.6-7.9 35.6 5.2 39.5 3.9 50.1-3.9 42.2 18.4c-7.9 22.4-34.3 25-34.3 25s-47.4-5.2-54-3.9-30.2 0-26.3-6.6c4-6.6 29-18.5 26.3-28.9z"/><path class="st9" d="M412 355.4l7.2 29.8c.2.3 0 .6 0 .9l-32.8 102.6c-.3.9-1.4 1.6-2.4 1.3-.6-.2-1.3-.8-1.3-1.6l-4.6-40c0-.3 0-.5.2-.8l30.1-92.5c.3-.9 1.4-1.6 2.4-1.3.6.3 1 1 1.2 1.6z"/><path class="st1" d="M409.3 357.9l6.8 25.5-29 93.5-6.8-28.9z"/><path class="st9" d="M263.6 497c1.1 3.3 115.8-1.1 116.9-2.2.9-1.4 1.7-2.8 2.5-4.4 1.1-2.2 2-4.4 2-4.4l-4.4-36.1-113.6-4.1s-2.8 30.6-3.5 44.6c-.2 2.1-.2 4.4.1 6.6z"/><path class="st10" d="M366 454.7l2.2 31.1h-50.1v-31.1zm-64.6 10l.3-.1-1.4 13.4h-27.9v-13.3zM263.6 497c1.1 3.3 115.8-1.1 116.9-2.2.9-1.4 1.7-2.8 2.5-4.4H263.6c-.3 2.1-.3 4.4 0 6.6z"/><circle class="st7" cx="226.8" cy="173.3" r="14.8"/><path class="st7" d="M222.3 189.5s-15.1 25.2-50.6 34.8c-35.3 9.5-.3 62.5-.3 62.5s-12.8-19.4 5.7-39.7 48.1-34.4 45.2-57.6z"/><path class="st10" d="M228.6 507.1c-3.3 6.1-7.1 12.6-7.7 15.1-.5 1.7-5.2.8-12.9-2-15.3-5.8-41.6-18.9-66.3-32.1-1.1-.6-2.2-1.3-3.2-2 .2-1.1.3-2 .6-3.2 6-30.2-3.5-102.7-2-130.7l11.2-3.8 22.4 21.1v89.6s58 31.7 61.9 34.3c2.2 1.3-.6 7.4-4 13.7z"/><path class="st6" d="M277.6 435.3l35.6 18.4s21.1-22.4 34.3-5.2c13.2 17.2-38.3 22.4-38.3 22.4s-44.9-10.6-46.2-25 14.6-10.6 14.6-10.6zm-59.4 48.8l21.1 5.2s23.8-29 48.8-18.4-31.7 31.7-31.7 31.7-30.2 15.8-42.2 2.7c-11.9-13.2 4-21.2 4-21.2z"/><path class="st4" d="M264.4 310c1.3 1.3 15.8 11.8 15.8 11.8s3.9 50.1-1.3 60.6c-5.2 10.6-9.3 10.6-5.2 15.8s9.3 1.3 3.9 10.6c-5.4 9.3-10.6 7.9-6.6 11.8 3.9 3.9 2.7 5.2 2.7 5.2l15.8 13.2s-9.8 15.4-22.1 14.3c-12.3-1.1-22.8-60.5-22.8-60.5l19.8-82.8zm-115.9 31.7l-10.2 1.8c-4 9.3-33.1 80.7 3.9 132.1 19 26.3 58.7 52 78.8 40.2 9.4-5.6 20.4-23.2 11.8-29-3.9-2.7-61.9-34.3-61.9-34.3v-89.6l-22.4-21.2z"/><path class="st10" d="M166.3 389.7l-2.7 63.4 69.8 32.9-64.6-32.9z"/><path class="st3" d="M56 588.1h888v2.2H56z"/></svg>