<svg version="1.1" id="be32c85c-9388-4a2b-a4e5-271574a5b9b2" xmlns="http://www.w3.org/2000/svg" x="0" y="0" viewBox="0 0 1000 600" xml:space="preserve"><style>.st0{fill:#d1d8db}.st2{fill:#33ded2}.st5{fill:#2a314c}.st8{opacity:.1;enable-background:new}.st9{fill:#b77a62}</style><ellipse class="st0" cx="181.3" cy="577.4" rx="112.3" ry="20.1"/><path class="st0" d="M229.4 58.3H1000v431.8H229.4z"/><path fill="#fff" d="M251.4 112.5h726.5v352.1H251.4z"/><path class="st2" d="M229.1 57.9h770.6v28.6H229.1z"/><path class="st0" d="M276.9 138.8h186.7v313.8H276.9z"/><path fill="#89e5dc" d="M474.3 138.8H756v223.8H474.3z"/><path class="st0" d="M474.2 371.4h281.7v81.2H474.2z"/><path fill="#9d89e5" d="M766.5 138.8h186.7v313.8H766.5z"/><path class="st5" d="M652.1 181.3l-2.1-.5 45.1-155.5H897v2.1H696.7z"/><path class="st5" d="M918.3 48.8c-12.4 0-22.4-10-22.4-22.4S905.9 4 918.3 4s22.4 10 22.4 22.4c0 12.3-10 22.4-22.4 22.4zm0-42.7c-11.2 0-20.3 9.1-20.3 20.3s9.1 20.3 20.3 20.3 20.3-9.1 20.3-20.3c0-11.2-9.1-20.3-20.3-20.3z"/><circle class="st2" cx="918.3" cy="26.4" r="8.5"/><path class="st5" d="M782 520.8H520.9v-2.1h259.5L825 364.8l2 .6z"/><path class="st5" d="M499.6 542.2c-12.4 0-22.4-10-22.4-22.4 0-12.4 10-22.4 22.4-22.4s22.4 10 22.4 22.4c0 12.3-10 22.4-22.4 22.4zm0-42.7c-11.2 0-20.3 9.1-20.3 20.3 0 11.2 9.1 20.3 20.3 20.3 11.2 0 20.3-9.1 20.3-20.3 0-11.2-9.1-20.3-20.3-20.3z"/><circle cx="499.6" cy="519.8" r="8.5" fill="#5c39bc"/><path class="st5" d="M106 440.2c-8.7 21.8-1.4 58.1 2.1 74.2 2.2 11.7 3.5 23.5 3.9 35.4 9.3 2 18.9 2.2 28.2.6l-5.2-33.3c5.7-19.3 3.2-71.7 3.2-71.7s11.8-19.6 14.2-50.4c2.2-30.2 10.2-39.7 10.4-39.9 15 8.7 30.7 95.4 30.7 95.4-2.5 20.8-2.1 52.8 3.6 70.4 3.4 11.2 4.5 22.9 3.2 34.4 2.5 1.9 5.6 2.7 8.6 2.1 9.2-1.1 20.5-8.5 20.5-8.5s.7-93.6-1.7-97.4c-2.4-3.7 1.1-23.7 1.1-23.7l-2.7-32.8s3.1-55.3-2.5-65.3c-4.8-8.6-5.5-23.1-5.5-27v-1l-8.7-11.6s-89.4-10.8-96.4-4.4c-1.7 1.6-2.9 5.3-3.7 9.9-2.5 14.4-1.5 38.3-1.5 38.3s1.9 17.8 5 35.8c1.9 10.8 1.4 22-1.5 32.7.6 13.2-1.1 25.9-5.3 37.8z"/><path class="st2" d="M105.2 582.1c3.7 5.5 27.4 4.2 31.5 2.9 2.5-.9 2.5-5.5 2.1-10.3-.2-3-.7-6.1-.9-8.5-.4-5.8 2.7-17.4 2.7-17.4s-5.6 5.3-6.6-.2c-.5-2.2-2.2-4-4.4-4.6-2.7-1-5.7-.9-8.3.1-4.2 1.6-11.3 5.1-10.4 10.4 1.4 7.5-5.3 17.7-5.3 17.7-2.5 2.9-2.6 7-.4 9.9z"/><path class="st8" d="M105.2 582.1c3.7 5.5 27.4 4.2 31.5 2.9 2.5-.9 2.5-5.5 2.1-10.3-2.6 1.1-7 1.9-13.9.9-1.6-.2-3.4-.4-5-.4-5.1 0-10.2-.4-15.3-1-1.4 2.5-1.1 5.5.6 7.9zm88.2-131.6c-2.5 20.8-2.1 52.8 3.6 70.4 3.4 11.2 4.5 22.9 3.2 34.4 2.5 1.9 5.6 2.7 8.6 2.1-1.4-13.6-7-72.1-10.2-118.4-2.4-32-12.7-62.9-30.1-89.9l-5.8 6c15 8.8 30.7 95.4 30.7 95.4z"/><path class="st9" d="M139 109.3l1.2 19.7 14.1 34.8 24.5-6.8s35.9-29.1 17-36.7c-2.3-.8-4.3-2.2-6.1-3.9-3-3.3-4.3-7.8-3.5-12.3.8-4.7 2.6-9.3 5.1-13.3l-38.5-18.6c.9 5.6 1.1 11.4.6 17.1-1.3 11.3-6.1 16.3-9.9 18.4-1.3.7-2.9 1.3-4.5 1.6z"/><path class="st8" d="M152.9 72.1c1 5.6 1.2 11.4.6 17 .6 1.1 1.3 2 2 2.8 5.2 6.6 12.7 10.9 21 12.1 3.5.5 6.8.4 10.3-.1.8-4.7 2.6-9.2 5.1-13.3l-39-18.5z"/><path class="st9" d="M149 66.2c-2.6 17.9 10 34.4 27.8 37s34.4-10 37-27.8c2.6-17.9-10-34.4-27.8-37-17.7-2.6-34.3 9.7-36.8 27.5-.2.1-.2.2-.2.3z"/><path class="st8" d="M136 110.7l3.1 19.4 17.7 33.1 24.1-9.1s33.6-32.2 13.7-37.9c-2.4-.6-4.6-1.7-6.6-3.2 3.2 10.1-12.8 30.3-12.8 30.3-1.9 2.5-5.8.7-5.8.7-9.6-1.9-26.2-30.6-28.8-35.3-1.4.9-2.9 1.7-4.6 2zm-26.9 185.4c5.6 1.5 36.8 9.9 48.7 8.7 13.2-1.4 38.8-1.5 38.8-1.5s16.2 1.6 21.3-.5v-1l-8.7-11.6s-89.4-10.8-96.4-4.4c-1.7 2-2.9 5.7-3.7 10.3z"/><path class="st2" d="M175.1 144.3s17.9-22.6 11.9-32.1l28 12.9s17.3-1.4 22.3 24.6c.7 4.4 1 8.7.5 13.1-.5 6.8.9 13.6 3.9 19.6 6.5 14.4 3.4 46.6-11.2 49.2-14.5 2.6-19.6.7-19.6.7s-.6 58.7 7.3 65.8c8 7.1-21.5 4.2-21.5 4.2s-25.6.1-38.8 1.5-49.6-9-49.6-9 6.6-24.4 9.2-40c2.6-15.7 8.6-48.9 8.6-48.9l-30.7-45.8s-4.6-27 16.2-37.9 28.5-13.6 28.5-13.6 18.8 33.9 29.3 36.1c-.2.2 3.8 2.1 5.7-.4z"/><path class="st8" d="M212.1 155.3s-.1 10.6-2.2 14.7-10.2 26.9-10.2 26.9l16 .7s-8.2-9.7-7.3-14.2 3.7-28.1 3.7-28.1z"/><path class="st9" d="M161.2 232.8s35.8-7.1 39.4-14.3 13.4-23.3 13.4-23.3l-3.5-5.2-17.9 12.7s-21.3 15.4-31 16.5c-9.5 1.2-.4 13.6-.4 13.6z"/><path d="M161.2 232.8s35.8-7.1 39.4-14.3 13.4-23.3 13.4-23.3l-3.5-5.2-17.9 12.7s-21.3 15.4-31 16.5c-9.5 1.2-.4 13.6-.4 13.6z" opacity=".05"/><path class="st9" d="M132.4 189.8l-.9 19.1 3.1.1c15.3.7 30.1 5.2 43 13.2l5.6 3.5 1.5 1 10.9-21.9-9-8.7h-.5c-2.2.1-12.2.5-16.3-1.1s-8.6-6-20.4-3.6c-5.8 1.2-10.9 7.5-16.4 5.2l-.6-6.8z"/><path class="st8" d="M103.1 153.5l-6.7 7-.8 17.5s3 55.3 20 62.2c17 6.8 48.4-1.4 48.4-1.4s9-20.8 5.2-22.3c-3.7-1.5-32.6-10.4-32.6-10.4s1.9-32.3-4.1-42.1c0 0 5.5-30-8.8-31.2s-20.6 20.7-20.6 20.7z"/><path class="st2" d="M102.1 153.5l-6.7 7-.8 17.5s3 55.3 20 62.2c17 6.8 48.2-1.4 48.2-1.4s9-20.8 5.2-22.3c-3.6-1.5-32.6-10.4-32.6-10.4s1.9-32.3-4.1-42.1c0 0 5.5-30-8.8-31.2s-20.4 20.7-20.4 20.7z"/><path class="st8" d="M155.9 81.3c.1-2.1.5-4.2 1.6-6.1s3.3-2.8 5.5-2.2c2.7 1 3.3 4.7 5.8 5.9 2.3.8 4.9 0 6.2-2.2 1.2-2 1.9-4.3 2-6.8.4-2.6.8-5.3 1.1-7.9.4-2.6.9-6 3-8 2.6-2.5 8-3 11.5-2.4 2.3.3 4.3 1.5 5.8 3.4 1.4 2 3.8 3.1 6.2 3.2 2.3 0 4.2-1.3 5.2-3.3v-.1C201 39.2 181 33.6 165.2 42.3 149.5 51 143.9 71 152.6 86.8c.9 1.5 1.8 2.9 2.8 4.3.1-3.2.2-6.6.5-9.8z"/><path d="M204.9 57.3c2.3 0 4.2-1.3 5.2-3.3.3-1 .4-2.1.9-3 1.1-2.4 3.9-3.4 6-4.9 4.1-3.4 4.8-9.5 2.9-14.5-1.5-4-4.9-7.6-9.3-7.5-2.6.1-5.2 1.6-7.8 1.4-2.5-.5-4.8-1.7-6.8-3.3-5.2-3.2-11.3-4.7-17.4-4-1.9.1-3.7.6-5.2 1.8-1.1 1-2.1 2.1-3.1 3.2-3.6 3.4-8.9 3.4-13.7 3.6-4.9.2-10.5 1.3-12.7 5.7-1.4 2.9-.8 6.3-.8 9.4.1.6 0 1.4-.4 2-.9 1.2-2.7.4-4 .5-2.8.2-4 3.5-4.3 6.2-.5 3.1-1.1 6.3-1.6 9.3-.8 2.9-.1 6 1.8 8.3l8.7 14.1c3.9 6.2 7.8 13.5 5.9 20.5 2 1.3 4.9-.3 6-2.4.8-2.3 1.1-4.8.7-7.2-.2-4.1-.2-8.4.1-12.6.1-2.1.5-4.2 1.6-6.1s3.4-2.8 5.5-2.2c2.7 1 3.3 4.7 5.8 5.9 2.3.8 4.9 0 6.2-2.2 1.2-2 1.9-4.3 2-6.8l1.1-7.9c.4-2.8.9-5.9 3-8 2.6-2.5 8-3 11.5-2.4 2.3.3 4.3 1.5 5.8 3.4 1.6 1.8 3.9 3 6.4 3z" fill="#261500"/><path class="st8" d="M184.8 153.3L173 194c0-.1-8-.4 11.8-40.7zm-34-8.5s12.2 22.1 6 44.1l-2.5.1s5-10.1-3.5-44.2zM137 266.2s-15.9-6.1-17.7 6.2c.1 0 3.6-8.4 17.7-6.2zm49.8-69s2.2 22.5-4 31.3c9 3.6 18.4 5.3 28.1 5.1l3.6-35.2-27.7-1.2z"/><path class="st8" d="M183.3 225.9l1.5 1 10.9-21.9-9-8.7h-.5c.3.9 1.9 20.3-2.9 29.6z"/><path class="st2" d="M186.9 196.2s2.2 22.5-4 31.3c9 3.6 18.4 5.3 28.1 5.1l12.8-34.7-36.9-1.7zm9.7 376.2c.5 3.2 3.1 5.8 6.5 6.1 8.7 1 29.8 3.6 35.2 6 6.8 3 33.3-.2 34.6-3.5.4-1.2.1-2.7-.6-3.9-1-2-2.5-3.5-4.5-4.5-.6-.4-1.4-.6-2-.7-5.1-1.5-14.7-4.7-17.3-8.3 0 0-12.2-9.9-15.7-15.4-1.4-2.2-3.7-3.6-6.3-3.6-2.9 0-6 1.5-7 7.7 0 0-15 9.3-19.5 1.7 0 0-.2 11.8-2.7 15.2-.7 1-1 2.1-.7 3.2z"/><path class="st8" d="M196.6 572.4c.5 3.2 3.1 5.8 6.5 6.1 8.7 1 29.8 3.6 35.2 6 6.8 3 33.3-.2 34.6-3.5.4-1.2.1-2.7-.6-3.9-1-2-2.5-3.5-4.5-4.5-4.2 3-13.7 6.2-35.1 3.6-20.3-2.5-30.5-5.2-35.3-7.1-.8 1.1-1.1 2.2-.8 3.3z"/><path d="M143.3 42.2c-.3-2.5-.3-5 .1-7.5-.1 2-.1 4 .1 6-.1.4-.1 1-.2 1.5zm14.2 32.2c-.6 1.1-1.1 2.3-1.3 3.5 0-1.7.6-3.4 1.5-5 1.1-1.9 3.4-2.8 5.5-2.2 2.7 1 3.3 4.7 5.8 5.9 2.3.8 4.9 0 6.2-2.2 1.2-2 1.9-4.3 2-6.8.4-2.6.8-5.3 1.1-7.9.4-2.6.9-6 3-8 2.6-2.5 8-3 11.5-2.4 2.3.3 4.3 1.5 5.8 3.4 1.4 2 3.8 3.1 6.2 3.2 2.3 0 4.2-1.3 5.2-3.3.3-1 .4-2.1.9-3 1.1-2.4 3.9-3.4 6-4.9 1.9-1.6 3.2-3.8 3.6-6.3-.2 3-1.6 5.8-3.9 7.8-2 1.7-4.9 2.5-6 4.9-.5 1-.6 2.1-.9 3-.9 2-2.9 3.2-5.2 3.3-2.5-.1-4.7-1.3-6.2-3.2-1.5-1.8-3.6-3.1-5.8-3.4-3.4-.6-8.9-.1-11.5 2.4-2.1 2.1-2.6 5.1-3 8s-.8 5.3-1.1 7.9c-.1 2.4-.8 4.7-2 6.8-1.3 2.1-3.9 3-6.2 2.2-2.5-1.2-3.3-4.9-5.8-5.9-2-.6-4.2.3-5.4 2.2zm-24.8-12.3c.3 1.7 1.1 3.3 2.1 4.7l8.7 14.1c3.7 6 7.5 12.7 6.1 19.4.6-6.2-2.9-12.5-6.4-18l-8.7-14.1c-1.9-2.3-2.6-5.4-1.8-8.3-.1.8-.1 1.5 0 2.2zM155.5 99c.3-.5.5-1.1.5-1.7-.1 1.1-.3 2.1-.8 3-1.1 2.1-4 3.7-6 2.4.2-.5.2-.9.3-1.3 2.4 1 5-.2 6-2.4z" opacity=".1"/><path class="st8" d="M234.9 551s-3.1 6.1-15.4 1.2m-84.4-1.1s-11.1 11.8-23.9 2.9m0-151.1s7.2 5 7.3 7.6-3.7-2.1-3.7-2.1l-3.6-5.5zm-4.6 35.3c2.5 2.2 5.6 3.6 9 4 5.5.5 4.7 7.7 1.2 5.3-3.6-2.8-7-5.9-10.2-9.3zm-1.6 4.5s2.7 17.5 5.8 14.4"/><path class="st2" d="M162.9 81.7c-.9-.6-1.2-1.7-.6-2.7.6-.9 1.7-1.2 2.7-.6.1.1.2.1.3.3-.2-.6-.5-1.2-1.1-1.5-1.2-.7-2.8-.4-3.6.8-.7 1.2-.4 2.8.8 3.6.6.4 1.2.5 1.8.3-.1-.1-.2-.2-.3-.2z"/><path class="st2" d="M165.6 72.7c-.4-.9-1.3-1.6-1.7-1.9-1.2-.9-2.5-1.1-3.1-1.2.1.1.4.5.5.9.2.6.1 1.3.1 1.5h.9s.2 0 .4.2c.1 0 .4.2.6.3.6.4 1 .8 1.2 1.5.2.6-.7 3.1-1.2 3.1l.1.1c-.1.2 1.1.5 1.2.2 1-1.8 1.7-3.1 1-4.7zM161 72c.3-1.3-.4-2-.8-2.4-2.4.1-4.4.3-6.6 3.7-2.3 3.6-2.6 5.9-2.5 6.6-.1.9 1.2 1.7 2.2 2 1 .2 2.3 0 2.6-1.4 1.3-3.8 2-7.4 5.1-8.5zm3.8 6.6c.7.4 1 1.5.5 2.2-.4.7-1.5 1-2.2.5-.7-.4-1-1.5-.5-2.2.4-.8 1.5-.9 2.2-.5z"/><path class="st2" d="M152.6 75.7c-.5.1-1 .3-1.3.9-.3.7-.3 1.5.3 1.9.1-.9.5-1.7 1-2.8zm1.4-2.5c.6-.9 1.2-1.8 2-2.4-.8-.3-1.6.1-2.1.8-.3.7-.1 1.2.1 1.6z"/></svg>