<svg version="1.1" id="e7d62c2c-c7a6-4c77-8f5c-a3fe0c7ac473" xmlns="http://www.w3.org/2000/svg" x="0" y="0" viewBox="0 0 1000 600" xml:space="preserve"><style>.st0,.st3{opacity:.1;fill:#33ded2;enable-background:new}.st3{opacity:.5;fill:#667c8a}.st4{fill:none;stroke:#2a314c;stroke-width:2;stroke-miterlimit:10}.st5{fill:#5c39bc}.st10,.st7{enable-background:new}.st7{opacity:.1}.st10{fill:#33ded2}.st14{opacity:.1}.st47{fill:#efb7b9}.st48,.st51,.st52{fill:#33ded2}.st51,.st52{opacity:.5;enable-background:new}.st52{opacity:.8}</style><path class="st0" d="M580.8 89.8c-62-1.7-120.9-17.5-177.3-34.7S291.4 18.7 230.8 9.6c-38.9-5.9-83.4-6.7-114.7 9.7C86 35.1 76.2 62.5 71 87.8c-3.9 19.1-6.2 39.2 4.6 57 7.5 12.4 20.8 22.8 30 34.7 32.1 41.3 9.4 92.3-25.3 132.7-16.2 18.9-35.2 37-47.8 57.1s-18.4 43.2-7.4 63.8c10.9 20.4 36.9 35.7 65 46.4 57.2 21.9 124.4 28.1 190.1 31.7 145.4 7.8 291.5 4.4 437.1 1 54-1.3 108.1-2.5 161.2-9.1 29.4-3.7 59.8-9.5 81.2-23.5 27.1-17.8 33.8-47.9 15.7-70.2-30.5-37.4-114.8-46.7-136.2-86.8-11.8-22.1.3-46.7 17.4-67.2 36.6-43.9 98-82.5 101.1-132.7 2.3-34.5-27.2-69-72.9-85.4-47.8-17.1-114.1-15-149.3 13.4-36.2 29.4-100.1 40.6-154.7 39.1z"/><path d="M33.7 91.8h227.9v227.9H33.7zm704.7 0h227.9v227.9H738.4z" fill="#b3bec4"/><path d="M193.1 151.5H447v253.9H193.1zm358.6 0h253.9v253.9H551.7z" fill="#d1d8db"/><path class="st3" d="M56.5 132.3h84.8v9.4H56.5zm722.9 0h84.8v9.4h-84.8z"/><path class="st4" d="M645 527s21.3-37.8 53.5-48.8c13.5-4.5 25.2-13.2 33.3-24.9 3.8-5.6 7.1-11.5 9.8-17.7"/><path class="st5" d="M762.1 428.5c-3.6 3.5-20.8 7.2-20.8 7.2s4.2-16.9 7.9-20.5c3.6-3.6 9.5-3.5 13.1.2 3.5 3.8 3.4 9.6-.2 13.1zm-9.7 30.7c-5 1-21.3-5.2-21.3-5.2s12.8-12 17.7-13c5.1-.9 9.8 2.5 10.7 7.6.9 4.9-2.3 9.6-7.1 10.6zm-35.1 33.2c-4.9-1.7-15.8-15.2-15.8-15.2s17-4 21.9-2.3 7.3 6.9 5.8 11.7c-1.9 4.9-7.2 7.5-11.9 5.8zM685 511.6c-5.1-.9-18.2-12.4-18.2-12.4s16.1-6.7 21.2-5.9c5.1.8 8.5 5.5 7.7 10.6s-5.5 8.5-10.6 7.7h-.1zm31.8-70.8c0 5.1 9.3 20 9.3 20s9.3-14.8 9.3-19.9-4.2-9.3-9.3-9.3-9.3 4.2-9.3 9.2zm-37.4 22.8c1.6 4.9 14.8 16.3 14.8 16.3s4.4-16.9 2.8-21.8-6.7-7.6-11.6-6.1c-4.8 1.6-7.5 6.8-6 11.6zm-50-28.5c.6 4.5 10.5 16.4 10.5 16.4s6.4-14.1 5.8-18.6c-.6-4.5-4.7-7.6-9.2-7-4.6.6-7.7 4.7-7.1 9.2z"/><path d="M762.1 428.5c-3.6 3.5-20.8 7.2-20.8 7.2s4.2-16.9 7.9-20.5c3.6-3.6 9.5-3.5 13.1.2 3.5 3.8 3.4 9.6-.2 13.1zm-9.7 30.7c-5 1-21.3-5.2-21.3-5.2s12.8-12 17.7-13c5.1-.9 9.8 2.5 10.7 7.6.9 4.9-2.3 9.6-7.1 10.6zm-35.1 33.2c-4.9-1.7-15.8-15.2-15.8-15.2s17-4 21.9-2.3 7.3 6.9 5.8 11.7c-1.9 4.9-7.2 7.5-11.9 5.8zM685 511.6c-5.1-.9-18.2-12.4-18.2-12.4s16.1-6.7 21.2-5.9c5.1.8 8.5 5.5 7.7 10.6s-5.5 8.5-10.6 7.7h-.1zm31.8-70.8c0 5.1 9.3 20 9.3 20s9.3-14.8 9.3-19.9-4.2-9.3-9.3-9.3-9.3 4.2-9.3 9.2zm-37.4 22.8c1.6 4.9 14.8 16.3 14.8 16.3s4.4-16.9 2.8-21.8-6.7-7.6-11.6-6.1c-4.8 1.6-7.5 6.8-6 11.6zm-50-28.5c.6 4.5 10.5 16.4 10.5 16.4s6.4-14.1 5.8-18.6c-.6-4.5-4.7-7.6-9.2-7-4.6.6-7.7 4.7-7.1 9.2z" opacity=".25"/><path class="st4" d="M646.3 526.2s4.2-43.2 29.2-66.3c10.5-9.6 17.7-22.3 20.4-36.3 1.2-6.7 1.8-13.4 1.8-20.2"/><path class="st5" d="M713.4 388.9c-1.9 4.7-16 15-16 15s-3-17.2-1.1-21.9c1.9-4.7 7.3-7 12.1-5.1s6.8 7.3 5 12zm3.5 32c-4.2 2.9-21.6 4-21.6 4s6.8-16.1 10.9-19.1c4.3-2.8 10-1.6 12.9 2.6 2.7 4 1.8 9.5-2.2 12.5zm-18.6 44.6c-5.1.5-20.7-7.6-20.7-7.6s14-10.5 19.1-10.8c5.1-.6 9.6 3.2 10.2 8.2.6 5.1-3.2 9.6-8.2 10.2h-.4zM676.5 496c-5 1.2-21.6-4-21.6-4s12.1-12.6 16.9-14c5-1.1 9.9 1.9 11.2 6.9 1.2 4.8-1.7 9.8-6.5 11.1zm.5-77.6c2 4.6 16.5 14.4 16.5 14.4s2.5-17.3.5-22c-2-4.6-7.6-6.8-12.2-4.7-4.8 2.1-6.8 7.7-4.8 12.3zm-25 36.1c3.4 3.8 20.1 8.9 20.1 8.9s-2.8-17.4-6.2-21.2c-3.4-3.8-9.3-4.2-13.1-.9s-4.1 9.4-.8 13.2zm-34.6-17.6c2.4 3.9 16.2 10.8 16.2 10.8s.1-15.5-2.3-19.3c-2.4-3.9-7.4-5.1-11.3-2.7-3.8 2.3-5 7.3-2.6 11.2z"/><path class="st3" d="M225.9 205.8h84.8v9.4h-84.8z"/><path class="st7" d="M382 288.4h50.6v9.4H382zm16.5 28.4h64.4v8.1h-64.4z"/><path class="st3" d="M225.9 238.9h84.8v9.4h-84.8zm381.2-33.1h84.8v9.4h-84.8zm0 33.1h84.8v9.4h-84.8z"/><path class="st0" d="M338.5 232.2h313.9v313.9H338.5z"/><path fill="#fff" d="M349.1 217.3H663v313.9H349.1z"/><path fill="#5c39bc" d="M382 252h248.2v9.4H382z"/><path class="st3" d="M398.5 289.6h135.9v8.1H398.5zm0 54.4h131.9v8.1H398.5zm0 27.1h179.8v8.1H398.5z"/><path class="st10" d="M572.9 290.3l-.9-1s-.1-.1-.2-.1-.1 0-.1.1l-6.4 6.5-2.3-2.3s-.1-.1-.2-.1-.1 0-.1.1l-.9.9c-.1.1-.1.2 0 .3l3 3c.2.2.4.3.6.3.2 0 .5-.1.6-.3l7.1-7.1c-.1-.1-.1-.2-.2-.3z"/><path class="st10" d="M567.3 284.1c5.3 0 9.5 4.3 9.5 9.5 0 5.3-4.3 9.5-9.5 9.5-5.3 0-9.5-4.3-9.5-9.5 0-2.5 1-5 2.8-6.7 1.7-1.8 4.2-2.8 6.7-2.8m0-1.4c-6.1 0-11 4.9-11 11s4.9 11 11 11 11-4.9 11-11-5-11-11-11zm5.6 62l-.9-1s-.1-.1-.2-.1-.1 0-.1.1l-6.4 6.5-2.3-2.3s-.1-.1-.2-.1-.1 0-.1.1l-.9.9c-.1.1-.1.2 0 .3l3 3c.2.2.4.3.6.3.2 0 .4-.1.6-.3l7.1-7.1c-.1-.1-.1-.2-.2-.3z"/><path class="st10" d="M567.3 338.5c5.3 0 9.5 4.3 9.5 9.5 0 5.3-4.3 9.5-9.5 9.5-5.3 0-9.5-4.3-9.5-9.5 0-2.5 1-5 2.8-6.7 1.7-1.8 4.2-2.8 6.7-2.8m0-1.5c-6.1 0-11 4.9-11 11s4.9 11 11 11 11-4.9 11-11-5-11-11-11z"/><ellipse class="st0" cx="492.2" cy="588.9" rx="64.4" ry="10.8"/><linearGradient id="SVGID_1_" gradientUnits="userSpaceOnUse" x1="554.862" y1="-180.218" x2="554.862" y2="-100.083" gradientTransform="matrix(.894 .448 .3642 -.7268 113.948 -76.28)"><stop offset="0" stop-color="gray" stop-opacity=".25"/><stop offset=".54" stop-color="gray" stop-opacity=".12"/><stop offset="1" stop-color="gray" stop-opacity=".1"/></linearGradient><path d="M542.5 298s7.9 10.9 13.4 10 7.9-6.9 7.8-8.1c-.1-1.1 1.4-15 1.4-15l.2-21.4s6.2-25.2-4.2-23.4-5.5 21.4-5.5 21.4-.2 12.3-1.4 14.2c-1.2 1.9-2 10.6-2 10.6l-9.7 11.7z" fill="url(#SVGID_1_)"/><linearGradient id="SVGID_2_" gradientUnits="userSpaceOnUse" x1="579.128" y1="-244.305" x2="579.128" y2="-225.171" gradientTransform="matrix(1 0 0 -1 -69 354.82)"><stop offset="0" stop-color="gray" stop-opacity=".25"/><stop offset=".54" stop-color="gray" stop-opacity=".12"/><stop offset="1" stop-color="gray" stop-opacity=".1"/></linearGradient><path d="M521.7 584.9c-.1.4-.2.8-.4 1.2-1.1 3.8-3.2 3-9.4 9.2-3.1 3.3-7.9 4.7-12.3 3.5-.7-.2-1.2-.8-1.1-1.6l.7-10.2.4-4.9s9.8 2.7 14.8-.7c.1-.1.4-.2.5-.4l.1-.1c1.7-1.4 4.3-1.2 5.6.6 1.1.9 1.3 2.2 1.1 3.4z" fill="url(#SVGID_2_)"/><linearGradient id="SVGID_3_" gradientUnits="userSpaceOnUse" x1="548.328" y1="-240.48" x2="548.328" y2="-221.338" gradientTransform="matrix(1 0 0 -1 -69 354.82)"><stop offset="0" stop-color="gray" stop-opacity=".25"/><stop offset=".54" stop-color="gray" stop-opacity=".12"/><stop offset="1" stop-color="gray" stop-opacity=".1"/></linearGradient><path d="M490.9 581.1c-.1.4-.2.8-.4 1.2-1.1 3.8-3.2 3-9.4 9.2-3.1 3.3-7.9 4.7-12.3 3.5-.7-.1-1.2-.8-1.1-1.6l.7-10.2.4-4.9s9.8 2.7 14.8-.7c.1-.1.4-.2.5-.4l.1-.1c1.7-1.4 4.2-1.2 5.6.6 1.1.9 1.3 2.2 1.1 3.4z" fill="url(#SVGID_3_)"/><g class="st14"><linearGradient id="SVGID_4_" gradientUnits="userSpaceOnUse" x1="542.95" y1="-234.894" x2="542.95" y2="-227.526" gradientTransform="matrix(1 0 0 -1 -69 354.82)"><stop offset="0" stop-color="gray" stop-opacity=".25"/><stop offset=".54" stop-color="gray" stop-opacity=".12"/><stop offset="1" stop-color="gray" stop-opacity=".1"/></linearGradient><path d="M480.7 582.5l.4 5.3c-5.6 5.6-12.3-2.7-14.3-5.5 5 2.7 13.9.2 13.9.2z" fill="url(#SVGID_4_)"/></g><g class="st14"><linearGradient id="SVGID_5_" gradientUnits="userSpaceOnUse" x1="575.9" y1="-234.231" x2="575.9" y2="-226.569" gradientTransform="matrix(1 0 0 -1 -69 354.82)"><stop offset="0" stop-color="gray" stop-opacity=".25"/><stop offset=".54" stop-color="gray" stop-opacity=".12"/><stop offset="1" stop-color="gray" stop-opacity=".1"/></linearGradient><path d="M513.8 584.6l.7-.5c-5.1 7.8-12.8 4.2-15.2 2.7l.4-4.9s9.8 2.7 14.8-.7c-.3 2.1-.7 3.4-.7 3.4z" fill="url(#SVGID_5_)"/></g><linearGradient id="SVGID_6_" gradientUnits="userSpaceOnUse" x1="563.884" y1="-233.959" x2="563.884" y2="-40.34" gradientTransform="matrix(1 0 0 -1 -69 354.82)"><stop offset="0" stop-color="gray" stop-opacity=".25"/><stop offset=".54" stop-color="gray" stop-opacity=".12"/><stop offset="1" stop-color="gray" stop-opacity=".1"/></linearGradient><path d="M529.6 437.5c-3.9 9.8-7.9 42.7-8.4 46.5s-.4 19.4-.4 19.4l-1.1 38.3c-.1 4.8-3.7 16.7-3.7 16.7s-1.2 10-.6 13.4c.6 3.3-1.6 12.1-1.6 12.1l.7-.5c-6.2 9.3-15.9 2.3-15.9 2.3s-2.4-11.2.1-14.1-.7-11.6-.7-11.6 1.2-45.2 1.6-47.3c.4-2.2-1.4-8.5-3.2-13.7-1.8-5.3 1-26.1 1.6-29.9s-.2-21-1-24.6.7-18.4.7-18.4c-2.5-7.3-4.4-.7-4.4-.7l-2 19.2-2 39.6s.2 12-1.6 15.4c-1.9 3.5-3.5 12.3-3.5 12.3l1 44.6s-.1 9.3.5 12.9c.6 3.6-1.3 12.8-1.3 12.8-6.9 16.1-18-1.3-18-1.3s.5-2.7 1.4-3.1c1-.4-.4-6.9-1.1-8.1-.7-1.2.1-9.1.1-9.1s-.8-7.2-2.3-15.9c-1.3-8.7-1-42.3-.1-44.3.8-2 1.6-11.7 1.6-11.7s-1-5.5.2-9.4-3-20.4-3-22.4c0-1.9-1.6-13.3-2.5-14.5-.6-1.1-.8-2.3-1-3.5 0 0-.1-2.5-2.3-9.8-1.6-5.4-.6-16 0-21.3.2-2 .4-3.2.4-3.2s70.9-11.4 73.8-8.8c.7.6 1.1 2.7 1.3 5.6 1 9.4-.3 28.6-3.3 36.1z" fill="url(#SVGID_6_)"/><g class="st14"><linearGradient id="SVGID_7_" gradientUnits="userSpaceOnUse" x1="577.411" y1="-138.088" x2="577.411" y2="-137.574" gradientTransform="matrix(1 0 0 -1 -69 354.82)"><stop offset="0" stop-color="gray" stop-opacity=".25"/><stop offset=".54" stop-color="gray" stop-opacity=".12"/><stop offset="1" stop-color="gray" stop-opacity=".1"/></linearGradient><path d="M502.7 492.6c.4 0 8.1.7 11 .1 3-.6-11-.1-11-.1z" fill="url(#SVGID_7_)"/></g><g class="st14"><linearGradient id="SVGID_8_" gradientUnits="userSpaceOnUse" x1="578.008" y1="-143.533" x2="578.008" y2="-142.351" gradientTransform="matrix(1 0 0 -1 -69 354.82)"><stop offset="0" stop-color="gray" stop-opacity=".25"/><stop offset=".54" stop-color="gray" stop-opacity=".12"/><stop offset="1" stop-color="gray" stop-opacity=".1"/></linearGradient><path d="M503.3 497.1s10.9 1.9 11.4 1c.5-1-11.4-1-11.4-1z" fill="url(#SVGID_8_)"/></g><g class="st14"><linearGradient id="SVGID_9_" gradientUnits="userSpaceOnUse" x1="543.861" y1="-142.386" x2="543.861" y2="-140.391" gradientTransform="matrix(1 0 0 -1 -69 354.82)"><stop offset="0" stop-color="gray" stop-opacity=".25"/><stop offset=".54" stop-color="gray" stop-opacity=".12"/><stop offset="1" stop-color="gray" stop-opacity=".1"/></linearGradient><path d="M470.3 495.2s5.6.2 8.6 1.7c3.1 1.3-8.6-1.7-8.6-1.7z" fill="url(#SVGID_9_)"/></g><linearGradient id="SVGID_10_" gradientUnits="userSpaceOnUse" x1="525.9" y1="-48.28" x2="525.9" y2="-2.78" gradientTransform="matrix(1 0 0 -1 -69 354.82)"><stop offset="0" stop-color="gray" stop-opacity=".25"/><stop offset=".54" stop-color="gray" stop-opacity=".12"/><stop offset="1" stop-color="gray" stop-opacity=".1"/></linearGradient><path d="M449.9 357.8s1 17.1.4 20.1c0 0 2 13.9 3.6 17.3 1.4 2.7 3.2 5.5 5.1 7.9l4.9-33.9-1.1-11.6-12.9.2z" fill="url(#SVGID_10_)"/><linearGradient id="SVGID_11_" gradientUnits="userSpaceOnUse" x1="501" y1="127.682" x2="501" y2="165.482" gradientTransform="matrix(1 0 0 -1 0 407.64)"><stop offset="0" stop-color="gray" stop-opacity=".25"/><stop offset=".54" stop-color="gray" stop-opacity=".12"/><stop offset="1" stop-color="gray" stop-opacity=".1"/></linearGradient><ellipse cx="501" cy="261.1" rx="19" ry="18.9" fill="url(#SVGID_11_)"/><linearGradient id="SVGID_12_" gradientUnits="userSpaceOnUse" x1="566.346" y1="56.487" x2="566.346" y2="85.567" gradientTransform="matrix(1 0 0 -1 -69 354.82)"><stop offset="0" stop-color="gray" stop-opacity=".25"/><stop offset=".54" stop-color="gray" stop-opacity=".12"/><stop offset="1" stop-color="gray" stop-opacity=".1"/></linearGradient><path d="M491.1 269.9s-6 11.5-11.8 17c-6 5.4 35.6 11.5 36.6 11.5s-7.4-24.5-6-27.5-18.8-1-18.8-1z" fill="url(#SVGID_12_)"/><g class="st14"><linearGradient id="SVGID_13_" gradientUnits="userSpaceOnUse" x1="564.4" y1="-53.725" x2="564.4" y2="-40.24" gradientTransform="matrix(1 0 0 -1 -69 354.82)"><stop offset="0" stop-color="gray" stop-opacity=".25"/><stop offset=".54" stop-color="gray" stop-opacity=".12"/><stop offset="1" stop-color="gray" stop-opacity=".1"/></linearGradient><path d="M533.2 401c-1 .7-1.9 1.3-3.1 1.7-7.5 3-15.8 7.1-21.4 5.4s-17.5 0-17.5 0-23.9-1.9-28.7-.8c-1.6.5-3.3.5-4.9.1.2-2 .4-3.2.4-3.2s70.9-11.4 73.8-8.8c.7.6 1.1 2.7 1.4 5.6z" fill="url(#SVGID_13_)"/></g><linearGradient id="SVGID_14_" gradientUnits="userSpaceOnUse" x1="562.45" y1="-52.279" x2="562.45" y2="71.52" gradientTransform="matrix(1 0 0 -1 -69 354.82)"><stop offset="0" stop-color="gray" stop-opacity=".25"/><stop offset=".54" stop-color="gray" stop-opacity=".12"/><stop offset="1" stop-color="gray" stop-opacity=".1"/></linearGradient><path d="M538.3 390.2s-.7 8.1-8.2 11.1-15.8 7.1-21.4 5.4-17.5 0-17.5 0-23.9-1.9-28.7-.8c-4.8 1.2-7.2-.4-5.7-2.5 1.4-2.2 1.3-9.2 1.3-12.1s-1.7-14.8-.1-17c1.4-2.2 2.7-10.3 5.7-11.6 1-.4 1.6-1.2 1.8-2 .2-1 .2-2 0-3 0 0-.5-.4-1.2-1.1-1.8-1.6-4.7-4.4-3.7-5.4 1.3-1.3 0-9.8 0-9.8s-3.1-6.6-2-9c1.2-2.4-10-15.3-10-15.3s0-22.2 13.5-23.2c0 0 9.6.4 10.8-3.9 1.2-4.3 8.7-6.7 8.7-6.7l17.3 3.7s15.3 3.2 18.2 1.3 4.9 2.6 4.9 2.6 9.6.5 10.5 2.5c1 1.9-3.1 21-3.1 21s-6.9-.6-6.5 6.7c.5 7.4-2.6 16.6-2.6 16.6s-.5 5.4-.1 6.6c.4 1.1-.6 5.1-.8 5.9v.1s-.7 2.7.2 3.7c.1.1.2.1.2.2 1.3.6 3.3 7.1 3.3 7.1 1.1 1.2 1.6 2.7 1.4 4.4-.1 2.6.8 8.8 5.1 12.4 4.4 3.7 8.7 12.1 8.7 12.1z" fill="url(#SVGID_14_)"/><linearGradient id="SVGID_15_" gradientUnits="userSpaceOnUse" x1="523.927" y1="-6.109" x2="523.927" y2="39.018" gradientTransform="matrix(1 0 0 -1 -69 354.82)"><stop offset="0" stop-color="gray" stop-opacity=".25"/><stop offset=".54" stop-color="gray" stop-opacity=".12"/><stop offset="1" stop-color="gray" stop-opacity=".1"/></linearGradient><path d="M464.8 352.4v.7l-.4 7.7s-10.2.8-15.7-.6-3.2-7.4-3-8.7c.1-1.2 1.7-10.8 1.7-12.3 0-1.6 0-7.9-.2-10.9-.2-2.9 1.2-11.1 1.2-11.1l1.1-1.3 11.6 4.4 3.7 32.1z" fill="url(#SVGID_15_)"/><g class="st14"><linearGradient id="SVGID_16_" gradientUnits="userSpaceOnUse" x1="523.927" y1="-6.108" x2="523.927" y2="3.401" gradientTransform="matrix(1 0 0 -1 -69 354.82)"><stop offset="0" stop-color="gray" stop-opacity=".25"/><stop offset=".54" stop-color="gray" stop-opacity=".12"/><stop offset="1" stop-color="gray" stop-opacity=".1"/></linearGradient><path d="M464.8 353.1l-.4 7.7s-10.2.8-15.7-.6-3.2-7.4-3-8.7l19.1 1.6z" fill="url(#SVGID_16_)"/></g><g class="st14"><linearGradient id="SVGID_17_" gradientUnits="userSpaceOnUse" x1="560.9" y1="-5.837" x2="560.9" y2="4.591" gradientTransform="matrix(1 0 0 -1 -69 354.82)"><stop offset="0" stop-color="gray" stop-opacity=".25"/><stop offset=".54" stop-color="gray" stop-opacity=".12"/><stop offset="1" stop-color="gray" stop-opacity=".1"/></linearGradient><path d="M465.5 360.6c.2-1 .2-2 0-3 0 0-.5-.4-1.2-1.1 8.7-1.2 43.3-5.9 55-6.5v.1s-.7 2.7.2 3.7l-54 6.8z" fill="url(#SVGID_17_)"/></g><g class="st14"><linearGradient id="SVGID_18_" gradientUnits="userSpaceOnUse" x1="586.686" y1="-28.02" x2="586.686" y2="-11.764" gradientTransform="matrix(1 0 0 -1 -69 354.82)"><stop offset="0" stop-color="gray" stop-opacity=".25"/><stop offset=".54" stop-color="gray" stop-opacity=".12"/><stop offset="1" stop-color="gray" stop-opacity=".1"/></linearGradient><path d="M520.5 366.6s2.2 12.1-5.9 16.3c0 0 4.6-6 5.9-16.3z" fill="url(#SVGID_18_)"/></g><g class="st14"><linearGradient id="SVGID_19_" gradientUnits="userSpaceOnUse" x1="548.843" y1="-28.959" x2="548.843" y2="-26.646" gradientTransform="matrix(1 0 0 -1 -69 354.82)"><stop offset="0" stop-color="gray" stop-opacity=".25"/><stop offset=".54" stop-color="gray" stop-opacity=".12"/><stop offset="1" stop-color="gray" stop-opacity=".1"/></linearGradient><path d="M468.1 383.1s19.2-3.2 23.1-.7-23.1.7-23.1.7z" fill="url(#SVGID_19_)"/></g><g class="st14"><linearGradient id="SVGID_20_" gradientUnits="userSpaceOnUse" x1="582.287" y1="30.937" x2="582.287" y2="46.104" gradientTransform="matrix(1 0 0 -1 -69 354.82)"><stop offset="0" stop-color="gray" stop-opacity=".25"/><stop offset=".54" stop-color="gray" stop-opacity=".12"/><stop offset="1" stop-color="gray" stop-opacity=".1"/></linearGradient><path d="M513.8 308.8s-3 12.1-.7 14.8c2.3 2.7.7-14.8.7-14.8z" fill="url(#SVGID_20_)"/></g><g class="st14"><linearGradient id="SVGID_21_" gradientUnits="userSpaceOnUse" x1="527.752" y1="45.881" x2="527.752" y2="56.006" gradientTransform="matrix(1 0 0 -1 -69 354.82)"><stop offset="0" stop-color="gray" stop-opacity=".25"/><stop offset=".54" stop-color="gray" stop-opacity=".12"/><stop offset="1" stop-color="gray" stop-opacity=".1"/></linearGradient><path d="M458 298.8s2.7 4.5 1.1 9.2c-1.7 4.6-1.1-9.2-1.1-9.2z" fill="url(#SVGID_21_)"/></g><linearGradient id="SVGID_22_" gradientUnits="userSpaceOnUse" x1="522.675" y1="10.651" x2="522.675" y2="16.608" gradientTransform="matrix(1 0 0 -1 -69 354.82)"><stop offset="0" stop-color="gray" stop-opacity=".25"/><stop offset=".54" stop-color="gray" stop-opacity=".12"/><stop offset="1" stop-color="gray" stop-opacity=".1"/></linearGradient><path d="M452.4 338.2s3.5 2 2.3 5.3c-1.1 3.2-2.3-5.3-2.3-5.3z" fill="url(#SVGID_22_)"/><g class="st14"><linearGradient id="SVGID_23_" gradientUnits="userSpaceOnUse" x1="522.821" y1="21.108" x2="522.821" y2="25.925" gradientTransform="matrix(1 0 0 -1 -69 354.82)"><stop offset="0" stop-color="gray" stop-opacity=".25"/><stop offset=".54" stop-color="gray" stop-opacity=".12"/><stop offset="1" stop-color="gray" stop-opacity=".1"/></linearGradient><path d="M452 328.8s3.2 1.7 3.6 4.3c.5 2.6-3.6-4.3-3.6-4.3z" fill="url(#SVGID_23_)"/></g><g class="st14"><linearGradient id="SVGID_24_" gradientUnits="userSpaceOnUse" x1="580.85" y1="-72.261" x2="580.85" y2="-69.128" gradientTransform="matrix(1 0 0 -1 -69 354.82)"><stop offset="0" stop-color="gray" stop-opacity=".25"/><stop offset=".54" stop-color="gray" stop-opacity=".12"/><stop offset="1" stop-color="gray" stop-opacity=".1"/></linearGradient><path d="M499.7 426.6s20.2 2 24.3-2.7c-.2.1-18.3 3.7-24.3 2.7z" fill="url(#SVGID_24_)"/></g><g class="st14"><linearGradient id="SVGID_25_" gradientUnits="userSpaceOnUse" x1="546.75" y1="-73.281" x2="546.75" y2="-70.68" gradientTransform="matrix(1 0 0 -1 -69 354.82)"><stop offset="0" stop-color="gray" stop-opacity=".25"/><stop offset=".54" stop-color="gray" stop-opacity=".12"/><stop offset="1" stop-color="gray" stop-opacity=".1"/></linearGradient><path d="M464.8 425.5s21.6 5 25.9 1.1c0-.1-18.5 1.3-25.9-1.1z" fill="url(#SVGID_25_)"/></g><g class="st14"><linearGradient id="SVGID_26_" gradientUnits="userSpaceOnUse" x1="577.275" y1="-78.752" x2="577.275" y2="-78.445" gradientTransform="matrix(1 0 0 -1 -69 354.82)"><stop offset="0" stop-color="gray" stop-opacity=".25"/><stop offset=".54" stop-color="gray" stop-opacity=".12"/><stop offset="1" stop-color="gray" stop-opacity=".1"/></linearGradient><path d="M501.3 433.3s9.1 0 13.3.2c4.2.2-13.3-.2-13.3-.2z" fill="url(#SVGID_26_)"/></g><g class="st14"><linearGradient id="SVGID_27_" gradientUnits="userSpaceOnUse" x1="540.627" y1="-86.48" x2="540.627" y2="-82.282" gradientTransform="matrix(1 0 0 -1 -69 354.82)"><stop offset="0" stop-color="gray" stop-opacity=".25"/><stop offset=".54" stop-color="gray" stop-opacity=".12"/><stop offset="1" stop-color="gray" stop-opacity=".1"/></linearGradient><path d="M466.4 437.1s4.4 5 9.4 4.1c5-.9-9.4-4.1-9.4-4.1z" fill="url(#SVGID_27_)"/></g><linearGradient id="SVGID_28_" gradientUnits="userSpaceOnUse" x1="561.771" y1="-7.813" x2="561.771" y2="127.875" gradientTransform="matrix(1 0 0 -1 -69 354.82)"><stop offset="0" stop-color="gray" stop-opacity=".25"/><stop offset=".54" stop-color="gray" stop-opacity=".12"/><stop offset="1" stop-color="gray" stop-opacity=".1"/></linearGradient><path d="M475.1 233c-1.4 2.2-1.4 4.7-1.8 7.1-1 5.9-3.7 11.2-7.9 15.5-3.9 4.2-9.3 7.9-10.4 13-1 4.8 2.3 9.4 4.1 14.2 4.5 12.4-1.8 25.5-3.7 38.3-.5 3.6.1 8 4.5 9.2 1.3.4 3 .4 4.2 1 1.7.8 2.2 2.4 2.5 3.9 1.1 5.3 1.4 10.6 1.1 16-.2 3-.4 6.5 2.4 8.5 1.4 1 3.1 1.6 4.8 1.9 4.5 1.2 10.4 2.2 13.4-.6 1.3-1.2 1.8-2.9 3.3-3.8 2.4-1.4 5.7-.5 8.7-.4 5.7.2 11.2-2.6 14.2-7.7 2.4-4.3 2.3-9.3 1.3-14s-2.5-9.3-2.6-14c-.1-1.7.2-3.3 1.1-4.8 1.8-2.9 6.1-4.1 9.1-6.3 5.5-4.2 5.4-11 3.5-16.6-1.9-5.7-5.6-11.1-6-17-.2-1.4.1-2.9.8-4.1 1-1.2 2-2.3 3.3-3.1 8-6.7 7.1-17.7.5-25.2-7.4-8.5-40.5-26.4-50.4-11z" fill="url(#SVGID_28_)"/><g class="st14"><linearGradient id="SVGID_29_" gradientUnits="userSpaceOnUse" x1="526.458" y1="66.933" x2="526.458" y2="88.783" gradientTransform="matrix(1 0 0 -1 -69 354.82)"><stop offset="0" stop-color="gray" stop-opacity=".25"/><stop offset=".54" stop-color="gray" stop-opacity=".12"/><stop offset="1" stop-color="gray" stop-opacity=".1"/></linearGradient><path d="M460 287.8c.8-4.9.4-10-1.2-14.7-1-2.4-2.2-4.8-3.1-7.2-.5.8-.8 1.8-1 2.7-1 4.8 2.3 9.4 4.1 14.2.5 1.7 1 3.4 1.2 5z" fill="url(#SVGID_29_)"/><linearGradient id="SVGID_30_" gradientUnits="userSpaceOnUse" x1="530.251" y1="12.22" x2="530.251" y2="37.374" gradientTransform="matrix(1 0 0 -1 -69 354.82)"><stop offset="0" stop-color="gray" stop-opacity=".25"/><stop offset=".54" stop-color="gray" stop-opacity=".12"/><stop offset="1" stop-color="gray" stop-opacity=".1"/></linearGradient><path d="M467.4 341.4c.4-5.4 0-10.8-1.2-16-.4-1.4-.8-3.1-2.5-3.9-1.2-.6-2.7-.6-4.2-1-1.7-.4-3.1-1.6-3.8-3.1-.2 1.2-.5 2.5-.6 3.7-.5 3.6.1 8 4.5 9.2 1.3.4 3 .4 4.2 1 1.7.8 2.2 2.4 2.5 3.9.5 2.4.8 4.9 1.1 7.4-.1-.4 0-.7 0-1.2z" fill="url(#SVGID_30_)"/><linearGradient id="SVGID_31_" gradientUnits="userSpaceOnUse" x1="560.742" y1="-8.022" x2="560.742" y2="18.948" gradientTransform="matrix(1 0 0 -1 -69 354.82)"><stop offset="0" stop-color="gray" stop-opacity=".25"/><stop offset=".54" stop-color="gray" stop-opacity=".12"/><stop offset="1" stop-color="gray" stop-opacity=".1"/></linearGradient><path d="M514.3 339.5c-3 4.9-8.5 7.9-14.2 7.7-3-.1-6.3-1.1-8.7.4-1.6 1-2 2.6-3.3 3.8-3 2.9-8.8 1.9-13.4.6-1.7-.4-3.3-1-4.8-1.9-1.2-1-2-2.3-2.4-3.8 0 1.7 0 3.3-.1 5-.2 3-.4 6.5 2.4 8.5 1.4 1 3.1 1.6 4.8 1.9 4.5 1.2 10.4 2.2 13.4-.6 1.3-1.2 1.8-2.9 3.3-3.8 2.4-1.4 5.7-.5 8.7-.4 5.7.2 11.2-2.6 14.2-7.7 2.4-4.2 2.3-8.8 1.4-13.4-.1 1.4-.6 2.6-1.3 3.7z" fill="url(#SVGID_31_)"/><linearGradient id="SVGID_32_" gradientUnits="userSpaceOnUse" x1="594.569" y1="82.842" x2="594.569" y2="102.565" gradientTransform="matrix(1 0 0 -1 -69 354.82)"><stop offset="0" stop-color="gray" stop-opacity=".25"/><stop offset=".54" stop-color="gray" stop-opacity=".12"/><stop offset="1" stop-color="gray" stop-opacity=".1"/></linearGradient><path d="M524.8 259.5c-1.2.8-2.4 1.9-3.3 3.1-.7 1.2-1 2.7-.8 4.1.1 1.8.5 3.6 1.1 5.3 1-1 1.9-1.9 3-2.6 5.4-4.5 6.7-11 5-17.1-.9 2.8-2.7 5.3-5 7.2z" fill="url(#SVGID_32_)"/><linearGradient id="SVGID_33_" gradientUnits="userSpaceOnUse" x1="589.326" y1="37.62" x2="589.326" y2="59.72" gradientTransform="matrix(1 0 0 -1 -69 354.82)"><stop offset="0" stop-color="gray" stop-opacity=".25"/><stop offset=".54" stop-color="gray" stop-opacity=".12"/><stop offset="1" stop-color="gray" stop-opacity=".1"/></linearGradient><path d="M523.1 300.4c-2.9 2.3-7.2 3.5-9.1 6.3-.8 1.4-1.2 3.1-1.1 4.8.1 1.9.4 3.8.7 5.7.1-.2.2-.5.4-.6 1.8-2.7 6.1-4.1 9.1-6.3 5-3.8 5.4-9.8 3.9-15.2-.6 2.1-2 4-3.9 5.3z" fill="url(#SVGID_33_)"/></g><linearGradient id="SVGID_34_" gradientUnits="userSpaceOnUse" x1="612.934" y1="40.317" x2="612.934" y2="61.474" gradientTransform="matrix(1 0 0 -1 -69 354.82)"><stop offset="0" stop-color="gray" stop-opacity=".25"/><stop offset=".54" stop-color="gray" stop-opacity=".12"/><stop offset="1" stop-color="gray" stop-opacity=".1"/></linearGradient><path d="M560.8 302.4c-3.3 8.5-7.8 11.8-7.8 11.8h-2.4l-21.4.2-2.5-6.7 3.5-14.5 2.2.1c1.3.7 2.6 1.1 4.1 1.3 1.6 0 4.7-.1 5.5.4.1 0 .2.1.4 0 .8-.1 1.7-1.3 1.7-1.3s20 .2 16.7 8.7z" fill="url(#SVGID_34_)"/><g class="st14"><linearGradient id="SVGID_35_" gradientUnits="userSpaceOnUse" x1="620.835" y1="40.525" x2="620.835" y2="60.965" gradientTransform="matrix(1 0 0 -1 -69 354.82)"><stop offset="0" stop-color="gray" stop-opacity=".25"/><stop offset=".54" stop-color="gray" stop-opacity=".12"/><stop offset="1" stop-color="gray" stop-opacity=".1"/></linearGradient><path d="M560.8 302.4c-3.3 8.5-7.8 11.8-7.8 11.8h-2.4c1.3-3.3 3.9-10.3 5-11.8 1.1-1.6-8-5.3-13.1-7.3.8-.1 1.7-1.3 1.7-1.3s19.9.1 16.6 8.6z" fill="url(#SVGID_35_)"/></g><path class="st47" d="M541 299.5s7.7 10.8 13.2 9.9 7.8-6.8 7.8-8.1c-.1-1.2 1.5-14.9 1.5-14.9l.2-21.3s6.3-25-4.1-23.1c-10.3 1.9-5.5 21.1-5.5 21.1s-.2 12.2-1.4 14.1-1.9 10.5-1.9 10.5l-9.8 11.8z"/><path class="st48" d="M521.5 585c-.1.4-.2.7-.4 1.2-1.1 3.7-3.2 2.9-9.2 9.1-3.1 3.3-7.8 4.7-12.1 3.5-.7-.2-1.2-.8-1.1-1.6l.7-10 .4-4.8s9.7 2.7 14.6-.7c.1-.1.4-.2.5-.4l.1-.1c1.7-1.4 4.2-1.2 5.6.5.9.8 1.1 2.1.9 3.3zm-30.4-3.8c-.1.4-.2.7-.2 1.2-1.1 3.8-3.2 2.9-9.2 9.1-3.1 3.3-7.8 4.7-12.1 3.5-.7-.2-1.2-.8-1.1-1.6l.7-10 .4-4.8s9.7 2.7 14.6-.7c.1-.1.4-.2.5-.4l.1-.1c1.7-1.4 4.2-1.2 5.6.6.6.8.9 2 .7 3.2z"/><path class="st7" d="M481.1 582.7l.4 5.3c-5.5 5.5-12.2-2.7-14.1-5.4 5 2.5 13.7.1 13.7.1zm32.6 2.1l.7-.5c-5 7.8-12.7 4.2-14.9 2.7l.4-4.8s9.7 2.7 14.6-.7c-.5 2-.8 3.3-.8 3.3z"/><path d="M529.1 438.8c-3.9 9.7-7.8 42.3-8.2 46-.5 3.7-.4 19.2-.4 19.2l-1 37.9c-.1 4.8-3.6 16.6-3.6 16.6s-1.2 9.9-.6 13.3c.6 3.3-1.6 12-1.6 12l.7-.5c-6.1 9.2-15.7 2.3-15.7 2.3s-2.3-11.2.1-14c2.4-2.7-.8-11.5-.8-11.5s1.2-44.8 1.6-47-1.4-8.4-3.1-13.6c-1.7-5.3 1-25.9 1.6-29.6s-.2-20.9-.8-24.4c-.6-3.5.7-18.3.7-18.3-2.4-7.3-4.4-.7-4.4-.7l-1.9 19.1-2.2 39.2s.2 12-1.6 15.3c-1.8 3.5-3.3 12.1-3.3 12.1l.8 44.2s-.1 9.2.5 12.8c.6 3.5-1.3 12.7-1.3 12.7-6.8 16-17.7-1.3-17.7-1.3s.5-2.7 1.4-3c1-.4-.4-6.9-1.1-8s.1-9.1.1-9.1-1-7.2-2.2-15.8c-1.3-8.6-1-42-.1-44 .8-2 1.6-11.7 1.6-11.7s-1-5.5.2-9.3c1.2-3.9-2.9-20.3-2.9-22.1 0-1.8-1.6-13.1-2.4-14.3-.6-1.1-.8-2.3-.8-3.3 0 0-.1-2.4-2.2-9.7-1.6-5.4-.6-15.8 0-21.2.2-1.9.4-3.2.4-3.2s69.8-11.4 72.6-8.7c.6.6 1.1 2.7 1.3 5.6.6 9.5-.7 28.5-3.7 36z" fill="#667c8a"/><path class="st7" d="M502.8 493.4c.4 0 8 .6 10.9.1 2.7-.5-10.9-.1-10.9-.1zm.5 4.6s10.6 1.9 11.2 1c.6-1-11.2-1-11.2-1zm-32.5-1.9s5.5.2 8.5 1.7c2.9 1.4-8.5-1.7-8.5-1.7z"/><path class="st47" d="M450.8 359.7s1 17 .4 20c0 0 1.9 13.7 3.6 17.2 1.4 2.7 3.1 5.4 5.1 7.9l4.8-33.6-1.1-11.5h-12.8z"/><circle class="st47" cx="501" cy="263.8" r="18.8"/><path class="st47" d="M491.3 272.5s-5.9 11.5-11.7 16.7c-5.9 5.4 35 11.5 36 11.5s-7.3-24.3-5.9-27.3c1.6-2.8-18.4-.9-18.4-.9z"/><path class="st7" d="M532.7 402.7c-1 .7-1.9 1.3-3 1.7-7.4 2.9-15.5 6.9-21 5.4-5.5-1.7-17.2 0-17.2 0s-23.4-1.9-28.2-.8c-1.6.5-3.2.5-4.9.1.2-1.9.4-3.2.4-3.2s69.8-11.4 72.6-8.7c.6.5 1.1 2.5 1.3 5.5z"/><path class="st48" d="M537.8 391.8s-.6 8.1-8.1 11-15.5 6.9-21 5.4c-5.5-1.6-17.2 0-17.2 0s-23.4-1.9-28.2-.8c-4.8 1.2-7.2-.4-5.7-2.4 1.4-2.2 1.3-9.1 1.3-12 0-3-1.7-14.7-.1-16.9 1.6-2.2 2.7-10.2 5.7-11.5.8-.4 1.6-1.1 1.8-2 .2-1 .2-2 0-3 0 0-.5-.4-1.2-1-1.7-1.6-4.7-4.4-3.7-5.3 1.3-1.3 0-9.7 0-9.7s-3.1-6.5-1.9-9-9.9-15.2-9.9-15.2 0-22 13.3-23.1c0 0 9.4.4 10.5-3.9 1.2-4.2 8.6-6.7 8.6-6.7l17 3.7s15.1 3.2 17.8 1.3c2.7-1.9 4.8 2.6 4.8 2.6s9.4.5 10.4 2.4-3.1 20.9-3.1 20.9-6.8-.6-6.3 6.7-2.6 16.5-2.6 16.5-.5 5.4-.1 6.5-.6 5.1-.8 5.7v.1s-.7 2.7.2 3.7l.2.2c1.3.6 3.2 6.9 3.2 6.9 1 1.2 1.6 2.7 1.4 4.4-.1 2.6.8 8.7 5 12.3 4.3 3.9 8.7 12.2 8.7 12.2z"/><path class="st48" d="M465.5 354.3v.7l-.2 7.5s-9.9.8-15.3-.6-3.1-7.4-3-8.6c.1-1.2 1.7-10.6 1.7-12.2s0-7.9-.2-10.8 1.2-11 1.2-11l1.1-1.3 11.5 4.4 3.2 31.9z"/><path class="st7" d="M465.4 355l-.2 7.5s-9.9.8-15.3-.6-3.1-7.4-3-8.6l18.5 1.7z"/><path class="st7" d="M466.1 362.6c.2-1 .2-2 0-3 0 0-.5-.4-1.2-1 8.6-1.2 42.6-5.9 54-6.3v.1s-.7 2.7.2 3.7l-53 6.5zm54.2 5.8s2.2 12-5.7 16.1c-.1 0 4.3-5.8 5.7-16.1zm-51.6 16.5s19-3.2 22.7-.7c3.9 2.5-22.7.7-22.7.7zm45-73.9s-2.9 12-.7 14.7c2.1 2.9.7-14.7.7-14.7zm-55-9.8s2.7 4.4 1.1 9.1c-1.7 4.7-1.1-9.1-1.1-9.1z"/><path class="st48" d="M453.2 340.3s3.3 2 2.3 5.1-2.3-5.1-2.3-5.1z"/><path class="st7" d="M453 331.1s3.1 1.7 3.6 4.2c.3 2.5-3.6-4.2-3.6-4.2zm46.7 97s19.8 2 23.8-2.7c.1 0-17.8 3.5-23.8 2.7zm-34.2-1.2s21.3 5 25.6 1.1c-.1.1-18.4 1.4-25.6-1.1zm35.8 7.7s9 0 13 .2c4.2.3-13-.2-13-.2zm-34.4 3.9s4.4 4.9 9.3 4.1c5-.9-9.3-4.1-9.3-4.1z"/><path d="M475.6 236c-1.3 2.2-1.4 4.5-1.8 6.9-1 5.7-3.7 11.1-7.8 15.3-3.8 4.2-9.2 7.9-10.3 12.9-1 4.8 2.3 9.4 3.9 14.1 4.5 12.3-1.8 25.2-3.6 37.9-.5 3.5.1 8 4.4 9.2 1.3.4 2.9.4 4.1 1 1.7.7 2.2 2.4 2.4 3.8 1.1 5.3 1.4 10.5 1.1 15.9-.2 3-.4 6.5 2.4 8.5 1.4.8 3 1.6 4.7 1.9 4.4 1.2 10.2 2.2 13.1-.6 1.2-1.2 1.7-2.9 3.3-3.7 2.4-1.4 5.7-.5 8.6-.4 5.7.2 11.1-2.6 14-7.5 2.4-4.3 2.2-9.2 1.3-13.9s-2.4-9.2-2.5-13.9c-.1-1.7.2-3.2 1.1-4.7 1.8-2.7 6-4.1 8.8-6.2 5.4-4.1 5.4-10.9 3.5-16.5s-5.5-11-5.9-16.9c-.2-1.4.1-2.9.8-4.1 1-1.2 2.2-2.2 3.3-3 7.9-6.7 6.9-17.6.5-25-7-8.5-39.6-26.3-49.4-11z" fill="#e3787d"/><path d="M460.7 290.5c.7-4.9.4-9.9-1.2-14.6-.8-2.4-2.2-4.7-3-7.1-.5.8-.7 1.8-1 2.7-1 4.8 2.3 9.4 3.9 14.1.6 1.5 1.1 3.2 1.3 4.9zm7.2 53c.4-5.4 0-10.6-1.1-15.9-.2-1.4-.8-3.1-2.4-3.8-1.2-.6-2.7-.6-4.1-1-1.7-.4-3.1-1.6-3.8-3.1-.2 1.2-.5 2.5-.6 3.7-.5 3.5.1 8 4.4 9.2 1.3.4 2.9.4 4.1 1 1.7.8 2.2 2.4 2.4 3.8.5 2.4.8 4.9 1.1 7.3v-1.2zm46.3-1.9c-3 4.9-8.4 7.8-14 7.5-3-.1-6.3-1.1-8.6.4-1.6 1-2 2.6-3.3 3.7-3 2.7-8.7 1.8-13.1.6-1.7-.4-3.2-1-4.7-1.9-1.2-1-2-2.3-2.3-3.7 0 1.7 0 3.3-.1 5-.2 3-.4 6.5 2.4 8.5 1.4.8 3 1.6 4.7 1.9 4.4 1.2 10.2 2.2 13.1-.6 1.2-1.2 1.8-2.9 3.3-3.8 2.4-1.4 5.7-.5 8.6-.4 5.7.2 11.1-2.6 14-7.5 2.3-4.2 2.2-8.8 1.4-13.3-.4 1.2-.8 2.4-1.4 3.6zm10.2-79.3c-1.2.8-2.4 1.9-3.2 3.1-.7 1.2-1 2.6-.8 4.1.1 1.8.5 3.5 1.1 5.3 1-1 1.9-1.8 3-2.6 5.3-4.5 6.6-10.9 4.9-17-1 2.8-2.7 5.2-5 7.1zm-1.5 40.6c-2.9 2.2-7.1 3.5-8.8 6.2-.8 1.4-1.2 3.1-1.1 4.8.1 1.9.4 3.8.7 5.6.1-.2.2-.5.4-.6 1.8-2.7 6-4.1 8.8-6.2 4.9-3.7 5.4-9.7 3.8-15.1-.7 2.1-2 3.9-3.8 5.3z"/><path class="st48" d="M559.9 304.8c-3.3 8.5-7.7 11.7-7.7 11.7h-2.4l-21 .2-2.4-6.7 3.3-14.3 2.2.1c1.3.7 2.6 1.1 4.1 1.3 1.6 0 4.5-.1 5.4.4.1 0 .2.1.4 0 .8-.1 1.7-1.3 1.7-1.3s19.7.3 16.4 8.6z"/><path class="st7" d="M559.9 304.8c-3.3 8.5-7.7 11.7-7.7 11.7h-2.4c1.2-3.3 3.8-10.2 4.9-11.7 1.1-1.6-7.8-5.3-13-7.2.8-.1 1.7-1.3 1.7-1.3s19.8.2 16.5 8.5z"/><path class="st51" d="M165.8 26.8l-3.1-3.1c-.2-.2-.3-.2-.5-.2s-.3 0-.5.2L141 44.6l-7.5-7.5c-.3-.3-.6-.3-.9 0l-3.1 3.1c-.3.3-.3.6 0 .9l9.5 9.5c.5.6 1.2.9 2 .9s1.4-.5 2-.9l22.8-22.9c.3-.3.3-.6 0-.9z"/><path class="st51" d="M147.6 6.8c16.9 0 30.6 13.7 30.6 30.6S164.5 68 147.6 68 117 54.5 117 37.6c0-8.2 3.2-15.8 8.9-21.7 5.9-5.9 13.6-9.1 21.7-9.1m0-4.8c-19.5 0-35.5 15.8-35.5 35.5S127.9 73 147.6 73c19.5 0 35.5-15.8 35.5-35.5C183.2 18 167.3 2 147.6 2z"/><path class="st52" d="M343 72.2l-3.8-3.8c-.2-.2-.3-.3-.6-.3-.2 0-.5.2-.6.3l-26.1 26.3-9.5-9.5c-.2-.2-.3-.3-.6-.3-.2 0-.5.2-.6.3l-3.8 3.8c-.3.3-.3.8 0 1.2l12 12c.6.8 1.5 1.1 2.5 1.2.9-.2 1.8-.5 2.5-1.2l28.8-28.9c.1-.2.1-.7-.2-1.1z"/><path class="st52" d="M320 47.1c21.4 0 38.6 17.2 38.6 38.6s-17.2 38.6-38.6 38.6-38.6-17.2-38.6-38.6c0-10.3 4-20 11.4-27.4 7.2-7 17.1-11.2 27.2-11.2m0-6c-24.6 0-44.6 20-44.6 44.6s20 44.6 44.6 44.6 44.6-20 44.6-44.6c.2-24.6-19.8-44.6-44.6-44.6.2 0 .2 0 0 0z"/><path d="M852.4 6.8c16.9 0 30.6 13.7 30.6 30.6S869.3 68 852.4 68c-16.9 0-30.6-13.7-30.6-30.6 0-8.2 3.2-15.8 8.9-21.7 5.7-5.7 13.5-8.9 21.7-8.9m0-4.8c-19.5 0-35.5 15.8-35.5 35.5S832.7 73 852.4 73c19.5 0 35.5-15.8 35.5-35.5C887.7 18 871.9 2 852.4 2z" opacity=".5" fill="#5c39bc"/><path d="M665.7 47.1c21.4 0 38.6 17.2 38.6 38.6s-17.2 38.6-38.6 38.6c-21.4 0-38.6-17.2-38.6-38.6 0-10.3 4-20.1 11.4-27.4 7.2-7 17.1-11.2 27.2-11.2m0-6c-24.6 0-44.6 20-44.6 44.6s20 44.6 44.6 44.6 44.6-20 44.6-44.6c.2-24.6-19.8-44.6-44.6-44.6z" opacity=".8" fill="#5c39bc"/><path class="st5" d="M498 94.1c28.1 0 51.1 22.9 51.1 51.1s-22.9 51.1-51.1 51.1-51.1-22.9-51.1-51.1c0-13.5 5.4-26.5 14.9-36 9.7-9.7 22.7-15.1 36.2-15.1m0-8c-32.6 0-59.1 26.5-59.1 59.1s26.5 59.1 59.1 59.1 59.1-26.5 59.1-59.1-26.5-59.1-59.1-59.1z"/><path class="st5" d="M482.2 162.6l3.1-4.2c3.1 2.9 7.1 4.6 11.2 4.6 5.2 0 9.2-2.6 9.2-6.8 0-4.6-3.7-7.5-14.2-7.5V144c9.2 0 12.8-3.1 12.8-7.1 0-3.7-3.1-6-7.7-6-3.5.2-7.1 1.5-9.7 4l-3.4-4c3.7-3.2 8.5-5.1 13.2-5.2 8 0 14 3.8 14 10.6 0 4.8-3.5 7.8-8.5 9.5v.3c5.4 1.2 9.8 4.8 9.8 10.3 0 7.4-6.9 11.7-15.2 11.7-6.8.2-11.6-2.5-14.6-5.5z"/><path class="st5" d="M669.4 79.4c0-2.3.2-5.1.3-7.4h-.3c-1.2 2-2.8 4-4 5.8l-9.2 11.8h24.6v4.8h-31.1v-4L668.2 66h6.8v39.1h-5.7V79.4h.1z" opacity=".8"/><path class="st5" d="M840.2 49.9l2.2-2.9c2 2 4.8 3.1 7.5 3.1 3.7 0 6.6-2.3 6.6-5.8 0-3.7-2.6-5.7-6.5-5.7-2 0-3.8.6-5.5 1.5l-2.2-1.4.9-13.7h16.3v3.8H847l-.6 7.5c1.5-.6 3.2-1.1 4.8-1.1 5.4 0 9.7 2.8 9.7 8.8s-5.1 9.5-10.6 9.5c-3.6.4-7.3-1-10.1-3.6z" opacity=".5"/></svg>