<svg version="1.1" id="_x35_5370fff-d7e2-4a7c-8080-55f1e259b78c" xmlns="http://www.w3.org/2000/svg" x="0" y="0" viewBox="0 0 1040.3 804.5" xml:space="preserve"><style>.st0{fill:#33ded2}.st1,.st5{opacity:.1;enable-background:new}.st5{opacity:.2}.st6{fill:none;stroke:#5c39bc;stroke-miterlimit:10}.st8{fill:#94a4ad}.st10{fill:#ce967a}.st11{fill:#1b2238}.st12{fill:#5c39bc}.st16{fill:#ffdabb}.st17{fill:#2a314c}</style><path class="st0" d="M169.2 563.5h85.3c4.9 0 8.8 4 8.8 8.8v23.3c0 4.9-4 8.8-8.8 8.8h-85.3c-4.9 0-8.8-4-8.8-8.8v-23.3c-.1-4.8 3.9-8.8 8.8-8.8zm103 0h85.3c4.9 0 8.8 4 8.8 8.8v23.3c0 4.9-4 8.8-8.8 8.8h-85.3c-4.9 0-8.8-4-8.8-8.8v-23.3c-.1-4.8 3.9-8.8 8.8-8.8z"/><path class="st1" d="M272.2 563.5h85.3c4.9 0 8.8 4 8.8 8.8v23.3c0 4.9-4 8.8-8.8 8.8h-85.3c-4.9 0-8.8-4-8.8-8.8v-23.3c-.1-4.8 3.9-8.8 8.8-8.8z"/><path class="st0" d="M375.2 563.5h85.3c4.9 0 8.8 4 8.8 8.8v23.3c0 4.9-4 8.8-8.8 8.8h-85.3c-4.9 0-8.8-4-8.8-8.8v-23.3c-.1-4.8 3.9-8.8 8.8-8.8zm103 0h85.3c4.9 0 8.8 4 8.8 8.8v23.3c0 4.9-4 8.8-8.8 8.8h-85.3c-4.9 0-8.8-4-8.8-8.8v-23.3c-.1-4.8 3.9-8.8 8.8-8.8z"/><path class="st1" d="M478.2 563.5h85.3c4.9 0 8.8 4 8.8 8.8v23.3c0 4.9-4 8.8-8.8 8.8h-85.3c-4.9 0-8.8-4-8.8-8.8v-23.3c-.1-4.8 3.9-8.8 8.8-8.8z"/><path class="st0" d="M581.2 563.5h85.3c4.9 0 8.8 4 8.8 8.8v23.3c0 4.9-4 8.8-8.8 8.8h-85.3c-4.9 0-8.8-4-8.8-8.8v-23.3c-.1-4.8 3.9-8.8 8.8-8.8zm103 0h85.3c4.9 0 8.8 4 8.8 8.8v23.3c0 4.9-4 8.8-8.8 8.8h-85.3c-4.9 0-8.8-4-8.8-8.8v-23.3c-.1-4.8 3.9-8.8 8.8-8.8z"/><path class="st1" d="M684.2 563.5h85.3c4.9 0 8.8 4 8.8 8.8v23.3c0 4.9-4 8.8-8.8 8.8h-85.3c-4.9 0-8.8-4-8.8-8.8v-23.3c-.1-4.8 3.9-8.8 8.8-8.8z"/><path class="st0" d="M769.5 563.5h-85.3c-4.9 0-8.8-4-8.8-8.8v-23.3c0-4.9 4-8.8 8.8-8.8h85.3c4.9 0 8.8 4 8.8 8.8v23.3c0 4.8-3.9 8.8-8.8 8.8zm-103 0h-85.3c-4.9 0-8.8-4-8.8-8.8v-23.3c0-4.9 4-8.8 8.8-8.8h85.3c4.9 0 8.8 4 8.8 8.8v23.3c0 4.8-3.9 8.8-8.8 8.8z"/><path class="st1" d="M666.5 563.5h-85.3c-4.9 0-8.8-4-8.8-8.8v-23.3c0-4.9 4-8.8 8.8-8.8h85.3c4.9 0 8.8 4 8.8 8.8v23.3c0 4.8-3.9 8.8-8.8 8.8z"/><path class="st0" d="M563.5 563.5h-85.3c-4.9 0-8.8-4-8.8-8.8v-23.3c0-4.9 4-8.8 8.8-8.8h85.3c4.9 0 8.8 4 8.8 8.8v23.3c0 4.8-3.9 8.8-8.8 8.8zm-103 0h-85.3c-4.9 0-8.8-4-8.8-8.8v-23.3c0-4.9 4-8.8 8.8-8.8h85.3c4.9 0 8.8 4 8.8 8.8v23.3c0 4.8-3.9 8.8-8.8 8.8z"/><path class="st1" d="M460.5 563.5h-85.3c-4.9 0-8.8-4-8.8-8.8v-23.3c0-4.9 4-8.8 8.8-8.8h85.3c4.9 0 8.8 4 8.8 8.8v23.3c0 4.8-3.9 8.8-8.8 8.8z"/><path class="st0" d="M357.5 563.5h-85.3c-4.9 0-8.8-4-8.8-8.8v-23.3c0-4.9 4-8.8 8.8-8.8h85.3c4.9 0 8.8 4 8.8 8.8v23.3c0 4.8-3.9 8.8-8.8 8.8zm-103 0h-85.3c-4.9 0-8.8-4-8.8-8.8v-23.3c0-4.9 4-8.8 8.8-8.8h85.3c4.9 0 8.8 4 8.8 8.8v23.3c0 4.8-3.9 8.8-8.8 8.8z"/><path class="st1" d="M254.5 563.5h-85.3c-4.9 0-8.8-4-8.8-8.8v-23.3c0-4.9 4-8.8 8.8-8.8h85.3c4.9 0 8.8 4 8.8 8.8v23.3c0 4.8-3.9 8.8-8.8 8.8z"/><path class="st0" d="M169.2 481.5h85.3c4.9 0 8.8 4 8.8 8.8v23.3c0 4.9-4 8.8-8.8 8.8h-85.3c-4.9 0-8.8-4-8.8-8.8v-23.3c-.1-4.8 3.9-8.8 8.8-8.8zm103 0h85.3c4.9 0 8.8 4 8.8 8.8v23.3c0 4.9-4 8.8-8.8 8.8h-85.3c-4.9 0-8.8-4-8.8-8.8v-23.3c-.1-4.8 3.9-8.8 8.8-8.8z"/><path class="st1" d="M272.2 481.5h85.3c4.9 0 8.8 4 8.8 8.8v23.3c0 4.9-4 8.8-8.8 8.8h-85.3c-4.9 0-8.8-4-8.8-8.8v-23.3c-.1-4.8 3.9-8.8 8.8-8.8z"/><path class="st0" d="M375.2 481.5h85.3c4.9 0 8.8 4 8.8 8.8v23.3c0 4.9-4 8.8-8.8 8.8h-85.3c-4.9 0-8.8-4-8.8-8.8v-23.3c-.1-4.8 3.9-8.8 8.8-8.8zm103 0h85.3c4.9 0 8.8 4 8.8 8.8v23.3c0 4.9-4 8.8-8.8 8.8h-85.3c-4.9 0-8.8-4-8.8-8.8v-23.3c-.1-4.8 3.9-8.8 8.8-8.8z"/><path class="st1" d="M478.2 481.5h85.3c4.9 0 8.8 4 8.8 8.8v23.3c0 4.9-4 8.8-8.8 8.8h-85.3c-4.9 0-8.8-4-8.8-8.8v-23.3c-.1-4.8 3.9-8.8 8.8-8.8z"/><path class="st0" d="M581.2 481.5h85.3c4.9 0 8.8 4 8.8 8.8v23.3c0 4.9-4 8.8-8.8 8.8h-85.3c-4.9 0-8.8-4-8.8-8.8v-23.3c-.1-4.8 3.9-8.8 8.8-8.8zm103 0h85.3c4.9 0 8.8 4 8.8 8.8v23.3c0 4.9-4 8.8-8.8 8.8h-85.3c-4.9 0-8.8-4-8.8-8.8v-23.3c-.1-4.8 3.9-8.8 8.8-8.8z"/><path class="st1" d="M684.2 481.5h85.3c4.9 0 8.8 4 8.8 8.8v23.3c0 4.9-4 8.8-8.8 8.8h-85.3c-4.9 0-8.8-4-8.8-8.8v-23.3c-.1-4.8 3.9-8.8 8.8-8.8z"/><path class="st0" d="M769.5 481.5h-85.3c-4.9 0-8.8-4-8.8-8.8v-23.3c0-4.9 4-8.8 8.8-8.8h85.3c4.9 0 8.8 4 8.8 8.8v23.3c0 4.8-3.9 8.8-8.8 8.8zm-103 0h-85.3c-4.9 0-8.8-4-8.8-8.8v-23.3c0-4.9 4-8.8 8.8-8.8h85.3c4.9 0 8.8 4 8.8 8.8v23.3c0 4.8-3.9 8.8-8.8 8.8z"/><path class="st1" d="M666.5 481.5h-85.3c-4.9 0-8.8-4-8.8-8.8v-23.3c0-4.9 4-8.8 8.8-8.8h85.3c4.9 0 8.8 4 8.8 8.8v23.3c0 4.8-3.9 8.8-8.8 8.8z"/><path class="st0" d="M563.5 481.5h-85.3c-4.9 0-8.8-4-8.8-8.8v-23.3c0-4.9 4-8.8 8.8-8.8h85.3c4.9 0 8.8 4 8.8 8.8v23.3c0 4.8-3.9 8.8-8.8 8.8zm-103 0h-85.3c-4.9 0-8.8-4-8.8-8.8v-23.3c0-4.9 4-8.8 8.8-8.8h85.3c4.9 0 8.8 4 8.8 8.8v23.3c0 4.8-3.9 8.8-8.8 8.8z"/><path class="st1" d="M460.5 481.5h-85.3c-4.9 0-8.8-4-8.8-8.8v-23.3c0-4.9 4-8.8 8.8-8.8h85.3c4.9 0 8.8 4 8.8 8.8v23.3c0 4.8-3.9 8.8-8.8 8.8z"/><path class="st0" d="M357.5 481.5h-85.3c-4.9 0-8.8-4-8.8-8.8v-23.3c0-4.9 4-8.8 8.8-8.8h85.3c4.9 0 8.8 4 8.8 8.8v23.3c0 4.8-3.9 8.8-8.8 8.8zm-103 0h-85.3c-4.9 0-8.8-4-8.8-8.8v-23.3c0-4.9 4-8.8 8.8-8.8h85.3c4.9 0 8.8 4 8.8 8.8v23.3c0 4.8-3.9 8.8-8.8 8.8z"/><path class="st1" d="M254.5 481.5h-85.3c-4.9 0-8.8-4-8.8-8.8v-23.3c0-4.9 4-8.8 8.8-8.8h85.3c4.9 0 8.8 4 8.8 8.8v23.3c0 4.8-3.9 8.8-8.8 8.8z"/><path class="st0" d="M169.2 401.5h85.3c4.9 0 8.8 4 8.8 8.8v23.3c0 4.9-4 8.8-8.8 8.8h-85.3c-4.9 0-8.8-4-8.8-8.8v-23.3c-.1-4.8 3.9-8.8 8.8-8.8zm103 0h85.3c4.9 0 8.8 4 8.8 8.8v23.3c0 4.9-4 8.8-8.8 8.8h-85.3c-4.9 0-8.8-4-8.8-8.8v-23.3c-.1-4.8 3.9-8.8 8.8-8.8z"/><path class="st1" d="M272.2 401.5h85.3c4.9 0 8.8 4 8.8 8.8v23.3c0 4.9-4 8.8-8.8 8.8h-85.3c-4.9 0-8.8-4-8.8-8.8v-23.3c-.1-4.8 3.9-8.8 8.8-8.8z"/><path class="st0" d="M375.2 401.5h85.3c4.9 0 8.8 4 8.8 8.8v23.3c0 4.9-4 8.8-8.8 8.8h-85.3c-4.9 0-8.8-4-8.8-8.8v-23.3c-.1-4.8 3.9-8.8 8.8-8.8zm103 0h85.3c4.9 0 8.8 4 8.8 8.8v23.3c0 4.9-4 8.8-8.8 8.8h-85.3c-4.9 0-8.8-4-8.8-8.8v-23.3c-.1-4.8 3.9-8.8 8.8-8.8z"/><path class="st1" d="M478.2 401.5h85.3c4.9 0 8.8 4 8.8 8.8v23.3c0 4.9-4 8.8-8.8 8.8h-85.3c-4.9 0-8.8-4-8.8-8.8v-23.3c-.1-4.8 3.9-8.8 8.8-8.8z"/><path class="st0" d="M581.2 401.5h85.3c4.9 0 8.8 4 8.8 8.8v23.3c0 4.9-4 8.8-8.8 8.8h-85.3c-4.9 0-8.8-4-8.8-8.8v-23.3c-.1-4.8 3.9-8.8 8.8-8.8zm103 0h85.3c4.9 0 8.8 4 8.8 8.8v23.3c0 4.9-4 8.8-8.8 8.8h-85.3c-4.9 0-8.8-4-8.8-8.8v-23.3c-.1-4.8 3.9-8.8 8.8-8.8z"/><path class="st1" d="M684.2 401.5h85.3c4.9 0 8.8 4 8.8 8.8v23.3c0 4.9-4 8.8-8.8 8.8h-85.3c-4.9 0-8.8-4-8.8-8.8v-23.3c-.1-4.8 3.9-8.8 8.8-8.8z"/><path class="st0" d="M769.5 401.5h-85.3c-4.9 0-8.8-4-8.8-8.8v-23.3c0-4.9 4-8.8 8.8-8.8h85.3c4.9 0 8.8 4 8.8 8.8v23.3c0 4.8-3.9 8.8-8.8 8.8zm-103 0h-85.3c-4.9 0-8.8-4-8.8-8.8v-23.3c0-4.9 4-8.8 8.8-8.8h85.3c4.9 0 8.8 4 8.8 8.8v23.3c0 4.8-3.9 8.8-8.8 8.8z"/><path class="st1" d="M666.5 401.5h-85.3c-4.9 0-8.8-4-8.8-8.8v-23.3c0-4.9 4-8.8 8.8-8.8h85.3c4.9 0 8.8 4 8.8 8.8v23.3c0 4.8-3.9 8.8-8.8 8.8z"/><path class="st0" d="M563.5 401.5h-85.3c-4.9 0-8.8-4-8.8-8.8v-23.3c0-4.9 4-8.8 8.8-8.8h85.3c4.9 0 8.8 4 8.8 8.8v23.3c0 4.8-3.9 8.8-8.8 8.8zm-103 0h-85.3c-4.9 0-8.8-4-8.8-8.8v-23.3c0-4.9 4-8.8 8.8-8.8h85.3c4.9 0 8.8 4 8.8 8.8v23.3c0 4.8-3.9 8.8-8.8 8.8z"/><path class="st1" d="M460.5 401.5h-85.3c-4.9 0-8.8-4-8.8-8.8v-23.3c0-4.9 4-8.8 8.8-8.8h85.3c4.9 0 8.8 4 8.8 8.8v23.3c0 4.8-3.9 8.8-8.8 8.8z"/><path class="st0" d="M357.5 401.5h-85.3c-4.9 0-8.8-4-8.8-8.8v-23.3c0-4.9 4-8.8 8.8-8.8h85.3c4.9 0 8.8 4 8.8 8.8v23.3c0 4.8-3.9 8.8-8.8 8.8zm-103 0h-85.3c-4.9 0-8.8-4-8.8-8.8v-23.3c0-4.9 4-8.8 8.8-8.8h85.3c4.9 0 8.8 4 8.8 8.8v23.3c0 4.8-3.9 8.8-8.8 8.8z"/><path class="st1" d="M254.5 401.5h-85.3c-4.9 0-8.8-4-8.8-8.8v-23.3c0-4.9 4-8.8 8.8-8.8h85.3c4.9 0 8.8 4 8.8 8.8v23.3c0 4.8-3.9 8.8-8.8 8.8z"/><path class="st0" d="M169.2 319.5h85.3c4.9 0 8.8 4 8.8 8.8v23.3c0 4.9-4 8.8-8.8 8.8h-85.3c-4.9 0-8.8-4-8.8-8.8v-23.3c-.1-4.8 3.9-8.8 8.8-8.8zm103 0h85.3c4.9 0 8.8 4 8.8 8.8v23.3c0 4.9-4 8.8-8.8 8.8h-85.3c-4.9 0-8.8-4-8.8-8.8v-23.3c-.1-4.8 3.9-8.8 8.8-8.8z"/><path class="st1" d="M272.2 319.5h85.3c4.9 0 8.8 4 8.8 8.8v23.3c0 4.9-4 8.8-8.8 8.8h-85.3c-4.9 0-8.8-4-8.8-8.8v-23.3c-.1-4.8 3.9-8.8 8.8-8.8z"/><path class="st0" d="M375.2 319.5h85.3c4.9 0 8.8 4 8.8 8.8v23.3c0 4.9-4 8.8-8.8 8.8h-85.3c-4.9 0-8.8-4-8.8-8.8v-23.3c-.1-4.8 3.9-8.8 8.8-8.8zm103 0h85.3c4.9 0 8.8 4 8.8 8.8v23.3c0 4.9-4 8.8-8.8 8.8h-85.3c-4.9 0-8.8-4-8.8-8.8v-23.3c-.1-4.8 3.9-8.8 8.8-8.8z"/><path class="st1" d="M478.2 319.5h85.3c4.9 0 8.8 4 8.8 8.8v23.3c0 4.9-4 8.8-8.8 8.8h-85.3c-4.9 0-8.8-4-8.8-8.8v-23.3c-.1-4.8 3.9-8.8 8.8-8.8z"/><path class="st0" d="M581.2 319.5h85.3c4.9 0 8.8 4 8.8 8.8v23.3c0 4.9-4 8.8-8.8 8.8h-85.3c-4.9 0-8.8-4-8.8-8.8v-23.3c-.1-4.8 3.9-8.8 8.8-8.8zm103 0h85.3c4.9 0 8.8 4 8.8 8.8v23.3c0 4.9-4 8.8-8.8 8.8h-85.3c-4.9 0-8.8-4-8.8-8.8v-23.3c-.1-4.8 3.9-8.8 8.8-8.8z"/><path class="st1" d="M684.2 319.5h85.3c4.9 0 8.8 4 8.8 8.8v23.3c0 4.9-4 8.8-8.8 8.8h-85.3c-4.9 0-8.8-4-8.8-8.8v-23.3c-.1-4.8 3.9-8.8 8.8-8.8z"/><linearGradient id="SVGID_1_" gradientUnits="userSpaceOnUse" x1="722.82" y1="733.591" x2="722.82" y2="777.77" gradientTransform="matrix(1 0 0 -1 0 960.68)"><stop offset="0" stop-color="gray" stop-opacity=".25"/><stop offset=".54" stop-color="gray" stop-opacity=".12"/><stop offset="1" stop-color="gray" stop-opacity=".1"/></linearGradient><path d="M676.2 182.9h93.3c4.9 0 8.8 4 8.8 8.8v26.5c0 4.9-4 8.8-8.8 8.8h-93.3c-4.9 0-8.8-4-8.8-8.8v-26.5c-.1-4.8 3.9-8.8 8.8-8.8z" fill="url(#SVGID_1_)"/><path class="st0" d="M765.5 225.5h-85.3c-4.9 0-8.8-4-8.8-8.8v-23.3c0-4.9 4-8.8 8.8-8.8h85.3c4.9 0 8.8 4 8.8 8.8v23.3c0 4.8-3.9 8.8-8.8 8.8zm-99 94h-85.3c-4.9 0-8.8-4-8.8-8.8v-23.3c0-4.9 4-8.8 8.8-8.8h85.3c4.9 0 8.8 4 8.8 8.8v23.3c0 4.8-3.9 8.8-8.8 8.8z"/><path class="st1" d="M666.5 319.5h-85.3c-4.9 0-8.8-4-8.8-8.8v-23.3c0-4.9 4-8.8 8.8-8.8h85.3c4.9 0 8.8 4 8.8 8.8v23.3c0 4.8-3.9 8.8-8.8 8.8z"/><path class="st0" d="M563.5 319.5h-85.3c-4.9 0-8.8-4-8.8-8.8v-23.3c0-4.9 4-8.8 8.8-8.8h85.3c4.9 0 8.8 4 8.8 8.8v23.3c0 4.8-3.9 8.8-8.8 8.8zm-103 0h-85.3c-4.9 0-8.8-4-8.8-8.8v-23.3c0-4.9 4-8.8 8.8-8.8h85.3c4.9 0 8.8 4 8.8 8.8v23.3c0 4.8-3.9 8.8-8.8 8.8z"/><path class="st1" d="M460.5 319.5h-85.3c-4.9 0-8.8-4-8.8-8.8v-23.3c0-4.9 4-8.8 8.8-8.8h85.3c4.9 0 8.8 4 8.8 8.8v23.3c0 4.8-3.9 8.8-8.8 8.8z"/><path class="st0" d="M357.5 319.5h-85.3c-4.9 0-8.8-4-8.8-8.8v-23.3c0-4.9 4-8.8 8.8-8.8h85.3c4.9 0 8.8 4 8.8 8.8v23.3c0 4.8-3.9 8.8-8.8 8.8zm-103 0h-85.3c-4.9 0-8.8-4-8.8-8.8v-23.3c0-4.9 4-8.8 8.8-8.8h85.3c4.9 0 8.8 4 8.8 8.8v23.3c0 4.8-3.9 8.8-8.8 8.8z"/><path class="st1" d="M254.5 319.5h-85.3c-4.9 0-8.8-4-8.8-8.8v-23.3c0-4.9 4-8.8 8.8-8.8h85.3c4.9 0 8.8 4 8.8 8.8v23.3c0 4.8-3.9 8.8-8.8 8.8z"/><ellipse cx="499" cy="691" rx="499" ry="113.5" fill="#d1d8db"/><path d="M113.9 640.1s9-30.4-1.7-52.8c-4.5-9.4-5.9-19.9-3.9-30.1 1-4.8 2.4-9.6 4.3-14.2" fill="none" stroke="#5c39bc" stroke-width="2" stroke-miterlimit="10"/><path class="st0" d="M106 528.8c0 3.7 6.8 14.5 6.8 14.5s6.8-10.8 6.8-14.5c0-3.7-3-6.8-6.8-6.8s-6.8 3.1-6.8 6.8zm-11.1 20.7c2 3.1 13.6 8.5 13.6 8.5s-.2-12.7-2.2-15.9c-2-3.1-6.2-4-9.3-1.9-3.2 2-4.1 6.2-2.1 9.3zm.5 35.3c3.3 1.7 16 .5 16 .5s-6.6-10.9-9.9-12.6c-3.4-1.6-7.4-.2-9 3.2-1.6 3.2-.4 7.2 2.9 8.9zm6.3 26.6c3 2.2 15.7 3.2 15.7 3.2s-4.7-11.8-7.7-14.1c-3.1-2-7.3-1.2-9.3 1.9-1.9 2.9-1.3 6.8 1.3 9zm20.9-52.7c-2.7 2.6-15.1 5.3-15.1 5.3s3.1-12.4 5.7-15c2.7-2.6 6.9-2.5 9.5.1 2.6 2.7 2.6 7-.1 9.6zm7.1 31.2c-3.3 1.7-16 .5-16 .5s6.6-10.9 9.9-12.6c3.4-1.5 7.4 0 8.9 3.4 1.5 3.2.2 7-2.8 8.7zm2.7 31.3c-3 2.2-15.7 3.2-15.7 3.2s4.7-11.8 7.7-14.1c3.1-2 7.3-1.2 9.3 1.9 1.9 3 1.3 6.8-1.3 9zM597 467.7s32.9 32.9 14.3 81.7c-18.6 48.8 31.8 130 31.8 130l-1.5-.3c-67.6-12-101.1-89.2-63.6-146.6 14-21.3 25.5-46.3 19-64.8z"/><path class="st5" d="M597 467.7s32.9 32.9 14.3 81.7c-18.6 48.8 31.8 130 31.8 130l-1.5-.3c-67.6-12-101.1-89.2-63.6-146.6 14-21.3 25.5-46.3 19-64.8z"/><path class="st6" d="M597 467.7s18.6 40.3 0 73.2c-18.6 32.9-3.2 125.2 46.2 138.4"/><path class="st0" d="M538.4 600.7s37.5-6 40.9 27.7c3.4 33.7 72.2 38.3 72.2 38.3l-1.3.9c-56.8 37.3-111 23.7-102.8-25.7 3-18.5 2.8-37-9-41.2z"/><path d="M538.4 600.7s37.5-6 40.9 27.7c3.4 33.7 72.2 38.3 72.2 38.3l-1.3.9c-56.8 37.3-111 23.7-102.8-25.7 3-18.5 2.8-37-9-41.2z" opacity=".2" fill="#f5f5f5"/><path class="st6" d="M538.4 600.7s29.1 6.4 26.7 32.9 43.3 58.2 86.4 33.1"/><path class="st8" d="M823.9 678.2s-55.7-11.1-70.6-26-81.7-40.8-89.1-22.3c-7.4 18.6-100.3 81.7-37.1 92.9 63.2 11.1 148.5 14.8 167.1 7.4 18.6-7.5 29.7-52 29.7-52z"/><path class="st5" d="M627.2 715.8c63.1 11.1 148.5 14.8 167.1 7.4 14.1-5.7 24-32.8 27.8-45.5l1.9.4s-11.1 44.6-29.7 52c-18.6 7.4-104 3.7-167.1-7.4-18.2-3.2-23.4-10.8-21.5-20.3 1.5 6.2 7.9 11 21.5 13.4z"/><linearGradient id="SVGID_2_" gradientUnits="userSpaceOnUse" x1="885.623" y1="77.01" x2="885.623" y2="679.934" gradientTransform="matrix(1 0 0 -1 -79.84 835.26)"><stop offset="0" stop-color="gray" stop-opacity=".25"/><stop offset=".54" stop-color="gray" stop-opacity=".12"/><stop offset="1" stop-color="gray" stop-opacity=".1"/></linearGradient><path d="M936.6 183.5c-1-2.5-2.6-4.7-4.6-6.4-15-13.6-39.1-9.5-57.7-17.8-4.3-1.9-8.7-4.6-13.3-3.8-6.5 1-12.5 8.4-18.2 5.1l.4 1.2-.4-.2 4.2 12.7c1.6 4.9 3.3 9.9 6.4 13.9-15.2 13.2-16.7 36.2-3.5 51.4 3.4 3.9 7.6 7 12.3 9.2.2.4.4.9.6 1.3l.5.2c1.2 2.8 2.1 5.8 2.7 8.8-4.8.7-13.2 6-21.4 13.8l-16.5-.6c-10.7-.4-21-3.9-29.6-10.1l-49.4-35.4c-3.5.3-6.8 1.8-9.5 4.2-6.1-6.4-11.3-13-10.9-17 0 0-22.9-42.9-31.3-21.5-8.3 21.5 15.6 44 15.6 44l15.2 19.7c-.6 3.5-1 6.9-1.1 10.4 18.8 21.5 84.4 40.9 84.4 40.9l10.2.5.1.5c-.6 2.7-.9 5.4-.9 8.2v2c.5 34.2 5.2 139 5.2 139 .9-.4 1.9-.8 2.8-1.1l-.7 9.3s-43.8 6.1-76.1 18.4C720 496.7 718.9 511 718.9 511v126.3c-9.2 4.7-23.8 11-31.3 7.6-8.1-3.6-12.6-.6-13.4 2.6-.2.6-.2 1.3 0 1.9.1.3.2.6.3.8v.1c.1.3.3.5.5.7 3.1 3.1 70.9 29.6 86.5 25.5.5-.1 1-.3 1.4-.5.2-.1.3-.1.4-.2.1-.1.6-.3.8-.4.3-.2.3-.2.5-.3s.5-.3.7-.5l.4-.4c.1-.1.4-.3.6-.5s.3-.3.4-.5.4-.4.5-.6.2-.3.3-.5c.1-.2.3-.5.5-.7s.2-.3.3-.5c.1-.2.3-.5.4-.8.1-.3.2-.3.2-.5.1-.2.3-.6.4-.9s.1-.3.2-.5.2-.6.3-1c0-.2.1-.3.1-.5.1-.3.2-.7.3-1 0-.2.1-.3.1-.5.1-.4.2-.8.2-1.1 0-.1 0-.3.1-.4.1-.4.1-.8.2-1.2v-.5c.1-.5.1-.9.1-1.3v-.3c0-.5.1-1 .1-1.5V657c0-6.1-.7-12.2-2-18.1l3.9-107.5c20.5.3 41-.4 61.4-2.3l2.2 51.3s0 33.7 11.5 49.1c9.8 13.1 21.2 71.2 24.2 87.6-4.2 8-12.3 18-26.3 17.7 0 0-26.4-2.3-24.9 5 0 .2.1.4.2.6l.3.6c.1.2.2.4.4.6l.1.1c.2.2.3.4.5.7l.6.6.2.2c.2.2.5.5.8.7 13.6 12.3 92.8 14.3 92.8 14.3v-.5c0-3.5-.5-22.2-5.3-36.2h1.1S901.2 618.3 891.9 606c0 0-2.5-54.4 3.1-88.5l1-.4c26.3-9.8 28.2-34 25.4-51.8 5 1.6 7.9 2.7 7.9 2.7s-.1-.8-.3-2.1l.3.1s-.5-3.3-1.3-8.3c-1.9-13.9-5.5-38.3-9.4-49.8-.6-2.5-1.2-4.7-1.8-6.3-2.2-6.9-3.8-14-4.6-21.2-1.1-9.3-1.6-18.8-1.6-28.2.1-12.6 1-25.1 2.9-37.6 1.6-10.9 3-23.2 2.9-31.9.1-3-.1-6-.6-9-1.4-6.4-7.5-10.5-13.9-13.1-.4-.2-.8-.3-1.3-.5.2-2.4.4-5.2.6-8 1.5 1.1 3.5 1.5 5.3 1.1 2.8-.6 4.7-2.9 6.5-5 9.2-11.4 18.7-23.2 22.3-37.3 1.4-6.3 2.1-12.7 2-19.2v-1.1c.2-2.3 0-4.8-.7-7.1z" fill="url(#SVGID_2_)"/><path class="st10" d="M852.5 238.8s14 21 11 31 33 4 33 4 1-39 8-48-52 13-52 13zM760 252.3s-29-24-28-33c0 0-22-42-30-21s15 43 15 43l28 37 15-26z"/><path class="st11" d="M730.5 628.8s-27 17-38 12-15 3-12 6 68 29 83 25 7.4-36.8 7.4-36.8l-40.4-6.2zm143 73s-6.5 27.5-29 27c0 0-34-3-21 9s89 14 89 14 0-41-14-50-25 0-25 0z"/><path class="st12" d="M832.5 507.8l3 70s0 33 11 48 24 90 24 90h38s-11-101-20-113c0 0-4-89 10-109l-66 14z"/><path class="st1" d="M832.5 507.8l3 70s0 33 11 48 24 90 24 90h38s-11-101-20-113c0 0-4-89 10-109l-66 14z"/><path class="st12" d="M911.5 444.8s23 55-19 71-118 14-118 14l-4 116s-47 6-48-9v-127s1-14 32-26 73-18 73-18l2-26 82 5z"/><path class="st1" d="M874.7 263.7c8-.9 16.1.3 23.5 3.3 6.1 2.6 12 6.6 13.4 12.9 1.6 7.4-.2 23.9-2.2 37.9-3.2 22-6 37.3-3.6 59.3 1 9.2 4.9 24.2 6.8 27.7 6 11 12 63 12 63s-66-25-99-10c0 0-4.5-102.5-5-136-.4-25.9 32.5-55.5 43.5-56.5 6.3-.5 4.1-1 10.6-1.6z"/><path class="st8" d="M874.7 261.7c8-.9 16.1.3 23.5 3.3 6.1 2.6 12 6.6 13.4 12.9 1.6 7.4-.2 23.9-2.2 37.9-3.2 22-6 39.3-3.6 61.3.8 7.1 4.7 19 6.8 25.7 4.5 13.5 12 63 12 63s-66-25-99-10c0 0 2.8-37.5 1.4-73-1.1-29.2-6.3-56.8-6.4-63-.4-25.9 32.5-55.5 43.5-56.5 6.3-.5 4.1-1 10.6-1.6z"/><path class="st1" d="M892.5 316.8l-71-4s-4.5-34.8 5.7-34.5l70.3 2.5s15 18-5 36z"/><path class="st8" d="M892.5 314.8l-81-4s-63-19-81-40c0 0 1-37 21-39l47.3 34.7c8.3 6.1 18.2 9.5 28.4 9.9l70.3 2.5c0-.1 15 17.9-5 35.9z"/><path class="st1" d="M896 243.3c1.2-9.5 5.5-12.6 8.5-16.5 7-9-52 13-52 13 3.1 4.7 5.7 9.6 8 14.7 4.7 2.2 9.8 3.3 15 3.3 8.7 0 14.3-9.3 20.5-14.5z"/><circle class="st10" cx="875.5" cy="220.8" r="36"/><path class="st1" d="M852.8 195.6c-3.8-4.2-5.7-9.8-7.4-15.2l-4-12.4c5.4 3.2 11.2-4 17.4-5 4.4-.7 8.7 1.9 12.8 3.8 17.8 8.1 41 4.1 55.3 17.4 2 1.7 3.5 3.8 4.4 6.3.7 2.3.9 4.6.8 7 .1 6.3-.5 12.6-1.9 18.8-3.4 13.8-12.5 25.4-21.4 36.5-1.7 2.1-3.6 4.4-6.2 4.9-5.2 1.1-9.1-4.4-11.1-9.3-2.6-6.5-4.6-13.2-5.8-20.1-.5-2.9-.9-5.9-2.4-8.5-3.1-5.5-10.7-10.7-15.4-14.9s-10.9-4.6-15.1-9.3z"/><linearGradient id="SVGID_3_" gradientUnits="userSpaceOnUse" x1="849.939" y1="157.307" x2="926.189" y2="233.556"><stop offset="0" stop-color="#33ded2"/><stop offset=".004" stop-color="#33ddd1"/><stop offset=".199" stop-color="#2ca4a3"/><stop offset=".388" stop-color="#26767d"/><stop offset=".567" stop-color="#21515f"/><stop offset=".734" stop-color="#1e3749"/><stop offset=".883" stop-color="#1c283d"/><stop offset="1" stop-color="#1b2238"/></linearGradient><path d="M852.8 194.6c-3.8-4.2-5.7-9.8-7.4-15.2l-4-12.4c5.4 3.2 11.2-4 17.4-5 4.4-.7 8.7 1.9 12.8 3.8 17.8 8.1 41 4.1 55.3 17.4 2 1.7 3.5 3.8 4.4 6.3.7 2.3.9 4.6.8 7 .1 6.3-.5 12.6-1.9 18.8-3.4 13.8-12.5 25.4-21.4 36.5-1.7 2.1-3.6 4.4-6.2 4.9-5.2 1.1-9.1-4.4-11.1-9.3-2.6-6.5-4.6-13.2-5.8-20.1-.5-2.9-.9-5.9-2.4-8.5-3.1-5.5-10.7-10.7-15.4-14.9s-10.9-4.6-15.1-9.3z" fill="url(#SVGID_3_)"/><ellipse class="st10" cx="885" cy="224.8" rx="3" ry="6.5"/><path class="st1" d="M903 398.3s-2 6-12 5-39-3-39 0"/><path d="M823.5 736.8c-1.8-1.7-2.7-3-2.9-4.2-.3 1.3.5 3 2.9 5.2 13 12 89 14 89 14v-1c-.5 0-76-2-89-14zm-60-67c-15 4-80-22-83-25-.4-.4-.7-.9-.8-1.5-.4 1.2 0 2.5.8 3.5 3 3 68 29 83 25 7.7-2.1 9.4-11.7 9.3-20.6-.1 8.3-2.2 16.7-9.3 18.6z" opacity=".5" fill="#fff"/><path d="M502.1 659.1c.8 0 1.5-.7 1.5-1.5s-.7-1.5-1.5-1.5-1.5.7-1.5 1.5.7 1.5 1.5 1.5z" fill="#67647e"/><path class="st8" d="M56.3 642.5s37.3-1.2 48.6-9.2 57.4-17.6 60.2-4.7 56.1 63.9 13.9 64.3-97.9-6.6-109.1-13.4-13.6-37-13.6-37z"/><path class="st5" d="M179.8 688.3c-42.1.3-97.9-6.6-109.1-13.4-8.6-5.2-12-23.9-13.1-32.5h-1.3s2.4 30.1 13.6 36.9 67 13.8 109.1 13.5c12.2-.1 16.4-4.4 16.1-10.8-1.6 3.8-6.3 6.3-15.3 6.3z"/><path class="st0" d="M1031.5 728.5h-85.3c-4.9 0-8.8-4-8.8-8.8v-23.3c0-4.9 4-8.8 8.8-8.8h85.3c4.9 0 8.8 4 8.8 8.8v23.3c0 4.8-3.9 8.8-8.8 8.8z"/><path class="st1" d="M1031.5 728.5h-85.3c-4.9 0-8.8-4-8.8-8.8v-23.3c0-4.9 4-8.8 8.8-8.8h85.3c4.9 0 8.8 4 8.8 8.8v23.3c0 4.8-3.9 8.8-8.8 8.8z"/><path class="st0" d="M946.2 648.5h85.3c4.9 0 8.8 4 8.8 8.8v23.3c0 4.9-4 8.8-8.8 8.8h-85.3c-4.9 0-8.8-4-8.8-8.8v-23.3c-.1-4.8 3.9-8.8 8.8-8.8zm85.3 0h-85.3c-4.9 0-8.8-4-8.8-8.8v-23.3c0-4.9 4-8.8 8.8-8.8h85.3c4.9 0 8.8 4 8.8 8.8v23.3c0 4.8-3.9 8.8-8.8 8.8z"/><path class="st1" d="M1031.5 648.5h-85.3c-4.9 0-8.8-4-8.8-8.8v-23.3c0-4.9 4-8.8 8.8-8.8h85.3c4.9 0 8.8 4 8.8 8.8v23.3c0 4.8-3.9 8.8-8.8 8.8z"/><path class="st0" d="M946.2 566.5h85.3c4.9 0 8.8 4 8.8 8.8v23.3c0 4.9-4 8.8-8.8 8.8h-85.3c-4.9 0-8.8-4-8.8-8.8v-23.3c-.1-4.8 3.9-8.8 8.8-8.8z"/><path class="st16" d="M360.7 300.9l29.1-12.8s20.7-22.9 13.7-31.3c-7-8.4-26.6 19.3-26.6 19.3l-11.7 9.8-4.5 15z"/><path class="st12" d="M224.3 300.8l80.7 49.3 78.6-45.5-16.5-23.2-66 26.5-66.2-72.7z"/><path class="st5" d="M224.3 300.8l80.7 49.3 78.6-45.5-16.5-23.2-66 26.5-66.2-72.7z"/><path class="st0" d="M375.2 234.3h85.3c4.9 0 8.8 4 8.8 8.8v23.3c0 4.9-4 8.8-8.8 8.8h-85.3c-4.9 0-8.8-4-8.8-8.8v-23.3c-.1-4.8 3.9-8.8 8.8-8.8z"/><path class="st16" d="M350.9 279.9l27.7-15.6s18.4-24.8 10.6-32.5-24.6 21.8-24.6 21.8l-10.7 10.9-3 15.4z"/><path d="M218.3 208.5c19.5-.3 35.1-16.4 34.8-35.9 6.4-23.7-7.7-48.2-31.5-54.5-23.7-6.4-48.2 7.7-54.5 31.5-1 2-1.8 4.2-2.4 6.4-4.9 18.2 5.9 36.9 24.1 41.7l11.9 6.6c5.4 2.8 11.5 4.3 17.6 4.2z"/><path class="st17" d="M242.1 409.2l-17.3 137.6-4.2 113.6 32.8-.1 19.5-115.7 10.7-117.9z"/><path class="st11" d="M222.8 653.8c-4.4 0-6.5 24-6.5 28.4s76.4 10.8 83-.1c6.5-10.9-28.4-15.2-28.4-15.2L249 653.8h-26.2z"/><path class="st17" d="M239.9 394l30.6 30.5-23.9 131-95.9 109.3-28.4-24 78.5-100.5 2.1-80.8c-15.3-26.2-15.9-43-15.9-43l52.9-22.5z"/><path class="st11" d="M150.7 658.3v28.4c3.2 4.9 6.1 10 8.8 15.3 4.4 8.7-8.7 8.7-8.7 8.7-28.4 6.6-39.4-43.6-43.7-54.5-4.4-10.9 21.8-15.3 21.8-15.3l21.8 17.4z"/><circle transform="rotate(-74.901 222.362 178.373)" class="st16" cx="222.4" cy="178.4" r="32.8"/><path class="st16" d="M235.3 197.4l4.4 37.2h-34.9v-37.1z"/><path class="st12" d="M202.8 354.7c-12.5-49.9-16.5-96.3 2-133.2l33.1-2.6s15 11.8 31.9 26.6c13.9 12.1 4.4 48 4.4 48l2.7 27.2 1.3 12.7L288 431c-27.2-7-55.5-8.1-83.1-3.5l-21.7 3.6 19.6-76.4z"/><path class="st12" d="M215.1 293l71.1 34.4c8.6 4.2 18.9 3.3 26.7-2.3l55.8-49.1-13.3-16.2-63.1 32.8-72.9-66-4.3 66.4z"/><circle transform="rotate(-74.901 173.117 118.207)" cx="173.1" cy="118.2" r="21.1"/><path d="M178.2 127.6c1.7.1 3.4 0 5.1-.3 11.5-2.1 19.1-13 17.1-24.5-2.1-11.5-13-19.1-24.5-17.1 1.4.1 2.8.3 4.1.7 11.3 3 17.9 14.6 14.9 25.9-2.1 7.9-8.6 13.9-16.7 15.3zm-12.3 38.8l14.9 24.3 24 16.4c1.8-16.3 4.7-34.4 17.2-41.3 5.3-2.9 9.8-7.1 13-12.2l4.7 12.4 21.8 5.9c1.9-12.8-3.9-25.6-14.7-32.7l-21.7-14.1-28.6 4.7-30.6 36.6z"/><path class="st5" d="M276.9 320.7l1.3 12.7-56.9-60.3z"/><path class="st0" d="M1031.5 566.5h-85.3c-4.9 0-8.8-4-8.8-8.8v-23.3c0-4.9 4-8.8 8.8-8.8h85.3c4.9 0 8.8 4 8.8 8.8v23.3c0 4.8-3.9 8.8-8.8 8.8z"/><path class="st1" d="M1031.5 566.5h-85.3c-4.9 0-8.8-4-8.8-8.8v-23.3c0-4.9 4-8.8 8.8-8.8h85.3c4.9 0 8.8 4 8.8 8.8v23.3c0 4.8-3.9 8.8-8.8 8.8z"/></svg>