<svg version="1.1" id="a3fdf556-7513-4367-833c-43bb1dab678b" xmlns="http://www.w3.org/2000/svg" x="0" y="0" viewBox="0 0 1000 600" xml:space="preserve"><style>.st0{fill:#fff}.st2{fill:none;stroke:#3f3d56;stroke-width:4;stroke-miterlimit:10}.st3{fill:#33ded2}.st4{enable-background:new}.st4,.st6{opacity:.1}.st8{fill:#ededf4}.st10{fill:#a1616a}.st11{fill:#2f2e41}.st12{fill:#3d2a79}.st13{fill:#e1e7ef}.st14{fill:#67647e}.st15{opacity:3.000000e-02;enable-background:new}</style><path class="st0" d="M905.6 27.2l-.2 472.5c-33.2 0 0 0-33.5.2H747.2l-.4-.2c-18.6-7.6-39.4-7.6-58.1 0l-.3.1h-125c-4.2-1.7-8.3-3.6-12.3-5.6-21.1-10.6-46-10.6-67.1 0-4 2-8.1 3.9-12.3 5.6h-125l-.3-.1c-18.6-7.6-39.4-7.6-58.1 0l-.4.2H163.3c-21.3-8.7-40.6-21.6-56.7-38.1V27.2h799z"/><path d="M892.9 100.6L787.3 76.7l-86 7.8-177.6 16-391.2 35.3-1.4.1 131.5 420.7c19.4-1.2 38.7-2.4 58.1-3.6 9.3 3.1 18.6 6.1 27.9 9.2 106.5-8.7 213-17.3 319.5-26l218.1-63.8M670 97.8l1.5-.1 20.7 6.1-11.1 1.1-19.8 1.9-19.6-6.3 23.3-2.1 5-.6zm-8 11.4l18.6 6 9.4 3-7.2.9-5.4.7-14.2 1.7-27.6-9.7 24.6-2.4 1.8-.2zm22.6-2.2l14-1.4 27.9 8.2-31.5 3.8-9.1-2.9-18.6-6 17.3-1.7zm62-6.1l27.8-2.7 25.7 6.6-29.5 3.6-14-3.8-12.4-3.4 2.4-.3zm35.2 12.7l16.1 4.4-2.9.4-31.8 3.9-25.4-7.4 33.6-4.1 10.4 2.8zm-86 19.5l28.9-3.6 5.7 1.8 1.3.4 8.1 2.6-29.3 3.9-11.2-4-.8-.3-2.7-.8zm34-4.2l34-4.2 10.3 3 1.9.6 3 .9-34.1 4.6-7.5-2.4-1.3-.4-6.3-2.1zm-43.9 126l-65.1 10.8-32.8-21 62-9.4 35.9 19.6zm-39.4-21.5l-61.7 9.3-27.3-17.5 57.2-8.4 1.2-.2 24 13.1.1.1 6.5 3.6zM821 160.5l8.1 2.6-15.2 2-17.9 2.4-1.9.3-6.6-2.3-7.6-2.7-32.4-11.5 31.1-4.4 29.7 9.6 12.7 4zm-120.1-2.6l4.1-.6 38-5.4 32.1 11.4 7.6 2.7 6.8 2.4-44.9 6-8.8-3.3-5.9-2.2-25.7-9.7-3.3-1.3zm93.8 12.3l5.6 2 1.9.7 27.6 9.7-45.7 6.7-34.7-13.1 45.3-6zm-54.6 4.8l-14.6 1.9h-.3L649 187.2l-3.2.4-35-17 25.6-3.6 59.8-8.4 43.9 16.4zm-89.7 14.5l73.3-9.9 6.3-.8 14.9-2 34.8 13.1-16.8 2.5-6.2.9-76.2 11.2-30-14.6-.9-.4h.8zm63.5 33.7l-38.8 5.9-24.8 3.7-30.6-16.7 43.3-6.4 17.7-2.6 33.2 16.1zm-37.3 8.2l41.3-6.2 37.6 18.3-64.7 10.7-1.1.2-35.7-19.5 22.6-3.5zm8.1-24.8l76.6-11.3 6.2-.9 17-2.5 39.2 14.8-12.3 1.9-23.7 3.6-70 10.6-33-16.2zM789 191.2l45.9-6.7 13.2 4.7 27.5 9.7-20.1 3-27.2 4.1-39.3-14.8zm57.4-4.9l-7-2.5 5.1-.8 31.7-4.7c8 4.4 16.1 8.8 24.1 13.3-6.8 2.2-13.5 4.3-20.3 6.5l-33.6-11.8zm-3.2-5.5l-8.8 1.3-29.9-10.6-5.2-1.8 9.8-1.3 24.9-3.3h.5l36.2 11.7-27.5 4zm-100.7-31.3l-26.8-9.4 29.6-3.9 27.8 9-30.6 4.3zm-4.6.7l-34.3 4.8-5.3.7-2.3.3-26.1-9.9 21.3-2.8 5.3-.7 14.7-2 26.7 9.6zm-46.3 6.6l-56.7 8-28.2 4-22.9-11.1 42.9-5.7 38.4-5.1 26.5 9.9zm-88.8 12.5l-32.2 4.6-22.4 3.2-21.4-11.7 35.4-4.7 17.7-2.4 22.9 11zm-30.7 6.9l34.7-4.9 34.8 16.9-57.1 7.6-1.6.2-31.2-17 20.4-2.8zm73.5 13.9l7.2 3.5 23.7 11.5-15.1 2.3-45.6 6.6-29.2-16 59-7.9zm76.1 34.5l64.8-9.9 28.1-4.3 13.8-2.1 39.2 14.8 2.9 1.1-2.1.3-109.3 18.1-37.4-18zm144.2-4.3l-33-12.5 23.7-3.6 23.7-3.6c5.4 4.3 10.8 8.7 16.2 13-7.2 3.4-14.4 6.7-21.7 10.1l-8.9-3.4zm9.5-44.4l-36.1-11.7 40.8-5.4c5.6 2.8 11.2 5.7 16.8 8.5-7.2 2.9-14.4 5.8-21.5 8.6zm-41.6-13.4l-1.7-.5-48.8-15.7 36.2-5.1.6.2 54 15.8-40.3 5.3zm-55.9-18.1l-27.7-9 34.6-4.6 29 8.5-35.9 5.1zm-84.1-9.8l12 4.2-10.9 1.4-5.3.7-24.8 3.3-15-5.7 13.4-1.6 4.9-.6h.2l17.3-2.1 5.4-.6 2 .7.8.3zm-73 7.5l24.4-3 15.1 5.7-34.9 4.7-45.5 6.2-13.8-6.7 54.7-6.9zm-45 14l-15.3 2-37.7 4.9-13.5-7.4 46-5.6 6.5-.8 14 6.9zm-56.9 7.6L471 170l-12.6-8 46.9-5.8 13.6 7.5zm3.7 2l21.5 11.8-50.4 7.1-19.5-12.4 48.4-6.5zm25.1 13.7l31.2 17-55 7.4-26.9-17.2 50.7-7.2zm34.9 19.1l5.5 2.9 24 13.1-1.4.2-56.6 8.3-27-17.2 55.5-7.3zm-1.7 44.7l-67.5 10.3-24-18.2 64.2-9.5 27.3 17.4zm3.2 2l32.8 21-71.1 11.9-29.6-22.5 67.9-10.4zm36.1 23l39.2 25-75.6 13.6-35.2-26.7 71.6-11.9zm3.6-.6l65.4-10.8 42.8 23.4-69.2 12.5-39-25.1zm69.2-11.5l66.2-10.8 45 21.8-68.6 12.3-42.6-23.3zm70.2-11.5l106.7-17.7c.9 2.5 1.8 5 2.6 7.5 7.5 3.4 15.1 6.8 22.6 10.3-29 7.3-58.1 14.5-87.1 21.8l-44.8-21.9zm116.4-88.2l-54.7-16 35.7-5c12.2 4.9 24.4 9.8 36.7 14.7-6 2.1-11.9 4.2-17.7 6.3zM819 138.7h-.2l-28.8-8.4 22.2-2.9 12.9-1.6 29.4 8.1-35.5 4.8zm-8.1-13.8l-11.9 1.6h-.3l-14.5 2-2.2-.6-2-.6-10.9-3.2 30.9-3.8 4-.5 14.8 4.1-7.9 1zm-53-1.9l-33.6 4.1-23.7-7.7 31.9-3.9 25.4 7.5zm-38.6 4.7l-28.6 3.5-1.1-.4-7.2-2.5-13.9-4.9 10.3-1.3 5.4-.7 11.4-1.4 23.7 7.7zm-35.3 3.4l1.9.7-1.4.2-39.6 4.8-21.2-8 39.9-4.9 20.4 7.2zm-43.7 6.3l-21.4 2.6-56.7 6.9-12.6-6.1-5.1-2.4 3.2-.4 50.9-6.2 20.5-2.5 21.2 8.1zm-88.5 7.1l6.1 3-3.9.5-48.2 5.9-15.9-8.7 50.6-6.2 11.3 5.5zm-50 9.9l-46.5 5.7-14-8.9 44.5-5.4 16 8.6zm-50.3 6.1l-51.9 6.4-12.1-9.2 50-6.1 14 8.9zm3.3 2.1l12.6 8.1-53.5 7.1-11.5-8.8 52.4-6.4zm15.8 10.1l19.5 12.5-56.1 7.9-17.4-13.2 54-7.2zm22.7 14.5l26.9 17.2-60.6 8.1-22.7-17.3 56.4-8zm30.1 19.3l26.9 17.3-63.8 9.4-24.3-18.5 61.2-8.2zM509.9 254l-68 10.3-20.5-19 64.4-9.5 24.1 18.2zm2.7 2.2l29.7 22.6-72.2 12-25.9-24.2 68.4-10.4zm32.4 24.6l35.1 26.7-77.1 13.9-30.6-28.6 72.6-12zm37.9 28.8l41 31.2-82.6 16.2-35.8-33.4 77.4-14zm3.5-.6l76-13.7 45.8 29.2-80.7 15.7-41.1-31.2zm79.4-14.3l69.6-12.5 50 27.4-73.9 14.4-45.7-29.3zm73.3-13.2l68.9-12.4 53 25.7-71.9 14-50-27.3zm72.7-13.1c26.4-4.8 52.9-9.5 79.3-14.3 2.3 5.2 4.5 10.5 6.8 15.7-11 8.1-22.1 16.2-33.1 24.3l-53-25.7zm48-135.5l-29.3-8.1 31.3-4.2 30 7.7-32 4.6zm-35.4-9.7l-14.7-4 31.2-3.8 14.5 3.7-31 4.1zm-20.9-5.8l-26.6-7.3 29.8-3.6 27.7 7.1-30.9 3.8zm-38.4-8.3l-33.3 4.1-27.6-8.1 34.2-3.3 26.7 7.3zm-106.7 13l-39.7 4.8-28.4-10.7 40.3-3.9 27.8 9.8zm-44.2 5.4l-20.3 2.5-47.6 5.8-5.8.7-26.5-12.8 23-2.3 28.6-2.8 19.8-1.9 28.8 10.8zm-77.9 9.5l-50.2 6.1-26-14.2 49.5-4.9 26.7 13zm-54.2 6.6L438 149l-24.3-15.4 42.2-4.1 26.2 14.1zm-47.9 5.8l-49.6 6-22.4-17 47.5-4.7 24.5 15.7zm-53.3 6.6l-48.8 6-19.9-18.6 46.1-4.5 22.6 17.1zm2.8 2.1l12.1 9.2-51.2 6.3-10.1-9.5 49.2-6zm15 11.4l11.6 8.8-53 7.1-10.2-9.5 51.6-6.4zm14.3 10.9l17.4 13.2-55.9 7.9-15-14 53.5-7.1zm20.2 15.3l22.7 17.3-60.4 8.1-18.6-17.4 56.3-8zm25.6 19.4l24.4 18.5-64 9.4-21.2-19.8 60.8-8.1zm-20.5 49.7L363.8 276l-16-20 70.1-10.3 20.4 19.1zm2.3 2.2l26 24.3-80 13.1-20.8-26.1 74.8-11.3zm28.3 26.4l30.7 28.6-86.5 15.6-24.7-30.8 80.5-13.4zm33 30.8l35.9 33.5-93.9 18.2-28.9-36.1 86.9-15.6zm38.1 35.6l43.5 40.6-102.3 22.2-35.6-44.4 94.4-18.4zm3.5-.6l83.3-16.2 49.2 37.4-89.2 19.3-43.3-40.5zm86.7-16.9l81.1-15.8 54 34.5-85.9 18.6-49.2-37.3zm84.6-16.5l74.3-14.4 58.3 31.9-78.8 17.1-53.8-34.6zm77.9-15.1l72.2-14c12.4 9.2 24.9 18.4 37.3 27.6-17.1 6.1-34.2 12.2-51.4 18.3l-58.1-31.9zm68.4-192.4l-14.3-3.7 25.8-3.2 14.3 3.4-25.8 3.5zm-20.9-5.4l-27.7-7.1 24.1-3 29.1 7-25.5 3.1zm-34.3-8.8l-25.4-6.6 24.4-2.4 24.9 6-23.9 3zm-32.1-8.2l-21.5-5.5 23.2-2.2 22.3 5.4-24 2.3zm-6.1.6L741.3 99l-3.6.3-21.1-5.8 7.7-.7 21.5-2 21.9 5.7zM732 100l-33.9 3.3-20.7-6.1 33.2-3.2 21.4 6zm-75.8 7.4l-25.8 2.5-18.7-6.6 24.8-2.3 19.7 6.4zm-30.9 3l-40 3.9-18.3-6.9 39.5-3.6 18.8 6.6zm-44.8 4.3l-19.6 1.9-25.2 2.5-25.7 2.5-15.7-7.6 36-3.3 12.9-1.2 18.9-1.7 18.4 6.9zm-75 7.3l-49.1 4.9-14.6-8 48.1-4.4 15.6 7.5zm-53.3 5.2l-41.8 4.1-13.1-8.4 40.3-3.7 14.6 8zm-45.7 4.5l-47.1 4.7-11.6-8.8 45.5-4.2 13.2 8.3zm-50.9 4.9l-45.7 4.5-9.9-9.2 44-4 11.6 8.7zm-49.4 5l-46.5 4.6-7.8-9.7 44.4-4.1 9.9 9.2zm2.4 2.2l19.9 18.6-50.9 6.2-16.1-20.3 47.1-4.5zm22.2 20.8L341 174l-53.5 6.6-7.8-9.8 51.1-6.2zm12.5 11.6l10.2 9.5-56.1 7.5-8.3-10.4 54.2-6.6zm12.5 11.8l15.1 14.1-59.7 8.4-12-15 56.6-7.5zm17.4 16.2l18.6 17.4-64.8 8.7-14-17.5 60.2-8.6zm20.9 19.5l21.5 19.9-69.6 10.3-17.1-21.4 65.2-8.8zm-33.9 52.9l-79.9 12.1-11.5-21 75.3-11.1 16.1 20zm1.8 2.3l20.9 26.2-85.8 14.2-15.5-28.3 80.4-12.1zm22.8 28.4l24.7 30.9-93 16.8-18.2-33.3 86.5-14.4zm26.5 33.2l29 36.2-101.2 19.7-21.3-38.9 93.5-17zm30.8 38.4l35.5 44.4-110.7 24-26.6-48.6 101.8-19.8zm37.4 46.7l45.5 56.8-122.3 30.4-34.5-63.1 111.3-24.1zm3.4-.7l102.8-22.3 54.8 51.2-112.2 27.8-45.4-56.7zm106.2-23.1l89.6-19.4L740 429l-96.1 23.9-54.8-51.1zm93-20.1l86.4-18.6 66.4 42.5-91.6 22.7-61.2-46.6zm89.7-19.4l79-17.1c14.1 11.4 28.1 22.8 42.2 34.2-18.3 8.4-36.6 16.9-54.8 25.3l-66.4-42.4zm132.7-250.8c-3.9.9-7.9 1.7-11.8 2.6l-14.1-3.4 27.5-3.4-2-2.1c.1 2.1.3 4.2.4 6.3zm-.7-6.4l-32.1 3.9-29.1-7 31-3.8 30.2 6.9zm-37.3-8.4l-30.6 3.7-24.7-5.9 31.8-3.1 23.5 5.3zm-30.8-6.9l-31.5 3.1-22.4-5.4 31.1-2.9 22.8 5.2zm-47.5-10.7l17.3 3.9-30.9 2.9-16.7-4 30.3-2.8zm-36.8 3.2l16.7 4-22.9 2.1-16.1-4.1 22.3-2zm-44.7 4.1l16.4-1.5 16.1 4.1-20 1.8-9 .8-15.5-4.3 12-.9zm-18 1.6l15.5 4.3-33.1 3-15-4.4 32.6-2.9zm-38.2 3.5l15 4.4-29.3 2.7-14.1-4.6 28.4-2.5zm-33.8 3l14.1 4.5-24.5 2.3-13.2-4.7 23.6-2.1zM588 97.1l13.3 4.7-39.2 3.6-13-4.8 38.9-3.5zm-62.7 5.7l1-.1 18-1.6 12.7 4.8-18.6 1.6-9.5.9-38.7 3.6-10.6-5.1 45.7-4.1zm-50.3 4.4l10.6 5.1-47.7 4.4-9.8-5.3 46.9-4.2zm-51 4.6l9.8 5.3-39.8 3.7-8.6-5.5 38.6-3.5zm-42.7 3.8l8.6 5.5-45 4.2-7.5-5.7 43.9-4zm-47.7 4.4l7.5 5.7-43.6 4-6.3-5.9 42.4-3.8zm-46.1 4.1l6.3 5.9-43.8 4-4.9-6.1 42.4-3.8zm-92.7 8.3l46.3-4.2 4.9 6.1-47.9 4.4-3.3-6.3zm4.8 8.7l48.6-4.3 7.8 9.8-50.6 4.9-5.8-10.4zm6.9 12.6l51.2-5 16.2 20.3-55.2 6.8-12.2-22.1zm13.6 24.4l55.8-6.8 7.8 9.8-58.2 7.1-5.4-10.1zm6.7 12.4l58.8-7.2 8.3 10.4-60.9 8.1-6.2-11.3zm7.5 13.6l61.5-8.2 12 15-64.8 9.2-8.7-16zm10 18.3l65.3-9.2 14 17.5-69.7 9.3-9.6-17.6zm81.1 10.5l17.1 21.4-74.8 11-12.6-23 70.3-9.4zM136 137.8l55.4-4.9 3.5 6.4-56.8 5.2-2.1-6.7zm2.8 9l57.2-5.3 5.6 10.3-59.5 5.8-3.3-10.8zm4.1 13.2l60.1-5.9 12 22.2-64.6 7.9-7.5-24.2zm8.3 26.5l65.1-8 5.5 10.1-67.4 8.2-3.2-10.3zm3.8 12.8l67.9-8.3 6.2 11.4-70.3 9.3-3.8-12.4zm4.7 14.8l70.8-9.4 8.7 16-74.2 10.4-5.3-17zm6.1 19.4l74.7-10.6 9.6 17.5-78.9 10.6-5.4-17.5zm6.2 20l79.3-10.6L264 266l-84.2 12.4-7.8-24.9zm8.6 27.3l84.7-12.5 11.5 21-89.3 13.5-6.9-22zm7.6 24.4l89.9-13.6 15.3 28.2-95.7 15.9-9.5-30.5zm10.5 33.1l96.2-15.9 18.2 33.3-103.2 18.6-11.2-36zm12 38.4L314.5 358l21.3 39-111.9 21.7-13.2-42zm13.7 44.5l112.4-21.8 26.6 48.7-122.3 26.5-16.7-53.4zm179.7 123.3c-13.1 1.2-26.2 2.4-39.2 3.5l-100.3 1.8 136-33.8c1.1 9.5 2.3 19 3.5 28.5zm-140.3 2.8L241.9 477l122.9-26.6 34.7 63.2-135.7 33.7zm203.9-6.4c-21.2-8.6-42.4-17.2-63.7-25.7l122.9-30.5 58.5 72.9c-39.2-5.6-78.4-11.1-117.7-16.7zm120.8 15.7l-58.2-72.7L642.9 456l69.1 64.5-123.5 36.1zm126.6-37.1l-69-64.4 96.5-23.9 76.2 58-103.7 30.3zM822 488.3l-76.1-57.9 92-22.8c16.8 15.9 33.6 31.9 50.5 47.8-22.1 11-44.3 21.9-66.4 32.9z" fill="#e2e2e2"/><path class="st2" d="M901.5 500.6c5.3-10.6-1.5-23.2-9.2-32.2-7.6-9.1-16.9-18.4-17.1-30.3-.3-17.1 17.4-27.7 31.6-37.2 10.5-7.1 20.1-15.3 28.6-24.6 3.4-3.7 6.7-7.7 8.6-12.4 2.8-6.7 2.4-14.3 2-21.6-1.4-24.3-3.4-48.5-6-72.6"/><path class="st3" d="M967.4 267.4c-.7-9-6-17-14-21.3l-5.6 11.9-.3-14.2c-14.2-3.7-28.7 4.9-32.4 19.1-3.7 14.2 4.9 28.7 19.1 32.4 14.2 3.7 28.7-4.9 32.4-19.1.7-2.8 1-5.8.8-8.8zM926 448.6c-6.3 13.2-22.1 18.9-35.4 12.6-13.2-6.3-18.9-22.1-12.6-35.4 6.3-13.2 22.1-18.9 35.4-12.6 6 2.8 10.7 7.8 13.2 13.9l-16.1 14 18.1-4.8c.1 4.3-.8 8.5-2.6 12.3zm-14.8-51.1c-14.6 1.2-27.4-9.7-28.6-24.3-.3-4.1.3-8.3 1.9-12.2 3-7.3 9.1-12.9 16.6-15.3l.2 10.9 5.6-12.1h.1c14.6-1.2 27.4 9.7 28.6 24.3 1.1 14.7-9.8 27.5-24.4 28.7zm63-45c-14.6 1.2-27.4-9.7-28.6-24.3-1.2-14.6 9.7-27.4 24.3-28.6 5-.4 9.9.6 14.3 2.9l-4.3 13 9.3-9.6c5.3 4.6 8.6 11.1 9.1 18 .2 2.5.1 4.9-.4 7.3-2.2 11.7-11.9 20.3-23.7 21.3z"/><path class="st4" d="M964 274.6c-6.1.9-12 3-18.1 3.6-6.1.6-12.9-.7-17-5.3-2.2-2.5-3.3-5.7-5.2-8.5-1.8-2.6-4.1-4.6-6.9-6.1-6.2 13.3-.4 29.1 12.9 35.3 13.3 6.2 29.1.4 35.3-12.9 1-2.1 1.6-4.2 2.1-6.4-1.1.1-2.1.2-3.1.3zm10.2 77.9c-14.6 1.2-27.4-9.7-28.6-24.3-.3-4.3.4-8.7 2.1-12.7 2.2 1.3 4 3.1 5.5 5.2 2 2.8 3.2 6 5.6 8.6 4.3 4.7 11.4 6.1 17.8 5.6s12.5-2.5 18.9-3.3c.9-.1 1.8-.2 2.7-.2-2.5 11.5-12.2 20.2-24 21.1zm-63 45c-14.6 1.2-27.4-9.7-28.6-24.3-.3-4.1.3-8.3 1.9-12.2 2.2 1.4 4.2 3.1 5.8 5.2 2.2 2.8 3.6 6.1 6 8.8 4.6 4.8 12.2 6.3 19 6 6.6-.4 12.8-2.2 19.4-2.9-2.9 10.7-12.3 18.5-23.5 19.4zm14.8 51.1c-6.4 13.2-22.3 18.7-35.5 12.2-12-5.8-17.8-19.6-13.6-32.3 2.2 1.4 4.3 3 6 5 2.6 3 4.4 6.4 7.4 9.2 5.6 5.1 14.5 7 22.2 7 4.6-.1 9.1-.5 13.5-1.1z"/><ellipse cx="496.7" cy="532.5" rx="483.6" ry="40.2" fill="#beede6"/><g class="st6"><path class="st3" d="M59.3 66.1c-1.4-5.7.2-11.7 4.3-16l5.9 6.2-2.7-8.8c8-5.2 18.7-2.8 23.8 5.2 5.2 8 2.8 18.7-5.2 23.8-8 5.2-18.7 2.8-23.8-5.2-1.1-1.6-1.9-3.3-2.3-5.2z"/><path class="st4" d="M62.8 69.8c3.9-.7 8-.6 11.9-1.5 3.9-.9 7.8-3 9.4-6.7.8-2 .9-4.2 1.5-6.3.6-1.9 1.6-3.7 3-5.1 6.5 6.9 6.2 17.8-.7 24.4-6.9 6.5-17.8 6.2-24.4-.7-1-1.1-1.9-2.3-2.6-3.6.6-.2 1.3-.3 1.9-.5z"/></g><g class="st6"><path class="st3" d="M922 31.8c4.5-3.2 10.3-3.9 15.4-1.8l-3.4 7.3 6.7-5.4c7.3 5.2 8.9 15.2 3.8 22.5-5.2 7.3-15.2 8.9-22.5 3.8-7.3-5.2-8.9-15.2-3.8-22.5 1-1.6 2.3-2.9 3.8-3.9z"/><path class="st4" d="M919.9 36.2c2 3.2 3.3 6.7 5.4 9.8 2.1 3.1 5.4 5.7 9.1 5.8 2 0 4-.7 6-.9 1.9-.2 3.8.1 5.5.8-3.8 8.1-13.3 11.6-21.4 7.8-8.1-3.8-11.6-13.3-7.8-21.4.6-1.2 1.3-2.4 2.2-3.5.4.5.7 1 1 1.6z"/></g><g opacity=".2"><path class="st2" d="M113.7 415.3c-6.3-10-.7-23.2 6-32.9s15-19.9 14.1-31.8c-1.4-17-20-25.9-35-33.9-11.1-6-21.4-13.3-30.8-21.7-3.8-3.4-7.4-7-9.8-11.5-3.4-6.4-3.8-14-4.1-21.3-.9-24.3-1.3-48.6-1-72.9"/><path class="st3" d="M25.6 189.6c-.1-9 4.3-17.5 11.8-22.5l6.7 11.4-1.1-14.3c13.8-5 29 2 34.1 15.8 5 13.8-2 29-15.8 34.1-13.8 5-29-2-34.1-15.8-1-2.8-1.5-5.7-1.6-8.7zm58.6 176.3c7.5 12.6 23.8 16.7 36.4 9.2s16.7-23.8 9.2-36.4c-7.5-12.6-23.8-16.7-36.4-9.2-5.7 3.4-9.9 8.8-11.8 15.2L99 357.1 80.5 354c.3 4.2 1.6 8.3 3.7 11.9zm9.8-52.3c14.7-.2 26.3-12.3 26.1-27-.2-12.4-8.9-23-21-25.5l.8 10.9-6.7-11.4h-.1c-14.7.1-26.5 12-26.5 26.6.1 14.7 12 26.5 26.6 26.5.4-.1.6-.1.8-.1zm-67-38.7c14.7-.2 26.3-12.3 26.1-27-.2-14.7-12.3-26.3-27-26.1-5 .1-9.8 1.6-14 4.3l5.5 12.6L7.4 230c-4.9 5.1-7.5 11.8-7.4 18.8 0 2.5.4 4.9 1.1 7.3 3.5 11.4 14 19.1 25.9 18.8z"/><path class="st4" d="M29.6 196.4c6.2.3 12.2 1.8 18.4 1.8 6.2 0 12.8-1.9 16.4-6.9 1.9-2.7 2.8-6 4.4-8.9 1.5-2.7 3.7-5 6.3-6.7 7.4 12.7 3.1 28.9-9.5 36.3-12.7 7.4-28.9 3.1-36.3-9.5-1.1-1.9-2-3.9-2.6-6.1h2.9zM27 274.9c14.7-.2 26.4-12.3 26.1-27-.1-4.3-1.2-8.6-3.3-12.4-2 1.6-3.7 3.5-5 5.7-1.7 3-2.6 6.3-4.7 9.1-3.8 5.1-10.8 7.1-17.2 7.3-6.4.1-12.7-1.3-19.1-1.5H1.1c3.5 11.4 14 19 25.9 18.8zm67 38.7c14.7-.2 26.3-12.3 26.1-27-.1-4.2-1.1-8.2-3.1-11.9-2.1 1.6-3.9 3.5-5.3 5.7-1.9 3-2.9 6.5-5.2 9.3-4.1 5.3-11.6 7.5-18.3 7.8-6.6.3-13-.9-19.5-1 4.1 10.5 14.2 17.3 25.3 17.1zm-9.8 52.3c7.5 12.6 23.8 16.7 36.4 9.1 11.6-7 16.1-21.5 10.5-33.8-2.1 1.6-3.9 3.4-5.5 5.6-2.3 3.2-3.8 6.8-6.5 9.9-5.1 5.7-13.7 8.4-21.4 9.1-4.5.3-9 .3-13.5.1z"/></g><path class="st8" d="M906.8 8.7v20.4H106.6V8.7c0-3.9 3.1-7 7-7h786.2c3.8 0 7 3.1 7 7zM211.3 29.1v471.7s-42.7-.2-104.7-1.1V29.1h104.7zm695.5 0v472.5c-.4.3-38.2-.4-39.8.2h-65V29.1h104.8z"/><path class="st0" d="M121 52.1h75.9v9.5H121zm0 21.8h75.9v9.5H121zm0 21.8h75.9v9.5H121zm0 21.9h75.9v9.5H121zm0 21.8h75.9v9.5H121zm.2 64.4h75.9v9.5h-75.9zm0 21.9h75.9v9.5h-75.9zm0 21.8h75.9v9.5h-75.9zm0 21.8h75.9v9.5h-75.9zm0 21.8h75.9v9.5h-75.9zm.3 64.5h75.9v9.5h-75.9zm0 21.8h75.9v9.5h-75.9zm0 21.8h75.9v9.5h-75.9zm0 21.8h75.9v9.5h-75.9zm0 21.8h75.9v9.5h-75.9zM807.7 33.2h9.5v9.5h-9.5zm11.4 0h9.5v9.5h-9.5zm11.4 0h9.5v9.5h-9.5zm11.4 0h9.5v9.5h-9.5zm11.4 0h9.5v9.5h-9.5zM807.7 73h9.5v9.5h-9.5zm11.4 0h9.5v9.5h-9.5zm11.4 0h9.5v9.5h-9.5zm11.4 0h9.5v9.5h-9.5zm11.4 0h9.5v9.5h-9.5zm-45.6 39.8h9.5v9.5h-9.5zm11.4 0h9.5v9.5h-9.5zm11.4 0h9.5v9.5h-9.5zm11.4 0h9.5v9.5h-9.5zm11.4 0h9.5v9.5h-9.5zm-45.6 39.8h9.5v9.5h-9.5zm11.4 0h9.5v9.5h-9.5zm11.4 0h9.5v9.5h-9.5zm11.4 0h9.5v9.5h-9.5zm11.4 0h9.5v9.5h-9.5zm-45.6 39.9h9.5v9.5h-9.5zm11.4 0h9.5v9.5h-9.5zm11.4 0h9.5v9.5h-9.5zm11.4 0h9.5v9.5h-9.5zm11.4 0h9.5v9.5h-9.5zm-45.6 39.8h9.5v9.5h-9.5zm11.4 0h9.5v9.5h-9.5zm11.4 0h9.5v9.5h-9.5zm11.4 0h9.5v9.5h-9.5zm11.4 0h9.5v9.5h-9.5zm-45.6 39.8h9.5v9.5h-9.5zm11.4 0h9.5v9.5h-9.5zm11.4 0h9.5v9.5h-9.5zm11.4 0h9.5v9.5h-9.5zm11.4 0h9.5v9.5h-9.5zm-45.6 39.8h9.5v9.5h-9.5zm11.4 0h9.5v9.5h-9.5zm11.4 0h9.5v9.5h-9.5zm11.4 0h9.5v9.5h-9.5zm11.4 0h9.5v9.5h-9.5zm-45.6 39.9h9.5v9.5h-9.5zm11.4 0h9.5v9.5h-9.5zm11.4 0h9.5v9.5h-9.5zm11.4 0h9.5v9.5h-9.5zm11.4 0h9.5v9.5h-9.5zm-45.6 39.8h9.5v9.5h-9.5zm11.4 0h9.5v9.5h-9.5zm11.4 0h9.5v9.5h-9.5zm11.4 0h9.5v9.5h-9.5zm11.4 0h9.5v9.5h-9.5zm-45.6 39.8h9.5v9.5h-9.5zm11.4 0h9.5v9.5h-9.5zm11.4 0h9.5v9.5h-9.5zm11.4 0h9.5v9.5h-9.5zm11.4 0h9.5v9.5h-9.5zm-45.6 39.8h9.5v9.5h-9.5zm11.4 0h9.5v9.5h-9.5zm11.4 0h9.5v9.5h-9.5zm11.4 0h9.5v9.5h-9.5zm11.4 0h9.5v9.5h-9.5z"/><path class="st8" d="M661.9 130.4v202.5l-216.5 48.9-76.8-97.8-6.8-195.6C426 80 490.3 71.6 554.5 63.2c35.8 22.5 71.6 44.8 107.4 67.2z"/><path class="st4" d="M661.9 131.8v201.1l-214.2 48.4-2.3.5-76.8-97.7-6.7-195.6 80 73.3z"/><path class="st4" d="M661.9 132.5v200.4l-214.2 48.4-5.8-219.5 216.5-27.9z"/><path class="st3" d="M543 112.6l-10.7-18.5-10.6-18.5L511 94.1l-10.7 18.5h18.2v85.3h6.3v-85.3zm65 177.2l-10.7-18.5-7.4 12.8-55.1-52.2-4.3 4.5 56.2 53.3-.1.1-10.6 18.4h42.6zm25.3-99.2l-20-7.4 3.3 19.3-71.9 12.8 1.1 6.2 71.9-12.8 2.9 16.6 16.3-13.7 16.4-13.7z"/><linearGradient id="SVGID_1_" gradientUnits="userSpaceOnUse" x1="1716.24" y1="-67.802" x2="1716.24" y2="365.835" gradientTransform="matrix(1 0 0 -1 -1518.79 475.37)"><stop offset="0" stop-color="gray" stop-opacity=".25"/><stop offset=".54" stop-color="gray" stop-opacity=".12"/><stop offset="1" stop-color="gray" stop-opacity=".1"/></linearGradient><path d="M267.8 242.4c-1.6-10.7-11.3-35.5-11.3-35.5-.2-.7-.4-1.5-.6-2.2-6.9-23.6-16.4-25.7-16.4-25.7l-34.1-7.3c.3.2.5.4.7.7-.2 0-.4 0-.5.1-1.6-1.8-2.6-4.1-3-6.5-.1-.4-.1-.7-.2-1.1 9.5-9.2 9.7-24.4.4-33.9-.7-.8-1.5-1.5-2.4-2.1-.4-.3-.7-.5-1.1-.8 1.6-1.7 1.7-4.1.5-6.5-2.7-5.6-8.5-9.1-14.5-10.8-4.6-1.3-9.6-1.7-14.1-.3-2.5.9-5 2.1-7.4 3.4-4.5 2.3-9.5 4-12.9 7.8-.9.8-1.4 1.9-1.3 3.1.3.8.7 1.6 1.3 2.3.9 1.7.7 3.8.1 5.7-.7 1.8-1.6 3.6-2.1 5.5s-.3 4.1 1.1 5.5l2.1 1.5c.8.7 1.5 1.4 2 2.3l4 5.5c1.9 2.4 3.6 5 5 7.7.9 2 1.9 4 3.1 5.9.4.5.8 1 1.3 1.4l-.4-.2a5.8 5.8 0 004.5 1.7h.2c.3 0 .6-.1.8-.3v.7c.1 2.6.1 5.4-.1 8l-.3-.2c-1-.5-2.1-.4-2.9.3l-31.4 25.2s-6.8 9.3-5.9 25.4l-5.5 24.2s-6.9 20.5-1.6 35.1c5.3 14.6 8.4 23 8.4 23s2.1 16.6 5.3 18c3.2 1.4 4.6 2.1 4.6 2.1l.6 4s.2.4.6 1c2.3 4 10.9 18.2 15.9 16.7.6 3.9.9 7.8.8 11.7l4.9 33s3.4 9 3.2 13.7 4 11.4 4 11.4c-2.6 4.7-3.3 10.2-2.1 15.4 2 8.8 4.6 49.4 4.6 49.4l3.7 9.8-.1 11.4c-.3 1.9-1.1 3.6-2.3 5.1-2.4 2.6-2.2 5.6-7.9 9.1s-9.4 4.9-9.4 9.6c0 .6-.1 1.3-.2 1.9-.5 3.4-1.6 5.3 9 6.3 7.5.6 15-1.9 20.6-6.9 0 0 1.8-3.3 10.4-4.6 0 0 2.9-.2 3.1-2.7.1-.9 0-2.6 0-4.5-.1-3.6-.5-7.8-.9-8-.5-.2-1.6-3.9-1.9-5.2h2.4s2.2-16.6 0-27.4c-2.2-10.8-.2-18.4-.2-18.4l-.4-28.4s-3-3.1-.6-8.7c2.3-5.5 0-32.9 0-32.9s.9-9.8 3.3-12.1c2.4-2.3.1-14.4 0-15l4.3 14.5s1.9 28.9 5.9 34.1l1.2 13.1s8.2 12 6.6 18.5 1.7 29.9 1.7 29.9v24s-3.7 9.6 1.5 13.1l2.2-.1c-.8.7-1.3 1.7-2.2 2.6-1 1-1.6 4.9-1.9 8.2-.3 2.8-.4 5.3-.4 5.3 1.4 2.1 3.8 3.5 6.4 3.8 4.1.2 17.8 10.7 17.8 10.7s13.5 0 17-.7h.2c1.1-.4 2.1-1.1 2.6-2.2.7-1.2.9-2.6.6-4-.4-2.1-2.1-4.3-5.7-6.2-9.1-4.7-10.4-9.2-10.4-9.2L246 512h.8s-.5-9.4 5.9-20l-.4-46.6s2.6-16-1.9-24.7c0 0-.4-9.2 2.7-12 3-2.8-4-31.4-4-31.4s-1.5-15.3-3.2-29.3c7.1 6.8 14.6-17.6 15.8-21.9h.2s0-.1-.1-.3l.1-.3s-1.6-5.6-.4-4.5 4-3.1 4-3.1-.4-23.3 4.6-35.1c4.9-11.8-2.3-40.4-2.3-40.4zm-21.3 14.9c.7 14.2-.1 44.6-.1 44.6s-.9 3.9-2 8.5l-.7-28.9-.7-27.2 3.5 3zm-91-9.8s3.6 45 0 51.5c-1 1.8-1.9 5.1-2.6 8.9-1.2-3.1-3.7-10.4-2.8-14.3 1.2-5-2.3-18.2-2.3-18.5 0-.3-.3-7.3 2.2-12.7 2.5-5.4.8-7.7.8-7.7s2.1-9 4.7-7.2z" fill="url(#SVGID_1_)"/><path class="st10" d="M164.2 348.7c-3.1 13.8-15.6-7-18.4-12l-.6-1 1.4-6.3 7.1-2.9c1.1.6 2.2 1.3 3.2 2.1 3.9 2.9 9.7 9.4 7.3 20.1zm96.7-22.5s0 .1-.1.3l-.1.3c-1.2 4.3-8.5 28.5-15.5 21.8-7.7-7.4-3.9-24.3-3.9-24.3l16.1-1.6 3.2 3.3.3.2z"/><path class="st11" d="M251.5 445.3l.4 46.2c-6.3 10.5-5.8 19.8-5.8 19.8l-20.9.8c-5.1-3.4-1.5-13-1.5-13v-23.8s-3.2-23.2-1.7-29.7-6.5-18.4-6.5-18.4l-1.1-13c-3.9-5.2-5.8-33.9-5.8-33.9l-4.2-14.4c.1.6 2.3 12.7 0 14.9-2.3 2.2-3.2 12-3.2 12s2.3 27.2 0 32.7c-2.3 5.5.6 8.6.6 8.6l.4 28.2s-2 7.6.2 18.3 0 27.2 0 27.2H180l.1-11.5-3.6-9.8s-2.5-40.3-4.5-49c-1.2-5.2-.4-10.6 2.1-15.3 0 0-4.2-6.6-3.9-11.3s-3.1-13.5-3.1-13.5l-4.8-32.8c.1-6.3-.7-12.6-2.4-18.7-2.8-9.3-7-21.6-7-21.6l4.7.4 23.7 2.1s57.5-3.9 60.1-.7c.5 1 .9 2.2 1.1 3.3 2.6 11.6 6 47.9 6 47.9s7 28.3 4 31.1-2.6 11.9-2.6 11.9c4.2 9.1 1.6 25 1.6 25z"/><path class="st12" d="M202.9 525.6c-.2 2.6-3 2.7-3 2.7-8.4 1.3-10.2 4.6-10.2 4.6-5.5 5-12.8 7.4-20.2 6.9-10.3-.9-9.3-2.8-8.8-6.3.1-.6.2-1.3.2-1.9 0-4.7 3.6-6 9.2-9.5s5.4-6.5 7.8-9c2.3-2.6 2.6-7.6 2.6-7.6 2.6-4.6 9.3.7 9.3.7.3 1.6 10.3 1.4 10.3 1.4s1.3 5.3 2 5.6c.5.2.8 4.4.9 7.9-.1 1.9 0 3.6-.1 4.5z"/><path class="st4" d="M202.9 525.6c-.2 2.6-3 2.7-3 2.7-8.4 1.3-10.2 4.6-10.2 4.6-5.5 5-12.8 7.4-20.2 6.9-10.3-.9-9.3-2.8-8.8-6.3 4.6 1.1 13.5 2.7 18.6-.1 7.2-3.9 12.3-6.6 12.3-6.6l11.3-5.7c0 1.9.1 3.6 0 4.5z"/><path class="st12" d="M266.3 539.4c-.6 1-1.5 1.8-2.6 2.1h-.2c-3.4.7-16.7.7-16.7.7s-13.4-10.3-17.4-10.6c-2.5-.3-4.8-1.7-6.2-3.8 0 0 .1-2.4.3-5.2.3-3.3.9-7.2 1.8-8.2 1.8-1.9 2.2-4.4 6.2-2.8 0 0 5.8-10.1 12.5-2.3l7 10.6s1.3 4.4 10.2 9.2c3.6 1.9 5.2 4.1 5.6 6.2.4 1.4.2 2.9-.5 4.1z"/><path class="st4" d="M266.3 539.4c-.8.7-1.7 1.4-2.6 2.1h-.2c-3.4.7-16.7.7-16.7.7s-13.4-10.3-17.4-10.6c-2.5-.3-4.8-1.7-6.2-3.8 0 0 .1-2.4.3-5.2 4.1 1.2 10.4 3.4 12 5.8 2.6 3.6 10.4 8.5 10.4 8.5s14.5-1.4 21-1.6c.3 1.5.1 2.9-.6 4.1z"/><path class="st10" d="M209.7 177.1l-19.2 20.2s-23.2-1.7-19.2-8.5c2.1-3.5 2.4-10.8 2.2-17.2-.2-6.1-.8-11.4-.8-11.4s32.6-16.2 30.1-1.1c-.5 2.8-.6 5.8-.1 8.6 1.4 7.8 7 9.4 7 9.4z"/><path class="st4" d="M202.8 159.2c-.5 2.8-.6 5.8-.1 8.6-4.3 4.4-10.4 3.4-17.1 3.4-4.4 0-9.2.1-12.7-2-.2-6.1-.2-8.9-.2-8.9s32.6-16.2 30.1-1.1z"/><path class="st10" d="M209.7 149.7c0 13.2-10.7 24-24 24-13.2 0-24-10.7-24-24 0-13.2 10.7-24 24-24 13.2.1 24 10.8 24 24z"/><path class="st4" d="M242.3 329.7c-6 14.2-44.4 14.5-44.4 14.5v-15.5l-2.3-.2c1 4.4-1.4 15.3-1.4 15.3-30.3 4.3-37.8-13-37.8-13l1.1-5.9 23.7 2.1s57.5-3.9 60.1-.7c.5 1.1.8 2.3 1 3.4z"/><path class="st13" d="M197.9 342.4v-15.5l-2.3-.2c1 4.4-1.4 15.3-1.4 15.3-22.9 3.2-32.7-5.8-36.2-10.4-.6-.8-1.2-1.7-1.6-2.6l9.3-52.2 2.2-76.8 3.3-13.5.8-6.5h.1l2.4 1 14.1 6.1 16.1-12.1.2-.2.8-.6 1.3 1.1 3.3 2.6 10.6 68.4s18.4 52.6 21.8 73.9l.3 2.4c2.3 19.4-45.1 19.8-45.1 19.8z"/><circle class="st14" cx="190.3" cy="188.7" r="1.4"/><circle class="st14" cx="190.9" cy="201.1" r="1.4"/><circle class="st14" cx="192.3" cy="221.3" r="1.4"/><circle class="st14" cx="194.5" cy="243" r="1.4"/><circle class="st14" cx="195.9" cy="263.4" r="1.4"/><circle class="st14" cx="197.3" cy="285.1" r="1.4"/><circle class="st14" cx="196.7" cy="306.6" r="1.4"/><path class="st4" d="M172.9 284.4s-1.5 20-4.3 25.8c-2.8 5.8-4 22.1-4 22.1l-6.5-.7c-.6-.8-1.2-1.7-1.6-2.6l9.3-52.2L168 200l3.3-13.5.8-6.5h.1c.7-.4 1.6-.4 2.3 0l.3.2c-.1.3-.2.5-.3.8-2.5 7.9-3.5 22.6-3.5 22.6s3.6 26.8 4 39.2-2.1 41.6-2.1 41.6z"/><path class="st4" d="M156.9 328.5c-.1.2-.2.3-.3.5-2.5 4.3-8.9 7-10.9 7.7l-.6-1 1.4-6.3 7.1-2.9c1.2.5 2.3 1.2 3.3 2z"/><path class="st12" d="M139.6 226.5l-5.9 3.5-5.4 24s-6.8 20.3-1.6 34.9c5.2 14.5 8.2 22.8 8.2 22.8s2.1 16.5 5.2 17.9c3.1 1.3 4.5 2.1 4.5 2.1l.6 3.9s8.4-2.8 11.4-7.9c3-5.1-2.2-17.6-2.2-17.6s-4.5-10.7-3.3-15.7c1.1-5-2.3-18-2.3-18.4s-.3-7.3 2.2-12.6.8-7.6.8-7.6l-1.6-15.3-10.6-14z"/><path class="st4" d="M242.8 325.2s-15.7 5.9-20.7.7-4.5-29.5-4.5-29.5-4.7-44.8-7.8-52.2c-3-7.4-1.5-60.5-1.5-60.5s-2-6.9-3.8-8.7c-.1-.1-.2-.2-.4-.3l.6.1 2.1.5 3.3 2.6 10.6 68.4s18.4 52.6 21.8 73.9l.3 5z"/><path class="st4" d="M260.9 326.8h-.2c-2 .3-19.4 2.4-19.5-1.3 0-.4 0-.8.1-1.3l16.1-1.6 3.2 3.3c.1.2.1.4.2.5l.1.4z"/><path class="st12" d="M244.1 202.5l11.5 6s9.5 24.7 11.1 35.3c0 0 7.1 28.4 2.2 40-4.9 11.7-4.5 34.8-4.5 34.8s-2.8 4.3-4 3.1.4 4.5.4 4.5-19.6 2.6-19.6-1.2c-.1-3.8 4.5-22.2 4.5-22.2s1.2-43.7-.5-50.6c-1.8-6.9-1.1-49.7-1.1-49.7z"/><path class="st4" d="M210 249s-6.4 15.8-8.5 16.8c-2.1 1 .4 5.2.4 5.2s11.7-16.4 8.1-22zm-3.9-55.3c.1-.3-7.7 7.6-9.8 8.8-2 1.2 7.7-.1 9.8-8.8zm-21.6 54.1s-11.8 7.7-10.3 10.7c1.6 3 10.3-10.7 10.3-10.7zM206 359.5s10.1 6.5 25.8 8.1l-25.8-8.1zm-24.2 15.6s9.3 11.7 13.6 12c4.3.3-13.6-12-13.6-12zm13.1 46c-.4.2-5.3 10.6-10.3 10.9-4.9.3 10.3-10.9 10.3-10.9zm43.3 22.7s9.3-2.1 11.3 4.6c0 0-.6-2.1-11.3-4.6zm-6.2 38s11.2-2.3 13.6.8-13.6-.8-13.6-.8zm-31.7 5.3c0 .1-11.4 2.3-11 3.7.4 1.5 12.2 1.2 12.6-1 .3-1.2-.4-2.3-1.5-2.7h-.1zm28 9.8s18.8-2.3 17.6 1.7-17.6-1.7-17.6-1.7zM130 265.8c.1.3 12.3 2 14 5.9 0 0-12-5.6-13.9-5.6m17.2 31.8s-10.2 3.2-9.5 8.1c.7 4.9-1-2.3 9.5-8.1zm-4.8 24.7s3.7-5.1 7.2-4.2c3.6 1-7.2 4.2-7.2 4.2zM200.6 131l-1.2.9c-2.9 1.7-3.7 4.3-5.2 7.4-1.3 2.8-2.7 5.7-5.3 7.3-3.4 2-7.8 1.3-11.4 3.1-3.2 1.7-5 5.1-4.7 8.7.2 1.3.6 2.7 1 4 .8 2.8 1.2 5.7 1.1 8.6v.3c-11.8-5.9-16.6-20.3-10.7-32.2s20.3-16.6 32.2-10.7c1.5.6 2.9 1.5 4.2 2.6z"/><path class="st11" d="M200 123.8c-2.6-5.5-8.4-9-14.2-10.7-4.5-1.3-9.4-1.7-13.8-.3-2.5.9-4.9 2.1-7.2 3.4-4.4 2.2-9.3 4-12.7 7.7-.9.8-1.3 1.9-1.3 3.1.3.8.7 1.6 1.3 2.2.9 1.7.7 3.8.1 5.7-.6 1.9-1.6 3.5-2.1 5.4-.5 1.9-.3 4.1 1.1 5.4l2.1 1.5c.8.7 1.4 1.4 2 2.3l4 5.4c1.9 2.4 3.5 4.9 5 7.6.8 2 1.9 4 3.1 5.8 1.3 1.8 3.4 3.2 5.6 3 .3 0 .7-.1.9-.4.1-.2.1-.4.1-.5.1-2.9-.3-5.8-1.1-8.6-.4-1.3-.8-2.6-1-4-.3-3.6 1.5-7 4.7-8.7 3.5-1.8 8-1 11.4-3.1 2.6-1.6 4.1-4.5 5.3-7.3 1.4-3 2.2-5.7 5.2-7.4 2.7-1.7 3-4.6 1.5-7.5z"/><path class="st4" d="M189.3 515.8s3.7 4.7 2.7 7.3-2.7-7.3-2.7-7.3zm49.6 11.6s.8-6.3 4.1-6.3c3.3-.1 3.4-.3 5.9.6 2.5.9 4.8 2.5 4.1 2.7-.7.2-4.3-3.6-7.9-1.6-2.3 1.2-4.4 2.8-6.2 4.6zM178.4 195l10.2-7.2s-15-8.9-16.8-7.6-3 12.5-3 12.5l9.6 2.3z"/><path class="st13" d="M178.3 194.5l10.3-7.4s-15-8.9-16.8-7.6c-1.8 1.3-3 13.1-3 13.1l9.5 1.9z"/><path class="st15" d="M178.3 194.5l10.3-7.4s-15-8.9-16.8-7.6c-1.8 1.3-3 13.1-3 13.1l9.5 1.9z"/><path class="st12" d="M173.5 179.6l-.3-.2c-.9-.5-2-.3-2.8.3l-30.8 25s-6.7 9.3-5.8 25.3l18.1 25.7s2.1-8.7 4.6-7.1c0 0 3.5 44.6 0 51.1-3.5 6.4-5.1 30.5-5.1 30.5l11.9 1.3s1.3-16.3 4-22.1c2.8-5.8 4.3-25.8 4.3-25.8s2.5-29 2.1-41.5c-.4-12.5-4-39.2-4-39.2s1-15.6 3.8-23.3z"/><path class="st4" d="M204.1 190.5l-12.8-4.7s16.3-17.9 18.3-7.9l-5.5 12.6z"/><path class="st13" d="M204.1 189.8l-12.8-4.7s16.3-17.9 18.3-8l-5.5 12.7z"/><path class="st15" d="M204.1 189.8l-12.8-4.7s16.3-17.9 18.3-8l-5.5 12.7z"/><path class="st4" d="M203.7 174.6c.2 0 .4 0 .5.1l-.5-.1z"/><path class="st12" d="M205 173.4l34 7.3s9.3 2.1 16.1 25.5-9.2 52.2-9.2 52.2l-3.5-3 1.8 68.5s-15.7 5.9-20.7.7-4.5-29.5-4.5-29.5-4.7-44.8-7.8-52.2c-3-7.4-1.5-60.5-1.5-60.5s-2.8-9.4-4.7-9z"/><path class="st4" d="M236 217.1c-.5.4-1 21.2 1 37 1.3 9.6 3.2 19.1 5.9 28.4l-3.1-63.2c.1 0-2.3-3.6-3.8-2.2zm-4.1-17.9c.8.5 4.5 9.1 2.8 12.7-1.7 3.5-2.8-12.7-2.8-12.7zm-32.1-75.4c-1.7-3.3-4.3-6-7.5-7.8 2.4 1.7 4.3 4 5.6 6.6 1.5 2.9 1 5.8-1.8 7.5s-3.7 4.3-5.2 7.4c-1.3 2.8-2.7 5.7-5.3 7.3-3.4 2-7.8 1.3-11.4 3.1-3.2 1.7-5 5.1-4.7 8.7.2 1.3.6 2.7 1 4 .8 2.8 1.2 5.7 1.1 8.6 0 .2 0 .4-.1.5-.2.3-.5.4-.9.4-.9.1-1.8-.1-2.6-.5 1.2 1.2 2.8 1.8 4.4 1.7.5.1.9-.3.9-.7v-.2c.1-2.9-.3-5.8-1.1-8.6-.4-1.3-.8-2.6-1-4-.3-3.6 1.5-7 4.7-8.7 3.5-1.8 8-1 11.4-3.1 2.6-1.6 4.1-4.5 5.3-7.3 1.4-3 2.2-5.7 5.2-7.4 3.2-1.7 3.5-4.6 2-7.5z"/></svg>