<svg version="1.1" id="a80b827c-b8c0-47ab-84ce-d2a47a152c7c" xmlns="http://www.w3.org/2000/svg" x="0" y="0" viewBox="0 0 800 670" xml:space="preserve"><style>.st0{fill:#e6e6e6}.st1{fill:#33ded2}.st4{fill:#1b2238}.st6{fill:#94a4ad}.st7{fill:#efd0b4}.st8{fill:#5c39bc}.st10{fill:#f2f2f2}.st11{fill:#fff}</style><path class="st0" d="M172 79.6c6.5 8.6 13.5 18.5 20.4 29.3l1-49.7.5.3c-7.4-5.4-15.4-9.7-24-12.8l.5.3 1.6 32.6zm-2.7-33c-8.9-3-17.5-4-25.4-2.6-.4.1-.8.2-1.2.2 2 2.1 13.7 14.8 28.1 33.9l-1.5-31.5zm52 116.6c1.1 2.5 2.1 5.1 3 7.6l18.2-53.8.5.5c-2.2-4-4.4-8-6.8-11.8l-14.7 57.8-.2-.3zm-10.7-22.7l9.5-56.4.5.4c-7.8-9.2-16.6-17.4-26.3-24.6l-1 50.6c6.5 10.2 12.3 20.2 17.3 30zm-96.7-39.9l-.2-.7c.8 8.5 2.5 17 5 25.2l87.6 9c-4.6-8.4-9.3-16.3-13.9-23.5l-78.5-10zm5.2 25.8l-.2-.7c.9 2.9 1.9 5.8 3 8.8l-.2-.7 88.6 7.9c-1.1-2.1-2.2-4.2-3.2-6.2l-88-9.1zm101.5 35.3l14.6-57.3.5.5c-4.4-6.9-9.2-13.5-14.5-19.8l-9.7 57.2c3.4 6.6 6.4 13 9.1 19.4zm3.7 11.9l-86.2-8.3c4.7 6.3 9.8 12.3 15.3 17.9l-.2-.8 78.8 16.2c-2-8.4-4.6-16.8-7.7-25zM142 44.7l.2-.4C130.4 47 122 55 117.4 66.7l52.7 11.9C154.5 58 142.2 44.9 142 44.7zM225.9 175c2.7 7.4 5 15 6.9 22.6l20.5-51.5.5.5c-1.3-7.2-3.5-14.1-6.6-20.8-1.2-2.6-2.5-5.1-3.8-7.7L225 172.7c.3.8.6 1.5.9 2.3zm-34.5-65.9c-6.8-10.6-13.7-20.4-20.1-28.9l-54-12.2-.2-.7c-3.4 8.9-4.6 19.8-3.6 31.9l77.9 9.9zm-54.3 54.8l86.7 8.4v-.1c-3.8-9.9-8.1-19.6-12.9-29.1l-88.8-7.9c1.5 4 3.2 8 5.1 12.1 2.8 5.8 6.1 11.4 9.9 16.6zm209.6 16.8l.2.6c-2.2-8.8-5.7-17.3-10.3-25.2l.2.6-19.6 26.1c-.5 10.8-1.4 22.8-3 35.5l32.5-37.6zm-10.4-25.1c-4.9-8-10.9-14.3-17.9-18.2-.4-.2-.7-.4-1.1-.6.2 2.9 1.1 20.1 0 44l19-25.2zm-34.4 123c-.8 2.6-1.6 5.2-2.5 7.7l48.3-29.8.1.7c.9-4.5 1.7-9 2.3-13.5l-48.2 35.1v-.2zm6.3-24.2l43.3-37.4.1.7c-.1-12-1.6-24-4.6-35.7l-33 38.3c-1.6 11.9-3.5 23.3-5.8 34.1zm43.4-35.9l-43.9 37.9c-1.6 7.2-3.4 14.1-5.4 20.8l47.8-34.8.1.7c1-8.3 1.5-16.5 1.4-24.6z"/><path class="st0" d="M266.9 346.4c0-.6.1-1.2.1-1.8 7.8-9.3 14.5-19.5 19.9-30.5l-26.5-33c-.3-1.1-.7-2.3-1.1-3.4l28.2 35.2c3.8-7.9 7.2-15.9 10.1-24.2l-55.8-56.1c.2-.4.4-.9.5-1.4l55.7 56c3.4-10 6.3-20.3 8.6-30.6l-55.3-54.8.3-1.5 55.4 54.8c.5-2.3 1-4.6 1.5-6.8L253.4 192c.1-.5.2-1.1.3-1.6l55.2 56.2c1.9-9.4 3.3-18.5 4.3-27l-54.1-57.7.3-.7c-1.3 1.9-2.5 3.8-3.7 5.9 0-6.4-.5-12.8-1.6-19.1l-20.7 52c1.7 7.2 2.9 14.4 3.6 21.8-.1 1.2-.2 2.5-.3 3.7l.7.7c0 .7.1 1.3.1 2l-.9-.9c0 .7-.1 1.5-.1 2.2-.4-9.9-1.8-19.7-4-29.4L154.1 184c3.9 4 8.1 8 12.3 11.8-8.2-2.6-16.7-4-25.3-4.3l.6.1 11.6 30.5c8.8 6.2 18.5 13.4 28.4 21.6l-14.2-46.9c.5.5 1.1.9 1.6 1.4l14.2 46.8c9.2 7.6 17.8 15.4 25.6 23.1l-6.5-44c.5.3.9.6 1.4.9l6.6 44.5c5.2 5.2 10.1 10.4 14.6 15.7l-3.2-48.3c.4.3.9.6 1.3.8l3.2 48.8-.3-.1c1.8 2.1 3.5 4.2 5.2 6.2l.6-49.6c.5.3.9.5 1.3.8l-.6 50.5c.5.6 1 1.3 1.5 1.9 4.9 6.2 9.4 12.7 13.6 19.4l.3-4.5c.4 1.3.7 2.7 1.1 3.9l-.2 2.6 1.8 3c.5 1.5.9 3 1.3 4.5-1.3-2.4-2.6-4.7-4-7.1l-79.4 8.9c41.7 22 93.5 32.4 96.8 33-.8-3.5-1.7-6.9-2.8-10.3.3-.3.6-.6.8-.9.1.4.3.8.4 1.2-.1.2-.3.3-.4.5.2-.1.3-.2.5-.2.8 2.4 1.4 4.8 2.1 7.1.2-1.9.6-4.9.8-8.6 14.3-7.2 51.3-28.1 70.1-60.9l-49.1 26.8c-5.6 11.4-12.6 22.1-20.8 31.8zm-16.3-77.5l.1-1.9 1.2 1.6-.1 1.9-1.2-1.6zm65.8-132.1l.4-.2c-10.8-5.5-22.4-4.6-33.4 1.4l33 42.8c1.2-25.8 0-43.7 0-44z"/><path class="st0" d="M297.9 290.7c-2.6 7.4-5.7 14.7-9.1 21.8l48.7-26.6.1.7c3.6-6.3 6.3-13.1 8.2-20.2.7-2.8 1.4-5.5 2-8.3l-48.9 30.2c-.5.8-.7 1.6-1 2.4zm18.5-107.9L282.6 139l.3-.6c-8.3 4.7-16.2 12.3-23.1 22.3l53.7 57.3c1.4-12.6 2.3-24.5 2.9-35.2zm-175.9 8.6c-9.4-.1-17.9 1.6-24.9 5.3-.4.2-.7.4-1.1.6 2.6 1.4 17.6 9.9 37.2 23.6l-11.2-29.5zm41.7 53.7l-77.7 14.8-.4-.6c3.4 7.9 7.6 15.4 12.6 22.4l86.1-18.5c-7.1-6.6-14-12.6-20.6-18.1zm26.6 24.1c-1.7-1.7-3.3-3.3-5-4.9l-86.4 18.5-.4-.6c1.7 2.5 3.6 4.9 5.5 7.4l-.4-.6 86.7-19.8zm38.4 47.5c-4.6-7.5-9.6-14.6-15-21.5L147.5 314c6.4 4.6 13.1 8.7 20.1 12.3l-.4-.7 80-8.9zM114 198.1l.1-.5c-10.4 6.2-15.9 16.5-16.7 29l53.9-5c-21.3-14.8-37.1-23.4-37.3-23.5zm38.8 24.7l-55.1 5.1-.4-.6c-.5 9.5 1.7 20.2 6.5 31.5l77.1-14.7c-9.8-8.1-19.4-15.2-28.1-21.3zm78.4 71.2c-6.6-8.3-13.7-16.2-21.2-23.7l-87 20c2.7 3.3 5.5 6.6 8.6 9.9 4.4 4.7 9.3 8.9 14.5 12.7l85.1-18.9z"/><path class="st1" d="M172 79.6c6.5 8.6 13.5 18.5 20.4 29.3l1-49.7.5.3c-7.4-5.4-15.4-9.7-24-12.8l.5.3 1.6 32.6zm-2.7-33c-8.9-3-17.5-4-25.4-2.6-.4.1-.8.2-1.2.2 2 2.1 13.7 14.8 28.1 33.9l-1.5-31.5zm52 116.6c1.1 2.5 2.1 5.1 3 7.6l18.2-53.8.5.5c-2.2-4-4.4-8-6.8-11.8l-14.7 57.8-.2-.3zm-10.7-22.7l9.5-56.4.5.4c-7.8-9.2-16.6-17.4-26.3-24.6l-1 50.6c6.5 10.2 12.3 20.2 17.3 30zm-96.7-39.9l-.2-.7c.8 8.5 2.5 17 5 25.2l87.6 9c-4.6-8.4-9.3-16.3-13.9-23.5l-78.5-10zm5.2 25.8l-.2-.7c.9 2.9 1.9 5.8 3 8.8l-.2-.7 88.6 7.9c-1.1-2.1-2.2-4.2-3.2-6.2l-88-9.1zm101.5 35.3l14.6-57.3.5.5c-4.4-6.9-9.2-13.5-14.5-19.8l-9.7 57.2c3.4 6.6 6.4 13 9.1 19.4zm3.7 11.9l-86.2-8.3c4.7 6.3 9.8 12.3 15.3 17.9l-.2-.8 78.8 16.2c-2-8.4-4.6-16.8-7.7-25zM142 44.7l.2-.4C130.4 47 122 55 117.4 66.7l52.7 11.9C154.5 58 142.2 44.9 142 44.7zM225.9 175c2.7 7.4 5 15 6.9 22.6l20.5-51.5.5.5c-1.3-7.2-3.5-14.1-6.6-20.8-1.2-2.6-2.5-5.1-3.8-7.7L225 172.7c.3.8.6 1.5.9 2.3zm-34.5-65.9c-6.8-10.6-13.7-20.4-20.1-28.9l-54-12.2-.2-.7c-3.4 8.9-4.6 19.8-3.6 31.9l77.9 9.9zm-54.3 54.8l86.7 8.4v-.1c-3.8-9.9-8.1-19.6-12.9-29.1l-88.8-7.9c1.5 4 3.2 8 5.1 12.1 2.8 5.8 6.1 11.4 9.9 16.6zm209.6 16.8l.2.6c-2.2-8.8-5.7-17.3-10.3-25.2l.2.6-19.6 26.1c-.5 10.8-1.4 22.8-3 35.5l32.5-37.6zm-10.4-25.1c-4.9-8-10.9-14.3-17.9-18.2-.4-.2-.7-.4-1.1-.6.2 2.9 1.1 20.1 0 44l19-25.2zm-34.4 123c-.8 2.6-1.6 5.2-2.5 7.7l48.3-29.8.1.7c.9-4.5 1.7-9 2.3-13.5l-48.2 35.1v-.2zm6.3-24.2l43.3-37.4.1.7c-.1-12-1.6-24-4.6-35.7l-33 38.3c-1.6 11.9-3.5 23.3-5.8 34.1zm43.4-35.9l-43.9 37.9c-1.6 7.2-3.4 14.1-5.4 20.8l47.8-34.8.1.7c1-8.3 1.5-16.5 1.4-24.6z"/><path class="st1" d="M266.9 346.4c0-.6.1-1.2.1-1.8 7.8-9.3 14.5-19.5 19.9-30.5l-26.5-33c-.3-1.1-.7-2.3-1.1-3.4l28.2 35.2c3.8-7.9 7.2-15.9 10.1-24.2l-55.8-56.1c.2-.4.4-.9.5-1.4l55.7 56c3.4-10 6.3-20.3 8.6-30.6l-55.3-54.8.3-1.5 55.4 54.8c.5-2.3 1-4.6 1.5-6.8L253.4 192c.1-.5.2-1.1.3-1.6l55.2 56.2c1.9-9.4 3.3-18.5 4.3-27l-54.1-57.7.3-.7c-1.3 1.9-2.5 3.8-3.7 5.9 0-6.4-.5-12.8-1.6-19.1l-20.7 52c1.7 7.2 2.9 14.4 3.6 21.8-.1 1.2-.2 2.5-.3 3.7l.7.7c0 .7.1 1.3.1 2l-.9-.9c0 .7-.1 1.5-.1 2.2-.4-9.9-1.8-19.7-4-29.4L154.1 184c3.9 4 8.1 8 12.3 11.8-8.2-2.6-16.7-4-25.3-4.3l.6.1 11.6 30.5c8.8 6.2 18.5 13.4 28.4 21.6l-14.2-46.9c.5.5 1.1.9 1.6 1.4l14.2 46.8c9.2 7.6 17.8 15.4 25.6 23.1l-6.5-44c.5.3.9.6 1.4.9l6.6 44.5c5.2 5.2 10.1 10.4 14.6 15.7l-3.2-48.3c.4.3.9.6 1.3.8l3.2 48.8-.3-.1c1.8 2.1 3.5 4.2 5.2 6.2l.6-49.6c.5.3.9.5 1.3.8l-.6 50.5c.5.6 1 1.3 1.5 1.9 4.9 6.2 9.4 12.7 13.6 19.4l.3-4.5c.4 1.3.7 2.7 1.1 3.9l-.2 2.6 1.8 3c.5 1.5.9 3 1.3 4.5-1.3-2.4-2.6-4.7-4-7.1l-79.4 8.9c41.7 22 93.5 32.4 96.8 33-.8-3.5-1.7-6.9-2.8-10.3.3-.3.6-.6.8-.9.1.4.3.8.4 1.2-.1.2-.3.3-.4.5.2-.1.3-.2.5-.2.8 2.4 1.4 4.8 2.1 7.1.2-1.9.6-4.9.8-8.6 14.3-7.2 51.3-28.1 70.1-60.9l-49.1 26.8c-5.6 11.4-12.6 22.1-20.8 31.8zm-16.3-77.5l.1-1.9 1.2 1.6-.1 1.9-1.2-1.6zm65.8-132.1l.4-.2c-10.8-5.5-22.4-4.6-33.4 1.4l33 42.8c1.2-25.8 0-43.7 0-44z"/><path class="st1" d="M297.9 290.7c-2.6 7.4-5.7 14.7-9.1 21.8l48.7-26.6.1.7c3.6-6.3 6.3-13.1 8.2-20.2.7-2.8 1.4-5.5 2-8.3l-48.9 30.2c-.5.8-.7 1.6-1 2.4zm18.5-107.9L282.6 139l.3-.6c-8.3 4.7-16.2 12.3-23.1 22.3l53.7 57.3c1.4-12.6 2.3-24.5 2.9-35.2zm-175.9 8.6c-9.4-.1-17.9 1.6-24.9 5.3-.4.2-.7.4-1.1.6 2.6 1.4 17.6 9.9 37.2 23.6l-11.2-29.5zm41.7 53.7l-77.7 14.8-.4-.6c3.4 7.9 7.6 15.4 12.6 22.4l86.1-18.5c-7.1-6.6-14-12.6-20.6-18.1zm26.6 24.1c-1.7-1.7-3.3-3.3-5-4.9l-86.4 18.5-.4-.6c1.7 2.5 3.6 4.9 5.5 7.4l-.4-.6 86.7-19.8zm38.4 47.5c-4.6-7.5-9.6-14.6-15-21.5L147.5 314c6.4 4.6 13.1 8.7 20.1 12.3l-.4-.7 80-8.9zM114 198.1l.1-.5c-10.4 6.2-15.9 16.5-16.7 29l53.9-5c-21.3-14.8-37.1-23.4-37.3-23.5zm38.8 24.7l-55.1 5.1-.4-.6c-.5 9.5 1.7 20.2 6.5 31.5l77.1-14.7c-9.8-8.1-19.4-15.2-28.1-21.3zm78.4 71.2c-6.6-8.3-13.7-16.2-21.2-23.7l-87 20c2.7 3.3 5.5 6.6 8.6 9.9 4.4 4.7 9.3 8.9 14.5 12.7l85.1-18.9z"/><path d="M734.2 67.8s-12.7 36.3-4.9 41.8-26.5 51.1-26.5 51.1l-41.2-11.2 22.5-38.1s2.9-38.1 2.9-43.7 47.2.1 47.2.1z" opacity=".1"/><path d="M755.6 326.3s3.7 46.5 0 70.7-9.3 91.1-9.3 91.1 0 126.5-20.5 128.3-35.3 3.7-37.2-3.7 9.3-11.2 3.7-14.9-7.4-16.7 0-31.6 0-165.5 0-165.5L657 495.6s-3.7 78.1-7.4 89.3 3.7 31.6-9.3 33.5-27.9-9.3-35.3-13 11.2-3.7 7.4-5.6-14.9-7.4-11.2-9.3 7.4-91.1 7.4-91.1 10.2-190.6 23.2-198.1 21.4 5.4 21.4 5.4l102.4 19.6z" fill="#4a5b64"/><path class="st4" d="M722.1 610v14.9s16.7 40.4 0 40.4-29.8 4.2-29.8-1.4v-50.2l29.8-3.7z"/><path d="M612.4 609v14.9s-16.7 40.4 0 40.4 29.8 4.2 29.8-1.4v-50.2l-29.8-3.7z" fill="#2f2e41"/><path class="st6" d="M721.1 104.2s-9.3 27.9-24.2 22.3l-14.9-5.6-26 178.5s20.5 29.8 50.2 11.2 14.9-206.4 14.9-206.4z"/><path class="st6" d="M698.8 112.4l-4.2-8.8c-1.8-3.8-6.4-5.5-10.2-3.6-13.9 6.7-44.1 21.7-49.8 27.4-5.8 5.8-7.1 13.7-7.4 17-.1.9 0 1.9.3 2.8l12.1 40.1c.2.8 12.4 31 5.2 60.7-2.7 11.1-8.3 47-8.3 50.5 0 3.7-13 24.2-3.7 16.7s11.2-14.9 18.6-3.7c3.3 4.9 8.3 10.1 12.9 14.5 4.6 4.3 12.1 1.5 12.8-4.7l22.4-204.7c.1-1.5-.1-3-.7-4.2z"/><path class="st7" d="M627.3 251.9l5.6 52.1s33.5 29.8 26 31.6-11.2-5.6-11.2-5.6-13 13-20.5 5.6-26-78.1-26-78.1l26.1-5.6z"/><path class="st6" d="M709.1 112.4s15.1-14.8 20.6-13.9 12.9 13.9 12.9 13.9 33.9 10.7 36 26.6c2.7 20.1-18.3 77.6-18.3 77.6s-21.8 55.5.9 109.7c6.8 16.2-70.7 33.5-72.5 22.3s-5.6-122.7 0-139.5 20.4-96.7 20.4-96.7zm-64.3 27.9l-16.6-1.3s-16.9 69.6-18.8 76.9c-1.9 7.3-7.2 42.3-5.9 42.5 1.3.1 28.7-5.3 28.3.3l13-118.4z"/><path class="st8" d="M4.7 427.2h55.6v1.7H4.7z"/><circle class="st4" cx="32.1" cy="132.9" r="18"/><circle class="st1" cx="32.1" cy="202.2" r="18"/><circle class="st4" cx="32.1" cy="271.5" r="18"/><circle class="st4" cx="32.1" cy="340.8" r="18"/><circle class="st4" cx="32.1" cy="410.1" r="18"/><path class="st1" d="M30.9 140.1l-8.6-11.4 2.1-1.5 6.9 9.3L58.8 114l1.6 2z"/><path fill="#667c8a" d="M132.8 198.8l-57.1.8 57.1 25.5v410.1h567.8V198.8z"/><path class="st8" d="M4.7 150h55.6v1.7H4.7zm0 69.3h55.6v1.7H4.7zm0 69.3h55.6v1.7H4.7zm0 69.3h55.6v1.7H4.7z"/><circle class="st10" cx="32.1" cy="202.2" r="8.6"/><path class="st1" d="M488.7 580.5h105.6v27.3H488.7z"/><path class="st11" d="M236.4 310.5h358v120.3h-358z"/><path class="st10" d="M235.7 310.8l1.4-.7L595 430.4l-1.3.7z"/><path class="st10" d="M235.7 430.4l358-120.3 1.3.7-357.9 120.3z"/><path class="st11" d="M235.7 444.6H595v6H235.7zm0 18.8H595v6H235.7zm0 18.8H595v6H235.7zm0 18.8H595v6H235.7zm0 18.9H595v6H235.7zm0 18.8h303v6h-303z"/><path class="st7" d="M768.6 268.7l-26 11.2s-50.2 7.4-50.2-13 50.2-9.3 50.2-9.3l16.7-5.4 9.3 16.5z"/><path class="st6" d="M757.5 129l21.2 10 14.8 94.2s5.1 26-3.4 27.9-32.6 16.7-32.6 16.7-3.4-27.9-10.3-27.9l17.1-14.9-10.3-65 3.5-41z"/><path class="st1" d="M755.3 131.9c-17.5 11.4-40.2 6.8-59.2-1.8-8.3 9.1-51.1 2.8-64.2.8-.2 0-.1-.2 0-.4l2.2-2.7c3.3-4.8 31.6-18.8 39.2-22.3-.5-2.6-1-2.9-1-8.4V46c0-20.8 17-38.2 37.8-37.8 20.1.4 36.4 16.8 36.4 37.1v68.2c5.2 3.5 19.3 2.4 19.5 9.5l-10.7 8.9z"/><path class="st7" d="M717 34.8c-4.9-.4-10.1-.5-15.3 0-12.4 1.1-21.9 11.5-21.9 23.9v9.9c0 16.3 13.2 29.6 29.6 29.6S739 85 739 68.6v-9.9c-.1-12.4-9.6-22.8-22-23.9z"/><path d="M696.2 130.2c-1.6 1.7-1.7 1.8-4.4 2.7-.6-.3-3.3-1.8-3.7-2.2-5.7-5.1-15.4-15.3-18.7-23.2 1.8-.9 1.9-1 4-2 5.6 11.1 14.8 21 20.7 23.7l2.1 1z" fill="#32ccbd"/><path class="st8" d="M717 34.5c11 1 19.7 9.2 21.5 19.6-18.9-6.7-39.5-6.7-58.4 0 1.9-10.5 10.6-18.7 21.5-19.6 5-.4 10.2-.4 15.4 0z"/><path class="st11" d="M238.4 248.4h359.3v6H238.4zm0 18.8h359.3v6H238.4zm0 18.8h303v6h-303z"/><path class="st1" d="M235.4 580.5H341v27.3H235.4z"/><path class="st11" d="M614.7 247.4h74.8v4.5h-74.8zm12.6 14.2h62.2v4.5h-62.2zm-12.6 14.1h74.8v4.5h-74.8zm12.6 14.2h62.2v4.5h-62.2zm0 14.1h62.2v4.5h-62.2zm-12.6 14.2h74.8v4.5h-74.8zm12.6 14.1h62.2v4.5h-62.2zm0 14.2h62.2v4.5h-62.2zm0 14.1h62.2v4.5h-62.2zm0 14.2h62.2v4.5h-62.2zm-12.6 14.1h74.8v4.5h-74.8zm12.6 14.2h62.2v4.5h-62.2zM142.8 247.4h73.6v7.7h-73.6zm15.6 24.3h58v7.7h-58zm0 24.4h58v7.7h-58zm0 24.3h58v7.7h-58zm-15.6 24.3h73.6v7.7h-73.6zm15.6 24.4h58v7.7h-58zm0 24.3h58v7.7h-58zm0 24.4h58v7.7h-58zm-15.6 24.3h73.6v7.7h-73.6zm15.6 24.3h58v7.7h-58zm0 24.4h58v7.7h-58zm0 24.3h58v7.7h-58z"/></svg>